<svg width="984" height="156" viewBox="0 0 984 156" xmlns="http://www.w3.org/2000/svg"><title>art-sound-bars-bg</title><defs><linearGradient x1="48.175%" y1="3.149%" x2="50.043%" y2="109.917%" id="a"><stop stop-color="#2D91FF" stop-opacity=".057" offset="0%"/><stop stop-color="#2D91FF" stop-opacity=".281" offset="22.907%"/><stop stop-color="#4048C4" offset="52.724%"/><stop stop-color="#524AB8" offset="72.694%"/><stop stop-color="#E04EC9" stop-opacity=".311" offset="100%"/></linearGradient></defs><path d="M1024 182v64h-6V118h6v64zm-650 0v64h-6V118h6v64zM-2 110h5v120h-5V110zM8 94h5v120H8V94zm10 8h5v120h-5V102zm10-8h5v120h-5V94zm10-16h5v120h-5V78zm20 0h5v120h-5V78zm-10 24h5v120h-5V102zm20 0h5v120h-5V102zm10-16h5v120h-5V86zm10-16h5v120h-5V70zm10-8h5v120h-5V62zm10-8h5v120h-5V54zm10 8h5v120h-5V62zm10 8h5v120h-5V70zm10 8h5v120h-5V78zm10 0h5v120h-5V78zm10-8h5v120h-5V70zm10 0h5v120h-5V70zm10 8h5v120h-5V78zm10 0h5v120h-5V78zm10-8h5v120h-5V70zm10 0h5v120h-5V70zm10 0h6v120h-6V70zm10 8h6v120h-6V78zm10 8h6v120h-6V86zm10 8h6v120h-6V94zm10 8h6v120h-6V102zm10 0h6v120h-6V102zm10-8h6v120h-6V94zm10-8h6v120h-6V86zm10 8h6v120h-6V94zm10 8h6v120h-6V102zm10 8h6v120h-6V110zm10 8h6v120h-6V118zm10 8h6v120h-6V126zm10 0h6v120h-6V126zm10 0h6v120h-6V126zm20-8h6v120h-6V118zm10-8h6v120h-6V110zm10-8h6v120h-6V102zm10 0h6v120h-6V102zm10 0h6v120h-6V102zm10 8h6v120h-6V110zm10 0h6v120h-6V110zm10-8h6v120h-6V102zm10-8h6v120h-6V94zm10-8h6v120h-6V86zm10 8h6v120h-6V94zm10 0h6v120h-6V94zm10 8h6v120h-6V102zm10 0h6v120h-6V102zm10-8h6v120h-6V94zm10 8h6v120h-6V102zm10 0h6v120h-6V102zm10-8h6v120h-6V94zm10-8h6v120h-6V86zm10-8h6v120h-6V78zm10-8h6v120h-6V70zm10 8h6v120h-6V78zm10 8h6v120h-6V86zm10 8h6v120h-6V94zm10 8h6v120h-6V102zm10 0h6v120h-6V102zm10 0h6v120h-6V102zm10 8h5v120h-5V110zm10-16h5v120h-5V94zm10 8h5v120h-5V102zm10-8h5v120h-5V94zm10-16h5v120h-5V78zm20 0h5v120h-5V78zm-10 24h5v120h-5V102zm20 0h5v120h-5V102zm10-16h5v120h-5V86zm10-16h5v120h-5V70zm10-8h5v120h-5V62zm10-8h5v120h-5V54zm10 8h5v120h-5V62zm10 8h5v120h-5V70zm10 8h5v120h-5V78zm10 0h5v120h-5V78zm10-8h5v120h-5V70zm10 0h5v120h-5V70zm10 8h5v120h-5V78zm10 0h5v120h-5V78zm10-8h5v120h-5V70zm10 0h5v120h-5V70zm10 0h6v120h-6V70zm10 8h6v120h-6V78zm10 8h6v120h-6V86zm10 8h6v120h-6V94zm10 8h6v120h-6V102zm10 0h6v120h-6V102zm10-8h6v120h-6V94zm10-8h6v120h-6V86zm10 8h6v120h-6V94zm10 8h6v120h-6V102zm10 8h6v120h-6V110zm10 8h6v120h-6V118zm10 8h6v120h-6V126zm10 0h6v120h-6V126zm10 0h6v120h-6V126zm20-8h6v120h-6V118zm10-8h6v120h-6V110zm10-8h6v120h-6V102zm10 0h6v120h-6V102zm10 0h6v120h-6V102zm10 8h6v120h-6V110zm10 0h6v120h-6V110zm10-8h6v120h-6V102zm10-8h6v120h-6V94zm10-8h6v120h-6V86zm10 8h6v120h-6V94zm10 0h6v120h-6V94zm10 8h6v120h-6V102zm10 0h6v120h-6V102zm10-8h6v120h-6V94zm10 8h6v120h-6V102zm10 0h6v120h-6V102zm10-8h6v120h-6V94zm10-8h6v120h-6V86zm10-8h6v120h-6V78zm10-8h6v120h-6V70zm10 8h6v120h-6V78zm10 8h6v120h-6V86zm10 8h6v120h-6V94zm10 8h6v120h-6V102zm10 0h6v120h-6V102zm10 0h6v120h-6V102zm10-8h6v120h-6V94zm10 8h6v120h-6V102zm10 0h6v120h-6V102zm10-8h6v120h-6V94zm10-8h6v120h-6V86zm10-8h6v120h-6V78zm10-8h6v120h-6V70zm10 8h6v120h-6V78zm10 8h6v120h-6V86zm10 8h6v120h-6V94zm10 8h6v120h-6V102zm10 0h6v120h-6V102zm10 0h6v120h-6V102z" style="mix-blend-mode:lighten" transform="rotate(-180 711 150)" fill-rule="nonzero" fill="url(#a)" opacity=".43"/></svg>