<svg width="1438" height="309" viewBox="0 0 1438 309" xmlns="http://www.w3.org/2000/svg"><title>art-twirling-lines</title><defs><linearGradient x1="17.181%" y1="50%" y2="50%" id="a"><stop stop-color="#FFF871" stop-opacity="0" offset="0%"/><stop stop-color="#FFF871" offset="100%"/></linearGradient><linearGradient x1="17.181%" y1="50%" y2="50%" id="b"><stop stop-color="#40FFF1" stop-opacity="0" offset="0%"/><stop stop-color="#40FFF1" offset="100%"/></linearGradient></defs><g fill="none" fill-rule="evenodd"><g transform="translate(-235 33)"><path d="M931 70S702-7.5 529 160s-395.5 54.5-434 36.5" stroke="url(#a)"/><path d="M931 196S788.5-25 566.5 50 458 279 78 337.5" stroke="url(#a)"/><path d="M931 98.5S596 251 390.5 175 99 158.5 37.5 218.5" stroke="url(#a)"/><path d="M931 141s-31 81-237 72.5S512 56 324 56 0 219.5 0 219.5" stroke="url(#a)"/><path d="M931.5 236s-159.5 73.5-248-110.5-324-140-499-29.5" stroke="url(#a)"/><circle fill="#FFF871" cx="931" cy="70" r="5"/><circle fill="#FFF871" cx="931" cy="98" r="5"/><circle fill="#FFF871" cx="931" cy="139" r="5"/><circle fill="#FFF871" cx="931" cy="197" r="5"/><circle fill="#FFF871" cx="931" cy="236" r="5"/></g><g opacity=".8" transform="translate(-205 33)" stroke="url(#a)"><path d="M901.032 70s-221.629-77.5-389.06 90-382.77 54.5-420.03 36.5"/><path d="M901.032 196S763.12-25 548.265 50C333.411 125 443.258 279 75.489 337.5"/><path d="M901.032 98.5S576.815 251 377.93 175 95.813 158.5 36.293 218.5"/><path d="M901.032 141s-30.002 81-229.371 72.5C472.29 205 495.519 56 313.57 56 131.622 56 0 219.5 0 219.5"/><path d="M901.516 236S747.15 309.5 661.5 125.5c-85.651-184-313.57-140-482.938-29.5"/></g><g opacity=".6" transform="translate(-145 33)" stroke="url(#a)"><path d="M841.097 70S634.21-7.5 477.917 160c-156.295 167.5-357.309 54.5-392.09 36.5"/><path d="M841.097 196S712.357-25 511.795 50 413.773 279 70.468 337.5"/><path d="M841.097 98.5S538.447 251 352.79 175 89.44 158.5 33.879 218.5"/><path d="M841.097 141s-28.007 81-214.114 72.5S462.558 56 292.713 56C122.866 56 0 219.5 0 219.5"/><path d="M841.548 236s-144.097 73.5-224.051-110.5c-79.954-184-292.713-140-450.814-29.5"/></g><g opacity=".4" transform="translate(-95 33)" stroke="url(#a)"><path d="M791.15 70s-194.6-77.5-341.614 90c-147.012 167.5-336.09 54.5-368.806 36.5"/><path d="M791.15 196S670.056-25 481.403 50c-188.652 75-92.201 229-415.12 287.5"/><path d="M791.15 98.5S506.472 251 331.841 175C157.211 99 84.13 158.5 31.867 218.5"/><path d="M791.15 141s-26.343 81-201.399 72.5S435.091 56 275.331 56C115.57 56 0 219.5 0 219.5"/><path d="M791.575 236s-135.54 73.5-210.747-110.5c-75.206-184-275.33-140-424.043-29.5"/></g><g opacity=".2" transform="translate(75 33)" stroke="url(#a)"><path d="M621.333 70s-152.83-77.5-268.288 90c-115.457 167.5-263.95 54.5-289.644 36.5"/><path d="M621.333 196S526.23-25 378.072 50 305.66 279 52.056 337.5"/><path d="M621.333 98.5S397.76 251 260.613 175C123.466 99 66.07 158.5 25.027 218.5"/><path d="M621.333 141s-20.69 81-158.17 72.5S341.7 56 216.232 56C90.764 56 0 219.5 0 219.5"/><path d="M621.666 236s-106.447 73.5-165.51-110.5c-59.064-184-216.232-140-333.024-29.5"/></g><g><g transform="matrix(-1 0 0 1 1677 33)"><path d="M931 70S702-7.5 529 160s-395.5 54.5-434 36.5" stroke="url(#b)"/><path d="M931 196S788.5-25 566.5 50 458 279 78 337.5" stroke="url(#b)"/><path d="M931 98.5S596 251 390.5 175 99 158.5 37.5 218.5" stroke="url(#b)"/><path d="M931 141s-31 81-237 72.5S512 56 324 56 0 219.5 0 219.5" stroke="url(#b)"/><path d="M931.5 236s-159.5 73.5-248-110.5-324-140-499-29.5" stroke="url(#b)"/><circle fill="#40FFF1" cx="931" cy="70" r="5"/><circle fill="#40FFF1" cx="931" cy="98" r="5"/><circle fill="#40FFF1" cx="931" cy="139" r="5"/><circle fill="#40FFF1" cx="931" cy="197" r="5"/><circle fill="#40FFF1" cx="931" cy="236" r="5"/></g><g opacity=".8" transform="matrix(-1 0 0 1 1626 33)" stroke="url(#b)"><path d="M880.055 70s-216.47-77.5-380.002 90c-163.534 167.5-373.858 54.5-410.251 36.5"/><path d="M880.055 196S745.352-25 535.5 50C325.649 125 432.938 279 73.73 337.5"/><path d="M880.055 98.5S563.386 251 369.13 175C174.877 99 93.583 158.5 35.448 218.5"/><path d="M880.055 141s-29.304 81-224.031 72.5C461.296 205 483.983 56 306.27 56 128.558 56 0 219.5 0 219.5"/><path d="M880.527 236s-150.772 73.5-234.429-110.5c-83.657-184-306.27-140-471.694-29.5"/></g><g opacity=".6" transform="matrix(-1 0 0 1 1603 33)" stroke="url(#b)"><path d="M857.08 70S646.261-7.5 486.997 160C327.734 327.5 122.9 214.5 87.458 196.5"/><path d="M857.08 196S725.893-25 521.52 50c-204.373 75-99.885 229-449.713 287.5"/><path d="M857.08 98.5S548.677 251 359.494 175C170.31 99 91.139 158.5 34.523 218.5"/><path d="M857.08 141s-28.54 81-218.183 72.5C449.253 205 471.347 56 298.275 56 125.202 56 0 219.5 0 219.5"/><path d="M857.54 236s-146.836 73.5-228.31-110.5c-81.472-184-298.274-140-459.38-29.5"/></g><g opacity=".4" transform="matrix(-1 0 0 1 1493 33)" stroke="url(#b)"><path d="M747.197 70s-183.79-77.5-322.635 90-317.418 54.5-348.317 36.5"/><path d="M747.197 196S632.83-25 454.66 50C276.487 125 367.579 279 62.6 337.5"/><path d="M747.197 98.5S478.335 251 313.406 175c-164.93-76-233.951-16.5-283.31 43.5"/><path d="M747.197 141s-24.88 81-190.21 72.5S410.918 56 260.034 56 0 219.5 0 219.5"/><path d="M747.599 236S619.588 309.5 548.56 125.5c-71.028-184-260.034-140-400.485-29.5"/></g><g opacity=".2" transform="matrix(-1 0 0 1 1343 33)" stroke="url(#b)"><path d="M597.358 70S450.425-7.5 339.423 160C228.42 327.5 85.658 214.5 60.955 196.5"/><path d="M597.358 196S505.926-25 363.484 50 293.867 279 50.047 337.5"/><path d="M597.358 98.5S382.412 251 250.557 175 63.52 158.5 24.06 218.5"/><path d="M597.358 141s-19.89 81-152.066 72.5S328.515 56 207.888 56C87.262 56 0 219.5 0 219.5"/><path d="M597.68 236s-102.34 73.5-159.125-110.5S230.666-14.5 118.38 96"/></g></g></g></svg>