<svg width="984" height="156" viewBox="0 0 984 156" xmlns="http://www.w3.org/2000/svg"><title>art-sound-bars-bg</title><defs><linearGradient x1="50%" y1="0%" x2="50%" y2="100%" id="a"><stop stop-color="#FF9B51" offset="0%"/><stop stop-color="#E58E4E" stop-opacity=".09" offset="100%"/></linearGradient></defs><path d="M1024 182v64h-6V118h6v64zm-650 0v64h-6V118h6v64zM-2 110h5v120h-5V110zM8 94h5v120H8V94zm10 8h5v120h-5V102zm10-8h5v120h-5V94zm10-16h5v120h-5V78zm20 0h5v120h-5V78zm-10 24h5v120h-5V102zm20 0h5v120h-5V102zm10-16h5v120h-5V86zm10-16h5v120h-5V70zm10-8h5v120h-5V62zm10-8h5v120h-5V54zm10 8h5v120h-5V62zm10 8h5v120h-5V70zm10 8h5v120h-5V78zm10 0h5v120h-5V78zm10-8h5v120h-5V70zm10 0h5v120h-5V70zm10 8h5v120h-5V78zm10 0h5v120h-5V78zm10-8h5v120h-5V70zm10 0h5v120h-5V70zm10 0h6v120h-6V70zm10 8h6v120h-6V78zm10 8h6v120h-6V86zm10 8h6v120h-6V94zm10 8h6v120h-6V102zm10 0h6v120h-6V102zm10-8h6v120h-6V94zm10-8h6v120h-6V86zm10 8h6v120h-6V94zm10 8h6v120h-6V102zm10 8h6v120h-6V110zm10 8h6v120h-6V118zm10 8h6v120h-6V126zm10 0h6v120h-6V126zm10 0h6v120h-6V126zm20-8h6v120h-6V118zm10-8h6v120h-6V110zm10-8h6v120h-6V102zm10 0h6v120h-6V102zm10 0h6v120h-6V102zm10 8h6v120h-6V110zm10 0h6v120h-6V110zm10-8h6v120h-6V102zm10-8h6v120h-6V94zm10-8h6v120h-6V86zm10 8h6v120h-6V94zm10 0h6v120h-6V94zm10 8h6v120h-6V102zm10 0h6v120h-6V102zm10-8h6v120h-6V94zm10 8h6v120h-6V102zm10 0h6v120h-6V102zm10-8h6v120h-6V94zm10-8h6v120h-6V86zm10-8h6v120h-6V78zm10-8h6v120h-6V70zm10 8h6v120h-6V78zm10 8h6v120h-6V86zm10 8h6v120h-6V94zm10 8h6v120h-6V102zm10 0h6v120h-6V102zm10 0h6v120h-6V102zm10 8h5v120h-5V110zm10-16h5v120h-5V94zm10 8h5v120h-5V102zm10-8h5v120h-5V94zm10-16h5v120h-5V78zm20 0h5v120h-5V78zm-10 24h5v120h-5V102zm20 0h5v120h-5V102zm10-16h5v120h-5V86zm10-16h5v120h-5V70zm10-8h5v120h-5V62zm10-8h5v120h-5V54zm10 8h5v120h-5V62zm10 8h5v120h-5V70zm10 8h5v120h-5V78zm10 0h5v120h-5V78zm10-8h5v120h-5V70zm10 0h5v120h-5V70zm10 8h5v120h-5V78zm10 0h5v120h-5V78zm10-8h5v120h-5V70zm10 0h5v120h-5V70zm10 0h6v120h-6V70zm10 8h6v120h-6V78zm10 8h6v120h-6V86zm10 8h6v120h-6V94zm10 8h6v120h-6V102zm10 0h6v120h-6V102zm10-8h6v120h-6V94zm10-8h6v120h-6V86zm10 8h6v120h-6V94zm10 8h6v120h-6V102zm10 8h6v120h-6V110zm10 8h6v120h-6V118zm10 8h6v120h-6V126zm10 0h6v120h-6V126zm10 0h6v120h-6V126zm20-8h6v120h-6V118zm10-8h6v120h-6V110zm10-8h6v120h-6V102zm10 0h6v120h-6V102zm10 0h6v120h-6V102zm10 8h6v120h-6V110zm10 0h6v120h-6V110zm10-8h6v120h-6V102zm10-8h6v120h-6V94zm10-8h6v120h-6V86zm10 8h6v120h-6V94zm10 0h6v120h-6V94zm10 8h6v120h-6V102zm10 0h6v120h-6V102zm10-8h6v120h-6V94zm10 8h6v120h-6V102zm10 0h6v120h-6V102zm10-8h6v120h-6V94zm10-8h6v120h-6V86zm10-8h6v120h-6V78zm10-8h6v120h-6V70zm10 8h6v120h-6V78zm10 8h6v120h-6V86zm10 8h6v120h-6V94zm10 8h6v120h-6V102zm10 0h6v120h-6V102zm10 0h6v120h-6V102zm10-8h6v120h-6V94zm10 8h6v120h-6V102zm10 0h6v120h-6V102zm10-8h6v120h-6V94zm10-8h6v120h-6V86zm10-8h6v120h-6V78zm10-8h6v120h-6V70zm10 8h6v120h-6V78zm10 8h6v120h-6V86zm10 8h6v120h-6V94zm10 8h6v120h-6V102zm10 0h6v120h-6V102zm10 0h6v120h-6V102z" transform="rotate(-180 711 150)" fill="url(#a)" opacity=".56"/></svg>