<svg width="612" height="426" viewBox="0 0 612 426" xmlns="http://www.w3.org/2000/svg"><title>art-managed-cloud-basic</title><g fill="none" fill-rule="evenodd"><g stroke="#40FFF1" transform="translate(19 27)"><circle cx="91.216" cy="84.459" r="3.378"/><circle opacity=".2" cx="37.162" cy="43.919" r="3.378"/><ellipse opacity=".2" cx="3.378" cy="91.216" rx="3.378" ry="3.378"/><ellipse opacity=".2" cx="111.486" cy="3.378" rx="3.378" ry="3.378"/><ellipse opacity=".2" cx="476.351" cy="16.892" rx="3.378" ry="3.378"/><ellipse opacity=".2" cx="537.162" cy="50.676" rx="3.378" ry="3.378"/><ellipse opacity=".2" cx="50.676" cy="334.459" rx="3.378" ry="3.378"/><ellipse cx="70.946" cy="145.27" rx="3.378" ry="3.378"/><ellipse opacity=".2" cx="43.919" cy="246.622" rx="3.378" ry="3.378"/><ellipse opacity=".2" cx="145.27" cy="327.703" rx="3.378" ry="3.378"/><circle opacity=".2" cx="300.676" cy="354.73" r="3.378"/><circle cx="476.351" cy="246.622" r="3.378"/><ellipse cx="415.541" cy="118.243" rx="3.378" ry="3.378"/><ellipse opacity=".2" cx="510.135" cy="172.297" rx="3.378" ry="3.378"/><ellipse opacity=".2" cx="503.378" cy="347.973" rx="3.378" ry="3.378"/><ellipse cx="341.216" cy="97.973" rx="3.378" ry="3.378"/><ellipse cx="185.811" cy="287.162" rx="3.378" ry="3.378"/><ellipse cx="219.595" cy="111.486" rx="3.378" ry="3.378"/></g><g stroke="#40FFF1"><path d="M100.081 232.405l3.378 6.757h-6.756zM441.297 303.351l3.379 6.757h-6.757zM116.973 60.784l3.378 6.757h-6.756zM119.472 311.264l5.486 5.193-6.35 2.311z"/><path opacity=".4" d="M547.175 265.318l5.485 5.193-6.35 2.311z"/><path d="M170.823 113.966l5.486 5.194-6.35 2.311z"/><path opacity=".4" d="M27.446 188.034l4.162-6.304 3.379 5.851zM245.69 391.412l4.162-6.304 3.378 5.852z"/><path d="M504.215 95.316l-5.485-5.194 6.349-2.311z"/><path opacity=".4" d="M590.702 145.991l-5.486-5.194 6.35-2.31zM40.702 111.532l-5.486-5.194 6.35-2.311z"/><path opacity=".2" d="M402.188 350.045l-5.485-5.194 6.349-2.31z"/><path opacity=".4" d="M424.486 397.343L419 392.149l6.35-2.311z"/><path d="M298.81 354.775l-5.486-5.194 6.35-2.31z"/></g><g transform="translate(120.351 128.351)"><path d="M3.378 3.04c0 100.195 81.224 181.42 181.42 181.42 100.194 0 181.418-81.225 181.418-181.42" stroke="#FFF871"/><ellipse fill="#FFF871" cx="3.378" cy="3.378" rx="3.378" ry="3.378"/><ellipse fill="#FFF871" cx="366.216" cy="3.378" rx="3.378" ry="3.378"/><circle fill="#FFF871" cx="184.459" cy="184.459" r="3.378"/></g><g opacity=".6" transform="translate(156.162 138.486)"><path d="M2.724 2.45c0 80.733 65.484 146.18 146.262 146.18 80.78 0 146.263-65.447 146.263-146.18" stroke="#40FFF1"/><ellipse fill="#40FFF1" cx="2.724" cy="2.722" rx="2.724" ry="2.722"/><ellipse fill="#40FFF1" cx="295.249" cy="2.722" rx="2.724" ry="2.722"/><ellipse fill="#40FFF1" cx="148.714" cy="148.629" rx="2.724" ry="2.722"/></g><g opacity=".4" transform="translate(191.297 148.622)"><path d="M2.081 1.87c0 61.63 50.041 111.592 111.77 111.592 61.73 0 111.77-49.961 111.77-111.592" stroke="#40FFF1"/><ellipse fill="#40FFF1" cx="2.081" cy="2.078" rx="2.081" ry="2.078"/><ellipse fill="#40FFF1" cx="225.621" cy="2.078" rx="2.081" ry="2.078"/><ellipse fill="#40FFF1" cx="113.643" cy="113.462" rx="2.081" ry="2.078"/></g><g opacity=".2" transform="translate(229.135 166.19)"><path d="M1.39 1.247c0 41.087 33.41 74.395 74.624 74.395 41.213 0 74.623-33.308 74.623-74.395" stroke="#40FFF1"/><ellipse fill="#40FFF1" cx="1.39" cy="1.385" rx="1.39" ry="1.385"/><ellipse fill="#40FFF1" cx="150.637" cy="1.385" rx="1.39" ry="1.385"/><ellipse fill="#40FFF1" cx="75.875" cy="75.642" rx="1.39" ry="1.385"/></g></g></svg>