<?xml version="1.0" encoding="UTF-8"?>
<svg width="1426px" height="240px" viewBox="0 0 1426 240" version="1.1" xmlns="http://www.w3.org/2000/svg" xmlns:xlink="http://www.w3.org/1999/xlink">
    <!-- Generator: Sketch 42 (36781) - http://www.bohemiancoding.com/sketch -->
    <title>Combined Shape</title>
    <desc>Created with Sketch.</desc>
    <defs>
        <linearGradient x1="50%" y1="0%" x2="50%" y2="100%" id="linearGradient-1">
            <stop stop-color="#FF9B51" offset="0%"></stop>
            <stop stop-color="#010101" stop-opacity="0" offset="100%"></stop>
        </linearGradient>
    </defs>
    <g id="Page-1" stroke="none" stroke-width="1" fill="none" fill-rule="evenodd">
        <g id="Artboard" transform="translate(-88.000000, -450.000000)" fill="url(#linearGradient-1)">
            <path d="M1114,610 L1114,690 L1108,690 L1108,610 L1108,530 L1114,530 L1114,610 Z M464,610 L464,690 L458,690 L458,610 L458,530 L464,530 L464,610 Z M88,520 L93,520 L93,670 L88,670 L88,520 Z M98,500 L103,500 L103,650 L98,650 L98,500 Z M108,510 L113,510 L113,660 L108,660 L108,510 Z M118,500 L123,500 L123,650 L118,650 L118,500 Z M128,480 L133,480 L133,630 L128,630 L128,480 Z M148,480 L153,480 L153,630 L148,630 L148,480 Z M138,510 L143,510 L143,660 L138,660 L138,510 Z M158,510 L163,510 L163,660 L158,660 L158,510 Z M168,490 L173,490 L173,640 L168,640 L168,490 Z M178,470 L183,470 L183,620 L178,620 L178,470 Z M188,460 L193,460 L193,610 L188,610 L188,460 Z M198,450 L203,450 L203,600 L198,600 L198,450 Z M208,460 L213,460 L213,610 L208,610 L208,460 Z M218,470 L223,470 L223,620 L218,620 L218,470 Z M228,480 L233,480 L233,630 L228,630 L228,480 Z M238,480 L243,480 L243,630 L238,630 L238,480 Z M248,470 L253,470 L253,620 L248,620 L248,470 Z M258,470 L263,470 L263,620 L258,620 L258,470 Z M268,480 L273,480 L273,630 L268,630 L268,480 Z M278,480 L283,480 L283,630 L278,630 L278,480 Z M288,470 L293,470 L293,620 L288,620 L288,470 Z M298,470 L303,470 L303,620 L298,620 L298,470 Z M308,470 L314,470 L314,620 L308,620 L308,470 Z M318,480 L324,480 L324,630 L318,630 L318,480 Z M328,490 L334,490 L334,640 L328,640 L328,490 Z M338,500 L344,500 L344,650 L338,650 L338,500 Z M348,510 L354,510 L354,660 L348,660 L348,510 Z M358,510 L364,510 L364,660 L358,660 L358,510 Z M368,500 L374,500 L374,650 L368,650 L368,500 Z M378,490 L384,490 L384,640 L378,640 L378,490 Z M388,500 L394,500 L394,650 L388,650 L388,500 Z M398,510 L404,510 L404,660 L398,660 L398,510 Z M408,520 L414,520 L414,670 L408,670 L408,520 Z M418,530 L424,530 L424,680 L418,680 L418,530 Z M428,540 L434,540 L434,690 L428,690 L428,540 Z M438,540 L444,540 L444,690 L438,690 L438,540 Z M448,540 L454,540 L454,690 L448,690 L448,540 Z M468,530 L474,530 L474,680 L468,680 L468,530 Z M478,520 L484,520 L484,670 L478,670 L478,520 Z M488,510 L494,510 L494,660 L488,660 L488,510 Z M498,510 L504,510 L504,660 L498,660 L498,510 Z M508,510 L514,510 L514,660 L508,660 L508,510 Z M518,520 L524,520 L524,670 L518,670 L518,520 Z M528,520 L534,520 L534,670 L528,670 L528,520 Z M538,510 L544,510 L544,660 L538,660 L538,510 Z M548,500 L554,500 L554,650 L548,650 L548,500 Z M558,490 L564,490 L564,640 L558,640 L558,490 Z M568,500 L574,500 L574,650 L568,650 L568,500 Z M578,500 L584,500 L584,650 L578,650 L578,500 Z M588,510 L594,510 L594,660 L588,660 L588,510 Z M598,510 L604,510 L604,660 L598,660 L598,510 Z M608,500 L614,500 L614,650 L608,650 L608,500 Z M618,510 L624,510 L624,660 L618,660 L618,510 Z M628,510 L634,510 L634,660 L628,660 L628,510 Z M638,500 L644,500 L644,650 L638,650 L638,500 Z M648,490 L654,490 L654,640 L648,640 L648,490 Z M658,480 L664,480 L664,630 L658,630 L658,480 Z M668,470 L674,470 L674,620 L668,620 L668,470 Z M678,480 L684,480 L684,630 L678,630 L678,480 Z M688,490 L694,490 L694,640 L688,640 L688,490 Z M698,500 L704,500 L704,650 L698,650 L698,500 Z M708,510 L714,510 L714,660 L708,660 L708,510 Z M718,510 L724,510 L724,660 L718,660 L718,510 Z M728,510 L734,510 L734,660 L728,660 L728,510 Z M738,520 L743,520 L743,670 L738,670 L738,520 Z M748,500 L753,500 L753,650 L748,650 L748,500 Z M758,510 L763,510 L763,660 L758,660 L758,510 Z M768,500 L773,500 L773,650 L768,650 L768,500 Z M778,480 L783,480 L783,630 L778,630 L778,480 Z M798,480 L803,480 L803,630 L798,630 L798,480 Z M788,510 L793,510 L793,660 L788,660 L788,510 Z M808,510 L813,510 L813,660 L808,660 L808,510 Z M818,490 L823,490 L823,640 L818,640 L818,490 Z M828,470 L833,470 L833,620 L828,620 L828,470 Z M838,460 L843,460 L843,610 L838,610 L838,460 Z M848,450 L853,450 L853,600 L848,600 L848,450 Z M858,460 L863,460 L863,610 L858,610 L858,460 Z M868,470 L873,470 L873,620 L868,620 L868,470 Z M878,480 L883,480 L883,630 L878,630 L878,480 Z M888,480 L893,480 L893,630 L888,630 L888,480 Z M898,470 L903,470 L903,620 L898,620 L898,470 Z M908,470 L913,470 L913,620 L908,620 L908,470 Z M918,480 L923,480 L923,630 L918,630 L918,480 Z M928,480 L933,480 L933,630 L928,630 L928,480 Z M938,470 L943,470 L943,620 L938,620 L938,470 Z M948,470 L953,470 L953,620 L948,620 L948,470 Z M958,470 L964,470 L964,620 L958,620 L958,470 Z M968,480 L974,480 L974,630 L968,630 L968,480 Z M978,490 L984,490 L984,640 L978,640 L978,490 Z M988,500 L994,500 L994,650 L988,650 L988,500 Z M998,510 L1004,510 L1004,660 L998,660 L998,510 Z M1008,510 L1014,510 L1014,660 L1008,660 L1008,510 Z M1018,500 L1024,500 L1024,650 L1018,650 L1018,500 Z M1028,490 L1034,490 L1034,640 L1028,640 L1028,490 Z M1038,500 L1044,500 L1044,650 L1038,650 L1038,500 Z M1048,510 L1054,510 L1054,660 L1048,660 L1048,510 Z M1058,520 L1064,520 L1064,670 L1058,670 L1058,520 Z M1068,530 L1074,530 L1074,680 L1068,680 L1068,530 Z M1078,540 L1084,540 L1084,690 L1078,690 L1078,540 Z M1088,540 L1094,540 L1094,690 L1088,690 L1088,540 Z M1098,540 L1104,540 L1104,690 L1098,690 L1098,540 Z M1118,530 L1124,530 L1124,680 L1118,680 L1118,530 Z M1128,520 L1134,520 L1134,670 L1128,670 L1128,520 Z M1138,510 L1144,510 L1144,660 L1138,660 L1138,510 Z M1148,510 L1154,510 L1154,660 L1148,660 L1148,510 Z M1158,510 L1164,510 L1164,660 L1158,660 L1158,510 Z M1168,520 L1174,520 L1174,670 L1168,670 L1168,520 Z M1178,520 L1184,520 L1184,670 L1178,670 L1178,520 Z M1188,510 L1194,510 L1194,660 L1188,660 L1188,510 Z M1198,500 L1204,500 L1204,650 L1198,650 L1198,500 Z M1208,490 L1214,490 L1214,640 L1208,640 L1208,490 Z M1218,500 L1224,500 L1224,650 L1218,650 L1218,500 Z M1228,500 L1234,500 L1234,650 L1228,650 L1228,500 Z M1238,510 L1244,510 L1244,660 L1238,660 L1238,510 Z M1248,510 L1254,510 L1254,660 L1248,660 L1248,510 Z M1258,500 L1264,500 L1264,650 L1258,650 L1258,500 Z M1268,510 L1274,510 L1274,660 L1268,660 L1268,510 Z M1278,510 L1284,510 L1284,660 L1278,660 L1278,510 Z M1288,500 L1294,500 L1294,650 L1288,650 L1288,500 Z M1298,490 L1304,490 L1304,640 L1298,640 L1298,490 Z M1308,480 L1314,480 L1314,630 L1308,630 L1308,480 Z M1318,470 L1324,470 L1324,620 L1318,620 L1318,470 Z M1328,480 L1334,480 L1334,630 L1328,630 L1328,480 Z M1338,490 L1344,490 L1344,640 L1338,640 L1338,490 Z M1348,500 L1354,500 L1354,650 L1348,650 L1348,500 Z M1358,510 L1364,510 L1364,660 L1358,660 L1358,510 Z M1368,510 L1374,510 L1374,660 L1368,660 L1368,510 Z M1378,510 L1384,510 L1384,660 L1378,660 L1378,510 Z M1388,500 L1394,500 L1394,650 L1388,650 L1388,500 Z M1398,510 L1404,510 L1404,660 L1398,660 L1398,510 Z M1408,510 L1414,510 L1414,660 L1408,660 L1408,510 Z M1418,500 L1424,500 L1424,650 L1418,650 L1418,500 Z M1428,490 L1434,490 L1434,640 L1428,640 L1428,490 Z M1438,480 L1444,480 L1444,630 L1438,630 L1438,480 Z M1448,470 L1454,470 L1454,620 L1448,620 L1448,470 Z M1458,480 L1464,480 L1464,630 L1458,630 L1458,480 Z M1468,490 L1474,490 L1474,640 L1468,640 L1468,490 Z M1478,500 L1484,500 L1484,650 L1478,650 L1478,500 Z M1488,510 L1494,510 L1494,660 L1488,660 L1488,510 Z M1498,510 L1504,510 L1504,660 L1498,660 L1498,510 Z M1508,510 L1514,510 L1514,660 L1508,660 L1508,510 Z" id="Combined-Shape"></path>
        </g>
    </g>
</svg>