<svg width="346" height="156" viewBox="0 0 346 156" xmlns="http://www.w3.org/2000/svg"><title>art-sound-bars-bg-small</title><defs><linearGradient x1="48.175%" y1="3.149%" x2="50.043%" y2="109.917%" id="a"><stop stop-color="#2D91FF" stop-opacity=".057" offset="0%"/><stop stop-color="#2D91FF" stop-opacity=".281" offset="22.907%"/><stop stop-color="#4048C4" offset="52.724%"/><stop stop-color="#524AB8" offset="72.694%"/><stop stop-color="#E04EC9" stop-opacity=".311" offset="100%"/></linearGradient></defs><path d="M426.297 132v46h-4.855V86h4.855v46zm-526.016 0v46h-4.856V86h4.856v46zM-404 80.25h4.046v86.25H-404V80.25zm8.093-11.5h4.046V155h-4.046V68.75zm8.092 5.75h4.046v86.25h-4.046V74.5zm8.093-5.75h4.046V155h-4.046V68.75zm8.092-11.5h4.047v86.25h-4.047V57.25zm16.185 0h4.047v86.25h-4.047V57.25zm-8.092 17.25h4.046v86.25h-4.046V74.5zm16.185 0h4.046v86.25h-4.046V74.5zm8.093-11.5h4.046v86.25h-4.046V63zm8.092-11.5h4.046v86.25h-4.046V51.5zm8.093-5.75h4.046V132h-4.046V45.75zm8.092-5.75h4.047v86.25h-4.047V40zm8.093 5.75h4.046V132h-4.046V45.75zm8.092 5.75h4.047v86.25h-4.047V51.5zm8.093 5.75h4.046v86.25h-4.046V57.25zm8.092 0h4.047v86.25h-4.047V57.25zm8.093-5.75h4.046v86.25h-4.046V51.5zm8.093 0h4.046v86.25h-4.046V51.5zm8.092 5.75h4.046v86.25h-4.046V57.25zm8.093 0h4.046v86.25h-4.046V57.25zm8.092-5.75h4.047v86.25h-4.047V51.5zm8.093 0h4.046v86.25h-4.046V51.5zm8.092 0h4.856v86.25h-4.856V51.5zm8.093 5.75h4.856v86.25h-4.856V57.25zm8.093 5.75h4.855v86.25h-4.855V63zm8.092 5.75h4.856V155h-4.856V68.75zm8.093 5.75h4.855v86.25h-4.855V74.5zm8.092 0h4.856v86.25h-4.856V74.5zm8.093-5.75h4.855V155h-4.855V68.75zm8.092-5.75h4.856v86.25h-4.856V63zm8.093 5.75h4.856V155h-4.856V68.75zm8.093 5.75h4.855v86.25h-4.855V74.5zm8.092 5.75h4.856v86.25h-4.856V80.25zm8.093 5.75h4.855v86.25h-4.855V86zm8.092 5.75h4.856V178h-4.856V91.75zm8.093 0h4.855V178h-4.855V91.75zm8.092 0h4.856V178h-4.856V91.75zM-96.482 86h4.855v86.25h-4.855V86zm8.092-5.75h4.856v86.25h-4.856V80.25zm8.093-5.75h4.855v86.25h-4.855V74.5zm8.092 0h4.856v86.25h-4.856V74.5zm8.093 0h4.855v86.25h-4.855V74.5zm8.092 5.75h4.856v86.25h-4.856V80.25zm8.093 0h4.855v86.25h-4.855V80.25zm8.092-5.75h4.856v86.25h-4.856V74.5zm8.093-5.75h4.856V155h-4.856V68.75zm8.093-5.75h4.855v86.25h-4.855V63zm8.092 5.75h4.856V155h-4.856V68.75zm8.093 0h4.855V155h-4.855V68.75zM.628 74.5h4.856v86.25H.628V74.5zm8.093 0h4.855v86.25H8.721V74.5zm8.092-5.75h4.856V155h-4.856V68.75zm8.093 5.75h4.856v86.25h-4.856V74.5zm8.093 0h4.855v86.25H33V74.5zm8.092-5.75h4.856V155H41.09V68.75zM49.184 63h4.855v86.25h-4.855V63zm8.092-5.75h4.856v86.25h-4.856V57.25zm8.093-5.75h4.855v86.25H65.37V51.5zm8.092 5.75h4.856v86.25h-4.856V57.25zM81.554 63h4.856v86.25h-4.856V63zm8.093 5.75h4.855V155h-4.855V68.75zm8.092 5.75h4.856v86.25h-4.856V74.5zm8.093 0h4.855v86.25h-4.855V74.5zm8.092 0h4.856v86.25h-4.856V74.5zm8.093 5.75h4.046v86.25h-4.046V80.25zm8.092-11.5h4.047V155h-4.047V68.75zm8.093 5.75h4.046v86.25h-4.046V74.5zm8.093-5.75h4.046V155h-4.046V68.75zm8.092-11.5h4.046v86.25h-4.046V57.25zm16.185 0h4.047v86.25h-4.047V57.25zM162.48 74.5h4.046v86.25h-4.046V74.5zm16.185 0h4.046v86.25h-4.046V74.5zm8.092-11.5h4.047v86.25h-4.047V63zm8.093-11.5h4.046v86.25h-4.046V51.5zm8.092-5.75h4.047V132h-4.047V45.75zm8.093-5.75h4.046v86.25h-4.046V40zm8.093 5.75h4.046V132h-4.046V45.75zm8.092 5.75h4.046v86.25h-4.046V51.5zm8.093 5.75h4.046v86.25h-4.046V57.25zm8.092 0h4.047v86.25h-4.047V57.25zm8.093-5.75h4.046v86.25h-4.046V51.5zm8.092 0h4.047v86.25h-4.047V51.5zm8.093 5.75h4.046v86.25h-4.046V57.25zm8.093 0h4.046v86.25h-4.046V57.25zm8.092-5.75h4.046v86.25h-4.046V51.5zm8.093 0h4.046v86.25h-4.046V51.5zm8.092 0h4.856v86.25h-4.856V51.5zm8.093 5.75H313v86.25h-4.855V57.25zm8.092 5.75h4.856v86.25h-4.856V63zm8.093 5.75h4.856V155h-4.856V68.75zm8.093 5.75h4.855v86.25h-4.855V74.5zm8.092 0h4.856v86.25h-4.856V74.5zm8.093-5.75h4.855V155h-4.855V68.75zM356.7 63h4.856v86.25H356.7V63zm8.093 5.75h4.855V155h-4.855V68.75zm8.092 5.75h4.856v86.25h-4.856V74.5zm8.093 5.75h4.856v86.25h-4.856V80.25zm8.093 5.75h4.855v86.25h-4.855V86zm8.092 5.75h4.856V178h-4.856V91.75zm8.093 0h4.855V178h-4.855V91.75zm8.092 0h4.856V178h-4.856V91.75zM429.534 86h4.856v86.25h-4.856V86zm8.093-5.75h4.855v86.25h-4.855V80.25zm8.092-5.75h4.856v86.25h-4.856V74.5zm8.093 0h4.856v86.25h-4.856V74.5zm8.093 0h4.855v86.25h-4.855V74.5zm8.092 5.75h4.856v86.25h-4.856V80.25zm8.093 0h4.855v86.25h-4.855V80.25zm8.092-5.75h4.856v86.25h-4.856V74.5zm8.093-5.75h4.855V155h-4.855V68.75zm8.092-5.75h4.856v86.25h-4.856V63zm8.093 5.75h4.856V155h-4.856V68.75zm8.093 0h4.855V155h-4.855V68.75zm8.092 5.75h4.856v86.25h-4.856V74.5zm8.093 0h4.855v86.25h-4.855V74.5zm8.092-5.75h4.856V155h-4.856V68.75zm8.093 5.75h4.855v86.25h-4.855V74.5zm8.092 0h4.856v86.25h-4.856V74.5zm8.093-5.75h4.856V155h-4.856V68.75zm8.093-5.75h4.855v86.25h-4.855V63zm8.092-5.75h4.856v86.25h-4.856V57.25zm8.093-5.75h4.855v86.25h-4.855V51.5zm8.092 5.75h4.856v86.25h-4.856V57.25zm8.093 5.75h4.855v86.25h-4.855V63zm8.092 5.75h4.856V155h-4.856V68.75zm8.093 5.75h4.856v86.25h-4.856V74.5zm8.093 0h4.855v86.25h-4.855V74.5zm8.092 0h4.856v86.25h-4.856V74.5zm8.093-5.75h4.855V155h-4.855V68.75zm8.092 5.75h4.856v86.25h-4.856V74.5zm8.093 0h4.855v86.25h-4.855V74.5zm8.092-5.75h4.856V155h-4.856V68.75zm8.093-5.75h4.855v86.25h-4.855V63zm8.092-5.75h4.856v86.25h-4.856V57.25zm8.093-5.75h4.856v86.25h-4.856V51.5zm8.093 5.75h4.855v86.25h-4.855V57.25zm8.092 5.75h4.856v86.25h-4.856V63zm8.093 5.75h4.855V155h-4.855V68.75zm8.092 5.75h4.856v86.25h-4.856V74.5zm8.093 0h4.855v86.25h-4.855V74.5zm8.092 0H750v86.25h-4.856V74.5z" style="mix-blend-mode:lighten" transform="rotate(-180 173 109)" fill-rule="nonzero" fill="url(#a)" opacity=".43"/></svg>