<?xml version="1.0" encoding="UTF-8"?>
<svg width="315px" height="203px" viewBox="0 0 315 203" version="1.1" xmlns="http://www.w3.org/2000/svg" xmlns:xlink="http://www.w3.org/1999/xlink">
    <!-- Generator: Sketch 41.2 (35397) - http://www.bohemiancoding.com/sketch -->
    <title>bg-connection</title>
    <desc>Created with Sketch.</desc>
    <defs>
        <rect id="path-1" x="0" y="0" width="326.496632" height="203"></rect>
        <linearGradient x1="50%" y1="0%" x2="50%" y2="100%" id="linearGradient-3">
            <stop stop-color="#F9FFEE" offset="0%"></stop>
            <stop stop-color="#EFFF9A" offset="100%"></stop>
        </linearGradient>
    </defs>
    <g id="strategic-services" stroke="none" stroke-width="1" fill="none" fill-rule="evenodd">
        <g id="Artboard" transform="translate(-756.000000, -72.000000)">
            <g id="bg-connection" transform="translate(744.000000, 72.000000)">
                <mask id="mask-2" fill="white">
                    <use xlink:href="#path-1"></use>
                </mask>
                <g id="Mask"></g>
                <path d="M297.30698,249.725226 L236.446939,293.942635 C238.020905,298.54779 238.875,303.486653 238.875,308.625 C238.875,333.684921 218.559921,354 193.5,354 C168.440079,354 148.125,333.684921 148.125,308.625 C148.125,304.289339 148.733093,300.095706 149.868643,296.124735 L88.1107653,251.25501 C80.0273511,258.701884 69.2323102,263.25 57.375,263.25 C32.3150795,263.25 12,242.934921 12,217.875 C12,196.568996 26.6846346,178.692773 46.485,173.815233 L46.485,80.4347668 C26.6846346,75.5572273 12,57.6810037 12,36.375 C12,11.3150795 32.3150795,-9 57.375,-9 C82.4349205,-9 102.75,11.3150795 102.75,36.375 C102.75,43.0302933 101.317174,49.350932 98.7431683,55.0452691 L158.389136,98.3806011 C166.710537,88.2281208 179.348745,81.75 193.5,81.75 C206.869331,81.75 218.888202,87.5320054 227.192408,96.7318108 L287.390463,52.9953643 C285.363414,47.8484815 284.25,42.2417667 284.25,36.375 C284.25,11.3150795 304.565079,-9 329.625,-9 C354.684921,-9 375,11.3150795 375,36.375 C375,57.6810037 360.315365,75.5572273 340.515,80.4347668 L340.515,173.815233 C360.315365,178.692773 375,196.568996 375,217.875 C375,242.934921 354.684921,263.25 329.625,263.25 C316.976067,263.25 305.535978,258.074326 297.30698,249.725226 Z M287.390463,234.495364 L227.192408,278.231811 C218.888202,269.032005 206.869331,263.25 193.5,263.25 C179.348745,263.25 166.710537,269.728121 158.389136,279.880601 L98.7431683,236.545269 C101.317174,230.850932 102.75,224.530293 102.75,217.875 C102.75,195.286193 86.2438514,176.552603 64.635,173.077676 L64.635,81.1723236 C73.6140016,79.7284074 81.7119685,75.6499244 88.1107653,69.7550099 L149.868643,114.624735 C148.733093,118.595706 148.125,122.789339 148.125,127.125 C148.125,152.184921 168.440079,172.5 193.5,172.5 C218.559921,172.5 238.875,152.184921 238.875,127.125 C238.875,121.986653 238.020905,117.04779 236.446939,112.442635 L297.30698,68.2252262 C303.92835,74.9432343 312.628718,79.606629 322.365,81.1723236 L322.365,173.077676 C300.756149,176.552603 284.25,195.286193 284.25,217.875 C284.25,223.741767 285.363414,229.348482 287.390463,234.495364 Z" id="_icon-connection" fill="url(#linearGradient-3)" mask="url(#mask-2)"></path>
            </g>
        </g>
    </g>
</svg>