<svg width="1440" height="891" viewBox="0 0 1440 891" xmlns="http://www.w3.org/2000/svg" xmlns:xlink="http://www.w3.org/1999/xlink"><title>aws-apn-bg</title><defs><linearGradient x1="50%" y1="3.852%" x2="50%" y2="98.534%" id="c"><stop stop-color="#020C16" offset="0%"/><stop stop-color="#123F6A" offset="100%"/></linearGradient><path id="b" d="M133.338 596.487l1872.078 744.532-430.688 226.883L67.041 1341.019l53.789-685.29z"/><filter x="-11.7%" y="-23.3%" width="122.1%" height="144.2%" filterUnits="objectBoundingBox" id="a"><feOffset dx="-12" dy="-12" in="SourceAlpha" result="shadowOffsetOuter1"/><feGaussianBlur stdDeviation="69.5" in="shadowOffsetOuter1" result="shadowBlurOuter1"/><feColorMatrix values="0 0 0 0 0 0 0 0 0 0 0 0 0 0 0 0 0 0 0.31 0" in="shadowBlurOuter1"/></filter><path id="e" d="M179.64 1607.578L1777.134 626.25l-34.649 1115.86-1618.265-39.837z"/><filter x="-13.7%" y="-20.3%" width="126%" height="138.4%" filterUnits="objectBoundingBox" id="d"><feOffset dx="-12" dy="-12" in="SourceAlpha" result="shadowOffsetOuter1"/><feGaussianBlur stdDeviation="69.5" in="shadowOffsetOuter1" result="shadowBlurOuter1"/><feColorMatrix values="0 0 0 0 0 0 0 0 0 0 0 0 0 0 0 0 0 0 0.31 0" in="shadowBlurOuter1"/></filter><path id="g" d="M66.898 873.79l1872.079 744.53-430.688 226.883L.602 1618.32 54.39 933.031z"/><filter x="-11.7%" y="-23.3%" width="122.1%" height="144.2%" filterUnits="objectBoundingBox" id="f"><feOffset dx="-12" dy="-12" in="SourceAlpha" result="shadowOffsetOuter1"/><feGaussianBlur stdDeviation="69.5" in="shadowOffsetOuter1" result="shadowBlurOuter1"/><feColorMatrix values="0 0 0 0 0 0 0 0 0 0 0 0 0 0 0 0 0 0 0.31 0" in="shadowBlurOuter1"/></filter><path id="i" d="M-391.494 588.472l1960.918 779.863-451.126 237.65-1579.235-237.65 56.342-717.81z"/><filter x="-11.2%" y="-22.3%" width="121.1%" height="142.2%" filterUnits="objectBoundingBox" id="h"><feOffset dx="-12" dy="-12" in="SourceAlpha" result="shadowOffsetOuter1"/><feGaussianBlur stdDeviation="69.5" in="shadowOffsetOuter1" result="shadowBlurOuter1"/><feColorMatrix values="0 0 0 0 0 0 0 0 0 0 0 0 0 0 0 0 0 0 0.31 0" in="shadowBlurOuter1"/></filter><path id="k" d="M552.816 638.48l1872.079 744.532-430.688 226.883L486.52 1383.012l53.789-685.29z"/><filter x="-11.7%" y="-23.3%" width="122.1%" height="144.2%" filterUnits="objectBoundingBox" id="j"><feOffset dx="-12" dy="-12" in="SourceAlpha" result="shadowOffsetOuter1"/><feGaussianBlur stdDeviation="69.5" in="shadowOffsetOuter1" result="shadowBlurOuter1"/><feColorMatrix values="0 0 0 0 0 0 0 0 0 0 0 0 0 0 0 0 0 0 0.31 0" in="shadowBlurOuter1"/></filter><path id="m" d="M25 1470.234L2006.398 1027l-282.984 1136.898L25 1634.11z"/><filter x="-11.4%" y="-19.9%" width="121.7%" height="137.7%" filterUnits="objectBoundingBox" id="l"><feOffset dx="-12" dy="-12" in="SourceAlpha" result="shadowOffsetOuter1"/><feGaussianBlur stdDeviation="69.5" in="shadowOffsetOuter1" result="shadowBlurOuter1"/><feColorMatrix values="0 0 0 0 0 0 0 0 0 0 0 0 0 0 0 0 0 0 0.31 0" in="shadowBlurOuter1"/></filter></defs><g fill="none" fill-rule="evenodd"><g transform="rotate(120 1137.956 671.593)"><use fill="#000" filter="url(#a)" xlink:href="#b"/><use fill="url(#c)" xlink:href="#b"/></g><g transform="translate(-203 -704)"><use fill="#000" filter="url(#d)" xlink:href="#e"/><use fill="url(#c)" xlink:href="#e"/></g><g transform="translate(-203 -704)"><use fill="#000" filter="url(#f)" xlink:href="#g"/><use fill="url(#c)" xlink:href="#g"/></g><g transform="rotate(90 804.744 643.728)"><use fill="#000" filter="url(#h)" xlink:href="#i"/><use fill="url(#c)" xlink:href="#i"/></g><g transform="rotate(-90 1002.207 873.688)"><use fill="#000" filter="url(#j)" xlink:href="#k"/><use fill="url(#c)" xlink:href="#k"/></g><g transform="translate(-203 -704)"><use fill="#000" filter="url(#l)" xlink:href="#m"/><use fill="url(#c)" xlink:href="#m"/></g></g></svg>