<svg width="1440" height="891" viewBox="0 0 1440 891" xmlns="http://www.w3.org/2000/svg" xmlns:xlink="http://www.w3.org/1999/xlink"><title>datica-aws-bg</title><defs><linearGradient x1="50%" y1="0%" x2="50%" y2="100%" id="c"><stop stop-color="#E5F5FF" offset="0%"/><stop stop-color="#FFF" offset="100%"/></linearGradient><path id="b" d="M872.809 420.087l1872.078 744.53-430.688 226.884-1507.687-226.883 53.789-685.29z"/><filter x="-3.9%" y="-4.8%" width="105.2%" height="110.1%" filterUnits="objectBoundingBox" id="a"><feOffset dx="-26" dy="2" in="SourceAlpha" result="shadowOffsetOuter1"/><feGaussianBlur stdDeviation="12" in="shadowOffsetOuter1" result="shadowBlurOuter1"/><feColorMatrix values="0 0 0 0 0.0941176471 0 0 0 0 0.11372549 0 0 0 0 0.133333333 0 0 0 0.09 0" in="shadowBlurOuter1"/></filter><linearGradient x1="50%" y1="0%" x2="50%" y2="100%" id="f"><stop stop-color="#C0F3FF" offset="0%"/><stop stop-color="#FFF" offset="100%"/></linearGradient><path id="e" d="M250.256 1804.6L2061.151 692.18l-39.277 1264.922-1834.443-45.157z"/><filter x="-4%" y="-3.7%" width="105.3%" height="107.7%" filterUnits="objectBoundingBox" id="d"><feOffset dx="-26" dy="2" in="SourceAlpha" result="shadowOffsetOuter1"/><feGaussianBlur stdDeviation="12" in="shadowOffsetOuter1" result="shadowBlurOuter1"/><feColorMatrix values="0 0 0 0 0.0941176471 0 0 0 0 0.11372549 0 0 0 0 0.133333333 0 0 0 0.09 0" in="shadowBlurOuter1"/></filter><linearGradient x1="50%" y1="0%" x2="50%" y2="100%" id="i"><stop stop-color="#91B7FF" offset="0%"/><stop stop-color="#FFF" offset="100%"/></linearGradient><path id="h" d="M826.898 1143.79l1872.079 744.53-430.688 226.883L760.602 1888.32l53.789-685.289z"/><filter x="-3.9%" y="-4.8%" width="105.2%" height="110.1%" filterUnits="objectBoundingBox" id="g"><feOffset dx="-26" dy="2" in="SourceAlpha" result="shadowOffsetOuter1"/><feGaussianBlur stdDeviation="12" in="shadowOffsetOuter1" result="shadowBlurOuter1"/><feColorMatrix values="0 0 0 0 0.0941176471 0 0 0 0 0.11372549 0 0 0 0 0.133333333 0 0 0 0.09 0" in="shadowBlurOuter1"/></filter><linearGradient x1="50%" y1="0%" x2="50%" y2="100%" id="l"><stop stop-color="#E5C0FF" offset="0%"/><stop stop-color="#FFF" offset="100%"/></linearGradient><path id="k" d="M785 1740.234L2766.398 1297l-282.984 1136.898L785 1904.11z"/><filter x="-3.8%" y="-4.1%" width="105%" height="108.6%" filterUnits="objectBoundingBox" id="j"><feOffset dx="-26" dy="2" in="SourceAlpha" result="shadowOffsetOuter1"/><feGaussianBlur stdDeviation="12" in="shadowOffsetOuter1" result="shadowBlurOuter1"/><feColorMatrix values="0 0 0 0 0.0941176471 0 0 0 0 0.11372549 0 0 0 0 0.133333333 0 0 0 0.09 0" in="shadowBlurOuter1"/></filter></defs><g fill="none" fill-rule="evenodd"><g transform="rotate(150 1083.31 721.026)"><use fill="#000" filter="url(#a)" xlink:href="#b"/><use fill="url(#c)" xlink:href="#b"/></g><g transform="rotate(-40 -65.333 1018.571)"><use fill="#000" filter="url(#d)" xlink:href="#e"/><use fill="url(#f)" xlink:href="#e"/></g><g transform="rotate(-40 -902.915 2682.165)"><use fill="#000" filter="url(#g)" xlink:href="#h"/><use fill="url(#i)" xlink:href="#h"/></g><g transform="rotate(-40 -1551.191 2808.302)"><use fill="#000" filter="url(#j)" xlink:href="#k"/><use fill="url(#l)" xlink:href="#k"/></g></g></svg>