<svg width="1440" height="891" viewBox="0 0 1440 891" xmlns="http://www.w3.org/2000/svg" xmlns:xlink="http://www.w3.org/1999/xlink"><title>hcms-bg</title><defs><linearGradient x1="50%" y1="0%" x2="50%" y2="100%" id="c"><stop stop-color="#F1E5FF" offset="0%"/><stop stop-color="#FFF" offset="100%"/></linearGradient><path id="b" d="M1046.288 419.623l1872.078 744.53-430.687 226.884L979.99 1164.154l53.79-685.29z"/><filter x="-3.9%" y="-4.8%" width="105.2%" height="110.1%" filterUnits="objectBoundingBox" id="a"><feOffset dx="-26" dy="2" in="SourceAlpha" result="shadowOffsetOuter1"/><feGaussianBlur stdDeviation="12" in="shadowOffsetOuter1" result="shadowBlurOuter1"/><feColorMatrix values="0 0 0 0 0.0941176471 0 0 0 0 0.11372549 0 0 0 0 0.133333333 0 0 0 0.09 0" in="shadowBlurOuter1"/></filter><linearGradient x1="50%" y1="0%" x2="50%" y2="100%" id="f"><stop stop-color="#C0FFD4" offset="0%"/><stop stop-color="#FFF" offset="100%"/></linearGradient><path id="e" d="M288.64 2191.578l1597.493-981.328-34.649 1115.86-1618.265-39.837z"/><filter x="-4.5%" y="-4.2%" width="106%" height="108.8%" filterUnits="objectBoundingBox" id="d"><feOffset dx="-26" dy="2" in="SourceAlpha" result="shadowOffsetOuter1"/><feGaussianBlur stdDeviation="12" in="shadowOffsetOuter1" result="shadowBlurOuter1"/><feColorMatrix values="0 0 0 0 0.0941176471 0 0 0 0 0.11372549 0 0 0 0 0.133333333 0 0 0 0.09 0" in="shadowBlurOuter1"/></filter><linearGradient x1="50%" y1="0%" x2="50%" y2="100%" id="i"><stop stop-color="#C0D5FF" offset="0%"/><stop stop-color="#FFF" offset="100%"/></linearGradient><path id="h" d="M175.898 1457.79l1872.079 744.53-430.688 226.883L109.602 2202.32l53.789-685.289z"/><filter x="-3.9%" y="-4.8%" width="105.2%" height="110.1%" filterUnits="objectBoundingBox" id="g"><feOffset dx="-26" dy="2" in="SourceAlpha" result="shadowOffsetOuter1"/><feGaussianBlur stdDeviation="12" in="shadowOffsetOuter1" result="shadowBlurOuter1"/><feColorMatrix values="0 0 0 0 0.0941176471 0 0 0 0 0.11372549 0 0 0 0 0.133333333 0 0 0 0.09 0" in="shadowBlurOuter1"/></filter><linearGradient x1="50%" y1="0%" x2="50%" y2="100%" id="l"><stop stop-color="#FFE2C0" offset="0%"/><stop stop-color="#FFF" offset="100%"/></linearGradient><path id="k" d="M134 2054.234L2115.398 1611l-282.984 1136.898L134 2218.11z"/><filter x="-3.8%" y="-4.1%" width="105%" height="108.6%" filterUnits="objectBoundingBox" id="j"><feOffset dx="-26" dy="2" in="SourceAlpha" result="shadowOffsetOuter1"/><feGaussianBlur stdDeviation="12" in="shadowOffsetOuter1" result="shadowBlurOuter1"/><feColorMatrix values="0 0 0 0 0.0941176471 0 0 0 0 0.11372549 0 0 0 0 0.133333333 0 0 0 0.09 0" in="shadowBlurOuter1"/></filter></defs><g fill="none" fill-rule="evenodd"><g transform="rotate(10 4654.264 637.038)"><use fill="#000" filter="url(#a)" xlink:href="#b"/><use fill="url(#c)" xlink:href="#b"/></g><g transform="rotate(-180 883.667 1144.46)"><use fill="#000" filter="url(#d)" xlink:href="#e"/><use fill="url(#f)" xlink:href="#e"/></g><g transform="rotate(-180 844.199 1305.411)"><use fill="#000" filter="url(#g)" xlink:href="#h"/><use fill="url(#i)" xlink:href="#h"/></g><g transform="rotate(-180 808.905 1528.518)"><use fill="#000" filter="url(#j)" xlink:href="#k"/><use fill="url(#l)" xlink:href="#k"/></g></g></svg>