<svg width="789" height="455" viewBox="0 0 789 455" xmlns="http://www.w3.org/2000/svg" xmlns:xlink="http://www.w3.org/1999/xlink"><title>managed-integration-featured</title><defs><path id="a" d="M63 123h10v10H63z"/><mask id="D" x="0" y="0" width="10" height="10" fill="#fff"><use xlink:href="#a"/></mask><path id="b" d="M203 183h10v10h-10z"/><mask id="E" x="0" y="0" width="10" height="10" fill="#fff"><use xlink:href="#b"/></mask><path id="c" d="M483 193h10v10h-10z"/><mask id="F" x="0" y="0" width="10" height="10" fill="#fff"><use xlink:href="#c"/></mask><path id="d" d="M3 3h10v10H3z"/><mask id="G" x="0" y="0" width="10" height="10" fill="#fff"><use xlink:href="#d"/></mask><path id="e" d="M393 153h10v10h-10z"/><mask id="H" x="0" y="0" width="10" height="10" fill="#fff"><use xlink:href="#e"/></mask><path id="f" d="M563 113h10v10h-10z"/><mask id="I" x="0" y="0" width="10" height="10" fill="#fff"><use xlink:href="#f"/></mask><path id="g" d="M633 13h10v10h-10z"/><mask id="J" x="0" y="0" width="10" height="10" fill="#fff"><use xlink:href="#g"/></mask><path id="h" d="M0 0h10v10H0z"/><mask id="K" x="0" y="0" width="10" height="10" fill="#fff"><use xlink:href="#h"/></mask><path id="i" d="M600 350h10v10h-10z"/><mask id="L" x="0" y="0" width="10" height="10" fill="#fff"><use xlink:href="#i"/></mask><path id="j" d="M670 220h10v10h-10z"/><mask id="M" x="0" y="0" width="10" height="10" fill="#fff"><use xlink:href="#j"/></mask><path id="k" d="M700 10h10v10h-10z"/><mask id="N" x="0" y="0" width="10" height="10" fill="#fff"><use xlink:href="#k"/></mask><path id="l" d="M150 320h10v10h-10z"/><mask id="O" x="0" y="0" width="10" height="10" fill="#fff"><use xlink:href="#l"/></mask><path id="m" d="M310 320h10v10h-10z"/><mask id="P" x="0" y="0" width="10" height="10" fill="#fff"><use xlink:href="#m"/></mask><path id="n" d="M10 160h10v10H10z"/><mask id="Q" x="0" y="0" width="10" height="10" fill="#fff"><use xlink:href="#n"/></mask><path id="o" d="M390 320h10v10h-10z"/><mask id="R" x="0" y="0" width="10" height="10" fill="#fff"><use xlink:href="#o"/></mask><path id="p" d="M60 300h10v10H60z"/><mask id="S" x="0" y="0" width="10" height="10" fill="#fff"><use xlink:href="#p"/></mask><path id="q" d="M750 140h10v10h-10z"/><mask id="T" x="0" y="0" width="10" height="10" fill="#fff"><use xlink:href="#q"/></mask><path id="r" d="M30 131h10v10H30z"/><mask id="U" x="0" y="0" width="10" height="10" fill="#fff"><use xlink:href="#r"/></mask><path id="s" d="M70 61h10v10H70z"/><mask id="V" x="0" y="0" width="10" height="10" fill="#fff"><use xlink:href="#s"/></mask><path id="t" d="M110 321h10v10h-10z"/><mask id="W" x="0" y="0" width="10" height="10" fill="#fff"><use xlink:href="#t"/></mask><path id="u" d="M410 321h10v10h-10z"/><mask id="X" x="0" y="0" width="10" height="10" fill="#fff"><use xlink:href="#u"/></mask><path id="v" d="M520 221h10v10h-10z"/><mask id="Y" x="0" y="0" width="10" height="10" fill="#fff"><use xlink:href="#v"/></mask><path id="w" d="M570 141h10v10h-10z"/><mask id="Z" x="0" y="0" width="10" height="10" fill="#fff"><use xlink:href="#w"/></mask><path id="x" d="M510 91h10v10h-10z"/><mask id="aa" x="0" y="0" width="10" height="10" fill="#fff"><use xlink:href="#x"/></mask><path id="y" d="M570 61h10v10h-10z"/><mask id="ab" x="0" y="0" width="10" height="10" fill="#fff"><use xlink:href="#y"/></mask><path id="z" d="M30 231h10v10H30z"/><mask id="ac" x="0" y="0" width="10" height="10" fill="#fff"><use xlink:href="#z"/></mask><path id="A" d="M0 21h10v10H0z"/><mask id="ad" x="0" y="0" width="10" height="10" fill="#fff"><use xlink:href="#A"/></mask><path id="B" d="M544 0h10v10h-10z"/><mask id="ae" x="0" y="0" width="10" height="10" fill="#fff"><use xlink:href="#B"/></mask><path id="C" d="M220 341h10v10h-10z"/><mask id="af" x="0" y="0" width="10" height="10" fill="#fff"><use xlink:href="#C"/></mask></defs><g fill="none" fill-rule="evenodd"><g stroke="#40FFF1" stroke-width="2"><g transform="translate(41 190)" opacity=".4"><use mask="url(#D)" xlink:href="#a"/><use mask="url(#E)" xlink:href="#b"/><use mask="url(#F)" xlink:href="#c"/><use mask="url(#G)" transform="rotate(-40 8 8)" xlink:href="#d"/><use mask="url(#H)" transform="rotate(-40 398 158)" xlink:href="#e"/><use mask="url(#I)" transform="rotate(-40 568 118)" xlink:href="#f"/><use mask="url(#J)" transform="rotate(-40 638 18)" xlink:href="#g"/></g><g transform="translate(14 83)" opacity=".2"><use mask="url(#K)" xlink:href="#h"/><use mask="url(#L)" xlink:href="#i"/><use mask="url(#M)" xlink:href="#j"/><use mask="url(#N)" xlink:href="#k"/><use mask="url(#O)" xlink:href="#l"/><use mask="url(#P)" xlink:href="#m"/><use mask="url(#Q)" transform="rotate(-40 15 165)" xlink:href="#n"/><use mask="url(#R)" transform="rotate(-40 395 325)" xlink:href="#o"/><use mask="url(#S)" transform="rotate(-40 65 305)" xlink:href="#p"/><use mask="url(#T)" xlink:href="#q"/></g><g transform="translate(84 2)"><use mask="url(#U)" transform="rotate(-40 35 136)" xlink:href="#r"/><use mask="url(#V)" transform="rotate(-40 75 66)" xlink:href="#s"/><use mask="url(#W)" transform="rotate(-40 115 326)" xlink:href="#t"/><use mask="url(#X)" transform="rotate(-40 415 326)" xlink:href="#u"/><use mask="url(#Y)" transform="rotate(-40 525 226)" xlink:href="#v"/><use mask="url(#Z)" transform="rotate(-40 575 146)" xlink:href="#w"/><use mask="url(#aa)" transform="rotate(-40 515 96)" xlink:href="#x"/><use mask="url(#ab)" transform="rotate(-40 575 66)" xlink:href="#y"/><use mask="url(#ac)" xlink:href="#z"/><use mask="url(#ad)" xlink:href="#A"/><use mask="url(#ae)" xlink:href="#B"/><use mask="url(#af)" xlink:href="#C"/></g></g><g opacity=".8" transform="translate(153 143)"><path stroke="#40FFF1" stroke-dasharray="5,5,5,5" d="M5.5 77.5l33-35.5 109-16.5 73 71 63-87 87-9.5L394 20.5"/><circle fill="#40FFF1" cx="5" cy="78" r="5"/><circle fill="#40FFF1" cx="393" cy="21" r="5"/></g><g opacity=".2" transform="translate(238 165)"><path stroke="#40FFF1" stroke-dasharray="5,5,5,5" d="M4.5 79l125-79L258 15.5 341 77"/><circle fill="#40FFF1" cx="5" cy="78" r="5"/><circle fill="#40FFF1" cx="340" cy="76" r="5"/></g><g opacity=".5" transform="translate(202 188)"><path stroke="#40FFF1" stroke-dasharray="5,5,5,5" d="M4 18l46-3.5L104 46l71.5-32.5 42 15L263 0l70 53.5 36.5-47"/><circle fill="#40FFF1" cx="5" cy="18" r="5"/><circle fill="#40FFF1" cx="369" cy="7" r="5"/></g><g transform="translate(173 39)"><path stroke="#40FFF1" stroke-dasharray="5,5,5,5" d="M9.5 16.5l82 16 109-17 120 10.5 56-19"/><circle fill="#40FFF1" cx="5" cy="15" r="5"/><circle fill="#40FFF1" cx="380" cy="5" r="5"/></g><g transform="translate(183 106)"><circle fill="#FFF871" cx="5" cy="37" r="5"/><circle fill="#FFF871" cx="350" cy="18" r="5"/><path stroke="#FFF871" stroke-width="2" stroke-dasharray="5,5,5,5" d="M5 37.5L67 25 131.5.5l65.5 46L284 4l65.5 14"/></g><g transform="translate(202 16)" opacity=".7"><path stroke="#40FFF1" stroke-dasharray="5,5,5,5" d="M6.5 140L59 40l104-7L234 .5l90 55"/><circle fill="#40FFF1" cx="5" cy="144" r="5"/><circle fill="#40FFF1" cx="331" cy="61" r="5"/></g><g transform="translate(185 44)"><path stroke="#40FFF1" stroke-dasharray="5,5,5,5" opacity=".3" d="M14 42l127.5-1.5 57 58.5L256 .5 356 15l17.5 17.5"/><circle fill="#40FFF1" opacity=".3" cx="5" cy="42" r="5"/><circle fill="#40FFF1" opacity=".3" cx="375" cy="35" r="5"/></g></g></svg>