<svg xmlns="http://www.w3.org/2000/svg" xmlns:xlink="http://www.w3.org/1999/xlink" viewBox="0 0 799 369"><defs><linearGradient id="b" x1="9.27%" x2="49.13%" y1="50%" y2="92.5%"><stop offset="0%" stop-color="#FFF" stop-opacity=".09"/><stop offset="100%" stop-color="#FFF" stop-opacity="0"/></linearGradient><path id="a" d="M359.27 414.27c8.4 4.87 8.7 4.83 17.27-.08 7.63-4.41 280.8-162.09 345.04-199.23 2.39-1.38 3.6-6.26-.03-8.36-58.72-33.93-297.38-169.07-356.11-203-8.5-4.87-10.87-4.77-19.42.12C259.94 53.38 88.41 152.44 2.32 202.1c-3.71 2.15-2.42 7.2.05 8.62C118.7 278 357.28 413.12 359.27 414.27z"/><path id="d" d="M359.27 414.27c8.4 4.87 8.7 4.83 17.27-.08 7.63-4.41 280.8-162.09 345.04-199.23 2.39-1.38 3.6-6.26-.03-8.36-58.72-33.93-297.38-169.07-356.11-203-8.5-4.87-10.87-4.77-19.42.12C259.94 53.38 88.41 152.44 2.32 202.1c-3.71 2.15-2.42 7.2.05 8.62C118.7 278 357.28 413.12 359.27 414.27z"/><filter id="e" width="105.8%" height="110%" x="-2.9%" y="-5%" filterUnits="objectBoundingBox"><feGaussianBlur in="SourceGraphic" stdDeviation="4.72"/></filter><linearGradient id="f" x1="9.27%" x2="49.13%" y1="50%" y2="92.5%"><stop offset="0%" stop-color="#4B9EDE" stop-opacity=".25"/><stop offset="100%" stop-color="#097AA2" stop-opacity=".15"/></linearGradient><path id="g" d="M230.37 309.42c7.48 4.33 7.76 4.3 15.4-.08 6.8-3.93 180.39-104.54 237.68-137.66 2.13-1.23 3.2-5.58-.02-7.45-52.37-30.26-175.2-100.76-227.56-131.02-7.58-4.34-9.7-4.25-17.32.11C161.8 77.6 78.83 125.94 2.07 170.21c-3.31 1.91-2.16 6.41.04 7.69 103.73 59.99 226.48 130.5 228.26 131.52z"/><linearGradient id="h" x1="10.39%" x2="49.13%" y1="51.19%" y2="92.5%"><stop offset="0%" stop-color="#D69405" stop-opacity=".1"/><stop offset="100%" stop-color="#FF925E" stop-opacity=".15"/></linearGradient><path id="i" d="M230.37 279.42c7.48 4.33 7.76 4.3 15.4-.08 6.8-3.93 180.39-104.54 237.68-137.66 2.13-1.23 3.2-5.58-.02-7.45-52.37-30.26-175.2-100.76-227.56-131.02-7.58-4.34-9.7-4.25-17.32.11C161.8 47.6 78.83 95.94 2.07 140.21c-3.31 1.91-2.16 6.41.04 7.69 103.73 59.99 226.48 130.5 228.26 131.52z"/><linearGradient id="l" x1="50%" x2="50%" y1="2.77%" y2="97.42%"><stop offset="0%" stop-color="#FFF"/><stop offset="100%" stop-color="#BEECFF" stop-opacity=".89"/></linearGradient><path id="k" d="M0 84.67L43.45 110 87 84.67V25.59L43.45 0 0 25.32z"/><filter id="j" width="121.8%" height="117.3%" x="-10.9%" y="-5%" filterUnits="objectBoundingBox"><feOffset dy="4" in="SourceAlpha" result="shadowOffsetOuter1"/><feGaussianBlur in="shadowOffsetOuter1" result="shadowBlurOuter1" stdDeviation="2.5"/><feComposite in="shadowBlurOuter1" in2="SourceAlpha" operator="out" result="shadowBlurOuter1"/><feColorMatrix in="shadowBlurOuter1" values="0 0 0 0 0.0382115559 0 0 0 0 0.0425257639 0 0 0 0 0.0542357568 0 0 0 0.2 0"/></filter><linearGradient id="m" x1="50%" x2="50%" y1="2.77%" y2="97.42%"><stop offset="0%" stop-color="#FFF"/><stop offset="100%" stop-color="#C2EDFF" stop-opacity=".92"/></linearGradient><path id="n" d="M0 25.52L43.45 51 87 25.52 43.45 0z"/><path id="p" d="M193 16.68L205.45 24 218 16.68V7.59L205.45 0 193 7.32z"/><filter id="o" width="176%" height="179.2%" x="-38%" y="-22.9%" filterUnits="objectBoundingBox"><feOffset dy="4" in="SourceAlpha" result="shadowOffsetOuter1"/><feGaussianBlur in="shadowOffsetOuter1" result="shadowBlurOuter1" stdDeviation="2.5"/><feComposite in="shadowBlurOuter1" in2="SourceAlpha" operator="out" result="shadowBlurOuter1"/><feColorMatrix in="shadowBlurOuter1" values="0 0 0 0 0.0382115559 0 0 0 0 0.0425257639 0 0 0 0 0.0542357568 0 0 0 0.2 0"/></filter><path id="q" d="M193 7.52L205.45 15 218 7.52 205.45 0z"/><path id="s" d="M208 26.68L220.45 34 233 26.68v-9.09L220.45 10 208 17.32z"/><filter id="r" width="176%" height="179.2%" x="-38%" y="-22.9%" filterUnits="objectBoundingBox"><feOffset dy="4" in="SourceAlpha" result="shadowOffsetOuter1"/><feGaussianBlur in="shadowOffsetOuter1" result="shadowBlurOuter1" stdDeviation="2.5"/><feComposite in="shadowBlurOuter1" in2="SourceAlpha" operator="out" result="shadowBlurOuter1"/><feColorMatrix in="shadowBlurOuter1" values="0 0 0 0 0.0382115559 0 0 0 0 0.0425257639 0 0 0 0 0.0542357568 0 0 0 0.2 0"/></filter><path id="t" d="M208 17.52L220.45 25 233 17.52 220.45 10z"/><path id="v" d="M177 26.68L189.45 34 202 26.68v-9.09L189.45 10 177 17.32z"/><filter id="u" width="176%" height="179.2%" x="-38%" y="-22.9%" filterUnits="objectBoundingBox"><feOffset dy="4" in="SourceAlpha" result="shadowOffsetOuter1"/><feGaussianBlur in="shadowOffsetOuter1" result="shadowBlurOuter1" stdDeviation="2.5"/><feComposite in="shadowBlurOuter1" in2="SourceAlpha" operator="out" result="shadowBlurOuter1"/><feColorMatrix in="shadowBlurOuter1" values="0 0 0 0 0.0382115559 0 0 0 0 0.0425257639 0 0 0 0 0.0542357568 0 0 0 0.2 0"/></filter><path id="w" d="M177 17.52L189.45 25 202 17.52 189.45 10z"/><path id="y" d="M161 36.67L173.45 44 186 36.67v-9.08L173.45 20 161 27.32z"/><filter id="x" width="176%" height="179.2%" x="-38%" y="-22.9%" filterUnits="objectBoundingBox"><feOffset dy="4" in="SourceAlpha" result="shadowOffsetOuter1"/><feGaussianBlur in="shadowOffsetOuter1" result="shadowBlurOuter1" stdDeviation="2.5"/><feComposite in="shadowBlurOuter1" in2="SourceAlpha" operator="out" result="shadowBlurOuter1"/><feColorMatrix in="shadowBlurOuter1" values="0 0 0 0 0.0382115559 0 0 0 0 0.0425257639 0 0 0 0 0.0542357568 0 0 0 0.2 0"/></filter><path id="z" d="M161 27.52L173.45 35 186 27.52 173.45 20z"/><path id="B" d="M145 46.67L157.45 54 170 46.67v-9.08L157.45 30 145 37.32z"/><filter id="A" width="176%" height="179.2%" x="-38%" y="-22.9%" filterUnits="objectBoundingBox"><feOffset dy="4" in="SourceAlpha" result="shadowOffsetOuter1"/><feGaussianBlur in="shadowOffsetOuter1" result="shadowBlurOuter1" stdDeviation="2.5"/><feComposite in="shadowBlurOuter1" in2="SourceAlpha" operator="out" result="shadowBlurOuter1"/><feColorMatrix in="shadowBlurOuter1" values="0 0 0 0 0.0382115559 0 0 0 0 0.0425257639 0 0 0 0 0.0542357568 0 0 0 0.2 0"/></filter><path id="C" d="M145 37.52L157.45 45 170 37.52 157.45 30z"/><path id="E" d="M144 165.68L187.45 191 231 165.68v-9.09L187.45 131 144 156.32z"/><filter id="D" width="121.8%" height="131.7%" x="-10.9%" y="-9.2%" filterUnits="objectBoundingBox"><feOffset dy="4" in="SourceAlpha" result="shadowOffsetOuter1"/><feGaussianBlur in="shadowOffsetOuter1" result="shadowBlurOuter1" stdDeviation="2.5"/><feComposite in="shadowBlurOuter1" in2="SourceAlpha" operator="out" result="shadowBlurOuter1"/><feColorMatrix in="shadowBlurOuter1" values="0 0 0 0 0.0382115559 0 0 0 0 0.0425257639 0 0 0 0 0.0542357568 0 0 0 0.2 0"/></filter><path id="F" d="M144 156.52L187.45 182 231 156.52 187.45 131z"/><path id="H" d="M308 168.68l12.45 7.32 12.55-7.32v-9.09L320.45 152 308 159.32z"/><filter id="G" width="176%" height="179.2%" x="-38%" y="-22.9%" filterUnits="objectBoundingBox"><feOffset dy="4" in="SourceAlpha" result="shadowOffsetOuter1"/><feGaussianBlur in="shadowOffsetOuter1" result="shadowBlurOuter1" stdDeviation="2.5"/><feComposite in="shadowBlurOuter1" in2="SourceAlpha" operator="out" result="shadowBlurOuter1"/><feColorMatrix in="shadowBlurOuter1" values="0 0 0 0 0.0382115559 0 0 0 0 0.0425257639 0 0 0 0 0.0542357568 0 0 0 0.2 0"/></filter><path id="I" d="M308 159.52l12.45 7.48 12.55-7.48-12.55-7.52z"/><path id="K" d="M294 176.68l12.45 7.32 12.55-7.32v-9.09L306.45 160 294 167.32z"/><filter id="J" width="176%" height="179.2%" x="-38%" y="-22.9%" filterUnits="objectBoundingBox"><feOffset dy="4" in="SourceAlpha" result="shadowOffsetOuter1"/><feGaussianBlur in="shadowOffsetOuter1" result="shadowBlurOuter1" stdDeviation="2.5"/><feComposite in="shadowBlurOuter1" in2="SourceAlpha" operator="out" result="shadowBlurOuter1"/><feColorMatrix in="shadowBlurOuter1" values="0 0 0 0 0.0382115559 0 0 0 0 0.0425257639 0 0 0 0 0.0542357568 0 0 0 0.2 0"/></filter><path id="L" d="M294 167.52l12.45 7.48 12.55-7.48-12.55-7.52z"/><path id="N" d="M264 175.68l12.45 7.32 12.55-7.32v-9.09L276.45 159 264 166.32z"/><filter id="M" width="176%" height="179.2%" x="-38%" y="-22.9%" filterUnits="objectBoundingBox"><feOffset dy="4" in="SourceAlpha" result="shadowOffsetOuter1"/><feGaussianBlur in="shadowOffsetOuter1" result="shadowBlurOuter1" stdDeviation="2.5"/><feComposite in="shadowBlurOuter1" in2="SourceAlpha" operator="out" result="shadowBlurOuter1"/><feColorMatrix in="shadowBlurOuter1" values="0 0 0 0 0.0382115559 0 0 0 0 0.0425257639 0 0 0 0 0.0542357568 0 0 0 0.2 0"/></filter><path id="O" d="M264 166.52l12.45 7.48 12.55-7.48-12.55-7.52z"/><path id="Q" d="M279 184.68l12.45 7.32 12.55-7.32v-9.09L291.45 168 279 175.32z"/><filter id="P" width="176%" height="179.2%" x="-38%" y="-22.9%" filterUnits="objectBoundingBox"><feOffset dy="4" in="SourceAlpha" result="shadowOffsetOuter1"/><feGaussianBlur in="shadowOffsetOuter1" result="shadowBlurOuter1" stdDeviation="2.5"/><feComposite in="shadowBlurOuter1" in2="SourceAlpha" operator="out" result="shadowBlurOuter1"/><feColorMatrix in="shadowBlurOuter1" values="0 0 0 0 0.0382115559 0 0 0 0 0.0425257639 0 0 0 0 0.0542357568 0 0 0 0.2 0"/></filter><path id="R" d="M279 175.52l12.45 7.48 12.55-7.48-12.55-7.52z"/><path id="T" d="M234 175.68L277.45 201l12.55-7.32v-9.09L246.45 159 234 166.32z"/><filter id="S" width="133.9%" height="145.2%" x="-17%" y="-13.1%" filterUnits="objectBoundingBox"><feOffset dy="4" in="SourceAlpha" result="shadowOffsetOuter1"/><feGaussianBlur in="shadowOffsetOuter1" result="shadowBlurOuter1" stdDeviation="2.5"/><feComposite in="shadowBlurOuter1" in2="SourceAlpha" operator="out" result="shadowBlurOuter1"/><feColorMatrix in="shadowBlurOuter1" values="0 0 0 0 0.0382115559 0 0 0 0 0.0425257639 0 0 0 0 0.0542357568 0 0 0 0.2 0"/></filter><path id="U" d="M234 166.52L277.45 192l12.55-7.48L246.45 159z"/><path id="W" d="M147 83.67L190.45 109 234 83.67V54.59L190.45 29 147 54.32z"/><filter id="V" width="121.8%" height="123.7%" x="-10.9%" y="-6.9%" filterUnits="objectBoundingBox"><feOffset dy="4" in="SourceAlpha" result="shadowOffsetOuter1"/><feGaussianBlur in="shadowOffsetOuter1" result="shadowBlurOuter1" stdDeviation="2.5"/><feComposite in="shadowBlurOuter1" in2="SourceAlpha" operator="out" result="shadowBlurOuter1"/><feColorMatrix in="shadowBlurOuter1" values="0 0 0 0 0.0382115559 0 0 0 0 0.0425257639 0 0 0 0 0.0542357568 0 0 0 0.2 0"/></filter><path id="X" d="M147 54.52L190.45 80 234 54.52 190.45 29z"/><path id="Z" d="M234 192.68l12.45 7.32 12.55-7.32v-9.09L246.45 176 234 183.32z"/><filter id="Y" width="176%" height="179.2%" x="-38%" y="-22.9%" filterUnits="objectBoundingBox"><feOffset dy="4" in="SourceAlpha" result="shadowOffsetOuter1"/><feGaussianBlur in="shadowOffsetOuter1" result="shadowBlurOuter1" stdDeviation="2.5"/><feComposite in="shadowBlurOuter1" in2="SourceAlpha" operator="out" result="shadowBlurOuter1"/><feColorMatrix in="shadowBlurOuter1" values="0 0 0 0 0.0382115559 0 0 0 0 0.0425257639 0 0 0 0 0.0542357568 0 0 0 0.2 0"/></filter><path id="aa" d="M234 183.52l12.45 7.48 12.55-7.48-12.55-7.52z"/><path id="ac" d="M249 202.68l12.45 7.32 12.55-7.32v-9.09L261.45 186 249 193.32z"/><filter id="ab" width="176%" height="179.2%" x="-38%" y="-22.9%" filterUnits="objectBoundingBox"><feOffset dy="4" in="SourceAlpha" result="shadowOffsetOuter1"/><feGaussianBlur in="shadowOffsetOuter1" result="shadowBlurOuter1" stdDeviation="2.5"/><feComposite in="shadowBlurOuter1" in2="SourceAlpha" operator="out" result="shadowBlurOuter1"/><feColorMatrix in="shadowBlurOuter1" values="0 0 0 0 0.0382115559 0 0 0 0 0.0425257639 0 0 0 0 0.0542357568 0 0 0 0.2 0"/></filter><path id="ad" d="M249 193.52l12.45 7.48 12.55-7.48-12.55-7.52z"/><path id="af" d="M219 201.68l12.45 7.32 12.55-7.32v-9.09L231.45 185 219 192.32z"/><filter id="ae" width="176%" height="179.2%" x="-38%" y="-22.9%" filterUnits="objectBoundingBox"><feOffset dy="4" in="SourceAlpha" result="shadowOffsetOuter1"/><feGaussianBlur in="shadowOffsetOuter1" result="shadowBlurOuter1" stdDeviation="2.5"/><feComposite in="shadowBlurOuter1" in2="SourceAlpha" operator="out" result="shadowBlurOuter1"/><feColorMatrix in="shadowBlurOuter1" values="0 0 0 0 0.0382115559 0 0 0 0 0.0425257639 0 0 0 0 0.0542357568 0 0 0 0.2 0"/></filter><path id="ag" d="M219 192.52l12.45 7.48 12.55-7.48-12.55-7.52z"/><path id="ai" d="M234 211.68l12.45 7.32 12.55-7.32v-9.09L246.45 195 234 202.32z"/><filter id="ah" width="176%" height="179.2%" x="-38%" y="-22.9%" filterUnits="objectBoundingBox"><feOffset dy="4" in="SourceAlpha" result="shadowOffsetOuter1"/><feGaussianBlur in="shadowOffsetOuter1" result="shadowBlurOuter1" stdDeviation="2.5"/><feComposite in="shadowBlurOuter1" in2="SourceAlpha" operator="out" result="shadowBlurOuter1"/><feColorMatrix in="shadowBlurOuter1" values="0 0 0 0 0.0382115559 0 0 0 0 0.0425257639 0 0 0 0 0.0542357568 0 0 0 0.2 0"/></filter><path id="aj" d="M234 202.52l12.45 7.48 12.55-7.48-12.55-7.52z"/><path id="al" d="M203 210.68l12.45 7.32 12.55-7.32v-9.09L215.45 194 203 201.32z"/><filter id="ak" width="176%" height="179.2%" x="-38%" y="-22.9%" filterUnits="objectBoundingBox"><feOffset dy="4" in="SourceAlpha" result="shadowOffsetOuter1"/><feGaussianBlur in="shadowOffsetOuter1" result="shadowBlurOuter1" stdDeviation="2.5"/><feComposite in="shadowBlurOuter1" in2="SourceAlpha" operator="out" result="shadowBlurOuter1"/><feColorMatrix in="shadowBlurOuter1" values="0 0 0 0 0.0382115559 0 0 0 0 0.0425257639 0 0 0 0 0.0542357568 0 0 0 0.2 0"/></filter><path id="am" d="M203 201.52l12.45 7.48 12.55-7.48-12.55-7.52z"/><path id="ao" d="M187 219.68l12.45 7.32 12.55-7.32v-9.09L199.45 203 187 210.32z"/><filter id="an" width="176%" height="179.2%" x="-38%" y="-22.9%" filterUnits="objectBoundingBox"><feOffset dy="4" in="SourceAlpha" result="shadowOffsetOuter1"/><feGaussianBlur in="shadowOffsetOuter1" result="shadowBlurOuter1" stdDeviation="2.5"/><feComposite in="shadowBlurOuter1" in2="SourceAlpha" operator="out" result="shadowBlurOuter1"/><feColorMatrix in="shadowBlurOuter1" values="0 0 0 0 0.0382115559 0 0 0 0 0.0425257639 0 0 0 0 0.0542357568 0 0 0 0.2 0"/></filter><path id="ap" d="M187 210.52l12.45 7.48 12.55-7.48-12.55-7.52z"/><path id="ar" d="M128 211.68l12.45 7.32 12.55-7.32v-9.09L140.45 195 128 202.32z"/><filter id="aq" width="176%" height="179.2%" x="-38%" y="-22.9%" filterUnits="objectBoundingBox"><feOffset dy="4" in="SourceAlpha" result="shadowOffsetOuter1"/><feGaussianBlur in="shadowOffsetOuter1" result="shadowBlurOuter1" stdDeviation="2.5"/><feComposite in="shadowBlurOuter1" in2="SourceAlpha" operator="out" result="shadowBlurOuter1"/><feColorMatrix in="shadowBlurOuter1" values="0 0 0 0 0.0382115559 0 0 0 0 0.0425257639 0 0 0 0 0.0542357568 0 0 0 0.2 0"/></filter><path id="as" d="M128 202.52l12.45 7.48 12.55-7.48-12.55-7.52z"/><path id="au" d="M153 112.67l12.45 7.33 12.55-7.33v-9.08L165.45 96 153 103.32z"/><filter id="at" width="176%" height="179.2%" x="-38%" y="-22.9%" filterUnits="objectBoundingBox"><feOffset dy="4" in="SourceAlpha" result="shadowOffsetOuter1"/><feGaussianBlur in="shadowOffsetOuter1" result="shadowBlurOuter1" stdDeviation="2.5"/><feComposite in="shadowBlurOuter1" in2="SourceAlpha" operator="out" result="shadowBlurOuter1"/><feColorMatrix in="shadowBlurOuter1" values="0 0 0 0 0.0382115559 0 0 0 0 0.0425257639 0 0 0 0 0.0542357568 0 0 0 0.2 0"/></filter><path id="av" d="M153 103.52l12.45 7.48 12.55-7.48L165.45 96z"/><path id="ax" d="M168 122.67l12.45 7.33 12.55-7.33v-9.08L180.45 106 168 113.32z"/><filter id="aw" width="176%" height="179.2%" x="-38%" y="-22.9%" filterUnits="objectBoundingBox"><feOffset dy="4" in="SourceAlpha" result="shadowOffsetOuter1"/><feGaussianBlur in="shadowOffsetOuter1" result="shadowBlurOuter1" stdDeviation="2.5"/><feComposite in="shadowBlurOuter1" in2="SourceAlpha" operator="out" result="shadowBlurOuter1"/><feColorMatrix in="shadowBlurOuter1" values="0 0 0 0 0.0382115559 0 0 0 0 0.0425257639 0 0 0 0 0.0542357568 0 0 0 0.2 0"/></filter><path id="ay" d="M168 113.52l12.45 7.48 12.55-7.48-12.55-7.52z"/><path id="aA" d="M149 128.68l12.45 7.32 12.55-7.32v-9.09L161.45 112 149 119.32z"/><filter id="az" width="176%" height="179.2%" x="-38%" y="-22.9%" filterUnits="objectBoundingBox"><feOffset dy="4" in="SourceAlpha" result="shadowOffsetOuter1"/><feGaussianBlur in="shadowOffsetOuter1" result="shadowBlurOuter1" stdDeviation="2.5"/><feComposite in="shadowBlurOuter1" in2="SourceAlpha" operator="out" result="shadowBlurOuter1"/><feColorMatrix in="shadowBlurOuter1" values="0 0 0 0 0.0382115559 0 0 0 0 0.0425257639 0 0 0 0 0.0542357568 0 0 0 0.2 0"/></filter><path id="aB" d="M149 119.52l12.45 7.48 12.55-7.48-12.55-7.52z"/><path id="aD" d="M157 212.68l12.45 7.32 12.55-7.32v-9.09L169.45 196 157 203.32z"/><filter id="aC" width="176%" height="179.2%" x="-38%" y="-22.9%" filterUnits="objectBoundingBox"><feOffset dy="4" in="SourceAlpha" result="shadowOffsetOuter1"/><feGaussianBlur in="shadowOffsetOuter1" result="shadowBlurOuter1" stdDeviation="2.5"/><feComposite in="shadowBlurOuter1" in2="SourceAlpha" operator="out" result="shadowBlurOuter1"/><feColorMatrix in="shadowBlurOuter1" values="0 0 0 0 0.0382115559 0 0 0 0 0.0425257639 0 0 0 0 0.0542357568 0 0 0 0.2 0"/></filter><path id="aE" d="M157 203.52l12.45 7.48 12.55-7.48-12.55-7.52z"/><path id="aG" d="M203 228.68l12.45 7.32 12.55-7.32v-9.09L215.45 212 203 219.32z"/><filter id="aF" width="176%" height="179.2%" x="-38%" y="-22.9%" filterUnits="objectBoundingBox"><feOffset dy="4" in="SourceAlpha" result="shadowOffsetOuter1"/><feGaussianBlur in="shadowOffsetOuter1" result="shadowBlurOuter1" stdDeviation="2.5"/><feComposite in="shadowBlurOuter1" in2="SourceAlpha" operator="out" result="shadowBlurOuter1"/><feColorMatrix in="shadowBlurOuter1" values="0 0 0 0 0.0382115559 0 0 0 0 0.0425257639 0 0 0 0 0.0542357568 0 0 0 0.2 0"/></filter><path id="aH" d="M203 219.52l12.45 7.48 12.55-7.48-12.55-7.52z"/><path id="aJ" d="M50 93.67L93.45 119 137 93.67V74.59L93.45 49 50 74.32z"/><filter id="aI" width="121.8%" height="127.1%" x="-10.9%" y="-7.9%" filterUnits="objectBoundingBox"><feOffset dy="4" in="SourceAlpha" result="shadowOffsetOuter1"/><feGaussianBlur in="shadowOffsetOuter1" result="shadowBlurOuter1" stdDeviation="2.5"/><feComposite in="shadowBlurOuter1" in2="SourceAlpha" operator="out" result="shadowBlurOuter1"/><feColorMatrix in="shadowBlurOuter1" values="0 0 0 0 0.0382115559 0 0 0 0 0.0425257639 0 0 0 0 0.0542357568 0 0 0 0.2 0"/></filter><path id="aK" d="M50 74.52L93.45 100 137 74.52 93.45 49z"/><path id="aM" d="M93 128.68L120.45 145 147 129.68v-19.09L119.45 95 93 109.32z"/><filter id="aL" width="135.2%" height="138%" x="-17.6%" y="-11%" filterUnits="objectBoundingBox"><feOffset dy="4" in="SourceAlpha" result="shadowOffsetOuter1"/><feGaussianBlur in="shadowOffsetOuter1" result="shadowBlurOuter1" stdDeviation="2.5"/><feComposite in="shadowBlurOuter1" in2="SourceAlpha" operator="out" result="shadowBlurOuter1"/><feColorMatrix in="shadowBlurOuter1" values="0 0 0 0 0.0382115559 0 0 0 0 0.0425257639 0 0 0 0 0.0542357568 0 0 0 0.2 0"/></filter><path id="aN" d="M93 109.52L120.45 125 147 110.52 119.45 95z"/><path id="aP" d="M196 112.67L223.45 129 250 113.67V94.59L222.45 79 196 93.32z"/><filter id="aO" width="135.2%" height="138%" x="-17.6%" y="-11%" filterUnits="objectBoundingBox"><feOffset dy="4" in="SourceAlpha" result="shadowOffsetOuter1"/><feGaussianBlur in="shadowOffsetOuter1" result="shadowBlurOuter1" stdDeviation="2.5"/><feComposite in="shadowBlurOuter1" in2="SourceAlpha" operator="out" result="shadowBlurOuter1"/><feColorMatrix in="shadowBlurOuter1" values="0 0 0 0 0.0382115559 0 0 0 0 0.0425257639 0 0 0 0 0.0542357568 0 0 0 0.2 0"/></filter><path id="aQ" d="M196 93.52L223.45 109 250 94.52 222.45 79z"/><path id="aS" d="M234 148.68L261.45 165 288 149.68v-19.09L260.45 115 234 129.32z"/><filter id="aR" width="135.2%" height="138%" x="-17.6%" y="-11%" filterUnits="objectBoundingBox"><feOffset dy="4" in="SourceAlpha" result="shadowOffsetOuter1"/><feGaussianBlur in="shadowOffsetOuter1" result="shadowBlurOuter1" stdDeviation="2.5"/><feComposite in="shadowBlurOuter1" in2="SourceAlpha" operator="out" result="shadowBlurOuter1"/><feColorMatrix in="shadowBlurOuter1" values="0 0 0 0 0.0382115559 0 0 0 0 0.0425257639 0 0 0 0 0.0542357568 0 0 0 0.2 0"/></filter><path id="aT" d="M234 129.52L261.45 145 288 130.52 260.45 115z"/><path id="aV" d="M80 173.68L123.45 199 150 183.68v-19.09L106.45 139 80 154.32z"/><filter id="aU" width="127.1%" height="131.7%" x="-13.6%" y="-9.2%" filterUnits="objectBoundingBox"><feOffset dy="4" in="SourceAlpha" result="shadowOffsetOuter1"/><feGaussianBlur in="shadowOffsetOuter1" result="shadowBlurOuter1" stdDeviation="2.5"/><feComposite in="shadowBlurOuter1" in2="SourceAlpha" operator="out" result="shadowBlurOuter1"/><feColorMatrix in="shadowBlurOuter1" values="0 0 0 0 0.0382115559 0 0 0 0 0.0425257639 0 0 0 0 0.0542357568 0 0 0 0.2 0"/></filter><path id="aW" d="M80 154.52L123.45 180 150 164.52 106.45 139z"/><path id="aY" d="M0 123.67L43.45 149 87 123.67v-19.08L43.45 79 0 104.32z"/><filter id="aX" width="121.8%" height="127.1%" x="-10.9%" y="-7.9%" filterUnits="objectBoundingBox"><feOffset dy="4" in="SourceAlpha" result="shadowOffsetOuter1"/><feGaussianBlur in="shadowOffsetOuter1" result="shadowBlurOuter1" stdDeviation="2.5"/><feComposite in="shadowBlurOuter1" in2="SourceAlpha" operator="out" result="shadowBlurOuter1"/><feColorMatrix in="shadowBlurOuter1" values="0 0 0 0 0.0382115559 0 0 0 0 0.0425257639 0 0 0 0 0.0542357568 0 0 0 0.2 0"/></filter><path id="aZ" d="M0 104.52L43.45 130 87 104.52 43.45 79z"/></defs><g fill="none" fill-rule="evenodd"><g transform="translate(21.11 112.3)"><mask id="c" fill="#fff"><use xlink:href="#a"/></mask><use fill="url(#b)" xlink:href="#a"/><path stroke="#B3C8D6" stroke-opacity=".35" stroke-width="2" d="M359.9 413.49c7.92 4.58 7.9 4.56 16.14-.17L555.2 309.89l.05-.03c82.36-47.55 140.67-81.22 165.83-95.77 2.17-1.25 2.52-5.15-.03-6.62-24.46-14.14-66.53-38.1-178.05-101.5C431.48 42.57 389.41 18.6 364.94 4.47c-8.12-4.66-10.11-4.64-18.42.12-35.87 20.69-75.24 43.42-171.85 99.18-96.6 55.77-135.98 78.5-171.85 99.19-2.62 1.51-2.22 5.57.05 6.88a28900.5 28900.5 0 0 0 145.14 83.2l2.13 1.21A107351.1 107351.1 0 0 0 359.91 413.5z"/><g stroke="#B3C8D6" stroke-linecap="square" stroke-width=".2" mask="url(#c)" opacity=".3"><path d="M-155.67-73.48l971.19 560.7m-949.88-560.7l971.18 560.7M-371.03 50.89l971.18 560.7M60.83-198.5l971.18 560.71M79.9-198.49l971.18 560.7m-1618.2-198.1l971.17 560.71M-135.26-85.27l971.18 560.72M-351.76 39.75l971.18 560.71M80.1-209.63l971.18 560.72m-951-560.72l971.19 560.72m-1618.2-198.76l971.19 560.71M-116-96.39l971.18 560.7M-96.93-96.38l971.18 560.7M-331.36 27.98l971.18 560.71M99.37-220.75l971.18 560.7m-1598-198.75l971.18 560.71M-724 254.7l971.18 560.72M-94.48-106.4L876.7 454.3M-312.09 16.84l971.18 560.71M119.77-232.53l971.19 560.7M-508.2 130.08L463 690.8M-704.73 243.57l971.18 560.7M-77.45-119.3l971.2 560.7M-56.07-119.02L915.1 441.69m-1012.74-561l971.18 560.72M-292.82 5.71l971.18 560.72m-539.32-810.1l971.19 560.72m-1599.15-198.1l971.19 560.7m-1167.73-447.2l971.18 560.71M-57.05-130.43l971.18 560.71m-952.12-560.7l971.18 560.7M-272.4-6.07l971.17 560.71M158.31-254.79l971.19 560.71M-468.51 107.17l971.18 560.7m-1167.73-447.2l971.18 560.71m-343.9-922.93L933.4 419.16M-253.15-17.2l971.18 560.72M177.58-265.92l971.19 560.72M-449.24 96.04l971.18 560.71M-645.8 209.53l971.2 560.71M-17.38-153.34L953.8 407.38M1.68-153.34l971.19 560.72M-233.88-28.32L737.3 532.39M198-277.7l971.18 560.71M-429.97 84.91L541.2 645.62M-626.52 198.4l971.18 560.72M1.9-164.46l971.18 560.7M20.95-164.45l971.19 560.7M-213.48-40.1l971.19 560.7M217.26-288.81l971.18 560.7M-409.57 73.14l971.17 560.7M-606.12 186.62l971.19 560.71M21.16-175.59l971.18 560.71M40.22-175.59l971.19 560.71M-194.21-51.23l971.19 560.71M-175.14-51.23l971.18 560.71M236.52-299.95l971.19 560.71M-390.3 62l971.18 560.72M-586.85 175.5l971.19 560.7M40.43-186.71L1011.6 374m-951-560.7L1031.79 374M-174.94-62.36l971.19 560.71m-951-560.7l971.18 560.7m-559.5-810.08l971.18 560.71M295.47-333.99l971.18 560.72m-950.78-572.5l971.18 560.71M335.14-356.9l971.18 560.72M354.41-368.02l971.18 560.71M373.68-379.15l971.18 560.71m-950.78-572.5l971.18 560.72M276.2-322.86l971.18 560.71"/></g><g stroke="#B3C8D6" stroke-linecap="square" stroke-width=".2" mask="url(#c)" opacity=".3"><path d="M824.67-145.2L-297.28 501.95m908.93-770.14L-510.3 378.96m1548-401.17L-84.25 624.94M1055.64-22.21L-66.31 624.94m484.3-1004.93L-703.94 267.16M844.04-134.02L-277.91 513.13M631.02-257L-490.93 390.15m1548-401.18L-64.9 636.12M1076.12-11.03L-45.82 636.12M437.36-368.8L-684.59 278.34m1548-401.18L-258.54 524.31m908.92-770.14L-471.57 401.33M1076.43.15L-45.52 647.3M1095.49.15L-26.46 647.3M456.73-357.63L-665.22 289.52m1548-401.18L-239.19 535.5M962.22-66.84L-159.73 580.31m829.48-814.96L-452.2 412.51m1548-401.18L-26.17 658.48M476.1-346.45L-645.86 300.7m1548-401.18L-219.81 546.68m908.93-770.14L-432.83 423.69M1115.16 22.5L-6.8 669.66M495.46-335.27L-626.49 311.88m1548-401.18L-200.46 557.86m908.93-770.14L-413.47 434.87m1548-401.18L12.56 680.84M514.83-324.09L-607.12 323.06M940.87-78.12L-181.08 569.04M727.85-201.1L-394.1 446.05M1153.89 44.87L31.94 692.02M534.19-312.9L-587.76 334.24M963.85-139.95L-158.1 507.2m905.31-697.12L-374.74 457.23m1548-401.18L51.3 703.21M553.56-301.73L-568.4 345.42m1548-401.17L-142.35 591.4m908.93-770.14L-355.37 468.4M1192.62 67.23L70.67 714.4M572.92-290.55L-549.03 356.6m1548-401.17L-123 602.58M1018.03-44.57L-103.92 602.58M979.9-44.57L-142.05 602.58m928-770.14L-336.02 479.59M1212 78.41L90.04 725.57M592.29-279.37L-529.66 367.78M1018.33-33.39L-103.62 613.76M1037.39-33.39L-84.56 613.76m889.87-770.14L-316.64 490.77m1548-401.17L109.4 736.75m1160.68-624.8L148.13 759.12m1141.32-635.97L167.5 770.29m1141.3-635.97L186.86 781.47M1328.18 145.5L206.23 792.65m1141.31-635.97L225.6 803.83m1141.32-635.97L244.96 815.01m1005.76-714.23L128.77 747.93m269.86-1139.1L-723.32 255.97"/></g><g mask="url(#c)"><use fill="url(#b)" xlink:href="#d"/><path stroke="#B3C8D6" stroke-opacity=".35" stroke-width="2" d="M359.9 413.49c7.92 4.58 7.9 4.56 16.14-.17L555.2 309.89l.05-.03c82.36-47.55 140.67-81.22 165.83-95.77 2.17-1.25 2.52-5.15-.03-6.62-24.46-14.14-66.53-38.1-178.05-101.5C431.48 42.57 389.41 18.6 364.94 4.47c-8.12-4.66-10.11-4.64-18.42.12-35.87 20.69-75.24 43.42-171.85 99.18-96.6 55.77-135.98 78.5-171.85 99.19-2.62 1.51-2.22 5.57.05 6.88a28900.5 28900.5 0 0 0 145.14 83.2l2.13 1.21A107351.1 107351.1 0 0 0 359.91 413.5z"/></g></g><path fill="#000" fill-opacity=".2" d="M351.37 369.42c7.48 4.33 7.76 4.3 15.4-.08 6.8-3.93 180.39-104.54 237.68-137.66 2.13-1.23 3.2-5.58-.02-7.45-52.37-30.26-175.2-100.76-227.56-131.02-7.58-4.34-9.7-4.25-17.32.11-76.76 44.28-159.72 92.62-236.48 136.89-3.31 1.91-2.16 6.41.04 7.69 103.73 59.99 226.48 130.5 228.26 131.52z" filter="url(#e)" transform="translate(20.68 24.23)"/><g transform="translate(141.68 24.23)"><use fill="url(#f)" xlink:href="#g"/><path stroke="#4E99D8" stroke-width="2" d="M230.91 308.58c7.1 4.11 7.01 4.1 14.36-.1a435986 435986 0 0 1 127.73-74l.08-.05c51.35-29.75 88.87-51.47 109.87-63.61 1.87-1.08 2.17-4.46-.02-5.72-21.82-12.6-48.09-27.73-113.78-65.51-65.7-37.8-91.96-52.9-113.78-65.52-7.2-4.12-8.94-4.1-16.32.12a55545.57 55545.57 0 0 0-118.23 68.44c-59.9 34.73-86.26 50-118.25 68.45-2.26 1.3-1.91 4.82.04 5.95a61712 61712 0 0 0 41.58 24.02l1.4.81a103414.13 103414.13 0 0 0 185.32 106.72z"/><use fill="url(#h)" xlink:href="#i"/><path stroke="#D69405" stroke-width="2" d="M230.91 278.58c7.1 4.11 7.01 4.1 14.36-.1a435986 435986 0 0 1 127.73-74l.08-.05c51.35-29.75 88.87-51.47 109.87-63.61 1.87-1.08 2.17-4.46-.02-5.72-21.82-12.6-48.09-27.73-113.78-65.51A71404.4 71404.4 0 0 1 255.37 4.07c-7.2-4.12-8.94-4.1-16.32.12a55545.59 55545.59 0 0 0-118.23 68.44c-59.9 34.73-86.26 50-118.25 68.45-2.26 1.3-1.91 4.82.04 5.95a61712 61712 0 0 0 41.58 24.02l1.4.81a103414.13 103414.13 0 0 0 185.32 106.72z"/></g><g transform="translate(444.76 87.55)"><use fill="#000" filter="url(#j)" xlink:href="#k"/><use fill="url(#l)" xlink:href="#k"/><path stroke="#2DA9F1" d="M.5 84.39l42.95 25.03L86.5 84.4V25.88L43.45.58.5 25.6v58.8z"/><use fill="url(#m)" xlink:href="#n"/><path stroke="#2DA9F1" d="M.99 25.52l42.46 24.9L86 25.52 43.45.58.99 25.52zM44 51v58.64"/></g><g transform="translate(183.68 44.23)"><use fill="#000" filter="url(#o)" xlink:href="#p"/><use fill="#D5D3CF" fill-opacity=".01" xlink:href="#p"/><path stroke="#FCFFC7" d="M193.5 16.39l11.95 7.03 12.05-7.03V7.87L205.44.58 193.5 7.6v8.79z"/><use fill="#D5D3CF" fill-opacity=".01" xlink:href="#q"/><path stroke="#FCFFC7" d="M193.97 7.52l11.48 6.9 11.58-6.9L205.45.58l-11.48 6.94z"/><use fill="#000" filter="url(#r)" xlink:href="#s"/><use fill="#D5D3CF" fill-opacity=".01" xlink:href="#s"/><path stroke="#FCFFC7" d="M208.5 26.39l11.95 7.03 12.05-7.03v-8.52l-12.06-7.29-11.94 7.02v8.79z"/><use fill="#D5D3CF" fill-opacity=".01" xlink:href="#t"/><path stroke="#FCFFC7" d="M208.97 17.52l11.48 6.9 11.58-6.9-11.58-6.94-11.48 6.94z"/><use fill="#000" filter="url(#u)" xlink:href="#v"/><use fill="#D5D3CF" fill-opacity=".01" xlink:href="#v"/><path stroke="#DAC7FF" d="M177.5 26.39l11.95 7.03 12.05-7.03v-8.52l-12.06-7.29-11.94 7.02v8.79z"/><use fill="#D5D3CF" fill-opacity=".01" xlink:href="#w"/><path stroke="#DAC7FF" d="M177.97 17.52l11.48 6.9 11.58-6.9-11.58-6.94-11.48 6.94z"/><use fill="#000" filter="url(#x)" xlink:href="#y"/><use fill="#D5D3CF" fill-opacity=".01" xlink:href="#y"/><path stroke="#DAC7FF" d="M161.5 36.39l11.95 7.03 12.05-7.03v-8.52l-12.06-7.29-11.94 7.02v8.79z"/><use fill="#D5D3CF" fill-opacity=".01" xlink:href="#z"/><path stroke="#DAC7FF" d="M161.97 27.52l11.48 6.9 11.58-6.9-11.58-6.94-11.48 6.94z"/><use fill="#000" filter="url(#A)" xlink:href="#B"/><use fill="#D5D3CF" fill-opacity=".01" xlink:href="#B"/><path stroke="#DAC7FF" d="M145.5 46.39l11.95 7.03 12.05-7.03v-8.52l-12.06-7.29-11.94 7.02v8.79z"/><use fill="#D5D3CF" fill-opacity=".01" xlink:href="#C"/><path stroke="#DAC7FF" d="M145.97 37.52l11.48 6.9 11.58-6.9-11.58-6.94-11.48 6.94z"/><use fill="#000" filter="url(#D)" xlink:href="#E"/><use fill="#D5D3CF" fill-opacity=".01" xlink:href="#E"/><path stroke="#C7FFEC" d="M144.5 165.39l42.95 25.03 43.05-25.03v-8.51l-43.05-25.3-42.95 25.02v8.79z"/><use fill="#D5D3CF" fill-opacity=".01" xlink:href="#F"/><path stroke="#C7FFEC" d="M144.99 156.52l42.46 24.9 42.56-24.9-42.56-24.94-42.46 24.94z"/><use fill="#000" filter="url(#G)" xlink:href="#H"/><use fill="#D5D3CF" fill-opacity=".01" xlink:href="#H"/><path stroke="#C7FFEC" d="M308.5 168.39l11.95 7.03 12.05-7.03v-8.52l-12.06-7.29-11.94 7.02v8.79z"/><use fill="#D5D3CF" fill-opacity=".01" xlink:href="#I"/><path stroke="#C7FFEC" d="M308.97 159.52l11.48 6.9 11.58-6.9-11.58-6.94-11.48 6.94z"/><use fill="#000" filter="url(#J)" xlink:href="#K"/><use fill="#D5D3CF" fill-opacity=".01" xlink:href="#K"/><path stroke="#C7FFEC" d="M294.5 176.39l11.95 7.03 12.05-7.03v-8.52l-12.06-7.29-11.94 7.02v8.79z"/><use fill="#D5D3CF" fill-opacity=".01" xlink:href="#L"/><path stroke="#C7FFEC" d="M294.97 167.52l11.48 6.9 11.58-6.9-11.58-6.94-11.48 6.94z"/><use fill="#000" filter="url(#M)" xlink:href="#N"/><use fill="#D5D3CF" fill-opacity=".01" xlink:href="#N"/><path stroke="#C7FFEC" d="M264.5 175.39l11.95 7.03 12.05-7.03v-8.52l-12.06-7.29-11.94 7.02v8.79z"/><use fill="#D5D3CF" fill-opacity=".01" xlink:href="#O"/><path stroke="#C7FFEC" d="M264.97 166.52l11.48 6.9 11.58-6.9-11.58-6.94-11.48 6.94z"/><use fill="#000" filter="url(#P)" xlink:href="#Q"/><use fill="#D5D3CF" fill-opacity=".01" xlink:href="#Q"/><path stroke="#C7FFEC" d="M279.5 184.39l11.95 7.03 12.05-7.03v-8.52l-12.06-7.29-11.94 7.02v8.79z"/><use fill="#D5D3CF" fill-opacity=".01" xlink:href="#R"/><path stroke="#C7FFEC" d="M279.97 175.52l11.48 6.9 11.58-6.9-11.58-6.94-11.48 6.94z"/><use fill="#000" filter="url(#S)" xlink:href="#T"/><use fill="#D5D3CF" fill-opacity=".01" xlink:href="#T"/><path stroke="#DAC7FF" d="M234.5 175.39l42.95 25.03 12.05-7.03v-8.51l-43.05-25.3-11.95 7.02v8.79z"/><use fill="#D5D3CF" fill-opacity=".01" xlink:href="#U"/><path stroke="#DAC7FF" d="M234.98 166.51l42.47 24.9 11.57-6.89-42.57-24.94-11.47 6.93z"/><use fill="#000" filter="url(#V)" xlink:href="#W"/><use fill="#D5D3CF" fill-opacity=".01" xlink:href="#W"/><path stroke="#FCFFC7" d="M147.5 83.39l42.95 25.03L233.5 83.4V54.88l-43.05-25.3L147.5 54.6v28.8z"/><use fill="#D5D3CF" fill-opacity=".01" xlink:href="#X"/><path stroke="#FCFFC7" d="M147.99 54.52l42.46 24.9L233 54.52l-42.56-24.94-42.46 24.94z"/><use fill="#000" filter="url(#Y)" xlink:href="#Z"/><use fill="#D5D3CF" fill-opacity=".01" xlink:href="#Z"/><path stroke="#FCFFC7" d="M234.5 192.39l11.95 7.03 12.05-7.03v-8.52l-12.06-7.29-11.94 7.02v8.79z"/><use fill="#D5D3CF" fill-opacity=".01" xlink:href="#aa"/><path stroke="#FCFFC7" d="M234.97 183.52l11.48 6.9 11.58-6.9-11.58-6.94-11.48 6.94z"/><use fill="#000" filter="url(#ab)" xlink:href="#ac"/><use fill="#D5D3CF" fill-opacity=".01" xlink:href="#ac"/><path stroke="#FCFFC7" d="M249.5 202.39l11.95 7.03 12.05-7.03v-8.52l-12.06-7.29-11.94 7.02v8.79z"/><use fill="#D5D3CF" fill-opacity=".01" xlink:href="#ad"/><path stroke="#FCFFC7" d="M249.97 193.52l11.48 6.9 11.58-6.9-11.58-6.94-11.48 6.94z"/><use fill="#000" filter="url(#ae)" xlink:href="#af"/><use fill="#D5D3CF" fill-opacity=".01" xlink:href="#af"/><path stroke="#FCFFC7" d="M219.5 201.39l11.95 7.03 12.05-7.03v-8.52l-12.06-7.29-11.94 7.02v8.79z"/><use fill="#D5D3CF" fill-opacity=".01" xlink:href="#ag"/><path stroke="#FCFFC7" d="M219.97 192.52l11.48 6.9 11.58-6.9-11.58-6.94-11.48 6.94z"/><use fill="#000" filter="url(#ah)" xlink:href="#ai"/><use fill="#D5D3CF" fill-opacity=".01" xlink:href="#ai"/><path stroke="#FCFFC7" d="M234.5 211.39l11.95 7.03 12.05-7.03v-8.52l-12.06-7.29-11.94 7.02v8.79z"/><use fill="#D5D3CF" fill-opacity=".01" xlink:href="#aj"/><path stroke="#FCFFC7" d="M234.97 202.52l11.48 6.9 11.58-6.9-11.58-6.94-11.48 6.94z"/><use fill="#000" filter="url(#ak)" xlink:href="#al"/><use fill="#D5D3CF" fill-opacity=".01" xlink:href="#al"/><path stroke="#C7FFEC" d="M203.5 210.39l11.95 7.03 12.05-7.03v-8.52l-12.06-7.29-11.94 7.02v8.79z"/><use fill="#D5D3CF" fill-opacity=".01" xlink:href="#am"/><path stroke="#C7FFEC" d="M203.97 201.52l11.48 6.9 11.58-6.9-11.58-6.94-11.48 6.94z"/><use fill="#000" filter="url(#an)" xlink:href="#ao"/><use fill="#D5D3CF" fill-opacity=".01" xlink:href="#ao"/><path stroke="#C7FFEC" d="M187.5 219.39l11.95 7.03 12.05-7.03v-8.52l-12.06-7.29-11.94 7.02v8.79z"/><use fill="#D5D3CF" fill-opacity=".01" xlink:href="#ap"/><path stroke="#C7FFEC" d="M187.97 210.52l11.48 6.9 11.58-6.9-11.58-6.94-11.48 6.94z"/><use fill="#000" filter="url(#aq)" xlink:href="#ar"/><use fill="#D5D3CF" fill-opacity=".01" xlink:href="#ar"/><path stroke="#DAC7FF" d="M128.5 211.39l11.95 7.03 12.05-7.03v-8.52l-12.06-7.29-11.94 7.02v8.79z"/><use fill="#D5D3CF" fill-opacity=".01" xlink:href="#as"/><path stroke="#DAC7FF" d="M128.97 202.52l11.48 6.9 11.58-6.9-11.58-6.94-11.48 6.94z"/><use fill="#000" filter="url(#at)" xlink:href="#au"/><use fill="#D5D3CF" fill-opacity=".01" xlink:href="#au"/><path stroke="#C7FFEC" d="M153.5 112.39l11.95 7.03 12.05-7.03v-8.52l-12.06-7.29-11.94 7.02v8.79z"/><use fill="#D5D3CF" fill-opacity=".01" xlink:href="#av"/><path stroke="#C7FFEC" d="M153.97 103.52l11.48 6.9 11.58-6.9-11.58-6.94-11.48 6.94z"/><use fill="#000" filter="url(#aw)" xlink:href="#ax"/><use fill="#D5D3CF" fill-opacity=".01" xlink:href="#ax"/><path stroke="#C7FFEC" d="M168.5 122.39l11.95 7.03 12.05-7.03v-8.52l-12.06-7.29-11.94 7.02v8.79z"/><use fill="#D5D3CF" fill-opacity=".01" xlink:href="#ay"/><path stroke="#C7FFEC" d="M168.97 113.52l11.48 6.9 11.58-6.9-11.58-6.94-11.48 6.94z"/><use fill="#000" filter="url(#az)" xlink:href="#aA"/><use fill="#D5D3CF" fill-opacity=".01" xlink:href="#aA"/><path stroke="#C7FFEC" d="M149.5 128.39l11.95 7.03 12.05-7.03v-8.52l-12.06-7.29-11.94 7.02v8.79z"/><use fill="#D5D3CF" fill-opacity=".01" xlink:href="#aB"/><path stroke="#C7FFEC" d="M149.97 119.52l11.48 6.9 11.58-6.9-11.58-6.94-11.48 6.94z"/><use fill="#000" filter="url(#aC)" xlink:href="#aD"/><use fill="#D5D3CF" fill-opacity=".01" xlink:href="#aD"/><path stroke="#DAC7FF" d="M157.5 212.39l11.95 7.03 12.05-7.03v-8.52l-12.06-7.29-11.94 7.02v8.79z"/><use fill="#D5D3CF" fill-opacity=".01" xlink:href="#aE"/><path stroke="#DAC7FF" d="M157.97 203.52l11.48 6.9 11.58-6.9-11.58-6.94-11.48 6.94z"/><use fill="#000" filter="url(#aF)" xlink:href="#aG"/><use fill="#D5D3CF" fill-opacity=".01" xlink:href="#aG"/><path stroke="#C7FFEC" d="M203.5 228.39l11.95 7.03 12.05-7.03v-8.52l-12.06-7.29-11.94 7.02v8.79z"/><use fill="#D5D3CF" fill-opacity=".01" xlink:href="#aH"/><path stroke="#C7FFEC" d="M203.97 219.52l11.48 6.9 11.58-6.9-11.58-6.94-11.48 6.94z"/><use fill="#000" filter="url(#aI)" xlink:href="#aJ"/><use fill="#D5D3CF" fill-opacity=".01" xlink:href="#aJ"/><path stroke="#FCFFC7" d="M50.5 93.39l42.95 25.03L136.5 93.4V74.88l-43.05-25.3L50.5 74.6v18.8z"/><use fill="#D5D3CF" fill-opacity=".01" xlink:href="#aK"/><path stroke="#FCFFC7" d="M50.99 74.52l42.46 24.9L136 74.52 93.45 49.58 50.99 74.52z"/><use fill="#000" filter="url(#aL)" xlink:href="#aM"/><use fill="#D5D3CF" fill-opacity=".01" xlink:href="#aM"/><path stroke="#DAC7FF" d="M93.5 128.39l26.95 16.03 26.05-15.03v-18.5l-27.06-15.32-25.94 14.04v18.78z"/><use fill="#D5D3CF" fill-opacity=".01" xlink:href="#aN"/><path stroke="#DAC7FF" d="M94.03 109.52l26.42 14.9 25.52-13.9-26.53-14.95-25.41 13.95z"/><use fill="#000" filter="url(#aO)" xlink:href="#aP"/><use fill="#D5D3CF" fill-opacity=".01" xlink:href="#aP"/><path stroke="#FCFFC7" d="M196.5 112.39l26.95 16.03 26.05-15.03v-18.5l-27.06-15.32-25.94 14.04v18.78z"/><g><use fill="#D5D3CF" fill-opacity=".01" xlink:href="#aQ"/><path stroke="#FCFFC7" d="M197.03 93.52l26.42 14.9 25.52-13.9-26.53-14.95-25.41 13.95z"/></g><g><use fill="#000" filter="url(#aR)" xlink:href="#aS"/><use fill="#D5D3CF" fill-opacity=".01" xlink:href="#aS"/><path stroke="#FCFFC7" d="M234.5 148.39l26.95 16.03 26.05-15.03v-18.5l-27.06-15.32-25.94 14.04v18.78z"/></g><g><use fill="#D5D3CF" fill-opacity=".01" xlink:href="#aT"/><path stroke="#FCFFC7" d="M235.03 129.52l26.42 14.9 25.52-13.9-26.53-14.95-25.41 13.95z"/></g><g><use fill="#000" filter="url(#aU)" xlink:href="#aV"/><use fill="#D5D3CF" fill-opacity=".01" xlink:href="#aV"/><path stroke="#C7FFEC" d="M80.5 173.39l42.95 25.03 26.05-15.03v-18.51l-43.05-25.3L80.5 154.6v18.79z"/></g><g><use fill="#D5D3CF" fill-opacity=".01" xlink:href="#aW"/><path stroke="#C7FFEC" d="M80.99 154.52l42.46 24.9 25.56-14.9-42.56-24.94-25.46 14.94z"/></g><g><use fill="#000" filter="url(#aX)" xlink:href="#aY"/><use fill="#D5D3CF" fill-opacity=".01" xlink:href="#aY"/><path stroke="#FCFFC7" d="M.5 123.39l42.95 25.03L86.5 123.4v-18.51l-43.05-25.3L.5 104.6v18.79z"/></g><g><use fill="#D5D3CF" fill-opacity=".01" xlink:href="#aZ"/><path stroke="#FCFFC7" d="M.99 104.52l42.46 24.9L86 104.52 43.45 79.58.99 104.52z"/></g></g><g transform="translate(493.68 23.23)"><path stroke="#5A6385" stroke-linecap="round" stroke-linejoin="round" stroke-width="2" d="M147.15 238h-11.41L110 253.74M146.41 169H109m37.39-80h-37.41L68 114.6M146.6 23h-37.41L7 88.45"/><circle cx="108.5" cy="254.5" r="3.5" fill="#68739D"/><circle cx="108.5" cy="168.5" r="3.5" fill="#68739D"/><circle cx="67.5" cy="114.5" r="3.5" fill="#68739D"/><circle cx="3.5" cy="90.5" r="3.5" fill="#68739D"/><rect width="140" height="41" x="144" y="219" fill="#404760" rx="4"/><rect width="140" height="41" x="144" y="149" fill="#404760" rx="4"/><rect width="140" height="56" x="144" y="59" fill="#404760" rx="4"/><rect width="140" height="42" x="144" fill="#404760" rx="4"/><text fill="#FFF" style="font-family: GT-America, Roboto Light, sans-serif; font-weight: 400" font-size="10"><tspan x="153" y="237">AWS or Azure Account</tspan> <tspan x="153" y="249">(Yours or Ours)</tspan></text><text fill="#FFF" style="font-family: GT-America, Roboto Light, sans-serif; font-weight: 400" font-size="10"><tspan x="153" y="167">Datica K8s-enabled</tspan> <tspan x="153" y="179">Platform as a Service</tspan></text><text fill="#FFF" style="font-family: GT-America, Roboto Light, sans-serif; font-weight: 400" font-size="10"><tspan x="153" y="77">Datica Healthcare</tspan> <tspan x="153" y="89">Compliance Management</tspan> <tspan x="153" y="101">System and Dashboard</tspan></text><text fill="#FFF" style="font-family: GT-America, Roboto Light, sans-serif; font-weight: 400" font-size="11"><tspan x="154" y="18">Your containerized</tspan> <tspan x="154" y="31">application workloads</tspan></text></g></g></svg>