<svg xmlns="http://www.w3.org/2000/svg" xmlns:xlink="http://www.w3.org/1999/xlink" viewBox="0 0 990 369"><defs><linearGradient id="b" x1="9.27%" x2="49.13%" y1="50%" y2="92.5%"><stop offset="0%" stop-color="#FFF" stop-opacity=".09"/><stop offset="100%" stop-color="#FFF" stop-opacity="0"/></linearGradient><path id="a" d="M961.19 1108.34c22.45 13.02 23.28 12.92 46.21-.23 20.42-11.79 751.23-433.64 923.12-533 6.39-3.7 9.62-16.76-.07-22.36-157.12-90.8-795.63-452.34-952.76-543.13-22.73-13.01-29.07-12.75-51.95.34C695.44 142.8 236.52 407.84 6.22 540.68c-9.95 5.74-6.49 19.24.12 23.06 311.22 179.98 949.53 541.53 954.85 544.6z"/><linearGradient id="d" x1="9.27%" x2="49.13%" y1="50%" y2="92.5%"><stop offset="0%" stop-color="#CFB6FF" stop-opacity=".09"/><stop offset="100%" stop-color="#FFF" stop-opacity="0"/></linearGradient><path id="e" d="M961.19 1108.34c22.45 13.02 23.28 12.92 46.21-.23 20.42-11.79 751.23-433.64 923.12-533 6.39-3.7 9.62-16.76-.07-22.36-157.12-90.8-795.63-452.34-952.76-543.13-22.73-13.01-29.07-12.75-51.95.34C695.44 142.8 236.52 407.84 6.22 540.68c-9.95 5.74-6.49 19.24.12 23.06 311.22 179.98 949.53 541.53 954.85 544.6z"/><filter id="f" width="103%" height="105.1%" x="-1.5%" y="-2.6%" filterUnits="objectBoundingBox"><feGaussianBlur in="SourceGraphic" stdDeviation="4.72"/></filter><linearGradient id="g" x1="9.27%" x2="49.13%" y1="50%" y2="92.5%"><stop offset="0%" stop-color="#4B9EDE" stop-opacity=".25"/><stop offset="100%" stop-color="#097AA2" stop-opacity=".15"/></linearGradient><path id="h" d="M433.05 562.4c14.06 8.15 14.58 8.09 28.95-.15 12.79-7.39 339.08-196.5 446.77-258.75 4-2.32 6.03-10.5-.04-14-98.44-56.9-329.3-189.42-427.75-246.3-14.24-8.16-18.21-8-32.55.21C304.15 126.64 148.2 217.51 3.92 300.73c-6.24 3.6-4.07 12.05.07 14.44 194.98 112.77 425.72 245.3 429.06 247.22z"/><linearGradient id="i" x1="10.39%" x2="49.13%" y1="51.19%" y2="92.5%"><stop offset="0%" stop-color="#D69405" stop-opacity=".1"/><stop offset="100%" stop-color="#FF925E" stop-opacity=".15"/></linearGradient><path id="j" d="M434.23 498.54c13.35 7.75 13.84 7.69 27.48-.13 12.14-7.01 321.86-186.52 424.07-245.61 3.8-2.2 5.73-9.97-.03-13.3C792.3 185.52 573.17 59.72 479.73 5.73c-13.52-7.74-17.3-7.58-30.9.2-136.96 79-284.98 165.25-421.94 244.25-5.91 3.41-3.85 11.44.08 13.71 185.07 107.04 404.1 232.84 407.26 234.66z"/><path id="l" d="M0 151.08l77.52 45.19 77.71-45.19V45.66L77.52 0 0 45.17z"/><filter id="k" width="112.2%" height="109.7%" x="-6.1%" y="-2.8%" filterUnits="objectBoundingBox"><feOffset dy="4" in="SourceAlpha" result="shadowOffsetOuter1"/><feMorphology in="SourceAlpha" radius="1" result="shadowInner"/><feOffset dy="4" in="shadowInner" result="shadowInner"/><feComposite in="shadowOffsetOuter1" in2="shadowInner" operator="out" result="shadowOffsetOuter1"/><feGaussianBlur in="shadowOffsetOuter1" result="shadowBlurOuter1" stdDeviation="2.5"/><feColorMatrix in="shadowBlurOuter1" values="0 0 0 0 0.0382115559 0 0 0 0 0.0425257639 0 0 0 0 0.0542357568 0 0 0 0.2 0"/></filter><path id="n" d="M371.12 47.59l22.21 13.07 22.4-13.07v-16.2l-22.4-13.55-22.21 13.06z"/><filter id="m" width="142.6%" height="144.4%" x="-21.3%" y="-12.8%" filterUnits="objectBoundingBox"><feOffset dy="4" in="SourceAlpha" result="shadowOffsetOuter1"/><feGaussianBlur in="shadowOffsetOuter1" result="shadowBlurOuter1" stdDeviation="2.5"/><feComposite in="shadowBlurOuter1" in2="SourceAlpha" operator="out" result="shadowBlurOuter1"/><feColorMatrix in="shadowBlurOuter1" values="0 0 0 0 0.0382115559 0 0 0 0 0.0425257639 0 0 0 0 0.0542357568 0 0 0 0.2 0"/></filter><path id="p" d="M315.81 47.59l22.21 13.07 22.4-13.07v-16.2l-22.4-13.55-22.21 13.06z"/><filter id="o" width="142.6%" height="144.4%" x="-21.3%" y="-12.8%" filterUnits="objectBoundingBox"><feOffset dy="4" in="SourceAlpha" result="shadowOffsetOuter1"/><feGaussianBlur in="shadowOffsetOuter1" result="shadowBlurOuter1" stdDeviation="2.5"/><feComposite in="shadowBlurOuter1" in2="SourceAlpha" operator="out" result="shadowBlurOuter1"/><feColorMatrix in="shadowBlurOuter1" values="0 0 0 0 0.0382115559 0 0 0 0 0.0425257639 0 0 0 0 0.0542357568 0 0 0 0.2 0"/></filter><path id="r" d="M287.26 65.44l22.21 13.07 22.4-13.07V49.23l-22.4-13.54-22.21 13.05z"/><filter id="q" width="142.6%" height="144.4%" x="-21.3%" y="-12.8%" filterUnits="objectBoundingBox"><feOffset dy="4" in="SourceAlpha" result="shadowOffsetOuter1"/><feGaussianBlur in="shadowOffsetOuter1" result="shadowBlurOuter1" stdDeviation="2.5"/><feComposite in="shadowBlurOuter1" in2="SourceAlpha" operator="out" result="shadowBlurOuter1"/><feColorMatrix in="shadowBlurOuter1" values="0 0 0 0 0.0382115559 0 0 0 0 0.0425257639 0 0 0 0 0.0542357568 0 0 0 0.2 0"/></filter><path id="s" d="M287.26 49.1l22.21 13.35 22.4-13.35-22.4-13.41z"/><path id="u" d="M258.71 83.28l22.22 13.07 22.39-13.07v-16.2l-22.39-13.55-22.22 13.05z"/><filter id="t" width="142.6%" height="144.4%" x="-21.3%" y="-12.8%" filterUnits="objectBoundingBox"><feOffset dy="4" in="SourceAlpha" result="shadowOffsetOuter1"/><feGaussianBlur in="shadowOffsetOuter1" result="shadowBlurOuter1" stdDeviation="2.5"/><feComposite in="shadowBlurOuter1" in2="SourceAlpha" operator="out" result="shadowBlurOuter1"/><feColorMatrix in="shadowBlurOuter1" values="0 0 0 0 0.0382115559 0 0 0 0 0.0425257639 0 0 0 0 0.0542357568 0 0 0 0.2 0"/></filter><path id="v" d="M258.71 66.94l22.22 13.35 22.39-13.35-22.39-13.41z"/><path id="x" d="M256.93 295.6l77.52 45.19 77.71-45.19v-16.2l-77.71-45.66-77.52 45.17z"/><filter id="w" width="112.2%" height="117.7%" x="-6.1%" y="-5.1%" filterUnits="objectBoundingBox"><feOffset dy="4" in="SourceAlpha" result="shadowOffsetOuter1"/><feGaussianBlur in="shadowOffsetOuter1" result="shadowBlurOuter1" stdDeviation="2.5"/><feComposite in="shadowBlurOuter1" in2="SourceAlpha" operator="out" result="shadowBlurOuter1"/><feColorMatrix in="shadowBlurOuter1" values="0 0 0 0 0.0382115559 0 0 0 0 0.0425257639 0 0 0 0 0.0542357568 0 0 0 0.2 0"/></filter><path id="y" d="M256.93 279.27l77.52 45.46 77.71-45.46-77.71-45.53z"/><path id="A" d="M549.55 300.96l22.21 13.07 22.39-13.07v-16.21l-22.39-13.55-22.21 13.06z"/><filter id="z" width="142.6%" height="144.4%" x="-21.3%" y="-12.8%" filterUnits="objectBoundingBox"><feOffset dy="4" in="SourceAlpha" result="shadowOffsetOuter1"/><feGaussianBlur in="shadowOffsetOuter1" result="shadowBlurOuter1" stdDeviation="2.5"/><feComposite in="shadowBlurOuter1" in2="SourceAlpha" operator="out" result="shadowBlurOuter1"/><feColorMatrix in="shadowBlurOuter1" values="0 0 0 0 0.0382115559 0 0 0 0 0.0425257639 0 0 0 0 0.0542357568 0 0 0 0.2 0"/></filter><path id="B" d="M549.55 284.62l22.21 13.35 22.39-13.35-22.39-13.42z"/><path id="D" d="M524.57 315.23l22.21 13.07 22.39-13.07v-16.2l-22.39-13.55-22.21 13.05z"/><filter id="C" width="142.6%" height="144.4%" x="-21.3%" y="-12.8%" filterUnits="objectBoundingBox"><feOffset dy="4" in="SourceAlpha" result="shadowOffsetOuter1"/><feGaussianBlur in="shadowOffsetOuter1" result="shadowBlurOuter1" stdDeviation="2.5"/><feComposite in="shadowBlurOuter1" in2="SourceAlpha" operator="out" result="shadowBlurOuter1"/><feColorMatrix in="shadowBlurOuter1" values="0 0 0 0 0.0382115559 0 0 0 0 0.0425257639 0 0 0 0 0.0542357568 0 0 0 0.2 0"/></filter><path id="E" d="M524.57 298.89l22.21 13.35 22.39-13.35-22.39-13.41z"/><path id="G" d="M471.04 313.45l22.21 13.07 22.4-13.07v-16.21l-22.4-13.55-22.21 13.06z"/><filter id="F" width="142.6%" height="144.4%" x="-21.3%" y="-12.8%" filterUnits="objectBoundingBox"><feOffset dy="4" in="SourceAlpha" result="shadowOffsetOuter1"/><feGaussianBlur in="shadowOffsetOuter1" result="shadowBlurOuter1" stdDeviation="2.5"/><feComposite in="shadowBlurOuter1" in2="SourceAlpha" operator="out" result="shadowBlurOuter1"/><feColorMatrix in="shadowBlurOuter1" values="0 0 0 0 0.0382115559 0 0 0 0 0.0425257639 0 0 0 0 0.0542357568 0 0 0 0.2 0"/></filter><path id="H" d="M471.04 297.11l22.21 13.35 22.4-13.35-22.4-13.42z"/><path id="J" d="M497.8 329.5l22.21 13.07 22.4-13.07v-16.2l-22.4-13.55-22.21 13.06z"/><filter id="I" width="142.6%" height="144.4%" x="-21.3%" y="-12.8%" filterUnits="objectBoundingBox"><feOffset dy="4" in="SourceAlpha" result="shadowOffsetOuter1"/><feGaussianBlur in="shadowOffsetOuter1" result="shadowBlurOuter1" stdDeviation="2.5"/><feComposite in="shadowBlurOuter1" in2="SourceAlpha" operator="out" result="shadowBlurOuter1"/><feColorMatrix in="shadowBlurOuter1" values="0 0 0 0 0.0382115559 0 0 0 0 0.0425257639 0 0 0 0 0.0542357568 0 0 0 0.2 0"/></filter><path id="K" d="M497.8 313.17l22.21 13.35 22.4-13.35-22.4-13.42z"/><path id="M" d="M417.51 313.45l77.52 45.18 22.4-13.07v-16.2l-77.71-45.67-22.21 13.06z"/><filter id="L" width="119%" height="125.4%" x="-9.5%" y="-7.3%" filterUnits="objectBoundingBox"><feOffset dy="4" in="SourceAlpha" result="shadowOffsetOuter1"/><feGaussianBlur in="shadowOffsetOuter1" result="shadowBlurOuter1" stdDeviation="2.5"/><feComposite in="shadowBlurOuter1" in2="SourceAlpha" operator="out" result="shadowBlurOuter1"/><feColorMatrix in="shadowBlurOuter1" values="0 0 0 0 0.0382115559 0 0 0 0 0.0425257639 0 0 0 0 0.0542357568 0 0 0 0.2 0"/></filter><path id="N" d="M417.51 297.11l77.52 45.46 22.4-13.34-77.71-45.54z"/><path id="P" d="M262.28 149.3l77.53 45.18 77.7-45.18V97.41l-77.7-45.67-77.53 45.17z"/><filter id="O" width="112.2%" height="113.3%" x="-6.1%" y="-3.9%" filterUnits="objectBoundingBox"><feOffset dy="4" in="SourceAlpha" result="shadowOffsetOuter1"/><feGaussianBlur in="shadowOffsetOuter1" result="shadowBlurOuter1" stdDeviation="2.5"/><feComposite in="shadowBlurOuter1" in2="SourceAlpha" operator="out" result="shadowBlurOuter1"/><feColorMatrix in="shadowBlurOuter1" values="0 0 0 0 0.0382115559 0 0 0 0 0.0425257639 0 0 0 0 0.0542357568 0 0 0 0.2 0"/></filter><path id="Q" d="M262.28 97.28l77.53 45.46 77.7-45.46-77.7-45.54z"/><path id="S" d="M417.51 343.78l22.21 13.07 22.4-13.07v-16.21l-22.4-13.54-22.21 13.05z"/><filter id="R" width="142.6%" height="144.4%" x="-21.3%" y="-12.8%" filterUnits="objectBoundingBox"><feOffset dy="4" in="SourceAlpha" result="shadowOffsetOuter1"/><feGaussianBlur in="shadowOffsetOuter1" result="shadowBlurOuter1" stdDeviation="2.5"/><feComposite in="shadowBlurOuter1" in2="SourceAlpha" operator="out" result="shadowBlurOuter1"/><feColorMatrix in="shadowBlurOuter1" values="0 0 0 0 0.0382115559 0 0 0 0 0.0425257639 0 0 0 0 0.0542357568 0 0 0 0.2 0"/></filter><path id="T" d="M417.51 327.44l22.21 13.35 22.4-13.35-22.4-13.41z"/><path id="V" d="M444.28 361.62l22.21 13.07 22.39-13.07v-16.2l-22.39-13.55-22.21 13.05z"/><filter id="U" width="142.6%" height="144.4%" x="-21.3%" y="-12.8%" filterUnits="objectBoundingBox"><feOffset dy="4" in="SourceAlpha" result="shadowOffsetOuter1"/><feGaussianBlur in="shadowOffsetOuter1" result="shadowBlurOuter1" stdDeviation="2.5"/><feComposite in="shadowBlurOuter1" in2="SourceAlpha" operator="out" result="shadowBlurOuter1"/><feColorMatrix in="shadowBlurOuter1" values="0 0 0 0 0.0382115559 0 0 0 0 0.0425257639 0 0 0 0 0.0542357568 0 0 0 0.2 0"/></filter><path id="W" d="M444.28 345.28l22.21 13.35 22.39-13.35-22.39-13.41z"/><path id="Y" d="M390.75 359.84l22.21 13.07 22.4-13.07v-16.21l-22.4-13.55-22.21 13.06z"/><filter id="X" width="142.6%" height="144.4%" x="-21.3%" y="-12.8%" filterUnits="objectBoundingBox"><feOffset dy="4" in="SourceAlpha" result="shadowOffsetOuter1"/><feGaussianBlur in="shadowOffsetOuter1" result="shadowBlurOuter1" stdDeviation="2.5"/><feComposite in="shadowBlurOuter1" in2="SourceAlpha" operator="out" result="shadowBlurOuter1"/><feColorMatrix in="shadowBlurOuter1" values="0 0 0 0 0.0382115559 0 0 0 0 0.0425257639 0 0 0 0 0.0542357568 0 0 0 0.2 0"/></filter><path id="Z" d="M390.75 343.5l22.21 13.35 22.4-13.35-22.4-13.42z"/><path id="ab" d="M417.51 377.68l22.21 13.07 22.4-13.07v-16.2l-22.4-13.55-22.21 13.05z"/><filter id="aa" width="142.6%" height="144.4%" x="-21.3%" y="-12.8%" filterUnits="objectBoundingBox"><feOffset dy="4" in="SourceAlpha" result="shadowOffsetOuter1"/><feGaussianBlur in="shadowOffsetOuter1" result="shadowBlurOuter1" stdDeviation="2.5"/><feComposite in="shadowBlurOuter1" in2="SourceAlpha" operator="out" result="shadowBlurOuter1"/><feColorMatrix in="shadowBlurOuter1" values="0 0 0 0 0.0382115559 0 0 0 0 0.0425257639 0 0 0 0 0.0542357568 0 0 0 0.2 0"/></filter><path id="ac" d="M417.51 361.34l22.21 13.35 22.4-13.35-22.4-13.41z"/><path id="ae" d="M362.2 375.89l22.21 13.07 22.4-13.07v-16.2l-22.4-13.55-22.21 13.06z"/><filter id="ad" width="142.6%" height="144.4%" x="-21.3%" y="-12.8%" filterUnits="objectBoundingBox"><feOffset dy="4" in="SourceAlpha" result="shadowOffsetOuter1"/><feGaussianBlur in="shadowOffsetOuter1" result="shadowBlurOuter1" stdDeviation="2.5"/><feComposite in="shadowBlurOuter1" in2="SourceAlpha" operator="out" result="shadowBlurOuter1"/><feColorMatrix in="shadowBlurOuter1" values="0 0 0 0 0.0382115559 0 0 0 0 0.0425257639 0 0 0 0 0.0542357568 0 0 0 0.2 0"/></filter><path id="af" d="M362.2 359.56l22.21 13.35 22.4-13.35-22.4-13.42z"/><path id="ah" d="M333.65 391.95l22.21 13.07 22.4-13.07v-16.2l-22.4-13.55-22.21 13.05z"/><filter id="ag" width="142.6%" height="144.4%" x="-21.3%" y="-12.8%" filterUnits="objectBoundingBox"><feOffset dy="4" in="SourceAlpha" result="shadowOffsetOuter1"/><feGaussianBlur in="shadowOffsetOuter1" result="shadowBlurOuter1" stdDeviation="2.5"/><feComposite in="shadowBlurOuter1" in2="SourceAlpha" operator="out" result="shadowBlurOuter1"/><feColorMatrix in="shadowBlurOuter1" values="0 0 0 0 0.0382115559 0 0 0 0 0.0425257639 0 0 0 0 0.0542357568 0 0 0 0.2 0"/></filter><path id="ai" d="M333.65 375.62l22.21 13.34 22.4-13.34-22.4-13.42z"/><path id="ak" d="M228.38 377.68l22.21 13.07 22.4-13.07v-16.2l-22.4-13.55-22.21 13.05z"/><filter id="aj" width="142.6%" height="144.4%" x="-21.3%" y="-12.8%" filterUnits="objectBoundingBox"><feOffset dy="4" in="SourceAlpha" result="shadowOffsetOuter1"/><feGaussianBlur in="shadowOffsetOuter1" result="shadowBlurOuter1" stdDeviation="2.5"/><feComposite in="shadowBlurOuter1" in2="SourceAlpha" operator="out" result="shadowBlurOuter1"/><feColorMatrix in="shadowBlurOuter1" values="0 0 0 0 0.0382115559 0 0 0 0 0.0425257639 0 0 0 0 0.0542357568 0 0 0 0.2 0"/></filter><path id="al" d="M228.38 361.34l22.21 13.35 22.4-13.35-22.4-13.41z"/><path id="an" d="M272.99 201.04l22.21 13.07 22.4-13.07v-16.2l-22.4-13.55-22.21 13.05z"/><filter id="am" width="142.6%" height="144.4%" x="-21.3%" y="-12.8%" filterUnits="objectBoundingBox"><feOffset dy="4" in="SourceAlpha" result="shadowOffsetOuter1"/><feGaussianBlur in="shadowOffsetOuter1" result="shadowBlurOuter1" stdDeviation="2.5"/><feComposite in="shadowBlurOuter1" in2="SourceAlpha" operator="out" result="shadowBlurOuter1"/><feColorMatrix in="shadowBlurOuter1" values="0 0 0 0 0.0382115559 0 0 0 0 0.0425257639 0 0 0 0 0.0542357568 0 0 0 0.2 0"/></filter><path id="ao" d="M272.99 184.7l22.21 13.35 22.4-13.35-22.4-13.41z"/><path id="aq" d="M299.75 218.88l22.21 13.07 22.4-13.07v-16.2l-22.4-13.55-22.21 13.05z"/><filter id="ap" width="142.6%" height="144.4%" x="-21.3%" y="-12.8%" filterUnits="objectBoundingBox"><feOffset dy="4" in="SourceAlpha" result="shadowOffsetOuter1"/><feGaussianBlur in="shadowOffsetOuter1" result="shadowBlurOuter1" stdDeviation="2.5"/><feComposite in="shadowBlurOuter1" in2="SourceAlpha" operator="out" result="shadowBlurOuter1"/><feColorMatrix in="shadowBlurOuter1" values="0 0 0 0 0.0382115559 0 0 0 0 0.0425257639 0 0 0 0 0.0542357568 0 0 0 0.2 0"/></filter><path id="ar" d="M299.75 202.54l22.21 13.35 22.4-13.35-22.4-13.41z"/><path id="at" d="M265.85 229.59l22.21 13.07 22.4-13.07v-16.21l-22.4-13.54-22.21 13.05z"/><filter id="as" width="142.6%" height="144.4%" x="-21.3%" y="-12.8%" filterUnits="objectBoundingBox"><feOffset dy="4" in="SourceAlpha" result="shadowOffsetOuter1"/><feGaussianBlur in="shadowOffsetOuter1" result="shadowBlurOuter1" stdDeviation="2.5"/><feComposite in="shadowBlurOuter1" in2="SourceAlpha" operator="out" result="shadowBlurOuter1"/><feColorMatrix in="shadowBlurOuter1" values="0 0 0 0 0.0382115559 0 0 0 0 0.0425257639 0 0 0 0 0.0542357568 0 0 0 0.2 0"/></filter><path id="au" d="M265.85 213.25l22.21 13.35 22.4-13.35-22.4-13.41z"/><path id="aw" d="M280.13 379.46l22.21 13.07 22.39-13.07v-16.2l-22.39-13.55-22.21 13.05z"/><filter id="av" width="142.6%" height="144.4%" x="-21.3%" y="-12.8%" filterUnits="objectBoundingBox"><feOffset dy="4" in="SourceAlpha" result="shadowOffsetOuter1"/><feGaussianBlur in="shadowOffsetOuter1" result="shadowBlurOuter1" stdDeviation="2.5"/><feComposite in="shadowBlurOuter1" in2="SourceAlpha" operator="out" result="shadowBlurOuter1"/><feColorMatrix in="shadowBlurOuter1" values="0 0 0 0 0.0382115559 0 0 0 0 0.0425257639 0 0 0 0 0.0542357568 0 0 0 0.2 0"/></filter><path id="ax" d="M280.13 363.13l22.21 13.35 22.39-13.35-22.39-13.42z"/><path id="az" d="M362.2 408.01l22.21 13.07 22.4-13.07v-16.2l-22.4-13.55-22.21 13.05z"/><filter id="ay" width="142.6%" height="144.4%" x="-21.3%" y="-12.8%" filterUnits="objectBoundingBox"><feOffset dy="4" in="SourceAlpha" result="shadowOffsetOuter1"/><feGaussianBlur in="shadowOffsetOuter1" result="shadowBlurOuter1" stdDeviation="2.5"/><feComposite in="shadowBlurOuter1" in2="SourceAlpha" operator="out" result="shadowBlurOuter1"/><feColorMatrix in="shadowBlurOuter1" values="0 0 0 0 0.0382115559 0 0 0 0 0.0425257639 0 0 0 0 0.0542357568 0 0 0 0.2 0"/></filter><path id="aA" d="M362.2 391.68l22.21 13.34 22.4-13.34-22.4-13.42z"/><path id="aC" d="M89.21 167.14l77.52 45.18 77.71-45.18v-34.05l-77.71-45.66-77.52 45.17z"/><filter id="aB" width="112.2%" height="115.2%" x="-6.1%" y="-4.4%" filterUnits="objectBoundingBox"><feOffset dy="4" in="SourceAlpha" result="shadowOffsetOuter1"/><feGaussianBlur in="shadowOffsetOuter1" result="shadowBlurOuter1" stdDeviation="2.5"/><feComposite in="shadowBlurOuter1" in2="SourceAlpha" operator="out" result="shadowBlurOuter1"/><feColorMatrix in="shadowBlurOuter1" values="0 0 0 0 0.0382115559 0 0 0 0 0.0425257639 0 0 0 0 0.0542357568 0 0 0 0.2 0"/></filter><path id="aD" d="M89.21 132.96l77.52 45.46 77.71-45.46-77.71-45.53z"/><path id="aF" d="M165.94 229.59l48.97 29.12 47.37-27.34v-34.05l-49.16-27.82-47.18 25.55z"/><filter id="aE" width="119.7%" height="121.3%" x="-9.9%" y="-6.2%" filterUnits="objectBoundingBox"><feOffset dy="4" in="SourceAlpha" result="shadowOffsetOuter1"/><feGaussianBlur in="shadowOffsetOuter1" result="shadowBlurOuter1" stdDeviation="2.5"/><feComposite in="shadowBlurOuter1" in2="SourceAlpha" operator="out" result="shadowBlurOuter1"/><feColorMatrix in="shadowBlurOuter1" values="0 0 0 0 0.0382115559 0 0 0 0 0.0425257639 0 0 0 0 0.0542357568 0 0 0 0.2 0"/></filter><path id="aG" d="M165.94 195.41l48.97 27.62 47.37-25.84-49.16-27.69z"/><path id="aI" d="M349.71 201.04l48.98 29.13 47.37-27.35v-34.04l-49.16-27.82-47.19 25.54z"/><filter id="aH" width="119.7%" height="121.3%" x="-9.9%" y="-6.2%" filterUnits="objectBoundingBox"><feOffset dy="4" in="SourceAlpha" result="shadowOffsetOuter1"/><feGaussianBlur in="shadowOffsetOuter1" result="shadowBlurOuter1" stdDeviation="2.5"/><feComposite in="shadowBlurOuter1" in2="SourceAlpha" operator="out" result="shadowBlurOuter1"/><feColorMatrix in="shadowBlurOuter1" values="0 0 0 0 0.0382115559 0 0 0 0 0.0425257639 0 0 0 0 0.0542357568 0 0 0 0.2 0"/></filter><path id="aJ" d="M349.71 166.86l48.98 27.62 47.37-25.84-49.16-27.68z"/><path id="aL" d="M417.51 265.27l48.98 29.13 47.37-27.34v-34.05l-49.16-27.82-47.19 25.54z"/><filter id="aK" width="119.7%" height="121.3%" x="-9.9%" y="-6.2%" filterUnits="objectBoundingBox"><feOffset dy="4" in="SourceAlpha" result="shadowOffsetOuter1"/><feGaussianBlur in="shadowOffsetOuter1" result="shadowBlurOuter1" stdDeviation="2.5"/><feComposite in="shadowBlurOuter1" in2="SourceAlpha" operator="out" result="shadowBlurOuter1"/><feColorMatrix in="shadowBlurOuter1" values="0 0 0 0 0.0382115559 0 0 0 0 0.0425257639 0 0 0 0 0.0542357568 0 0 0 0.2 0"/></filter><path id="aM" d="M417.51 231.09l48.98 27.62 47.37-25.83-49.16-27.69z"/><path id="aO" d="M142.74 309.88l77.52 45.18 47.38-27.34v-34.05l-77.71-45.66-47.19 27.33z"/><filter id="aN" width="115.2%" height="117.7%" x="-7.6%" y="-5.1%" filterUnits="objectBoundingBox"><feOffset dy="4" in="SourceAlpha" result="shadowOffsetOuter1"/><feGaussianBlur in="shadowOffsetOuter1" result="shadowBlurOuter1" stdDeviation="2.5"/><feComposite in="shadowBlurOuter1" in2="SourceAlpha" operator="out" result="shadowBlurOuter1"/><feColorMatrix in="shadowBlurOuter1" values="0 0 0 0 0.0382115559 0 0 0 0 0.0425257639 0 0 0 0 0.0542357568 0 0 0 0.2 0"/></filter><path id="aP" d="M142.74 275.7l77.52 45.46 47.38-27.62-77.71-45.53z"/><path id="aR" d="M0 220.66l77.52 45.19 77.71-45.19v-34.04l-77.71-45.66L0 186.13z"/><filter id="aQ" width="112.2%" height="115.2%" x="-6.1%" y="-4.4%" filterUnits="objectBoundingBox"><feOffset dy="4" in="SourceAlpha" result="shadowOffsetOuter1"/><feGaussianBlur in="shadowOffsetOuter1" result="shadowBlurOuter1" stdDeviation="2.5"/><feComposite in="shadowBlurOuter1" in2="SourceAlpha" operator="out" result="shadowBlurOuter1"/><feColorMatrix in="shadowBlurOuter1" values="0 0 0 0 0.0382115559 0 0 0 0 0.0425257639 0 0 0 0 0.0542357568 0 0 0 0.2 0"/></filter><path id="aS" d="M0 186.49l77.52 45.46 77.71-45.46-77.71-45.53z"/></defs><g style="mix-blend-mode:lighten" fill="none" fill-rule="evenodd" opacity=".42"><g opacity=".66" transform="translate(-359.63 5.8)"><mask id="c" fill="#fff"><use xlink:href="#a"/></mask><use fill="url(#b)" xlink:href="#a"/><path stroke="#B3C8D6" stroke-opacity=".25" stroke-width="2" d="M962.05 1107.69c21.7 12.58 22.27 12.5 44.85-.44l479.31-276.7.14-.09a1166860.2 1166860.2 0 0 0 443.67-256.22c2.9-1.68 5.13-5.57 5.5-9.69.4-4.55-1.45-8.56-5.57-10.93-65.47-37.83-178.01-101.94-476.37-271.57C1155.2 112.42 1042.66 48.32 977.2 10.5c-22.25-12.74-28.22-12.68-50.96.34-95.96 55.35-201.3 116.15-459.76 265.36-258.46 149.2-363.8 210-459.76 265.36-4.23 2.44-6.12 6.57-5.65 11.28.41 4.26 2.76 8.3 5.77 10.04 95.81 55.41 228.17 131.24 388.32 222.58l5.7 3.24c203.72 116.18 569.72 323.98 561.2 319z"/><g stroke="#B3C8D6" stroke-linecap="square" stroke-width=".2" mask="url(#c)" opacity=".3"><path d="M-416.47-196.6l2598.3 1500.13M-359.47-196.6l2598.3 1500.13M-992.65 136.11l2598.3 1500.14M162.75-531.07l2598.3 1500.14M213.76-531.07L2812.07 969.07M-361.88-228.12l2598.3 1500.13M-941.11 106.34l2598.3 1500.14M214.32-560.83L2812.6 939.3M268.3-560.83L2866.61 939.3M-310.33-257.9l2598.3 1500.13M-259.33-257.89l2598.3 1500.13M-886.51 74.82l2598.3 1500.14M265.86-590.6l2598.3 1500.13M-252.78-284.66l2598.3 1500.13M-834.96 45.06l2598.3 1500.13M320.46-622.12L2918.75 878M-1359.6 348l2598.3 1500.12M-207.2-319.17l2598.31 1500.12M-150-318.43L2448.3 1181.7M-261.2-319.18l2598.3 1500.13M-783.4 15.3l2598.3 1500.13M372-651.9L2970.3 848.24m-4278.35-530l2598.3 1500.12M-152.63-348.94l2598.3 1500.12M-101.63-348.95l2598.31 1500.13M-728.83-16.23l2598.3 1500.13M423.56-681.66l2598.3 1500.13M-1253.45 286.7l2598.3 1500.13M-101.08-378.72l2598.3 1500.13M-677.28-46l2598.31 1500.13M475.11-711.43L3073.4 788.7m-4275.3-531.76l2598.3 1500.13M-46.5-410.23l2598.3 1500.12M4.5-410.24L2602.82 1089.9M-625.72-75.77l2598.3 1500.13M529.7-742.95L3128 757.18m-4278.34-530l2598.3 1500.12M5.05-440l2598.31 1500.12M56.06-440l2598.3 1500.13M-571.13-107.29l2598.31 1500.13M581.25-772.72L3179.55 727.4m-4275.32-531.76l2598.3 1500.13M56.62-469.78l2598.3 1500.14M107.62-469.78l2598.3 1500.14M-519.57-137.06l2598.3 1500.13M-468.57-137.06l2598.31 1500.13M632.8-802.49L3231.1 697.64m-4275.3-531.76l2598.3 1500.13M108.16-499.55l2598.3 1500.14M162.18-499.55l2598.3 1500.14M-468.03-166.83l2598.3 1500.13M-414.01-166.83l2598.3 1500.13M687.38-834L3285.7 666.12M790.5-893.55L3388.8 606.58M845.1-925.07L3443.4 575.06M896.62-954.84L3494.93 545.3M948.2-984.6L3546.5 515.53M999.74-1014.38l2598.3 1500.13M1054.34-1045.9l2598.3 1500.13M738.94-863.78l2598.3 1500.13"/></g><g stroke="#B3C8D6" stroke-linecap="square" stroke-width=".2" mask="url(#c)" opacity=".3"><path d="M2206.33-388.47l-3001.66 1731.4M1636.42-717.51l-3001.67 1731.4M2776.25-59.43L-225.4 1671.97M2824.26-59.43l-3001.67 1731.4m1295.72-2688.6L-1883.36 714.74m4141.5-1073.3l-3001.65 1731.4M1688.23-687.6l-3001.67 1731.4M2828.06-29.51L-173.6 1701.88M2879.07-29.52L-122.6 1701.89m1292.72-2688.6L-1831.54 744.67m4141.5-1073.31l-3001.67 1731.4M1740.04-657.69L-1261.63 1073.7M2879.87.4L-121.79 1731.78M2930.88.4L-70.8 1731.8M1221.93-956.82l-3001.66 1731.4m4141.5-1073.32L-639.9 1432.67m3214.22-1611.5l-3001.66 1731.4M1791.85-627.77l-3001.67 1731.4M2931.68 30.3L-69.98 1761.71M1273.74-926.9L-1727.92 804.48m4141.5-1073.3L-588.1 1462.57M1843.66-597.86l-3001.67 1731.4M2983.5 60.23L-18.17 1791.62m1343.72-2688.6L-1676.1 834.4M2465.39-238.9L-536.28 1492.49M1895.47-567.94L-1106.2 1163.45M3035.3 90.14L33.65 1821.54M1377.36-867.08L-1624.3 864.32m4141.5-1073.3L-484.47 1522.4M1947.28-538.03l-3001.67 1731.4m4141.5-1073.32L85.46 1851.45M1429.18-837.17L-1572.5 894.24M2578.69-374.43l-3001.67 1731.4M1999.1-508.12l-3001.66 1731.4m4141.5-1073.31L137.26 1881.36m1343.73-2688.6L-1520.68 924.13m4141.5-1073.3l-3001.67 1731.4M2050.9-478.21L-950.76 1253.2m4141.5-1073.31L189.07 1911.27M1532.8-777.33L-1468.87 954.06m4141.5-1073.31l-3001.67 1731.4m3052.68-1731.4l-3001.67 1731.4m2899.66-1731.4l-3001.67 1731.4M2102.7-448.3L-898.95 1283.1m4141.5-1073.3L240.88 1941.17m1343.73-2688.6l-3001.67 1731.4M2724.44-89.35l-3001.67 1731.4M2775.45-89.35l-3001.67 1731.4M2154.52-418.39l-3001.66 1731.4M3294.36 239.7L292.69 1971.1M3397.98 299.53L396.31 2030.93M3449.8 329.43L448.12 2060.84M3501.6 359.35L499.93 2090.75M3553.41 389.27L551.74 2120.67m3053.48-1701.5L603.56 2150.58m3053.47-1701.5L655.37 2180.5m2690.8-1910.87L344.5 2001m722-3047.56l-3001.67 1731.4"/></g><g mask="url(#c)"><use fill="url(#d)" xlink:href="#e"/><path stroke="#B3C8D6" stroke-opacity=".21" stroke-width="2" d="M962.05 1107.69c21.7 12.58 22.27 12.5 44.85-.44l479.31-276.7.14-.09a1166860.2 1166860.2 0 0 0 443.67-256.22c2.9-1.68 5.13-5.57 5.5-9.69.4-4.55-1.45-8.56-5.57-10.93-65.47-37.83-178.01-101.94-476.37-271.57C1155.2 112.42 1042.66 48.32 977.2 10.5c-22.25-12.74-28.22-12.68-50.96.34-95.96 55.35-201.3 116.15-459.76 265.36-258.46 149.2-363.8 210-459.76 265.36-4.23 2.44-6.12 6.57-5.65 11.28.41 4.26 2.76 8.3 5.77 10.04 95.81 55.41 228.17 131.24 388.32 222.58l5.7 3.24c203.72 116.18 569.72 323.98 561.2 319z"/></g></g><path style="mix-blend-mode:multiply" fill="#0C0E12" fill-opacity=".67" d="M892.9 686.5c14.66 8.51 15.2 8.45 30.18-.14 13.34-7.7 353.55-204.88 465.83-269.8 4.18-2.4 6.29-10.94-.04-14.6-102.64-59.3-343.36-197.49-446-256.8-14.84-8.5-19-8.33-33.93.22-150.45 86.78-313.04 181.52-463.49 268.3-6.5 3.75-4.23 12.56.08 15.06C648.83 546.32 889.42 684.5 892.9 686.5z" filter="url(#f)" opacity=".39" transform="translate(-360.26 -87.53)"/><g style="mix-blend-mode:screen" opacity=".45" transform="translate(100.58 -87.27)"><use fill="url(#g)" xlink:href="#h"/><path stroke="#4E99D8" stroke-width="2" d="M433.63 561.58c13.62 7.9 13.79 7.88 27.87-.2l240.1-139.1.15-.09c96.52-55.9 167.05-96.74 206.52-119.56 4.06-2.35 4.7-9.53-.04-12.27-41.02-23.7-90.39-52.12-213.87-123.15A134229.24 134229.24 0 0 1 480.49 44.06c-13.83-7.91-17.42-7.87-31.56.22-60.12 34.67-109.67 63.37-222.25 128.65A104412.06 104412.06 0 0 1 4.42 301.6c-4.89 2.82-4.15 10.27.07 12.72A115998.31 115998.31 0 0 0 85.29 361a194391.94 194391.94 0 0 0 348.34 200.59z"/><use fill="url(#i)" xlink:href="#j"/><path stroke="#D69405" stroke-width="2" d="M434.8 497.73c12.92 7.48 13.06 7.47 26.41-.19l227.9-132.03.15-.09c91.61-53.07 158.56-91.83 196.02-113.49 3.83-2.2 4.43-8.98-.03-11.56-38.94-22.5-85.8-49.47-203.01-116.9a127410.6 127410.6 0 0 1-203-116.88c-13.12-7.5-16.5-7.47-29.9.2a99106.96 99106.96 0 0 0-210.97 122.12A99108.51 99108.51 0 0 1 27.39 251.04c-4.6 2.65-3.9 9.67.08 11.98a110113.22 110113.22 0 0 0 76.69 44.3 184516.47 184516.47 0 0 0 330.65 190.4z"/></g><g style="mix-blend-mode:screen" opacity=".84" transform="translate(664.54 25.7)"><use fill="#000" filter="url(#k)" xlink:href="#l"/><path stroke="#2DA9F1" d="M.5 150.8l77.02 44.89 77.2-44.9V45.95L77.53.58.5 45.46v105.33z"/><path stroke="#2DA9F1" d="M.99 45.53l76.53 44.89 76.72-44.89L77.52.58 1 45.53zM78.5 91v104.62"/></g><g style="mix-blend-mode:lighten" opacity=".51" transform="translate(198.71 -51.58)"><use fill="#000" filter="url(#m)" xlink:href="#n"/><use fill="#373633" fill-opacity="0" xlink:href="#n"/><path stroke="#FCFFC7" d="M371.62 47.3l21.71 12.78 21.9-12.77V31.67l-21.9-13.25-21.7 12.76v16.13z"/><use fill="#000" filter="url(#o)" xlink:href="#p"/><use fill="#373633" fill-opacity="0" xlink:href="#p"/><path stroke="#DAC7FF" d="M316.31 47.3l21.71 12.78 21.9-12.77V31.67l-21.9-13.25-21.7 12.76v16.13z"/><use fill="#000" filter="url(#q)" xlink:href="#r"/><use fill="#373633" fill-opacity="0" xlink:href="#r"/><path stroke="#DAC7FF" d="M287.76 65.15l21.71 12.78 21.9-12.78V49.5l-21.9-13.24-21.7 12.75v16.13z"/><use fill="#373633" fill-opacity="0" xlink:href="#s"/><path stroke="#DAC7FF" d="M288.23 49.1l21.24 12.77L330.9 49.1l-21.42-12.83-21.24 12.83z"/><use fill="#000" filter="url(#t)" xlink:href="#u"/><use fill="#373633" fill-opacity="0" xlink:href="#u"/><path stroke="#DAC7FF" d="M259.22 83l21.7 12.77 21.9-12.78V67.36l-21.9-13.25-21.7 12.76v16.12z"/><use fill="#373633" fill-opacity="0" xlink:href="#v"/><path stroke="#DAC7FF" d="M259.68 66.94l21.25 12.77 21.42-12.77-21.42-12.83-21.25 12.83z"/><use fill="#000" filter="url(#w)" xlink:href="#x"/><use fill="#373633" fill-opacity="0" xlink:href="#x"/><path stroke="#C7FFEC" d="M257.43 295.32l77.02 44.9 77.21-44.9v-15.63l-77.2-45.37-77.03 44.87v16.13z"/><use fill="#373633" fill-opacity="0" xlink:href="#y"/><path stroke="#C7FFEC" d="M257.92 279.27l76.53 44.88 76.72-44.88-76.72-44.95-76.53 44.95z"/><use fill="#000" filter="url(#z)" xlink:href="#A"/><use fill="#373633" fill-opacity="0" xlink:href="#A"/><path stroke="#C7FFEC" d="M550.05 300.67l21.7 12.78 21.9-12.78v-15.64l-21.9-13.24-21.7 12.75v16.13z"/><use fill="#373633" fill-opacity="0" xlink:href="#B"/><path stroke="#C7FFEC" d="M550.52 284.62l21.24 12.77 21.42-12.77-21.42-12.83-21.24 12.83z"/><use fill="#000" filter="url(#C)" xlink:href="#D"/><use fill="#373633" fill-opacity="0" xlink:href="#D"/><path stroke="#C7FFEC" d="M525.07 314.94l21.7 12.78 21.9-12.78v-15.63l-21.9-13.25-21.7 12.76v16.12z"/><use fill="#373633" fill-opacity="0" xlink:href="#E"/><path stroke="#C7FFEC" d="M525.54 298.9l21.24 12.76 21.42-12.77-21.42-12.83-21.24 12.83z"/><use fill="#000" filter="url(#F)" xlink:href="#G"/><use fill="#373633" fill-opacity="0" xlink:href="#G"/><path stroke="#C7FFEC" d="M471.54 313.16l21.71 12.78 21.9-12.78v-15.64l-21.9-13.24-21.71 12.75v16.13z"/><use fill="#373633" fill-opacity="0" xlink:href="#H"/><path stroke="#C7FFEC" d="M472 297.1l21.25 12.78 21.42-12.77-21.42-12.83-21.24 12.83z"/><use fill="#000" filter="url(#I)" xlink:href="#J"/><use fill="#373633" fill-opacity="0" xlink:href="#J"/><path stroke="#C7FFEC" d="M498.3 329.22L520.01 342l21.9-12.78v-15.64l-21.9-13.25-21.7 12.76v16.13z"/><use fill="#373633" fill-opacity="0" xlink:href="#K"/><path stroke="#C7FFEC" d="M498.77 313.17l21.24 12.76 21.42-12.76-21.42-12.83-21.24 12.83z"/><use fill="#000" filter="url(#L)" xlink:href="#M"/><use fill="#373633" fill-opacity="0" xlink:href="#M"/><path stroke="#DAC7FF" d="M418.01 313.16l77.02 44.9 21.9-12.78v-15.64l-77.2-45.37L418 297.03v16.13z"/><use fill="#373633" fill-opacity="0" xlink:href="#N"/><path stroke="#DAC7FF" d="M418.49 297.1l76.54 44.9 21.42-12.77-76.72-44.95-21.24 12.82z"/><use fill="#000" filter="url(#O)" xlink:href="#P"/><use fill="#373633" fill-opacity="0" xlink:href="#P"/><path stroke="#FCFFC7" d="M262.78 149l77.03 44.9L417 149V97.7l-77.2-45.38-77.03 44.88V149z"/><use fill="#373633" fill-opacity="0" xlink:href="#Q"/><path stroke="#FCFFC7" d="M263.27 97.27l76.54 44.89 76.71-44.89-76.71-44.95-76.54 44.95z"/><use fill="#000" filter="url(#R)" xlink:href="#S"/><use fill="#373633" fill-opacity="0" xlink:href="#S"/><path stroke="#FCFFC7" d="M418.01 343.5l21.71 12.77 21.9-12.78v-15.63l-21.9-13.25-21.7 12.76v16.12z"/><use fill="#373633" fill-opacity="0" xlink:href="#T"/><path stroke="#FCFFC7" d="M418.48 327.44l21.24 12.77 21.42-12.77-21.42-12.83-21.24 12.83z"/><use fill="#000" filter="url(#U)" xlink:href="#V"/><use fill="#373633" fill-opacity="0" xlink:href="#V"/><path stroke="#FCFFC7" d="M444.78 361.33l21.7 12.78 21.9-12.78V345.7l-21.9-13.25-21.7 12.76v16.12z"/><use fill="#373633" fill-opacity="0" xlink:href="#W"/><path stroke="#FCFFC7" d="M445.25 345.28l21.24 12.77 21.42-12.77-21.42-12.83-21.24 12.83z"/><use fill="#000" filter="url(#X)" xlink:href="#Y"/><use fill="#373633" fill-opacity="0" xlink:href="#Y"/><path stroke="#FCFFC7" d="M391.25 359.55l21.71 12.78 21.9-12.78V343.9l-21.9-13.24-21.71 12.75v16.13z"/><use fill="#373633" fill-opacity="0" xlink:href="#Z"/><path stroke="#FCFFC7" d="M391.72 343.5l21.24 12.77 21.42-12.77-21.42-12.83-21.24 12.83z"/><use fill="#000" filter="url(#aa)" xlink:href="#ab"/><use fill="#373633" fill-opacity="0" xlink:href="#ab"/><path stroke="#FCFFC7" d="M418.01 377.4l21.71 12.77 21.9-12.78v-15.63l-21.9-13.25-21.7 12.76v16.12z"/><use fill="#373633" fill-opacity="0" xlink:href="#ac"/><path stroke="#FCFFC7" d="M418.48 361.34l21.24 12.77 21.42-12.77-21.42-12.83-21.24 12.83z"/><use fill="#000" filter="url(#ad)" xlink:href="#ae"/><use fill="#373633" fill-opacity="0" xlink:href="#ae"/><path stroke="#C7FFEC" d="M362.7 375.6l21.71 12.79 21.9-12.78v-15.64l-21.9-13.24-21.7 12.75v16.13z"/><use fill="#373633" fill-opacity="0" xlink:href="#af"/><path stroke="#C7FFEC" d="M363.17 359.56l21.24 12.76 21.42-12.76-21.42-12.83-21.24 12.83z"/><use fill="#000" filter="url(#ag)" xlink:href="#ah"/><use fill="#373633" fill-opacity="0" xlink:href="#ah"/><path stroke="#C7FFEC" d="M334.15 391.67l21.71 12.77 21.9-12.77v-15.64l-21.9-13.25-21.7 12.76v16.13z"/><use fill="#373633" fill-opacity="0" xlink:href="#ai"/><path stroke="#C7FFEC" d="M334.62 375.62l21.24 12.76 21.42-12.76-21.42-12.84-21.24 12.84z"/><use fill="#000" filter="url(#aj)" xlink:href="#ak"/><use fill="#373633" fill-opacity="0" xlink:href="#ak"/><path stroke="#DAC7FF" d="M228.88 377.4l21.71 12.77 21.9-12.78v-15.63l-21.9-13.25-21.7 12.76v16.12z"/><use fill="#373633" fill-opacity="0" xlink:href="#al"/><path stroke="#DAC7FF" d="M229.35 361.34l21.24 12.77 21.42-12.77-21.42-12.83-21.24 12.83z"/><use fill="#000" filter="url(#am)" xlink:href="#an"/><use fill="#373633" fill-opacity="0" xlink:href="#an"/><path stroke="#C7FFEC" d="M273.49 200.75l21.71 12.78 21.9-12.78v-15.63l-21.9-13.25-21.71 12.76v16.12z"/><use fill="#373633" fill-opacity="0" xlink:href="#ao"/><path stroke="#C7FFEC" d="M273.96 184.7l21.24 12.77 21.42-12.77-21.42-12.83-21.24 12.83z"/><use fill="#000" filter="url(#ap)" xlink:href="#aq"/><use fill="#373633" fill-opacity="0" xlink:href="#aq"/><path stroke="#C7FFEC" d="M300.25 218.6l21.71 12.77 21.9-12.78v-15.63l-21.9-13.25-21.7 12.76v16.13z"/><use fill="#373633" fill-opacity="0" xlink:href="#ar"/><path stroke="#C7FFEC" d="M300.72 202.54l21.24 12.77 21.42-12.77-21.42-12.83-21.24 12.83z"/><use fill="#000" filter="url(#as)" xlink:href="#at"/><use fill="#373633" fill-opacity="0" xlink:href="#at"/><path stroke="#C7FFEC" d="M266.35 229.3l21.71 12.78 21.9-12.78v-15.64l-21.9-13.24-21.7 12.75v16.13z"/><use fill="#373633" fill-opacity="0" xlink:href="#au"/><path stroke="#C7FFEC" d="M266.82 213.25l21.24 12.77 21.42-12.77-21.42-12.83-21.24 12.83z"/><use fill="#000" filter="url(#av)" xlink:href="#aw"/><use fill="#373633" fill-opacity="0" xlink:href="#aw"/><path stroke="#DAC7FF" d="M280.63 379.18l21.7 12.77 21.9-12.77v-15.64l-21.9-13.25-21.7 12.76v16.13z"/><use fill="#373633" fill-opacity="0" xlink:href="#ax"/><path stroke="#DAC7FF" d="M281.1 363.13l21.24 12.76 21.42-12.76-21.42-12.83-21.25 12.83z"/><use fill="#000" filter="url(#ay)" xlink:href="#az"/><use fill="#373633" fill-opacity="0" xlink:href="#az"/><path stroke="#C7FFEC" d="M362.7 407.72l21.71 12.78 21.9-12.78V392.1l-21.9-13.25-21.7 12.76v16.12z"/><use fill="#373633" fill-opacity="0" xlink:href="#aA"/><path stroke="#C7FFEC" d="M363.17 391.67l21.24 12.77 21.42-12.77-21.42-12.83-21.24 12.83z"/><use fill="#000" filter="url(#aB)" xlink:href="#aC"/><use fill="#373633" fill-opacity="0" xlink:href="#aC"/><path stroke="#FCFFC7" d="M89.71 166.85l77.02 44.9 77.21-44.9v-33.47L166.74 88 89.7 132.89v33.96z"/><use fill="#373633" fill-opacity="0" xlink:href="#aD"/><path stroke="#FCFFC7" d="M90.2 132.96l76.53 44.88 76.72-44.88L166.73 88 90.2 132.96z"/><use fill="#000" filter="url(#aE)" xlink:href="#aF"/><use fill="#373633" fill-opacity="0" xlink:href="#aF"/><path stroke="#DAC7FF" d="M166.43 229.3l48.48 28.84 46.87-27.06v-33.46l-48.66-27.55-46.69 25.27v33.96z"/><use fill="#373633" fill-opacity="0" xlink:href="#aG"/><path stroke="#DAC7FF" d="M166.96 195.41l47.95 27.05 46.34-25.27-48.13-27.11-46.16 25.33z"/><use fill="#000" filter="url(#aH)" xlink:href="#aI"/><use fill="#373633" fill-opacity="0" xlink:href="#aI"/><path stroke="#FCFFC7" d="M350.21 200.75l48.48 28.84 46.87-27.06v-33.46l-48.66-27.54-46.69 25.27v33.95z"/><g><use fill="#373633" fill-opacity="0" xlink:href="#aJ"/><path stroke="#FCFFC7" d="M350.74 166.87l47.95 27.04 46.34-25.27-48.13-27.11-46.16 25.34z"/></g><g><use fill="#000" filter="url(#aK)" xlink:href="#aL"/><use fill="#373633" fill-opacity="0" xlink:href="#aL"/><path stroke="#FCFFC7" d="M418.01 264.99l48.48 28.83 46.87-27.05V233.3l-48.66-27.54-46.7 25.27v33.96z"/></g><g><use fill="#373633" fill-opacity="0" xlink:href="#aM"/><path stroke="#FCFFC7" d="M418.54 231.1l47.95 27.04 46.34-25.27-48.13-27.11-46.16 25.34z"/></g><g><use fill="#000" filter="url(#aN)" xlink:href="#aO"/><use fill="#373633" fill-opacity="0" xlink:href="#aO"/><path stroke="#C7FFEC" d="M143.24 309.59l77.02 44.9 46.88-27.06v-33.47l-77.21-45.37-46.7 27.04v33.96z"/></g><g><use fill="#373633" fill-opacity="0" xlink:href="#aP"/><path stroke="#C7FFEC" d="M143.73 275.7l76.53 44.88 46.39-27.04-76.72-44.95-46.2 27.1z"/></g><g><use fill="#000" filter="url(#aQ)" xlink:href="#aR"/><use fill="#373633" fill-opacity="0" xlink:href="#aR"/><path stroke="#FCFFC7" d="M.5 220.38l77.02 44.9 77.2-44.9V186.9l-77.2-45.38L.5 186.41v33.97z"/></g><g><use fill="#373633" fill-opacity="0" xlink:href="#aS"/><path stroke="#FCFFC7" d="M.99 186.49l76.53 44.88 76.72-44.88-76.72-44.96L1 186.5z"/></g></g></g></svg>