<?xml version="1.0" encoding="UTF-8"?>
<svg width="1440px" height="594px" viewBox="0 0 1440 594" version="1.1" xmlns="http://www.w3.org/2000/svg" xmlns:xlink="http://www.w3.org/1999/xlink">
    <!-- Generator: Sketch 41.2 (35397) - http://www.bohemiancoding.com/sketch -->
    <title>_spiral</title>
    <desc>Created with Sketch.</desc>
    <defs></defs>
    <g id="Page-1" stroke="none" stroke-width="1" fill="none" fill-rule="evenodd" opacity="0.4">
        <g id="Managed-Cloud-@2x" transform="translate(0.000000, -2078.000000)" stroke="#B3C8D6">
            <g id="_hero-3" transform="translate(0.000000, 2078.000000)">
                <g id="_spiral">
                    <g transform="translate(-94.000000, -1031.678756)" id="Triangle-3">
                        <polygon points="813.5 332.451051 1471.09892 1293.29506 155.901084 1293.29506"></polygon>
                        <polygon transform="translate(813.500000, 812.873057) rotate(10.000000) translate(-813.500000, -812.873057) " points="813.5 332.451051 1471.09892 1293.29506 155.901084 1293.29506"></polygon>
                        <polygon transform="translate(813.500000, 812.873057) rotate(20.000000) translate(-813.500000, -812.873057) " points="813.5 332.451051 1471.09892 1293.29506 155.901084 1293.29506"></polygon>
                        <polygon transform="translate(813.500000, 812.873057) rotate(30.000000) translate(-813.500000, -812.873057) " points="813.5 332.451051 1471.09892 1293.29506 155.901084 1293.29506"></polygon>
                        <polygon transform="translate(813.500000, 812.873057) rotate(40.000000) translate(-813.500000, -812.873057) " points="813.5 332.451051 1471.09892 1293.29506 155.901084 1293.29506"></polygon>
                        <polygon transform="translate(813.500000, 812.873057) rotate(50.000000) translate(-813.500000, -812.873057) " points="813.5 332.451051 1471.09892 1293.29506 155.901084 1293.29506"></polygon>
                        <polygon transform="translate(813.500000, 812.873057) rotate(60.000000) translate(-813.500000, -812.873057) " points="813.5 332.451051 1471.09892 1293.29506 155.901084 1293.29506"></polygon>
                        <polygon transform="translate(813.500000, 812.873057) rotate(70.000000) translate(-813.500000, -812.873057) " points="813.5 332.451051 1471.09892 1293.29506 155.901084 1293.29506"></polygon>
                        <polygon transform="translate(813.500000, 812.873057) rotate(80.000000) translate(-813.500000, -812.873057) " points="813.5 332.451051 1471.09892 1293.29506 155.901084 1293.29506"></polygon>
                        <polygon transform="translate(813.500000, 812.873057) rotate(90.000000) translate(-813.500000, -812.873057) " points="813.5 332.451051 1471.09892 1293.29506 155.901084 1293.29506"></polygon>
                        <polygon transform="translate(813.500000, 812.873057) rotate(100.000000) translate(-813.500000, -812.873057) " points="813.5 332.451051 1471.09892 1293.29506 155.901084 1293.29506"></polygon>
                        <polygon transform="translate(813.500000, 812.873057) rotate(110.000000) translate(-813.500000, -812.873057) " points="813.5 332.451051 1471.09892 1293.29506 155.901084 1293.29506"></polygon>
                        <polygon transform="translate(813.500000, 812.873057) rotate(120.000000) translate(-813.500000, -812.873057) " points="813.5 332.451051 1471.09892 1293.29506 155.901084 1293.29506"></polygon>
                        <polygon transform="translate(813.500000, 812.873057) rotate(130.000000) translate(-813.500000, -812.873057) " points="813.5 332.451051 1471.09892 1293.29506 155.901084 1293.29506"></polygon>
                        <polygon transform="translate(813.500000, 812.873057) rotate(140.000000) translate(-813.500000, -812.873057) " points="813.5 332.451051 1471.09892 1293.29506 155.901084 1293.29506"></polygon>
                        <polygon transform="translate(813.500000, 812.873057) rotate(150.000000) translate(-813.500000, -812.873057) " points="813.5 332.451051 1471.09892 1293.29506 155.901084 1293.29506"></polygon>
                        <polygon transform="translate(813.500000, 812.873057) rotate(160.000000) translate(-813.500000, -812.873057) " points="813.5 332.451051 1471.09892 1293.29506 155.901084 1293.29506"></polygon>
                        <polygon transform="translate(813.500000, 812.873057) rotate(170.000000) translate(-813.500000, -812.873057) " points="813.5 332.451051 1471.09892 1293.29506 155.901084 1293.29506"></polygon>
                        <polygon transform="translate(813.500000, 812.873057) rotate(180.000000) translate(-813.500000, -812.873057) " points="813.5 332.451051 1471.09892 1293.29506 155.901084 1293.29506"></polygon>
                        <polygon transform="translate(813.500000, 812.873057) rotate(190.000000) translate(-813.500000, -812.873057) " points="813.5 332.451051 1471.09892 1293.29506 155.901084 1293.29506"></polygon>
                        <polygon transform="translate(813.500000, 812.873057) rotate(200.000000) translate(-813.500000, -812.873057) " points="813.5 332.451051 1471.09892 1293.29506 155.901084 1293.29506"></polygon>
                        <polygon transform="translate(813.500000, 812.873057) rotate(210.000000) translate(-813.500000, -812.873057) " points="813.5 332.451051 1471.09892 1293.29506 155.901084 1293.29506"></polygon>
                        <polygon transform="translate(813.500000, 812.873057) rotate(220.000000) translate(-813.500000, -812.873057) " points="813.5 332.451051 1471.09892 1293.29506 155.901084 1293.29506"></polygon>
                        <polygon transform="translate(813.500000, 812.873057) rotate(230.000000) translate(-813.500000, -812.873057) " points="813.5 332.451051 1471.09892 1293.29506 155.901084 1293.29506"></polygon>
                        <polygon transform="translate(813.500000, 812.873057) rotate(240.000000) translate(-813.500000, -812.873057) " points="813.5 332.451051 1471.09892 1293.29506 155.901084 1293.29506"></polygon>
                        <polygon transform="translate(813.500000, 812.873057) rotate(250.000000) translate(-813.500000, -812.873057) " points="813.5 332.451051 1471.09892 1293.29506 155.901084 1293.29506"></polygon>
                        <polygon transform="translate(813.500000, 812.873057) rotate(260.000000) translate(-813.500000, -812.873057) " points="813.5 332.451051 1471.09892 1293.29506 155.901084 1293.29506"></polygon>
                        <polygon transform="translate(813.500000, 812.873057) rotate(270.000000) translate(-813.500000, -812.873057) " points="813.5 332.451051 1471.09892 1293.29506 155.901084 1293.29506"></polygon>
                        <polygon transform="translate(813.500000, 812.873057) rotate(280.000000) translate(-813.500000, -812.873057) " points="813.5 332.451051 1471.09892 1293.29506 155.901084 1293.29506"></polygon>
                        <polygon transform="translate(813.500000, 812.873057) rotate(290.000000) translate(-813.500000, -812.873057) " points="813.5 332.451051 1471.09892 1293.29506 155.901084 1293.29506"></polygon>
                        <polygon transform="translate(813.500000, 812.873057) rotate(300.000000) translate(-813.500000, -812.873057) " points="813.5 332.451051 1471.09892 1293.29506 155.901084 1293.29506"></polygon>
                        <polygon transform="translate(813.500000, 812.873057) rotate(310.000000) translate(-813.500000, -812.873057) " points="813.5 332.451051 1471.09892 1293.29506 155.901084 1293.29506"></polygon>
                        <polygon transform="translate(813.500000, 812.873057) rotate(320.000000) translate(-813.500000, -812.873057) " points="813.5 332.451051 1471.09892 1293.29506 155.901084 1293.29506"></polygon>
                        <polygon transform="translate(813.500000, 812.873057) rotate(330.000000) translate(-813.500000, -812.873057) " points="813.5 332.451051 1471.09892 1293.29506 155.901084 1293.29506"></polygon>
                        <polygon transform="translate(813.500000, 812.873057) rotate(340.000000) translate(-813.500000, -812.873057) " points="813.5 332.451051 1471.09892 1293.29506 155.901084 1293.29506"></polygon>
                        <polygon transform="translate(813.500000, 812.873057) rotate(350.000000) translate(-813.500000, -812.873057) " points="813.5 332.451051 1471.09892 1293.29506 155.901084 1293.29506"></polygon>
                        <polygon transform="translate(813.500000, 812.873057) rotate(360.000000) translate(-813.500000, -812.873057) " points="813.5 332.451051 1471.09892 1293.29506 155.901084 1293.29506"></polygon>
                    </g>
                </g>
            </g>
        </g>
    </g>
</svg>