<svg xmlns="http://www.w3.org/2000/svg" viewBox="0 0 1576 500"><defs><linearGradient id="a" x1="50%" x2="51.722%" y1="38.541%" y2="100%"><stop offset="0%" stop-color="#70A8FF" stop-opacity="0"/><stop offset="50.858%" stop-color="#40FFF1" stop-opacity=".159"/><stop offset="100%" stop-color="#C674FF" stop-opacity="0"/></linearGradient><linearGradient id="b" x1="49.214%" x2="50.53%" y1="68.296%" y2="100%"><stop offset="0%" stop-color="#70A8FF" stop-opacity="0"/><stop offset="50.858%" stop-color="#40FFF1" stop-opacity=".159"/><stop offset="100%" stop-color="#C674FF" stop-opacity="0"/></linearGradient><filter id="c" width="140.5%" height="140.5%" x="-20.2%" y="-20.2%" filterUnits="objectBoundingBox"><feGaussianBlur in="SourceGraphic" stdDeviation="1.08"/></filter><filter id="d" width="140.5%" height="140.5%" x="-20.2%" y="-20.2%" filterUnits="objectBoundingBox"><feGaussianBlur in="SourceGraphic" stdDeviation="1.08"/></filter><filter id="e" width="149.8%" height="149.8%" x="-24.9%" y="-24.9%" filterUnits="objectBoundingBox"><feGaussianBlur in="SourceGraphic" stdDeviation="1.08"/></filter><filter id="f" width="149.8%" height="149.8%" x="-24.9%" y="-24.9%" filterUnits="objectBoundingBox"><feGaussianBlur in="SourceGraphic" stdDeviation="1.08"/></filter><filter id="g" width="136%" height="136%" x="-18%" y="-18%" filterUnits="objectBoundingBox"><feGaussianBlur in="SourceGraphic" stdDeviation="1.08"/></filter><filter id="h" width="172%" height="172%" x="-36%" y="-36%" filterUnits="objectBoundingBox"><feGaussianBlur in="SourceGraphic" stdDeviation="1.08"/></filter><filter id="i" width="192.6%" height="192.6%" x="-46.3%" y="-46.3%" filterUnits="objectBoundingBox"><feGaussianBlur in="SourceGraphic" stdDeviation="1.08"/></filter><filter id="j" width="158.9%" height="158.9%" x="-29.4%" y="-29.4%" filterUnits="objectBoundingBox"><feGaussianBlur in="SourceGraphic" stdDeviation="1.08"/></filter><filter id="k" width="172%" height="172%" x="-36%" y="-36%" filterUnits="objectBoundingBox"><feGaussianBlur in="SourceGraphic" stdDeviation="1.08"/></filter><filter id="l" width="208%" height="208%" x="-54%" y="-54%" filterUnits="objectBoundingBox"><feGaussianBlur in="SourceGraphic" stdDeviation="1.08"/></filter><filter id="m" width="172%" height="172%" x="-36%" y="-36%" filterUnits="objectBoundingBox"><feGaussianBlur in="SourceGraphic" stdDeviation="1.08"/></filter><filter id="n" width="208%" height="208%" x="-54%" y="-54%" filterUnits="objectBoundingBox"><feGaussianBlur in="SourceGraphic" stdDeviation="1.08"/></filter><filter id="o" width="208%" height="208%" x="-54%" y="-54%" filterUnits="objectBoundingBox"><feGaussianBlur in="SourceGraphic" stdDeviation="1.08"/></filter><filter id="p" width="208%" height="208%" x="-54%" y="-54%" filterUnits="objectBoundingBox"><feGaussianBlur in="SourceGraphic" stdDeviation="1.08"/></filter><filter id="q" width="208%" height="208%" x="-54%" y="-54%" filterUnits="objectBoundingBox"><feGaussianBlur in="SourceGraphic" stdDeviation="1.08"/></filter><filter id="r" width="164.8%" height="164.8%" x="-32.4%" y="-32.4%" filterUnits="objectBoundingBox"><feGaussianBlur in="SourceGraphic" stdDeviation="1.08"/></filter><filter id="s" width="164.8%" height="164.8%" x="-32.4%" y="-32.4%" filterUnits="objectBoundingBox"><feGaussianBlur in="SourceGraphic" stdDeviation="1.08"/></filter><filter id="t" width="164.8%" height="164.8%" x="-32.4%" y="-32.4%" filterUnits="objectBoundingBox"><feGaussianBlur in="SourceGraphic" stdDeviation="1.08"/></filter><filter id="u" width="164.8%" height="164.8%" x="-32.4%" y="-32.4%" filterUnits="objectBoundingBox"><feGaussianBlur in="SourceGraphic" stdDeviation="1.08"/></filter><filter id="v" width="164.8%" height="164.8%" x="-32.4%" y="-32.4%" filterUnits="objectBoundingBox"><feGaussianBlur in="SourceGraphic" stdDeviation="1.08"/></filter><filter id="w" width="164.8%" height="164.8%" x="-32.4%" y="-32.4%" filterUnits="objectBoundingBox"><feGaussianBlur in="SourceGraphic" stdDeviation="1.08"/></filter><filter id="x" width="154%" height="154%" x="-27%" y="-27%" filterUnits="objectBoundingBox"><feGaussianBlur in="SourceGraphic" stdDeviation="1.08"/></filter><filter id="y" width="164.8%" height="164.8%" x="-32.4%" y="-32.4%" filterUnits="objectBoundingBox"><feGaussianBlur in="SourceGraphic" stdDeviation="1.08"/></filter><filter id="z" width="208%" height="208%" x="-54%" y="-54%" filterUnits="objectBoundingBox"><feGaussianBlur in="SourceGraphic" stdDeviation="1.08"/></filter><filter id="A" width="164.8%" height="164.8%" x="-32.4%" y="-32.4%" filterUnits="objectBoundingBox"><feGaussianBlur in="SourceGraphic" stdDeviation="1.08"/></filter><filter id="B" width="154%" height="154%" x="-27%" y="-27%" filterUnits="objectBoundingBox"><feGaussianBlur in="SourceGraphic" stdDeviation="1.08"/></filter><filter id="C" width="164.8%" height="164.8%" x="-32.4%" y="-32.4%" filterUnits="objectBoundingBox"><feGaussianBlur in="SourceGraphic" stdDeviation="1.08"/></filter><filter id="D" width="154%" height="154%" x="-27%" y="-27%" filterUnits="objectBoundingBox"><feGaussianBlur in="SourceGraphic" stdDeviation="1.08"/></filter></defs><g fill="none" fill-rule="evenodd"><g stroke="#00e7ff" opacity=".1"><path d="M-118.301 346.681S317.397 122.56 645.445 209.152c328.048 86.592 461.178 97.416 673.295 1.91 212.116-95.506 387.287-84.045 507.678-18.464"/><path d="M-105.562 22.596s56.692 309.44 395.569 309.44S772.842 180.6 978.589 180.6s178.356 164.172 474.555 157.805c296.199-6.367 393.02-241.95 393.02-241.95"/><path d="M1828.329 423.723s-96.822-297.98-616.603-98.053-381.555-206.294-670.747-206.294c-289.191 0-306.39 231.125-636.349 299.253"/><path d="M1829.603 340.95S1702.843 6.679 1383.075 73.534c-319.767 66.854-328.685 278.242-535.705 291.613-207.02 13.37-328.685-229.852-591.76-246.407C-7.466 102.185-182 278.553-182 278.553"/><path fill="url(#a)" d="M80.26 289.066s457.356-51.574 688.582 115.88c231.226 167.455 336.33-171.274 558-191.012 221.672-19.738 404.487 291.613 718.521 226.669" transform="translate(-182 -71)"/><path fill="url(#b)" d="M1972.11 171.275s-352.254 299.253-677.117 284.608C970.13 441.24 940.83 227.942 801.966 227.942S679.027 503 421.048 503C163.068 503 238.233 31.199 93 .637" transform="translate(-182 -71)"/></g><g fill="#9AFFF6" opacity=".1" style="mix-blend-mode:overlay" transform="translate(104.749 125.554)"><circle cx="8" cy="8" r="8" filter="url(#c)" transform="translate(664.396 38.821)"/><circle cx="8" cy="8" r="8" filter="url(#d)" transform="translate(1102.52 189.669)"/><circle cx="6.5" cy="6.5" r="6.5" filter="url(#e)" transform="translate(850.737 26.62)"/><circle cx="6.5" cy="6.5" r="6.5" filter="url(#f)" transform="translate(783.077 137.538)"/><circle cx="9" cy="9" r="9" filter="url(#g)" transform="translate(395.975 33.275)"/><circle cx="4.5" cy="4.5" r="4.5" filter="url(#h)" transform="translate(435.906 144.193)"/><circle cx="3.5" cy="3.5" r="3.5" filter="url(#i)" transform="translate(608.937 36.603)"/><circle cx="5.5" cy="5.5" r="5.5" filter="url(#j)" transform="translate(818.57 83.188)"/><circle cx="4.5" cy="4.5" r="4.5" filter="url(#k)" transform="translate(287.276 128.664)"/><circle cx="3" cy="3" r="3" filter="url(#l)" transform="translate(490.255)"/><circle cx="4.5" cy="4.5" r="4.5" filter="url(#m)" transform="translate(123.118 175.25)"/><circle cx="3" cy="3" r="3" filter="url(#n)" transform="translate(51.022 140.865)"/><circle cx="3" cy="3" r="3" filter="url(#o)" transform="translate(190.778 90.952)"/><circle cx="3" cy="3" r="3" filter="url(#p)" transform="translate(1301.062 77.642)"/><circle cx="3" cy="3" r="3" filter="url(#q)" transform="translate(0 87.625)"/><circle cx="5" cy="5" r="5" filter="url(#r)" transform="translate(976.074 184.123)"/><circle cx="5" cy="5" r="5" filter="url(#s)" transform="translate(850.737 242.91)"/><circle cx="5" cy="5" r="5" filter="url(#t)" transform="translate(1356.52 150.848)"/><circle cx="5" cy="5" r="5" filter="url(#u)" transform="translate(1020.44 29.948)"/><circle cx="5" cy="5" r="5" filter="url(#v)" transform="translate(1166.852 90.952)"/><circle cx="5" cy="5" r="5" filter="url(#w)" transform="translate(674.378 115.354)"/><circle cx="6" cy="6" r="6" filter="url(#x)" transform="translate(1104.738 47.695)"/><circle cx="5" cy="5" r="5" filter="url(#y)" transform="translate(511.33 115.354)"/><circle cx="3" cy="3" r="3" filter="url(#z)" transform="translate(946.126 74.315)"/><circle cx="5" cy="5" r="5" filter="url(#A)" transform="translate(630.011 208.525)"/><circle cx="6" cy="6" r="6" filter="url(#B)" transform="translate(1051.497 159.721)"/><circle cx="5" cy="5" r="5" filter="url(#C)" transform="translate(501.347 189.669)"/><circle cx="6" cy="6" r="6" filter="url(#D)" transform="translate(897.322 137.538)"/></g></g></svg>