<?xml version="1.0" encoding="UTF-8"?>
<svg width="50px" height="45px" viewBox="0 0 50 45" version="1.1" xmlns="http://www.w3.org/2000/svg" xmlns:xlink="http://www.w3.org/1999/xlink">
    <!-- Generator: Sketch 41.2 (35397) - http://www.bohemiancoding.com/sketch -->
    <title>Inheritance</title>
    <desc>Created with Sketch.</desc>
    <defs></defs>
    <g id="Page-1" stroke="none" stroke-width="1" fill="none" fill-rule="evenodd">
        <g id="Artboard" transform="translate(-600.000000, -400.000000)" fill="#000000">
            <g id="Row-2:-HITRUST" transform="translate(20.000000, 400.000000)">
                <path d="M629.417169,26.2949899 C628.928048,25.6833657 628.178475,25.3464992 627.306516,25.3464992 C626.797815,25.3464992 626.259527,25.4612953 625.732518,25.643066 C625.171503,24.8783333 624.214263,24.4366056 623.063997,24.4365121 C622.851529,24.4365121 622.632013,24.4519313 622.411529,24.4824396 C621.61948,24.5918903 620.86695,24.9159833 620.175885,25.3049721 C619.799481,25.0558468 619.272614,24.8752578 618.536261,24.8752578 C617.45453,24.8752121 616.130343,25.2716728 615.581293,25.4813019 C613.916483,26.1169094 612.304267,26.8620112 610.661756,27.6334619 L610.658872,27.6347868 L610.65601,27.6361574 C610.648181,27.6398933 610.000255,27.946156 609.33459,28.2101336 C607.796872,27.5533836 606.397549,26.5620409 604.917536,25.5135131 C603.240449,24.3253585 601.506274,23.0967172 599.461579,22.3011918 C598.222245,21.8189295 596.931287,21.5744393 595.624553,21.5743937 C594.257939,21.5743459 592.892886,21.840261 591.567303,22.364715 C590.305811,22.8638149 589.107511,23.5858844 588.005677,24.5109129 C587.292855,25.1093896 586.711927,25.7653816 586.150108,26.3997577 C585.755941,26.8448892 585.383625,27.2653312 584.989434,27.6388529 C584.777179,27.825591 583.939866,28.252371 583.385473,28.5349825 C581.627907,29.4308296 580.613601,29.9836134 580.205267,30.9269954 C579.740577,32.0005928 580.124315,33.4701295 580.762806,35.589557 C580.870151,35.9459089 580.991828,36.3498435 581.021982,36.5003956 L581.371333,38.2454043 L582.070438,41.7372158 L582.549271,44.1287553 L584.588527,42.7908045 L584.886511,42.5951284 C587.59162,40.8181453 590.146744,39.1397374 593.144777,38.6992847 C593.427106,38.6578053 593.722158,38.6368061 594.02175,38.6368061 C595.853813,38.6368061 597.741237,39.390848 599.739485,40.1892101 C600.789643,40.6088007 601.875561,41.0426289 602.963513,41.3605749 C604.607915,41.8411779 606.287509,42.0848665 607.955654,42.0848665 C613.736768,42.0848665 618.755541,39.1887842 622.482028,36.6657543 C622.64417,36.5560668 622.821825,36.4374414 623.011163,36.3111053 C626.143287,34.2203876 629.252452,31.9518263 629.864812,29.2349167 C630.142528,28.0028678 629.991903,27.0137014 629.417169,26.2949899 Z M628.258339,28.793378 C627.692149,31.3054846 623.535783,33.8852261 621.558771,35.2226578 C615.974045,39.0037989 610.097264,41.6503282 603.425461,39.7004666 C600.04868,38.7136179 596.52371,36.4590097 592.905419,36.9905576 C589.426615,37.5015775 586.546783,39.4569733 583.685159,41.334463 C583.335666,39.5888417 582.986196,37.8432183 582.636703,36.0976448 C582.469288,35.2614416 581.359106,32.327429 581.716545,31.5016798 C582.056035,30.7173663 585.309933,29.5238664 586.11915,28.7575721 C587.149018,27.782359 587.968523,26.6127926 589.064515,25.6926817 C591.83835,23.3639573 595.414852,22.4141895 598.86445,23.7563975 C602.477584,25.1622221 605.207762,28.1895581 608.777122,29.6828394 C610.144256,30.2547804 615.850378,30.6203091 614.847543,32.6732813 C612.812875,36.8386805 600.634218,31.1660447 600.39531,31.6902619 C600.109316,32.317733 602.990118,33.9789731 603.387904,34.1766365 C606.130261,35.5391833 610.568671,36.0073492 613.556841,35.3672041 C615.165818,35.0225335 617.395099,33.6735161 616.660187,31.5535196 C616.036547,29.7546401 612.957797,29.3022237 611.361831,29.0445363 C612.942829,28.301941 614.53643,27.5634595 616.168677,26.9402934 C616.97513,26.6323756 620.496094,25.1493448 618.103271,28.7575721 C620.496094,26.9402934 621.439956,26.1996356 622.637001,26.0342291 C624.380732,25.7931945 625.002197,27.2723917 622.637001,30.1979288 C625.002197,27.8419718 628.996752,25.5173446 628.258339,28.793378 Z M610.072021,0 C605.986969,0 602.665724,3.22707424 602.665724,7.17361627 C602.665724,8.83887138 603.261831,10.3719865 604.252364,11.5922452 L600.802446,20.2239045 L605.341304,18.4458715 L607.555468,22.5543616 L610.0668,15.9197518 L612.697513,22.5410287 L614.766455,18.3977201 L619.364074,20.3383807 L615.768935,11.7482488 C616.836017,10.5045513 617.478319,8.90910282 617.478319,7.17361627 C617.478319,3.22707424 614.157074,0 610.072021,0 Z M614.382738,12.992201 L616.104245,17.107315 L613.910878,16.1801256 L612.882469,18.2384895 L611.294059,14.2394651 C612.432911,14.0549273 613.481939,13.6203764 614.382738,12.992201 Z M605.628208,12.8943696 C606.550599,13.5684884 607.635822,14.0394713 608.820603,14.2361531 L607.270246,18.3297818 L606.170952,16.2879778 L603.918824,17.1703279 L605.628208,12.8943696 Z M610.072021,1.69846012 C613.190611,1.69846012 615.708404,4.13558057 615.708404,7.17361627 C615.708404,10.2115669 613.190611,12.6471587 610.072021,12.6471587 C606.953431,12.6471587 604.435639,10.2115669 604.435639,7.17361627 C604.435639,4.13558057 606.953431,1.69846012 610.072021,1.69846012 Z" id="Inheritance"></path>
            </g>
        </g>
    </g>
</svg>