<?xml version="1.0" encoding="UTF-8"?>
<svg width="50px" height="35px" viewBox="0 0 50 35" version="1.1" xmlns="http://www.w3.org/2000/svg" xmlns:xlink="http://www.w3.org/1999/xlink">
    <!-- Generator: Sketch 41.2 (35397) - http://www.bohemiancoding.com/sketch -->
    <title>IDS</title>
    <desc>Created with Sketch.</desc>
    <defs></defs>
    <g id="Page-1" stroke="none" stroke-width="1" fill="none" fill-rule="evenodd">
        <g id="Artboard" transform="translate(-800.000000, -200.000000)" fill="#000000">
            <g id="Row-1:-Technology" transform="translate(20.000000, 200.000000)">
                <path d="M804.902724,0 C788.560311,0 780.389105,15.8236057 780.129702,16.4721141 C780,16.7315175 780,16.9909209 780,17.2503243 C780,18.2879377 782.983139,22.8274968 786.355383,26.1997406 C791.802853,31.6472114 798.158236,34.5006485 805.032425,34.5006485 C821.245136,34.5006485 829.416342,18.6770428 829.805447,18.0285344 C830.064851,17.5097276 830.064851,16.9909209 829.805447,16.6018158 C829.416342,15.693904 821.245136,0 804.902724,0 Z M804.902724,33 C791.156522,33 784.314453,20.7910156 781.5,17.259328 C781.5,17.259328 790.57494,1.3671875 804.902724,1.3671875 C819.082798,1.3671875 828.5,17.1116189 828.5,17.1116189 C828.5,17.1116189 818.648926,33 804.902724,33 Z M817.933241,17.2199487 C817.992996,17.0456916 818.017972,17.0081126 818.016708,16.9711398 C817.871273,11.6685697 813.837677,6.87301229 808.467979,5.636544 C808.164463,5.56653807 807.818582,5.55714333 807.513801,5.61805758 C805.83498,5.95323747 804.280411,6.57692663 802.892143,7.5548882 C801.283826,8.68831747 800.122879,10.1517747 799.378317,11.9295009 C800.527566,10.8591073 801.833948,10.0223698 803.409384,9.75234693 C807.409784,9.06622825 811.047862,9.98115418 814.292002,12.2880161 C816.00971,13.5090286 817.146313,15.174321 817.933241,17.2199487 Z M805.879875,29.4946241 C806.099608,29.4718949 806.377515,29.4412863 806.656053,29.4149204 C812.044405,28.9051803 816.51968,25.1027372 817.695171,20.0262469 C817.740698,19.8295636 817.762197,19.6077266 817.716986,19.4143769 C816.893384,15.8910484 814.893026,13.2414302 811.431366,11.6876623 C811.274234,11.6170502 811.10983,11.561894 810.925823,11.4903728 C811.404493,12.0731494 811.887588,12.585011 812.280578,13.153847 C813.519301,14.9476352 813.743144,16.9390159 813.477568,19.0276775 C813.053278,22.3643236 811.849017,25.3427575 809.073429,27.5308215 C808.09965,28.2981592 806.941864,28.8506302 805.879875,29.4946241 Z M792.793608,17.5154283 C792.740493,17.6669563 792.715832,17.703626 792.71678,17.7399928 C792.846091,23.2250025 797.142418,28.1572382 802.725842,29.2185401 C802.972448,29.2655138 803.267744,29.282788 803.491586,29.1970232 C804.795123,28.6966778 806.159679,28.2848247 807.361411,27.6105252 C809.363982,26.4867938 810.67479,24.744222 811.501238,22.664652 C810.249868,23.9286984 808.743988,24.7457373 806.973796,25.0948578 C805.501113,25.3854884 804.025268,25.2591141 802.567444,24.9957585 C798.458601,24.2538775 795.185058,22.3737183 793.301997,18.6424934 C793.134747,18.310041 792.995319,17.9642542 792.793608,17.5154283 Z M805.455902,5.33227582 C805.277586,5.27378602 805.239963,5.25075376 805.202024,5.25045071 C799.54367,5.19984036 794.139826,9.41777316 793.026619,14.757013 C792.993422,14.9161174 792.974136,15.092799 793.010179,15.2482667 C793.673487,18.120631 795.108547,20.5238648 797.705819,22.187642 C798.356165,22.6043439 799.070691,22.9286138 799.755815,23.2953115 C799.796599,23.2395492 799.837701,23.1837869 799.878485,23.1280246 C799.664127,22.9519491 799.422896,22.7986028 799.239838,22.5964645 C797.613816,20.8017671 796.972007,18.7294705 797.221143,16.3556332 C797.475337,13.9345191 798.111771,11.6494772 799.527862,9.60869841 C800.946481,7.5651921 802.901944,6.17143776 805.455902,5.33227582 Z" id="IDS"></path>
            </g>
        </g>
    </g>
</svg>