<?xml version="1.0" encoding="UTF-8"?>
<svg width="38px" height="50px" viewBox="0 0 38 50" version="1.1" xmlns="http://www.w3.org/2000/svg" xmlns:xlink="http://www.w3.org/1999/xlink">
    <!-- Generator: Sketch 41.2 (35397) - http://www.bohemiancoding.com/sketch -->
    <title>Logging</title>
    <desc>Created with Sketch.</desc>
    <defs></defs>
    <g id="Page-1" stroke="none" stroke-width="1" fill="none" fill-rule="evenodd">
        <g id="Artboard" transform="translate(-700.000000, -200.000000)" fill="#000000">
            <g id="Row-1:-Technology" transform="translate(20.000000, 200.000000)">
                <path d="M680,3.00017712 L687,3.00017712 L687,0.999810905 C687,0.999810905 687,0 688,0 C689,0 689,1.00017712 689,1.00017712 L689,3.00017712 L698,3.00017712 L698,1 C698,1 698,0 699,0 C700,0 700.001221,1 700.001221,1 L700.001221,3.00017712 L708.997559,3.00017712 L708.997559,1 C708.997559,1 708.997559,0 710,0 C711.002441,0 711,1 711,1 L711,3.00017712 L718,3.00017712 L718,50.0001771 L680,50.0001771 L680,3.00017712 Z M681.5,4.50017712 L687.005615,4.50017712 L687.005615,5.95964977 C687.005615,5.95964977 687.005615,7.00017712 688,7.00017712 C688.994385,7.00017712 689,5.95964977 689,5.95964977 L689,4.50017712 L698,4.50017712 L698,5.95964977 C698,5.95964977 698,7.00017712 699,7.00017712 C700,7.00017712 700,6.00017712 700,6.00017712 L700,4.50017712 L709,4.50017712 L709,5.95964977 C709,5.95964977 709,7.00017712 710,7.00017712 C711,7.00017712 711,5.95964977 711,5.95964977 L711,4.50017712 L716.5,4.50017712 C716.5,4.50017712 716.571777,22.6393373 716.571777,35.4772279 C716.571777,39.7824037 716.218262,42.5851381 713.177734,45.0045716 C709.00103,48.3280938 708.387451,48.5001771 700,48.5001771 C708.387451,48.5001771 681.5,48.5001771 681.5,48.5001771 L681.5,4.50017712 Z M710.5,48.5001771 C714.350708,46.5140321 715.602539,45.1478212 716.709229,43.0211732 C716.5,47.8805482 716.5,48.5001771 716.5,48.5001771 C716.5,48.5001771 715.081116,48.5001771 710.5,48.5001771 Z M685,11.7501771 C685,11.3359636 685.329781,11.0001771 685.744823,11.0001771 L703.255177,11.0001771 C703.666532,11.0001771 704,11.3330757 704,11.7501771 C704,12.1643907 703.670219,12.5001771 703.255177,12.5001771 L685.744823,12.5001771 C685.333468,12.5001771 685,12.1672785 685,11.7501771 Z M705,11.7501771 C705,11.3359636 705.341821,11.0001771 705.751855,11.0001771 L713.248145,11.0001771 C713.663383,11.0001771 714,11.3330757 714,11.7501771 C714,12.1643907 713.658179,12.5001771 713.248145,12.5001771 L705.751855,12.5001771 C705.336617,12.5001771 705,12.1672785 705,11.7501771 Z M685,16.7501771 C685,16.3359636 685.34127,16.0001771 685.756075,16.0001771 L695.243925,16.0001771 C695.661494,16.0001771 696,16.3330757 696,16.7501771 C696,17.1643907 695.65873,17.5001771 695.243925,17.5001771 L685.756075,17.5001771 C685.338506,17.5001771 685,17.1672785 685,16.7501771 Z M697,16.7501771 C697,16.3359636 697.334414,16.0001771 697.755126,16.0001771 L709.244874,16.0001771 C709.661919,16.0001771 710,16.3330757 710,16.7501771 C710,17.1643907 709.665586,17.5001771 709.244874,17.5001771 L697.755126,17.5001771 C697.338081,17.5001771 697,17.1672785 697,16.7501771 Z M685,21.7501771 C685,21.3359636 685.345567,21.0001771 685.75729,21.0001771 L706.24271,21.0001771 C706.66095,21.0001771 707,21.3330757 707,21.7501771 C707,22.1643907 706.654433,22.5001771 706.24271,22.5001771 L685.75729,22.5001771 C685.33905,22.5001771 685,22.1672785 685,21.7501771 Z M701,26.7501771 C701,26.3359636 701.34127,26.0001771 701.756075,26.0001771 L711.243925,26.0001771 C711.661494,26.0001771 712,26.3330757 712,26.7501771 C712,27.1643907 711.65873,27.5001771 711.243925,27.5001771 L701.756075,27.5001771 C701.338506,27.5001771 701,27.1672785 701,26.7501771 Z M685,26.7501771 C685,26.3359636 685.341479,26.0001771 685.743852,26.0001771 L699.256148,26.0001771 C699.666966,26.0001771 700,26.3330757 700,26.7501771 C700,27.1643907 699.658521,27.5001771 699.256148,27.5001771 L685.743852,27.5001771 C685.333034,27.5001771 685,27.1672785 685,26.7501771 Z M685,31.7501771 C685,31.3359636 685.339272,31.0001771 685.74459,31.0001771 L708.25541,31.0001771 C708.666636,31.0001771 709,31.3330757 709,31.7501771 C709,32.1643907 708.660728,32.5001771 708.25541,32.5001771 L685.74459,32.5001771 C685.333364,32.5001771 685,32.1672785 685,31.7501771 Z M685,36.7501771 C685,36.3359636 685.337625,36.0001771 685.749123,36.0001771 L691.250877,36.0001771 C691.664606,36.0001771 692,36.3330757 692,36.7501771 C692,37.1643907 691.662375,37.5001771 691.250877,37.5001771 L685.749123,37.5001771 C685.335394,37.5001771 685,37.1672785 685,36.7501771 Z M693,36.7501771 C693,36.3359636 693.341821,36.0001771 693.751855,36.0001771 L701.248145,36.0001771 C701.663383,36.0001771 702,36.3330757 702,36.7501771 C702,37.1643907 701.658179,37.5001771 701.248145,37.5001771 L693.751855,37.5001771 C693.336617,37.5001771 693,37.1672785 693,36.7501771 Z M703,36.7501771 C703,36.3359636 703.341821,36.0001771 703.751855,36.0001771 L711.248145,36.0001771 C711.663383,36.0001771 712,36.3330757 712,36.7501771 C712,37.1643907 711.658179,37.5001771 711.248145,37.5001771 L703.751855,37.5001771 C703.336617,37.5001771 703,37.1672785 703,36.7501771 Z M685,41.7501771 C685,41.3359636 685.330451,41.0001771 685.759602,41.0001771 L704.240398,41.0001771 C704.659915,41.0001771 705,41.3330757 705,41.7501771 C705,42.1643907 704.669549,42.5001771 704.240398,42.5001771 L685.759602,42.5001771 C685.340085,42.5001771 685,42.1672785 685,41.7501771 Z" id="Logging"></path>
            </g>
        </g>
    </g>
</svg>