<?xml version="1.0" encoding="UTF-8"?>
<svg width="50px" height="48px" viewBox="0 0 50 48" version="1.1" xmlns="http://www.w3.org/2000/svg" xmlns:xlink="http://www.w3.org/1999/xlink">
    <!-- Generator: Sketch 41.2 (35397) - http://www.bohemiancoding.com/sketch -->
    <title>Backup and DR</title>
    <desc>Created with Sketch.</desc>
    <defs></defs>
    <g id="Page-1" stroke="none" stroke-width="1" fill="none" fill-rule="evenodd">
        <g id="Artboard" transform="translate(-600.000000, -200.000000)" fill="#000000">
            <g id="Row-1:-Technology" transform="translate(20.000000, 200.000000)">
                <path d="M629.252083,35.1291667 L608.133333,2.04583333 C607.372917,0.764583333 606.0375,-3.55271368e-15 604.560417,-3.55271368e-15 C603.1,-3.55271368e-15 601.725,0.789583333 600.9875,2.04791667 L580.672917,35.2395833 C580.23125,35.91875 580,36.7 580,37.5 C580,39.7979167 580.672917,41.6699982 584.166667,41.6666667 L600,41.6666667 C600,41.6666667 600.006104,41.6699982 600,46.6044922 C599.99938,47.1054713 600.736047,47.2283702 601.10407,47.0075562 C604.06938,45.2283702 607.03469,43.4491842 610,41.6699982 L625.833333,41.6666667 C629.252083,41.6699982 630,39.0236816 630,37.5 C630,36.5610352 630,36.5407715 629.252083,35.1291667 Z M625.833333,40 C617.850068,40 610.105957,40 610.105957,40 C610.105957,40 610.105957,40 601.384033,35.1245117 C600.643064,34.7103156 600.039062,34.7771026 600.039062,35.5703125 C600.039063,40.0935088 600.039062,40 600.039062,40 L584.166667,40 C582.585354,39.8175608 581.768799,39.1153688 581.768799,37.8611111 C581.768799,36.6330566 582.346395,35.8472325 582.777832,35.1245117 C585.294917,30.9080237 602.718364,2.56516667 602.718364,2.56516667 C602.718364,2.56516667 603.071599,1.5 604.549227,1.5 C606.026855,1.5 606.380091,2.56302778 606.380091,2.56302778 C606.380091,2.56302778 616.451804,18.5363842 627.327637,35.5703125 C627.659448,36.0998039 628.264893,36.7241211 628.264893,37.8611111 C628.264893,38.7159424 627.328462,40 625.833333,40 Z M601.5,37 L601.5,45 L608.5,40.9000015 L601.5,37 Z M606.028503,30.9998169 C606.791992,31 604.704276,30.9997558 604,31 C603.332703,31.0048828 603.002502,30.9053955 603,30 L603,28.0386963 C603,27.1997681 603.302185,27 604,27 C603.541443,27 604.802734,27 606,27 C607.197266,27 607,28 607,28 C607,28 607,27.9595337 607,30.0626221 C607,30.8858643 606.791992,31 606.028503,30.9998169 Z M602.986572,15 L607.03064,15 C607.35376,15 607.949521,15.504791 607.899042,16.0095819 C607.631484,18.6851617 607.363926,21.3607415 607.096368,24.0363214 C607.064245,24.3575476 606.507233,25 606.014465,25 L604.011536,25 C603.674357,25 602.934666,24.3466579 602.901999,24.0199869 L602.10406,16.040595 C602.05203,15.5202975 602.493286,15 602.986572,15 Z" id="Backup-and-DR"></path>
            </g>
        </g>
    </g>
</svg>