<?xml version="1.0" encoding="UTF-8"?>
<svg width="50px" height="50px" viewBox="0 0 50 50" version="1.1" xmlns="http://www.w3.org/2000/svg" xmlns:xlink="http://www.w3.org/1999/xlink">
    <!-- Generator: Sketch 41.2 (35397) - http://www.bohemiancoding.com/sketch -->
    <title>Vuln Scanning</title>
    <desc>Created with Sketch.</desc>
    <defs></defs>
    <g id="Page-1" stroke="none" stroke-width="1" fill="none" fill-rule="evenodd">
        <g id="Artboard" transform="translate(-900.000000, -200.000000)" fill="#000000">
            <g id="Row-1:-Technology" transform="translate(20.000000, 200.000000)">
                <path d="M916.198923,13.0323969 L909.756711,19.4676495 C908.436413,18.1964142 906.73422,17.5 904.926313,17.5 C900.989541,17.5 897.450858,20.8854416 897.450858,25 C897.450858,29.1145584 901.068741,32.4541016 905.005513,32.4541016 C906.913818,32.4541016 908.746099,31.8258057 910.139891,30.4716797 C910.620365,30.0048796 910.686881,29.3980713 910.437528,29.130249 C910.188174,28.8624268 909.618579,28.9078154 909.129178,29.3713379 C907.553941,30.8632812 905.778711,30.9989014 905.006925,30.9986572 C901.616865,30.9975848 898.99017,28.1610107 898.993,25 C898.996449,21.1468115 902.267384,19.0043945 905.005513,19.0043945 C906.435848,19.0043945 907.885909,19.6094833 908.824512,20.3988421 L906.785896,22.4352556 C906.279686,22.0821096 905.664029,21.875 905,21.875 C903.27411,21.875 901.875,23.2741102 901.875,25 C901.875,26.7258898 903.27411,28.125 905,28.125 C906.72589,28.125 908.125,26.7258898 908.125,25 C908.125,24.4347366 907.974918,23.9045267 907.712429,23.4470442 L924.821289,6.45556641 C925.432227,5.84462891 925.718115,5.77182617 925.107178,5.16088867 C924.49624,4.54995117 924.383154,4.85634766 923.772217,5.46728516 L922.291635,6.94626704 C917.619015,2.46321453 911.498132,0 905,0 C891.215625,0 880,11.215625 880,25 C880,38.784375 891.215625,50 905,50 C908.41875,50 911.734375,49.321875 914.85,47.984375 C915.640625,47.6453125 915.99646,47.1348877 915.99646,46.5821533 C915.99646,46.0294189 915.224515,46.1089617 914.85,46.3035889 C911.866821,47.8538818 908.5,48.498882 905,48.5 C892.389404,48.5040283 881.303589,38.1101685 881.5,25 C881.705185,11.304208 892.765808,1.28643799 905,1.5 C912.079378,1.62357876 917.159887,4.13927763 921.215629,8.02111067 L917.359529,11.8730456 C913.862883,8.64458913 909.591266,6.98725606 905,7.00488281 C894.411987,7.04553223 886.973075,15.8033468 886.997437,25 C887.02063,33.7556152 894.073975,43.168457 904.997314,43 C906.427914,42.9779376 909.126404,42.7286377 911.671692,41.7449341 C912.517733,41.4179557 913.890134,40.8471165 913.561157,40 C913.230535,39.1545284 912.407722,39.6624945 911.565979,40 C910.777771,40.31604 908.333855,41.3523379 904.997314,41.4000015 C896.014771,41.5283203 888.635673,34.0732983 888.600006,25 C888.568359,16.9493408 895.298828,8.47070312 905,8.60296631 C909.603988,8.66573586 913.436461,10.5337139 916.198923,13.0323969 Z M919.147827,44.8287964 C918.764221,44.3414917 919.109498,43.8458066 919.536499,43.4954834 C921.563599,41.8323975 923.81012,39.4746094 925.254211,36.9031982 C925.543346,36.3883534 926.151397,36.3096775 926.45166,36.5689697 C926.751923,36.8282619 926.911837,37.1877466 926.45166,37.9372559 C924.466187,41.1710815 921.449463,43.8850708 920.554687,44.5734375 C920.264195,44.7969188 919.454154,45.2179319 919.147827,44.8287964 Z M927.803528,33.6175537 C927.549805,33.6175537 927.019861,33.2433253 927.352051,32.3083496 C928.06012,30.3154297 928.457642,26.7828369 928.457642,25.9534912 C928.457642,25.5706177 928.636292,25.2825928 929.039307,25.2825928 C929.442322,25.2825928 930.043965,25.6451113 930,26.5316162 C929.880859,28.93396 929.053955,31.7590332 928.788757,32.7998657 C928.612673,33.4909523 928.057251,33.6175537 927.803528,33.6175537 Z M916.107056,37.0510254 C918.603577,34.5690918 919.431458,33.0949707 920.350464,30.7401733 C920.659545,29.9482043 921.215716,29.9417756 921.572144,30.074707 C921.928571,30.2076385 922.0755,30.9883423 921.89502,31.3162231 C921.425918,32.1684427 920.796753,34.6814575 917.369446,38.0742798 C916.907362,38.5317144 916.484431,38.2768284 916.218567,38.0742798 C915.952703,37.8717312 915.897312,37.2595434 916.107056,37.0510254 Z M922.07135,27.8690796 C922.485564,27.8690796 922.82135,27.5332932 922.82135,27.1190796 C922.82135,26.704866 922.485564,26.3690796 922.07135,26.3690796 C921.657137,26.3690796 921.32135,26.704866 921.32135,27.1190796 C921.32135,27.5332932 921.657137,27.8690796 922.07135,27.8690796 Z M929.07135,22.8690796 C929.485564,22.8690796 929.82135,22.5332932 929.82135,22.1190796 C929.82135,21.704866 929.485564,21.3690796 929.07135,21.3690796 C928.657137,21.3690796 928.32135,21.704866 928.32135,22.1190796 C928.32135,22.5332932 928.657137,22.8690796 929.07135,22.8690796 Z" id="Vuln-Scanning"></path>
            </g>
        </g>
    </g>
</svg>