<?xml version="1.0" encoding="UTF-8"?>
<svg width="50px" height="50px" viewBox="0 0 50 50" version="1.1" xmlns="http://www.w3.org/2000/svg" xmlns:xlink="http://www.w3.org/1999/xlink">
    <!-- Generator: Sketch 41.2 (35397) - http://www.bohemiancoding.com/sketch -->
    <title>Encryption</title>
    <desc>Created with Sketch.</desc>
    <defs></defs>
    <g id="Page-1" stroke="none" stroke-width="1" fill="none" fill-rule="evenodd">
        <g id="Artboard" transform="translate(-500.000000, -200.000000)" fill="#000000">
            <g id="Row-1:-Technology" transform="translate(20.000000, 200.000000)">
                <path d="M482.078835,18.710519 C482.078835,18.710519 482.399128,17.7566003 481.774539,17.6182503 C481.149949,17.4799004 480.976371,18.0439237 480.976371,18.0439237 C479.567045,23.1087776 479.644857,28.4878748 481.461852,33.5495018 C481.591637,34.0037503 482.200823,33.9113083 482.324458,33.8293118 C482.448094,33.7473154 482.810856,33.5153091 482.616178,33.0610605 C481.025092,28.5254898 480.739906,23.5456851 482.078835,18.710519 Z M505.666811,1.25137719 C506.185953,1.25137719 506.251308,0.801587193 506.251308,0.67288388 C506.251308,0.544180566 506.185953,0 505.666811,0 C498.425569,0 493.004046,2.32318627 488.866714,5.89996015 C486.169442,8.2317846 483.907509,11.0722656 482.423245,14.2322786 C482.163674,14.6865272 482.509271,14.9801987 482.657756,15.0500453 C482.806241,15.1198919 483.340312,15.0780965 483.53499,14.8185259 C486.72522,7.80962915 494.661904,1.05075144 505.666811,1.25137719 Z M518.643764,4.05293328 C515.779017,2.19912934 512.670716,0.983575855 509.36119,0.399541975 C508.842049,0.334649322 508.577736,0.487766021 508.577736,0.849270916 C508.577736,1.21077581 508.842049,1.53810706 509.36119,1.66789237 C516.064569,2.9126146 520.827141,6.64562124 523.90668,10.6011112 C523.90668,10.6011112 524.36343,10.8964328 524.776282,10.706919 C525.189134,10.5174052 524.95566,10.0032025 524.95566,10.0032025 C522.732292,6.93349416 519.988799,4.92331715 518.643764,4.05293328 Z M525.869771,13.6102533 C525.869771,13.6102533 525.775442,12.9717432 526.153737,12.8292415 C526.532032,12.6867399 526.906908,12.9623408 526.906908,12.9623408 C528.072686,14.9308055 528.897841,17.4225089 529.508388,20.006405 C529.756592,21.0568315 530,23.1722135 530,25.530085 C530,25.530085 529.847852,25.9892775 529.336274,25.9262079 C528.824697,25.8631384 528.749172,25.3308635 528.749172,25.3308635 C528.646906,21.3637732 528.206579,18.0610801 525.869771,13.6102533 Z M504.628529,45.48975 C504.109388,45.3599647 503.743486,45.6727642 503.607273,46.0870814 C503.28281,46.9955785 502.839022,48.0744119 502.52807,49.0625823 C502.467213,49.2559803 502.487071,49.7623913 503.071105,49.9673431 C503.655139,50.1722948 503.936663,49.4138911 503.936663,49.4138911 C504.101267,48.983028 504.741459,47.408561 505.00103,46.5649565 C505.120086,45.9390848 505.14767,45.6195353 504.628529,45.48975 Z M505.731704,24.2049597 C505.212563,24.334745 505.341174,25.0769439 505.406067,25.5960852 C506.639027,31.436424 506.380631,36.6890781 504.952992,42.0102757 C504.823207,42.5294169 504.812469,43.1812239 505.406067,43.3500601 C505.999665,43.5188962 506.282219,42.6698597 506.412004,42.2805038 C507.904535,36.6997356 507.999012,30.9367183 506.701159,24.8368089 C506.571374,24.3825603 506.250845,24.140067 505.731704,24.2049597 Z M498.593512,19.273118 C497.360552,20.7007564 496.322269,22.5539672 496.127591,24.3709615 C495.994606,26.5022591 496.562134,29.1662598 496.845831,30.2399764 C497.646258,31.486765 498.103882,32.5388667 498.251188,34.9370884 C498.251188,36.1604004 497.822568,39.1288142 496.845831,41.8212503 C495.994606,44.1677047 495.656119,44.5567452 494.829738,46.2130372 C494.63506,46.6672858 494.326215,47.4184507 494.829738,47.7609928 C495.333262,48.103535 495.644519,47.5772435 495.994606,47.2147007 C496.838211,45.2679211 499.109495,40.9131227 499.673152,35.674385 C499.512823,34.0045388 499.673152,32.5922215 498.593512,30.3844834 C497.823927,28.740036 497.415105,26.3242236 497.646258,24.3709615 C497.776044,22.9433231 498.95211,21.1095801 499.990392,20.006405 C500.314856,19.6170491 500.477243,19.273118 499.990392,19.021959 C499.503542,18.7707999 498.982868,18.8837621 498.593512,19.273118 Z M511.986909,18.0343381 C509.449304,16.0699241 505.740186,15.4652396 502.690231,16.5684147 C502.17109,16.7630927 501.826272,17.2613314 502.02095,17.7804727 C502.215628,18.2996139 502.775654,18.1641234 503.294795,18.0343381 C505.695823,17.1907336 509.098369,17.6281619 511.110041,19.1855856 C513.446177,21.0025799 514.170398,22.9714901 514.559754,25.9565521 C514.723999,27.2414551 516.011879,27.4702148 516.011879,26.5022591 C516.011879,23.2821119 514.925594,20.3092363 511.986909,18.0343381 Z M514.616798,29.8370473 C514.521691,32.8611287 514.158692,35.963479 513.843286,38.3515581 C513.389037,41.7259761 512.66254,44.3506246 511.30737,47.6890957 C511.177585,48.2082369 510.93708,48.9030023 511.456221,49.0327876 C511.975363,49.1625729 512.545141,48.7228925 512.610033,48.3984292 C514.783581,41.7115961 515.245765,38.5995158 515.245765,38.5995158 C515.653093,34.7027675 515.896359,33.2924901 515.979467,29.766571 C516.001098,28.8488428 514.658665,28.5058477 514.616798,29.8370473 Z M509.993595,10.0032025 C510.509213,10.1612871 510.903938,10.0818426 511.033723,9.62759398 C511.163508,9.10845275 510.855253,8.67378042 510.336112,8.54399511 C503.133027,6.66210817 495.229537,9.68848961 491.130857,15.8375899 C489.313863,18.5635603 488.080902,21.6017644 487.938072,26.223117 C487.903882,27.3293687 489.481535,27.7961426 489.481535,25.8809664 C489.481535,22.9524165 490.400652,19.6216383 492.078069,16.9931112 C495.600071,11.4741036 503.0253,7.86677635 509.993595,10.0032025 Z M489.123022,32.2991589 C489.816829,33.8036392 489.24897,35.4962814 488.989399,37.1834904 C488.729829,38.740914 488.39827,40.0600956 487.684451,41.6824119 C487.489773,42.1366605 487.483823,42.7725691 487.938072,42.9672471 C488.392321,43.1619251 488.859614,42.8287936 488.989399,42.5043303 C489.862237,40.4671791 490.103175,39.2191918 490.427639,37.5968754 C490.752102,35.7798812 491.045524,33.7060709 490.562692,31.8876502 C490.214924,30.5779047 488.388656,30.7067301 489.123022,32.2991589 Z M522.99315,20.006405 C521.825082,16.5328809 518.797679,12.5036092 515.033905,10.4270443 C514.579656,10.1674736 513.930368,9.97279568 513.670798,10.4270443 C513.411227,10.8812928 513.519328,11.2969856 514.038469,11.5565563 C517.412887,13.4384432 520.488685,17.0597533 521.656753,20.5639566 C522.695035,23.7436966 522.850983,29.9367082 522.850983,32.8050582 C522.411267,36.8783837 521.952624,38.9328745 521.241703,41.8302864 C521.17681,42.3494277 521.137612,42.9156118 521.656753,43.0453971 C522.175894,43.1751824 522.603794,42.6245571 522.668686,42.2352012 C523.382506,38.4714273 524.362819,35.3837091 524.362819,31.486765 C524.362819,28.4859264 524.10111,23.3011846 522.99315,20.006405 Z" id="Encryption"></path>
            </g>
        </g>
    </g>
</svg>