<?xml version="1.0" encoding="UTF-8"?>
<svg width="50px" height="40px" viewBox="0 0 50 40" version="1.1" xmlns="http://www.w3.org/2000/svg" xmlns:xlink="http://www.w3.org/1999/xlink">
    <!-- Generator: Sketch 41.2 (35397) - http://www.bohemiancoding.com/sketch -->
    <title>Speed to Market</title>
    <desc>Created with Sketch.</desc>
    <defs></defs>
    <g id="Page-1" stroke="none" stroke-width="1" fill="none" fill-rule="evenodd">
        <g id="Artboard" transform="translate(-400.000000, -600.000000)" fill="#000000">
            <g id="Row-3:-Benefits" transform="translate(20.000000, 599.000000)">
                <path d="M405,1 C391.214625,1 380,12.2154229 380,26 C380,30.8025077 381.488475,35.247966 383.720927,39.1034043 C384.65564,40.7176514 385.570801,40.3295898 386.585202,39.6968382 C391.891689,36.3868197 398.275213,34.6143637 405,34.6143637 C411.725585,34.6143637 418.055692,36.4393147 423.414798,39.6968382 C424.919067,40.6112061 425.663208,40.1308594 426.279073,39.1034043 C428.577561,35.2688118 430,30.8025077 430,26 C430,12.2146253 418.784577,1 405,1 Z M423.35031,37.3546359 C418.535111,33.7986329 411.644618,32.6616629 405,32.6616629 C398.513044,32.6616629 391.961249,33.87504 387.039109,37.1439659 C385.882152,37.9123327 385.254893,38.1401472 384.391176,36.5166234 C382.725845,33.3863144 381.87608,29.8090305 381.87608,26.0397949 C381.87608,13.289305 392.24951,2.91587524 405,2.91587524 C417.75049,2.91587524 428.12392,13.289305 428.12392,26.0397949 C428.12392,29.9662297 426.795216,33.5740968 425.404114,36.9082193 C424.885139,38.1520727 424.601263,38.2784587 423.35031,37.3546359 Z M406.453275,24.6209042 C406.286571,24.4135214 406.083974,24.2292697 405.8399,24.0888875 C404.784641,23.479501 403.435057,23.8408257 402.825671,24.8968829 C402.216284,25.9521424 402.577609,27.3017261 403.633666,27.9111125 C404.688926,28.520499 406.038509,28.1591743 406.647896,27.1031171 C406.789076,26.8590435 406.872826,26.5982197 406.912708,26.3358007 L419.719395,21.985547 L406.453275,24.6209042 Z M424.761988,22.4609323 C424.679035,21.7989025 424.595284,21.1376703 424.595284,21.1376703 C424.529081,20.6184156 424.06247,20.2395431 423.536834,20.2881983 C423.000032,20.3384488 422.606005,20.813834 422.656255,21.3498389 L422.663434,21.4256134 C422.663434,21.4256134 422.715279,21.9807613 422.767125,22.5351115 C422.779089,23.1468909 422.791054,23.7594678 422.791054,23.7594678 C422.791054,23.769837 422.791851,23.7849919 422.792649,23.795361 C422.823757,24.3576875 423.304725,24.7892033 423.867052,24.7580959 C424.429378,24.7269885 424.860894,24.2460198 424.829787,23.6836933 C424.828989,23.6836933 424.795489,23.0727116 424.761988,22.4609323 Z M423.039116,16.293686 C423.039116,16.293686 422.897936,16.0288741 422.685767,15.6316562 C422.633124,15.5319529 422.575695,15.425071 422.514278,15.3110104 C422.457646,15.1985451 422.368312,15.0701273 422.292537,14.9425071 C422.132215,14.6864691 421.960725,14.4128833 421.790033,14.1392975 C421.604984,13.8848547 421.420732,13.6304119 421.246849,13.391124 C421.158313,13.273873 421.080943,13.1534314 420.992407,13.0513352 C420.906263,12.9476438 420.824107,12.8495358 420.749131,12.759404 C420.44683,12.3980793 420.245828,12.1579938 420.245828,12.1579938 C419.969052,11.8277765 419.476917,11.7719427 419.13314,12.0383499 C418.781387,12.3111381 418.717576,12.8176307 418.990365,13.1693839 L419.024663,13.2132534 C419.024663,13.2132534 419.20014,13.4397792 419.464155,13.779568 C419.530358,13.8641164 419.601346,13.9558434 419.677121,14.0531538 C419.755288,14.1480713 419.820694,14.2613343 419.898063,14.3706091 C420.048017,14.5931468 420.207542,14.8300418 420.367068,15.0669368 C420.505855,15.3070223 420.645439,15.5479054 420.775452,15.7736337 C420.84006,15.8900871 420.906263,15.9858023 420.962097,16.1054462 C421.018728,16.221102 421.072169,16.3311744 421.121622,16.4316753 C421.319433,16.8360719 421.451839,17.1056695 421.451839,17.1056695 C421.455827,17.1136458 421.462208,17.1256102 421.466197,17.1335864 C421.698306,17.5682928 422.239096,17.7326038 422.673005,17.5004945 C423.106914,17.2683853 423.271225,16.7283923 423.039116,16.293686 Z M411.543726,7.88431229 L411.580417,7.90026481 C411.580417,7.90026481 411.847621,8.01432537 412.24803,8.18501739 C412.348531,8.22729158 412.45621,8.2735539 412.571069,8.32300673 C412.687522,8.36847143 412.801582,8.43467441 412.924417,8.49369875 C413.167693,8.61573557 413.426921,8.74495103 413.68615,8.87496411 C413.931819,9.01773921 414.178285,9.15971668 414.408799,9.2937179 C414.524455,9.36311138 414.634528,9.41814759 414.742207,9.49152921 C414.849887,9.56331557 414.951185,9.63031618 415.044508,9.69253103 C415.419392,9.94218805 415.669049,10.1080943 415.669049,10.1080943 C415.67543,10.1120824 415.684204,10.1176658 415.690585,10.121654 C416.030374,10.330632 416.475449,10.2245477 416.684427,9.88475896 C416.893405,9.54497017 416.787321,9.09989471 416.447532,8.89091663 C416.447532,8.89091663 416.191494,8.73378426 415.808634,8.49768688 C415.712918,8.43866254 415.609227,8.37485244 415.499155,8.30705421 C415.390677,8.23925597 415.255879,8.17385062 415.128258,8.10286188 C414.866637,7.96327729 414.588265,7.8149188 414.309096,7.66576269 C414.026736,7.53654724 413.744377,7.40733178 413.479565,7.28609259 C413.346361,7.22786587 413.221932,7.16166289 413.095907,7.11779345 C412.971477,7.06993587 412.854226,7.02447117 412.745749,6.98299461 C412.31184,6.81629072 412.023099,6.70462304 412.023099,6.70462304 C411.704846,6.58258622 411.343522,6.73333759 411.208723,7.04919759 C411.069936,7.37223622 411.21989,7.74632294 411.543726,7.88431229 Z M403.876145,6.5698242 C404.152921,6.5666337 404.448043,6.56344319 404.743164,6.56105031 C405.031905,6.57460996 405.320646,6.58816961 405.591041,6.60093163 C405.727435,6.60970552 405.854258,6.60811026 405.983473,6.62406279 C406.111891,6.63762244 406.23313,6.65038446 406.344798,6.66234885 C406.793064,6.7094088 407.091376,6.74051622 407.091376,6.74051622 C407.096959,6.74131385 407.104936,6.74211148 407.110519,6.74211148 C407.415212,6.76284976 407.679227,6.53393102 407.699965,6.22923779 C407.720703,5.92454456 407.491784,5.66053026 407.187091,5.63979198 C407.187091,5.63979198 406.887981,5.6190537 406.43812,5.58794627 C406.325655,5.57997001 406.204416,5.57199375 406.0752,5.56242223 C405.94758,5.55125546 405.801614,5.55604122 405.657244,5.55205309 C405.365313,5.54886258 405.054239,5.54487445 404.742367,5.54088632 C404.437673,5.55444597 404.132183,5.56880324 403.846632,5.58156526 C403.569058,5.5887439 403.297068,5.61825607 403.064161,5.64298248 C402.60074,5.69084006 402.292059,5.72354274 402.292059,5.72354274 C402.043199,5.7498644 401.857353,5.968414 401.874103,6.21966627 C401.89165,6.47729956 402.114188,6.67192036 402.371821,6.65437259 L402.398941,6.65277733 C402.398941,6.65277733 402.688479,6.63283668 403.12159,6.60332451 C403.34014,6.58737198 403.590594,6.56743132 403.876145,6.5698242 Z M397.542194,6.94231567 C397.542194,6.94231567 397.266216,7.05956673 396.85145,7.23584213 C396.747759,7.27971158 396.635293,7.32756915 396.516447,7.37781961 C396.397601,7.42408193 396.272373,7.49507067 396.14236,7.55648789 C395.883929,7.68570335 395.607951,7.82289506 395.331972,7.96088441 C395.06716,8.11323102 394.802348,8.26637527 394.554286,8.40915037 C394.303034,8.54713971 394.082092,8.69629582 393.891459,8.82391603 C393.510194,9.07676355 393.256549,9.24586032 393.256549,9.24586032 C393.124143,9.33439684 393.083464,9.51226749 393.167214,9.64945921 C393.253358,9.78984143 393.436812,9.83371088 393.576397,9.74756724 L393.592349,9.73799572 C393.592349,9.73799572 393.844399,9.58325623 394.222474,9.35114699 C394.410714,9.23389593 394.629263,9.09670421 394.877325,8.97227451 C395.121399,8.84226143 395.382223,8.70427209 395.643046,8.56628274 C395.908656,8.44504355 396.175063,8.32380436 396.42472,8.21054143 C396.551543,8.15550522 396.664806,8.09408799 396.788438,8.05101618 C396.908879,8.00475385 397.02294,7.96088441 397.128226,7.92100309 C397.548575,7.75988259 397.82934,7.65220304 397.82934,7.65220304 C397.833328,7.65060779 397.838114,7.64901254 397.842102,7.64741729 C398.036723,7.56446415 398.127652,7.34033117 398.044699,7.14571037 C397.961746,6.95029193 397.736815,6.86016016 397.542194,6.94231567 Z M389.681588,12.5432473 C389.681588,12.5432473 389.497336,12.7801423 389.22056,13.135086 C389.151166,13.2236225 389.076189,13.3201353 388.997224,13.4214338 C388.915866,13.5203395 388.84408,13.6415787 388.761925,13.7580321 C388.601602,13.9949271 388.43091,14.246977 388.260218,14.4998245 C388.107871,14.7622436 387.955524,15.023865 387.812749,15.2695339 C387.744153,15.3939636 387.667581,15.5080241 387.612545,15.6260728 C387.555116,15.7425262 387.500877,15.8533963 387.451425,15.9554925 C387.252018,16.3630795 387.118814,16.6342724 387.118814,16.6342724 C387.088505,16.6956896 387.112433,16.7706665 387.173053,16.8033692 C387.235268,16.8368695 387.312638,16.8129407 387.346138,16.7507258 C387.350126,16.7427496 387.490508,16.4803305 387.701879,16.0863032 C387.754523,15.9881951 387.811154,15.8813132 387.871774,15.7688479 C387.929203,15.6547874 388.008965,15.5447149 388.080752,15.425071 C388.22911,15.1889736 388.387838,14.9377213 388.545768,14.6856714 C388.71965,14.4471812 388.89433,14.2078933 389.057046,13.9837603 C389.140797,13.8728903 389.211786,13.7612226 389.297132,13.6639122 C389.380085,13.5650065 389.458252,13.4716843 389.530836,13.3855406 C389.820375,13.0401685 390.012602,12.8104521 390.012602,12.8104521 C390.089972,12.7123441 390.073222,12.5783429 389.9799,12.5057589 C389.887375,12.4339725 389.753374,12.4507226 389.681588,12.5432473 Z M385.801136,21.2772549 C385.801136,21.2772549 385.744504,21.8866414 385.687873,22.4960278 C385.675908,23.1086048 385.663944,23.7219794 385.663944,23.7219794 C385.663944,23.7219794 385.697444,23.1117953 385.730945,22.5008136 C385.809112,21.89382 385.887279,21.2868264 385.887279,21.2868264 C385.889672,21.2613024 385.872125,21.2405641 385.848196,21.2381712 C385.824267,21.2357783 385.803529,21.2533261 385.801136,21.2772549 Z" id="Speed-to-Market"></path>
            </g>
        </g>
    </g>
</svg>