<?xml version="1.0" encoding="UTF-8"?>
<svg width="42px" height="47px" viewBox="0 0 42 47" version="1.1" xmlns="http://www.w3.org/2000/svg" xmlns:xlink="http://www.w3.org/1999/xlink">
    <!-- Generator: Sketch 41.2 (35397) - http://www.bohemiancoding.com/sketch -->
    <title>VMs</title>
    <desc>Created with Sketch.</desc>
    <defs></defs>
    <g id="Page-1" stroke="none" stroke-width="1" fill="none" fill-rule="evenodd">
        <g id="Artboard" transform="translate(-600.000000, -800.000000)" fill="#000000">
            <g id="Row-4:-Innovation" transform="translate(20.000000, 800.000000)">
                <path d="M580,4 L580,11 C580,12.9980469 582,15 584,15 C584,15 594.025798,15 599.038696,15 C599.359131,15 600,15.5493164 600,16.0986328 L600,19 L584,19 C582.018311,19.0611572 579.919067,21.0213623 580,23 L580,29 C579.908936,32.1884766 582,34.0054932 584.195601,34 C584.195601,34 594.084487,34 599.028931,34 C599.35262,34 600,34.7260742 600,35.0891113 C600,36.3927409 600,39 600,39 C599.394897,39.2168579 597.773376,39.6019287 597,42 L581,42 C581,42 580,42 580,43 C580,44 581,44 581,44 L597,44 C597.473267,45.3508911 598.820251,47.0222778 601,47 C603.179749,46.9777222 604.410583,45.4732666 605,44 L621,44 C621,44 622.024902,44 622.024902,43 C622.024902,42 621,42 621,42 L605,42 C604.526843,40.6770323 603.820068,39.5748901 602,39 L602,35.1297607 C602,34.7531738 602.673747,34 603.01062,34 C608.00708,34 618,34 618,34 C620,34 622.082275,32.1253662 622,29 L622,24 C622.050415,20.97229 620,19.0668945 618,19 L602,19 L602,16.1021729 C602,15.5510864 602.641276,15 602.961914,15 L618,15 C619.979736,14.9519043 621.901855,13.1455078 622,11 L622,4 C622,2.00061035 620.031006,-1.13686838e-13 618,-1.13686838e-13 L584,-1.13686838e-13 C582.010864,-1.13686838e-13 580,2.05908203 580,4 Z M618,21 C619,21.019165 619.996826,22 620,23 L620,29.9047928 C620.050293,31 619,32.0045166 618,32 L584,32 C582.987305,31.9805908 582.00647,31.0550537 582,30 L582,23 C582.011108,22.0551758 583,21.0159912 584,21 L618,21 Z M593.5,25 C592.671573,25 592,25.67158 592,26.5 C592,27.32848 592.671573,28 593.5,28 C594.328428,28 595,27.32848 595,26.5 C595,25.67158 594.328428,25 593.5,25 Z M587.5,25 C586.671573,25 586,25.67158 586,26.5 C586,27.32848 586.671573,28 587.5,28 C588.328427,28 589,27.32848 589,26.5 C589,25.67158 588.328427,25 587.5,25 Z M618,2 C619.032593,2.02172852 620,2.97045898 620,4 L620,11 C620,12.038208 619.007446,13.0203857 618,13 L584,13 C582.997437,13 582,12.0211182 582,11 L582,4 C582,2.9967041 582.950562,2 584,2 L618,2 Z M587.5,6 C586.671573,6 586,6.671574 586,7.5 C586,8.328426 586.671573,9 587.5,9 C588.328427,9 589,8.328426 589,7.5 C589,6.671574 588.328427,6 587.5,6 Z M593.5,6 C592.671573,6 592,6.671574 592,7.5 C592,8.328426 592.671573,9 593.5,9 C594.328428,9 595,8.328426 595,7.5 C595,6.671574 594.328428,6 593.5,6 Z M601.000001,40.5 C602.410324,40.5 603.5,41.5895 603.5,43 C603.5,44.41025 602.410324,45.5 601.000001,45.5 C599.589677,45.5 598.5,44.41025 598.5,43 C598.5,41.5895 599.589677,40.5 601.000001,40.5 Z" id="VMs"></path>
            </g>
        </g>
    </g>
</svg>