<?xml version="1.0" encoding="UTF-8"?>
<svg width="50px" height="50px" viewBox="0 0 50 50" version="1.1" xmlns="http://www.w3.org/2000/svg" xmlns:xlink="http://www.w3.org/1999/xlink">
    <!-- Generator: Sketch 41.2 (35397) - http://www.bohemiancoding.com/sketch -->
    <title>Business</title>
    <desc>Created with Sketch.</desc>
    <defs></defs>
    <g id="Page-1" stroke="none" stroke-width="1" fill="none" fill-rule="evenodd">
        <g id="Artboard" transform="translate(-400.000000, -400.000000)" fill="#000000">
            <g id="Row-2:-HITRUST" transform="translate(20.000000, 400.000000)">
                <path d="M417.802441,36.0726465 C418.220164,36.0426442 418.736572,35.7919213 419.521836,35.3231139 C419.583645,35.2862138 419.642852,35.2490478 419.699563,35.21153 C420.842539,34.4553808 420.941181,33.9090701 420.708697,32.0578068 C420.679231,31.8231677 420.659005,31.6405994 420.642874,31.4523526 C420.624833,31.2418211 420.570427,31.0208392 420.481787,30.7884262 C420.513687,30.7788622 420.546646,30.7690519 420.580651,30.759007 C421.146985,30.5917115 421.790087,30.4240809 422.49687,30.2674776 C424.377387,29.8508081 426.344794,29.5893936 428.313567,29.5553906 C426.188847,40.4928434 416.558705,48.75 405,48.75 C393.545766,48.75 383.985389,40.6414294 381.745879,29.851296 C382.154542,29.8602701 382.659451,29.8859345 383.233601,29.936652 C384.502094,30.0487043 385.759285,30.257186 386.927342,30.5838095 C387.596566,30.7709444 388.218521,30.9924568 388.784725,31.2499566 C388.374459,31.8558464 388.303236,32.0889798 388.047363,32.5712891 C388.047363,35.5427246 390.463867,36.6112671 391.25647,36.3285522 C391.47583,38.6135864 393.325195,39.6257324 395.564392,39.0968018 C395.743347,39.6942749 396.056152,41.5791016 399.298096,41.5791016 C399.81842,41.9807129 400.661621,42.8389856 402.44043,42.9309082 C402.792053,42.8389856 403.505432,42.9309082 404.524414,41.888916 C405.47624,42.3631344 407.353708,42.7227936 408.05835,42.7856445 C408.706548,42.843461 410.000491,41.7091633 410.425038,41.0698768 C411.128069,41.3018866 411.801143,41.3182615 412.363679,41.1556371 C412.376605,41.1519176 412.376605,41.1519176 412.39027,41.1481086 C412.38469,41.1496535 412.596004,41.0937939 412.671005,41.0717099 C412.812323,41.0300984 412.938161,40.9846916 413.062697,40.9268466 C413.694073,40.6335841 414.106534,40.0944916 414.251675,39.2615159 C415.220282,39.2726574 416.501961,38.8517667 416.927666,38.1342746 C417.286357,37.5284325 417.338988,37.436341 417.458071,37.1855634 C417.627517,36.8287283 417.738363,36.4799676 417.802441,36.0726465 Z M416.612679,35.4293184 C416.33519,35.107294 415.449554,33.8615268 415.276498,33.6409023 C414.955145,33.231217 414.651307,32.8976705 414.340466,32.6248557 C413.9561,32.2874813 413.227983,31.6667464 412.257093,30.8466087 C412.241028,30.833039 412.241028,30.833039 412.224963,30.8194698 C411.693494,30.3705928 411.123956,29.8912302 410.554404,29.4129666 C410.212666,29.1260034 409.946902,28.9032072 409.795124,28.7761269 L410.597584,27.8177124 C410.749792,27.9451531 411.016004,28.1683248 411.358235,28.4557026 C411.928631,28.9346738 412.499041,29.4147708 413.031524,29.8645042 C413.047626,29.8781039 413.047626,29.8781039 413.063726,29.8917044 C414.040795,30.7170606 414.772672,31.3410016 415.165035,31.6853952 C415.540911,32.0152899 415.894632,32.4035962 416.260029,32.869431 C416.483942,33.1548924 417.389993,34.4302827 417.560393,34.6143779 C417.844528,34.9213508 417.736089,34.9333995 418.881081,34.2498326 C418.926615,34.2226487 418.969518,34.1957172 419.009877,34.1690176 C419.622102,33.7639922 419.646308,33.6299318 419.468438,32.2135601 C419.437097,31.9639887 419.415193,31.7662666 419.397438,31.5590759 C419.363746,31.165898 418.969089,30.4872459 418.284556,29.6597426 C418.002435,29.3186995 417.677736,28.9589807 417.317643,28.5851616 C416.911611,28.1636526 416.478316,27.7421713 416.023068,27.319376 C415.736367,27.0531133 415.490945,26.8319725 415.188713,26.5623587 C415.053773,26.4408266 414.938008,26.334678 414.809163,26.2147094 C414.800519,26.2066596 414.800519,26.2066596 414.791886,26.1986131 C414.857357,26.2596438 414.303276,25.7404929 414.077035,25.5313024 C413.692718,25.1759512 413.212191,24.7383473 412.554357,24.1462545 C411.896052,23.553142 410.871755,22.9752536 409.543711,22.407662 C408.47121,21.9492869 405.684276,20.9724393 405.604954,20.9379893 C404.79299,20.585823 402.720104,20.1323662 401.743362,20.0500797 C401.18656,20.0027932 399.79579,20.8315181 398.983836,21.7230175 C398.118584,22.6718126 396.109383,23.1808069 394.072561,23.2960994 C391.935587,23.4170608 391.02127,23.2576297 390.251167,22.1664859 C389.812652,21.5448778 389.669569,21.151068 389.754235,20.6918671 C389.774502,20.5819439 389.96422,19.948465 389.857134,20.3152894 C389.893438,20.1909298 389.914356,20.086526 389.925304,19.9521007 C389.93003,19.9038231 389.93003,19.9038231 389.937476,19.8565821 C390.075008,19.0583831 390.545471,18.758868 392.759514,17.6413122 C393.511016,17.2619856 393.909747,17.0459925 394.262473,16.8136852 C394.655086,16.5552131 394.984777,16.3155579 395.337261,16.0372051 C395.42082,15.9712196 395.506792,15.9021988 395.601366,15.8253067 C395.600174,15.8262756 396.341723,15.2160278 396.595619,15.0132218 C397.038483,14.6594723 397.486251,14.3204672 398.01658,13.9424141 C399.455368,12.9167527 400.591214,12.7138249 403.607744,12.6530617 C404.524451,12.6345961 404.874414,12.6253455 405.398133,12.6012838 C406.220025,12.5635161 406.973071,12.5919877 407.733277,12.6885053 C408.754678,12.8181847 409.787311,13.0655695 411.24794,13.5111812 C411.639281,13.6305723 412.738683,13.9838763 413.815654,14.3307504 L413.132789,13.762568 C413.830769,12.923708 413.207076,11.9991015 411.860233,11.9013148 C411.272512,11.8587636 408.015303,11.6775556 407.617654,11.6535706 C405.606543,11.5322667 404.224158,11.4195586 403.359985,11.2895803 C401.13493,10.9563582 398.654349,11.2568748 396.448986,12.3427947 C396.049557,12.539821 395.590096,12.7486508 395.076236,12.9680866 C394.590497,13.175514 394.059868,13.3908309 393.491278,13.6122791 C392.484449,14.0044084 391.407275,14.3972744 390.330313,14.7722928 C389.953534,14.9034944 389.603604,15.0231258 389.28941,15.1288313 C389.100473,15.1923958 388.965112,15.2372974 388.778675,15.2869586 C386.267406,15.6152656 384.515917,15.6152656 383.385172,15.410416 C383.346848,15.4034731 383.310097,15.3964431 383.274889,15.3893532 C381.973142,18.3276452 381.25,21.5793732 381.25,25 C381.25,26.223089 381.342455,27.4245841 381.520756,28.5978778 C381.996508,28.6012572 382.619121,28.6275045 383.343591,28.6915006 C384.683453,28.8098572 386.014374,29.0305655 387.263966,29.3799888 C388.030027,29.5942024 388.74479,29.8517438 389.399256,30.1567664 C389.796038,29.4105506 390.058496,29.3073977 390.463867,28.8369141 C391.921875,28.1205444 392.781921,28.4517212 393.325195,28.6469116 C393.953735,28.9952393 394.391479,30.0839233 394.520813,30.6604004 C395.839844,30.3286743 397.384399,30.9037476 397.907227,32.2988892 C398.373047,32.180542 399.403931,31.5858154 400.489258,33.3618164 C400.681152,34.2332153 400.784973,34.8212891 401.026428,35.9104614 C404.030884,36.423645 404.119629,38.7844849 403.959229,39.9836426 C403.959229,40.3302746 406.294678,41.40625 407.897339,41.5791016 C408.547315,41.6492033 408.888571,41.1558293 409.242238,40.479175 C409.174789,40.4334542 409.107472,40.3856131 409.040356,40.3356203 C408.596322,40.0048153 407.770063,39.3852385 406.671618,38.5598944 C406.667701,38.5569514 406.667701,38.5569514 406.663784,38.5540085 C406.069137,38.107202 405.432526,37.628499 404.796244,37.1497985 C404.117661,36.6391918 404.117661,36.6391918 403.948058,36.5115106 L404.699859,35.5128644 C404.869339,35.6404522 404.869339,35.6404522 405.547739,36.1509216 C406.183832,36.62948 406.820247,37.1080358 407.414667,37.5546709 C407.418582,37.5576126 407.418582,37.5576126 407.422497,37.5605542 C408.519542,38.3848463 409.344958,39.003791 409.787103,39.3331885 C410.639767,39.9683138 411.463024,40.1148233 412.015884,39.9549964 C412.036534,39.9490577 412.036534,39.9490577 412.056725,39.9434311 C412.066055,39.9408477 412.262951,39.8887997 412.317928,39.8726116 C412.404242,39.8471962 412.474014,39.8220201 412.536125,39.7931703 C412.876139,39.6352399 413.059844,39.3220387 413.059844,38.5361607 C413.059844,38.1735664 412.406518,37.2882859 411.284853,36.1963769 C410.959085,35.8792512 410.599117,35.5478962 410.210735,35.205941 C409.550915,34.6249941 408.842321,34.0419977 408.133547,33.4861226 C407.708444,33.1527244 407.378612,32.903109 407.192122,32.7658181 L407.933191,31.7591819 C407.983177,31.7959808 408.075059,31.864507 408.202883,31.961243 C408.414909,32.1217032 408.650911,32.303302 408.904949,32.5025381 C409.631063,33.0720119 410.357356,33.6695707 411.036765,34.2677644 C411.440007,34.622804 411.815109,34.9680904 412.156775,35.3006925 C413.267069,36.3815309 413.979672,37.2626874 414.219649,38.005831 C414.389786,38.0072209 414.587917,37.9934135 414.783332,37.9638811 C415.329552,37.8813326 415.734449,37.6956528 415.852347,37.4969452 C416.185151,36.9348266 416.233708,36.8498622 416.328912,36.6493736 C416.500783,36.287431 416.585277,35.9480551 416.612679,35.4293184 Z M419.864589,29.6701232 C419.969976,29.6371372 420.090852,29.6002959 420.226527,29.5602173 C420.81964,29.3850114 421.490519,29.2101406 422.226464,29.0470759 C424.256921,28.5971838 426.385635,28.3210139 428.522219,28.3025909 C428.672379,27.2232454 428.75,26.1206874 428.75,25 C428.75,22.3371631 428.311771,19.7766801 427.503499,17.3867371 C427.346963,17.4021034 427.098542,17.4222641 426.768967,17.4422637 C423.805527,17.6220941 420.448503,17.4579972 417.252546,16.683609 C416.74715,16.5611502 416.254135,16.4244838 415.774617,16.273063 C414.94382,16.010804 411.61825,14.931034 410.883185,14.7067788 C409.484448,14.2800493 408.514889,14.0477748 407.575838,13.9285509 C406.887876,13.8412056 406.206654,13.8154495 405.455508,13.8499664 C404.917379,13.8746901 404.560498,13.8841235 403.632918,13.9028081 C400.859425,13.9586758 399.908992,14.1284781 398.74217,14.9602644 C398.230887,15.3247405 397.801244,15.6500233 397.375758,15.9898908 C397.130364,16.185906 396.394981,16.7910797 396.389921,16.7951934 C396.291006,16.8756154 396.200494,16.9482807 396.111947,17.0182055 C395.732243,17.3180537 395.373644,17.5787222 394.949915,17.8576797 C394.544059,18.124978 394.116832,18.3564071 393.322774,18.7572144 C391.78688,19.5324692 391.197039,19.9079852 391.169324,20.0688323 C391.170325,20.0624999 391.170325,20.0624999 391.171115,20.0543465 C391.152788,20.2793844 391.115588,20.4650534 391.057051,20.6655753 C391.113194,20.4732552 390.989394,20.8866311 390.983515,20.9185159 C390.973349,20.9736541 391.009382,21.0728296 391.272505,21.4458144 C391.690665,22.0382959 392.299506,22.1444606 394.001919,22.0480971 C395.718211,21.950948 397.494647,21.5009204 398.059956,20.8810293 C399.107868,19.730454 400.809827,18.7162995 401.848718,18.8045276 C402.950292,18.8973306 405.151734,19.3789097 406.102619,19.7913291 C406.127778,19.8022559 408.910116,20.7774926 410.034962,21.2582393 C411.478709,21.8752813 412.608991,22.512964 413.390828,23.2173755 C414.052352,23.8127897 414.536939,24.2540904 414.925655,24.6135101 C415.155508,24.8260398 415.712354,25.3477813 415.644219,25.2842676 C415.652597,25.2920756 415.652597,25.2920756 415.660971,25.2998745 C415.784942,25.4153045 415.895648,25.5168145 416.025219,25.6335108 C416.325428,25.9012702 416.578958,26.1297168 416.873701,26.4034487 C417.344796,26.8409608 417.794227,27.2781383 418.2179,27.7179607 C418.598546,28.1131164 418.943921,28.4957408 419.247718,28.862988 C419.48051,29.1444 419.686755,29.413159 419.864589,29.6701232 Z M427.054453,16.1703018 C423.550362,7.42590112 414.99641,1.25 405,1.25 C395.765738,1.25 387.762367,6.52007232 383.83349,14.2166147 C384.838865,14.3586666 386.389978,14.3393967 388.503085,14.0732903 C388.572913,14.0504151 388.705138,14.0065535 388.890821,13.9440834 C389.200994,13.8397312 389.546788,13.7215138 389.919249,13.5918157 C390.982974,13.2214064 392.046487,12.8335229 393.037633,12.4475019 C393.594393,12.230661 394.112788,12.0203083 394.58533,11.8185165 C395.079591,11.6074503 395.518845,11.4078044 395.896406,11.2215656 C398.345077,10.0158402 401.081176,9.68436837 403.545511,10.053425 C404.360395,10.1759898 405.719894,10.286832 407.692913,10.4058383 C408.080954,10.4292436 411.350496,10.6111378 411.950623,10.6545873 C414.14667,10.8140298 415.486102,12.7331054 414.183419,14.449225 C415.029653,14.7218746 415.808601,14.972989 416.150961,15.0810624 C416.602887,15.2237704 417.068574,15.3528612 417.546906,15.4687625 C420.602161,16.2090581 423.843411,16.3674958 426.693253,16.1945589 C426.829228,16.1863075 426.949928,16.1780867 427.054453,16.1703018 Z M405,50 C418.807119,50 430,38.8071187 430,25 C430,11.1928812 418.807119,0 405,0 C391.192881,0 380,11.1928812 380,25 C380,38.8071187 391.192881,50 405,50 Z M397.430604,35.4275627 C397.472452,35.1683603 397.564773,34.7611743 397.706811,34.3636317 C397.848727,33.9664278 398.011157,33.688623 398.131166,33.6053804 C398.690377,33.2174901 399.235843,33.3472778 399.365164,34.1308771 C399.412098,34.4160264 399.464875,34.6915602 399.524713,34.9699645 C399.597788,35.3099559 399.81159,36.1859379 399.817038,36.2099525 C399.885444,36.5115227 399.905726,36.6781126 399.893357,36.7666356 L399.946838,36.5869891 C399.914872,36.6549139 399.861493,36.7738654 399.793792,36.9340865 C399.681872,37.1989541 399.570086,37.4851186 399.46551,37.78316 C399.387538,38.0053774 399.316506,38.2261242 399.253987,38.4434898 C399.180326,38.6991315 399.124992,38.9920416 399.084393,39.3168061 C399.015614,39.866993 398.941589,40.2788696 398.941589,40.2788696 C398.941589,40.2788696 398.521639,40.3105425 398.07293,40.1951275 C397.375009,40.015611 396.965282,39.6674342 396.860709,39.0761534 C396.664015,37.9701531 396.753793,37.3970029 397.160811,36.2607651 C397.169834,36.235579 397.169834,36.235579 397.178901,36.2102605 C397.294176,35.8883058 397.353474,35.7126913 397.414395,35.500176 L397.430604,35.4275627 Z M400.621521,38.119873 C400.788696,37.6690063 400.788696,37.6690063 400.788696,37.3672485 C400.788696,37.0697684 400.958727,36.8484523 401.13714,36.9074149 C401.759412,37.1130657 402.041326,37.5129626 402.153687,37.6690063 C402.371277,37.9711914 402.684814,38.6008301 402.684814,38.6008301 C402.762085,39.256883 402.770203,40.1918335 402.931763,40.4526978 C403.188286,40.8668956 403.588989,41.4293213 403.588989,41.4293213 C403.588989,41.4293213 402.602395,41.9845557 402.153687,41.8691406 C401.455765,41.6896241 400.292805,41.3802822 400.188232,40.7890015 C399.991538,39.6830011 400.310462,39.0378558 400.621521,38.119873 Z M393.594797,34.0208936 C393.603782,34.0038501 393.603782,34.0038501 393.612763,33.9868103 C394.210797,32.8521333 394.407464,32.4919699 394.542799,32.3045495 C394.595428,32.2316841 394.595428,32.2316841 394.643197,32.1665659 C394.937231,31.7698032 395.07779,31.7229202 395.890178,31.9609833 C396.229855,32.0605647 396.462113,32.2742867 396.622145,32.5905082 C396.769093,32.8808772 396.877848,33.1009719 396.877848,33.1009719 C396.776194,33.3414905 396.669622,33.62754 396.558082,33.9559088 C396.43171,34.3279405 396.300087,34.7509802 396.164647,35.215941 C395.984999,35.8326628 395.807519,36.491879 395.639792,37.1508816 C395.539171,37.5462227 395.464019,37.8542107 395.422144,38.0315482 C395.422144,38.0315482 394.223929,38.1346633 393.24555,37.651378 C392.824112,37.4433697 392.617716,37.066285 392.574462,36.5367305 C392.557261,36.3261441 392.568949,36.1072911 392.601514,35.9061968 C392.613844,35.8300538 392.642605,35.7239135 392.582452,35.8056788 C392.785783,35.5312403 393.040929,35.0714993 393.594797,34.0208936 Z M390.196694,31.3578722 C390.291441,31.1398689 390.468078,30.7959827 390.69484,30.4584012 C390.9794,30.0347739 391.258525,29.7712854 391.421541,29.7381312 C392.556384,29.5079192 392.93638,29.6239341 393.182804,30.5799327 C393.431475,31.5446514 393.460289,31.7775876 393.400687,31.9397705 C393.381248,31.9926654 393.347806,32.0593211 393.28536,32.1678919 C393.269888,32.1947927 393.096083,32.4887676 393.031265,32.6025443 C393.009093,32.6414153 392.7955,33.0237859 392.720172,33.1548447 C392.579401,33.3997629 392.449346,33.6126678 392.315458,33.8131649 C391.538568,34.9765603 390.94215,35.31793 390.380257,34.8479551 C390.327133,34.8030163 390.327133,34.8030163 390.276218,34.7581202 C389.442849,34.0155874 389.223085,33.2964705 389.3011,32.7276795 C389.303982,32.7066664 389.305615,32.698397 389.304137,32.704237 L389.240889,32.8610098 C389.289822,32.7760095 389.289822,32.7760095 389.340834,32.6897281 C389.387737,32.6108669 389.43736,32.5293475 389.489361,32.4456128 C389.630289,32.2186864 389.782,31.9860363 389.933779,31.7610482 C390.024733,31.6262238 390.095073,31.5245246 390.134302,31.468883 L390.196694,31.3578722 Z" id="Business"></path>
            </g>
        </g>
    </g>
</svg>