<?xml version="1.0" encoding="UTF-8"?>
<svg width="50px" height="56px" viewBox="0 0 50 56" version="1.1" xmlns="http://www.w3.org/2000/svg" xmlns:xlink="http://www.w3.org/1999/xlink">
    <!-- Generator: Sketch 41.2 (35397) - http://www.bohemiancoding.com/sketch -->
    <title>HITRUST: Infra</title>
    <desc>Created with Sketch.</desc>
    <defs></defs>
    <g id="Page-1" stroke="none" stroke-width="1" fill="none" fill-rule="evenodd">
        <g id="Artboard" transform="translate(-500.000000, -400.000000)" fill="#000000">
            <g id="Row-2:-HITRUST" transform="translate(20.000000, 400.000000)">
                <path d="M480,50 L486.528302,50 L486.528302,48.5 L481.5,48.5 L481.5,1.5 L519.5,1.5 L519.5,28 L521,28 L521,0.0049509434 L480,0 L480,50 Z M513.404764,29 C519.629882,29 524.017272,34.4368929 523.700547,39.9821429 C527.313331,40.8821905 530.000002,44.1511693 530.000002,48.0357241 C530.000002,52.6125931 526.540527,56 521.702383,56 L497.785714,56 C492.507568,56 489,52.8563479 489,48.5238193 C489,45.0191003 491.38332,41.6152217 494.902926,40.821081 C495.022949,37.9496655 496.388639,35.8052191 498.27381,34.6741071 C500.12247,33.5649107 502.405585,33.4300012 504.420783,34.2775298 C506.036427,31.3645286 509.21925,29 513.404764,29 L513.404764,29 Z M505.353351,35.5703789 C505.239092,35.7944834 504.964944,35.8837441 504.740642,35.769873 C503.05942,34.9292621 501.045374,35.0373765 499.4683,35.9836394 C497.891225,36.9298567 496.732381,38.702139 496.732381,41.2987079 C496.728177,41.5197655 496.566007,41.7059625 496.34762,41.7404766 C493.360271,42.2416968 490.599998,44.8813477 490.599998,48.1385127 C490.599998,52.6523438 493.560547,54.522322 498.5,54.522322 L520.899661,54.522322 C525.984863,54.522322 528.98999,51.8955078 528.600006,47.6825263 C528.29993,44.4408167 525.366413,41.5734853 522.224849,40.9567181 C521.989722,40.9132998 521.828053,40.6956512 521.854406,40.4580058 C522.340031,35.6755294 519.806591,30.5 513.147893,30.5 C508.685059,30.5 506.649675,32.9777316 505.353351,35.5703789 Z M494.4,35.5 C494.4,35.5 495,35.5 495,34.7438965 C495,33.987793 494.4,34 494.4,34 L486.6,34 C486.6,34 486,34.0803223 486,34.7901611 C486,35.5 486.6,35.5 486.6,35.5 L494.4,35.5 Z M506.16,27.5 C506.16,27.5 507,27.5 507,26.8010254 C507,26.1020508 506.16,26 506.16,26 L486.84,26 C486.84,26 486,26.0974121 486,26.7987061 C486,27.5 486.84,27.5 486.84,27.5 L506.16,27.5 Z M504,18 C504,18 503,18.1091309 503,18.8045654 C503,19.5 504,19.5 504,19.5 L512,19.5 C512,19.5 513,19.5 513,18.75 C513,18 512,18 512,18 L504,18 Z M514.044471,11.5 C514.044471,11.5 515,11.5 515,10.7337646 C515,9.9675293 514.044471,10 514.044471,10 L503.955529,10 C503.955529,10 503,10.0588379 503,10.7794189 C503,11.5 503.955529,11.5 503.955529,11.5 L514.044471,11.5 Z M492.230128,6.34596226 C489.552514,6.34596226 487.37555,8.55018922 487.37555,11.2458428 C487.37555,12.3832819 487.766278,13.4304638 488.415539,14.2639516 L486.154234,20.1597366 L489.129302,18.9452656 L490.580612,21.7515365 L492.226705,17.21982 L493.951049,21.7424296 L495.30717,18.9123762 L498.320755,20.2379287 L495.964262,14.3705086 C496.663698,13.5210111 497.084705,12.4312529 497.084705,11.2458428 C497.084705,8.55018922 494.907741,6.34596226 492.230128,6.34596226 L492.230128,6.34596226 L492.230128,6.34596226 Z M492.230003,7.69999695 C494.166541,7.69999695 495.730003,9.25815868 495.730003,11.2005128 C495.730003,13.1428125 494.166541,14.6999969 492.230003,14.6999969 C490.293466,14.6999969 488.730003,13.1428125 488.730003,11.2005128 C488.730003,9.25815868 490.293466,7.69999695 492.230003,7.69999695 L492.230003,7.69999695 Z M489.317358,15.1533572 C489.921954,15.6138085 490.633281,15.9355096 491.409865,16.0698515 L490.393658,18.8659714 L489.673108,17.4713338 L488.196914,18.0740159 L489.317358,15.1533572 L489.317358,15.1533572 L489.317358,15.1533572 Z M495.055657,15.22018 L496.184047,18.0309754 L494.746369,17.3976662 L494.072281,18.803615 L493.031132,16.0721138 C493.777611,15.9460667 494.465214,15.6492502 495.055657,15.22018 L495.055657,15.22018 L495.055657,15.22018 Z" id="HITRUST:-Infra"></path>
            </g>
        </g>
    </g>
</svg>