<?xml version="1.0" encoding="UTF-8"?>
<svg width="50px" height="45px" viewBox="0 0 50 45" version="1.1" xmlns="http://www.w3.org/2000/svg" xmlns:xlink="http://www.w3.org/1999/xlink">
    <!-- Generator: Sketch 41.2 (35397) - http://www.bohemiancoding.com/sketch -->
    <title>Brain Cog</title>
    <desc>Created with Sketch.</desc>
    <defs></defs>
    <g id="Page-1" stroke="none" stroke-width="1" fill="none" fill-rule="evenodd">
        <g id="Artboard" transform="translate(-400.000000, -1200.000000)" fill="#000000">
            <g id="Row-6:-Journey" transform="translate(20.000000, 1200.000000)">
                <path d="M400.463268,44.7308457 C395.675113,44.7308457 392.448174,42.7845738 390.482627,38.7643915 C387.280959,38.870614 385.395936,37.5222725 384.350415,36.3315516 C382.362596,34.0648986 381.896159,30.6709156 382.286784,28.2612048 C380.886188,26.7124109 380,24.3044133 380,21.9752261 C380,18.5940926 381.43786,15.6207168 383.708796,14.2047012 C383.703656,14.0916255 383.700658,13.9768367 383.700658,13.8611911 C383.700658,9.88041395 386.120648,6.7211486 389.650836,5.99044 C390.885674,3.00507123 395.024928,0 399.729989,0 L403.471885,0 C403.956312,0 405,0.228881836 405,1 L405,43 C405,43.7349854 404.59931,44.1504463 404.182129,44.2258301 C402.679593,44.4999529 401.739224,44.7308457 400.463268,44.7308457 Z M391.149137,20.3767676 C392.727994,21.1158169 395.143853,20.6324606 396.463216,19.2477042 C397.802563,17.8402549 399.229715,17.1249657 400.705267,17.1232525 C401.654278,17.1232525 402.588824,17.4176766 403.5,18.001161 L403.5,10.3134712 C402.978034,10.4221353 402.461596,10.4749177 401.95895,10.4749177 C399.932615,10.4749177 398.129656,9.61490159 397.085022,8.080764 C396.879431,7.77883658 396.858521,7.02307129 397.273443,6.83459216 C397.688365,6.64611304 398.160028,7.11378495 398.331312,7.33932564 C399.363993,8.69911867 401.453172,9.27447955 403.5,8.73121158 L403.5,1.5 L399.108521,1.5 C394.587207,1.5 391.514049,4.70311643 390.875,6.85498047 C390.863295,6.89437172 390.852061,6.93009288 390.840779,6.96253614 C390.898399,11.6461217 393.063949,12.9966242 396.55102,13.1647938 C396.817541,13.1776472 397.37339,13.543457 397.37339,13.9527588 C397.37339,14.3620605 396.857756,14.7114809 396.602614,14.7026918 C392.929081,14.5761462 389.684728,13.4099581 389.441069,7.49979303 C386.984037,8.22170131 385.200562,10.4333589 385.200562,13.3520508 C385.200562,13.6047577 385.174434,14.2416992 385.200562,14.4858398 C385.23911,14.8524791 384.891636,15.2763266 384.560547,15.4390869 C382.611705,16.393377 381.498535,18.8053043 381.498535,21.7324219 C381.498535,23.7575042 382.147152,26.1281396 383.393555,27.3137207 C383.616708,27.5261659 383.904965,27.9643362 383.838148,28.2650146 C383.37942,30.329502 383.812449,33.2527648 385.455044,35.1253662 C386.586575,36.4144826 388.133719,37.4021672 390.157108,37.3924137 C390.222476,35.5429118 390.681209,33.7044499 391.521175,32.1040812 C390.094645,31.5425918 388.88252,30.3294537 388.433804,29.0301684 C388.313525,28.6818912 388.568481,27.9776589 389.237915,27.9776589 C389.78479,27.9776589 390.075059,28.4863757 390.21006,28.7551021 C390.580254,29.4919893 391.383161,30.4396931 392.338476,30.7901297 C393.760189,28.848114 395.864228,27.4538939 398.621135,27.1586723 C398.979729,27.1202725 399.729989,27.2445068 399.729989,27.8106689 C399.729989,28.3768311 399.056804,28.5563913 398.738961,28.5928867 C393.38265,29.2079097 391.542163,34.7807566 391.499894,37.7487928 C391.516921,37.771373 391.531185,37.7950428 391.542114,37.8198242 C393.541498,42.3625531 397.488647,44.7191162 403.5,43 L403.5,34.1807907 C402.086601,33.8663058 401.023941,34.3596867 400.335747,35.1138449 C400.051313,35.4255417 399.403435,35.984598 398.759798,35.7527416 C398.331312,35.5983887 398.5057,34.5866854 398.817839,34.1990872 C399.834593,32.9365378 401.470428,32.0819347 403.5,32.3959756 L403.5,19.7105706 C402.547475,18.8396931 401.615712,18.5887451 400.705267,18.5887451 C399.724849,18.5896018 398.393054,19.2862014 397.397217,20.3330078 C396.163236,21.6290947 394.819233,22.2012939 393.029297,22.2012939 C392.35985,22.2012939 391.691368,22.0827677 391.079833,21.8642436 C390.820844,23.0894599 390.082336,24.1925111 389.083517,24.848676 C388.819079,25.0223961 388.104921,24.9499054 388.037616,24.7899383 C388.00068,24.7021526 387.926809,24.6748657 387.926809,24.5265811 C387.84765,24.3384401 388.154665,23.7347765 388.372666,23.5468599 C389.096777,22.9226793 389.670532,21.8197604 389.670532,20.9078605 C389.670532,19.7723895 388.757896,18.7250497 387.604589,18.3700512 C387.336169,18.2874292 386.768692,17.8076986 386.768692,17.5903931 L386.768692,17.2427368 C386.768692,17.0609931 387.280379,16.716713 387.524974,16.7537946 C389.476215,17.0496099 390.920616,18.4829177 391.149137,20.3767676 Z M411.194747,44.332511 L408.868164,44.332511 C408.523215,44.332511 407.833316,44.2070312 407.833316,43.5018311 C407.833316,42.7966309 408.684082,42.578125 408.684082,42.578125 L410.317554,42.578125 L410.317554,38.1938733 C410.317554,37.7724095 410.617804,37.4100534 411.031987,37.3320997 C412.935427,36.9723136 414.490217,36.3426877 416.230469,35.2264939 C416.572694,35.0080524 417.018143,35.050884 417.310256,35.3310032 L420.460955,38.3437842 L424.236996,34.5600328 L421.239635,31.5438253 C420.949664,31.2517132 420.901693,30.7976973 421.123561,30.4516172 C422.092842,28.9405153 422.820552,27.4970873 423.222742,25.3649259 C423.301124,24.9503152 423.663052,24.6504933 424.084944,24.6504933 L428.245614,24.6504933 L428.245614,19.6820175 L424.084944,19.6820175 C423.663052,19.6820175 423.301124,19.3821957 423.222742,18.967585 C422.86938,17.0932703 422.255602,15.5967311 421.103858,13.8020833 C420.884988,13.4602865 420.928677,13.0131236 421.209653,12.7210115 L424.204444,9.60286456 L420.391996,5.82082649 L417.317537,8.8293243 C417.025853,9.11458333 416.576121,9.16169816 416.230469,8.94068667 C414.500069,7.8304893 412.945278,7.20257675 411.031987,6.84107728 C410.617804,6.7631236 410.317554,6.40076754 410.317554,5.97930368 L410.317554,1.75438596 L408.984253,1.75438596 C408.984253,1.75438596 407.833316,1.75438596 407.833316,0.906860352 C407.833316,0.0593347382 408.58482,0 408.960571,0 L411.194747,0 C411.679174,0 412.07194,0.392338246 412.07194,0.877192982 L412.07194,5.26744105 C413.673417,5.63922009 415.107422,6.22087447 416.58126,7.09549754 L419.782929,3.96278781 C420.125154,3.62698737 420.6734,3.62870061 421.013912,3.96707096 L426.052632,8.96552904 C426.392715,9.30304272 426.399568,9.85043175 426.067623,10.1956552 L422.947762,13.4440104 C423.645491,14.603036 424.348787,16.0267612 424.795521,17.9276316 L429.122807,17.9276316 C429.607233,17.9276316 430,18.3199698 430,18.8048246 L430,25.5276864 C430,26.0125411 429.607233,26.4048794 429.122807,26.4048794 L424.795521,26.4048794 C424.361636,28.2474986 423.686181,29.619826 422.97389,30.8002673 L426.097176,33.9423999 C426.437688,34.2850534 426.436832,34.8384389 426.095892,35.1802357 L421.096577,40.1906867 C420.759491,40.5299137 420.214244,40.5359101 419.869449,40.2052495 L416.588542,37.0682566 C415.093287,37.9600124 413.684125,38.5339569 412.07194,38.9065926 L412.07194,43.455318 C412.07194,43.9401727 411.679174,44.332511 411.194747,44.332511 Z M407.833316,31.0133667 C407.848517,30.2533194 408.662225,30.0619606 409.063413,30.0010759 C412.940573,29.4126747 415.919939,26.0876682 415.919939,22.0865885 C415.919939,18.0798955 412.932208,14.751174 409.047089,14.1696407 C408.651084,14.1103658 407.833316,13.901001 407.833316,13.1563721 C407.833316,12.4117432 408.640185,12.3497938 409.033685,12.3974711 C413.895967,12.9865966 417.674325,17.1073253 417.674325,22.0865885 C417.674325,27.0594439 413.905685,31.1759731 409.052451,31.773414 C408.652924,31.8225964 407.818115,31.773414 407.833316,31.0133667 Z" id="Brain-Cog"></path>
            </g>
        </g>
    </g>
</svg>