<svg xmlns="http://www.w3.org/2000/svg" xmlns:xlink="http://www.w3.org/1999/xlink"><symbol viewBox="0 0 18 18" id="ic_apps_18px" xmlns="http://www.w3.org/2000/svg"><path d="M2 10h3V7H2v3zm0-5h3V2H2v3zm0 10h3v-3H2v3zm5 0h3v-3H7v3zm5-5h3V7h-3v3zm-5 0h3V7H7v3zm5 5h3v-3h-3v3zm0-13v3h3V2h-3zM7 5h3V2H7v3z"/></symbol><symbol viewBox="0 0 18 18" id="ic_arrow_back_18px" xmlns="http://www.w3.org/2000/svg"><path d="M15 8.25H5.87l4.19-4.19L9 3 3 9l6 6 1.06-1.06-4.19-4.19H15v-1.5z"/></symbol><symbol viewBox="0 0 18 18" id="ic_arrow_drop_down_18px" xmlns="http://www.w3.org/2000/svg"><path d="M5 8l4 4 4-4z"/></symbol><symbol viewBox="0 0 18 18" id="ic_arrow_drop_up_18px" xmlns="http://www.w3.org/2000/svg"><path d="M9 6l-4 4h8z"/></symbol><symbol viewBox="0 0 18 18" id="ic_arrow_forward_18px" xmlns="http://www.w3.org/2000/svg"><path d="M9 3L7.94 4.06l4.19 4.19H3v1.5h9.13l-4.19 4.19L9 15l6-6z"/></symbol><symbol viewBox="0 0 18 18" id="ic_cancel_18px" xmlns="http://www.w3.org/2000/svg"><path d="M9 1C4.58 1 1 4.58 1 9s3.58 8 8 8 8-3.58 8-8-3.58-8-8-8zm4 10.87L11.87 13 9 10.13 6.13 13 5 11.87 7.87 9 5 6.13 6.13 5 9 7.87 11.87 5 13 6.13 10.13 9 13 11.87z"/></symbol><symbol viewBox="0 0 18 18" id="ic_check_18px" xmlns="http://www.w3.org/2000/svg"><path d="M6.61 11.89L3.5 8.78 2.44 9.84 6.61 14l8.95-8.95L14.5 4z"/></symbol><symbol viewBox="0 0 18 18" id="ic_chevron_left_18px" xmlns="http://www.w3.org/2000/svg"><path d="M11.56 5.56L10.5 4.5 6 9l4.5 4.5 1.06-1.06L8.12 9z"/></symbol><symbol viewBox="0 0 18 18" id="ic_chevron_right_18px" xmlns="http://www.w3.org/2000/svg"><path d="M7.5 4.5L6.44 5.56 9.88 9l-3.44 3.44L7.5 13.5 12 9z"/></symbol><symbol viewBox="0 0 18 18" id="ic_close_18px" xmlns="http://www.w3.org/2000/svg"><path d="M14.53 4.53l-1.06-1.06L9 7.94 4.53 3.47 3.47 4.53 7.94 9l-4.47 4.47 1.06 1.06L9 10.06l4.47 4.47 1.06-1.06L10.06 9z"/></symbol><symbol viewBox="0 0 18 18" id="ic_event_18px" xmlns="http://www.w3.org/2000/svg"><path d="M0 0h18v18H0z" fill="none"/><path d="M13 9H9v4h4V9zm2-7h-1V1h-2v1H6V1H4v1H3c-.55 0-1 .45-1 1v12c0 .55.45 1 1 1h12c.55 0 1-.45 1-1V3c0-.55-.45-1-1-1zm-1 12H4V6h10v8z"/></symbol><symbol viewBox="0 0 18 18" id="ic_expand_less_18px" xmlns="http://www.w3.org/2000/svg"><path d="M9 6l-4.5 4.5 1.06 1.06L9 8.12l3.44 3.44 1.06-1.06z"/></symbol><symbol viewBox="0 0 18 18" id="ic_expand_more_18px" xmlns="http://www.w3.org/2000/svg"><path d="M12.44 6.44L9 9.88 5.56 6.44 4.5 7.5 9 12l4.5-4.5z"/></symbol><symbol viewBox="0 0 18 18" id="ic_fullscreen_18px" xmlns="http://www.w3.org/2000/svg"><path d="M4.5 11H3v4h4v-1.5H4.5V11zM3 7h1.5V4.5H7V3H3v4zm10.5 6.5H11V15h4v-4h-1.5v2.5zM11 3v1.5h2.5V7H15V3h-4z"/></symbol><symbol viewBox="0 0 18 18" id="ic_fullscreen_exit_18px" xmlns="http://www.w3.org/2000/svg"><path d="M3 12.5h2.5V15H7v-4H3v1.5zm2.5-7H3V7h4V3H5.5v2.5zM11 15h1.5v-2.5H15V11h-4v4zm1.5-9.5V3H11v4h4V5.5h-2.5z"/></symbol><symbol viewBox="0 0 18 18" id="ic_menu_18px" xmlns="http://www.w3.org/2000/svg"><path d="M2 13.5h14V12H2v1.5zm0-4h14V8H2v1.5zM2 4v1.5h14V4H2z"/></symbol><symbol viewBox="0 0 18 18" id="ic_more_horiz_18px" xmlns="http://www.w3.org/2000/svg"><path d="M4 7.5c-.83 0-1.5.67-1.5 1.5s.67 1.5 1.5 1.5S5.5 9.83 5.5 9 4.83 7.5 4 7.5zm10 0c-.83 0-1.5.67-1.5 1.5s.67 1.5 1.5 1.5 1.5-.67 1.5-1.5-.67-1.5-1.5-1.5zm-5 0c-.83 0-1.5.67-1.5 1.5s.67 1.5 1.5 1.5 1.5-.67 1.5-1.5S9.83 7.5 9 7.5z"/></symbol><symbol viewBox="0 0 18 18" id="ic_more_vert_18px" xmlns="http://www.w3.org/2000/svg"><path d="M9 5.5c.83 0 1.5-.67 1.5-1.5S9.83 2.5 9 2.5 7.5 3.17 7.5 4 8.17 5.5 9 5.5zm0 2c-.83 0-1.5.67-1.5 1.5s.67 1.5 1.5 1.5 1.5-.67 1.5-1.5S9.83 7.5 9 7.5zm0 5c-.83 0-1.5.67-1.5 1.5s.67 1.5 1.5 1.5 1.5-.67 1.5-1.5-.67-1.5-1.5-1.5z"/></symbol><symbol viewBox="0 0 18 18" id="ic_refresh_18px" xmlns="http://www.w3.org/2000/svg"><path d="M9 13.5c-2.49 0-4.5-2.01-4.5-4.5S6.51 4.5 9 4.5c1.24 0 2.36.52 3.17 1.33L10 8h5V3l-1.76 1.76A6.003 6.003 0 0 0 9 3C5.69 3 3.01 5.69 3.01 9S5.69 15 9 15a5.98 5.98 0 0 0 5.9-5h-1.52c-.46 2-2.24 3.5-4.38 3.5z"/></symbol><symbol viewBox="0 0 18 18" id="ic_unfold_less_18px" xmlns="http://www.w3.org/2000/svg"><path d="M5.56 14.44l1.06 1.06L9 13.12l2.38 2.38 1.06-1.06L9 11l-3.44 3.44zm6.88-10.88L11.38 2.5 9 4.88 6.62 2.5 5.56 3.56 9 7l3.44-3.44z"/></symbol><symbol viewBox="0 0 18 18" id="ic_unfold_more_18px" xmlns="http://www.w3.org/2000/svg"><path d="M9 4.12l2.38 2.38 1.06-1.06L9 2 5.56 5.44 6.62 6.5 9 4.12zm0 9.76L6.62 11.5l-1.06 1.06L9 16l3.44-3.44-1.06-1.06L9 13.88z"/></symbol><symbol viewBox="0 0 32 32" id="icon-email" xmlns="http://www.w3.org/2000/svg"><title>icon-email</title><path d="M2.893 8.036l11.667 6.38c.392.213.899.314 1.409.314s1.017-.1 1.41-.315l11.666-6.379c.76-.416 1.48-2.036.084-2.036H2.81c-1.395 0-.676 1.62.083 2.036zm26.505 3.488L17.378 17.9c-.529.282-.899.315-1.41.315-.51 0-.88-.033-1.408-.315-.53-.281-11.096-5.92-11.96-6.377-.606-.323-.6.055-.6.346v11.548C2 24.082 2.88 25 3.556 25h24.888C29.12 25 30 24.082 30 23.417V11.87c0-.291.006-.67-.602-.347z" fill="#4B4B4B"/></symbol><symbol viewBox="0 0 32 32" id="icon-facebook" xmlns="http://www.w3.org/2000/svg"><title>icon-facebook</title><path d="M18.43 6.315c-.541 0-1.144.694-1.144 1.625v3.225H23v4.6h-5.714v13.814h-5.395V15.767H7v-4.602h4.891V8.46c0-3.882 2.755-7.04 6.538-7.04H23v4.895h-4.57z" fill="#3B5998"/></symbol><symbol viewBox="0 0 32 32" id="icon-linkedin" xmlns="http://www.w3.org/2000/svg"><title>icon-linkedin</title><path d="M2 7.267A5.255 5.255 0 0 1 7.267 2h17.466A5.255 5.255 0 0 1 30 7.267v17.466A5.255 5.255 0 0 1 24.733 30H7.267A5.255 5.255 0 0 1 2 24.733V7.267zm24.114 11.575c0-3.922-2.095-5.748-4.889-5.748-2.255 0-3.263 1.242-3.827 2.11v.042h-.028l.028-.041v-1.81h-4.247c.058 1.198 0 12.77 0 12.77h4.247v-7.132c0-.382.03-.762.141-1.035.307-.763 1.005-1.553 2.179-1.553 1.536 0 2.15 1.171 2.15 2.888v6.833h4.246v-7.324zM8.709 7.238c-1.453 0-2.403.953-2.403 2.206 0 1.226.923 2.208 2.347 2.208h.028c1.481 0 2.402-.982 2.402-2.208-.028-1.253-.921-2.206-2.374-2.206zm-2.15 18.928h4.244V13.394H6.558v12.772z" fill="#0077B5"/></symbol><symbol viewBox="0 0 44 52" id="icon-share" xmlns="http://www.w3.org/2000/svg"><title>icon-share</title><g fill="none" fill-rule="evenodd" opacity=".829"><path d="M17 14h-6v21h21V14h-6v3h3v15H14V17h3v-3z" fill="#626262" fill-rule="nonzero"/><path fill="#626262" fill-rule="nonzero" d="M23 25V3.68h-3V25z"/><path d="M23.66 2.473h-4.243l2.121 2.122 2.122-2.122zm2.216 6.46l4.217-.026L21.538.352l-8.66 8.66 4.269-.026 4.391-4.391 4.338 4.338zm-2.216-6.46h-4.243l2.121 2.122 2.122-2.122zm2.216 6.46l4.217-.026L21.538.352l-8.66 8.66 4.269-.026 4.391-4.391 4.338 4.338z" fill="#626262" fill-rule="nonzero"/><path d="M1.678 50.556a2.95 2.95 0 0 1-1.194-1.74l1.32-.576c.16.52.428.938.804 1.254.376.316.876.474 1.5.474.48 0 .882-.102 1.206-.306.324-.204.486-.514.486-.93 0-.392-.114-.682-.342-.87-.228-.188-.594-.334-1.098-.438l-1.188-.252C1.684 46.868.94 46.052.94 44.724c0-.488.126-.916.378-1.284s.614-.654 1.086-.858c.472-.204 1.024-.306 1.656-.306.84 0 1.55.174 2.13.522.58.348.962.866 1.146 1.554L6.1 45c-.136-.496-.382-.878-.738-1.146-.356-.268-.814-.402-1.374-.402-.464 0-.838.102-1.122.306a.984.984 0 0 0-.426.846c0 .344.102.614.306.81.204.196.542.346 1.014.45l1.236.264c.76.16 1.34.43 1.74.81.4.38.6.93.6 1.65 0 .496-.124.942-.372 1.338-.248.396-.618.708-1.11.936-.492.228-1.09.342-1.794.342-.976 0-1.77-.216-2.382-.648zM16.712 51h-1.548v-3.72h-3.828V51H9.788v-8.52h1.548v3.564h3.828V42.48h1.548V51zm7.936-2.244h-3.336L20.544 51h-1.572l3.168-8.52h1.68L26.988 51h-1.572l-.768-2.244zm-.408-1.176l-.996-2.88a7.235 7.235 0 0 1-.252-.912h-.024c-.056.28-.14.584-.252.912l-.996 2.88h2.52zm8.056 0h-1.5V51h-1.548v-8.52h3.432c1.032 0 1.782.234 2.25.702.468.468.702 1.086.702 1.854 0 .544-.148 1.028-.444 1.452-.296.424-.744.72-1.344.888L35.872 51h-1.704l-1.872-3.42zm-1.5-1.152h1.62c.552 0 .956-.124 1.212-.372s.384-.588.384-1.02c0-.92-.532-1.38-1.596-1.38h-1.62v2.772zM44 49.788V51h-5.616v-8.52h5.532v1.212h-3.984v2.34h3.78v1.2h-3.78v2.556H44z" fill="#606060"/></g></symbol><symbol viewBox="0 0 32 32" id="icon-twitter" xmlns="http://www.w3.org/2000/svg"><title>icon-twitter</title><path d="M2.582 24.14c0 .14.07.267.208.38.231.159.643.394 1.235.704C6.283 26.408 8.651 27 11.13 27c3.09 0 5.898-.808 8.423-2.424a14.604 14.604 0 0 0 3.206-2.784c.934-1.085 1.677-2.217 2.227-3.396a17.858 17.858 0 0 0 1.235-3.545c.273-1.184.4-2.335.382-3.452v-.494c1.082-.79 1.929-1.691 2.539-2.706a.656.656 0 0 0 .083-.254c0-.122-.05-.24-.139-.324a.436.436 0 0 0-.318-.14c-.065 0-.176.037-.334.112-.276.094-.55.19-.825.289a2.64 2.64 0 0 1-.23.078c.241-.273.49-.642.75-1.107.26-.465.389-.805.389-1.022 0-.12-.05-.236-.139-.316a.463.463 0 0 0-.333-.135.412.412 0 0 0-.222.071c-1.055.573-2.04.963-2.956 1.17C23.749 5.54 22.412 5 20.858 5c-1.591 0-2.947.564-4.066 1.691-1.12 1.128-1.679 2.49-1.679 4.087 0 .282.019.513.055.69a14.323 14.323 0 0 1-4.524-1.14A13.941 13.941 0 0 1 6.732 7.79a53.81 53.81 0 0 1-1.555-1.65.529.529 0 0 0-.389-.169c-.11 0-.226.076-.346.226-.24.366-.43.815-.569 1.346A6.144 6.144 0 0 0 3.664 9.1c0 1.4.43 2.621 1.29 3.664l-.401-.197c-.232-.103-.403-.155-.514-.155a.576.576 0 0 0-.395.141.466.466 0 0 0-.16.367c0 .986.25 1.921.75 2.805a5.8 5.8 0 0 0 2.025 2.113l-.166-.027a.294.294 0 0 1-.076-.015 2.486 2.486 0 0 0-.077-.021.187.187 0 0 0-.042-.007.413.413 0 0 0-.311.14.445.445 0 0 0-.133.31c0 .01.01.062.028.156.3.954.84 1.811 1.568 2.487a5.623 5.623 0 0 0 2.567 1.375c-1.61 1.004-3.386 1.508-5.328 1.508-.129 0-.337-.014-.625-.043-.212-.011-.425-.02-.638-.027a.413.413 0 0 0-.312.14.46.46 0 0 0-.132.324z" fill="#1DA1F2" fill-rule="evenodd"/></symbol><symbol viewBox="0 0 57 171" id="triangle" xmlns="http://www.w3.org/2000/svg"><title>triangle</title><path d="M12 109.532V59l35.472 25.266z"/></symbol></svg>