<?xml version="1.0" encoding="UTF-8"?>
<svg width="107px" height="107px" viewBox="0 0 107 107" version="1.1" xmlns="http://www.w3.org/2000/svg" xmlns:xlink="http://www.w3.org/1999/xlink">
    <!-- Generator: Sketch 41.2 (35397) - http://www.bohemiancoding.com/sketch -->
    <title>Redpoint1</title>
    <desc>Created with Sketch.</desc>
    <defs></defs>
    <g id="Page-1" stroke="none" stroke-width="1" fill="none" fill-rule="evenodd">
        <g id="_logos" transform="translate(-2442.000000, -140.000000)" fill="#D93939">
            <path d="M2533.10942,225.507305 C2538.33878,219.368632 2542.09177,211.933717 2543.81912,203.751815 L2512.99038,172.923077 L2483.15385,194.528846 L2463.09135,185.269231 L2447.8488,206.516423 C2449.89958,214.041608 2453.68531,220.851357 2458.74965,226.489327 L2463.09135,219.735577 L2480.58173,217.677885 L2498.58654,201.730769 L2512.47596,214.076923 L2524.82212,208.932692 L2533.10942,225.507305 Z M2495.5,247 C2525.04723,247 2549,223.047234 2549,193.5 C2549,163.952766 2525.04723,140 2495.5,140 C2465.95277,140 2442,163.952766 2442,193.5 C2442,223.047234 2465.95277,247 2495.5,247 Z M2473.37981,237.740385 C2484.18269,243.913462 2500.12981,243.913462 2510.93269,240.826923 C2521.73558,237.740385 2529.96635,228.995192 2529.96635,228.995192 L2523.27885,215.620192 L2510.93269,219.735577 L2498.58654,207.903846 L2482.63942,222.307692 L2466.17788,223.850962 L2462.57692,229.509615 C2462.57692,229.509615 2462.57692,231.567308 2473.37981,237.740385 Z" id="Redpoint1"></path>
        </g>
    </g>
</svg>