<?xml version="1.0" encoding="UTF-8"?>
<svg width="107px" height="107px" viewBox="0 0 107 107" version="1.1" xmlns="http://www.w3.org/2000/svg" xmlns:xlink="http://www.w3.org/1999/xlink">
    <!-- Generator: Sketch 41.2 (35397) - http://www.bohemiancoding.com/sketch -->
    <title>Stratum1</title>
    <desc>Created with Sketch.</desc>
    <defs></defs>
    <g id="Page-1" stroke="none" stroke-width="1" fill="none" fill-rule="evenodd">
        <g id="_logos" transform="translate(-2316.000000, -140.000000)" fill="#1055FF">
            <path d="M2415.60921,176.323404 C2416.61497,179.022157 2417.39057,181.832999 2417.91216,184.732064 L2382.07948,204.594441 L2346.54343,187.26235 L2415.60921,176.323404 Z M2336.41732,229.905389 C2326.52122,220.907198 2320.30872,207.929102 2320.30872,193.5 C2320.30872,189.328711 2320.82792,185.278686 2321.8052,181.411022 L2376.11589,207.900113 L2336.41732,229.905387 Z M2341.12058,233.684403 C2349.13907,239.357633 2358.93023,242.691275 2369.5,242.691275 C2396.66759,242.691275 2418.69128,220.667591 2418.69128,193.5 C2418.69128,192.570015 2418.66547,191.646058 2418.61453,190.728806 L2341.12058,233.684403 Z M2369.5,247 C2399.04723,247 2423,223.047234 2423,193.5 C2423,163.952766 2399.04723,140 2369.5,140 C2339.95277,140 2316,163.952766 2316,193.5 C2316,223.047234 2339.95277,247 2369.5,247 Z" id="Stratum1"></path>
        </g>
    </g>
</svg>