<svg width="1438" height="424" viewBox="0 0 1438 424" xmlns="http://www.w3.org/2000/svg"><title>art-cloud-change</title><defs><linearGradient x1="50%" y1="38.541%" x2="50%" y2="100%" id="a"><stop stop-color="#70A9FF" stop-opacity="0" offset="0%"/><stop stop-color="#40FFF1" stop-opacity=".301" offset="50.858%"/><stop stop-color="#C674FF" stop-opacity="0" offset="100%"/></linearGradient></defs><g stroke="#40FFF1" fill="url(#a)" fill-rule="evenodd" opacity=".3"><path d="M-38 337s342-176 599.5-108 362 76.5 528.5 1.5 304-66 398.5-14.5"/><path d="M-28 82.5s44.5 243 310.5 243 379-118.922 540.5-118.922S963 335.5 1195.5 330.5s308.5-190 308.5-190"/><path d="M1490 397.5s-76-234-484-77-299.5-162-526.5-162S239 340-20 393.5"/><path d="M1491 332.5s-99.5-262.5-350.5-210-258 218.5-420.5 229S462 171 255.5 158-88 283.5-88 283.5"/><path d="M-25 236s359-40.5 540.5 91 264-134.5 438-150 317.5 229 564 178"/><path d="M1460 143.5s-276.5 235-531.5 223.5-278-179-387-179-96.5 216-299 216S99 33.5-15 9.5"/></g></svg>