<svg width="612" height="396" viewBox="0 0 612 396" xmlns="http://www.w3.org/2000/svg" xmlns:xlink="http://www.w3.org/1999/xlink"><title>art-managed-integration-basic</title><defs><path id="a" d="M47.747 93.221h7.579v7.579h-7.579z"/><mask id="D" x="0" y="0" width="7.579" height="7.579" fill="#fff"><use xlink:href="#a"/></mask><path id="b" d="M153.853 138.695h7.579v7.579h-7.579z"/><mask id="E" x="0" y="0" width="7.579" height="7.579" fill="#fff"><use xlink:href="#b"/></mask><path id="c" d="M366.063 146.274h7.579v7.579h-7.579z"/><mask id="F" x="0" y="0" width="7.579" height="7.579" fill="#fff"><use xlink:href="#c"/></mask><path id="d" d="M2.274 2.274h7.579v7.579H2.274z"/><mask id="G" x="0" y="0" width="7.579" height="7.579" fill="#fff"><use xlink:href="#d"/></mask><path id="e" d="M297.853 115.958h7.579v7.579h-7.579z"/><mask id="H" x="0" y="0" width="7.579" height="7.579" fill="#fff"><use xlink:href="#e"/></mask><path id="f" d="M426.695 85.642h7.579v7.579h-7.579z"/><mask id="I" x="0" y="0" width="7.579" height="7.579" fill="#fff"><use xlink:href="#f"/></mask><path id="g" d="M479.747 9.853h7.579v7.579h-7.579z"/><mask id="J" x="0" y="0" width="7.579" height="7.579" fill="#fff"><use xlink:href="#g"/></mask><path id="h" d="M0 0h7.579v7.579H0z"/><mask id="K" x="0" y="0" width="7.579" height="7.579" fill="#fff"><use xlink:href="#h"/></mask><path id="i" d="M454.737 265.263h7.579v7.579h-7.579z"/><mask id="L" x="0" y="0" width="7.579" height="7.579" fill="#fff"><use xlink:href="#i"/></mask><path id="j" d="M507.789 166.737h7.579v7.579h-7.579z"/><mask id="M" x="0" y="0" width="7.579" height="7.579" fill="#fff"><use xlink:href="#j"/></mask><path id="k" d="M530.526 7.579h7.579v7.579h-7.579z"/><mask id="N" x="0" y="0" width="7.579" height="7.579" fill="#fff"><use xlink:href="#k"/></mask><path id="l" d="M113.684 242.526h7.579v7.579h-7.579z"/><mask id="O" x="0" y="0" width="7.579" height="7.579" fill="#fff"><use xlink:href="#l"/></mask><path id="m" d="M234.947 242.526h7.579v7.579h-7.579z"/><mask id="P" x="0" y="0" width="7.579" height="7.579" fill="#fff"><use xlink:href="#m"/></mask><path id="n" d="M7.579 121.263h7.579v7.579H7.579z"/><mask id="Q" x="0" y="0" width="7.579" height="7.579" fill="#fff"><use xlink:href="#n"/></mask><path id="o" d="M295.579 242.526h7.579v7.579h-7.579z"/><mask id="R" x="0" y="0" width="7.579" height="7.579" fill="#fff"><use xlink:href="#o"/></mask><path id="p" d="M45.474 227.368h7.579v7.579h-7.579z"/><mask id="S" x="0" y="0" width="7.579" height="7.579" fill="#fff"><use xlink:href="#p"/></mask><path id="q" d="M568.421 106.105H576v7.579h-7.579z"/><mask id="T" x="0" y="0" width="7.579" height="7.579" fill="#fff"><use xlink:href="#q"/></mask><path id="r" d="M22.737 99.284h7.579v7.579h-7.579z"/><mask id="U" x="0" y="0" width="7.579" height="7.579" fill="#fff"><use xlink:href="#r"/></mask><path id="s" d="M53.053 46.232h7.579v7.579h-7.579z"/><mask id="V" x="0" y="0" width="7.579" height="7.579" fill="#fff"><use xlink:href="#s"/></mask><path id="t" d="M83.368 243.284h7.579v7.579h-7.579z"/><mask id="W" x="0" y="0" width="7.579" height="7.579" fill="#fff"><use xlink:href="#t"/></mask><path id="u" d="M310.737 243.284h7.579v7.579h-7.579z"/><mask id="X" x="0" y="0" width="7.579" height="7.579" fill="#fff"><use xlink:href="#u"/></mask><path id="v" d="M394.105 167.495h7.579v7.579h-7.579z"/><mask id="Y" x="0" y="0" width="7.579" height="7.579" fill="#fff"><use xlink:href="#v"/></mask><path id="w" d="M432 106.863h7.579v7.579H432z"/><mask id="Z" x="0" y="0" width="7.579" height="7.579" fill="#fff"><use xlink:href="#w"/></mask><path id="x" d="M386.526 68.968h7.579v7.579h-7.579z"/><mask id="aa" x="0" y="0" width="7.579" height="7.579" fill="#fff"><use xlink:href="#x"/></mask><path id="y" d="M432 46.232h7.579v7.579H432z"/><mask id="ab" x="0" y="0" width="7.579" height="7.579" fill="#fff"><use xlink:href="#y"/></mask><path id="z" d="M22.737 175.074h7.579v7.579h-7.579z"/><mask id="ac" x="0" y="0" width="7.579" height="7.579" fill="#fff"><use xlink:href="#z"/></mask><path id="A" d="M0 15.916h7.579v7.579H0z"/><mask id="ad" x="0" y="0" width="7.579" height="7.579" fill="#fff"><use xlink:href="#A"/></mask><path id="B" d="M412.295 0h7.579v7.579h-7.579z"/><mask id="ae" x="0" y="0" width="7.579" height="7.579" fill="#fff"><use xlink:href="#B"/></mask><path id="C" d="M166.737 258.442h7.579v7.579h-7.579z"/><mask id="af" x="0" y="0" width="7.579" height="7.579" fill="#fff"><use xlink:href="#C"/></mask></defs><g fill="none" fill-rule="evenodd"><g stroke="#40FFF1" stroke-width="2"><g transform="translate(38.463 173.484)" opacity=".4"><use mask="url(#D)" xlink:href="#a"/><use mask="url(#E)" xlink:href="#b"/><use mask="url(#F)" xlink:href="#c"/><use mask="url(#G)" transform="rotate(-40 6.063 6.063)" xlink:href="#d"/><use mask="url(#H)" transform="rotate(-40 301.642 119.747)" xlink:href="#e"/><use mask="url(#I)" transform="rotate(-40 430.484 89.432)" xlink:href="#f"/><use mask="url(#J)" transform="rotate(-40 483.537 13.642)" xlink:href="#g"/></g><g transform="translate(18 92.39)" opacity=".2"><use mask="url(#K)" xlink:href="#h"/><use mask="url(#L)" xlink:href="#i"/><use mask="url(#M)" xlink:href="#j"/><use mask="url(#N)" xlink:href="#k"/><use mask="url(#O)" xlink:href="#l"/><use mask="url(#P)" xlink:href="#m"/><use mask="url(#Q)" transform="rotate(-40 11.368 125.053)" xlink:href="#n"/><use mask="url(#R)" transform="rotate(-40 299.368 246.316)" xlink:href="#o"/><use mask="url(#S)" transform="rotate(-40 49.263 231.158)" xlink:href="#p"/><use mask="url(#T)" xlink:href="#q"/></g><g transform="translate(71.053 31)"><use mask="url(#U)" transform="rotate(-40 26.526 103.074)" xlink:href="#r"/><use mask="url(#V)" transform="rotate(-40 56.842 50.021)" xlink:href="#s"/><use mask="url(#W)" transform="rotate(-40 87.158 247.074)" xlink:href="#t"/><use mask="url(#X)" transform="rotate(-40 314.526 247.074)" xlink:href="#u"/><use mask="url(#Y)" transform="rotate(-40 397.895 171.284)" xlink:href="#v"/><use mask="url(#Z)" transform="rotate(-40 435.79 110.653)" xlink:href="#w"/><use mask="url(#aa)" transform="rotate(-40 390.316 72.758)" xlink:href="#x"/><use mask="url(#ab)" transform="rotate(-40 435.79 50.021)" xlink:href="#y"/><use mask="url(#ac)" xlink:href="#z"/><use mask="url(#ad)" xlink:href="#A"/><use mask="url(#ae)" xlink:href="#B"/><use mask="url(#af)" xlink:href="#C"/></g></g><g opacity=".8" transform="translate(123.347 137.863)"><path stroke="#40FFF1" stroke-dasharray="5,5,5,5" d="M4.168 58.737l25.01-26.905 82.611-12.506 55.327 53.81L214.863 7.2 280.8 0l17.81 15.537"/><ellipse fill="#40FFF1" cx="3.789" cy="59.116" rx="3.789" ry="3.789"/><ellipse fill="#40FFF1" cx="297.853" cy="15.916" rx="3.789" ry="3.789"/></g><g opacity=".2" transform="translate(187.768 154.537)"><path stroke="#40FFF1" stroke-dasharray="5,5,5,5" d="M3.41 59.874L98.148 0l97.39 11.747 62.905 46.61"/><ellipse fill="#40FFF1" cx="3.789" cy="59.116" rx="3.789" ry="3.789"/><ellipse fill="#40FFF1" cx="257.684" cy="57.6" rx="3.789" ry="3.789"/></g><g opacity=".5" transform="translate(160.484 171.968)"><path stroke="#40FFF1" stroke-dasharray="5,5,5,5" d="M3.032 13.642l34.863-2.653L78.82 34.863l54.19-24.631L164.842 21.6 199.326 0l53.053 40.547 27.663-35.62"/><ellipse fill="#40FFF1" cx="3.789" cy="13.642" rx="3.789" ry="3.789"/><ellipse fill="#40FFF1" cx="279.663" cy="5.305" rx="3.789" ry="3.789"/></g><g transform="translate(138.505 59.042)"><path stroke="#40FFF1" stroke-dasharray="5,5,5,5" d="M7.2 12.505l62.147 12.127 82.61-12.885 90.948 7.958 42.442-14.4"/><circle fill="#40FFF1" cx="3.789" cy="11.368" r="3.789"/><ellipse fill="#40FFF1" cx="288" cy="3.789" rx="3.789" ry="3.789"/></g><g transform="translate(146.084 109.821)"><ellipse fill="#FFF871" cx="3.789" cy="28.042" rx="3.789" ry="3.789"/><ellipse fill="#FFF871" cx="265.263" cy="13.642" rx="3.789" ry="3.789"/><path stroke="#FFF871" stroke-width="2" stroke-dasharray="5,5,5,5" d="M3.79 28.421l46.989-9.474L99.663.38l49.642 34.863 65.937-32.21 49.642 10.61"/></g><g transform="translate(160.484 41.61)" opacity=".7"><path stroke="#40FFF1" stroke-dasharray="5,5,5,5" d="M4.926 106.105l39.79-75.79 78.82-5.304L177.348.379l68.21 41.684"/><ellipse fill="#40FFF1" cx="3.789" cy="109.137" rx="3.789" ry="3.789"/><ellipse fill="#40FFF1" cx="250.863" cy="46.232" rx="3.789" ry="3.789"/></g><g transform="translate(147.6 62.832)"><path stroke="#40FFF1" stroke-dasharray="5,5,5,5" opacity=".3" d="M10.61 31.832l96.632-1.137 43.2 44.337L194.022.379l75.789 10.99 13.263 13.263"/><ellipse fill="#40FFF1" opacity=".3" cx="3.789" cy="31.832" rx="3.789" ry="3.789"/><ellipse fill="#40FFF1" opacity=".3" cx="284.211" cy="26.526" rx="3.789" ry="3.789"/></g></g></svg>