<svg width="346" height="112" viewBox="0 0 346 112" xmlns="http://www.w3.org/2000/svg"><title>art-sound-bars-purple</title><defs><linearGradient x1="46.059%" y1="1.427%" x2="50%" y2="90.387%" id="a"><stop stop-color="#8A51FF" stop-opacity=".141" offset="0%"/><stop stop-color="#805FC4" stop-opacity=".345" offset="43.043%"/><stop stop-color="#A954B2" stop-opacity=".306" offset="65.614%"/><stop stop-color="#D6463A" stop-opacity=".073" offset="100%"/></linearGradient></defs><path d="M346.912 71.792v31.583h-3.333V40.208h3.333v31.584zM-12.025 40.208h3.334v59.22h-3.334v-59.22zm5.556-3.948h3.334v59.22h-3.334V36.26zm5.557-3.947H2.42V91.53H-.912V32.312zm5.556 0h3.334V91.53H4.644V32.312zm5.556 0h3.334V91.53H10.2V32.312zm5.556 3.947h3.334v59.22h-3.334V36.26zm5.557 0h3.334v59.22h-3.334V36.26zm5.556-3.947h3.334V91.53h-3.334V32.312zm5.556-3.948h3.334v59.218h-3.334V28.365zm5.557-3.948h3.333v59.218h-3.333V24.417zm5.556 3.948h3.334v59.218h-3.334V28.365zm5.556 0h3.334v59.218h-3.334V28.365zm5.557 3.948h3.333V91.53h-3.333V32.312zm5.556 0h3.334V91.53h-3.334V32.312zm5.556-3.948h3.334v59.218h-3.334V28.365zm5.557 3.948h3.333V91.53H71.32V32.312zm5.556 0h3.334V91.53h-3.334V32.312zm5.556-3.948h3.334v59.218h-3.334V28.365zm5.556-3.948h3.334v59.218h-3.334V24.417zm5.557-3.948h3.334v59.218h-3.334V20.47zM99.1 16.52h3.334V75.74H99.1V16.52zm5.556 3.948h3.334v59.218h-3.334V20.47zm5.557 3.948h3.333v59.218h-3.333V24.417zm5.556 3.948h3.334v59.218h-3.334V28.365zm5.556 3.948h3.334V91.53h-3.334V32.312zm5.557 0h3.333V91.53h-3.333V32.312zm5.556 0h3.334V91.53h-3.334V32.312zm5.556 3.947h2.778v59.22h-2.778V36.26zm5.557-7.895h2.778v59.218h-2.778V28.365zm5.556 3.948h2.778V91.53h-2.778V32.312zm5.556-3.948h2.778v59.218h-2.778V28.365zm5.556-7.896H163v59.218h-2.779V20.47zm11.113 0h2.778v59.218h-2.778V20.47zm-5.556 11.843h2.778v59.22h-2.778v-59.22zm11.112 0h2.779v59.22h-2.779v-59.22zm5.557-7.895h2.778v59.218h-2.778V24.417zm5.556-7.896h2.778V75.74h-2.778V16.52zm5.556-3.948h2.778v59.219h-2.778v-59.22zm5.557-3.948h2.778v59.219h-2.778V8.625zm5.556 3.948h2.778v59.219h-2.778v-59.22zm5.556 3.948h2.778V75.74h-2.778V16.52zm5.557 3.948h2.778v59.218h-2.778V20.47zm5.556 0h2.778v59.218h-2.778V20.47zm5.556-3.948h2.778V75.74h-2.778V16.52zm5.557 0h2.778V75.74h-2.778V16.52zm5.556 3.948h2.778v59.218h-2.778V20.47zm5.556 0h2.778v59.218h-2.778V20.47zm5.556-3.948h2.779V75.74h-2.779V16.52zm5.557 0h2.778V75.74h-2.778V16.52zm5.556 0h3.334V75.74h-3.334V16.52zm5.556 3.948h3.334v59.218h-3.334V20.47zm5.557 3.948h3.333v59.218h-3.333V24.417zm5.556 3.948h3.334v59.218h-3.334V28.365zm5.556 3.948h3.334V91.53h-3.334V32.312zm5.557 0h3.333V91.53h-3.333V32.312zm5.556-3.948h3.334v59.218h-3.334V28.365zm5.556-3.948h3.334v59.218h-3.334V24.417zm5.557 3.948h3.333v59.218h-3.333V28.365zm5.556 3.948h3.334V91.53h-3.334V32.312zm5.556 3.947h3.334v59.22h-3.334V36.26zm5.556 3.948h3.334v59.22h-3.334v-59.22zm5.557 3.948h3.334v59.219h-3.334V44.156zm5.556 0h3.334v59.219h-3.334V44.156zm5.556 0h3.334v59.219h-3.334V44.156zm11.113-3.948h3.334v59.22h-3.334v-59.22z" fill-rule="nonzero" fill="url(#a)"/></svg>