<svg width="346" height="156" viewBox="0 0 346 156" xmlns="http://www.w3.org/2000/svg"><title>art-sound-bars-bg-small</title><defs><linearGradient x1="50%" y1="35.68%" x2="50%" y2="90.39%" id="a"><stop stop-color="#FF9B51" offset="0%"/><stop stop-color="#E58E4E" stop-opacity=".23" offset="100%"/></linearGradient></defs><path d="M426.3 132v46h-4.86V86h4.86v46zm-526.02 0v46h-4.86V86h4.86v46zM-404 80.25h4.05v86.25H-404V80.25zm8.1-11.5h4.04V155h-4.05V68.75zm8.1 5.75h4.03v86.25h-4.04V74.5zm8.08-5.75h4.04V155h-4.04V68.75zm8.1-11.5h4.04v86.25h-4.05V57.25zm16.18 0h4.04v86.25h-4.04V57.25zm-8.1 17.25h4.05v86.25h-4V74.5zm16.2 0h4.03v86.25h-4.1V74.5zm8.08-11.5h4.05v86.25h-4.1V63zm8.1-11.5h4.04v86.25h-4.05V51.5zm8.1-5.75h4.03V132h-4.04V45.75zM-315 40h4.04v86.25H-315V40zm8.1 5.75h4.04V132h-4.05V45.75zm8.08 5.75h4.05v86.25h-4.05V51.5zm8.1 5.75h4.04v86.25h-4.04V57.25zm8.1 0h4.03v86.25h-4V57.25zm8.08-5.75h4.05v86.25h-4V51.5zm8.1 0h4.04v86.25h-4.05V51.5zm8.1 5.75h4.03v86.25h-4.1V57.25zm8.08 0h4.05v86.25h-4.1V57.25zm8.1-5.75h4.04v86.25h-4.05V51.5zm8.08 0h4.05v86.25h-4.06V51.5zm8.1 0h4.85v86.25H-226V51.5zm8.1 5.75h4.84v86.25h-4.85V57.25zm8.08 5.75h4.86v86.25h-4.86V63zm8.1 5.75h4.85V155h-4.86V68.75zm8.1 5.75h4.84v86.25h-4.85V74.5zm8.08 0h4.85v86.25h-4.85V74.5zm8.1-5.75h4.85V155h-4.86V68.75zm8.08-5.75h4.86v86.25h-4.86V63zm8.1 5.75h4.85V155h-4.8V68.75zm8.1 5.75h4.85v86.25h-4.8V74.5zm8.08 5.75h4.86v86.25h-4.86V80.25zm8.1 5.75h4.85v86.25h-4.9V86zm8.1 5.75h4.84V178h-4.85V91.75zm8.08 0h4.86V178h-4.86V91.75zm8.1 0h4.85V178h-4.87V91.75zM-96.5 86h4.85v86.25h-4.85V86zm8.1-5.75h4.85v86.25h-4.86V80.25zm8.08-5.75h4.86v86.25h-4.86V74.5zm8.1 0h4.85v86.25h-4.85V74.5zm8.1 0h4.84v86.25h-4.85V74.5zm8.08 5.75h4.86v86.25h-4.86V80.25zm8.1 0h4.85v86.25h-4.8V80.25zm8.1-5.75H-35v86.25h-4.85V74.5zm8.08-5.75h4.85V155h-4.9V68.75zm8.1-5.75h4.85v86.25h-4.9V63zm8.08 5.75h4.86V155h-4.86V68.75zm8.1 0h4.85V155H-7.5V68.75zm8.1 5.75h4.84v86.25H.63V74.5zm8.08 0h4.86v86.25H8.72V74.5zm8.1-5.75h4.85V155H16.8V68.75zm8.1 5.75h4.84v86.25H24.9V74.5zm8.08 0h4.85v86.25H33V74.5zm8.1-5.75h4.85V155H41.1V68.75zm8.1-5.75h4.85v86.25h-4.86V63zm8.1-5.75h4.84v86.25h-4.85V57.25zm8.1-5.75h4.83v86.25h-4.8V51.5zm8.07 5.75h4.86v86.25h-4.8V57.25zm8.1 5.75h4.85v86.25h-4.85V63zm8.1 5.75h4.84V155h-4.9V68.75zm8.08 5.75h4.85v86.25h-4.86V74.5zm8.1 0h4.85v86.25h-4.87V74.5zm8.08 0h4.9v86.25H114V74.5zm8.1 5.75h4.1v86.25H122V80.25zm8.1-11.5h4.1V155h-4V68.75zm8.1 5.75h4.1v86.25h-4V74.5zm8.1-5.75h4.1V155h-4V68.75zm8.1-11.5h4.1v86.25h-4V57.25zm16.2 0h4.1v86.25h-4V57.25zm-8.1 17.25h4.1v86.25h-4V74.5zm16.2 0h4.1v86.25h-4V74.5zm8.1-11.5h4.1v86.25h-4V63zm8.1-11.5h4.1v86.25h-4V51.5zm8.1-5.75h4V132h-4V45.75zm8.1-5.75h4.1v86.25h-4V40zm8.1 5.75h4.1V132h-4V45.75zm8.1 5.75h4.1v86.25h-4V51.5zm8.1 5.75h4.1v86.25h-4V57.25zm8.1 0h4.1v86.25h-4V57.25zm8.1-5.75h4.1v86.25h-4V51.5zm8.1 0h4.1v86.25h-4V51.5zm8.1 5.75h4.1v86.25h-4V57.25zm8.1 0h4.1v86.25h-4V57.25zm8.1-5.75h4v86.25h-4V51.5zm8.1 0h4v86.25H292V51.5zm8.1 0h4.8v86.25h-4.8V51.5zm8.1 5.75h4.8v86.25h-4.8V57.25zm8 5.75h4.9v86.25h-4.8V63zm8.1 5.75h4.9V155h-4.9V68.75zm8.1 5.75h4.9v86.25h-4.8V74.5zm8.1 0h4.9v86.25h-4.8V74.5zm8.1-5.75h4.9V155h-4.82V68.75zm8-5.75h4.9v86.25h-4.8V63zm8.1 5.75h4.9V155h-4.8V68.75zm8.1 5.75h4.9v86.25H373V74.5zm8.1 5.75h4.9v86.25H381V80.25zm8.1 5.75h4.9v86.25h-4.8V86zm8.1 5.75h4.9V178h-4.82V91.75zm8.1 0h4.9V178h-4.8V91.75zm8.1 0h4.9V178h-4.82V91.75zM429.5 86h4.86v86.25h-4.87V86zm8.1-5.75h4.85v86.25h-4.85V80.25zm8.1-5.75h4.85v86.25h-4.86V74.5zm8.08 0h4.87v86.25h-4.86V74.5zm8.1 0h4.86v86.25h-4.86V74.5zm8.1 5.75h4.85v86.25H470V80.25zm8.1 0h4.85v86.25h-4.86V80.25zm8.08-5.75h4.86v86.25h-4.86V74.5zm8.1-5.75h4.85V155h-4.8V68.75zm8.1-5.75h4.84v86.25h-4.85V63zm8.08 5.75h4.86V155h-4.86V68.75zm8.1 0h4.85V155h-4.8V68.75zm8.1 5.75h4.84v86.25h-4.85V74.5zm8.08 0h4.85v86.25h-4.9V74.5zm8.1-5.75h4.85V155h-4.9V68.75zm8.08 5.75h4.86v86.25h-4.86V74.5zm8.1 0h4.85v86.25H559V74.5zm8.1-5.75h4.84V155h-4.85V68.75zm8.1-5.75h4.86v86.25h-4.86V63zm8.1-5.75h4.85v86.25h-4.86V57.25zm8.1-5.75h4.84v86.25h-4.85V51.5zm8.08 5.75h4.85v86.25h-4.85V57.25zm8.1 5.75h4.85v86.25h-4.86V63zm8.08 5.75h4.86V155h-4.86V68.75zm8.1 5.75h4.85v86.25h-4.8V74.5zm8.1 0h4.84v86.25h-4.85V74.5zm8.08 0h4.86v86.25h-4.86V74.5zm8.1-5.75h4.85V155H648V68.75zm8.1 5.75h4.84v86.25h-4.85V74.5zm8.08 0h4.85v86.25h-4.85V74.5zm8.1-5.75h4.85V155h-4.86V68.75zM680.4 63h4.86v86.25h-4.86V63zm8.1-5.75h4.85v86.25h-4.85V57.25zm8.1-5.75h4.84v86.25h-4.85V51.5zm8.08 5.75h4.86v86.25h-4.86V57.25zm8.1 5.75h4.85v86.25h-4.86V63zm8.1 5.75h4.84V155h-4.85V68.75zm8.08 5.75h4.85v86.25H729V74.5zm8.1 0h4.85v86.25h-4.8V74.5zm8.08 0H750v86.25h-4.86V74.5z" transform="rotate(-180 173 109)" fill="url(#a)" opacity=".48"/></svg>