<svg viewBox="0 0 337 1377" xmlns="http://www.w3.org/2000/svg"><title>_sinew-combined</title><defs><linearGradient x1="100%" y1="0%" x2="0%" y2="100%" id="a"><stop stop-color="#40FFF1" offset="0%"/><stop stop-color="#88FF6A" offset="100%"/></linearGradient><linearGradient x1="0%" y1="0%" y2="100%" id="b"><stop stop-color="#88FF6A" offset="0%"/><stop stop-color="#FF62B5" offset="100%"/></linearGradient><linearGradient x1="100%" y1="0%" x2="0%" y2="100%" id="c"><stop stop-color="#FF62B5" offset="0%"/><stop stop-color="#FFF871" offset="100%"/></linearGradient><linearGradient x1="0%" y1="0%" y2="100%" id="d"><stop stop-color="#FFF871" offset="0%"/><stop stop-color="#FFC057" offset="100%"/></linearGradient><linearGradient x1="100%" y1="0%" x2="0%" y2="100%" id="e"><stop stop-color="#FFC057" offset="0%"/><stop stop-color="#29D4FF" offset="100%"/></linearGradient></defs><g fill="none" fill-rule="evenodd"><path stroke="#88FF6A" d="M30 243l12-8.5-1 15.5"/><path stroke="#88FF6A" d="M25.5 241.5l19-13v27"/><path stroke="#88FF6A" d="M19 242l29-19.5-1.5 44.5"/><path d="M133 34.5L126.5 73m9.5-34.5l-5 27m8-24l-3.5 15m10.5-11l-9.5 10m14.5-9L133 63m23.5-17l-29 27" stroke="#40FFF1"/><path d="M123 10.5L17 211" stroke="url(#a)" stroke-width="2" stroke-dasharray="5,5,5,5" transform="translate(19 34)"/><path d="M20.5 247L240 356.5" stroke="url(#b)" stroke-width="2" stroke-dasharray="5,5,5,5" transform="translate(19 34)"/><path d="M31.5 286l19 .5m-6-14l5 13m-3-21.5l9.5 25" stroke="#88FF6A"/><path d="M263 384h-17.5m.5 0l10.5 14.5m12.5-18.504L239 380m.5.5l19.5 29m-27-33h48" stroke="#FF62B5"/><g transform="translate(121 723)"><path d="M35.04 26l-3.3-5H13.26l-3.3 5h25.08zm1.32 2L39 32H6l2.64-4h27.72zm-5.94-9l-3.3-5h-9.24l-3.3 5h15.84zm-4.62-7l-3.3-5-3.3 5h6.6z" fill="#FFF871"/><circle stroke="#FFF871" stroke-width="2" cx="22.5" cy="22.5" r="22.5"/></g><g transform="translate(291 1032)"><path d="M8 15.994A2.994 2.994 0 0 1 10.994 13h23.012A2.996 2.996 0 0 1 37 15.994v14.012A2.994 2.994 0 0 1 34.006 33H10.994A2.996 2.996 0 0 1 8 30.006V15.994zm6.824.895h19.333V18H14.824v-1.111zm-2.844 1.667c.628 0 1.138-.498 1.138-1.112s-.51-1.11-1.138-1.11c-.628 0-1.137.497-1.137 1.11s.51 1.112 1.137 1.112zm2.844 3.888h19.333v1.112H14.824v-1.112zm-2.844 1.667c.628 0 1.138-.497 1.138-1.111s-.51-1.111-1.138-1.111c-.628 0-1.137.497-1.137 1.111s.51 1.111 1.137 1.111zM14.824 28h19.333v1.111H14.824V28zm-2.844 1.667c.628 0 1.138-.498 1.138-1.111 0-.614-.51-1.112-1.138-1.112-.628 0-1.137.498-1.137 1.112s.51 1.11 1.137 1.11z" fill="#FFC057"/><circle stroke="#FFC057" stroke-width="2" cx="22.5" cy="22.5" r="22.5"/></g><g transform="translate(127 1331)"><circle stroke="#29D4FF" stroke-width="2" cx="22.5" cy="22.5" r="22.5"/><path fill="#29D4FF" d="M8 30.061h29V32H8z"/><path fill="#29D4FF" d="M13.8 13h1.933v18.224H13.8zm7.733 6.592h1.934v10.47h-1.934zM29.267 13H31.2v18.224h-1.933z"/><path d="M8 31s7 0 7-18m0 0s-1 8 7.5 8m0 0s8 .5 8-7.5m0 0S31 31 37 31" stroke="#29D4FF"/></g><path d="M138.5 6.5L19 310" stroke="url(#c)" stroke-width="2" stroke-dasharray="5,5,5" transform="translate(131 413)"/><path d="M261.5 413.5l3 18m14-9.5l-13 8.5m25-10.5l-28 17" stroke="#FF62B5"/><path d="M154.5 712.5L142 723m12.5-10l1.5 13m1-19.5l-26 20m26-20.5l5 26.5" stroke="#FFF871"/><path d="M22.5 352.5l145.5 271" stroke="url(#d)" stroke-width="2" stroke-dasharray="5,5,5" transform="translate(131 413)"/><path d="M169 660L30 922" stroke="url(#e)" stroke-width="2" stroke-dasharray="5,5,5" transform="translate(131 413)"/><path d="M148 767.5l10 7m2-14l-1.5 13.5m-18.5-6l21.5 13m3-27.5l-2.5 27" stroke="#FFF871"/><path d="M295 1029.5l-1 13.5m1.5-13.5l10.5 3.5m-13.5-8l-1.5 25m1.5-25.5l20 7m-17 37l-.25 13.5m-.25.5l12-6.5m-14.5-13.5l-1 26m0 0l20-11m-23 17l34-19" stroke="#FFC057"/><path d="M157 1332l10-8m-2 12.5l1.5-12.5m-14 6.5l18-13.5m-2 24l2-24m1 31.5l4-40.5m-34 24.5l34-24" stroke="#29D4FF"/><g transform="translate(130 1)"><g transform="translate(13 9)"><ellipse fill="#40FFF1" cx="2.5" cy="2.545" rx="2.5" ry="2.545"/><ellipse fill="#40FFF1" cx="2.5" cy="10.182" rx="2.5" ry="2.545"/><ellipse fill="#40FFF1" cx="2.5" cy="17.818" rx="2.5" ry="2.545"/><ellipse fill="#40FFF1" cx="17.5" cy="14" rx="2.5" ry="2.545"/><ellipse fill="#40FFF1" cx="2.5" cy="25.455" rx="2.5" ry="2.545"/><path d="M2.375 2.673s9.375 11.454 15.25 11.454M2.5 10.437s5 3.818 15 3.818m-15 11.327s9.75-11.327 15.125-11.327m-15.25 3.69s8.25-3.818 15.375-3.818" stroke="#40FFF1" stroke-width="2"/></g><circle stroke="#40FFF1" stroke-width="2" cx="22.5" cy="22.5" r="22.5"/></g><g transform="translate(1 242)"><path d="M9 15.484A2.486 2.486 0 0 1 11.485 13h23.03A2.478 2.478 0 0 1 37 15.484a2.486 2.486 0 0 1-2.485 2.484h-23.03A2.478 2.478 0 0 1 9 15.484zm0 7.451a2.486 2.486 0 0 1 2.485-2.483h23.03A2.478 2.478 0 0 1 37 22.935a2.486 2.486 0 0 1-2.485 2.484h-23.03A2.478 2.478 0 0 1 9 22.935zm0 7.452a2.486 2.486 0 0 1 2.485-2.484h23.03A2.478 2.478 0 0 1 37 30.387a2.486 2.486 0 0 1-2.485 2.484h-23.03A2.478 2.478 0 0 1 9 30.387zm3.111-13.661a1.243 1.243 0 0 0 0-2.484 1.243 1.243 0 0 0 0 2.484zm3.733 0a1.243 1.243 0 0 0 0-2.484 1.243 1.243 0 0 0 0 2.484zm3.734 0a1.243 1.243 0 0 0 0-2.484 1.243 1.243 0 0 0 0 2.484zm-7.467 7.451a1.243 1.243 0 0 0 0-2.484 1.243 1.243 0 0 0 0 2.484zm3.733 0a1.243 1.243 0 0 0 0-2.484 1.243 1.243 0 0 0 0 2.484zm3.734 0a1.243 1.243 0 0 0 0-2.484 1.243 1.243 0 0 0 0 2.484zM12.11 31.63a1.243 1.243 0 0 0 0-2.484 1.243 1.243 0 0 0 0 2.484zm3.733 0a1.243 1.243 0 0 0 0-2.484 1.243 1.243 0 0 0 0 2.484zm3.734 0a1.243 1.243 0 0 0 0-2.484 1.243 1.243 0 0 0 0 2.484z" fill="#88FF6A"/><circle stroke="#88FF6A" stroke-width="2" cx="22.5" cy="22.5" r="22.5"/></g><g transform="translate(257 377)"><circle stroke="#FF62B5" stroke-width="2" cx="22.5" cy="22.5" r="22.5"/><path d="M21.565 28.406c-1.02.826-2.389 1.294-4.11 1.404v1.92h-1.404v-1.92c-1.322-.055-2.502-.316-3.542-.785-1.04-.468-1.876-1.08-2.509-1.838l2.809-2.457c.867 1.198 1.948 1.9 3.242 2.106v-3.345l-1.033-.227c-1.349-.317-2.382-.84-3.097-1.57-.716-.73-1.074-1.617-1.074-2.664 0-1.225.46-2.203 1.383-2.932.923-.73 2.196-1.136 3.82-1.219V13h1.405v1.88c2.051.137 3.82.84 5.308 2.106l-2.437 2.52c-.799-.978-1.756-1.57-2.87-1.777v2.767l1.3.31c1.515.344 2.616.868 3.304 1.57.689.702 1.033 1.645 1.033 2.829 0 1.308-.51 2.375-1.528 3.2zm-6.826-8.787c.241.2.679.382 1.312.547v-2.52c-.537.028-.95.145-1.24.352a.967.967 0 0 0-.433.826c0 .33.12.595.361.795zm4.151 6.815c.351-.255.527-.582.527-.981 0-.427-.148-.76-.444-1.002-.296-.24-.802-.45-1.518-.63v3.077c.606-.055 1.084-.21 1.435-.464zm15.582 1.972c-1.019.826-2.389 1.294-4.11 1.404v1.92h-1.404v-1.92c-1.322-.055-2.502-.316-3.542-.785-1.04-.468-1.876-1.08-2.509-1.838l2.809-2.457c.867 1.198 1.948 1.9 3.242 2.106v-3.345l-1.033-.227c-1.349-.317-2.381-.84-3.097-1.57-.716-.73-1.074-1.617-1.074-2.664 0-1.225.461-2.203 1.383-2.932.923-.73 2.196-1.136 3.82-1.219V13h1.405v1.88c2.052.137 3.82.84 5.308 2.106l-2.437 2.52c-.799-.978-1.756-1.57-2.87-1.777v2.767l1.3.31c1.515.344 2.616.868 3.304 1.57.689.702 1.033 1.645 1.033 2.829 0 1.308-.51 2.375-1.528 3.2zm-6.825-8.787c.24.2.678.382 1.31.547v-2.52c-.536.028-.95.145-1.238.352a.967.967 0 0 0-.434.826c0 .33.12.595.362.795zm4.15 6.815c.352-.255.527-.582.527-.981 0-.427-.148-.76-.444-1.002-.296-.24-.802-.45-1.518-.63v3.077c.606-.055 1.084-.21 1.435-.464z" fill="#FF62B5"/></g></g></svg>