<?xml version="1.0" encoding="UTF-8"?>
<svg width="1440px" height="391px" viewBox="0 0 1440 391" version="1.1" xmlns="http://www.w3.org/2000/svg" xmlns:xlink="http://www.w3.org/1999/xlink">
    <!-- Generator: Sketch 42 (36781) - http://www.bohemiancoding.com/sketch -->
    <title>_change-graphic</title>
    <desc>Created with Sketch.</desc>
    <defs></defs>
    <g id="Page-1" stroke="none" stroke-width="1" fill="none" fill-rule="evenodd" opacity="0.300000012">
        <g id="Artboard" transform="translate(-88.000000, -180.000000)" stroke="#444444">
            <g id="_change-graphic" transform="translate(0.000000, 175.000000)">
                <path d="M50,328 C50,328 392,152 649.5,220 C907,288 1011.5,296.5 1178,221.5 C1344.5,146.5 1482,155.5 1576.5,207" id="Path-7"></path>
                <path d="M60,73.5 C60,73.5 104.5,316.5 370.5,316.5 C636.5,316.5 749.5,197.5779 911,197.5779 C1072.5,197.5779 1051,326.5 1283.5,321.5 C1516,316.5 1592,131.5 1592,131.5" id="Path-9"></path>
                <path d="M1578,388.5 C1578,388.5 1502,154.5 1094,311.5 C686,468.5 794.5,149.5 567.5,149.5 C340.5,149.5 327,331 68,384.5" id="Path-10"></path>
                <path d="M1579,323.5 C1579,323.5 1479.5,61 1228.5,113.5 C977.5,166 970.5,332 808,342.5 C645.5,353 550,162 343.5,149 C137,136 0,274.5 0,274.5" id="Path-8"></path>
                <path d="M63,227 C63,227 422,186.5 603.5,318 C785,449.5 867.5,183.5 1041.5,168 C1215.5,152.5 1359,397 1605.5,346" id="Path-11"></path>
                <path d="M1548,134.5 C1548,134.5 1271.5,369.5 1016.5,358 C761.5,346.5 738.5,179 629.5,179 C520.5,179 533,395 330.5,395 C128,395 187,24.5 73,0.5" id="Path-12"></path>
            </g>
        </g>
    </g>
</svg>
