<?xml version="1.0" encoding="UTF-8"?>
<svg width="240px" height="203px" viewBox="0 0 240 203" version="1.1" xmlns="http://www.w3.org/2000/svg" xmlns:xlink="http://www.w3.org/1999/xlink">
    <!-- Generator: Sketch 41.2 (35397) - http://www.bohemiancoding.com/sketch -->
    <title>bg-pm</title>
    <desc>Created with Sketch.</desc>
    <defs>
        <rect id="path-1" x="0" y="0" width="249.496632" height="203"></rect>
        <linearGradient x1="50%" y1="0%" x2="50%" y2="100%" id="linearGradient-3">
            <stop stop-color="#E5EEFF" offset="0%"></stop>
            <stop stop-color="#A2F0FF" offset="100%"></stop>
        </linearGradient>
    </defs>
    <g id="strategic-services" stroke="none" stroke-width="1" fill="none" fill-rule="evenodd">
        <g id="Artboard" transform="translate(-831.000000, -325.000000)">
            <g id="bg-pm" transform="translate(821.000000, 325.000000)">
                <mask id="mask-2" fill="white">
                    <use xlink:href="#path-1"></use>
                </mask>
                <g id="Mask"></g>
                <path d="M163.732161,229.166667 L260.25,229.166667 L260.25,38.1944444 L277.501792,38.1944444 C281.646788,38.1944444 285,34.8345127 285,30.6898268 L285,30.4212844 C285,26.2694398 281.642938,22.9166667 277.501792,22.9166667 L155.75,22.9166667 L155.75,6.87251334 C155.75,3.07713537 152.671958,0 148.875,0 C145.085768,0 142,3.07692903 142,6.87251334 L142,22.9166667 L17.4982077,22.9166667 C13.3532124,22.9166667 10,26.2765985 10,30.4212844 L10,30.6898268 C10,34.8416713 13.357062,38.1944444 17.4982077,38.1944444 L37.5,38.1944444 L37.5,229.166667 L131.267839,229.166667 L105.302999,260.110358 C104.057856,261.594262 104.25001,263.806766 105.733006,265.051148 L110.895712,269.383173 C112.382888,270.631061 114.5906,270.433029 115.83611,268.948688 L140.625,239.406439 L140.625,271.491538 C140.625,273.428637 142.194368,275 144.130283,275 L150.869717,275 C152.811087,275 154.375,273.429208 154.375,271.491538 L154.375,239.406439 L179.16389,268.948688 C180.4094,270.433029 182.617112,270.631061 184.104288,269.383173 L189.266994,265.051148 C190.74999,263.806766 190.942144,261.594262 189.697001,260.110358 L163.732161,229.166667 Z M47.125,38.1944444 L252,38.1944444 L252,221.527778 L47.125,221.527778 L47.125,38.1944444 Z M62.25,55 L235.5,55 L235.5,79.4444444 L62.25,79.4444444 L62.25,55 Z M62.25,94.7222222 L208,94.7222222 L208,119.166667 L62.25,119.166667 L62.25,94.7222222 Z M62.25,134.444444 L194.25,134.444444 L194.25,158.888889 L62.25,158.888889 L62.25,134.444444 Z M62.25,174.166667 L166.75,174.166667 L166.75,198.611111 L62.25,198.611111 L62.25,174.166667 Z" id="_icon-project-management" fill="url(#linearGradient-3)" mask="url(#mask-2)"></path>
            </g>
        </g>
    </g>
</svg>