<?xml version="1.0" encoding="UTF-8"?>
<svg width="350px" height="203px" viewBox="0 0 350 203" version="1.1" xmlns="http://www.w3.org/2000/svg" xmlns:xlink="http://www.w3.org/1999/xlink">
    <!-- Generator: Sketch 41.2 (35397) - http://www.bohemiancoding.com/sketch -->
    <title>bg-wand</title>
    <desc>Created with Sketch.</desc>
    <defs>
        <linearGradient x1="50%" y1="0%" x2="50%" y2="100%" id="linearGradient-1">
            <stop stop-color="#F1FEFF" offset="0%"></stop>
            <stop stop-color="#DBDDFF" offset="100%"></stop>
        </linearGradient>
    </defs>
    <g id="strategic-services" stroke="none" stroke-width="1" fill="none" fill-rule="evenodd">
        <g id="bg-wand" fill="url(#linearGradient-1)">
            <path d="M217.50741,148.469891 C228.08185,159.08702 238.705519,169.751381 249.15787,180.242562 C181.739418,247.621485 113.999991,315.321185 46.725288,382.556447 C36.1370642,371.97474 25.4031219,361.247405 15,350.848719 C82.0167417,283.873227 149.848719,216.084969 217.50741,148.469891 Z M487.220209,48.7361748 C479.22932,62.6299535 471.242369,76.5276682 463.243602,90.415543 C459.809371,96.3784538 456.489351,102.414179 452.840481,108.241301 C451.127303,110.974793 451.280898,113.047052 452.905463,115.786449 C463.684696,133.966439 474.286704,152.252698 484.937942,170.509438 C485.759085,171.91456 486.519185,173.353137 488,176.025623 C485.018678,174.423706 483.112522,173.463342 481.263472,172.398677 C463.36766,162.094453 445.438373,151.843363 427.629205,141.391542 C424.450966,139.52395 422.129315,139.303539 418.769912,141.30692 C399.347994,152.882445 379.739006,164.149 359.531389,175.03574 C362.394562,170.066648 365.240011,165.089684 368.120906,160.132399 C376.608026,145.541964 384.998657,130.894457 393.686632,116.426035 C395.626264,113.198585 395.746383,110.909851 393.790998,107.587939 C382.247727,87.9890517 370.988017,68.2248562 360.165462,47.7954912 C366.738549,51.5660974 373.329359,55.3032484 379.878817,59.1132138 C393.196309,66.8610618 406.543339,74.5636468 419.750558,82.4925468 C422.47195,84.1259514 424.431274,83.6733212 426.888797,82.2445842 C444.885036,71.784891 462.936412,61.4157238 480.974004,51.0268771 C482.795485,49.9779558 484.646505,48.9821694 486.48177,47.9627675 C486.727917,48.2205699 486.974063,48.4783724 487.220209,48.7361748 Z M311.215849,117.806557 C296.466771,132.507198 281.522744,147.402667 266.866216,162.010815 C256.492632,151.63968 245.861087,141.008774 235.601714,130.753748 C250.203105,116.198736 265.247559,101.198965 279.929686,86.5632666 C289.921252,96.5427782 300.621718,107.228786 311.215849,117.806557 Z M162.066628,-6 C169.90983,-1.5819358 176.514424,2.18079862 183.16037,5.87268657 C188.449559,8.81084686 193.780101,13.9137602 199.102766,13.9236 C204.413615,13.9354077 209.75991,8.85414192 215.045161,5.91991754 C221.695046,2.22802959 228.297671,-1.55044848 235.62495,-4.57716685 C230.965895,3.42257969 226.881838,11.8375652 221.490252,19.3079313 C215.61622,27.4454348 214.641481,34.260471 221.279551,42.6479052 C226.808979,49.6321857 230.664613,57.9409016 235.932141,66.7908057 C233.693195,65.9327763 232.537293,65.6415186 231.533016,65.0786828 C221.813196,59.6412167 212.071715,54.2431098 202.454292,48.6304955 C200.038121,47.2194701 198.232393,47.2037264 195.812284,48.6147518 C186.334671,54.140776 176.729063,59.4503249 167.160869,64.8228484 C166.06798,65.4348831 164.914047,65.9367122 162.517568,67.1115827 C163.880233,64.4764879 164.581257,62.9395132 165.437846,61.4950325 C170.699466,52.6215129 175.880351,43.6968264 181.348734,34.953192 C183.057974,32.2196993 183.158401,30.2359983 181.421594,27.4277232 C175.823245,18.3790554 170.555717,9.12375208 165.187761,-0.0685766097 C164.31345,-1.56619214 163.565166,-3.13859004 162.066628,-6 Z M325.447824,247.50695 C334.960881,252.828306 344.552705,258.015842 353.943674,263.545802 C356.903336,265.287444 359.085176,265.169367 361.981824,263.474955 C371.276303,258.037489 380.748008,252.907025 390.847878,248.168183 C388.738897,251.91911 386.64567,255.679876 384.516998,259.418995 C383.219316,261.695922 381.829082,263.921682 380.547153,266.20648 C377.835606,271.03388 373.044617,275.900638 373.074155,280.726069 C373.103692,285.58102 377.920281,290.420227 380.686964,295.237787 C384.01486,301.037357 387.393955,306.809376 390.160638,313.35677 C386.433,311.268767 382.681732,309.224059 378.983632,307.082922 C373.030833,303.635061 367.036682,300.248206 361.217786,296.581902 C358.781923,295.048863 356.991948,295.163004 354.558055,296.64094 C346.015798,301.826508 337.314039,306.748369 328.661509,311.750917 C327.606034,312.359015 326.481638,312.845101 324.333274,313.911734 C330.427853,303.436297 335.805655,293.946807 341.463079,284.624593 C343.19004,281.776959 343.402711,279.655501 341.567445,276.676013 C335.813532,267.341992 330.439668,257.773783 324.918118,248.296101 C325.095343,248.034362 325.270599,247.770656 325.447824,247.50695 Z M412.851376,252.569913 C416.110352,246.707369 419.099551,240.671643 422.722823,235.041318 C425.026751,231.461603 424.756975,228.74779 422.624364,225.262538 C419.160595,219.600724 416.254101,213.596487 413.922605,206.809002 C419.455971,210.034484 425.203976,212.950997 430.453782,216.583846 C434.43938,219.342922 437.511285,219.173678 441.435839,216.516935 C446.912099,212.809304 452.825515,209.747162 459.144579,207.027445 C455.501616,213.736212 451.685366,220.360356 448.343685,227.216719 C447.52648,228.891451 447.579648,231.670207 448.416545,233.350842 C451.677489,239.900204 455.411034,246.211443 458.335251,253.307897 C452.071323,249.663241 445.699091,246.183892 439.590728,242.295208 C436.796476,240.516175 434.744602,240.675579 432.036994,242.387702 C425.983767,246.219315 419.711963,249.700632 413.526802,253.325609 C413.302316,253.073711 413.075862,252.821812 412.851376,252.569913 Z" id="_wand" transform="translate(251.500000, 188.278224) scale(-1, 1) translate(-251.500000, -188.278224) "></path>
        </g>
    </g>
</svg>