<?xml version="1.0" encoding="UTF-8"?>
<svg width="270px" height="92px" viewBox="0 0 270 92" version="1.1" xmlns="http://www.w3.org/2000/svg" xmlns:xlink="http://www.w3.org/1999/xlink">
    <!-- Generator: Sketch 41.2 (35397) - http://www.bohemiancoding.com/sketch -->
    <title>brush-red-arrow</title>
    <desc>Created with Sketch.</desc>
    <defs></defs>
    <g id="Page-1" stroke="none" stroke-width="1" fill="none" fill-rule="evenodd">
        <g id="brush-red-arrow" fill="#D93939">
            <path d="M266.39,23.52 C266.3,23.26 266.11,23.41 266.16,24.13 L266.5,24.63 L266.39,23.52 Z" id="Shape"></path>
            <path d="M265.88,28.33 C266.06,29.16 266.36,30.13 266.65,29.58 C266.32,28.76 266.45,28.58 266.05,27.67 C266,26.96 266.13,26.42 266.25,26.54 C266.16,26.29 266.25,25.43 266.08,25.05 C265.846424,26.1477122 265.846424,27.2822878 266.08,28.38 C266,28.64 265.94,28.39 265.88,28.33 Z" id="Shape"></path>
            <path d="M254.59,83 L255.01,83.16 C254.873799,83.0971839 254.733473,83.0437266 254.59,83 L254.59,83 Z" id="Shape"></path>
            <path d="M212.35,74 L212.84,74 L212.35,74 Z" id="Shape"></path>
            <path d="M218.05,75.86 L217.62,75.86 C217.762124,75.8863362 217.907876,75.8863362 218.05,75.86 L218.05,75.86 Z" id="Shape"></path>
            <path d="M254.59,83 L253.51,82.58 C253.4,82.68 254.06,82.84 254.59,83 Z" id="Shape"></path>
            <path d="M266.81,37.93 C266.79617,37.7180059 266.766081,37.5073868 266.72,37.3 L266.72,37.89 L266.81,37.93 Z" id="Shape"></path>
            <path d="M264.66,78.91 L264.66,78.56 C264.628156,78.4569273 264.588026,78.3566 264.54,78.26 L264.66,78.91 Z" id="Shape"></path>
            <path d="M265,64.33 C265,64.66 265.26,64.78 265.38,64.91 C265.264044,64.6875593 265.202364,64.4408388 265.2,64.19 C265.17,64.18 265.11,64.22 265,64.33 Z" id="Shape"></path>
            <path d="M265.7,41.21 L265.7,40.8 L265.7,41.21 Z" id="Shape"></path>
            <path d="M262.89,85.26 C262.872824,85.2036775 262.837708,85.1545139 262.79,85.12 C262.79,85.12 262.82,85.21 262.89,85.26 Z" id="Shape"></path>
            <path d="M14.54,60.57 L14.54,60.57 C14.54,60.57 14.45,60.64 14.54,60.57 Z" id="Shape"></path>
            <path d="M1,70.84 L1.16,70.67 C1.14766856,70.6155672 1.12379763,70.5644152 1.09,70.52 L1,70.84 Z" id="Shape"></path>
            <path d="M231.23,77.95 L231.17,77.95 C230.82,77.9 231,77.93 231.23,77.95 Z" id="Shape"></path>
            <path d="M204.59,26.58 C205.59,27.58 202.53,25.52 204.11,26.97 C204,26.77 205.93,27.73 204.59,26.58 Z" id="Shape"></path>
            <path d="M266.78,38.3 L266.78,38.9 C266.790897,38.7001484 266.790897,38.4998516 266.78,38.3 L266.78,38.3 Z" id="Shape"></path>
            <polygon id="Shape" points="204.11 27 204.11 27 204.27 27.15"></polygon>
            <path d="M260.28,87.56 C260.218152,87.4641592 260.140364,87.3796061 260.05,87.31 C260.05,87.31 260.1,87.4 260.28,87.56 Z" id="Shape"></path>
            <path d="M239,79.12 L239.54,79.3 C239.364267,79.2278864 239.183855,79.167749 239,79.12 Z" id="Shape"></path>
            <path d="M261.91,83.4 C261.758601,83.1608508 261.58082,82.9394631 261.38,82.74 L261.44,82.86 C261.629468,83.0085924 261.788966,83.1918447 261.91,83.4 L261.91,83.4 Z" id="Shape"></path>
            <path d="M253.8,73.87 C253.8,73.93 253.87,74.01 253.91,74.08 L254.18,74.37 L253.8,73.87 Z" id="Shape"></path>
            <path d="M43.75,36.46 C43.5549838,36.5374625 43.349277,36.5846739 43.14,36.6 C43.4,36.64 42,37.78 43.75,36.46 Z" id="Shape"></path>
            <path d="M266.66,37.93 C266.742146,38.0354478 266.784621,38.1664114 266.78,38.3 L266.78,37.88 C266.78,37.88 266.68,37.84 266.66,37.93 Z" id="Shape"></path>
            <path d="M259.89,84.44 L258.64,82.9 C259,83.34 259.43,83.9 259.89,84.44 Z" id="Shape"></path>
            <path d="M125.22,3.72 L124.77,3.78 C124.922081,3.78135479 125.073587,3.76115401 125.22,3.72 Z" id="Shape"></path>
            <path d="M254.79,78.44 C254.62694,78.0900031 254.43283,77.7553301 254.21,77.44 C254.145253,77.388706 254.074783,77.3450821 254,77.31 L254.79,78.44 Z" id="Shape"></path>
            <path d="M33.21,45.07 C34.68,43.89 33.67,44.23 33.85,43.82 C35.55,42.34 34.85,43.39 35.56,43.06 C36.56,42.12 37.25,41.19 38.08,40.55 C38.18,40.55 38.36,40.45 38.21,40.65 C39.21,39.53 41.7,37.96 42.89,36.65 C42.9647542,36.6129731 43.046616,36.5925076 43.13,36.59 C42.79,36.59 42.65,36.48 42.61,36.34 C43.29,35.84 43.74,35.22 44.14,35.23 C43.9064067,35.3816551 43.7167454,35.5920067 43.59,35.84 L44.25,35.23 C45.1,35.04 43.34,36.04 43.49,36.23 C44.7293518,35.0712836 46.0493306,34.0019337 47.44,33.03 C47.86,33.15 44.97,34.9 46.59,34.13 C46.0033333,34.4833333 45.4233333,34.8466667 44.85,35.22 C46.43,34.73 43.85,35.92 45.32,35.54 C47.56,34.05 47.68,33.66 49.93,32.2 C50.33,31.71 49.61,32.08 50,31.59 C53,29.19 53,30.59 55.07,28.71 C55.5871054,27.8013287 56.398327,27.0959186 57.37,26.71 L57,27.4 C59.22,26.04 58,26.15 60.44,24.94 C60.1,25.32 58.76,26.11 59.12,25.94 C60.79,25.28 60.12,25.1 61.24,24.4 L61.65,24.55 C64.01,23.11 66.55,21.38 69.24,19.89 C69.14,20.06 68.72,20.4 69.4,20.16 C71.06,19.16 72.94,18.29 74.79,17.41 C76.64,16.53 78.54,15.81 80.3,15.18 L81.49,14.35 C81.8,14.22 82.11,14.23 81.8,14.42 C83.18,13.95 81.8,14.22 82.39,13.84 C83.14,13.5 83.46,13.57 83.01,13.84 C84.14,13.22 85.8,12.46 87.5,11.72 C89.0556294,11.0591467 90.6605127,10.5208421 92.3,10.11 L91.83,10.37 C93.83,9.78 93.9,9.07 95.83,8.72 L95.49,8.88 C97.68,8.22 100.01,7.6 102.19,6.99 C104.157676,6.46484921 106.164001,6.0970229 108.19,5.89 C108.76,5.34 112.65,5.2 112.85,4.62 C114.16,4.56 114.64,4.62 115.24,4.62 C115.84,4.62 116.57,4.57 118.4,4.48 C119.4,4.4 119.81,3.95 121.01,3.75 L121.07,4.05 C121.6,3.89 122.14,3.76 122.68,3.61 L123.58,3.92 L124.71,3.76 C124.26,3.76 123.71,3.69 123.81,3.59 C124.747372,3.45928733 125.69574,3.42577607 126.64,3.49 C127.164337,3.48903125 127.685044,3.57694297 128.18,3.75 C129.57,3.64 130.97,3.48 132.36,3.45 C131.923136,3.58877151 131.46832,3.66288954 131.01,3.67 C133.25,3.41 131.41,4 133.46,3.76 C133.19,3.68 133.61,3.58 133.66,3.52 C134.407334,3.64402074 135.16261,3.71420132 135.92,3.73 C136.84,3.81 137.85,3.86 138.71,3.89 L138.37,4.08 C139.14,4.15 139.94,4.21 140.75,4.26 L143.22,4.51 L145.76,4.77 C146.61,4.88 147.47,5.03 148.33,5.17 C147.11,4.86 147.45,4.55 148.47,4.68 L148.82,5.07 C149.51,4.98 147.82,4.77 149.17,4.75 C150.45,5 149.97,5.26 149.17,5.24 L150.75,5.39 C150.82,5.5 150.45,5.49 150.33,5.6 C151.02,5.48 152.93,6.48 153.92,6.32 L153.99,6.43 C155.7,6.77 156.92,7.08 158.07,7.36 C159.22,7.64 160.31,7.84 161.66,8.27 C161.79,8.02 162.84,8.4 163.72,8.44 C165.72,9.1 167.81,10.14 170.19,10.94 C171.89,11.45 170.76,10.94 171.56,11.04 C171.56,11.33 173.94,12.24 172.66,11.92 L179.84,14.7 C179.5,14.44 179.09,14.21 179.35,14.22 C180.01,14.45 180.74,15 180.6,15.06 L180.42,15 C184.5,16.48 188.93,20.14 192.13,21.41 L191.95,21.34 C193.03,21.83 194.08,22.34 195.14,22.93 C196.51,23.83 194.2,22.58 195.14,23.35 C196.01,23.76 196.77,24.17 197.45,24.57 C198.13,24.97 198.73,25.41 199.32,25.82 C200.49,26.64 201.6,27.4 202.96,28.21 C204.54,30.21 210.02,33.21 212.28,35.72 L212.28,35.46 C213.06,35.85 213.03,36.18 213.49,36.6 C213.49,36.43 212.87,35.9 213.34,36.15 C219.1,40.53 224.49,46.07 229.65,51.38 C231.54,53.32 231.41,51.79 233.5,54.54 L232.58,54.08 C236.72,57.69 240.33,62.16 244.17,65.93 C243.90345,65.8065471 243.665171,65.6295395 243.47,65.41 C244.289923,66.5751771 245.304823,67.5900772 246.47,68.41 C247.01,69.05 246.47,68.67 246.73,69.12 C247.38,70.07 248.86,71.05 249.07,71.67 C249.07,71.77 248.8,71.48 248.65,71.34 C249.22,71.82 250.9,73.97 250.65,73.25 C251.88,74.85 253.27,76.09 254.19,77.42 C255.11,78.01 256.32,80.14 256.87,80.11 C256.43,80.29 258.87,83.04 259.87,83.88 C259.49,83.64 260.48,84.82 260.01,84.56 C260.95,85.67 261.88,86.64 261.89,86.29 C262.663897,87.5369149 263.602347,88.6738184 264.68,89.67 L266.1,87.96 C265.306238,87.6711507 264.588257,87.2061725 264,86.6 C260,84.75 256.26,83.23 252.58,81.87 C252.9,81.46 256.58,83.51 256.64,83 C254.88,82.36 253.48,81.89 252.07,81.48 C251.37,81.27 250.67,81.04 249.93,80.78 C249.19,80.52 248.41,80.27 247.54,79.94 C246.67,79.61 248.12,79.94 248.45,79.94 C245.131839,78.79585 241.74935,77.8475509 238.32,77.1 C238.557836,77.0811352 238.797156,77.0979887 239.03,77.15 C238.39,77.01 237.57,76.72 237.59,76.93 L238.22,77.03 C239.15,77.57 235.56,77.03 235.41,77.16 C236.62,76.82 232.26,76.32 234.13,75.97 C233.7,75.92 233.13,75.9 233.22,76.05 C232.61,75.87 232.42,75.77 233.09,75.74 C230.77,75.41 231.55,75.74 229.47,75.39 C229.47,75.29 229.92,75.33 230.16,75.26 C228.838471,75.2972389 227.516922,75.1865508 226.22,74.93 C226.33,74.93 226.14,74.78 226.67,74.86 C223.62,74.45 221.42,74.7 218.09,74.26 C219.09,73.89 216.96,74.05 216.8,73.67 L215,73.67 L215.72,73.89 C214.21,73.8 212.86,74.04 211.56,73.89 L211.48,75.1 L211.66,75.1 L211.47,75.1 L211.56,73.81 L212.56,73.71 L211.56,73.71 L211.46,75.21 L213.46,75.42 L211.82,75.06 C213.42,75.06 211.71,74.57 213.82,74.94 C214.609613,75.0797156 215.390824,75.2633337 216.16,75.49 L216.16,75.49 C217.079933,75.4482213 218.001338,75.5289283 218.9,75.73 C219.18,75.89 218.6,76.1 218.78,76.21 C219.59,76.02 222.43,76.69 223.44,76.53 C223.11,76.53 223.06,76.74 223.16,76.8 L223.84,76.66 C224.55,76.86 224.64,76.92 224.5,77.05 C226.65,77.47 223.9,76.45 226.42,77.12 C226.240205,77.1321639 226.059795,77.1321639 225.88,77.12 C228.43,77.69 230.88,77.88 233.2,78.5 C233.82,79.01 231.13,78.16 231.86,78.64 C235.26,79.26 238.96,79.7 242.2,80.57 L241.6,80.38 C242.18,79.97 243.96,81.23 245.66,81.38 C245.25,81.31 245.06,81.53 245.18,81.5 C247.38,82.16 249.75,82.55 253.18,83.36 L252.73,83.36 C254,83.85 256.13,84.42 257.5,84.92 C257.95,84.92 258.75,85.18 258.32,84.84 C259.408913,85.3896998 260.543094,85.8447105 261.71,86.2 L262.55,86.46 L263.55,86.75 L265.72,87.37 L265.72,85.51 L265.72,83.93 C265.755561,83.0235059 265.859186,82.1209652 266.03,81.23 C266.03,81.71 266.1,82.38 266.12,81.99 L266.12,78.58 C265.88,78.84 265.96,79.02 265.76,79.73 C265.6175,78.9890157 265.563788,78.2336927 265.6,77.48 C265.7,79.02 265.97,77.48 266.12,76.82 C266.05,76.93 265.98,76.7 265.9,76.75 C266.37,74.98 265.45,76.44 265.8,74.01 L265.92,74.14 C265.835858,73.2292293 265.802473,72.3144813 265.82,71.4 C266.1,71 265.92,72.4 266.13,72.4 C266.13,71.02 265.7,69.67 266,68.4 C266.06,68.99 266,69.83 266.1,70.4 C266.328302,69.5793207 266.446008,68.7318334 266.45,67.88 L266.45,67.98 L266.65,65.65 L266.55,66.24 C265.89,64.5 266.55,62.72 266.08,60.39 C266.47,62.66 266.32,60.77 266.62,60.95 C266.71,60.36 266.82,59.46 266.9,59.71 C266.68,58.61 267.12,57.88 266.78,56.32 C266.88,56.25 266.78,55.14 267.05,55.39 C266.99,53.96 266.88,55.73 266.76,55.6 C266.45,53.4 267.21,50.42 266.76,47.25 C266.57,44.52 266.25,44.01 266.07,41.48 C266.22,40.62 266.43,42.18 266.43,42.18 C266.559929,40.9434035 266.559929,39.6965965 266.43,38.46 C266.52,38.72 266.59,38.46 266.69,38.05 C266.69,37.05 266.33,37.36 266.46,35.98 C266.634813,36.2952062 266.769205,36.6311867 266.86,36.98 C266.76,35.75 266.56,34.54 266.46,33.27 C266.63,32.93 266.73,34.03 266.85,34.48 C266.842297,33.0865737 266.681328,31.6982234 266.37,30.34 L266.29,31.26 C266.29,30.74 266.52,30.99 266.57,31.37 C266.8,32.59 266.5,33.14 266.4,33.21 L266.32,32.3 C265.76,33.24 266.46,35.94 266.44,37.77 L266.02,37.01 L266.38,38.88 C266.27,39.28 266.04,39.55 265.98,38.65 C265.78,39.96 266.13,39.81 265.91,40.93 C265.91,41.05 265.85,41 265.84,40.93 L265.97,42.21 C265.88,41.96 265.68,42.42 265.73,41.64 C265.5,43.93 266.05,45.34 265.73,46.2 L265.73,46.01 C265.87,49.19 266.04,46.32 266.39,48.71 L265.63,50.31 L265.93,50.62 C265.93,50.95 265.93,51.62 265.77,51.48 C265.97,52.7 265.9,51.27 266.1,51.98 C265.81,53.56 266.19,56.34 265.7,56.69 C265.92,57.26 265.9,55.18 266.04,56.87 C265.51,57.34 266.11,58.87 265.84,60.26 C265.58,59.81 265.74,58.45 265.48,59.89 C265.92,60.77 265.34,62.7 265.39,63.89 C265.75,63.95 265.49,66.54 265.55,68.58 C265.44,68.45 265.25,72.42 265.05,74.31 L264.99,74.25 C265.35,74.63 265.21,76.59 265.24,78.02 C265.02,77.96 264.94,77.7 264.87,76.92 L264.87,78.26 C265.004035,78.7855597 265.057976,79.3283399 265.03,79.87 L264.77,79.52 L264.77,82.28 L264.77,83.78 C264.765303,84.1856032 264.728522,84.590199 264.66,84.99 C264.78,85.14 264.97,84.93 265.14,84.82 C265.31,84.71 265.47,84.82 265.49,86.3 C265.35,86.3 265.13,86.03 265.1,85.44 C265.119861,85.7463451 265.119861,86.0536549 265.1,86.36 L264.88,86.27 L265.03,86.27 L264.89,85.45 C264.832905,85.6561192 264.832905,85.8738808 264.89,86.08 C264.89,86.13 264.89,86.22 264.48,86.08 C264.37,85.84 263.94,85.75 263.98,85.6 C264.1,85.6 264.52,85.87 264.68,85.84 C264.338582,85.7162504 264.004681,85.5726728 263.68,85.41 C263.561941,85.3479569 263.448334,85.277788 263.34,85.2 C263.213506,85.1340059 263.093045,85.0570443 262.98,84.97 C262.98,85.1 262.9,85.22 262.23,85.03 C260.52,84.5 261.72,84.62 260.76,84.2 C260.3,84.2 259.26,83.72 259.14,83.99 C258.8619,83.911951 258.61202,83.7557763 258.42,83.54 C257.5,83.39 254.27,82.32 255.18,82.92 L255.4,83.01 L255.25,83.01 L255.25,83.01 C252.25,82.44 249.25,81.11 246.25,80.48 L246.25,80.39 C244.48,80.05 242.35,79.47 241.05,79.39 C240.53,79.27 239.87,78.93 240.12,78.86 C238.95537,78.7147489 237.806981,78.4602953 236.69,78.1 C238.08,78.23 236.26,77.85 238.1,78.28 C236.812034,77.8142992 235.466044,77.5282764 234.1,77.43 C234.79,77.32 232.85,76.84 232,76.75 L233.19,77.18 C232.25,77.02 231.43,76.84 230.6,76.65 L231.11,76.41 C227.59,75.29 224.5,75.88 221.87,74.75 C220.87,74.82 223.8,75.24 222.87,75.37 C221.22,75.04 219.56,74.32 219.04,74.23 C216.78,73.71 216.84,74.4 214.47,73.94 C214.76,74.1 215.01,74.45 213.21,74.33 C211.41,74.21 211.21,73.57 212.29,73.61 C212.69,73.61 212.88,73.71 212.86,73.75 C213.4,73.75 214.12,73.82 213.47,73.61 L213.24,73.7 C212.88,73.6 212.24,73.48 211.65,73.38 L211.52,75.24 C212.23,75.3 212.8,75.36 212.52,75.46 C213.78,75.38 213.06,75.28 212.13,75.19 C214.26,75.41 215.47,75.29 217.66,75.55 C217.32,75.46 217,75.31 217.35,75.33 C220.56,75.69 218.78,75.21 220.98,75.33 C222.2,75.63 220.5,75.7 222.7,75.79 C224.02,76.08 222.95,76.14 222.41,76.17 C224.040688,76.2607377 225.655079,76.5426686 227.22,77.01 L226.17,76.94 C226.8,76.94 227.31,77.06 227.83,77.14 L227.27,76.81 C227.87,76.95 228.39,77.03 228.36,77.12 C229.02,77.07 227.94,76.65 229.23,76.64 C230.02,76.91 231.73,76.97 231.95,77.34 C229.41,76.76 232.17,77.7 230,77.34 C230.516622,77.3976914 231.0281,77.4946383 231.53,77.63 C231.61,77.68 231.43,77.63 231.26,77.63 C233.64,78.36 232.45,77.5 234.97,78.04 C234.61,78.14 235.48,78.5 235.9,78.55 C234.9,78.33 235.48,78.14 236.44,78.24 C237.291998,78.5024488 238.165329,78.6898303 239.05,78.8 L238.11,78.5 C238.892315,78.5092409 239.668368,78.6408323 240.41,78.89 C240.47,79.05 239.41,78.7 239.76,78.89 C241.08,78.95 242.47,79.96 244.22,80.32 C244.97,80.68 244.22,80.66 244.86,80.96 C246.86,81.33 246.86,81.89 248.86,82.39 C248.37,81.97 248.25,81.98 249.72,82.27 L246.41,81.27 L248.62,81.68 C247.62,81.33 246.49,81.08 245.91,80.85 C246.97,81 246.85,81.03 246.44,80.68 C247.67,81.51 249.2,81.39 250.66,82.24 L250.4,82.77 C252.61,83.9 254.61,84.1 257.48,85.59 L256.58,85.06 C257.546346,85.3657504 258.483411,85.75731 259.38,86.23 C259.21,86.36 259.76,86.72 260.1,87.03 C260.1,86.88 262.2,88.08 262.63,87.89 L263.77,88.81 C264.215466,89.0801278 264.68003,89.3174232 265.16,89.52 L269.7,91.41 L266.32,88.12 C265.272094,87.3076121 264.304348,86.3967925 263.43,85.4 C264.08,85.84 263.43,84.88 264.66,86.07 C264.12,85.42 263.66,84.82 263.55,84.9 C263.33,84.44 261.84,83.29 261.49,82.58 C261.049277,82.3751495 260.664921,82.066292 260.37,81.68 C260.37,81.58 260.45,81.62 260.45,81.62 C260.45,81.62 259.4,80.62 259.76,81.35 C258.56,78.97 255.03,75.86 253.96,73.81 C252.71,72.46 251.2,70.81 250.1,69.59 C250.21,69.59 250.18,69.53 250.37,69.78 C248.99,67.93 249.01,69.09 247.43,67 C246.78,65.79 248.48,67.93 248.02,67.22 C248.27,66.51 245.85,64.92 244.95,63.36 L245.26,63.65 C244.52,62.5 242.87,61.38 241.4,59.74 C241.4,59.74 241.51,59.74 241.48,59.68 C239.786097,58.3295236 238.173299,56.880342 236.65,55.34 C237.29,55.64 237.41,55.94 237.32,55.47 C236.64,54.81 237.22,55.95 235.85,54.65 C235.52,54.11 234.65,53.05 234.72,52.73 L235.98,54 C235.59,53.1 234.35,52.35 233.73,51.64 L233.92,51.64 C231.92,49.73 231.63,49.99 229.55,47.91 L229.69,48.21 C228.26,47.38 228.86,47.12 227.5,46.21 L227.42,45.59 C226.6,44.91 224.42,43.33 222.98,42.11 C224.320677,42.9423329 225.612776,43.8504751 226.85,44.83 C225.867449,43.8597082 224.799838,42.9795141 223.66,42.2 C224.047089,42.4542543 224.405805,42.7492732 224.73,43.08 C223.265107,42.1986854 221.891658,41.1736236 220.63,40.02 C221.02,39.85 220.02,38.92 218.83,37.84 C217.712558,36.964776 216.705224,35.9574423 215.83,34.84 C214.31,33.76 212.83,32.61 211.4,31.37 C209.97,30.13 208.4,28.87 206.58,27.63 C207.49,29 205.58,26.91 205.4,27.57 C204.966275,27.3286914 204.560488,27.040281 204.19,26.71 C203.43,26.02 202.66,25.33 201.87,24.71 C201.36,24.16 202.75,25.13 202.75,24.96 C200.93,23.7 202.12,24.23 200.98,23.29 C201.11,23.64 200.16,23.13 199.15,22.36 L200.48,23.58 C197.73,22.14 198.48,21.7 195.68,20.32 L196.62,20.67 C195.22,19.89 191.51,17.67 189.91,17.31 C189.69,17.12 189.44,16.79 190.09,17.09 C188.41,16.17 186.48,15.25 184.61,14.45 C182.74,13.65 181.01,12.85 179.69,12.14 L180.02,12.14 C179.321043,11.9864367 178.647584,11.7338897 178.02,11.39 C178.09,11.39 178.34,11.39 178.02,11.23 C177.10063,10.9612517 176.201668,10.6270651 175.33,10.23 L176.15,10.37 C174.732668,9.72069851 173.264398,9.18891064 171.76,8.78 C170.44,8.43 169.16,8.19 167.68,7.71 C167.75,7.51 167.12,7.11 166.27,6.71 C165.42,6.31 164.38,5.97 163.69,5.71 L163.76,5.71 C160.08842,4.6409023 156.33609,3.87170804 152.54,3.41 C150.735455,2.80149374 148.877068,2.36619597 146.99,2.11 L140.21,1.17 C140.82,1.29 140.08,1.5 139.36,1.5 C138.42,1.34 136.74,1.62 136.91,1.23 L137.25,1.23 C136.56,0.75 134.6,0.83 133.08,0.78 L132.82,1.3 C132.294923,1.18790708 131.76414,1.10445053 131.23,1.05 L129.49,1.05 C128.29,1.05 127.05,1.11 125.87,1.21 C124.017698,1.49389624 122.140231,1.57771174 120.27,1.46 C119.33,1.7 118.15,1.83 117.27,2.07 L117.27,1.78 C115.94,1.87 114.96,2.05 113.9,2.19 C112.84,2.33 111.69,2.49 110.09,2.87 L110.71,2.54 C108.88,2.88 108.57,3.79 106.91,4.14 L106.32,3.83 C104.75,4.21 103.15,4.49 101.57,4.83 C100.00028,5.1927319 98.4594376,5.67069392 96.96,6.26 C96.96,6.19 97.05,6.04 97.55,5.89 C96.09,6.29 91.85,7.37 92.55,7.75 C92.39,7.38 89.4,8.82 87.82,9.55 L87.98,9.2 C87.0228037,9.93061551 85.9738433,10.5324229 84.86,10.99 C84.4,11.13 84.38,10.94 85.01,10.77 C83.46,11.24 83.92,11.44 82.07,12.08 L82.67,11.63 C81.882247,11.8894392 81.1545533,12.3042926 80.53,12.85 C79.521457,13.3947275 78.424595,13.7569628 77.29,13.92 C76.79561,14.4430487 76.1812256,14.8377649 75.5,15.07 C75.34,15.07 75.64,14.84 75.79,14.73 C73.18,15.73 72.23,16.83 70.39,17.42 C70.31,17.36 70.18,17.42 70.03,17.42 C72.03,16.42 73.6,15.66 73.46,15.75 C73.35,15.52 71.73,16.28 72.85,15.32 C71.3288487,16.4357967 69.7278849,17.438488 68.06,18.32 C67.9802901,18.3296348 67.8997099,18.3296348 67.82,18.32 L67.97,18.21 C67.6359194,18.3654117 67.3177536,18.5529621 67.02,18.77 C66.51,19 66.19,19.13 65.71,19.38 C65.42,19.28 63.87,20.28 63.09,20.71 C63.29,20.92 62.26,21.46 63.32,21.12 C63.19,21.17 63.45,21.01 63.96,20.7 C64.07,20.63 64.21,20.54 64.27,20.49 L64.27,20.54 C64.77,20.24 65.43,19.86 66.19,19.45 C65.564983,20.1009687 64.8217525,20.6269995 64,21 C63.69,21.38 63.35,21.79 63.15,22 C62.3988282,22.1929532 61.6606747,22.4334377 60.94,22.72 C60.4431727,22.9563546 59.9192746,23.1309873 59.38,23.24 C57.12,24.76 54,26.71 52.86,28.07 C52.5533475,28.3392502 52.1670365,28.5007984 51.76,28.53 C52.1,28.24 52.54,27.95 52.7,27.75 C51.49,28.75 48.94,30.34 48.84,30.85 C47.16,31.85 49.54,29.94 47.39,31.52 L47.62,31.22 C42.96,33.74 41.24,36.94 36.18,39.87 C36.366321,39.7278304 36.5761803,39.6195159 36.8,39.55 C31.35,43.34 26.34,48.31 21.05,52.16 C20.1834601,52.8014698 19.4326926,53.5860556 18.83,54.48 L18.33,54.48 L17.11,56 C15.21,58 13.05,58.59 10.77,61.26 L11.24,61.11 C10.24,61.91 8.38,63.84 8.37,63.52 C8.25098549,63.8069586 8.03990657,64.0461814 7.77,64.2 L7.64,64.11 L5.55,66.36 C3.71,67.87 5.4,65.64 2.81,67.95 C1.9,68.86 0.4,70.75 0.81,70.51 C1.22,70.27 1.86,69.69 2,69.78 L1.18,70.63 C1.33,71.12 0.98,72.08 3.35,70.38 L4.65,68.82 L5.28,68.55 L4,69.74 C4.65088272,69.3431131 5.19904018,68.7983816 5.6,68.15 C5.89036146,68.0895927 6.16156153,67.959142 6.39,67.77 L7.56,66.11 C7.86,66.11 7.14,66.97 8.2,66.11 C8.75,65.34 7.27,66.4 8.32,65.27 C9.18,64.78 9.08,65.1 9.81,64.21 C10.01,64.21 9.88,64.41 9.58,64.75 C10.3582403,64.0192107 11.0834105,63.2338882 11.75,62.4 C12.67,61.92 14.25,60.09 14.46,60.49 C14.9849997,59.747136 15.5811511,59.0572079 16.24,58.43 C15.32,59.94 18.86,56.17 18.9,56.89 C19.52,55.7 22.17,53.78 23.68,52.14 C23.5853415,52.3057052 23.4597321,52.4516837 23.31,52.57 C23.9477176,52.078533 24.6157017,51.6276437 25.31,51.22 C25.18,50.82 26.6,49.49 27.25,48.64 C28.67,47.96 26.83,49.58 27.43,49.56 C27.17,49.37 29.27,47.63 28.7,47.76 C29.7,47.2 29.55,47.21 30.22,47.08 C30.07,46.57 31.01,46.33 31.57,45.49 C33.04,44.62 32.2,45.57 33.57,44.3 C34.38,43.9 33.21,45.07 33.21,45.07 Z M69.21,19.86 L69.21,19.86 L68.42,20.3 L69.21,19.86 Z M72.5,18.17 L71.06,18.88 C70.9,18.88 70.98,18.7 71.32,18.54 C71.15,18.68 72,18.34 72.49,18.17 L72.5,18.17 Z M64.63,20.11 C65.12,19.78 65.33,19.74 65.43,19.75 C65.18,19.88 64.9,20.05 64.54,20.28 L64.54,20.34 C64.5470132,20.2592858 64.5708588,20.1809362 64.61,20.11 L64.63,20.11 Z" id="Shape"></path>
            <polygon id="Shape" points="63.87 21 63.67 21.14 64 21 64.14 20.82"></polygon>
            <polygon id="Shape" points="255.08 83.21 255.01 83.21 255.16 83.29"></polygon>
            <polygon id="Shape" points="121.15 4.14 121.13 4.07 120.82 4.17"></polygon>
            <path d="M266,77 C266.043938,76.9160452 266.07111,76.8243392 266.08,76.73 C266.040731,76.815776 266.013798,76.906677 266,77 L266,77 Z" id="Shape"></path>
            <path d="M266.33,68.14 L266.46,66.89 C266.39,67.43 266.36,67.83 266.33,68.14 Z" id="Shape"></path>
            <path d="M266.61,61.34 C266.584115,61.2828791 266.54249,61.2343165 266.49,61.2 L266.49,61.2 L266.61,61.34 Z" id="Shape"></path>
            <path d="M239,77.19 L239.26,77.24 C239.9,77.34 239.48,77.25 239,77.19 Z" id="Shape"></path>
            <path d="M216,75.59 L215,75.59 C215.56,75.68 216,75.75 216,75.59 Z" id="Shape"></path>
            <polygon id="Shape" points="260 84.61 260 84.61 259.86 84.44"></polygon>
            <path d="M213.52,75.38 C214.006018,75.4926697 214.50151,75.559628 215,75.58 C214.511484,75.4815575 214.017123,75.4147519 213.52,75.38 L213.52,75.38 Z" id="Shape"></path>
            <path d="M266.77,31.86 L266.77,31.53 L266.77,31.53 L266.77,31.86 Z" id="Shape"></path>
            <path d="M266.73,31.49 L266.73,31.13 C266.708222,31.2490119 266.708222,31.3709881 266.73,31.49 Z" id="Shape"></path>
            <path d="M266.6,30.36 L266.68,31.12 C266.697465,30.8639469 266.670397,30.6068045 266.6,30.36 Z" id="Shape"></path>
            <path d="M266.73,40.87 L266.83,40.97 C266.815458,40.9220588 266.777941,40.8845424 266.73,40.87 L266.73,40.87 Z" id="Shape"></path>
            <path d="M266.77,43.6 C266.869106,42.7536916 266.915862,41.9020713 266.91,41.05 L266.83,40.97 C267,41.4 266.6,43 266.77,43.6 Z" id="Shape"></path>
            <path d="M265.47,55 L265.57,52.71 C265.46,53.11 265.31,53.63 265.29,52.59 C264.94,55.49 265.54,52 265.47,55 Z" id="Shape"></path>
            <path d="M265.21,62.11 C265.21,60.88 265.05,62.11 264.99,62.06 C265.08,62.84 265.1,63 265.21,62.11 Z" id="Shape"></path>
            <path d="M239.61,78.9 L239.79,78.68 C238.86,78.49 239.76,78.77 239.61,78.9 Z" id="Shape"></path>
            <polygon id="Shape" points="229.74 78.15 230.61 78.48 231.09 78.33"></polygon>
            <polygon id="Shape" points="224.36 75.31 224.78 75.34 223.19 75.17"></polygon>
            <path d="M255.44,75.4 L255.39,75.82 C255.84,76.27 256.2,76.15 255.44,75.4 Z" id="Shape"></path>
            <path d="M229.86,48.26 C229.504005,47.6428494 229.007162,47.1185941 228.41,46.73 C229,47.33 229.53,48 229.86,48.26 Z" id="Shape"></path>
            <path d="M130.88,1.15 C131.13,1.15 131.39,1.08 131.64,1.05 C131.16,1.05 130.64,1.11 130.21,1.15 L130.88,1.15 Z" id="Shape"></path>
        </g>
    </g>
</svg>