<?xml version="1.0" encoding="UTF-8"?>
<svg width="406px" height="551px" viewBox="0 0 406 551" version="1.1" xmlns="http://www.w3.org/2000/svg" xmlns:xlink="http://www.w3.org/1999/xlink">
    <!-- Generator: Sketch 42 (36781) - http://www.bohemiancoding.com/sketch -->
    <title>Combined Shape</title>
    <desc>Created with Sketch.</desc>
    <defs></defs>
    <g id="Page-1" stroke="none" stroke-width="1" fill="none" fill-rule="evenodd">
        <path d="M47,104.5 C25.7482202,104.5 8.5,87.4981829 8.5,66.5 C8.5,45.5018171 25.7482202,28.5 47,28.5 C68.2517798,28.5 85.5,45.5018171 85.5,66.5 C85.5,87.4981829 68.2517798,104.5 47,104.5 Z M47,97.5 C29.5918473,97.5 15.5,83.6094648 15.5,66.5 C15.5,49.3905352 29.5918473,35.5 47,35.5 C64.4081527,35.5 78.5,49.3905352 78.5,66.5 C78.5,83.6094648 64.4081527,97.5 47,97.5 Z M334,100.5 C312.74822,100.5 295.5,83.4981829 295.5,62.5 C295.5,41.5018171 312.74822,24.5 334,24.5 C355.25178,24.5 372.5,41.5018171 372.5,62.5 C372.5,83.4981829 355.25178,100.5 334,100.5 Z M71.6270588,48.3864557 C70.060521,51.4065131 68.3140878,54.836028 66.432826,58.609038 C61.0571181,69.3904189 55.68136,80.756821 50.6666053,92.178386 C47.246744,99.9674346 44.1137677,107.517856 41.3306761,114.736224 C39.8841719,118.487951 38.5392421,122.132087 37.302835,125.658137 C31.1451055,143.219069 31.3720227,171.263319 36.1385575,219.199513 C36.6084849,223.925489 37.0965489,228.644259 37.808502,235.398115 C41.9620887,274.80061 43,286.737627 43,301.5 C43,315.266369 41.4519143,323.829745 37.2039633,339.016865 C36.8212836,340.38441 36.7690567,340.571183 36.6944032,340.838548 C32.8840493,354.484996 31.5374357,362.15479 31.6741806,374.060766 C31.8533726,389.662473 35.2598097,409.344574 42.8660425,436.04096 C54.9428564,478.428209 71.5287587,501.09888 97.0981298,512.359357 C108.816729,517.520103 122.759677,520.515309 140.832478,522.035758 C155.229808,523.246993 168.400577,523.5 199.5,523.5 C240.367275,523.5 274.063381,514.024902 300.206007,496.885476 C322.290903,482.406349 338.179241,462.859925 346.756026,441.685985 C349.921957,433.870093 351.873032,426.690401 352.938893,419.218058 C354.340983,409.388547 354.325534,403.439739 353.393835,379.482783 C352.149271,347.48108 352.507942,324.376581 356.017739,289.648069 C360.831568,242.016495 358.847749,193.98719 352.613664,149.364268 C351.291787,139.902409 349.87612,131.378603 348.461514,123.933312 C347.967382,121.332617 347.509071,119.05405 347.098446,117.115158 C346.955342,116.439447 346.828605,115.855217 346.71972,115.364661 C346.104318,113.355327 345.783726,112.42568 345.399216,111.349052 C344.293824,108.253956 342.900595,104.611905 341.198086,100.450215 C336.318953,88.5234475 329.945342,74.8457703 321.905668,59.6355756 C303.355737,24.5411114 277.843454,13.2306661 199.267183,7.99224805 C162.022696,5.50928223 129.438392,12.8644908 101.862905,26.6430241 C93.5111868,30.8160936 86.2609156,35.2818403 80.148281,39.738225 C78.0209189,41.2891673 76.1911306,42.7245385 74.6634596,44.0064112 C74.1355662,44.4493679 73.684846,44.8397617 73.3118647,45.1728443 C72.6603532,46.4022246 72.1746255,47.3308267 71.6270588,48.3864557 Z M76.0441607,507.829537 C58.34594,493.781505 45.7242312,471.61902 36.1339575,437.95904 C28.3703304,410.710231 24.8618224,390.438374 24.6746423,374.141158 C24.5288308,361.445788 25.9790813,353.185719 29.9522904,338.956019 C30.3352259,337.586895 30.3352259,337.586895 30.4627034,337.131284 C34.5538392,322.504805 36,314.505235 36,301.5 C36,294.112412 35.7285186,287.391037 34.9082691,277.323547 C22.0061178,282.688043 8.37727269,280.146414 2.95225059,270.75 C-3.12288166,260.227562 3.39036761,245.093641 17.5,236.947441 C21.724951,234.508165 26.1519437,232.972018 30.4442672,232.299362 C29.9387472,227.472402 29.5501575,223.686068 29.1729086,219.892142 C24.2945887,170.831745 24.0634063,142.26036 30.697165,123.341863 C31.9580709,119.745946 33.3277453,116.034764 34.7993195,112.218014 C37.6230639,104.894207 40.7964581,97.2463792 44.2571816,89.3642631 C49.3215985,77.8295878 54.744953,66.3625488 60.1683574,55.4855091 C62.0667849,51.6780719 63.8300633,48.2154777 65.4132666,45.1632917 C65.9681093,44.0936355 66.4610512,43.1512417 66.8864742,42.3443132 C67.3888962,41.3956949 67.6817247,40.8482279 67.6817247,40.8482279 C68.4659479,40.1061673 69.1571344,39.4889185 70.1639371,38.6441078 C71.8115154,37.2616206 73.7663801,35.7281337 76.0245258,34.0818442 C82.4419137,29.4032808 90.0224994,24.7340794 98.7340828,20.3811974 C127.37608,6.06976527 161.185781,-1.5620504 199.732817,1.00775195 C280.479555,6.39086784 308.168083,18.6661154 328.094332,56.3644244 C336.242158,71.7792297 342.712297,85.6640525 347.676914,97.799785 C349.419717,102.05997 350.850707,105.800732 351.991409,108.994698 C352.393032,110.119242 352.730154,111.096821 353.005466,111.924014 C353.435843,113.322927 353.484251,113.536282 353.553405,113.847839 C353.667176,114.360408 353.798721,114.966803 353.946554,115.664842 C354.367179,117.65095 354.835118,119.977383 355.338486,122.626688 C356.77388,130.181397 358.208213,138.817591 359.546336,148.395732 C363.320295,175.409336 365.554187,203.652783 365.694397,232.320956 C372.64291,231.093489 380.898471,232.558697 388.5,236.947441 C402.609632,245.093641 409.122882,260.227562 403.047749,270.75 C396.972617,281.272438 380.609632,283.198759 366.5,275.052559 C365.777208,274.635255 365.07435,274.199613 364.392097,273.747194 C364.010051,279.282568 363.541403,284.819368 362.982261,290.351931 C359.509507,324.713926 359.155642,347.508825 360.388547,379.210755 C361.338993,403.649745 361.354932,409.787481 359.868749,420.206538 C358.721966,428.246195 356.621402,435.975989 353.243974,444.314015 C344.137205,466.79635 327.330463,487.472629 304.043993,502.739524 C298.620782,506.295047 292.893493,509.532956 286.866459,512.439227 C295.67505,520.834291 298.935292,532.284528 294.047749,540.75 C287.972617,551.272438 271.609632,553.198759 257.5,545.052559 C249.600364,540.491702 244.081894,533.740471 241.820679,526.834512 C228.638313,529.251206 214.523089,530.5 199.5,530.5 C168.194954,530.5 154.909745,530.244795 140.245647,529.011117 C131.126224,528.243908 122.977445,527.106504 115.573039,525.507878 C113.614367,532.867792 107.904955,540.199956 99.5,545.052559 C85.3903676,553.198759 69.0273828,551.272438 62.9522506,540.75 C57.0901148,530.596483 62.9491275,516.149175 76.0441607,507.829537 Z M135.5,125 C110.923329,125 91,105.076671 91,80.5 C91,55.9233286 110.923329,36 135.5,36 C160.076671,36 180,55.9233286 180,80.5 C180,105.076671 160.076671,125 135.5,125 Z M119.231183,95.3333333 C126.894876,95.3333333 133.107527,89.1206825 133.107527,81.4569892 C133.107527,73.793296 126.894876,67.5806452 119.231183,67.5806452 C111.56749,67.5806452 105.354839,73.793296 105.354839,81.4569892 C105.354839,89.1206825 111.56749,95.3333333 119.231183,95.3333333 Z M193.300447,156.553739 C193.107976,156.567812 192.917061,156.584552 192.727653,156.603845 C192.819942,156.768882 192.910731,156.935901 193,157.104851 C193.098314,156.918782 193.198473,156.735055 193.300447,156.553739 Z M219.319849,163.141668 C220.085866,166.034558 220.5,169.202931 220.5,172.5 C220.5,185.500456 214.061242,196.5 205,196.5 C199.977799,196.5 195.76121,193.121007 193,187.895149 C190.23879,193.121007 186.022201,196.5 181,196.5 C171.938758,196.5 165.5,185.500456 165.5,172.5 C165.5,169.494056 165.844229,166.595084 166.485511,163.91432 C164.997562,163.727748 164,163.5 164,163.5 C142.312692,139.599702 166.464368,130.979065 172.295612,129.314705 C171.45642,128.120987 171,126.837144 171,125.5 C171,119.148725 181.297451,114 194,114 C206.702549,114 217,119.148725 217,125.5 C217,127.368671 216.108598,129.133243 214.526806,130.693209 C220.998446,132.946454 227.323195,136.131894 230.5,140.5 C238.5,151.5 231,163 224,163.5 C222.815433,163.584612 221.19489,163.44013 219.319849,163.141668 Z M242.5,125 C217.923329,125 198,105.076671 198,80.5 C198,55.9233286 217.923329,36 242.5,36 C267.076671,36 287,55.9233286 287,80.5 C287,105.076671 267.076671,125 242.5,125 Z M226.231183,95.3333333 C233.894876,95.3333333 240.107527,89.1206825 240.107527,81.4569892 C240.107527,73.793296 233.894876,67.5806452 226.231183,67.5806452 C218.56749,67.5806452 212.354839,73.793296 212.354839,81.4569892 C212.354839,89.1206825 218.56749,95.3333333 226.231183,95.3333333 Z M181,189.5 C185.193592,189.5 189.5,182.143219 189.5,172.5 C189.5,162.856781 185.193592,155.5 181,155.5 C176.806408,155.5 172.5,162.856781 172.5,172.5 C172.5,182.143219 176.806408,189.5 181,189.5 Z M205,189.5 C209.193592,189.5 213.5,182.143219 213.5,172.5 C213.5,162.856781 209.193592,155.5 205,155.5 C200.806408,155.5 196.5,162.856781 196.5,172.5 C196.5,182.143219 200.806408,189.5 205,189.5 Z" id="Combined-Shape" fill="#010101" fill-rule="nonzero"></path>
    </g>
</svg>