<?xml version="1.0" encoding="UTF-8"?>
<svg width="46px" height="45px" viewBox="0 0 46 45" version="1.1" xmlns="http://www.w3.org/2000/svg" xmlns:xlink="http://www.w3.org/1999/xlink">
    <!-- Generator: Sketch 42 (36781) - http://www.bohemiancoding.com/sketch -->
    <title>Combined Shape</title>
    <desc>Created with Sketch.</desc>
    <defs></defs>
    <g id="Page-1" stroke="none" stroke-width="1" fill="none" fill-rule="evenodd">
        <path d="M32.3497593,31.8181754 L43.0528112,15.5309225 L28.7027744,16.4875916 L28.6335037,16.5485498 L32.3497593,31.8181754 Z M44.304229,15.4474946 L32.9431698,32.736063 L42.3535534,42.1464466 L41.6464466,42.8535534 L31.9601101,33.1672169 L18.3089108,43.8931592 L17,43.5 L30.960794,32.6806443 L16.5,28.5 L9.49569367,44 L4.5,32.6806443 L1.4472136,37.2236068 L0.552786405,36.7763932 L4.06466472,30.7473634 L0.552786405,23.7236068 L1.4472136,23.2763932 L4.75837673,29.8987195 L15.7509105,26.5531657 L27.6173583,16.1106916 L30.9077117,5.19572599 L26.2132688,1.90961596 L26.7867312,1.09038404 L31.542759,4.41960351 L39.2763932,0.552786405 L39.7236068,1.4472136 L32.4074034,5.10531532 L44.77996,15.4157792 L44.304229,15.4474946 Z M31.3030039,31.7773424 L27.7135992,17.3580658 L16.5586666,27.1744064 L31.3030039,31.7773424 Z M15.7284887,27.605278 L4.89236933,30.9032274 L9.49569367,41.5 L15.7284887,27.605278 Z M31.7530031,5.86169009 L28.6643019,15.4879367 L42.22004,14.5842208 L31.7530031,5.86169009 Z M25.8854803,1.01329142 L39.6703513,0.493347874 L45.5160314,5.27617704 L42.9686087,43.4875175 L5.23180159,44.5074312 L0.5,37.1468509 L0.5,23.881966 L4.5527864,15.7763932 L4.64644661,15.6464466 L17.2470238,3.04586943 L25.8854803,1.01329142 Z M17.7529762,3.95413057 L5.41092721,16.2961796 L1.5,24.118034 L1.5,36.8531491 L5.76819841,43.4925688 L42.0313913,42.5124825 L44.4839686,5.72382296 L39.3296487,1.50665213 L26.067143,1.99785604 L17.7529762,3.95413057 Z" id="Combined-Shape" fill="#000000" fill-rule="nonzero"></path>
    </g>
</svg>