<svg viewBox="0 0 47 47" xmlns="http://www.w3.org/2000/svg"><title>icon-moneys</title><g fill="#757575" fill-rule="evenodd"><path d="M23.5 47C36.478692 47 47 36.478692 47 23.5S36.478692 0 23.5 0 0 10.521308 0 23.5 10.521308 47 23.5 47zm0-2C11.625878 45 2 35.374122 2 23.5S11.625878 2 23.5 2 45 11.625878 45 23.5 35.374122 45 23.5 45z"/><path d="M22.564734 29.405878c-1.018803.826056-2.38866 1.294148-4.10961 1.40429v1.92057h-1.40429v-1.92057c-1.32169-.055072-2.502245-.316652-3.5417-.78475-1.039454-.4681-1.875824-1.08075-2.509134-1.837968l2.808578-2.457506c.86736 1.197782 1.9481 1.89992 3.242256 2.106434v-3.345512L16.01827 24.2637c-1.349227-.316654-2.381782-.839815-3.097698-1.569498-.715916-.729684-1.073868-1.61768-1.073868-2.66402 0-1.225317.461208-2.202802 1.383637-2.932485.92243-.729684 2.195916-1.135822 3.820494-1.218428V14h1.40429v1.87927c2.051373.137675 3.820484.839813 5.307386 2.106433l-2.436855 2.51946c-.79852-.9775-1.755356-1.5695-2.870532-1.776013v2.767276l1.301033.30977c1.514437.34419 2.61583.86735 3.30421 1.5695.68838.702147 1.032565 1.645214 1.032565 2.829228 0 1.307923-.509393 2.374897-1.528196 3.200954zm-6.825258-8.787133c.240933.19963.678048.382048 1.311358.54726v-2.51946c-.536937.027535-.94996.144558-1.23908.351072-.289118.206514-.433676.481862-.433676.826053 0 .330422.120465.595445.361398.795075zm4.150913 6.814933c.351073-.2547.526608-.581677.526608-.980938 0-.426796-.148-.760655-.444004-1.001588-.296003-.240934-.801955-.450886-1.51787-.629865v3.077045c.605774-.05507 1.08419-.209954 1.435265-.464654zm15.581413 1.9722c-1.018803.826056-2.38866 1.294148-4.10961 1.40429v1.92057h-1.40429v-1.92057c-1.32169-.055072-2.502245-.316652-3.5417-.78475-1.039454-.4681-1.875824-1.08075-2.509134-1.837968l2.808577-2.457506c.86736 1.197782 1.9481 1.89992 3.242256 2.106434v-3.345512l-1.032565-.227165c-1.349226-.316654-2.38178-.839815-3.097697-1.569498-.715915-.729684-1.073867-1.61768-1.073867-2.66402 0-1.225317.461208-2.202802 1.383638-2.932485.92243-.729684 2.195915-1.135822 3.820493-1.218428V14h1.40429v1.87927c2.051373.137675 3.820484.839813 5.307386 2.106433l-2.436856 2.51946c-.79852-.9775-1.755355-1.5695-2.870532-1.776013v2.767276l1.301033.30977c1.514437.34419 2.61583.86735 3.30421 1.5695C36.655815 24.077842 37 25.02091 37 26.204923c0 1.307923-.509394 2.374897-1.528197 3.200954zm-6.825258-8.787133c.240933.19963.678048.382048 1.311358.54726v-2.51946c-.536937.027535-.94996.144558-1.23908.351072-.289118.206514-.433676.481862-.433676.826053 0 .330422.120465.595445.361398.795075zm4.150913 6.814933c.351074-.2547.52661-.581677.52661-.980938 0-.426796-.148-.760655-.444004-1.001588-.296004-.240934-.801956-.450886-1.517872-.629865v3.077045c.605775-.05507 1.084192-.209954 1.435266-.464654z"/></g></svg>