<svg width="77" height="64" viewBox="0 0 77 64" xmlns="http://www.w3.org/2000/svg"><title>blue/icon-large-baa-blue</title><path d="M0 9.6h68.8v8h-1.6v-6.78l-65.6.38v51.2h65.6V56h1.6v8H0V9.6zm4.8-4.8h60.8v1.6H4.8V4.8zM8 0h54.4v1.6H8V0zm12.547 42.598c2.741 0 4.47-1.446 4.47-3.69 0-1.633-1.294-2.937-2.97-3.025v-.169a2.76 2.76 0 0 0 2.385-2.723c0-1.987-1.508-3.193-4.062-3.193H14.4v12.8h6.147zm-2.892-10.503H19.5c1.11 0 1.757.55 1.757 1.464 0 .904-.692 1.454-1.88 1.454h-1.722v-2.918zm0 8.205v-3.309h1.952c1.348 0 2.102.586 2.102 1.633 0 1.082-.736 1.676-2.084 1.676h-1.97zm17.857 2.298h3.548l-4.302-12.8h-3.983l-4.294 12.8h3.23l.824-2.812h4.178l.799 2.812zm-2.954-9.918h.168l1.375 4.764h-2.945l1.402-4.764zm16.818 9.918h3.548l-4.302-12.8h-3.983l-4.293 12.8h3.229l.825-2.812h4.178l.798 2.812zm-2.954-9.918h.169l1.375 4.764H45.02l1.401-4.764zm27.178.92v-2.968c0-3.31-1.6-5.032-5.6-5.032-4 0-5.6 1.83-5.6 5.032V33.6h-1.6c-.884 0-1.6.714-1.6 1.596v11.208c0 .881.712 1.596 1.593 1.596h14.414c.88 0 1.593-.714 1.593-1.596V35.196c0-.881-.71-1.596-1.6-1.596h-1.6zm-1.6 0h-8v-2.968c0-1.715.242-3.432 4-3.432s4 1.7 4 3.432V33.6zm-11.2 1.6h14.4v11.2H60.8V35.2zm7.2 8a2.4 2.4 0 1 0 0-4.8 2.4 2.4 0 0 0 0 4.8z" fill="#1055FF" fill-rule="evenodd"/></svg>