<?xml version="1.0" encoding="UTF-8"?>
<svg width="47px" height="47px" viewBox="0 0 47 47" version="1.1" xmlns="http://www.w3.org/2000/svg" xmlns:xlink="http://www.w3.org/1999/xlink">
    <!-- Generator: Sketch 41.2 (35397) - http://www.bohemiancoding.com/sketch -->
    <title>icon-integration</title>
    <desc>Created with Sketch.</desc>
    <defs></defs>
    <g id="gray" stroke="none" stroke-width="1" fill="none" fill-rule="evenodd">
        <g id="icons,-Large-Datica" transform="translate(-91.000000, -264.000000)" fill="#757575">
            <g id="icon-integration" transform="translate(91.000000, 264.000000)">
                <ellipse id="Oval-9" cx="16.5" cy="12.5454545" rx="2.5" ry="2.54545455"></ellipse>
                <ellipse id="Oval-9" cx="16.5" cy="20.1818182" rx="2.5" ry="2.54545455"></ellipse>
                <ellipse id="Oval-9" cx="16.5" cy="27.8181818" rx="2.5" ry="2.54545455"></ellipse>
                <ellipse id="Oval-9" cx="31.5" cy="24" rx="2.5" ry="2.54545455"></ellipse>
                <ellipse id="Oval-9" cx="16.5" cy="35.4545455" rx="2.5" ry="2.54545455"></ellipse>
                <path d="M15.6011453,13.3060905 C15.6788138,13.4009872 15.823602,13.5742723 16.0292788,13.8148053 C16.3698436,14.2130858 16.7587483,14.6562149 17.1897998,15.133076 C18.4212691,16.4954185 19.7460375,17.8578984 21.1157374,19.1321554 C22.7173598,20.6221743 24.2770997,21.8938618 25.7631126,22.8810046 C27.9411043,24.3278216 29.8987454,25.1272727 31.625,25.1272727 L31.625,23.1272727 C30.3741596,23.1272727 28.7496536,22.4638656 26.8697698,21.2150785 C25.484805,20.295061 24.0060155,19.0893738 22.4780126,17.6678446 C21.1543531,16.4364198 19.86877,15.1142406 18.6734814,13.791924 C18.2551677,13.3291544 17.8783254,12.8997694 17.5493344,12.5150242 C17.3532779,12.2857419 17.2176706,12.1234446 17.1488547,12.0393641 L15.6011453,13.3060905 Z" id="Path-10"></path>
                <path d="M15.8930864,21.2311315 C16.5915161,21.7644777 17.924688,22.5280217 19.8932984,23.2796729 C23.1302791,24.515611 27.0008881,25.2545455 31.5,25.2545455 L31.5,23.2545455 C27.2491119,23.2545455 23.6197209,22.5616617 20.6067016,21.4112362 C19.562294,21.0124624 18.6715699,20.587344 17.9344883,20.1651973 C17.5048239,19.9191168 17.228904,19.7347521 17.1069136,19.6415958 L15.8930864,21.2311315 Z" id="Path-20"></path>
                <path d="M17.2579025,36.2341861 C17.3300247,36.1503965 17.4712788,35.9892526 17.6747174,35.7618578 C18.0158033,35.3806065 18.4052607,34.9552054 18.8361074,34.4967802 C20.0670887,33.1870039 21.3807762,31.8773893 22.7202132,30.6575164 C23.9895586,29.5014785 25.2170335,28.4866276 26.3752301,27.6530949 C28.536938,26.0973538 30.3536213,25.2545455 31.625,25.2545455 L31.625,23.2545455 C29.8245592,23.2545455 27.68202,24.248527 25.2069612,26.0297811 C23.9806303,26.9123488 22.6957431,27.974667 21.3735368,29.1788472 C19.9922707,30.4368153 18.6428723,31.7820301 17.3787363,33.1270834 C16.936292,33.5978485 16.5358325,34.0352671 16.1841694,34.4283411 C15.9719585,34.6655414 15.822319,34.8362512 15.7420975,34.9294503 L17.2579025,36.2341861 Z" id="Path-21"></path>
                <path d="M16.7950092,28.8529744 C16.8528297,28.8262145 16.9703688,28.7733384 17.1430101,28.6980808 C17.4344236,28.5710482 17.771776,28.4290667 18.1504349,28.2758705 C19.2352136,27.8369956 20.4302632,27.3977256 21.6981894,26.9878909 C24.3096946,26.143768 26.8768148,25.5379538 29.2629955,25.2729103 C30.1285225,25.1767724 30.9590416,25.1272727 31.75,25.1272727 L31.75,23.1272727 C30.8822584,23.1272727 29.9784775,23.1811389 29.0422045,23.2851348 C26.5064352,23.5667938 23.8131679,24.2023774 21.0830606,25.0848364 C19.7670025,25.5102289 18.5274817,25.9658453 17.4003463,26.4218568 C17.0048353,26.5818708 16.6511477,26.7307274 16.3438063,26.8647033 C16.1571947,26.9460508 16.0260766,27.0050355 15.9549908,27.0379347 L16.7950092,28.8529744 Z" id="Path-22"></path>
                <path d="M23.5,47 C36.4786916,47 47,36.4786916 47,23.5 C47,10.5213084 36.4786916,0 23.5,0 C10.5213084,0 0,10.5213084 0,23.5 C0,36.4786916 10.5213084,47 23.5,47 Z M23.5,45 C11.6258779,45 2,35.3741221 2,23.5 C2,11.6258779 11.6258779,2 23.5,2 C35.3741221,2 45,11.6258779 45,23.5 C45,35.3741221 35.3741221,45 23.5,45 Z" id="Oval-12"></path>
            </g>
        </g>
    </g>
</svg>