<svg width="49" height="64" viewBox="0 0 49 64" xmlns="http://www.w3.org/2000/svg"><title>blue/icon-large-redpoint-globe-blue</title><path d="M12.29 47.279c-1.354-.168-5.424-4.073-6.62-5.412-2.854 2.933-4.327 6.48-1.812 8.267 2.261 2.299 7.504-.702 8.432-2.855zm29.376-28.74c-5.795 7.418-18.287 19.994-24.092 27.388 7.202 2.13 17.539.38 21.53-4.262 5.696-5.057 7.944-13.96 2.562-23.126zM15.284 44.591c6.766-8.16 18.247-20.316 24.636-28.859C38.4 8.96 20.48 2.56 11.27 13.127c-9.479 8.889-4.195 28.306 4.013 31.464zM36.776 7.458c2.692 1.196 3.627 2.68 5.084 4.498 1.422-2.895 3.46-6.58 2.245-7.92-1.21-1.364-4.637 1.03-7.33 3.422zm7.221 7.513c5.923 10.629 5.843 19.683.307 27.07-3.812 5.087-10.763 8.807-18.704 8.73v5.141c9.381.766 14.765 2.106 14.916 4.355C40.664 62.493 33.402 64 24.879 64c-8.526 0-14.742-.598-14.872-2.847-.131-2.25 7.75-4.738 13.033-5.528-.02-2.417 0-1.865 0-5.128-1.43-.071-7.462-.782-8.33-2.218-3.358 3.446-9.023 6.635-13.015 2.903-2.719-2.542-.062-9.172 2.675-12.091C0 28.16.737 18.4 8.432 10.097 16.128 1.792 32 2.56 34.235 5.783 37.309 3.318 41.35-1.754 45.722.615c4.365 2.368 1.336 11.102-1.725 14.356z" fill="#1055FF" fill-rule="evenodd"/></svg>