<?xml version="1.0" encoding="UTF-8"?>
<svg width="200px" height="200px" viewBox="0 0 200 200" version="1.1" xmlns="http://www.w3.org/2000/svg" xmlns:xlink="http://www.w3.org/1999/xlink">
    <!-- Generator: Sketch 41.1 (35376) - http://www.bohemiancoding.com/sketch -->
    <title>Combined Shape</title>
    <desc>Created with Sketch.</desc>
    <defs></defs>
    <g id="Icons" stroke="none" stroke-width="1" fill="none" fill-rule="evenodd">
        <g id="_icons" transform="translate(-490.000000, -30.000000)" fill="#1260FF">
            <path d="M591.609033,87.7180958 C598.26196,84.8655668 602.919452,78.2814051 602.919452,70.6147186 C602.919452,60.3340934 594.544628,52 584.213759,52 C573.88289,52 565.508066,60.3340934 565.508066,70.6147186 C565.508066,78.6114277 570.575163,85.4304086 577.688517,88.0655131 L577.688517,91.7899404 L591.609033,89.0171547 L591.609033,87.7180958 Z M590,230 C645.228475,230 690,185.228475 690,130 C690,74.771525 645.228475,30 590,30 C534.771525,30 490,74.771525 490,130 C490,185.228475 534.771525,230 590,230 Z M590.575,221.2 C640.625805,221.2 681.2,180.625805 681.2,130.575 C681.2,80.5241945 640.625805,39.95 590.575,39.95 C540.524195,39.95 499.95,80.5241945 499.95,130.575 C499.95,180.625805 540.524195,221.2 590.575,221.2 Z M595.791602,142.388958 C598.972383,143.689977 600.356617,145.480214 600.239683,147.965642 C600.003148,152.993171 596.235231,154.981293 583.369742,157.232678 C583.035053,157.291247 582.728427,157.344633 582.081775,157.457089 C574.422664,158.78972 571.014076,159.574395 567.259265,161.225308 C561.415152,163.794845 557.586577,167.927929 556.594368,173.945948 C554.78729,184.906374 560.690977,192.433184 573.424285,196.752306 L573.424285,183.660184 C569.603379,181.561785 568.18234,178.933046 568.676157,175.937909 C569.152397,173.049384 572.591825,171.537137 584.180766,169.520743 C584.827274,169.408314 585.139705,169.353917 585.480453,169.294288 C593.617111,167.870421 597.858579,166.789683 602.07018,164.567452 C608.38033,161.237934 612.124872,155.899123 612.471051,148.541102 C612.955005,138.2547 606.105901,132.165156 595.791602,129.560263 L595.791602,142.388958 Z M573.628367,138.427427 C571.480915,137.718163 569.354167,136.887534 567.306016,135.921725 C555.12749,130.178921 548.618343,121.006006 553.78738,108.902719 C558.022196,98.9869062 570.724884,94.0828496 589.576351,91.739357 C599.938387,90.4512156 610.751449,90.1510582 620.173157,90.3992574 C621.201063,90.426336 621.938967,90.4538351 622.347686,90.4730509 C625.72529,90.6318466 628.33465,93.4986653 628.175854,96.8762698 C628.017059,100.253874 625.15024,102.863234 621.772635,102.704438 C621.445816,102.689073 620.791834,102.664701 619.850697,102.639909 C610.988791,102.406457 600.73756,102.691018 591.086931,103.890722 C576.506307,105.703291 566.881746,109.418992 565.048301,113.712 C563.141612,118.176507 565.534184,121.548203 572.528591,124.846427 C572.889959,125.01683 573.256841,125.182607 573.628367,125.343732 L573.628367,138.427428 L573.628367,138.427427 Z M595.587521,200.723739 C597.049694,200.830335 598.550255,200.918377 600.088795,200.98797 C603.466677,201.140763 606.328854,198.526312 606.481647,195.148431 C606.63444,191.77055 604.019989,188.908373 600.642108,188.75558 C598.875917,188.675689 597.19178,188.575702 595.587521,188.456355 L595.587521,200.723739 Z M591.609033,153.755788 L591.609033,105.596905 L577.688517,108.716288 L577.688517,156.024648 L591.609033,153.755788 Z M591.609033,170.743877 L591.609033,201.729674 C591.609033,205.584778 588.484997,208.709957 584.648775,208.709957 C580.804731,208.709957 577.688517,205.605961 577.688517,201.729674 L577.688517,172.558965 L591.609033,170.743877 Z" id="Combined-Shape"></path>
        </g>
    </g>
</svg>
