<svg width="95" height="64" viewBox="0 0 95 64" xmlns="http://www.w3.org/2000/svg"><title>blue/icon-large-redpoint-diamond-blue</title><path d="M94.55 17.872v-.483-.121c0-.12 0-.242-.12-.242 0-.12-.12-.12-.12-.241L81.871.845c0-.12-.121-.241-.242-.483-.12-.12-.12-.12-.241-.12A.922.922 0 0 0 80.785 0h-67.26-.121s-.121 0-.121.12h-.12L.241 16.786c0 .12-.121.12-.121.241s0 .121-.121.242v.482s0 .122.12.122c0 0 0 .12.122.12l46.732 45.766.12.121c.121 0 .121.121.242.121h.845s.12 0 .12-.12L94.19 18.112c.241 0 .241-.12.362-.241 0 .12 0 0 0 0zM49.993 1.932h28.74l-14.249 14.25-14.49-14.25zm11.955 14.49H33.57L47.698 2.295l14.25 14.129zm-31.034-.12L16.302 1.932h28.86l-14.249 14.37zm32.242 2.173L47.698 60.377 32.121 18.475h31.034zm17.63-15.818l10.868 13.766H67.019L80.785 2.657zm-66.777-.242l14.249 14.008H3.019L14.008 2.415zm16.06 16.06l15.215 41.057L3.381 18.475h26.687zm20.045 41.057l15.215-41.057h25.963L50.113 59.532z" fill="#1055FF" fill-rule="evenodd"/></svg>