<svg width="153" height="63" viewBox="0 0 153 63" xmlns="http://www.w3.org/2000/svg"><title>blue/icon-large-wings-blue</title><path d="M.96 2.334l54.127 14.583c2.358.636 5.308 2.92 6.514 5.047l12.88 22.723c.767 1.352.967 3.69.43 5.113a51.157 51.157 0 0 1-.688 1.899 47.993 47.993 0 0 1-1.797 4.118c-1.458 2.926-2.939 4.919-4.23 5.49l.838.119c-.547-.458-.963-4.312-1.035-9.73-.033-2.526-.001-5.236.072-7.891a210.641 210.641 0 0 1 .085-2.51l.286-6.63-1.854 6.372c-.039.132-.118.39-.239.752-.202.61-.445 1.29-.728 2.023-.808 2.094-1.776 4.188-2.9 6.137-2.233 3.875-4.79 6.67-7.618 7.938l1.112.881.144-.738a454.459 454.459 0 0 1 1.611-7.859c.137-.634.271-1.243.401-1.823.585-2.61 1.076-4.564 1.434-5.658l2.232-6.817-3.68 6.158a30.903 30.903 0 0 1-3.34 4.545 37.49 37.49 0 0 1-4.533 4.344c-.54.437-1.04.818-1.488 1.139-.266.19-.452.317-.547.378-.206.146.017.266.036.112l-.01-.26c.005.027.005.027.002.007-.166-1.612 1.18-4.55 5.614-8.78l2.266-2.161-3.025.809-6.522 1.745.314-.02c-.155-.02-.451-.065-.87-.136-.7-.117-1.482-.264-2.324-.443-2.405-.51-4.81-1.166-7.047-1.982-3.324-1.213-5.975-2.672-7.7-4.372l-.467 1.364 26.807-3.16-.195-1.587-.573.072a450.134 450.134 0 0 1-6.52.774c-.73.081-1.44.159-2.128.23-4.83.508-8.403.738-8.74.582-8.613-4.01-20.48-11.907-21.636-15.445l-.83 1.045c1.607.141 7.133.606 15.353 1.293l.104.009a47039.106 47039.106 0 0 0 14.557 1.214l1.37.114.13-1.595-16.336-1.32c-.777-.062-2.002-.42-2.686-.786-.206-.108-.582-.307-1.11-.59-.88-.474-1.86-1.01-2.917-1.599a201.752 201.752 0 0 1-8.85-5.212 117.535 117.535 0 0 1-4.705-3.096C4.846 5.806 1.968 3 1.968 1.562L.96 2.334zM1.376.79L.368.518v1.044c0 2.23 3.034 5.187 8.528 9.014a119.108 119.108 0 0 0 4.77 3.139c2.84 1.78 5.881 3.56 8.921 5.254a220.237 220.237 0 0 0 4.058 2.205c.871.467 2.31.887 3.305.967l16.336 1.32.13-1.595-1.368-.114-3.608-.3-10.95-.914-.102-.008a6444.4 6444.4 0 0 1-15.348-1.293l-1.207-.106.377 1.152c1.36 4.158 13.396 12.168 22.482 16.398.769.358 3.908.156 9.582-.44a468.644 468.644 0 0 0 9.258-1.082l-.196-1.587-26.808 3.16-1.653.194 1.185 1.17c1.916 1.89 4.754 3.45 8.274 4.735 2.316.845 4.79 1.52 7.264 2.044.865.184 1.67.335 2.391.456.436.074.75.12.92.144l.314-.02 6.523-1.745-.76-1.352c-2.71 2.585-4.436 4.889-5.36 6.907-.63 1.379-.817 2.451-.74 3.195.012.1.012.1.022.15l-.01-.258c-.197 1.58 1.173 2.317 2.45 1.409.086-.055.293-.196.58-.402.473-.339.998-.738 1.563-1.196a39.076 39.076 0 0 0 4.727-4.53 32.492 32.492 0 0 0 3.513-4.781l-1.447-.66c-.379 1.158-.878 3.148-1.474 5.806a247.86 247.86 0 0 0-.403 1.835 401.212 401.212 0 0 0-1.619 7.89l-.144.743-.29 1.51 1.403-.629c3.196-1.432 5.964-4.46 8.35-8.599 1.169-2.027 2.17-4.193 3.007-6.36.293-.757.544-1.462.754-2.095.127-.382.212-.658.256-.81l-1.567-.257-.027.689c-.02.55-.04 1.17-.058 1.846a198.533 198.533 0 0 0-.072 7.957c.083 6.296.481 9.992 1.607 10.935l.382.32.455-.202c1.748-.775 3.395-2.99 5.014-6.24a49.555 49.555 0 0 0 1.859-4.258 52.75 52.75 0 0 0 .703-1.941c.695-1.839.452-4.673-.546-6.434l-12.88-22.723c-1.418-2.5-4.72-5.056-7.49-5.803L1.375.79zm150.377 0L97.626 15.372c-2.771.747-6.073 3.303-7.49 5.803l-12.88 22.723c-.999 1.761-1.242 4.595-.536 6.466a52.75 52.75 0 0 0 .692 1.909c.558 1.45 1.182 2.9 1.859 4.258 1.619 3.25 3.266 5.465 5.014 6.24l.455.201.382-.32c1.126-.942 1.524-4.638 1.607-10.934.034-2.551.002-5.282-.072-7.957a212.229 212.229 0 0 0-.085-2.535l-1.567.258c.044.15.129.427.256.81.21.632.461 1.337.754 2.095.836 2.166 1.838 4.332 3.006 6.36 2.387 4.139 5.155 7.166 8.351 8.598l1.403.629-.29-1.51a456.024 456.024 0 0 0-1.762-8.633 247.86 247.86 0 0 0-.404-1.835c-.596-2.658-1.095-4.648-1.474-5.806l-1.447.66c1 1.675 2.184 3.27 3.513 4.78a39.076 39.076 0 0 0 4.727 4.531c.565.458 1.09.857 1.563 1.196.287.206.494.347.61.422 1.247.888 2.617.151 2.42-1.43l-.01.26c.01-.05.01-.05.022-.151.077-.744-.11-1.816-.74-3.195-.924-2.018-2.65-4.322-5.361-6.907l-.759 1.352 6.523 1.745.314.02c.17-.023.484-.07.92-.144a57.966 57.966 0 0 0 2.39-.456c2.474-.523 4.949-1.199 7.265-2.044 3.52-1.284 6.357-2.846 8.274-4.736l1.185-1.169-1.653-.195-26.808-3.16-.196 1.588.577.074a451.724 451.724 0 0 0 6.542.776c.734.082 1.448.16 2.14.232 5.673.596 8.812.798 9.58.44 9.087-4.23 21.123-12.24 22.483-16.398l.376-1.152-1.206.106c-1.604.141-7.131.606-15.348 1.293l-.103.008-10.949.914-3.608.3-1.369.114.13 1.595 16.337-1.32c.995-.08 2.434-.5 3.312-.97a220.232 220.232 0 0 0 4.05-2.201 203.31 203.31 0 0 0 8.921-5.255c1.724-1.081 3.322-2.13 4.77-3.14 5.495-3.826 8.529-6.782 8.529-9.013V.518l-1.008.271zm.416 1.545l-1.008-.772c0 1.438-2.878 4.244-7.843 7.7a117.536 117.536 0 0 1-4.706 3.097 201.752 201.752 0 0 1-8.85 5.212 218.645 218.645 0 0 1-4.02 2.185c-.69.37-1.915.728-2.692.79l-16.336 1.32.13 1.595 1.37-.114 3.608-.3 10.95-.914.102-.009c8.22-.687 13.747-1.152 15.355-1.293l-.83-1.045c-1.158 3.538-13.024 11.434-21.637 15.445-.337.156-3.91-.074-8.74-.581-.687-.072-1.398-.15-2.129-.23a467.07 467.07 0 0 1-7.092-.847l-.195 1.588 26.807 3.16-.468-1.365c-1.724 1.7-4.375 3.16-7.699 4.372-2.238.816-4.642 1.473-7.047 1.982-.842.179-1.624.326-2.325.443-.418.07-.714.115-.869.136l.314.02-6.522-1.745-3.025-.81 2.266 2.162c4.434 4.23 5.78 7.168 5.614 8.78-.003.02-.003.02.002-.006l-.01.259c.019.154.242.034.065-.092-.124-.08-.31-.208-.576-.398a31.992 31.992 0 0 1-1.488-1.139 37.49 37.49 0 0 1-4.533-4.344 30.903 30.903 0 0 1-3.34-4.545l-3.68-6.158 2.232 6.817c.358 1.094.849 3.048 1.433 5.658.13.58.264 1.19.401 1.823a399.662 399.662 0 0 1 1.612 7.86c.07.352.118.603.144.737l1.112-.88c-2.828-1.268-5.385-4.064-7.618-7.939-1.124-1.949-2.092-4.043-2.9-6.137a44.894 44.894 0 0 1-.729-2.023c-.12-.363-.2-.62-.238-.752l-1.854-6.371.286 6.629a210.637 210.637 0 0 1 .084 2.51c.074 2.655.106 5.365.073 7.892-.072 5.417-.488 9.27-1.035 9.729l.838-.118c-1.291-.572-2.772-2.565-4.23-5.491a47.993 47.993 0 0 1-1.798-4.119 51.157 51.157 0 0 1-.676-1.866c-.548-1.455-.348-3.793.418-5.145l12.88-22.723c1.207-2.128 4.157-4.411 6.515-5.047L152.17 2.334z" fill="#1055FF" fill-rule="evenodd"/></svg>