<svg width="37" height="31" viewBox="0 0 37 31" xmlns="http://www.w3.org/2000/svg"><title>blue/icon-ui-refresh-blue</title><path d="M26.875 21.913c-1.867 2.73-4.964 4.49-8.4 4.49-5.728 0-10.352-4.754-10.352-10.653h3.351l-5.388-5.547L.741 15.75h3.394c.042 8.188 6.406 14.79 14.34 14.79 4.54 0 8.612-2.2 11.243-5.678l-1.188-1.188-1.655-1.761zm7.085-6.163h-1.188v-.088c0-8.188-6.406-14.835-14.297-14.835-4.625 0-8.74 2.245-11.328 5.766l1.188 1.233 1.654 1.717c1.867-2.774 4.964-4.622 8.486-4.622 5.685 0 10.352 4.842 10.352 10.74v.089h-3.394l5.345 5.546 5.388-5.546H33.96z" fill="#1055FF" fill-rule="evenodd"/></svg>