<svg width="40" height="32" viewBox="0 0 40 32" xmlns="http://www.w3.org/2000/svg"><title>blue/icon-ui-dashboard-blue</title><path d="M5.333 29.333C3.957 26.846 2.667 22.78 2.667 20c0-9.333 8-17.6 17.333-17.6 9.334 0 17.333 8.267 17.333 17.6 0 4-1.29 6.846-2.666 9.333H5.333zm17.421-9.525a3 3 0 1 1-1.505-1.537C22.272 16.927 26.134 11.867 27 11c1-1 3.372.628 2 2-.848.848-5 5.431-6.246 6.808zM20 0C8.954 0 0 8.942 0 19.972c0 3.92 1.132 7.577 3.087 10.662.49.774 1.689 1.366 2.605 1.366h28.615c.917 0 2.115-.592 2.606-1.366A19.852 19.852 0 0 0 40 19.973C40 8.943 31.046 0 20 0z" fill="#1055FF" fill-rule="evenodd"/></svg>