<svg width="37" height="32" viewBox="0 0 37 32" xmlns="http://www.w3.org/2000/svg"><title>blue/icon-ui-links-blue</title><path d="M36.027 18.13c-.043 0-.043-.043-.043-.043a7.178 7.178 0 0 0-1.267-1.696l-6.855-6.826-.087-.087c-.874-.826-1.921-1.478-3.1-1.826 1.353 1.391 2.226 3.13 2.576 5.044.087.565.13 1.174.13 1.739 0 .217 0 .478-.043.739l4.28 4.26c.392.349.654.827.785 1.349.088.304.131.608.131.913 0 .347-.043.695-.13 1a3.428 3.428 0 0 1-.787 1.26l-2.794 2.783c-.568.609-1.398.913-2.27.913-.874 0-1.66-.304-2.271-.913l-2.62-2.652-1.747-1.696-2.489-2.478c-.218-.26-.436-.522-.611-.87-.175-.434-.306-.913-.306-1.39 0-.349.044-.653.175-.957v-.087l.044-.044c.043-.13.043-.217.087-.304.044-.044.044-.087.087-.13a.91.91 0 0 1 .175-.261v-.044c.044-.043.044-.087.044-.087.13-.13.218-.26.305-.348l1.092-1.087c-.044-.087-.044-.217-.087-.304-.044-.087-.131-.174-.175-.26l-2.489-2.436-.175-.217-1.222 1.217c-.131.13-.219.261-.35.392l-.087.087v.043c-.087.087-.175.217-.262.304-.044.044-.044.087-.087.087v.044c-.088.087-.131.217-.219.304l-.043.044s0 .043-.044.087c-.087.13-.13.26-.218.391v.043c-.262.479-.48.957-.612 1.479l-.13.521c-.088.522-.132 1-.132 1.522 0 .435.044.913.088 1.348.305 1.522 1.004 2.87 2.096 3.957l1.44 1.434 2.053 2.087 3.362 3.305c2.926 2.956 7.729 2.956 10.698 0l2.794-2.74a8.12 8.12 0 0 0 1.965-3.478c.131-.652.219-1.26.219-1.87 0-1.173-.262-2.39-.83-3.434v-.044l-.044-.043v-.044zM23.06 9.043l-1.44-1.434-2.053-2.087-3.362-3.305c-2.926-2.956-7.729-2.956-10.698 0L2.71 4.957A8.12 8.12 0 0 0 .746 8.435c-.13.652-.218 1.26-.218 1.87a7.81 7.81 0 0 0 .83 3.434v.044s.043 0 .043.043v.044c.044 0 .044.043.044.043.35.652.786 1.217 1.266 1.696l6.856 6.826.087.087a8.02 8.02 0 0 0 3.1 1.826c-1.31-1.391-2.227-3.13-2.532-5.044a7.837 7.837 0 0 1-.175-1.739c0-.217 0-.478.044-.739l-4.28-4.26c-.393-.349-.655-.827-.786-1.349a3.297 3.297 0 0 1-.13-.913c0-.347.043-.695.13-1 .175-.478.437-.913.786-1.26L8.606 5.26c1.223-1.218 3.318-1.218 4.541 0l2.664 2.652 1.703 1.696 2.488 2.478c.219.26.437.522.612.87.174.434.305.913.305 1.39 0 .349-.043.653-.13.957-.044.044-.044.044-.044.087v.044c-.044.13-.088.217-.131.304-.044.044-.044.087-.088.13a.91.91 0 0 1-.174.261v.044c0 .043-.044.043-.044.087-.13.13-.218.26-.306.348l-1.091 1.087c.044.087.044.217.087.304.044.087.131.174.175.26l2.489 2.436.174.217 1.223-1.217c.131-.13.262-.261.35-.392l.087-.087.043-.043c.044-.087.131-.217.219-.304.043-.044.043-.087.087-.13.087-.088.175-.218.218-.305l.044-.044.044-.087c.087-.13.13-.26.218-.391l.044-.043c.218-.479.436-.957.567-1.479l.131-.521c.088-.522.175-1 .175-1.522 0-.435-.044-.913-.131-1.348-.262-1.522-1.004-2.87-2.096-3.957z" fill="#1055FF" fill-rule="evenodd"/></svg>