<svg width="70" height="64" viewBox="0 0 70 64" xmlns="http://www.w3.org/2000/svg"><title>blue/icon-branding-baas-large-blue</title><defs><linearGradient x1="26.172%" y1="0%" x2="72.207%" y2="100%" id="a"><stop stop-color="#1055FF" offset="0%"/><stop stop-color="#1055FF" offset="60.118%"/><stop stop-color="#1055FF" offset="81.234%"/><stop stop-color="#1055FF" offset="100%"/></linearGradient></defs><path d="M.748 33.458c-.413-.805-.413-2.112 0-2.916L15.662 1.458C16.075.653 17.148 0 18.044 0H51.7c.903 0 1.97.654 2.382 1.458l14.915 29.084c.413.805.412 2.112 0 2.916L54.08 62.542C53.668 63.347 52.596 64 51.7 64H18.044c-.902 0-1.969-.654-2.382-1.458L.748 33.458zm34.099 9.778c-5.137 0-10.296-1.264-12.735-4.026a4.11 4.11 0 0 0-.12.953v5.008c0 4.441 6.662 6.456 12.856 6.456s12.856-2.017 12.856-6.456v-5.008c0-.334-.048-.648-.12-.953-2.439 2.751-7.596 4.026-12.737 4.026zm0-9.681c-5.137 0-10.296-1.275-12.734-4.026a4.097 4.097 0 0 0-.121.95v5.008c0 4.437 6.662 6.456 12.856 6.456s12.856-2.019 12.856-6.456V30.48c0-.332-.048-.647-.12-.952-2.439 2.753-7.596 4.028-12.737 4.028zm.001-19.217c-6.194 0-12.856 2.02-12.856 6.46v5.006c0 4.438 6.662 6.457 12.856 6.457s12.856-2.02 12.856-6.457v-5.006c0-4.437-6.662-6.46-12.856-6.46zm0 10.334c-5.625 0-10.185-1.735-10.185-3.876 0-2.139 4.56-3.875 10.185-3.875 5.625 0 10.185 1.736 10.185 3.875 0 2.143-4.56 3.876-10.185 3.876z" fill="url(#a)" fill-rule="evenodd"/></svg>