<svg width="54" height="31" viewBox="0 0 54 31" xmlns="http://www.w3.org/2000/svg"><title>blue/icon-ui-content-academy-blue</title><g fill="#1055FF" fill-rule="evenodd"><path d="M27.015 1.077l-24 10L.8 12l2.215.923 24 10 .385.16.385-.16 24-10L54 12l-2.215-.923-24-10-.385-.16-.385.16zm.77 1.846h-.77l24 10v-1.846l-24 10h.77l-24-10v1.846l24-10z"/><path d="M12.4 16v11.994A3.009 3.009 0 0 0 15.414 31h23.972a2.996 2.996 0 0 0 3.014-3.006V16h-2v11.994A.996.996 0 0 1 39.386 29H15.414c-.562 0-1.014-.45-1.014-1.006V16h-2z"/><path d="M27.254 12.99l17.28 2.552-.854-.989v8.1h2V13.69l-.854-.126-17.28-2.553z"/></g></svg>