<svg width="27" height="32" viewBox="0 0 27 32" xmlns="http://www.w3.org/2000/svg"><title>blue/icon-ui-open-blue</title><g fill="#1055FF" fill-rule="evenodd"><path d="M7.592 12.184v-4.32a5.382 5.382 0 0 1 1.009-2.463c.521-.701 1.225-1.295 2.15-1.749 1.419-.696 2.978-.872 4.512-.624 1.107.18 2.12.597 2.348.821l1.68-1.713c-1.628-1.599-6.15-2.33-9.597-.638-1.273.624-2.273 1.468-3.02 2.473a7.766 7.766 0 0 0-1.26 2.582c-.148.541-.21.978-.221 1.263l-.001 4.368h2.4z"/><path d="M3.052 13.78c0-.221.174-.396.4-.396h20.492c.222 0 .4.178.4.395v15.332c0 .221-.174.396-.4.396H3.453a.398.398 0 0 1-.4-.396V13.78zm-2.4 0V29.11a2.798 2.798 0 0 0 2.8 2.796h20.492c1.552 0 2.8-1.25 2.8-2.796V13.78a2.798 2.798 0 0 0-2.8-2.795H3.453a2.793 2.793 0 0 0-2.8 2.795z"/><ellipse cx="13.923" cy="21.695" rx="3.421" ry="3.383"/></g></svg>