<?xml version="1.0" encoding="UTF-8" standalone="no"?>
<svg width="24px" height="24px" viewBox="0 0 24 24" version="1.1" xmlns="http://www.w3.org/2000/svg" xmlns:xlink="http://www.w3.org/1999/xlink" xmlns:sketch="http://www.bohemiancoding.com/sketch/ns">
    <!-- Generator: Sketch 3.3.2 (12043) - http://www.bohemiancoding.com/sketch -->
    <title>icon-faq-q copy</title>
    <desc>Created with Sketch.</desc>
    <defs></defs>
    <g id="Page-1" stroke="none" stroke-width="1" fill="none" fill-rule="evenodd" sketch:type="MSPage">
        <path d="M12,24 C18.627417,24 24,18.627417 24,12 C24,5.372583 18.627417,0 12,0 C5.372583,0 0,5.372583 0,12 C0,18.627417 5.372583,24 12,24 Z M12,23 C18.0751322,23 23,18.0751322 23,12 C23,5.92486775 18.0751322,1 12,1 C5.92486775,1 1,5.92486775 1,12 C1,18.0751322 5.92486775,23 12,23 Z M11.5333333,7.104 L12.8413333,7.104 L16.5013333,15.6 L14.7733333,15.6 L13.9813333,13.656 L10.2973333,13.656 L9.52933333,15.6 L7.83733333,15.6 L11.5333333,7.104 Z M13.4533333,12.36 L12.1453333,8.904 L10.8133333,12.36 L13.4533333,12.36 Z" id="icon-faq-q-copy" fill="#1055ff" sketch:type="MSShapeGroup"></path>
    </g>
</svg>
