<?xml version="1.0" encoding="UTF-8"?>
<svg width="199px" height="199px" viewBox="0 0 199 199" version="1.1" xmlns="http://www.w3.org/2000/svg" xmlns:xlink="http://www.w3.org/1999/xlink">
    <!-- Generator: Sketch 41.1 (35376) - http://www.bohemiancoding.com/sketch -->
    <title>Combined Shape</title>
    <desc>Created with Sketch.</desc>
    <defs></defs>
    <g id="Icons" stroke="none" stroke-width="1" fill="none" fill-rule="evenodd">
        <g id="Artboard" transform="translate(-74.000000, -50.000000)" fill="#1260FF">
            <path d="M192.776313,226.536877 C221.06931,219.342407 243.342407,197.06931 250.536877,168.776313 C251.503092,168.923612 252.492625,169 253.5,169 C264.269553,169 273,160.269553 273,149.5 C273,138.730447 264.269553,130 253.5,130 C252.575517,130 251.66606,130.064334 250.775861,130.188769 C243.856841,101.4791 221.454543,78.8042465 192.89925,71.4944887 C192.965871,70.8387206 193,70.1733459 193,69.5 C193,58.7304474 184.269553,50 173.5,50 C162.730447,50 154,58.7304474 154,69.5 C154,70.0901661 154.026217,70.6742088 154.077551,71.2510269 C125.094163,78.280198 102.280198,101.094163 95.2510269,130.077551 C94.6742088,130.026217 94.0901661,130 93.5,130 C82.7304474,130 74,138.730447 74,149.5 C74,160.269553 82.7304474,169 93.5,169 C94.1733459,169 94.8387206,168.965871 95.4944887,168.89925 C102.804246,197.454543 125.4791,219.856841 154.188769,226.775861 C154.064334,227.66606 154,228.575517 154,229.5 C154,240.269553 162.730447,249 173.5,249 C184.269553,249 193,240.269553 193,229.5 C193,228.492625 192.923612,227.503092 192.776313,226.536877 Z M190.527399,219.989258 C216.891489,213.643603 237.643603,192.891489 243.989258,166.527399 C238.029005,163.191131 234,156.816078 234,149.5 C234,142.183922 238.029005,135.808869 243.989258,132.472597 C237.643603,106.108511 216.891489,85.3563974 190.527399,79.0107416 C187.191131,84.9709952 180.816078,89 173.5,89 C166.183922,89 159.808869,84.9709952 156.472597,79.0107424 C130.108511,85.3563974 109.356397,106.108511 103.010742,132.472601 C108.970995,135.808869 113,142.183922 113,149.5 C113,156.816078 108.970995,163.191131 103.010742,166.527403 C109.356397,192.891489 130.108511,213.643603 156.472601,219.989258 C159.808869,214.029005 166.183922,210 173.5,210 C180.816078,210 187.191131,214.029005 190.527403,219.989258 Z M173.5,169 C184.269553,169 193,160.269553 193,149.5 C193,138.730447 184.269553,130 173.5,130 C162.730447,130 154,138.730447 154,149.5 C154,160.269553 162.730447,169 173.5,169 Z" id="Combined-Shape"></path>
        </g>
    </g>
</svg>
