<svg width="55" height="32" viewBox="0 0 55 32" xmlns="http://www.w3.org/2000/svg"><title>blue/icon-ui-connectors-blue</title><g fill="#1055FF" fill-rule="evenodd"><path d="M12.903 32c7.126 0 12.903-5.777 12.903-12.903S20.03 6.194 12.903 6.194 0 11.97 0 19.097 5.777 32 12.903 32zm0-4.129a8.774 8.774 0 1 0 0-17.548 8.774 8.774 0 0 0 0 17.548z"/><path d="M13.41 16.653a11.4 11.4 0 0 1 .105-.604c.098-.504.23-1.068.399-1.676.483-1.738 1.166-3.476 2.08-5.09 2.573-4.539 6.414-7.218 11.877-7.218 5.463 0 9.304 2.68 11.876 7.218.915 1.614 1.598 3.352 2.081 5.09.169.608.3 1.172.399 1.676.058.296.091.503.105.604l2.046-.273c-.019-.141-.059-.388-.125-.727a24.232 24.232 0 0 0-.436-1.833c-.525-1.89-1.269-3.782-2.274-5.555C38.631 3.127 34.15 0 27.871 0c-6.279 0-10.76 3.127-13.672 8.265-1.005 1.773-1.75 3.665-2.274 5.555a24.232 24.232 0 0 0-.436 1.833c-.066.339-.106.586-.125.727l2.046.273z"/><path d="M12.462 23.352l-3.615-7.496 8.238.576zM29.935 7.226H54.71V32H29.935V7.226zm3.097 3.097h18.58v18.58h-18.58v-18.58z"/><path d="M43.43 16.144l4.623 6.92-8.238.576z"/></g></svg>