<svg width="95" height="32" viewBox="0 0 95 32" xmlns="http://www.w3.org/2000/svg"><title>blue/icon-ui-redpoint-controls-blue</title><path d="M0 16C0 7.163 7.158 0 15.988 0h62.744c8.83 0 15.988 7.162 15.988 16 0 8.837-7.158 16-15.988 16H15.988C7.158 32 0 24.838 0 16zm1.28 0c0-8.13 6.59-14.72 14.73-14.72h62.7c8.135 0 14.73 6.589 14.73 14.72 0 8.13-6.59 14.72-14.73 14.72h-62.7C7.875 30.72 1.28 24.131 1.28 16zm58.877 7.042a1.28 1.28 0 0 0 1.269 1.278h5.143c.7 0 1.268-.573 1.268-1.278V8.958A1.28 1.28 0 0 0 66.57 7.68h-5.143c-.7 0-1.269.573-1.269 1.278v14.084zM72.946 7.68c-.7 0-1.269.573-1.269 1.278v14.084a1.28 1.28 0 0 0 1.269 1.278h5.143c.7 0 1.268-.573 1.268-1.278V8.958A1.28 1.28 0 0 0 78.09 7.68h-5.143zm-32.221.725c-.579-.4-1.048-.152-1.048.553v14.084c0 .706.486.982 1.092.614L51.386 17.2c.603-.367.62-.99.044-1.389L40.725 8.405zM28.155 24.32a1.28 1.28 0 0 0 1.282-1.278V8.958c0-.706-.583-1.278-1.283-1.278H15.363a1.28 1.28 0 0 0-1.283 1.278v14.084c0 .706.583 1.278 1.283 1.278h12.791z" fill="#1055FF" fill-rule="evenodd"/></svg>