<svg width="40" height="32" viewBox="0 0 40 32" xmlns="http://www.w3.org/2000/svg"><title>blue/icon-ui-twitter-blue</title><path d="M.2 27.839c0 .205.102.39.307.553.342.232.95.574 1.825 1.025C5.667 31.139 9.165 32 12.828 32c4.564 0 8.712-1.175 12.443-3.526a21.481 21.481 0 0 0 4.736-4.049c1.38-1.578 2.477-3.225 3.29-4.94a25.708 25.708 0 0 0 1.824-5.156c.403-1.722.591-3.396.564-5.022v-.718c1.599-1.148 2.85-2.46 3.751-3.936.082-.164.123-.287.123-.369a.648.648 0 0 0-.205-.471.648.648 0 0 0-.471-.205c-.096 0-.26.055-.492.164a76.71 76.71 0 0 0-1.22.42c-.17.062-.283.1-.338.113.355-.396.724-.933 1.107-1.61.383-.676.574-1.171.574-1.486a.615.615 0 0 0-.205-.46.69.69 0 0 0-.492-.196.615.615 0 0 0-.328.103c-1.558.834-3.014 1.4-4.367 1.701C31.47.786 29.494 0 27.198 0c-2.35 0-4.353.82-6.006 2.46-1.654 1.64-2.48 3.622-2.48 5.945 0 .41.027.745.081 1.004a21.427 21.427 0 0 1-6.683-1.66 20.632 20.632 0 0 1-5.78-3.69c-.397-.383-1.162-1.182-2.297-2.399a.787.787 0 0 0-.574-.246c-.164 0-.334.11-.512.328-.355.533-.636 1.186-.84 1.958a8.807 8.807 0 0 0-.308 2.265c0 2.037.635 3.813 1.906 5.33l-.594-.287c-.342-.15-.595-.225-.759-.225a.859.859 0 0 0-.584.205.673.673 0 0 0-.236.533c0 1.435.37 2.795 1.107 4.08a8.495 8.495 0 0 0 2.993 3.074l-.246-.04a.44.44 0 0 1-.112-.021 3.718 3.718 0 0 0-.113-.031.28.28 0 0 0-.062-.01.615.615 0 0 0-.46.205.642.642 0 0 0-.196.45c0 .014.014.09.041.226a8.343 8.343 0 0 0 2.317 3.618 8.348 8.348 0 0 0 3.792 2c-2.378 1.461-5.002 2.193-7.872 2.193-.19 0-.498-.02-.922-.062a51.858 51.858 0 0 0-.943-.04.615.615 0 0 0-.461.204.665.665 0 0 0-.195.472z" fill="#1055FF" fill-rule="evenodd"/></svg>