<svg width="29" height="30" viewBox="0 0 29 30" xmlns="http://www.w3.org/2000/svg"><title>blue/icon-ui-tools-blue</title><path d="M16.866 21.05l4.519 4.518 2.396 3.218 1.267.342 3.56-3.56-.343-1.3-3.217-2.363-4.759-4.758-3.354 3.355c0 .205-.035.376-.069.547zm7.84 2.67c.855 0 1.506.65 1.506 1.506 0 .821-.65 1.472-1.507 1.472-.821 0-1.472-.65-1.472-1.472 0-.856.65-1.507 1.472-1.507zm-9.791-11.948l-2.636-2.67c.342-.65.548-1.335.548-1.951 0-3.389-3.252-6.675-6.641-6.641-.034 0-.411.377-.616.616 2.738 2.705 2.499 2.26 2.499 3.937 0 1.37-2.157 3.492-3.492 3.492-1.712 0-1.164.273-3.971-2.5-.205.206-.582.583-.582.617.034 3.389 3.252 6.64 6.641 6.64.616 0 1.267-.205 1.917-.513l2.43 2.397c.172-.035.343-.069.548-.069l3.355-3.355zm10.852 5.786l1.814 1.745s2.601-7.223-.514-10.338l-4.073-4.073c-.274-.274-1.061 0-1.267-.274-.582-.753-.787-1.404-.821-1.575-.137-.582-.754-1.164-1.267-1.677l-.205-.206c-.411-.41-.65-.684-.89-.684s-.48.17-.89.582l-2.465 2.499c-.924.89-.72.992.068 1.78l.206.205c.582.548 1.232 1.267 1.882 1.267h.035c.513.102 1.574.41 2.054 1.3.547 1.199-.206 2.02-.514 2.465l-6.64 6.641a2.326 2.326 0 0 0-.651-.102c-.343 0-.685.102-.959.376a.581.581 0 0 1-.205.206L3.55 24.609a.581.581 0 0 1-.205.206c-1.336 1.37 1.13 4.279 2.91 4.279.376 0 .718-.103.992-.377.034-.068.103-.137.205-.24 1.438-1.403 6.881-6.88 6.881-6.88.103-.103.171-.171.24-.205.41-.445.445-.993.273-1.61l7.463-7.428c.445-.41.924-.753 1.164-.753h.103c2.704 1.575 2.19 5.957 2.19 5.957z" fill="#1055FF" fill-rule="evenodd"/></svg>