<svg width="56" height="57" viewBox="0 0 56 57" xmlns="http://www.w3.org/2000/svg"><title>blue/icon-large-chip-blue</title><g fill="#1055FF" fill-rule="evenodd"><path d="M9.333 11.403c0-.75.603-1.353 1.354-1.353h34.626c.75 0 1.354.603 1.354 1.353V46.03a1.35 1.35 0 0 1-1.354 1.353H10.687a1.35 1.35 0 0 1-1.354-1.353V11.403zm-2.666 0V46.03a4.016 4.016 0 0 0 4.02 4.02h34.626a4.016 4.016 0 0 0 4.02-4.02V11.403a4.016 4.016 0 0 0-4.02-4.02H10.687a4.016 4.016 0 0 0-4.02 4.02z"/><path d="M48 16.667h8v2.667h-8zM48 27.333h8V30h-8zM48 38h8v2.667h-8zM0 16.667h8v2.667H0zM0 27.333h8V30H0zM0 38h8v2.667H0zM40 .667v8h-2.667v-8zM29.334.667v8h-2.667v-8zM18.667.666v8H16v-8zM40 48.717v8h-2.667v-8zM29.334 48.717v8h-2.667v-8zM18.667 48.716v8H16v-8z"/><g transform="translate(9 27.267)"><path d="M.333 2.95h8l-.818-.281 12 9.333.36.281h5.792V9.617h-5.334l.819.28-12-9.333-.361-.28H.333z"/><ellipse cx="25.667" cy="10.95" rx="2.667" ry="2.667"/></g><g transform="rotate(180 23.5 15.167)"><path d="M.333 2.95h8l-.818-.281 12 9.333.36.281h5.792V9.617h-5.334l.819.28-12-9.333-.361-.28H.333z"/><ellipse cx="25.667" cy="10.95" rx="2.667" ry="2.667"/></g></g></svg>