<?xml version="1.0" encoding="UTF-8"?>
<svg width="200px" height="200px" viewBox="0 0 200 200" version="1.1" xmlns="http://www.w3.org/2000/svg" xmlns:xlink="http://www.w3.org/1999/xlink">
    <!-- Generator: Sketch 41.1 (35376) - http://www.bohemiancoding.com/sketch -->
    <title>Combined Shape</title>
    <desc>Created with Sketch.</desc>
    <defs></defs>
    <g id="Icons" stroke="none" stroke-width="1" fill="none" fill-rule="evenodd">
        <g id="_icons" transform="translate(-720.000000, -30.000000)" fill="#010101">
            <path d="M735.708812,60.9485123 C744.38455,60.9485123 751.417625,54.0204519 751.417625,45.4742562 C751.417625,36.9280605 744.38455,30 735.708812,30 C727.033075,30 720,36.9280605 720,45.4742562 C720,54.0204519 727.033075,60.9485123 735.708812,60.9485123 Z M791.902937,60.9485123 C800.578675,60.9485123 807.61175,54.0204519 807.61175,45.4742562 C807.61175,36.9280605 800.578675,30 791.902937,30 C783.2272,30 776.194125,36.9280605 776.194125,45.4742562 C776.194125,54.0204519 783.2272,60.9485123 791.902937,60.9485123 Z M848.097063,60.9485123 C856.7728,60.9485123 863.805875,54.0204519 863.805875,45.4742562 C863.805875,36.9280605 856.7728,30 848.097063,30 C839.421325,30 832.38825,36.9280605 832.38825,45.4742562 C832.38825,54.0204519 839.421325,60.9485123 848.097063,60.9485123 Z M904.291188,60.9485123 C912.966925,60.9485123 920,54.0204519 920,45.4742562 C920,36.9280605 912.966925,30 904.291188,30 C895.61545,30 888.582375,36.9280605 888.582375,45.4742562 C888.582375,54.0204519 895.61545,60.9485123 904.291188,60.9485123 Z M735.708812,117.299008 C744.38455,117.299008 751.417625,110.370948 751.417625,101.824752 C751.417625,93.2785564 744.38455,86.3504959 735.708812,86.3504959 C727.033075,86.3504959 720,93.2785564 720,101.824752 C720,110.370948 727.033075,117.299008 735.708812,117.299008 Z M791.902937,117.299008 C800.578675,117.299008 807.61175,110.370948 807.61175,101.824752 C807.61175,93.2785564 800.578675,86.3504959 791.902937,86.3504959 C783.2272,86.3504959 776.194125,93.2785564 776.194125,101.824752 C776.194125,110.370948 783.2272,117.299008 791.902937,117.299008 Z M848.097063,117.299008 C856.7728,117.299008 863.805875,110.370948 863.805875,101.824752 C863.805875,93.2785564 856.7728,86.3504959 848.097063,86.3504959 C839.421325,86.3504959 832.38825,93.2785564 832.38825,101.824752 C832.38825,110.370948 839.421325,117.299008 848.097063,117.299008 Z M904.291188,117.299008 C912.966925,117.299008 920,110.370948 920,101.824752 C920,93.2785564 912.966925,86.3504959 904.291188,86.3504959 C895.61545,86.3504959 888.582375,93.2785564 888.582375,101.824752 C888.582375,110.370948 895.61545,117.299008 904.291188,117.299008 Z M791.902937,173.649504 C800.578675,173.649504 807.61175,166.721444 807.61175,158.175248 C807.61175,149.629052 800.578675,142.700992 791.902937,142.700992 C783.2272,142.700992 776.194125,149.629052 776.194125,158.175248 C776.194125,166.721444 783.2272,173.649504 791.902937,173.649504 Z M848.097063,173.649504 C856.7728,173.649504 863.805875,166.721444 863.805875,158.175248 C863.805875,149.629052 856.7728,142.700992 848.097063,142.700992 C839.421325,142.700992 832.38825,149.629052 832.38825,158.175248 C832.38825,166.721444 839.421325,173.649504 848.097063,173.649504 Z M904.291188,173.649504 C912.966925,173.649504 920,166.721444 920,158.175248 C920,149.629052 912.966925,142.700992 904.291188,142.700992 C895.61545,142.700992 888.582375,149.629052 888.582375,158.175248 C888.582375,166.721444 895.61545,173.649504 904.291188,173.649504 Z M848.097063,230 C856.7728,230 863.805875,223.07194 863.805875,214.525744 C863.805875,205.979548 856.7728,199.051488 848.097063,199.051488 C839.421325,199.051488 832.38825,205.979548 832.38825,214.525744 C832.38825,223.07194 839.421325,230 848.097063,230 Z M904.291188,230 C912.966925,230 920,223.07194 920,214.525744 C920,205.979548 912.966925,199.051488 904.291188,199.051488 C895.61545,199.051488 888.582375,205.979548 888.582375,214.525744 C888.582375,223.07194 895.61545,230 904.291188,230 Z" id="Combined-Shape"></path>
        </g>
    </g>
</svg>