<svg width="33" height="32" viewBox="0 0 33 32" xmlns="http://www.w3.org/2000/svg"><title>blue/icon-ui-shovel-blue</title><g fill="#1055FF" fill-rule="evenodd"><path d="M15.135 17.759a14.484 14.484 0 0 0-.278-.63c-.22-.464-.465-.93-.734-1.367-1.067-1.733-2.217-2.658-3.524-2.055l.292-.064c-1.995.85-6.62 3.916-7.896 5.038-.576.506-.865.786-1.253 1.265-1.927 2.379-2.33 5.58-.36 9.87l.065.138.116.1c.307.262.87.629 1.686.988 1.772.78 3.916 1.135 6.406.834.497-.06 1.01-.154 1.537-.28 1.684-.405 3.464-1.125 5.276-2.07a35.817 35.817 0 0 0 3.647-2.193c.145-.1.247-.172.302-.213.247-.16.644-.465 1.044-.865.833-.832 1.301-1.706 1.138-2.636-.154-.873-.857-1.573-2.082-2.09-1.067-.451-1.3-1.2-.905-2.398.196-.595.543-1.25.998-1.925a14.228 14.228 0 0 1 1.223-1.56L32.375 4.98l.163-.165.031-.23a5.963 5.963 0 0 0-.13-2.146C31.992.698 30.684-.271 28.516.13c-1.583.294-3.835 2.501-6.79 6.27a96.46 96.46 0 0 0-1.958 2.593 154.935 154.935 0 0 0-4.119 5.949 167.072 167.072 0 0 0-1.749 2.706l1.236.111zm-1.292.516l.508 1.274.728-1.163c.02-.032.06-.097.12-.19.099-.157.214-.34.346-.544.375-.586.8-1.24 1.264-1.943 1.328-2.01 2.712-4.02 4.082-5.895a95.083 95.083 0 0 1 1.93-2.556c2.701-3.446 4.855-5.557 5.948-5.76 1.403-.26 2.048.217 2.324 1.29a4.634 4.634 0 0 1 .098 1.61l.194-.395L20.831 14.68a15.604 15.604 0 0 0-1.375 1.748c-.52.773-.924 1.534-1.166 2.267-.601 1.826-.129 3.349 1.685 4.115.831.351 1.194.712 1.254 1.05.063.36-.21.87-.75 1.41a6.166 6.166 0 0 1-.854.707l-.3.212a34.438 34.438 0 0 1-3.5 2.103c-1.72.896-3.399 1.576-4.958 1.95a12.13 12.13 0 0 1-1.38.253c-2.233.27-4.127-.044-5.677-.727a7.284 7.284 0 0 1-1.033-.551 3.395 3.395 0 0 1-.31-.221l.18.238c-1.75-3.808-1.418-6.445.176-8.412.325-.401.57-.639 1.09-1.096 1.179-1.036 5.692-4.027 7.27-4.755l-.292.064c.67-.24 1.328.289 2.047 1.457a12.691 12.691 0 0 1 .905 1.783z"/><path d="M21.647 8.373a7.734 7.734 0 0 1 1.655.624c1.058.55 1.562 1.18 1.42 1.882l1.363.276c.298-1.471-.597-2.589-2.14-3.392a9.099 9.099 0 0 0-1.354-.564 7.81 7.81 0 0 0-.628-.181l-.316 1.355zM13.873 17.692a21.932 21.932 0 0 1-.674 1.138 22.932 22.932 0 0 1-1.85 2.533c-1.251 1.476-2.554 2.572-3.853 3.134l.552 1.277c1.528-.661 2.985-1.887 4.362-3.511a24.303 24.303 0 0 0 2.694-3.922l-1.23-.649zM3.155 24.219a3.25 3.25 0 0 0-.126.414c-.157.642-.18 1.319.022 1.965.361 1.163 1.38 1.971 3.153 2.267l.114-.686c-1.525-.255-2.323-.889-2.603-1.787-.158-.508-.14-1.065-.01-1.594a2.61 2.61 0 0 1 .096-.321l-.646-.258zM17.145 22.507l2.087 2.087.029-.518a30.272 30.272 0 0 1-.55.432 53.287 53.287 0 0 1-1.581 1.179c-.938.666-1.662 1.096-1.826 1.096v.695c.387 0 1.105-.425 2.229-1.224.105-.076.214-.153.324-.234a53.966 53.966 0 0 0 1.839-1.4l.303-.243-.275-.275-2.087-2.087-.492.492zM25.043 5.217c.054 0 .155.005.288.02.222.025.443.069.646.136.525.176.806.456.806.888h.695c0-.786-.502-1.288-1.281-1.547a3.849 3.849 0 0 0-.789-.168 3.494 3.494 0 0 0-.365-.024v.695zM25.74 3.826c.052 0 .154.005.287.02.222.024.443.069.646.136.525.175.805.456.805.888h.696c0-.786-.502-1.288-1.281-1.548a3.849 3.849 0 0 0-.79-.168 3.494 3.494 0 0 0-.364-.024v.696zM23.652 6.609c.053 0 .155.005.288.02.222.024.443.068.646.136.525.175.805.455.805.887h.696c0-.785-.502-1.288-1.281-1.547a3.849 3.849 0 0 0-.79-.168 3.494 3.494 0 0 0-.364-.024v.696zM27.13 2.435c.054 0 .155.005.288.02.222.024.443.068.646.136.525.175.806.455.806.887h.695c0-.785-.502-1.287-1.281-1.547a3.849 3.849 0 0 0-.79-.168 3.494 3.494 0 0 0-.364-.024v.696z"/></g></svg>