<svg width="64" height="64" viewBox="0 0 64 64" xmlns="http://www.w3.org/2000/svg"><title>blue/icon-large-guide-blue</title><g fill="#1055FF" fill-rule="evenodd"><path d="M48.622 0H6.167a7.397 7.397 0 0 0-3.064.927C1.191 1.99 0 3.798 0 6.345c0 4.624 1.888 6.971 5.404 8.053 1.21.372 9.056.44 22.838.334 3.61-.027 7.444-.067 11.382-.115a3113.105 3113.105 0 0 0 10.303-.144l.841-.013-1.414-1.391v8.67h2.782V11.653l-1.414.023-.839.014-2.327.036c-2.48.036-5.167.073-7.966.108-3.934.048-7.764.087-11.37.115-12.555.095-21.242.021-21.997-.211-2.39-.736-3.44-2.04-3.44-5.394 0-1.478.6-2.39 1.672-2.986.4-.222.841-.382 1.284-.486.26-.061.45-.088.53-.094l42.353.004V0z"/><path d="M44.342.889c-.273.348-.645.935-1.01 1.724-1.694 3.669-1.411 7.728 2.168 11.424l1.999-1.936c-2.693-2.78-2.89-5.614-1.64-8.321.267-.578.527-.988.675-1.178L44.342.889zM.177 7.407v49.541l.024-.256a6.338 6.338 0 0 0 .506 3.677C1.777 62.656 4.172 64 7.936 64h43.668v-5.829h-2.782v4.438l1.392-1.392H7.936c-2.737 0-4.124-.778-4.71-2.03a3.65 3.65 0 0 1-.3-1.899c.005-.055.01-.084.01-.083l.024-.257V7.407H.177zM42.856 35.592V30.72c.003-.07.044-.362.15-.759.185-.684.495-1.37.958-2.008.572-.786 1.342-1.45 2.353-1.956 2.762-1.386 6.5-.768 7.475.21l.268.267c.113.112.21.211.306.312.246.258.468.508.675.768.847 1.062 1.321 2.117 1.321 3.169v5.027h2.783v-5.027c0-1.783-.724-3.394-1.929-4.905-.454-.568-.57-.69-1.453-1.576-1.82-1.826-6.855-2.658-10.694-.733-1.415.71-2.526 1.668-3.355 2.808-1.164 1.6-1.594 3.2-1.64 4.348l-.001 4.928h2.783z"/><path d="M37.843 38.367c0-.763.62-1.384 1.384-1.384h20.607c.763 0 1.383.621 1.383 1.384v15.345c0 .764-.62 1.384-1.383 1.384H39.227c-.763 0-1.384-.621-1.384-1.384V38.367zm-2.782 0v15.345c0 2.3 1.866 4.166 4.166 4.166h20.607c2.3 0 4.166-1.865 4.166-4.166V38.367c0-2.3-1.866-4.166-4.166-4.166H39.227a4.167 4.167 0 0 0-4.166 4.166z"/><ellipse cx="50.424" cy="45.983" rx="3.478" ry="3.478"/><path d="M5.565 7.652h34.783V6.261H5.565z"/></g></svg>