<svg width="79" height="79" viewBox="0 0 79 79" xmlns="http://www.w3.org/2000/svg"><title>blue/icon-large-resource-compass-blue</title><g fill="none" fill-rule="evenodd"><g fill="#1055FF"><path d="M38.235 4.235L31.53 29.147l1.595-.655-8.47-4.947-3.244-1.894 1.733 3.332 4.412 8.48.685-1.55-24 6.361L.41 39.29l3.812 1.078 24.353 6.891-.637-1.6-4.941 8.305-1.84 3.09 3.243-1.557 8.823-4.24-1.521-.71 6.177 24.205 1.002 3.928 1.094-3.904 6.882-24.558-1.606.636 8.47 5.123 3.466 2.096-1.953-3.547-4.765-8.658-.673 1.573 24.707-6.538 3.86-1.021-3.846-1.073-24.707-6.89.655 1.576 4.765-8.48 1.815-3.232-3.272 1.742-8.294 4.417 1.556.67L40.33 4.23 39.272.384l-1.037 3.851zm2.096.564l-2.094.006 6.706 24.382.36 1.307 1.196-.637 8.295-4.417-1.457-1.49-4.764 8.481-.678 1.206 1.332.371 24.707 6.89.014-2.094-24.707 6.537-1.343.356.67 1.217 4.765 8.657 1.512-1.452-8.47-5.123-1.222-.74-.385 1.375-6.883 24.559 2.096.024-6.176-24.205-.328-1.283-1.194.573-8.823 4.24 1.402 1.534 4.941-8.304.723-1.215-1.36-.384-24.353-6.89-.018 2.092 24-6.36 1.311-.347-.625-1.203-4.412-8.48-1.51 1.437 8.47 4.947 1.227.716.369-1.37L40.33 4.798z"/><path d="M43.332 67.657c12.26-1.762 21.976-11.41 23.857-23.645l-2.23.485c-1.98 10.634-10.387 19.004-21.032 20.916l-.595 2.244zm-8.207-.016C22.79 65.82 13.051 56.01 11.321 43.63l2.204.4c1.81 10.813 10.247 19.375 20.987 21.36l.613 2.251zm32.084-32.17c-1.833-12.302-11.582-22.014-23.893-23.777l.5 2.226c10.743 1.882 19.229 10.338 21.168 21.073l2.225.478zm-55.868.113C13.12 23.29 22.805 13.558 35.067 11.72l-.5 2.232C23.9 15.901 15.494 24.335 13.577 35.024l-2.236.56z"/><ellipse cx="39.106" cy="39.853" rx="3.706" ry="3.71"/></g><path fill="#1055FF" d="M38.632 48.398V59.47h.868V48.4zM38.632 20.184v11.07h.868v-11.07z"/></g></svg>