<svg width="32" height="32" viewBox="0 0 32 32" xmlns="http://www.w3.org/2000/svg"><title>blue/icon-ui-health-template-blue</title><path d="M3.988 0A3.99 3.99 0 0 0 0 3.988v24.024A3.99 3.99 0 0 0 3.988 32h24.024A3.99 3.99 0 0 0 32 28.012V3.988A3.99 3.99 0 0 0 28.012 0H3.988zM20.01 10C17.976 10 16 12.456 16 12.456S14.024 10 11.971 10C9.938 10 8 11.017 8 14.029c0 2.13 1.995 3.99 1.995 3.99L16 24.005l6.005-5.986S24 16.16 24 14.03C24 11.017 22.043 10 20.01 10z" fill="#1055FF" fill-rule="evenodd"/></svg>