<svg width="42" height="64" viewBox="0 0 42 64" xmlns="http://www.w3.org/2000/svg"><title>blue/icon-large-resource-rocket-blue</title><g fill="#1055FF" fill-rule="evenodd"><path d="M20.384.224a25.048 25.048 0 0 0-.595.594 40.149 40.149 0 0 0-1.527 1.675 51.23 51.23 0 0 0-4.613 6.257c-4.326 6.899-6.87 14.461-6.721 22.44.138 7.39.652 12.18 1.555 15.277.722 2.473 1.491 3.628 3.149 5.254.488.479.586.577.797.802l1.204-1.128a23.834 23.834 0 0 0-.846-.852c-1.47-1.442-2.087-2.366-2.72-4.537-.854-2.928-1.354-7.591-1.49-14.846-.142-7.623 2.301-14.886 6.47-21.534a49.59 49.59 0 0 1 4.463-6.055 38.508 38.508 0 0 1 1.464-1.606 23.411 23.411 0 0 1 .539-.539L20.383.224z"/><path d="M20.538 1.415l.129.13c.112.114.242.25.389.408.424.455.897.99 1.408 1.605a49.474 49.474 0 0 1 4.294 6.049c4.016 6.652 6.369 13.92 6.226 21.553-.136 7.255-.636 11.918-1.49 14.846-.633 2.17-1.249 3.095-2.72 4.537-.507.498-.612.603-.846.852l1.204 1.128c.21-.225.309-.323.797-.802 1.658-1.626 2.428-2.78 3.149-5.254.903-3.096 1.417-7.888 1.555-15.276.15-7.977-2.298-15.538-6.463-22.437a51.115 51.115 0 0 0-4.438-6.251 39.613 39.613 0 0 0-1.47-1.675 24.607 24.607 0 0 0-.573-.594l-1.151 1.181zM23.114 37.467c-.019-.022-.014-.014.009.032.058.12.123.293.186.526.332 1.223.442 3.235.17 6.209-.373 4.093-1.432 9.506-3.326 16.414l1.58-.036a37.787 37.787 0 0 1-.188-.595 155.533 155.533 0 0 1-2.015-7.065 113.7 113.7 0 0 1-1.04-4.336c-1.32-6.066-1.531-10.278-.526-10.996 1.653-1.181 3.186-1.181 4.563-.485a4.211 4.211 0 0 1 .657.411l.025.021-.095-.1zm1.282-1.037l-.044-.054-.052-.046a5.044 5.044 0 0 0-1.03-.667c-1.887-.954-4.069-.954-6.265.614-1.865 1.332-1.645 5.712-.127 12.69.306 1.406.661 2.88 1.055 4.4a157.163 157.163 0 0 0 2.23 7.753l.85 2.629.73-2.665c3.454-12.595 4.124-19.936 3.158-23.492-.16-.588-.342-.96-.505-1.162zM6.917 31.19c-.058.08-.16.229-.3.441-.232.35-.49.755-.766 1.213A44.798 44.798 0 0 0 3.54 37.2C1.431 41.76.164 46.431.164 50.97c0 4.66.253 6.89.854 7.602.34.405.866.512 1.315.263.234-.13.395-.316.538-.552.096-.159.164-.308.208-.422l.014-.036.01-.037.035-.12a32.779 32.779 0 0 1 .547-1.659 31.651 31.651 0 0 1 1.71-3.938c1.28-2.445 2.71-4.205 4.22-4.988l-.759-1.465c-1.877.974-3.5 2.97-4.923 5.687a33.267 33.267 0 0 0-1.8 4.146 34.42 34.42 0 0 0-.578 1.751l-.041.144.024-.073a1.108 1.108 0 0 1-.103.193.351.351 0 0 1 .098-.074c.252-.14.587-.071.746.118-.224-.266-.466-2.397-.466-6.54 0-4.267 1.207-8.718 3.223-13.077a43.158 43.158 0 0 1 2.225-4.196 33.138 33.138 0 0 1 .93-1.453l.067-.095-1.342-.958z"/><path d="M33.308 32.15l.066.094a33.138 33.138 0 0 1 .93 1.453 43.158 43.158 0 0 1 2.226 4.196c2.016 4.359 3.223 8.81 3.223 13.076 0 4.144-.242 6.275-.466 6.541.16-.19.494-.258.746-.118.053.03.081.054.098.074a1.108 1.108 0 0 1-.103-.192l.024.072a23.745 23.745 0 0 0-.16-.53 34.42 34.42 0 0 0-.459-1.365 33.267 33.267 0 0 0-1.8-4.146c-1.423-2.717-3.046-4.713-4.923-5.687l-.76 1.465c1.51.783 2.941 2.543 4.221 4.988a31.651 31.651 0 0 1 1.71 3.938 32.779 32.779 0 0 1 .582 1.779l.01.037.014.036c.044.114.112.263.208.422.143.236.304.422.538.552.45.249.975.142 1.315-.263.601-.713.854-2.942.854-7.603 0-4.538-1.267-9.21-3.375-13.769a44.798 44.798 0 0 0-2.31-4.356 34.778 34.778 0 0 0-.767-1.213c-.14-.212-.242-.36-.3-.44l-1.342.958zM20.784 25.897a6.433 6.433 0 1 0 0-12.866 6.433 6.433 0 0 0 0 12.866zm0-1.65a4.784 4.784 0 1 1 0-9.567 4.784 4.784 0 0 1 0 9.567z"/><g><path d="M17.156 57.102c.006.067.023.19.056.367.053.29.133.635.243 1.032.315 1.127.816 2.459 1.546 3.991l.596-.283c-.714-1.499-1.202-2.796-1.506-3.885-.106-.379-.18-.703-.23-.974a3.95 3.95 0 0 1-.048-.308l-.657.06zM24.249 57.042a3.95 3.95 0 0 1-.048.308c-.05.27-.125.595-.23.974-.304 1.09-.792 2.386-1.506 3.885l.596.283c.73-1.532 1.231-2.864 1.545-3.991.111-.397.19-.741.244-1.032.033-.178.05-.3.056-.367l-.657-.06zM20.42 15.507a3.16 3.16 0 0 0-.58.129 4.2 4.2 0 0 0-1.23.612c-1.116.81-1.785 2.131-1.785 4.04h.66c0-1.698.568-2.82 1.513-3.505a3.546 3.546 0 0 1 1.375-.602l.113-.018-.065-.656zM2.432 57.355a5.046 5.046 0 0 1-.03-.297c-.096-1.255 0-2.895.438-4.795.648-2.814 1.938-5.638 4.02-8.35l-.524-.403c-2.14 2.79-3.47 5.702-4.139 8.605-.454 1.969-.553 3.676-.452 4.994.012.163.025.278.034.34l.653-.094zM39.85 57.45c.01-.063.022-.178.035-.341.1-1.318 0-3.025-.453-4.994-.669-2.903-1.998-5.814-4.139-8.605l-.523.402c2.081 2.713 3.371 5.537 4.02 8.35.437 1.901.533 3.541.437 4.796a5.046 5.046 0 0 1-.03.297l.653.094z"/></g></g></svg>