<svg width="51" height="31" viewBox="0 0 51 31" xmlns="http://www.w3.org/2000/svg"><title>blue/icon-ui-eyeball-blue</title><path d="M49.62 13.686C45.647 9.608 36.21 0 25.16 0 14.3 0 4.733 9.632.713 13.702c-.946.958-.952 2.612-.01 3.577 3.98 4.079 13.433 13.689 24.457 13.689 10.89 0 20.438-9.629 24.45-13.701.945-.958.95-2.615.01-3.58zM25.123 27.52c-5.645 0-10.22-5.34-10.22-11.929s4.575-11.929 10.22-11.929c5.646 0 10.222 5.34 10.222 11.93 0 6.588-4.576 11.928-10.222 11.928zm2.706-12.49c-1.867 0-3.382-1.768-3.382-3.948 0-1.24.49-2.343 1.256-3.067a5.836 5.836 0 0 0-.805-.062c-3.617 0-6.551 3.423-6.551 7.646s2.934 7.647 6.551 7.647c3.62 0 6.553-3.424 6.553-7.647a8.727 8.727 0 0 0-.511-2.965c-.517 1.408-1.715 2.395-3.111 2.395z" fill="#1055FF" fill-rule="evenodd"/></svg>