<svg width="107" height="63" viewBox="0 0 107 63" xmlns="http://www.w3.org/2000/svg"><title>blue/icon-large-map-blue</title><path d="M0 0v48.809l24.929 14.114L52.532 48.81l27.096 14.114 26.43-14.114V0l-26.43 11.876L52.532 0 24.929 11.876 0 0zm78.629 13.459L53.394 2.389v24.287l-1.828-1.46V2.426l-25.431 10.95v17.165l-1.998.629V13.479L1.83 2.926v44.8L24.137 60.44V40.157l1.998-.645v20.631l25.43-12.839V33.631l1.83 1.219v12.41l25.234 13.13V39.177l1.828-1.52V60.46l23.772-12.916V2.926L80.457 13.528v15.306l-1.828 1.394v-16.77zm15.147 17.26c-.323-.378-.653-.294-.742.217l-.322 1.844c-.087.497-.54 1.003-1.036 1.136l-3.563.955c-.485.13-.746-.144-.578-.623l1.624-4.65c.166-.473-.011-1.124-.392-1.45l-3.595-3.07c-.382-.327-.305-.696.197-.83l3.606-.966c.49-.132 1.146.07 1.478.47l1.065 1.277c.325.39.662.31.757-.203l.303-1.644c.093-.503.55-1.013 1.047-1.146l3.563-.955c.485-.13.75.137.577.635l-1.56 4.518c-.166.48.002 1.127.406 1.47l3.672 3.116c.39.332.32.704-.181.839l-3.606.966c-.491.131-1.148-.065-1.474-.447l-1.246-1.459zM7.98 40.581a.34.34 0 0 1 .223-.467l16.738-5.257c.202-.063.495-.209.651-.324l14.413-10.552a.684.684 0 0 1 .635-.062l11.4 4.825c.192.081.474.27.601.395L66.7 42.907c.14.136.37.156.543.023l17.845-13.815c.16-.123.356-.055.43.129l.45 1.123a.515.515 0 0 1-.148.577L67.049 45.49a.425.425 0 0 1-.55-.037L51.919 30.98a2.42 2.42 0 0 0-.585-.402L40.79 25.925a.673.673 0 0 0-.627.087L26.179 36.525a2.51 2.51 0 0 1-.666.34L8.937 41.946a.43.43 0 0 1-.503-.241L7.98 40.58z" fill="#1055FF" fill-rule="evenodd"/></svg>