<svg width="56" height="64" viewBox="0 0 56 64" xmlns="http://www.w3.org/2000/svg"><title>blue/icon-large-sla-support-blue</title><path d="M51.657 41.26a13.373 13.373 0 0 0-2.373-1.874c-1.318-.722-2.151-2.02-2.95-3.285-1.008-1.599-2.055-3.251-4.052-3.261l-.01-.002h-.008l-.01.002c-1.997.01-3.042 1.662-4.052 3.261-.732 1.161-1.496 2.345-2.636 3.092a13.334 13.334 0 0 0-2.694 2.067 13.194 13.194 0 0 0-3.89 9.392c0 3.549 1.38 6.884 3.89 9.393a13.196 13.196 0 0 0 9.392 3.89 13.2 13.2 0 0 0 9.393-3.89 13.194 13.194 0 0 0 3.89-9.393c0-3.548-1.382-6.884-3.89-9.392zm-9.393 14.997a5.57 5.57 0 0 1-3.964-1.64 5.614 5.614 0 0 1 0-7.93 5.573 5.573 0 0 1 3.965-1.641 5.57 5.57 0 0 1 3.965 1.642 5.614 5.614 0 0 1 0 7.928 5.574 5.574 0 0 1-3.966 1.641zm.001-17.623c2.184 0 4.273.592 6.104 1.676l-3.034 4.198a6.833 6.833 0 0 0-6.13-.004l-3.035-4.199a11.925 11.925 0 0 1 6.095-1.671zm6.146 8.96l4.2-3.037a11.933 11.933 0 0 1 1.67 6.095c0 2.185-.59 4.273-1.675 6.104l-4.2-3.035a6.895 6.895 0 0 0 .005-6.127zm3.5-4.09l-4.168 3.012c-.19-.25-.39-.494-.619-.723a7.022 7.022 0 0 0-.714-.614l3.013-4.166c.467.349.92.72 1.34 1.14.421.423.797.88 1.148 1.35zm-12.638-6.727c1.045-1.656 1.75-2.671 2.995-2.673 1.248.002 1.951 1.018 2.996 2.673.234.37.484.753.748 1.131a13.315 13.315 0 0 0-7.483-.003c.261-.379.51-.759.744-1.128zm-5.507 5.378c.423-.423.88-.797 1.35-1.148l3.012 4.167c-.251.19-.495.392-.722.619a6.865 6.865 0 0 0-.613.714l-4.167-3.013c.348-.467.72-.92 1.14-1.34zm-1.843 2.392l4.199 3.036a6.897 6.897 0 0 0-.004 6.128l-4.201 3.036a11.933 11.933 0 0 1-1.67-6.095c0-2.185.591-4.274 1.676-6.105zm.696 13.254l4.167-3.014c.19.251.392.496.62.723a6.9 6.9 0 0 0 .713.613l-3.012 4.167c-.469-.348-.921-.72-1.34-1.14a12.04 12.04 0 0 1-1.148-1.35zm3.54 3.193l3.035-4.198a6.85 6.85 0 0 0 6.131.005L48.36 61a11.938 11.938 0 0 1-6.096 1.67c-2.184 0-4.273-.59-6.104-1.676zm14.603-1.844c-.423.423-.879.797-1.35 1.147l-3.011-4.167a6.96 6.96 0 0 0 .722-.619c.226-.226.425-.467.613-.714l4.167 3.012c-.347.468-.721.921-1.141 1.341zM0 0v55.547h20.528V54.34H1.203V1.208h47.099v27.754l1.207.012V.005L0 0zm10.868 44.68H24.15v-1.208H10.868v1.207zm0-10.863h20.528v-1.208H10.868v1.208zm15.698-13.289v1.208h15.698v-1.208H26.566zm0-7.245h15.698v-1.208H26.566v1.208zM13.23 8.346c-2.677 0-4.854 2.204-4.854 4.9 0 1.137.39 2.184 1.04 3.018L7.154 22.16l2.975-1.215 1.452 2.807 1.646-4.532 1.724 4.522 1.356-2.83 3.014 1.326-2.357-5.867c.7-.85 1.12-1.94 1.12-3.125 0-2.696-2.176-4.9-4.854-4.9zm0 1.16c2.044 0 3.695 1.665 3.695 3.74s-1.65 3.739-3.695 3.739c-2.044 0-3.694-1.664-3.694-3.74 0-2.074 1.65-3.739 3.694-3.739zm-2.913 7.647a4.8 4.8 0 0 0 2.093.917l-1.016 2.796-.72-1.395-1.477.603 1.12-2.92zm5.739.067l1.128 2.811-1.438-.633-.674 1.406-1.04-2.732a4.796 4.796 0 0 0 2.024-.852z" fill="#1055FF" fill-rule="evenodd"/></svg>