<?xml version="1.0" encoding="UTF-8"?>
<svg width="331px" height="203px" viewBox="0 0 331 203" version="1.1" xmlns="http://www.w3.org/2000/svg" xmlns:xlink="http://www.w3.org/1999/xlink">
    <!-- Generator: Sketch 41.2 (35397) - http://www.bohemiancoding.com/sketch -->
    <title>_wand</title>
    <desc>Created with Sketch.</desc>
    <defs>
        <linearGradient x1="50%" y1="0%" x2="50%" y2="100%" id="linearGradient-1">
            <stop stop-color="#F1FEFF" offset="0%"></stop>
            <stop stop-color="#DBDDFF" offset="100%"></stop>
        </linearGradient>
    </defs>
    <g id="Page-1" stroke="none" stroke-width="1" fill="none" fill-rule="evenodd">
        <g id="Managed-Integration-@2x" transform="translate(-363.000000, -5272.000000)" fill="url(#linearGradient-1)">
            <g id="_hero-5" transform="translate(0.000000, 5142.000000)">
                <g id="_block" transform="translate(120.000000, 130.000000)">
                    <g id="Fill-1">
                        <path d="M448.504349,142.85246 C459.235281,153.63335 470.016171,164.462199 480.623208,175.115198 C412.20702,243.533384 343.465107,312.277296 275.194795,380.549606 C264.449875,369.804685 253.557079,358.911889 243,348.352812 C311.008533,280.344279 379.844367,211.510444 448.504349,142.85246 Z M722.208669,41.5804345 C714.099521,55.6885132 705.99437,69.8005885 697.877229,83.9026722 C694.392174,89.9575559 691.023021,96.086377 687.320149,102.003377 C685.581619,104.779032 685.737487,106.883254 687.386094,109.664903 C698.324851,128.125304 709.083759,146.693614 719.892626,165.231949 C720.725922,166.658743 721.49727,168.119509 723,170.833216 C719.974556,169.20659 718.040191,168.231414 716.163777,167.150328 C698.003122,156.687169 679.808497,146.277965 661.735768,135.664933 C658.510494,133.768536 656.154484,133.544725 652.745365,135.579006 C633.03602,147.333074 613.136834,158.773406 592.630163,169.828065 C595.535707,164.782329 598.423267,159.728599 601.346797,154.694853 C609.959519,139.879372 618.474324,125.00594 627.290874,110.314354 C629.259211,107.037124 629.381108,104.713087 627.396785,101.339938 C615.682683,81.4387543 604.256338,61.3697126 593.273619,40.6252417 C599.943982,44.4540064 606.632331,48.2487998 613.278714,52.1175307 C626.793295,59.9848828 640.33785,67.8062737 653.740524,75.8574704 C656.502191,77.5160689 658.490511,77.0564573 660.984403,75.6056832 C679.246971,64.984658 697.565492,54.4555551 715.870025,43.906469 C717.718463,42.841369 719.596876,41.8302235 721.459302,40.7950981 C721.709091,41.0568769 721.95888,41.3186557 722.208669,41.5804345 Z M543.599593,111.71617 C528.632241,126.643556 513.467055,141.768775 498.593623,156.602241 C488.066519,146.07114 477.277635,135.276262 466.866433,124.863061 C481.683912,110.083549 496.951011,94.8524197 511.850421,79.9909776 C521.989854,90.1244149 532.848678,100.975246 543.599593,111.71617 Z M392.24309,-14 C400.202364,-9.51379085 406.904701,-5.6930194 413.649002,-1.94418716 C419.016466,1.0392918 424.425895,6.22091333 429.827331,6.23090489 C435.216777,6.24289475 440.642192,1.08325465 446.00566,-1.89622769 C452.753958,-5.64505992 459.454296,-9.48181786 466.890013,-12.5552208 C462.162008,-4.43208489 458.01751,4.11269477 452.546134,11.6982849 C446.585171,19.9613027 445.596006,26.8814552 452.332314,35.3982585 C457.943573,42.4902657 461.856266,50.9271366 467.20175,59.9135431 C464.929669,59.0422793 463.756661,58.7465292 462.737522,58.1750121 C452.873857,52.6536776 442.98821,47.1723094 433.228457,41.4731252 C430.776529,40.0403359 428.944077,40.0243494 426.488153,41.4571387 C416.87028,47.0683972 407.122516,52.4598414 397.412721,57.9152316 C396.303658,58.5367065 395.132648,59.0462759 392.700703,60.2392678 C394.083534,57.5635288 394.794933,56.0028476 395.664199,54.536087 C401.003687,45.5257008 406.261244,36.4633585 411.810555,27.5848608 C413.545089,24.8092062 413.647003,22.7949083 411.884493,19.9433179 C406.203293,10.755082 400.85781,1.35702332 395.410413,-7.97708936 C394.523163,-9.49780436 393.763805,-11.0944552 392.24309,-14 Z M558.042189,243.417083 C567.696032,248.820517 577.429807,254.088066 586.959754,259.703321 C589.963216,261.471826 592.177345,261.351928 595.116861,259.631381 C604.548891,254.110047 614.160769,248.900449 624.410108,244.088515 C622.269917,247.897297 620.145712,251.71607 617.985537,255.512862 C616.66865,257.824908 615.257842,260.084998 613.956941,262.405038 C611.205267,267.306896 606.343375,272.24872 606.37335,277.148579 C606.403324,282.078414 611.291194,286.992262 614.098821,291.884128 C617.475968,297.773152 620.90507,303.634199 623.712698,310.282581 C619.929894,308.162373 616.123111,306.086127 612.370282,303.911964 C606.329387,300.410923 600.246527,296.971829 594.341516,293.248975 C591.869605,291.69229 590.05314,291.808192 587.583227,293.308924 C578.914552,298.574475 570.084014,303.572251 561.303434,308.651959 C560.232339,309.269437 559.091303,309.76302 556.911145,310.846105 C563.095919,300.209093 568.553307,290.573236 574.294456,281.107234 C576.046975,278.215678 576.262793,276.061498 574.400367,273.036055 C568.561301,263.558063 563.107909,253.842273 557.504644,244.218405 C557.684492,243.95263 557.862341,243.684856 558.042189,243.417083 Z M646.73924,248.558138 C650.046446,242.605169 653.079882,236.476347 656.756776,230.759178 C659.0948,227.12425 658.821031,224.368579 656.65686,220.829569 C653.14183,215.080427 650.192322,208.983579 647.826322,202.091403 C653.441577,205.366635 659.274648,208.328133 664.602146,212.017016 C668.646729,214.818648 671.764094,214.646793 675.746729,211.949073 C681.304033,208.184254 687.304962,205.074882 693.717544,202.313215 C690.020668,209.125459 686.14794,215.851775 682.756805,222.813892 C681.927506,224.514455 681.981461,227.336071 682.830743,229.042629 C686.139947,235.693009 689.928745,242.101594 692.896238,249.307505 C686.539609,245.606632 680.073073,242.073618 673.874311,238.124954 C671.038707,236.318481 668.956467,236.480344 666.208789,238.218875 C660.065979,242.109587 653.701357,245.6446 647.424661,249.32549 C647.196854,249.069706 646.967048,248.813922 646.73924,248.558138 Z" id="_wand" transform="translate(483.000000, 183.274803) scale(-1, 1) translate(-483.000000, -183.274803) "></path>
                    </g>
                </g>
            </g>
        </g>
    </g>
</svg>