<?xml version="1.0" encoding="UTF-8"?>
<svg width="310px" height="203px" viewBox="0 0 310 203" version="1.1" xmlns="http://www.w3.org/2000/svg" xmlns:xlink="http://www.w3.org/1999/xlink">
    <!-- Generator: Sketch 41.2 (35397) - http://www.bohemiancoding.com/sketch -->
    <title>_icon-connection</title>
    <desc>Created with Sketch.</desc>
    <defs>
        <linearGradient x1="50%" y1="0%" x2="50%" y2="100%" id="linearGradient-1">
            <stop stop-color="#F9FFEE" offset="0%"></stop>
            <stop stop-color="#EFFF9A" offset="100%"></stop>
        </linearGradient>
    </defs>
    <g id="Page-1" stroke="none" stroke-width="1" fill="none" fill-rule="evenodd">
        <g id="Managed-Integration-@2x" transform="translate(-1010.000000, -5272.000000)" fill="url(#linearGradient-1)">
            <g id="_hero-5" transform="translate(0.000000, 5142.000000)">
                <g id="_block" transform="translate(745.000000, 130.000000)">
                    <g id="Fill-1">
                        <path d="M550.30698,249.725226 L489.446939,293.942635 C491.020905,298.54779 491.875,303.486653 491.875,308.625 C491.875,333.684921 471.559921,354 446.5,354 C421.440079,354 401.125,333.684921 401.125,308.625 C401.125,304.289339 401.733093,300.095706 402.868643,296.124735 L341.110765,251.25501 C333.027351,258.701884 322.23231,263.25 310.375,263.25 C285.315079,263.25 265,242.934921 265,217.875 C265,196.568996 279.684635,178.692773 299.485,173.815233 L299.485,80.4347668 C279.684635,75.5572273 265,57.6810037 265,36.375 C265,11.3150795 285.315079,-9 310.375,-9 C335.434921,-9 355.75,11.3150795 355.75,36.375 C355.75,43.0302933 354.317174,49.350932 351.743168,55.0452691 L411.389136,98.3806011 C419.710537,88.2281208 432.348745,81.75 446.5,81.75 C459.869331,81.75 471.888202,87.5320054 480.192408,96.7318108 L540.390463,52.9953643 C538.363414,47.8484815 537.25,42.2417667 537.25,36.375 C537.25,11.3150795 557.565079,-9 582.625,-9 C607.684921,-9 628,11.3150795 628,36.375 C628,57.6810037 613.315365,75.5572273 593.515,80.4347668 L593.515,173.815233 C613.315365,178.692773 628,196.568996 628,217.875 C628,242.934921 607.684921,263.25 582.625,263.25 C569.976067,263.25 558.535978,258.074326 550.30698,249.725226 Z M540.390463,234.495364 L480.192408,278.231811 C471.888202,269.032005 459.869331,263.25 446.5,263.25 C432.348745,263.25 419.710537,269.728121 411.389136,279.880601 L351.743168,236.545269 C354.317174,230.850932 355.75,224.530293 355.75,217.875 C355.75,195.286193 339.243851,176.552603 317.635,173.077676 L317.635,81.1723236 C326.614002,79.7284074 334.711969,75.6499244 341.110765,69.7550099 L402.868643,114.624735 C401.733093,118.595706 401.125,122.789339 401.125,127.125 C401.125,152.184921 421.440079,172.5 446.5,172.5 C471.559921,172.5 491.875,152.184921 491.875,127.125 C491.875,121.986653 491.020905,117.04779 489.446939,112.442635 L550.30698,68.2252262 C556.92835,74.9432343 565.628718,79.606629 575.365,81.1723236 L575.365,173.077676 C553.756149,176.552603 537.25,195.286193 537.25,217.875 C537.25,223.741767 538.363414,229.348482 540.390463,234.495364 Z" id="_icon-connection"></path>
                    </g>
                </g>
            </g>
        </g>
    </g>
</svg>