<?xml version="1.0" encoding="UTF-8"?>
<svg width="225px" height="203px" viewBox="0 0 225 203" version="1.1" xmlns="http://www.w3.org/2000/svg" xmlns:xlink="http://www.w3.org/1999/xlink">
    <!-- Generator: Sketch 41.2 (35397) - http://www.bohemiancoding.com/sketch -->
    <title>_icon-project-management</title>
    <desc>Created with Sketch.</desc>
    <defs>
        <linearGradient x1="50%" y1="0%" x2="50%" y2="100%" id="linearGradient-1">
            <stop stop-color="#E5EEFF" offset="0%"></stop>
            <stop stop-color="#A2F0FF" offset="100%"></stop>
        </linearGradient>
    </defs>
    <g id="Page-1" stroke="none" stroke-width="1" fill="none" fill-rule="evenodd">
        <g id="Managed-Integration-@2x" transform="translate(-1095.000000, -5525.000000)" fill="url(#linearGradient-1)">
            <g id="_hero-5" transform="translate(0.000000, 5142.000000)">
                <g id="_block" transform="translate(745.000000, 383.000000)">
                    <g id="Fill-1">
                        <path d="M503.732161,229.166667 L600.25,229.166667 L600.25,38.1944444 L617.501792,38.1944444 C621.646788,38.1944444 625,34.8345127 625,30.6898268 L625,30.4212844 C625,26.2694398 621.642938,22.9166667 617.501792,22.9166667 L495.75,22.9166667 L495.75,6.87251334 C495.75,3.07713537 492.671958,0 488.875,0 C485.085768,0 482,3.07692903 482,6.87251334 L482,22.9166667 L357.498208,22.9166667 C353.353212,22.9166667 350,26.2765985 350,30.4212844 L350,30.6898268 C350,34.8416713 353.357062,38.1944444 357.498208,38.1944444 L377.5,38.1944444 L377.5,229.166667 L471.267839,229.166667 L445.302999,260.110358 C444.057856,261.594262 444.25001,263.806766 445.733006,265.051148 L450.895712,269.383173 C452.382888,270.631061 454.5906,270.433029 455.83611,268.948688 L480.625,239.406439 L480.625,271.491538 C480.625,273.428637 482.194368,275 484.130283,275 L490.869717,275 C492.811087,275 494.375,273.429208 494.375,271.491538 L494.375,239.406439 L519.16389,268.948688 C520.4094,270.433029 522.617112,270.631061 524.104288,269.383173 L529.266994,265.051148 C530.74999,263.806766 530.942144,261.594262 529.697001,260.110358 L503.732161,229.166667 Z M387.125,38.1944444 L592,38.1944444 L592,221.527778 L387.125,221.527778 L387.125,38.1944444 Z M402.25,55 L575.5,55 L575.5,79.4444444 L402.25,79.4444444 L402.25,55 Z M402.25,94.7222222 L548,94.7222222 L548,119.166667 L402.25,119.166667 L402.25,94.7222222 Z M402.25,134.444444 L534.25,134.444444 L534.25,158.888889 L402.25,158.888889 L402.25,134.444444 Z M402.25,174.166667 L506.75,174.166667 L506.75,198.611111 L402.25,198.611111 L402.25,174.166667 Z" id="_icon-project-management"></path>
                    </g>
                </g>
            </g>
        </g>
    </g>
</svg>