<?xml version="1.0" encoding="UTF-8"?>
<svg width="387px" height="354px" viewBox="0 0 387 354" version="1.1" xmlns="http://www.w3.org/2000/svg" xmlns:xlink="http://www.w3.org/1999/xlink">
    <!-- Generator: Sketch 41.2 (35397) - http://www.bohemiancoding.com/sketch -->
    <title>Fill 1</title>
    <desc>Created with Sketch.</desc>
    <defs>
        <linearGradient x1="18.606326%" y1="12.3310679%" x2="82.6222733%" y2="80.6484338%" id="linearGradient-1">
            <stop stop-color="#EAF6FD" offset="0%"></stop>
            <stop stop-color="#FFEEF9" offset="100%"></stop>
        </linearGradient>
    </defs>
    <g id="Page-1" stroke="none" stroke-width="1" fill="none" fill-rule="evenodd">
        <g id="Homepage-@2x" transform="translate(-308.000000, -4298.000000)" fill="url(#linearGradient-1)">
            <g id="_hero-5" transform="translate(0.000000, 3764.000000)">
                <g id="_block" transform="translate(120.000000, 534.000000)">
                    <g id="Fill-1">
                        <path d="M655.017465,160.799498 L447.191436,-47.0213499 C435.230263,-58.9928834 415.819906,-58.9928834 403.838012,-47.0213499 L360.686617,-3.85959435 L415.426207,50.8851767 C428.148876,46.5855779 442.74161,49.4709713 452.879339,59.6087 C463.079231,69.8137719 465.933543,84.525652 461.530339,97.2949424 L514.291078,150.055682 C527.060369,145.652478 541.782609,148.49643 551.982501,158.711862 C566.22816,172.95234 566.22816,196.040668 551.982501,210.291507 C537.726482,224.547526 514.643335,224.547526 500.382135,210.291507 C489.66422,199.568411 487.017117,183.820483 492.446008,170.621233 L443.233733,121.414138 L443.233733,250.899404 C446.704494,252.619244 449.983585,254.91409 452.879339,257.799483 C467.124998,272.045142 467.124998,295.128289 452.879339,309.394669 C438.63368,323.635147 415.534993,323.635147 401.299694,309.394669 C387.054036,295.128289 387.054036,272.045142 401.299694,257.799483 C404.817077,254.282101 408.899106,251.619457 413.245327,249.837455 L413.245327,119.150373 C408.899106,117.373551 404.827437,114.731629 401.299694,111.193525 C390.509255,100.408266 387.913955,84.567094 393.446451,71.3160413 L339.478716,17.3379457 L196.970327,159.835974 C185.003974,171.817868 185.003974,191.228225 196.970327,203.199759 L404.806716,411.020607 C416.77307,422.98696 436.178247,422.98696 448.165321,411.020607 L655.017465,204.163283 C666.994178,192.19175 666.994178,172.765852 655.017465,160.799498"></path>
                    </g>
                </g>
            </g>
        </g>
    </g>
</svg>