<?xml version="1.0" encoding="UTF-8"?>
<svg width="202px" height="202px" viewBox="0 0 202 202" version="1.1" xmlns="http://www.w3.org/2000/svg" xmlns:xlink="http://www.w3.org/1999/xlink">
    <!-- Generator: Sketch 41.2 (35397) - http://www.bohemiancoding.com/sketch -->
    <title>_datica-mark-deep</title>
    <desc>Created with Sketch.</desc>
    <defs></defs>
    <g id="Page-1" stroke="none" stroke-width="1" fill="none" fill-rule="evenodd">
        <g id="500px" transform="translate(-701.000000, -100.000000)" fill="#FFFFFF">
            <path d="M701.949827,181.201341 L714.9308,166.69732 L760.205901,220.690389 L701.949827,181.201341 Z M714.9308,252.980362 L714.9308,233.394641 L784.584801,243.134567 L714.9308,252.980362 Z M772.553655,297.445242 L759.467146,282.941222 L817.723219,243.452173 L772.553655,297.445242 Z M844.951601,291.940067 L825.53291,289.92856 L842.524265,221.431471 L844.951601,291.940067 Z M895.186911,239.217423 L879.356456,250.651249 L846.323574,188.400417 L895.186911,239.217423 Z M897.297638,166.273845 L893.18172,185.436091 L827.115956,161.298014 L897.297638,166.273845 Z M850.228419,110.692745 L859.937765,127.737616 L794.716292,154.098938 L850.228419,110.692745 Z M778.147082,101.058688 L796.721483,107.093207 L765.904864,170.508596 L778.147082,101.058688 Z M718.096891,142.135767 L735.932537,134.19561 L755.351228,202.057487 L718.096891,142.135767 Z M701,213.067838 L708.915227,195.176018 L768.64881,232.547691 L701,213.067838 Z M735.510391,277.224309 L729.494818,258.591406 L798.726674,246.31063 L735.510391,277.224309 Z M804.003492,301.679993 L787.012137,291.940067 L830.387583,236.253097 L804.003492,301.679993 Z M871.230156,273.942377 L852.128074,278.071259 L847.167865,207.668532 L871.230156,273.942377 Z M902.679993,208.197875 L891.176529,224.07819 L840.519074,175.060953 L902.679993,208.197875 Z M882.205938,138.324492 L884.211129,157.804344 L813.92391,155.369363 L882.205938,138.324492 Z M820.361628,100 L834.82011,113.127727 L780.996564,158.545426 L820.361628,100 Z M748.807973,113.127727 L768.332201,113.127727 L758.517319,183.00111 L748.807973,113.127727 Z" id="_datica-mark-deep"></path>
        </g>
    </g>
</svg>