<svg width="386" height="77" viewBox="0 0 386 77" xmlns="http://www.w3.org/2000/svg"><title>white/logo-Redpoint-white</title><path d="M113.426 41.634h-13.248v19.932H96.16V15.082h17.335c4.651 0 8.374 1.185 11.17 3.556 2.795 2.372 4.192 5.6 4.192 9.685 0 3.38-.963 6.197-2.889 8.451-1.926 2.254-4.58 3.71-7.963 4.367l13.39 20.425h-4.722l-13.248-19.932zM100.178 37.9h13.248c3.664 0 6.448-.822 8.35-2.465 1.903-1.643 2.854-4.014 2.854-7.113 0-3.1-.951-5.459-2.854-7.079-1.902-1.62-4.686-2.43-8.35-2.43h-13.248v19.087zm68.707 7.677H141.26c.235 4.132 1.468 7.36 3.7 9.684 2.231 2.324 5.226 3.486 8.984 3.486 2.725 0 5.062-.54 7.012-1.62 1.95-1.08 3.347-2.605 4.193-4.577l3.312 1.76c-2.772 5.306-7.61 7.959-14.517 7.959-5.214 0-9.301-1.62-12.261-4.86-2.96-3.24-4.44-7.724-4.44-13.452s1.433-10.212 4.299-13.452c2.866-3.24 6.882-4.86 12.05-4.86 3.195 0 5.955.74 8.28 2.219 2.326 1.479 4.1 3.521 5.32 6.127 1.222 2.606 1.833 5.576 1.833 8.91 0 .845-.047 1.737-.141 2.676zM144.89 32.513c-2.137 2.23-3.347 5.388-3.629 9.473h23.96c-.282-4.038-1.433-7.184-3.453-9.438-2.02-2.253-4.745-3.38-8.175-3.38-3.664 0-6.565 1.115-8.703 3.345zm64.937-22.361v51.414h-3.594l-.21-7.396c-1.034 2.489-2.69 4.461-4.969 5.917-2.278 1.455-4.921 2.183-7.928 2.183-4.98 0-8.902-1.62-11.768-4.86-2.866-3.24-4.299-7.724-4.299-13.452s1.433-10.212 4.299-13.452c2.866-3.24 6.788-4.86 11.768-4.86 2.96 0 5.544.681 7.752 2.043 2.208 1.361 3.852 3.24 4.933 5.634V10.152h4.016zm-7.575 45.004c2.185-2.394 3.37-5.68 3.559-9.86V42.62c-.188-4.179-1.374-7.466-3.559-9.86-2.185-2.395-5.062-3.592-8.632-3.592-3.947 0-7.024 1.314-9.232 3.944-2.208 2.63-3.312 6.245-3.312 10.846 0 4.602 1.104 8.217 3.312 10.846 2.208 2.63 5.285 3.944 9.232 3.944 3.57 0 6.447-1.197 8.632-3.592zm48.73-24.65c2.865 3.24 4.298 7.724 4.298 13.452s-1.433 10.212-4.299 13.452c-2.865 3.24-6.788 4.86-11.768 4.86-2.96 0-5.544-.68-7.752-2.043-2.208-1.361-3.852-3.24-4.932-5.634v21.763h-4.017V26.35h3.594l.211 7.465c1.034-2.535 2.678-4.53 4.933-5.986 2.255-1.456 4.91-2.184 7.963-2.184 4.98 0 8.903 1.62 11.768 4.86zm-3.03 24.298c2.207-2.63 3.311-6.244 3.311-10.846 0-4.601-1.104-8.217-3.312-10.846-2.208-2.63-5.285-3.944-9.231-3.944-3.57 0-6.472 1.232-8.703 3.697-2.232 2.465-3.394 5.834-3.488 10.107v1.972c.094 4.273 1.245 7.642 3.453 10.107 2.208 2.465 5.12 3.697 8.738 3.697 3.946 0 7.023-1.314 9.231-3.944zm44.782-24.298c2.983 3.24 4.475 7.724 4.475 13.452s-1.492 10.212-4.475 13.452c-2.983 3.24-7.105 4.86-12.367 4.86-5.262 0-9.384-1.62-12.367-4.86-2.984-3.24-4.475-7.724-4.475-13.452s1.491-10.212 4.475-13.452c2.983-3.24 7.105-4.86 12.367-4.86 5.262 0 9.384 1.62 12.367 4.86zm-21.775 2.57c-2.278 2.654-3.417 6.28-3.417 10.882 0 4.602 1.139 8.229 3.417 10.882 2.279 2.652 5.415 3.979 9.408 3.979 3.993 0 7.129-1.327 9.408-3.98 2.278-2.652 3.417-6.28 3.417-10.88 0-4.602-1.139-8.23-3.417-10.882-2.279-2.653-5.415-3.98-9.408-3.98-3.993 0-7.13 1.327-9.408 3.98zm36.327-14.438c-.61-.586-.916-1.373-.916-2.359s.305-1.772.916-2.36c.61-.586 1.41-.88 2.396-.88.94 0 1.715.294 2.326.88.61.588.916 1.374.916 2.36 0 .986-.306 1.773-.916 2.36-.611.586-1.386.88-2.326.88-.987 0-1.785-.294-2.396-.88zm4.37 42.928h-4.018V26.35h4.017v35.215zm39.11-32.504c2.49 2.277 3.734 5.529 3.734 9.755v22.749h-4.016V40.084c0-3.662-.893-6.397-2.678-8.205-1.785-1.807-4.205-2.711-7.259-2.711-2.16 0-4.169.493-6.025 1.479-1.855.986-3.347 2.441-4.474 4.366-1.128 1.926-1.692 4.226-1.692 6.903v19.65h-4.016V26.35h3.594l.21 6.69c1.128-2.394 2.831-4.225 5.11-5.493 2.278-1.268 4.85-1.902 7.716-1.902 4.04 0 7.306 1.139 9.795 3.416zM65.003 61.588a35.088 35.088 0 0 0 7.641-15.514L50.65 24.091 29.362 39.498l-14.314-6.603-10.875 15.15a35.14 35.14 0 0 0 7.777 14.243l3.098-4.816 12.479-1.467 12.846-11.372 9.91 8.804 8.808-3.668 5.913 11.819zM386 59.312c-2.114 1.972-4.862 2.958-8.245 2.958-2.866 0-5.132-.787-6.8-2.36-1.668-1.572-2.502-3.955-2.502-7.148v-22.96h-7.047V26.35h7.047v-8.734l4.017-1.056v9.79h13.248v3.45H372.47v22.327c0 2.113.517 3.71 1.55 4.79 1.034 1.08 2.514 1.62 4.44 1.62 2.396 0 4.416-.87 6.06-2.607l1.48 3.38zM38.17 76.914c21.082 0 38.171-17.08 38.171-38.15S59.251.614 38.171.614C17.09.614 0 17.694 0 38.764s17.09 38.15 38.17 38.15zM22.39 70.31c7.707 4.402 19.085 4.402 26.793 2.2 7.707-2.2 13.58-8.436 13.58-8.436l-4.772-9.538-8.808 2.935-8.81-8.437-11.377 10.271-11.745 1.1-2.569 4.036s0 1.467 7.708 5.869z" fill="#FFF" fill-rule="evenodd"/></svg>