<svg width="372" height="80" viewBox="0 0 372 80" xmlns="http://www.w3.org/2000/svg"><title>dark gray/logo-Stratum-dark-gray</title><path d="M137.052 26.425l-3.573 2.842c-1.264-3.353-3.05-5.782-5.36-7.288-2.308-1.506-5.383-2.259-9.223-2.259-4.132 0-7.389.899-9.77 2.696-2.383 1.798-3.574 4.081-3.574 6.85 0 1.75.45 3.22 1.35 4.41.899 1.19 2.418 2.198 4.557 3.024 2.138.826 5.104 1.58 8.895 2.26 6.271 1.02 10.719 2.562 13.344 4.627s3.937 4.919 3.937 8.563c0 2.623-.753 4.943-2.26 6.96-1.507 2.016-3.634 3.57-6.38 4.664-2.747 1.093-5.918 1.64-9.516 1.64-5.007 0-9.248-.997-12.724-2.989-3.475-1.992-5.894-4.76-7.255-8.308l3.573-2.842c1.07 3.304 3.026 5.843 5.87 7.616 2.844 1.773 6.38 2.66 10.61 2.66 4.131 0 7.461-.814 9.989-2.441 2.528-1.628 3.791-3.875 3.791-6.742 0-2.477-1.057-4.445-3.171-5.902-2.115-1.458-5.797-2.624-11.047-3.499-4.472-.777-8.009-1.724-10.61-2.842-2.6-1.117-4.472-2.514-5.614-4.19-1.142-1.676-1.714-3.753-1.714-6.23 0-2.527.717-4.835 2.151-6.924 1.434-2.09 3.488-3.765 6.162-5.029 2.673-1.263 5.784-1.894 9.333-1.894 8.945 0 15.02 3.522 18.23 10.567zm31.792 35.927c-2.188 2.041-5.032 3.061-8.532 3.061-2.965 0-5.31-.814-7.036-2.441-1.726-1.628-2.589-4.093-2.589-7.397V31.817h-7.291v-3.57h7.291V19.21l4.157-1.093v10.13h13.708v3.57h-13.708V54.92c0 2.186.534 3.838 1.604 4.956 1.07 1.117 2.6 1.676 4.594 1.676 2.479 0 4.569-.899 6.27-2.697l1.532 3.498zm27.78-33.741l-1.02 3.935c-1.215-.777-2.747-1.166-4.594-1.166-1.75 0-3.427.547-5.031 1.64-1.604 1.093-2.905 2.636-3.901 4.628-.997 1.991-1.495 4.25-1.495 6.777v20.26h-4.156V28.247h3.5l.51 7.068c.973-2.477 2.455-4.396 4.448-5.757 1.993-1.36 4.424-2.04 7.292-2.04 1.847 0 3.33.364 4.448 1.093zm39.23 32.794l-.22 3.28c-.971.485-2.235.728-3.79.728-1.75 0-3.16-.45-4.23-1.348-1.07-.899-1.701-2.441-1.896-4.628-1.118 1.847-2.868 3.304-5.25 4.373-2.382 1.069-4.91 1.603-7.583 1.603-3.597 0-6.502-.814-8.713-2.441-2.212-1.628-3.318-3.923-3.318-6.887 0-2.818 1.154-5.174 3.463-7.069 2.31-1.895 5.797-3.23 10.464-4.008l10.864-1.895v-2.915c0-2.818-.838-5.028-2.515-6.632-1.677-1.603-4.047-2.404-7.11-2.404-5.59 0-9.381 2.502-11.375 7.506l-3.135-2.26c1.02-2.817 2.807-5.004 5.36-6.558 2.552-1.555 5.602-2.332 9.15-2.332 4.23 0 7.584 1.032 10.063 3.097 2.479 2.065 3.719 5.09 3.719 9.073v18.583c0 2.381 1.069 3.571 3.208 3.571 1.118 0 2.066-.145 2.844-.437zm-16.735-.692c1.92-.705 3.488-1.725 4.703-3.061 1.216-1.336 1.823-2.927 1.823-4.773v-6.34l-9.552 1.748c-3.791.68-6.562 1.652-8.312 2.915-1.75 1.264-2.625 2.891-2.625 4.883 0 1.798.705 3.195 2.114 4.19 1.41.996 3.379 1.494 5.907 1.494 2.041 0 4.022-.352 5.942-1.056zm43.787 1.64c-2.188 2.04-5.032 3.06-8.532 3.06-2.965 0-5.31-.814-7.036-2.441-1.726-1.628-2.589-4.093-2.589-7.397V31.817h-7.291v-3.57h7.291V19.21l4.157-1.093v10.13h13.708v3.57h-13.708V54.92c0 2.186.534 3.838 1.604 4.956 1.07 1.117 2.6 1.676 4.594 1.676 2.479 0 4.569-.899 6.27-2.697l1.532 3.498zm38.135-34.106v36.438h-3.646l-.292-6.778c-1.166 2.43-2.953 4.288-5.36 5.575-2.405 1.288-5.213 1.931-8.42 1.931-3.987 0-7.183-1.105-9.59-3.316-2.406-2.21-3.609-5.502-3.609-9.874V28.247h4.156v22.955c0 3.693.839 6.377 2.516 8.053 1.677 1.676 4.096 2.514 7.255 2.514 3.84 0 6.94-1.202 9.297-3.607 2.358-2.405 3.537-5.502 3.537-9.292V28.247h4.156zm-227.505-.772a36.013 36.013 0 0 1 1.699 6.196L48.777 48.337 22.557 35.55l50.979-8.074zM15.079 67.016C7.769 60.376 3.18 50.8 3.18 40.15c0-3.08.384-6.07 1.106-8.924l40.087 19.552-29.295 16.238zm3.474 2.789a36.163 36.163 0 0 0 20.943 6.64c20.057 0 36.316-16.25 36.316-36.295 0-.69-.02-1.373-.057-2.053L18.553 69.805zm348.842-38.826c2.625 2.357 3.937 5.721 3.937 10.094v23.539h-4.156V41.51c0-3.4-.912-5.988-2.735-7.761-1.822-1.774-4.265-2.66-7.328-2.66-2.236 0-4.29.546-6.161 1.64-1.872 1.093-3.366 2.61-4.484 4.554-1.118 1.944-1.678 4.178-1.678 6.705v20.697h-4.156V41.583c0-3.401-.911-5.988-2.734-7.761-1.823-1.774-4.241-2.66-7.255-2.66-2.14 0-4.144.522-6.016 1.566-1.871 1.045-3.39 2.563-4.557 4.555-1.167 1.992-1.75 4.348-1.75 7.07v20.332h-4.156V28.247h3.718l.22 6.85c1.214-2.43 2.977-4.3 5.286-5.612 2.309-1.311 4.848-1.967 7.62-1.967 3.013 0 5.675.692 7.984 2.077 2.309 1.384 3.95 3.413 4.921 6.085 1.021-2.575 2.808-4.591 5.36-6.049 2.552-1.457 5.286-2.186 8.203-2.186 3.986 0 7.292 1.178 9.917 3.534zM39.496 79.624c21.813 0 39.497-17.673 39.497-39.474C78.993 18.348 61.309.675 39.496.675S0 18.348 0 40.15c0 21.8 17.683 39.474 39.496 39.474z" fill="#242F36" fill-rule="evenodd"/></svg>