<svg width="2203" height="757" viewBox="0 0 2203 757" xmlns="http://www.w3.org/2000/svg" xmlns:xlink="http://www.w3.org/1999/xlink" style="background:#fff"><title>platform-how-to-use</title><defs><rect id="a" width="302.57" height="248.203" rx="8"/><rect id="b" width="371.383" height="293" rx="8"/><path d="M8 0h355.383a8 8 0 0 1 8 8v18.652H0V8a8 8 0 0 1 8-8z" id="c"/><rect id="d" width="371.383" height="293" rx="8"/><path d="M8 0h355.383a8 8 0 0 1 8 8v18.652H0V8a8 8 0 0 1 8-8z" id="e"/><rect id="f" x="73" y="134" width="371.383" height="293" rx="8"/><rect id="g" width="149.861" height="122.934" rx="8"/><rect id="h" width="183.944" height="145.121" rx="8"/><path d="M8 0h167.944a8 8 0 0 1 8 8v5.2H0V8a8 8 0 0 1 8-8z" id="i"/></defs><g fill="none" fill-rule="evenodd"><g transform="translate(47 24)"><use fill="#FFF" xlink:href="#a"/><rect stroke="#1E2127" stroke-width="3" x="1.5" y="1.5" width="299.57" height="245.203" rx="8"/><rect stroke="#1E2127" stroke-width="3" x="21.5" y="21.5" width="111.371" height="35.809" rx="8"/><rect stroke="#1E2127" stroke-width="3" x="21.5" y="181.5" width="186.37" height="35.809" rx="8"/><rect stroke="#1E2127" stroke-width="3" x="230.988" y="181.5" width="47.883" height="35.809" rx="8"/><rect stroke="#1E2127" stroke-width="3" x="155.871" y="21.5" width="125.2" height="35.809" rx="8"/><rect fill-opacity=".3" fill="#7A848D" x="154.371" y="79" width="128.2" height="8.81" rx="4.405"/><rect fill-opacity=".3" fill="#7A848D" x="154.371" y="107" width="128.2" height="8.81" rx="4.405"/><rect stroke="#1E2127" stroke-width="3" x="155.871" y="136.5" width="125.2" height="5.81" rx="2.905"/><circle fill-opacity=".3" fill="#7A848D" cx="60" cy="116" r="40"/><path fill="#1E2127" d="M118 83h15v23h-15zM118 116h15v23h-15z"/></g><g transform="translate(197 155)"><use fill="#FFF" xlink:href="#b"/><rect stroke="#1E2127" stroke-width="3" x="1.5" y="1.5" width="368.383" height="290" rx="8"/><use fill="#FFF" xlink:href="#c"/><path stroke="#1E2127" stroke-width="3" d="M1.5 25.152h368.383V8a6.5 6.5 0 0 0-6.5-6.5H8A6.5 6.5 0 0 0 1.5 8v17.152z"/><circle fill="#1E2127" cx="15" cy="13" r="5"/><circle fill="#1E2127" cx="35" cy="13" r="5"/><circle fill="#1E2127" cx="55" cy="13" r="5"/><rect fill="#1E2127" x="23" y="47" width="296" height="6" rx="3"/><rect fill-opacity=".3" fill="#7A848D" x="63" y="67" width="276" height="6" rx="3"/><rect fill="#1E2127" x="43" y="247" width="276" height="6" rx="3"/><rect fill="#1E2127" x="83" y="87" width="136" height="6" rx="3"/><rect fill="#1E2127" x="143" y="147" width="166" height="6" rx="3"/><rect fill="#1E2127" x="123" y="167" width="186" height="6" rx="3"/><rect fill-opacity=".3" fill="#7A848D" x="103" y="187" width="186" height="6" rx="3"/><rect fill-opacity=".3" fill="#7A848D" x="83" y="207" width="136" height="6" rx="3"/><rect fill="#1E2127" x="63" y="227" width="136" height="6" rx="3"/><rect fill="#1E2127" x="233" y="207" width="106" height="6" rx="3"/><rect fill="#1E2127" x="173" y="107" width="56" height="6" rx="3"/><rect fill-opacity=".3" fill="#7A848D" x="23" y="267" width="46" height="6" rx="3"/><rect fill-opacity=".3" fill="#7A848D" x="103" y="107" width="56" height="6" rx="3"/><rect fill-opacity=".3" fill="#7A848D" x="123" y="127" width="56" height="6" rx="3"/></g><text font-family="GTAmerica-Bold, GT America" font-size="32" font-weight="bold" transform="translate(47 17)"><tspan x="331" y="32" fill="#1E2127">Build</tspan>  <tspan x="331" y="70" font-family="GTAmerica-Regular, GT America" font-size="30" font-weight="normal" fill="#7A848D">Do what you do best. </tspan> <tspan x="331" y="106" font-family="GTAmerica-Regular, GT America" font-size="30" font-weight="normal" fill="#7A848D">Build your product.</tspan></text><g transform="translate(639 288)"><rect fill-opacity=".3" fill="#7A848D" y="14" width="200" height="8" rx="4"/><path d="M95 0l16.522 16.823a2 2 0 0 1-.101 2.9L95 34.252" stroke="#D7DADC" stroke-width="7" stroke-linecap="round"/></g><path d="M1245.834 149.293l11.397-12.734 39.75 47.404-51.147-34.67zm11.397 63.02v-17.196l61.154 8.552-61.154 8.644zm50.591 39.04l-11.49-12.735 51.148-34.67-39.658 47.404zm63.564-4.834l-17.049-1.766 14.918-60.139 2.131 61.905zm44.106-46.29l-13.9 10.04-29.001-54.656 42.9 44.617zm1.853-64.042l-3.614 16.824-58.004-21.193 61.618 4.369zm-41.326-48.799l8.525 14.965-57.263 23.145 48.738-38.11zm-63.286-8.458l16.308 5.298-27.056 55.677 10.748-60.975zm-52.722 36.064l15.659-6.971 17.05 59.581-32.71-52.61zM1245 177.271l6.95-15.709 52.444 32.812L1245 177.27zm30.3 56.328l-5.282-16.36 60.784-10.782-55.503 27.142zm60.135 21.471l-14.918-8.551 38.082-48.892-23.164 57.443zm59.023-24.353l-16.771 3.625-4.355-61.812 21.126 58.187zm27.612-57.722l-10.1 13.943-44.476-43.036 54.576 29.093zm-17.975-61.347l1.76 17.103-61.71-2.138 59.95-14.965zM1349.797 78l12.694 11.526-47.256 39.876L1349.797 78zm-62.823 11.526h17.142l-8.617 61.347-8.525-61.347z" fill-opacity=".3" fill="#7A848D"/><g transform="translate(909 155)"><use fill="#FFF" xlink:href="#d"/><rect stroke="#1E2127" stroke-width="3" x="1.5" y="1.5" width="368.383" height="290" rx="8"/><use fill="#FFF" xlink:href="#e"/><path stroke="#1E2127" stroke-width="3" d="M1.5 25.152h368.383V8a6.5 6.5 0 0 0-6.5-6.5H8A6.5 6.5 0 0 0 1.5 8v17.152z"/><circle fill="#1E2127" cx="15" cy="13" r="5"/><circle fill="#1E2127" cx="35" cy="13" r="5"/><circle fill="#1E2127" cx="55" cy="13" r="5"/><text font-family="Inconsolata-Bold, Inconsolata" font-size="15" font-weight="bold"><tspan x="23" y="56" fill="#7A848D">$ git add -A</tspan> <tspan x="23" y="82" fill="#7A848D">$ git commit -m “Pushing my app to Datica!”</tspan>  <tspan x="23" y="108" fill="#1E2127">$ git push datica master</tspan> <tspan x="23" y="134" fill="#1E2127">$ remote: Prepping Build.................</tspan> <tspan x="23" y="160" fill="#1E2127">remote: [buildstep] Building application</tspan> <tspan x="23" y="186" fill="#1E2127">-----&gt; Fetching custom buildpack</tspan> <tspan x="23" y="212" fill="#1E2127">-----&gt; Node app detected</tspan> <tspan x="23" y="238" fill="#1E2127">-----&gt; Bootstrapping...</tspan> <tspan x="23" y="264" fill="#1E2127">-----&gt; Installing platform packages...</tspan></text></g><text font-family="GTAmerica-Bold, GT America" font-size="32" font-weight="bold" transform="translate(909 21)"><tspan x="0" y="32" fill="#1E2127">Push</tspan>  <tspan x="0" y="70" font-family="GTAmerica-Regular, GT America" font-size="30" font-weight="normal" fill="#7A848D">Git based deployments </tspan> <tspan x="0" y="106" font-family="GTAmerica-Regular, GT America" font-size="30" font-weight="normal" fill="#7A848D">via the Datica CLI.</tspan></text><g transform="translate(1350 288)"><rect fill-opacity=".3" fill="#7A848D" y="14" width="200" height="8" rx="4"/><path d="M95 0l16.522 16.823a2 2 0 0 1-.101 2.9L95 34.252" stroke="#D7DADC" stroke-width="7" stroke-linecap="round"/></g><text transform="translate(1649 21)" font-size="32" font-family="GTAmerica-Bold, GT America" font-weight="bold"><tspan x="0" y="32" fill="#1E2127">Compliance</tspan>  <tspan x="0" y="70" font-family="GTAmerica-Regular, GT America" font-size="30" font-weight="normal" fill="#7A848D">Your app is now </tspan> <tspan x="0" y="106" font-family="GTAmerica-Regular, GT America" font-size="30" font-weight="normal" fill="#7A848D">compliant on Datica.</tspan></text><g transform="translate(1620 21)"><use fill="#FFF" xlink:href="#f"/><rect stroke="#1E2127" stroke-width="3" x="74.5" y="135.5" width="368.383" height="290" rx="8"/></g><path d="M1879.358 382.51c-3.63-3.727-12.257-12.51-22.359-12.51-9.928 0-18.672 8.805-22.347 12.525-.865.876-.87 2.388-.01 3.27 3.639 3.728 12.28 12.513 22.357 12.513 9.954 0 18.683-8.801 22.35-12.524.864-.876.869-2.39.01-3.273zm-22.392 12.647c-5.161 0-9.344-4.882-9.344-10.905s4.183-10.904 9.344-10.904c5.16 0 9.343 4.881 9.343 10.904s-4.182 10.905-9.343 10.905zm2.473-11.419c-1.707 0-3.091-1.615-3.091-3.608 0-1.133.448-2.141 1.148-2.803a5.335 5.335 0 0 0-.736-.057c-3.307 0-5.99 3.129-5.99 6.989s2.683 6.99 5.99 6.99c3.308 0 5.99-3.13 5.99-6.99 0-.96-.167-1.877-.467-2.71-.473 1.287-1.568 2.19-2.844 2.19z" fill="#1E2127"/><g fill="#1E2127"><path d="M1834.667 200.326c0-.616.495-1.112 1.111-1.112h28.444c.616 0 1.111.495 1.111 1.112v28.443c0 .616-.495 1.112-1.111 1.112h-28.444a1.109 1.109 0 0 1-1.111-1.112v-28.443zm-2.19 0v28.443a3.3 3.3 0 0 0 3.301 3.302h28.444a3.3 3.3 0 0 0 3.302-3.302v-28.443a3.3 3.3 0 0 0-3.302-3.302h-28.444a3.3 3.3 0 0 0-3.302 3.302z" fill-rule="nonzero"/><path d="M1866.429 204.649H1873v2.19h-6.571zM1866.429 213.411H1873v2.19h-6.571zM1866.429 222.173H1873v2.19h-6.571zM1827 204.649h6.571v2.19H1827zM1827 213.411h6.571v2.19H1827zM1827 222.173h6.571v2.19H1827zM1859.857 191.506v6.571h-2.19v-6.57zM1851.095 191.506v6.571h-2.19v-6.57zM1842.333 191.506v6.571h-2.19v-6.571zM1859.857 230.976v6.571h-2.19v-6.571zM1851.095 230.976v6.57h-2.19v-6.57zM1842.333 230.976v6.57h-2.19v-6.57z"/><g transform="translate(1834.393 213.356)"><path fill-rule="nonzero" d="M.274 2.423h6.571l-.672-.23 9.857 7.666.297.23h4.756V7.9h-4.38l.672.231L7.518.463 7.22.233H.274z"/><circle cx="21.083" cy="8.995" r="2.19"/></g><g transform="rotate(180 932.804 107.938)"><path fill-rule="nonzero" d="M.274 2.423h6.571l-.672-.23 9.857 7.666.297.23h4.756V7.9h-4.38l.672.231L7.518.463 7.22.233H.274z"/><circle cx="21.083" cy="8.995" r="2.19"/></g></g><path d="M1951.896 385.93c-.056 0-.056-.056-.056-.056a9.078 9.078 0 0 0-1.601-2.144l-8.67-8.633-.11-.11c-1.105-1.045-2.43-1.87-3.921-2.31 1.712 1.76 2.816 3.96 3.258 6.379.11.715.166 1.485.166 2.2 0 .274 0 .604-.056.934l5.412 5.389c.497.44.828 1.045.994 1.704.11.385.166.77.166 1.155 0 .44-.055.88-.166 1.265a4.335 4.335 0 0 1-.994 1.594l-3.534 3.52c-.718.77-1.767 1.154-2.872 1.154-1.104 0-2.098-.385-2.871-1.154l-3.314-3.355-2.208-2.144-3.148-3.134c-.276-.33-.552-.66-.773-1.1-.221-.55-.387-1.155-.387-1.76 0-.44.056-.824.221-1.21v-.11l.055-.054c.056-.165.056-.275.11-.385.056-.055.056-.11.111-.165.056-.11.11-.22.221-.33v-.055c.055-.055.055-.11.055-.11.166-.165.277-.33.387-.44l1.38-1.375c-.055-.11-.055-.274-.11-.384-.055-.11-.166-.22-.22-.33l-3.148-3.08-.221-.274-1.547 1.54c-.165.164-.276.329-.441.494l-.11.11v.055c-.111.11-.222.275-.332.385-.055.055-.055.11-.11.11v.055c-.111.11-.166.275-.277.385l-.055.055s0 .055-.055.11c-.11.165-.166.33-.276.495v.055c-.332.604-.608 1.21-.773 1.87l-.166.659c-.11.66-.166 1.265-.166 1.924 0 .55.056 1.155.11 1.705.387 1.925 1.27 3.63 2.651 5.004l1.823 1.814 2.595 2.64 4.252 4.179c3.7 3.739 9.775 3.739 13.53 0l3.534-3.465a10.27 10.27 0 0 0 2.485-4.398c.166-.825.276-1.595.276-2.365 0-1.484-.331-3.024-1.05-4.344v-.055l-.054-.055v-.055zm-16.401-11.493l-1.823-1.814-2.595-2.64-4.252-4.179c-3.7-3.739-9.775-3.739-13.53 0l-3.534 3.464a10.27 10.27 0 0 0-2.485 4.4c-.166.824-.276 1.594-.276 2.364 0 1.484.387 3.024 1.05 4.344v.055s.054 0 .054.055v.055c.056 0 .056.055.056.055.441.824.994 1.54 1.601 2.144l8.67 8.633.11.11c1.105 1.045 2.485 1.87 3.921 2.31-1.656-1.76-2.816-3.96-3.203-6.38-.165-.714-.22-1.484-.22-2.199 0-.274 0-.604.055-.934l-5.412-5.389c-.497-.44-.828-1.045-.994-1.705a4.17 4.17 0 0 1-.166-1.154c0-.44.055-.88.166-1.265.22-.605.552-1.155.994-1.595l3.534-3.519c1.546-1.54 4.197-1.54 5.743 0l3.369 3.355 2.153 2.144 3.148 3.134c.276.33.552.66.773 1.1.221.55.387 1.155.387 1.76 0 .44-.056.824-.166 1.21-.055.054-.055.054-.055.11v.054c-.055.165-.11.275-.166.385-.055.055-.055.11-.11.165-.056.11-.11.22-.221.33v.055c0 .055-.055.055-.055.11-.166.165-.277.33-.387.44l-1.38 1.374c.055.11.055.275.11.385.055.11.166.22.22.33l3.148 3.08.221.274 1.547-1.54c.165-.164.33-.33.441-.494l.11-.11.056-.055c.055-.11.166-.275.276-.385.055-.055.055-.11.11-.165.111-.11.221-.275.277-.385l.055-.055.055-.11c.11-.165.166-.33.276-.495l.055-.055c.277-.604.553-1.21.718-1.87l.166-.659c.11-.66.22-1.265.22-1.925 0-.55-.054-1.154-.165-1.704-.331-1.925-1.27-3.63-2.65-5.004zM1933.748 297.69c.432-1.246.672-2.59.672-3.98 0-7.003-5.708-12.71-12.71-12.71-7.003 0-12.71 5.707-12.71 12.71 0 7.002 5.707 12.71 12.71 12.71 1.39 0 2.734-.24 3.98-.672l2.926 2.926h5.234c.5 0 .905.403.905.906v3.747c0 .82.657 1.486 1.486 1.486h3.748c.5 0 .905.406.905.913v3.776c0 .827.692 1.498 1.487 1.498h5.72c.497 0 .899-.389.899-.924v-7.134l-15.252-15.251zm-14.676-2.445c-2.398 0-4.317-1.919-4.317-4.269s1.919-4.269 4.317-4.269a4.278 4.278 0 0 1 4.269 4.269 4.278 4.278 0 0 1-4.27 4.269zM1926.104 225.109l7.272 7.272 3.856 5.178 2.039.551 5.729-5.73-.55-2.093-5.18-3.8-7.657-7.658-5.399 5.399c0 .33-.055.606-.11.881zm12.616 4.297c1.377 0 2.424 1.047 2.424 2.424 0 1.322-1.047 2.369-2.424 2.369a2.351 2.351 0 0 1-2.37-2.37c0-1.376 1.048-2.423 2.37-2.423zm-15.756-19.226l-4.242-4.297c.551-1.047.882-2.149.882-3.14 0-5.454-5.234-10.743-10.688-10.688-.055 0-.66.606-.991.992 4.407 4.352 4.021 3.636 4.021 6.335 0 2.204-3.47 5.62-5.62 5.62-2.754 0-1.872.44-6.39-4.022-.33.33-.936.936-.936.991.055 5.454 5.234 10.688 10.687 10.688.992 0 2.039-.33 3.085-.827l3.912 3.857c.275-.055.55-.11.881-.11l5.4-5.4zm17.464 9.31l2.92 2.81s4.186-11.625-.827-16.638l-6.556-6.555c-.44-.441-1.708 0-2.038-.441-.937-1.212-1.267-2.259-1.322-2.534-.22-.937-1.212-1.873-2.039-2.7l-.33-.33c-.661-.661-1.047-1.102-1.432-1.102-.386 0-.772.275-1.433.937l-3.966 4.021c-1.488 1.432-1.157 1.598.11 2.865l.33.33c.937.882 1.984 2.039 3.03 2.039h.056c.826.165 2.534.66 3.305 2.093.881 1.928-.33 3.25-.826 3.966l-10.688 10.688a3.743 3.743 0 0 0-1.047-.165c-.55 0-1.101.165-1.542.606-.055.11-.165.22-.33.33l-11.129 11.128c-.11.166-.22.276-.33.33-2.149 2.204 1.818 6.887 4.682 6.887.606 0 1.157-.165 1.598-.606.055-.11.165-.22.33-.386 2.314-2.258 11.074-11.073 11.074-11.073.165-.165.275-.275.385-.33.661-.716.716-1.598.44-2.59l12.01-11.954c.717-.66 1.488-1.212 1.874-1.212h.165c4.352 2.534 3.526 9.586 3.526 9.586z" fill="#7A848D"/><path d="M1983.401 374.763l.997.376c1.867.705 2.23 2.406.81 3.8l-.847.833c-1.42 1.393-.953 2.439 1.043 2.334l.407-.02c1.996-.105 2.951 1.274 2.134 3.081l-.212.47c-.817 1.807-.002 2.615 1.822 1.805l.96-.426c.111-.05.222-.093.331-.13.044-.014.086-.023.128-.036.066-.019.132-.04.195-.054.047-.01.092-.016.137-.024.06-.01.119-.022.176-.029.046-.005.09-.005.134-.007.055-.004.11-.008.162-.008a2.23 2.23 0 0 1 .469.056c.109.024.215.056.315.098l.04.015c.108.048.21.108.307.176l.07.052c.087.068.17.142.246.227l.021.021a2.083 2.083 0 0 1 .258.387c.059.11.112.226.154.352.002.006.005.01.006.017.044.131.075.273.1.42l.015.11c.02.151.034.308.033.476l-.005 1.177c0 .137.006.265.016.387.002.039.008.075.012.112.009.08.018.158.032.231.007.04.015.076.023.114a2.41 2.41 0 0 0 .082.283c.022.058.046.11.07.16.013.025.024.05.037.073.035.06.073.114.114.162l.016.023c.048.053.1.097.155.134.016.01.033.017.049.026a.71.71 0 0 0 .126.058c.022.007.046.011.068.017a.79.79 0 0 0 .127.017c.013 0 .025.005.04.005.009 0 .02-.004.029-.005.088-.003.18-.016.277-.047.014-.004.029-.012.043-.017.09-.031.183-.076.28-.13.019-.012.038-.02.058-.033.105-.065.213-.145.324-.238l.073-.065c.116-.102.234-.214.355-.347l.273-.301c.129-.142.261-.262.394-.372l.07-.056a2.807 2.807 0 0 1 .465-.29c.133-.065.265-.117.397-.152.014-.004.028-.005.043-.008.126-.03.252-.046.376-.049l.063-.003c.073.002.145.009.217.02.02.002.04.002.06.006.089.016.177.04.264.072.027.01.053.023.08.035.06.025.12.052.177.083.032.018.062.039.094.06.05.031.1.065.15.104a2.29 2.29 0 0 1 .444.466l.075.106c.043.065.084.135.124.207.019.035.04.067.057.103.057.11.11.228.158.353l.185.48c.172.45.372.788.586 1.02l.019.022c.041.043.083.079.126.114.014.012.028.027.042.038.037.028.073.048.11.07.021.013.042.03.063.04.031.015.064.024.095.036.027.009.053.023.08.03.03.007.06-.103.09-.1.03.004.058-.1.087-.1h.001c.035 0 .068.103.102.098.025-.003.05.053.073.047.038-.01.076 0 .114-.014.02-.009.041 0 .061-.009.046-.022.09-.046.135-.077.013-.009.026-.254.038-.264.057-.042.113-.388.168-.388h.001c.222 0 .431-.333.614-.795l.35-.767c.05-.127.106-.185.165-.298.019-.036.04-.038.06-.072.042-.075.085-.132.131-.2.026-.036.052-.063.078-.098a2.9 2.9 0 0 1 .227-.256c.05-.051.102-.097.155-.141.029-.025.057-.05.087-.073.063-.048.128-.089.194-.128.022-.013.043-.029.065-.04.089-.05.18-.09.273-.124.023-.008.046-.013.07-.02.071-.022.143-.042.216-.056.037-.007.072-.01.108-.015a1.934 1.934 0 0 1 .687.031 2.317 2.317 0 0 1 .42.142c.025.012.05.02.075.033.132.063.264.14.395.23l.08.057c.135.099.268.208.398.336l.773.76c.123.122.243.224.36.317.026.02.052.042.078.06.115.087.226.162.332.221l.038.018c.097.052.19.09.28.12.023.007.044.016.066.021.095.027.187.042.274.043l.016.003c.017 0 .032-.006.048-.007a.732.732 0 0 0 .33-.094c.02-.012.04-.023.061-.037a.836.836 0 0 0 .114-.101c.014-.014.027-.024.04-.038a1.1 1.1 0 0 0 .126-.189c.01-.018.017-.038.025-.057a1.401 1.401 0 0 0 .1-.28 2.616 2.616 0 0 0 .085-.547c.002-.038.006-.073.007-.113a4.274 4.274 0 0 0-.004-.394l-.021-.404a3.469 3.469 0 0 1 .009-.475l.01-.11c.016-.146.04-.288.074-.418.001-.006.004-.011.006-.017.035-.126.08-.242.132-.352.013-.028.025-.055.04-.081.056-.11.12-.213.193-.306l.016-.017a1.634 1.634 0 0 1 .294-.28c.092-.069.19-.13.295-.179l.027-.01c.099-.044.205-.077.315-.102l.078-.018c.12-.022.244-.036.375-.037.043 0 .087.004.13.006.053.003.106.004.16.01.048.005.097.016.146.025.054.009.106.016.16.028.057.013.115.031.173.048.05.014.097.025.147.042.109.037.219.08.33.13l.475.21c.122.054.237.1.35.14l.004.001c1.571.554 2.23-.261 1.468-1.946l-.375-.828c-.817-1.807.14-3.29 2.139-3.314l1.132-.014c1.999-.024 2.414-1.116.928-2.44l-.303-.27c-1.487-1.325-1.176-2.97.69-3.675l.486-.183c1.868-.705 1.87-1.85.002-2.559l-.977-.37c-1.866-.709-2.23-2.414-.813-3.81l.833-.82c1.417-1.396.948-2.443-1.048-2.338l-.408.021c-1.996.105-2.95-1.275-2.133-3.082l.212-.47c.817-1.807.002-2.615-1.821-1.805l-.974.433c-1.824.81-3.295-.14-3.287-2.12l.006-1.183c.01-1.98-1.067-2.392-2.403-.92l-.273.301c-1.337 1.473-2.997 1.166-3.709-.684l-.184-.481c-.712-1.85-1.866-1.85-2.577 0l-.38.988c-.711 1.85-2.428 2.21-3.835.804l-.841-.841c-1.407-1.407-2.462-.944-2.356 1.034l.02.403c.107 1.978-1.286 2.924-3.11 2.114l-.474-.21c-1.823-.81-2.64-.002-1.822 1.805l.437.965c.817 1.807-.14 3.265-2.139 3.255l-1.194-.005c-2-.01-2.414 1.058-.929 2.382l.304.27c1.486 1.324 1.176 2.97-.691 3.675l-.485.182c-1.868.705-1.868 1.849 0 2.554zm18.49 13.087c7.797 0 14.117-6.32 14.117-14.117 0-7.797-6.32-14.118-14.117-14.118-7.797 0-14.118 6.32-14.118 14.118 0 7.797 6.32 14.117 14.118 14.117zm-5.948-13.52h.566l.315-1.823h-.44c-.441 0-.806-.475-.806-.912 0-.436.365-.911.805-.911h.718l.213-.952c.063-.4.403-.473.806-.473.49 0 .88.258.804.732l-.163.693h1.698l.215-.952c.063-.4.403-.473.805-.473.49 0 .88.258.805.732l-.163.693h.29c.44 0 .804.475.804.911 0 .437-.364.912-.805.912h-.566l-.315 1.823h.44c.441 0 .806.172.806.608 0 .437-.365.608-.805.608h-.717l-.227 1.664c-.063.386-.403.882-.805.882-.491 0-.893-.74-.805-1.215l.175-1.33h-1.698l-.226 1.663c-.063.337-.353.882-.806.882-.49 0-.893-.691-.805-1.215l.177-1.33h-.29c-.44 0-.805-.172-.805-.609 0-.436.365-.608.805-.608zm4.634-2.095h-1.699l-.314 1.823h1.698l.315-1.823zm4.03-2.306l1.243-.653c.365-.1.639-.416.902-.416h.026c.528 0 .833.93.833 1.454v7.03c0 .524-.392.948-.92.948-.529 0-.92-.424-.92-.947v-6.034l-.654.18c-.101.025-.202.054-.303.054-.453 0-.849-.364-.849-.812 0-.387.253-.692.643-.804zm-6.105 23.147l-.184-.368c-.03-.078-.06-.086-.087-.137-.045.037-.095.114-.151.175l-.274.316c-.94 1.036-1.942 1.569-2.976 1.569-.753 0-1.461-.29-1.994-.82-.695-.691-1.045-1.71-1.04-3.035l.002-.587.002-.588c0-.164-.02-.277-.04-.347-.069.008-.182.034-.344.106l-.96.426a5.621 5.621 0 0 1-1.58.462l-6.723 16.432c-.45 1.097.123 1.745 1.28 1.45l4.942-1.264c1.157-.296 1.635-.092 2.255.92l2.648 4.323c.62 1.012 1.488.72 1.938-.377l6.523-16.168h-.004c-.659 0-2.291-.041-3.233-2.488zm23.344 13.603l-6.56-16.041-.043.002c-.633 0-1.329-.166-2.068-.494l-.472-.21a1.534 1.534 0 0 0-.2-.074 1.7 1.7 0 0 0 0 .21l.022.404c.072 1.355-.245 2.411-.942 3.138-.539.564-1.27.875-2.056.875-.983 0-1.96-.47-2.902-1.397l-.378-.373-.394-.387a1.188 1.188 0 0 0-.31-.234c-.045.05-.118.152-.191.338l-.351.89c-.76 1.932-1.919 2.503-2.756 2.642l6.54 15.987c.449 1.095 1.316 1.164 1.937.153l2.648-4.324c.62-1.011 1.099-1.215 2.255-.92l4.942 1.264c1.157.296 1.73-.353 1.28-1.45z" fill="#7A848D" opacity=".3"/><g transform="translate(1637 192)"><use fill="#FFF" xlink:href="#g"/><rect stroke="#1E2127" stroke-width="2" x="1" y="1" width="147.861" height="120.934" rx="8"/><rect stroke="#1E2127" stroke-width="2" x="10.906" y="10.906" width="54.647" height="17.222" rx="8"/><rect stroke="#1E2127" stroke-width="2" x="10.906" y="90.153" width="91.794" height="17.222" rx="8"/><rect stroke="#1E2127" stroke-width="3" x="115.164" y="90.653" width="22.202" height="16.222" rx="8"/><rect stroke="#1E2127" stroke-width="2" x="77.459" y="10.906" width="61.497" height="17.222" rx="8"/><rect fill-opacity=".3" fill="#7A848D" x="76.459" y="39.128" width="63.497" height="4.364" rx="2.182"/><rect fill-opacity=".3" fill="#7A848D" x="76.459" y="52.997" width="63.497" height="4.364" rx="2.182"/><rect stroke="#1E2127" stroke-width="3" x="77.959" y="68.365" width="60.497" height="1.364" rx=".682"/><circle fill-opacity=".3" fill="#7A848D" cx="29.718" cy="57.454" r="19.812"/><path fill="#1E2127" d="M58.445 41.109h7.429v11.392h-7.429zM58.445 57.454h7.429v11.392h-7.429z"/></g><g transform="translate(1620 276)"><use fill="#FFF" xlink:href="#h"/><rect stroke="#1E2127" stroke-width="2" x="1" y="1" width="181.944" height="143.121" rx="8"/><use fill="#FFF" xlink:href="#i"/><path stroke="#1E2127" stroke-width="2" d="M1 12.2h181.944V8a7 7 0 0 0-7-7H8a7 7 0 0 0-7 7v4.2z"/><circle fill="#1E2127" cx="7.429" cy="6.439" r="2.476"/><circle fill="#1E2127" cx="17.335" cy="6.439" r="2.476"/><circle fill="#1E2127" cx="27.241" cy="6.439" r="2.476"/><rect fill="#1E2127" x="11.392" y="23.279" width="146.607" height="2.972" rx="1.486"/><rect fill-opacity=".3" fill="#7A848D" x="31.204" y="33.185" width="136.701" height="2.972" rx="1.486"/><rect fill="#1E2127" x="21.298" y="122.338" width="136.701" height="2.972" rx="1.486"/><rect fill="#1E2127" x="41.109" y="43.091" width="67.36" height="2.972" rx="1.486"/><rect fill="#1E2127" x="70.827" y="72.808" width="82.219" height="2.972" rx="1.486"/><rect fill="#1E2127" x="60.921" y="82.714" width="92.125" height="2.972" rx="1.486"/><rect fill-opacity=".3" fill="#7A848D" x="51.015" y="92.62" width="92.125" height="2.972" rx="1.486"/><rect fill-opacity=".3" fill="#7A848D" x="41.109" y="102.526" width="67.36" height="2.972" rx="1.486"/><rect fill="#1E2127" x="31.204" y="112.432" width="67.36" height="2.972" rx="1.486"/><rect fill="#1E2127" x="115.404" y="102.526" width="52.501" height="2.972" rx="1.486"/><rect fill="#1E2127" x="85.686" y="52.997" width="27.737" height="2.972" rx="1.486"/><rect fill-opacity=".3" fill="#7A848D" x="11.392" y="132.244" width="22.784" height="2.972" rx="1.486"/><rect fill-opacity=".3" fill="#7A848D" x="51.015" y="52.997" width="27.737" height="2.972" rx="1.486"/><rect fill-opacity=".3" fill="#7A848D" x="60.921" y="62.902" width="27.737" height="2.972" rx="1.486"/></g><g fill="#7A848D" opacity=".3"><path d="M2001.623 230.867c-8.944-.04-17.873-2.264-22.107-6.503v5.413c0 5.298 9.92 9.598 22.585 9.653 12.666-.055 22.585-4.355 22.585-9.653v-6.529c-3.293 4.966-13.352 7.577-23.063 7.619M2017.997 205.131c-4.052 1.691-9.479 2.842-15.281 2.842h-.033c-5.802 0-11.228-1.15-15.28-2.842-3.948-1.647-5.349-3.645-5.349-4.73 0-1.086 1.401-2.893 5.348-4.54 4.053-1.692 9.48-2.646 15.281-2.646h.033c5.802 0 11.229.917 15.281 2.609 3.948 1.646 5.348 3.565 5.348 4.65 0 1.085-1.4 3.01-5.348 4.657M2002.101 191c-12.39.007-22.115 4.191-22.585 9.358v8.278c0 5.298 9.92 9.597 22.585 9.652 12.666-.055 22.585-4.354 22.585-9.652v-8.278c0-5.167-10.195-9.35-22.585-9.358"/><path d="M1979.516 213.41v5.564c0 5.298 9.92 9.598 22.585 9.653 12.666-.055 22.585-4.355 22.585-9.653v-5.564c-3.764 4.574-13.281 6.978-22.592 7.018-9.3-.04-18.344-2.443-22.578-7.018"/></g><path d="M2009.868 293.796h-19.428c-8.44 0-8.44-1.448-8.44 11.412v6.963c0 12.86 0 11.412 8.44 11.412h23.12c8.44 0 8.44 1.449 8.44-11.412v-6.963c0-12.86 0-11.412-8.44-11.412h-3.692zm-19.167-2.97v-10.85c0-5.674 5.142-9.976 11.55-9.976 6.41 0 11.383 3.911 11.383 9.585v11.241h-4.244v-10.485c0-2.078-2.506-6.18-7.117-6.18-4.61 0-6.974 3.91-6.974 6.18v10.485h-4.598z" fill="#7A848D" opacity=".3"/><path d="M1839.397 316h31.432c4.044-.49 7.171-4.035 7.171-8.343 0-3.874-2.526-7.103-5.976-8.11.011-.224.017-.443.017-.67 0-7.114-5.601-12.877-12.51-12.877-5.398 0-9.997 3.52-11.75 8.453a5.465 5.465 0 0 0-3.862-1.605c-3.074 0-5.566 2.565-5.566 5.73 0 .142.007.283.017.424-3.662.962-6.37 4.358-6.37 8.428 0 4.442 3.227 8.08 7.397 8.57" fill="#1E2127"/><path fill="#FFF871" opacity=".3" d="M1 392h638v350H1z"/><path fill="#88FF6A" opacity=".3" d="M776 392h638v350H776z"/><text font-family="GTAmerica-Regular, GT America" font-size="30" fill="#1E2127" transform="translate(1 17)"><tspan x="839" y="485">You’re ready to get your application </tspan> <tspan x="839" y="528">live. Whether you’re launching your </tspan> <tspan x="839" y="571">first application or making a routine </tspan> <tspan x="839" y="614">product release. Being HIPAA </tspan> <tspan x="839" y="657">compliant is as easy as “git push”.</tspan></text><path fill="#41FFF1" opacity=".3" d="M1550 392h638v350h-638z"/><text font-family="GTAmerica-Regular, GT America" font-size="30" fill="#1E2127" transform="translate(1 17)"><tspan x="1591" y="485">Once you’re application is live on Datica </tspan> <tspan x="1591" y="528">you’ll enjoy a suite of tools and </tspan> <tspan x="1591" y="571">products to manage your application’s </tspan> <tspan x="1591" y="614">environment. From intrusion detection </tspan> <tspan x="1591" y="657">to backups and much much more.</tspan></text><text font-family="GTAmerica-Regular, GT America" font-size="30" fill="#1E2127" transform="translate(1 17)"><tspan x="53" y="485">You’re building a product for </tspan> <tspan x="53" y="528">healthcare. Be it for bettering patient </tspan> <tspan x="53" y="571">outcomes through analytics or creating </tspan> <tspan x="53" y="614">the next great telemedicine application.</tspan></text></g></svg>