<?xml version="1.0" encoding="UTF-8"?>
<svg width="500px" height="165px" viewBox="0 0 500 165" version="1.1" xmlns="http://www.w3.org/2000/svg" xmlns:xlink="http://www.w3.org/1999/xlink">
    <!-- Generator: Sketch 41.2 (35397) - http://www.bohemiancoding.com/sketch -->
    <title>_podcast</title>
    <desc>Created with Sketch.</desc>
    <defs></defs>
    <g id="Page-1" stroke="none" stroke-width="1" fill="none" fill-rule="evenodd">
        <g id="Artboard" transform="translate(-1657.000000, -399.000000)" fill="#FFFFFF">
            <path d="M1657.77489,465.246054 L1668.36509,453.413317 L1705.30163,497.462193 L1657.77489,465.246054 Z M1668.36509,523.805148 L1668.36509,507.826634 L1725.19054,515.772706 L1668.36509,523.805148 Z M1715.37523,560.080693 L1704.69894,548.247956 L1752.22568,516.031817 L1715.37523,560.080693 Z M1774.43926,555.589435 L1758.59702,553.948398 L1772.45898,498.066785 L1774.43926,555.589435 Z M1815.42247,512.577003 L1802.50759,521.905001 L1775.55855,471.119238 L1815.42247,512.577003 Z M1817.14445,453.067836 L1813.78658,468.700868 L1759.8885,449.00843 L1817.14445,453.067836 Z M1778.74422,407.723405 L1786.66534,421.62903 L1733.45606,443.135246 L1778.74422,407.723405 Z M1719.93849,399.863703 L1735.09194,404.786813 L1709.95099,456.52265 L1719.93849,399.863703 Z M1670.94806,433.375397 L1685.49882,426.897621 L1701.34107,482.261012 L1670.94806,433.375397 Z M1657,491.243528 L1663.45744,476.64694 L1712.18957,507.135672 L1657,491.243528 Z M1685.15443,543.583957 L1680.24677,528.382776 L1736.72783,518.363816 L1685.15443,543.583957 Z M1741.03279,563.535507 L1727.17082,555.589435 L1762.55758,510.158634 L1741.03279,563.535507 Z M1795.87796,540.906476 L1780.29401,544.27492 L1776.24735,486.838641 L1795.87796,540.906476 Z M1821.53551,487.270492 L1812.1507,500.226044 L1770.8231,460.236574 L1821.53551,487.270492 Z M1804.83227,430.266065 L1806.46815,446.158208 L1749.12611,444.17169 L1804.83227,430.266065 Z M1754.37816,399 L1766.17374,409.709923 L1722.26317,446.762801 L1754.37816,399 Z M1696.00292,409.709923 L1711.93127,409.709923 L1703.92405,466.71435 L1696.00292,409.709923 Z M1854.44261,468.375535 L1872.96539,468.375535 C1888.35242,468.375535 1898.1972,457.582735 1898.1972,442.268627 C1898.1972,426.954519 1888.27949,416.599265 1873.11124,416.599265 L1854.44261,416.599265 L1854.44261,468.375535 Z M1915.91781,469.250627 C1921.82468,469.250627 1926.41892,466.552427 1928.1691,462.104043 C1928.24202,464.364697 1928.4608,466.552427 1928.75249,468.375535 L1937.50341,468.375535 C1936.77417,465.823184 1936.40955,462.031119 1936.40955,457.072265 L1936.40955,446.20654 C1936.40955,435.632513 1931.59654,431.038281 1920.80374,431.038281 C1911.39651,431.038281 1905.27086,435.851286 1904.68747,443.654189 L1913.65716,443.654189 C1913.94886,439.497503 1916.50121,437.236848 1920.80374,437.236848 C1925.4709,437.236848 1927.58571,439.570427 1927.58571,445.039751 L1927.58571,445.987767 L1919.85573,446.935784 C1914.09471,447.737951 1910.59434,448.685967 1907.96906,450.217378 C1905.05209,452.040486 1903.52068,454.957459 1903.52068,458.457827 C1903.52068,464.948092 1908.47953,469.250627 1915.91781,469.250627 Z M1942.17057,438.257789 L1948.73376,438.257789 L1948.73376,457.072265 C1948.73376,464.437621 1951.65073,469.031854 1960.40165,469.031854 C1962.66231,469.031854 1964.26664,468.813081 1966.38145,468.375535 L1966.38145,461.010178 C1965.21466,461.301876 1964.26664,461.447724 1962.80815,461.447724 C1959.16194,461.447724 1957.48468,459.624616 1957.48468,455.686703 L1957.48468,438.257789 L1966.38145,438.257789 L1966.38145,431.913373 L1957.48468,431.913373 L1957.48468,419.22454 L1948.73376,422.724908 L1948.73376,431.913373 L1942.17057,431.913373 L1942.17057,438.257789 Z M1973.96558,425.860654 L1983.44574,425.860654 L1983.44574,416.745113 L1973.96558,416.745113 L1973.96558,425.860654 Z M1974.40312,468.375535 L1983.15404,468.375535 L1983.15404,431.913373 L1974.40312,431.913373 L1974.40312,468.375535 Z M2009.55265,469.250627 C2018.23064,469.250627 2024.35628,464.291773 2025.66892,456.197173 L2017.42847,454.519913 C2016.62631,459.624616 2013.92811,462.322816 2009.55265,462.322816 C2003.93747,462.322816 2000.65588,457.801508 2000.65588,449.925681 C2000.65588,442.414476 2004.0104,437.893167 2009.4068,437.893167 C2013.70933,437.893167 2016.55338,440.591367 2017.13678,445.550221 L2025.66892,444.164659 C2024.57506,435.851286 2018.66819,431.038281 2009.62557,431.038281 C1998.54107,431.038281 1991.68619,438.257789 1991.68619,450.144454 C1991.68619,461.739421 1998.68692,469.250627 2009.55265,469.250627 Z M2043.31661,469.250627 C2049.22348,469.250627 2053.81771,466.552427 2055.56789,462.104043 C2055.64082,464.364697 2055.85959,466.552427 2056.15129,468.375535 L2064.90221,468.375535 C2064.17296,465.823184 2063.80834,462.031119 2063.80834,457.072265 L2063.80834,446.20654 C2063.80834,435.632513 2058.99534,431.038281 2048.20254,431.038281 C2038.7953,431.038281 2032.66966,435.851286 2032.08626,443.654189 L2041.05595,443.654189 C2041.34765,439.497503 2043.9,437.236848 2048.20254,437.236848 C2052.86969,437.236848 2054.9845,439.570427 2054.9845,445.039751 L2054.9845,445.987767 L2047.25452,446.935784 C2041.4935,447.737951 2037.99313,448.685967 2035.36786,450.217378 C2032.45088,452.040486 2030.91947,454.957459 2030.91947,458.457827 C2030.91947,464.948092 2035.87833,469.250627 2043.31661,469.250627 Z M1863.84985,461.010178 L1863.84985,423.964621 L1872.81954,423.964621 C1882.95602,423.964621 1888.35242,431.767524 1888.35242,442.268627 C1888.35242,452.550957 1882.73725,461.010178 1872.67369,461.010178 L1863.84985,461.010178 Z M1870.62328,489.21981 L1863.25657,489.21981 L1863.25657,509.949401 L1858.83654,509.949401 L1858.83654,489.21981 L1851.46983,489.21981 L1851.46983,485.622113 L1870.62328,485.622113 L1870.62328,489.21981 Z M1873.84408,485.108156 L1877.95573,485.108156 L1877.95573,495.969776 C1878.98365,493.548456 1880.82245,492.337815 1883.4722,492.337815 C1885.32245,492.337815 1886.72726,492.926004 1887.68665,494.1024 C1888.64604,495.278796 1889.12573,497.009099 1889.12573,499.293363 L1889.12573,509.949401 L1884.97981,509.949401 L1884.97981,499.636001 C1884.97981,498.333971 1884.71712,497.346041 1884.19174,496.672184 C1883.66636,495.998326 1882.8783,495.661402 1881.82754,495.661402 C1880.59404,495.661402 1879.64037,496.112537 1878.96651,497.014822 C1878.29266,497.917106 1877.95573,499.201985 1877.95573,500.869497 L1877.95573,509.949401 L1873.84408,509.949401 L1873.84408,485.108156 Z M1908.72461,502.411368 L1896.69802,502.411368 C1896.72086,503.850454 1897.14916,504.998279 1897.98291,505.854878 C1898.81667,506.711477 1899.90739,507.13977 1901.25511,507.13977 C1902.23734,507.13977 1903.0825,506.899926 1903.79063,506.420231 C1904.49875,505.940535 1905.04696,505.232424 1905.43529,504.295876 L1908.58756,505.734955 C1907.94796,507.219726 1906.98287,508.361841 1905.69227,509.161333 C1904.40166,509.960826 1902.87693,510.360566 1901.11805,510.360566 C1898.49115,510.360566 1896.43534,509.589639 1894.95057,508.04776 C1893.4658,506.505882 1892.72342,504.341575 1892.72342,501.554773 C1892.72342,498.722286 1893.44867,496.489452 1894.89917,494.856203 C1896.34968,493.222954 1898.35409,492.406342 1900.91247,492.406342 C1903.40231,492.406342 1905.32678,493.108743 1906.68592,494.513565 C1908.04505,495.918387 1908.72461,497.922799 1908.72461,500.52686 L1908.72461,502.411368 Z M1941.68637,509.949401 L1937.26634,509.949401 L1937.26634,499.327627 L1926.3362,499.327627 L1926.3362,509.949401 L1921.91617,509.949401 L1921.91617,485.622113 L1926.3362,485.622113 L1926.3362,495.798457 L1937.26634,495.798457 L1937.26634,485.622113 L1941.68637,485.622113 L1941.68637,509.949401 Z M1962.0048,502.411368 L1949.97821,502.411368 C1950.00105,503.850454 1950.42934,504.998279 1951.2631,505.854878 C1952.09686,506.711477 1953.18758,507.13977 1954.53529,507.13977 C1955.51753,507.13977 1956.36269,506.899926 1957.07081,506.420231 C1957.77893,505.940535 1958.32715,505.232424 1958.71547,504.295876 L1961.86774,505.734955 C1961.22815,507.219726 1960.26306,508.361841 1958.97245,509.161333 C1957.68184,509.960826 1956.15712,510.360566 1954.39824,510.360566 C1951.77133,510.360566 1949.71553,509.589639 1948.23076,508.04776 C1946.74598,506.505882 1946.00361,504.341575 1946.00361,501.554773 C1946.00361,498.722286 1946.72885,496.489452 1948.17936,494.856203 C1949.62987,493.222954 1951.63428,492.406342 1954.19265,492.406342 C1956.6825,492.406342 1958.60696,493.108743 1959.9661,494.513565 C1961.32524,495.918387 1962.0048,497.922799 1962.0048,500.52686 L1962.0048,502.411368 Z M1966.3049,508.972883 C1965.24272,508.047756 1964.71164,506.819982 1964.71164,505.289526 C1964.71164,504.467191 1964.88866,503.724816 1965.24272,503.06238 C1965.59679,502.399943 1966.11645,501.851728 1966.80173,501.417718 C1967.41848,501.052236 1968.16085,500.749575 1969.02887,500.509728 C1969.89689,500.26988 1971.01617,500.058589 1972.38672,499.875848 L1976.01869,499.430418 L1976.01869,498.984989 C1976.01869,497.705801 1975.76171,496.774978 1975.24775,496.192491 C1974.73379,495.610003 1973.9286,495.318764 1972.83215,495.318764 C1971.82708,495.318764 1971.03331,495.57574 1970.45082,496.089699 C1969.86833,496.603659 1969.54283,497.351744 1969.4743,498.333977 L1965.25986,498.333977 C1965.39691,496.506566 1966.13929,495.061791 1967.487,493.999608 C1968.83472,492.937426 1970.61642,492.406342 1972.83215,492.406342 C1975.36769,492.406342 1977.22362,492.971689 1978.40002,494.1024 C1979.57641,495.23311 1980.1646,497.043362 1980.1646,499.53321 L1980.1646,504.638514 C1980.1646,506.968463 1980.33592,508.738741 1980.67856,509.949401 L1976.56691,509.949401 C1976.40701,509.012852 1976.31564,508.030634 1976.2928,507.002715 C1975.88163,508.053476 1975.16781,508.875799 1974.15131,509.469708 C1973.13481,510.063616 1971.92988,510.360566 1970.53648,510.360566 C1968.7776,510.360566 1967.36708,509.898009 1966.3049,508.972883 Z M1989.51862,509.949401 L1985.40696,509.949401 L1985.40696,485.108156 L1989.51862,485.108156 L1989.51862,509.949401 Z M1992.77368,492.817508 L1995.85742,492.817508 L1995.85742,488.500271 L1999.96907,486.855609 L1999.96907,492.817508 L2004.14925,492.817508 L2004.14925,495.798457 L1999.96907,495.798457 L1999.96907,503.987502 C1999.96907,504.92405 2000.17465,505.609319 2000.58582,506.043329 C2000.99699,506.477339 2001.62515,506.694341 2002.47033,506.694341 C2003.04139,506.694341 2003.60103,506.625814 2004.14925,506.488758 L2004.14925,509.949401 C2003.14418,510.154984 2002.20764,510.257775 2001.33962,510.257775 C1999.37516,510.257775 1997.97035,509.778086 1997.12518,508.818696 C1996.28,507.859305 1995.85742,506.465925 1995.85742,504.638514 L1995.85742,495.798457 L1992.77368,495.798457 L1992.77368,492.817508 Z M2008.08959,485.108156 L2012.20124,485.108156 L2012.20124,495.969776 C2013.22916,493.548456 2015.06797,492.337815 2017.71771,492.337815 C2019.56797,492.337815 2020.97277,492.926004 2021.93216,494.1024 C2022.89155,495.278796 2023.37124,497.009099 2023.37124,499.293363 L2023.37124,509.949401 L2019.22532,509.949401 L2019.22532,499.636001 C2019.22532,498.333971 2018.96263,497.346041 2018.43725,496.672184 C2017.91187,495.998326 2017.12381,495.661402 2016.07305,495.661402 C2014.83955,495.661402 2013.88588,496.112537 2013.21202,497.014822 C2012.53817,497.917106 2012.20124,499.201985 2012.20124,500.869497 L2012.20124,509.949401 L2008.08959,509.949401 L2008.08959,485.108156 Z M2030.9264,509.246993 C2029.65863,508.504607 2028.68213,507.459572 2027.99685,506.111857 C2027.31157,504.764141 2026.96893,503.188023 2026.96893,501.383454 C2026.96893,498.596652 2027.72273,496.403792 2029.23034,494.804807 C2030.73796,493.205823 2032.79376,492.406342 2035.39783,492.406342 C2037.52219,492.406342 2039.24678,492.948847 2040.57166,494.033872 C2041.89653,495.118897 2042.68459,496.6322 2042.93586,498.573824 L2038.927,499.224836 C2038.78994,498.059861 2038.40733,497.169012 2037.77916,496.55226 C2037.15099,495.935509 2036.32295,495.627138 2035.29503,495.627138 C2034.01585,495.627138 2033.01079,496.129669 2032.27982,497.134745 C2031.54886,498.139821 2031.18338,499.52178 2031.18338,501.280663 C2031.18338,503.130916 2031.54886,504.564271 2032.27982,505.580768 C2033.01079,506.597265 2034.03869,507.105506 2035.36356,507.105506 C2036.39148,507.105506 2037.21951,506.797135 2037.84769,506.180384 C2038.47586,505.563633 2038.88131,504.649941 2039.06405,503.439281 L2042.93586,504.227348 C2042.6389,506.123287 2041.81087,507.619458 2040.45173,508.715904 C2039.0926,509.812351 2037.39656,510.360566 2035.36356,510.360566 C2033.67321,510.360566 2032.19417,509.989379 2030.9264,509.246993 Z M2046.99612,508.972883 C2045.93393,508.047756 2045.40285,506.819982 2045.40285,505.289526 C2045.40285,504.467191 2045.57988,503.724816 2045.93394,503.06238 C2046.288,502.399943 2046.80766,501.851728 2047.49294,501.417718 C2048.10969,501.052236 2048.85207,500.749575 2049.72009,500.509728 C2050.58811,500.26988 2051.70738,500.058589 2053.07794,499.875848 L2056.7099,499.430418 L2056.7099,498.984989 C2056.7099,497.705801 2056.45292,496.774978 2055.93896,496.192491 C2055.42501,495.610003 2054.61981,495.318764 2053.52337,495.318764 C2052.51829,495.318764 2051.72452,495.57574 2051.14203,496.089699 C2050.55955,496.603659 2050.23404,497.351744 2050.16552,498.333977 L2045.95107,498.333977 C2046.08813,496.506566 2046.8305,495.061791 2048.17822,493.999608 C2049.52593,492.937426 2051.30763,492.406342 2053.52337,492.406342 C2056.0589,492.406342 2057.91484,492.971689 2059.09123,494.1024 C2060.26763,495.23311 2060.85582,497.043362 2060.85582,499.53321 L2060.85582,504.638514 C2060.85582,506.968463 2061.02714,508.738741 2061.36977,509.949401 L2057.25812,509.949401 C2057.09822,509.012852 2057.00685,508.030634 2056.98401,507.002715 C2056.57284,508.053476 2055.85902,508.875799 2054.84252,509.469708 C2053.82603,510.063616 2052.6211,510.360566 2051.22769,510.360566 C2049.46881,510.360566 2048.0583,509.898009 2046.99612,508.972883 Z M2071.82023,493.622707 C2072.73393,492.811793 2073.86463,492.406342 2075.21234,492.406342 C2075.41793,492.406342 2075.57782,492.417764 2075.69204,492.440606 L2075.69204,496.380942 L2075.14382,496.380942 C2073.61336,496.380942 2072.42556,496.780682 2071.58038,497.580174 C2070.96363,498.196925 2070.55247,498.927879 2070.34689,499.773056 C2070.1413,500.618234 2070.03851,501.623295 2070.03851,502.788269 L2070.03851,509.949401 L2065.92686,509.949401 L2065.92686,492.817508 L2069.7644,492.817508 L2069.7644,496.963426 C2070.22125,495.547182 2070.90652,494.43362 2071.82023,493.622707 Z M2093.64626,502.411368 L2081.61967,502.411368 C2081.64251,503.850454 2082.07081,504.998279 2082.90456,505.854878 C2083.73832,506.711477 2084.82904,507.13977 2086.17676,507.13977 C2087.15899,507.13977 2088.00415,506.899926 2088.71228,506.420231 C2089.4204,505.940535 2089.96861,505.232424 2090.35694,504.295876 L2093.50921,505.734955 C2092.86961,507.219726 2091.90452,508.361841 2090.61392,509.161333 C2089.32331,509.960826 2087.79858,510.360566 2086.0397,510.360566 C2083.4128,510.360566 2081.35699,509.589639 2079.87222,508.04776 C2078.38745,506.505882 2077.64507,504.341575 2077.64507,501.554773 C2077.64507,498.722286 2078.37032,496.489452 2079.82082,494.856203 C2081.27133,493.222954 2083.27574,492.406342 2085.83412,492.406342 C2088.32397,492.406342 2090.24843,493.108743 2091.60757,494.513565 C2092.9667,495.918387 2093.64626,497.922799 2093.64626,500.52686 L2093.64626,502.411368 Z M1854.17666,550.739621 L1854.17666,526.412334 L1858.59669,526.412334 L1858.59669,550.739621 L1854.17666,550.739621 Z M1864.35301,533.607729 L1868.25908,533.607729 L1868.25908,536.931316 C1869.42405,534.418626 1871.31996,533.162299 1873.94687,533.162299 C1875.81996,533.162299 1877.23619,533.750488 1878.19558,534.926884 C1879.15497,536.10328 1879.63466,537.833584 1879.63466,540.117848 L1879.63466,550.739621 L1875.48874,550.739621 L1875.48874,540.529013 C1875.48874,537.833582 1874.42657,536.485887 1872.30221,536.485887 C1871.09155,536.485887 1870.1493,536.942732 1869.47544,537.856438 C1868.80159,538.770144 1868.46466,540.037891 1868.46466,541.659718 L1868.46466,550.739621 L1864.35301,550.739621 L1864.35301,533.607729 Z M1884.67143,533.607729 L1888.5775,533.607729 L1888.5775,536.931316 C1889.74248,534.418626 1891.63839,533.162299 1894.26529,533.162299 C1896.13839,533.162299 1897.55461,533.750488 1898.514,534.926884 C1899.47339,536.10328 1899.95308,537.833584 1899.95308,540.117848 L1899.95308,550.739621 L1895.80716,550.739621 L1895.80716,540.529013 C1895.80716,537.833582 1894.745,536.485887 1892.62063,536.485887 C1891.40997,536.485887 1890.46773,536.942732 1889.79387,537.856438 C1889.12001,538.770144 1888.78309,540.037891 1888.78309,541.659718 L1888.78309,550.739621 L1884.67143,550.739621 L1884.67143,533.607729 Z M1907.57677,550.088609 C1906.30901,549.380488 1905.32108,548.346874 1904.61296,546.987737 C1903.90483,545.6286 1903.55078,544.012507 1903.55078,542.139411 C1903.55078,540.266315 1903.90483,538.655933 1904.61296,537.308217 C1905.32108,535.960502 1906.30901,534.938309 1907.57677,534.241609 C1908.84454,533.544908 1910.30074,533.196563 1911.94541,533.196563 C1913.59008,533.196563 1915.04627,533.544908 1916.31404,534.241609 C1917.58181,534.938309 1918.56973,535.960502 1919.27786,537.308217 C1919.98598,538.655933 1920.34003,540.266315 1920.34003,542.139411 C1920.34003,544.012507 1919.98598,545.6286 1919.27786,546.987737 C1918.56973,548.346874 1917.58181,549.380488 1916.31404,550.088609 C1915.04627,550.796731 1913.59008,551.150787 1911.94541,551.150787 C1910.30074,551.150787 1908.84454,550.796731 1907.57677,550.088609 Z M1921.8819,533.607729 L1926.19914,533.607729 L1929.55699,544.469349 C1929.73973,545.108942 1929.94531,545.954107 1930.17374,547.004869 L1930.27653,547.004869 C1930.43643,546.114006 1930.64201,545.268841 1930.89328,544.469349 L1934.21687,533.607729 L1938.5341,533.607729 L1932.43515,550.739621 L1927.98086,550.739621 L1921.8819,533.607729 Z M1941.60071,549.763103 C1940.53853,548.837977 1940.00745,547.610203 1940.00745,546.079747 C1940.00745,545.257412 1940.18447,544.515037 1940.53854,543.8526 C1940.8926,543.190164 1941.41226,542.641949 1942.09754,542.207939 C1942.71429,541.842457 1943.45666,541.539796 1944.32468,541.299948 C1945.1927,541.060101 1946.31198,540.84881 1947.68253,540.666068 L1951.3145,540.220639 L1951.3145,539.77521 C1951.3145,538.496022 1951.05752,537.565199 1950.54356,536.982711 C1950.0296,536.400224 1949.22441,536.108985 1948.12796,536.108985 C1947.12289,536.108985 1946.32912,536.365961 1945.74663,536.87992 C1945.16414,537.393879 1944.83864,538.141965 1944.77011,539.124198 L1940.55567,539.124198 C1940.69272,537.296787 1941.4351,535.852012 1942.78281,534.789829 C1944.13053,533.727647 1945.91223,533.196563 1948.12796,533.196563 C1950.6635,533.196563 1952.51943,533.76191 1953.69583,534.892621 C1954.87222,536.023331 1955.46041,537.833583 1955.46041,540.323431 L1955.46041,545.428735 C1955.46041,547.758684 1955.63173,549.528962 1955.97437,550.739621 L1951.86272,550.739621 C1951.70282,549.803073 1951.61145,548.820854 1951.58861,547.792936 C1951.17744,548.843697 1950.46362,549.66602 1949.44712,550.259928 C1948.43062,550.853837 1947.22569,551.150787 1945.83229,551.150787 C1944.07341,551.150787 1942.6629,550.68823 1941.60071,549.763103 Z M1958.16725,533.607729 L1961.25099,533.607729 L1961.25099,529.290492 L1965.36265,527.64583 L1965.36265,533.607729 L1969.54283,533.607729 L1969.54283,536.588678 L1965.36265,536.588678 L1965.36265,544.777723 C1965.36265,545.714271 1965.56823,546.39954 1965.9794,546.83355 C1966.39056,547.26756 1967.01873,547.484562 1967.8639,547.484562 C1968.43497,547.484562 1968.99461,547.416035 1969.54283,547.278979 L1969.54283,550.739621 C1968.53775,550.945205 1967.60122,551.047995 1966.7332,551.047995 C1964.76873,551.047995 1963.36393,550.568307 1962.51875,549.608916 C1961.67358,548.649526 1961.25099,547.256146 1961.25099,545.428735 L1961.25099,536.588678 L1958.16725,536.588678 L1958.16725,533.607729 Z M1975.89876,550.088609 C1974.631,549.380488 1973.64307,548.346874 1972.93494,546.987737 C1972.22682,545.6286 1971.87277,544.012507 1971.87277,542.139411 C1971.87277,540.266315 1972.22682,538.655933 1972.93494,537.308217 C1973.64307,535.960502 1974.631,534.938309 1975.89876,534.241609 C1977.16653,533.544908 1978.62272,533.196563 1980.26739,533.196563 C1981.91206,533.196563 1983.36826,533.544908 1984.63603,534.241609 C1985.90379,534.938309 1986.89172,535.960502 1987.59984,537.308217 C1988.30797,538.655933 1988.66202,540.266315 1988.66202,542.139411 C1988.66202,544.012507 1988.30797,545.6286 1987.59984,546.987737 C1986.89172,548.346874 1985.90379,549.380488 1984.63603,550.088609 C1983.36826,550.796731 1981.91206,551.150787 1980.26739,551.150787 C1978.62272,551.150787 1977.16653,550.796731 1975.89876,550.088609 Z M1998.59852,534.412928 C1999.51223,533.602014 2000.64292,533.196563 2001.99063,533.196563 C2002.19622,533.196563 2002.35611,533.207984 2002.47033,533.230827 L2002.47033,537.171162 L2001.92211,537.171162 C2000.39165,537.171162 1999.20385,537.570902 1998.35867,538.370395 C1997.74192,538.987146 1997.33076,539.718099 1997.12518,540.563277 C1996.91959,541.408455 1996.8168,542.413516 1996.8168,543.57849 L1996.8168,550.739621 L1992.70515,550.739621 L1992.70515,533.607729 L1996.54269,533.607729 L1996.54269,537.753647 C1996.99955,536.337403 1997.68481,535.223841 1998.59852,534.412928 Z M2006.95888,549.865895 C2005.58833,549.009296 2004.62895,547.781523 2004.08073,546.182538 L2007.1302,544.811986 C2007.54137,545.908433 2008.16953,546.736466 2009.01471,547.296111 C2009.85989,547.855756 2010.88779,548.135574 2012.09845,548.135574 C2013.12637,548.135574 2013.90872,547.952835 2014.44552,547.587353 C2014.98232,547.221871 2015.25072,546.707919 2015.25072,546.045483 C2015.25072,545.360204 2015.05085,544.851963 2014.6511,544.520744 C2014.25136,544.189526 2013.58322,543.966814 2012.64667,543.8526 L2010.04262,543.509963 C2008.30658,543.281536 2007.00457,542.727611 2006.13655,541.848169 C2005.26853,540.968727 2004.83453,539.820902 2004.83453,538.404659 C2004.83453,536.805674 2005.45127,535.537927 2006.68477,534.601378 C2007.91828,533.66483 2009.62003,533.196563 2011.79008,533.196563 C2013.64033,533.196563 2015.21645,533.584882 2016.51848,534.361532 C2017.82051,535.138182 2018.68852,536.200348 2019.12253,537.548064 L2016.27863,539.089934 C2015.84462,538.176229 2015.2393,537.462407 2014.46265,536.948448 C2013.686,536.434488 2012.76089,536.177513 2011.68729,536.177513 C2010.70505,536.177513 2009.95126,536.34883 2009.42588,536.691469 C2008.9005,537.034109 2008.63781,537.536639 2008.63781,538.199076 C2008.63781,538.792984 2008.8491,539.261251 2009.27169,539.603891 C2009.69428,539.946531 2010.35099,540.163532 2011.24186,540.254903 L2014.12001,540.666068 C2015.83321,540.871652 2017.08383,541.402736 2017.8719,542.259334 C2018.65997,543.115933 2019.054,544.27518 2019.054,545.737109 C2019.054,547.427464 2018.43155,548.752317 2017.18662,549.711708 C2015.9417,550.671099 2014.2114,551.150787 2011.99566,551.150787 C2010.00835,551.150787 2008.32944,550.722494 2006.95888,549.865895 Z M2046.08813,527.320324 C2047.36731,527.925654 2048.35524,528.787951 2049.05194,529.90724 C2049.74864,531.026529 2050.09699,532.32854 2050.09699,533.813311 C2050.09699,536.120418 2049.33177,537.947801 2047.80132,539.295517 C2046.27086,540.643233 2044.19221,541.31708 2041.56531,541.31708 L2036.39148,541.31708 L2036.39148,550.739621 L2031.97145,550.739621 L2031.97145,526.412334 L2041.59957,526.412334 C2043.31277,526.412334 2044.80894,526.714994 2046.08813,527.320324 Z M2056.00749,550.088609 C2054.73973,549.380488 2053.7518,548.346874 2053.04367,546.987737 C2052.33555,545.6286 2051.9815,544.012507 2051.9815,542.139411 C2051.9815,540.266315 2052.33555,538.655933 2053.04367,537.308217 C2053.7518,535.960502 2054.73973,534.938309 2056.00749,534.241609 C2057.27526,533.544908 2058.73146,533.196563 2060.37612,533.196563 C2062.02079,533.196563 2063.47699,533.544908 2064.74476,534.241609 C2066.01252,534.938309 2067.00045,535.960502 2067.70858,537.308217 C2068.4167,538.655933 2068.77075,540.266315 2068.77075,542.139411 C2068.77075,544.012507 2068.4167,545.6286 2067.70858,546.987737 C2067.00045,548.346874 2066.01252,549.380488 2064.74476,550.088609 C2063.47699,550.796731 2062.02079,551.150787 2060.37612,551.150787 C2058.73146,551.150787 2057.27526,550.796731 2056.00749,550.088609 Z M2074.69839,550.037214 C2073.64763,549.294828 2072.83672,548.244082 2072.26566,546.884945 C2071.69459,545.525809 2071.40906,543.966822 2071.40906,542.207939 C2071.40906,540.449056 2071.71172,538.884358 2072.31705,537.5138 C2072.92238,536.143242 2073.77326,535.081075 2074.86971,534.327268 C2075.96615,533.573461 2077.22248,533.196563 2078.63872,533.196563 C2080.94583,533.196563 2082.59047,534.144518 2083.57271,536.040457 L2083.57271,525.898377 L2087.68436,525.898377 L2087.68436,550.739621 L2083.81255,550.739621 L2083.81255,547.655881 C2083.33286,548.752327 2082.61904,549.608913 2081.67107,550.225665 C2080.7231,550.842416 2079.60954,551.150787 2078.33035,551.150787 C2076.95979,551.150787 2075.74915,550.779599 2074.69839,550.037214 Z M2095.85627,550.037214 C2094.58851,549.294828 2093.612,548.249793 2092.92672,546.902077 C2092.24144,545.554362 2091.89881,543.978243 2091.89881,542.173675 C2091.89881,539.386873 2092.6526,537.194013 2094.16022,535.595028 C2095.66783,533.996044 2097.72364,533.196563 2100.3277,533.196563 C2102.45206,533.196563 2104.17666,533.739068 2105.50153,534.824093 C2106.8264,535.909118 2107.61446,537.42242 2107.86573,539.364045 L2103.85687,540.015056 C2103.71981,538.850082 2103.3372,537.959232 2102.70903,537.342481 C2102.08086,536.72573 2101.25283,536.417359 2100.22491,536.417359 C2098.94572,536.417359 2097.94066,536.91989 2097.20969,537.924966 C2096.47873,538.930042 2096.11325,540.312 2096.11325,542.070884 C2096.11325,543.921137 2096.47873,545.354491 2097.20969,546.370989 C2097.94066,547.387486 2098.96856,547.895727 2100.29344,547.895727 C2101.32135,547.895727 2102.14939,547.587356 2102.77756,546.970605 C2103.40573,546.353854 2103.81118,545.440162 2103.99392,544.229502 L2107.86573,545.017569 C2107.56878,546.913508 2106.74074,548.409678 2105.38161,549.506125 C2104.02247,550.602572 2102.32643,551.150787 2100.29344,551.150787 C2098.60308,551.150787 2097.12404,550.779599 2095.85627,550.037214 Z M2111.92599,549.763103 C2110.86381,548.837977 2110.33272,547.610203 2110.33272,546.079747 C2110.33272,545.257412 2110.50975,544.515037 2110.86381,543.8526 C2111.21787,543.190164 2111.73754,542.641949 2112.42282,542.207939 C2113.03957,541.842457 2113.78194,541.539796 2114.64996,541.299948 C2115.51798,541.060101 2116.63725,540.84881 2118.00781,540.666068 L2121.63977,540.220639 L2121.63977,539.77521 C2121.63977,538.496022 2121.3828,537.565199 2120.86884,536.982711 C2120.35488,536.400224 2119.54969,536.108985 2118.45324,536.108985 C2117.44817,536.108985 2116.6544,536.365961 2116.07191,536.87992 C2115.48942,537.393879 2115.16392,538.141965 2115.09539,539.124198 L2110.88094,539.124198 C2111.018,537.296787 2111.76038,535.852012 2113.10809,534.789829 C2114.45581,533.727647 2116.23751,533.196563 2118.45324,533.196563 C2120.98877,533.196563 2122.84471,533.76191 2124.02111,534.892621 C2125.1975,536.023331 2125.78569,537.833583 2125.78569,540.323431 L2125.78569,545.428735 C2125.78569,547.758684 2125.95701,549.528962 2126.29965,550.739621 L2122.18799,550.739621 C2122.0281,549.803073 2121.93673,548.820854 2121.91388,547.792936 C2121.50272,548.843697 2120.78889,549.66602 2119.7724,550.259928 C2118.7559,550.853837 2117.55097,551.150787 2116.15757,551.150787 C2114.39868,551.150787 2112.98817,550.68823 2111.92599,549.763103 Z M2131.95317,549.865895 C2130.58261,549.009296 2129.62324,547.781523 2129.07501,546.182538 L2132.12449,544.811986 C2132.53566,545.908433 2133.16382,546.736466 2134.009,547.296111 C2134.85418,547.855756 2135.88208,548.135574 2137.09274,548.135574 C2138.12066,548.135574 2138.90301,547.952835 2139.43981,547.587353 C2139.97661,547.221871 2140.24501,546.707919 2140.24501,546.045483 C2140.24501,545.360204 2140.04514,544.851963 2139.64539,544.520744 C2139.24565,544.189526 2138.57751,543.966814 2137.64096,543.8526 L2135.03691,543.509963 C2133.30087,543.281536 2131.99886,542.727611 2131.13084,541.848169 C2130.26282,540.968727 2129.82882,539.820902 2129.82882,538.404659 C2129.82882,536.805674 2130.44556,535.537927 2131.67906,534.601378 C2132.91256,533.66483 2134.61432,533.196563 2136.78437,533.196563 C2138.63462,533.196563 2140.21074,533.584882 2141.51277,534.361532 C2142.8148,535.138182 2143.68281,536.200348 2144.11682,537.548064 L2141.27292,539.089934 C2140.83891,538.176229 2140.23359,537.462407 2139.45694,536.948448 C2138.68029,536.434488 2137.75518,536.177513 2136.68158,536.177513 C2135.69934,536.177513 2134.94555,536.34883 2134.42017,536.691469 C2133.89478,537.034109 2133.6321,537.536639 2133.6321,538.199076 C2133.6321,538.792984 2133.84339,539.261251 2134.26598,539.603891 C2134.68857,539.946531 2135.34528,540.163532 2136.23615,540.254903 L2139.1143,540.666068 C2140.8275,540.871652 2142.07812,541.402736 2142.86619,542.259334 C2143.65426,543.115933 2144.04829,544.27518 2144.04829,545.737109 C2144.04829,547.427464 2143.42584,548.752317 2142.18091,549.711708 C2140.93599,550.671099 2139.20569,551.150787 2136.98995,551.150787 C2135.00264,551.150787 2133.32373,550.722494 2131.95317,549.865895 Z M2145.62442,533.607729 L2148.70816,533.607729 L2148.70816,529.290492 L2152.81982,527.64583 L2152.81982,533.607729 L2157,533.607729 L2157,536.588678 L2152.81982,536.588678 L2152.81982,544.777723 C2152.81982,545.714271 2153.0254,546.39954 2153.43657,546.83355 C2153.84773,547.26756 2154.4759,547.484562 2155.32107,547.484562 C2155.89214,547.484562 2156.45178,547.416035 2157,547.278979 L2157,550.739621 C2155.99492,550.945205 2155.05839,551.047995 2154.19037,551.047995 C2152.2259,551.047995 2150.8211,550.568307 2149.97592,549.608916 C2149.13075,548.649526 2148.70816,547.256146 2148.70816,545.428735 L2148.70816,536.588678 L2145.62442,536.588678 L2145.62442,533.607729 Z M2120.5776,547.004869 C2121.35425,546.182534 2121.74256,545.086104 2121.74256,543.715545 L2121.74256,542.619104 L2117.87076,543.201589 C2116.72863,543.38433 2115.89488,543.692701 2115.3695,544.126711 C2114.84412,544.560721 2114.58143,545.143199 2114.58143,545.874164 C2114.58143,546.605128 2114.83841,547.181896 2115.35237,547.604485 C2115.86633,548.027074 2116.58015,548.238365 2117.49386,548.238365 C2118.77304,548.238365 2119.80095,547.827204 2120.5776,547.004869 Z M2082.61332,546.576571 C2083.32144,545.628602 2083.6755,544.355144 2083.6755,542.756159 L2083.6755,541.659718 C2083.6755,539.992206 2083.32144,538.690195 2082.61332,537.753647 C2081.9052,536.817098 2080.9344,536.348831 2079.7009,536.348831 C2078.44455,536.348831 2077.46234,536.857073 2076.75421,537.87357 C2076.04609,538.890067 2075.69204,540.312 2075.69204,542.139411 C2075.69204,543.966822 2076.0518,545.400176 2076.77135,546.439516 C2077.49089,547.478856 2078.47882,547.998518 2079.73516,547.998518 C2080.94582,547.998518 2081.9052,547.524541 2082.61332,546.576571 Z M2063.45987,546.542308 C2064.19083,545.548653 2064.55631,544.081035 2064.55631,542.139411 C2064.55631,540.22063 2064.19654,538.770144 2063.477,537.78791 C2062.75745,536.805677 2061.72384,536.314568 2060.37612,536.314568 C2059.02841,536.314568 2057.98908,536.805677 2057.25812,537.78791 C2056.52716,538.770144 2056.16168,540.22063 2056.16168,542.139411 C2056.16168,544.058193 2056.52716,545.5201 2057.25812,546.525176 C2057.98908,547.530252 2059.02841,548.032782 2060.37612,548.032782 C2061.701,548.032782 2062.7289,547.535962 2063.45987,546.542308 Z M2044.18649,536.862788 C2045.02024,536.131824 2045.43711,535.138184 2045.43711,533.881839 C2045.43711,532.625494 2045.02024,531.631854 2044.18649,530.90089 C2043.35273,530.169925 2042.21633,529.804448 2040.77724,529.804448 L2036.39148,529.804448 L2036.39148,537.959229 L2040.77724,537.959229 C2042.21633,537.959229 2043.35273,537.593753 2044.18649,536.862788 Z M1983.35114,546.542308 C1984.0821,545.548653 1984.44758,544.081035 1984.44758,542.139411 C1984.44758,540.22063 1984.08781,538.770144 1983.36827,537.78791 C1982.64872,536.805677 1981.61511,536.314568 1980.26739,536.314568 C1978.91968,536.314568 1977.88035,536.805677 1977.14939,537.78791 C1976.41843,538.770144 1976.05295,540.22063 1976.05295,542.139411 C1976.05295,544.058193 1976.41843,545.5201 1977.14939,546.525176 C1977.88035,547.530252 1978.91968,548.032782 1980.26739,548.032782 C1981.59227,548.032782 1982.62017,547.535962 1983.35114,546.542308 Z M1950.25232,547.004869 C1951.02897,546.182534 1951.41729,545.086104 1951.41729,543.715545 L1951.41729,542.619104 L1947.54548,543.201589 C1946.40335,543.38433 1945.5696,543.692701 1945.04422,544.126711 C1944.51884,544.560721 1944.25616,545.143199 1944.25616,545.874164 C1944.25616,546.605128 1944.51313,547.181896 1945.02709,547.604485 C1945.54105,548.027074 1946.25487,548.238365 1947.16858,548.238365 C1948.44777,548.238365 1949.47567,547.827204 1950.25232,547.004869 Z M1915.02915,546.542308 C1915.76011,545.548653 1916.12559,544.081035 1916.12559,542.139411 C1916.12559,540.22063 1915.76582,538.770144 1915.04628,537.78791 C1914.32674,536.805677 1913.29312,536.314568 1911.94541,536.314568 C1910.59769,536.314568 1909.55837,536.805677 1908.8274,537.78791 C1908.09644,538.770144 1907.73096,540.22063 1907.73096,542.139411 C1907.73096,544.058193 1908.09644,545.5201 1908.8274,546.525176 C1909.55837,547.530252 1910.59769,548.032782 1911.94541,548.032782 C1913.27028,548.032782 1914.29818,547.535962 1915.02915,546.542308 Z M2089.60313,499.430418 C2089.60313,498.037018 2089.27192,496.974851 2088.60948,496.243886 C2087.94705,495.512922 2086.99909,495.147445 2085.76559,495.147445 C2084.46356,495.147445 2083.4585,495.547185 2082.75038,496.346678 C2082.04226,497.14617 2081.66536,498.265443 2081.61967,499.704529 L2089.60313,499.704529 L2089.60313,499.430418 Z M2055.64772,506.214648 C2056.42437,505.392313 2056.81269,504.295883 2056.81269,502.925325 L2056.81269,501.828883 L2052.94088,502.411368 C2051.79875,502.594109 2050.96501,502.90248 2050.43963,503.33649 C2049.91425,503.7705 2049.65156,504.352979 2049.65156,505.083943 C2049.65156,505.814907 2049.90854,506.391675 2050.4225,506.814264 C2050.93645,507.236853 2051.65028,507.448144 2052.56398,507.448144 C2053.84317,507.448144 2054.87107,507.036983 2055.64772,506.214648 Z M1974.95651,506.214648 C1975.73316,505.392313 1976.12148,504.295883 1976.12148,502.925325 L1976.12148,501.828883 L1972.24967,502.411368 C1971.10754,502.594109 1970.27379,502.90248 1969.74841,503.33649 C1969.22303,503.7705 1968.96035,504.352979 1968.96035,505.083943 C1968.96035,505.814907 1969.21732,506.391675 1969.73128,506.814264 C1970.24524,507.236853 1970.95906,507.448144 1971.87277,507.448144 C1973.15195,507.448144 1974.17986,507.036983 1974.95651,506.214648 Z M1957.96167,499.430418 C1957.96167,498.037018 1957.63046,496.974851 1956.96802,496.243886 C1956.30558,495.512922 1955.35763,495.147445 1954.12413,495.147445 C1952.8221,495.147445 1951.81703,495.547185 1951.10891,496.346678 C1950.40079,497.14617 1950.02389,498.265443 1949.97821,499.704529 L1957.96167,499.704529 L1957.96167,499.430418 Z M1904.68148,499.430418 C1904.68148,498.037018 1904.35027,496.974851 1903.68783,496.243886 C1903.0254,495.512922 1902.07744,495.147445 1900.84394,495.147445 C1899.54191,495.147445 1898.53685,495.547185 1897.82873,496.346678 C1897.1206,497.14617 1896.74371,498.265443 1896.69802,499.704529 L1904.68148,499.704529 L1904.68148,499.430418 Z M1918.76186,463.052059 C1914.89687,463.052059 1912.56329,461.083103 1912.56329,458.020281 C1912.56329,454.884535 1914.75102,453.134351 1919.56403,452.332184 L1927.80448,451.09247 L1927.80448,453.426048 C1927.80448,459.259994 1924.15826,463.052059 1918.76186,463.052059 Z M2046.16066,463.052059 C2042.29567,463.052059 2039.96209,461.083103 2039.96209,458.020281 C2039.96209,454.884535 2042.14982,453.134351 2046.96282,452.332184 L2055.20327,451.09247 L2055.20327,453.426048 C2055.20327,459.259994 2051.55706,463.052059 2046.16066,463.052059 Z" id="_podcast"></path>
        </g>
    </g>
</svg>