<svg width="1873" height="1169" viewBox="0 0 1873 1169" xmlns="http://www.w3.org/2000/svg"><title>spiral-center-top</title><g stroke="#B3C8D6" fill="none" fill-rule="evenodd" opacity=".4"><path d="M936.5-482.099L1594.099 833.1H278.9z"/><path d="M1050.69-472.109L1469.919 937.3 174.7 708.918z"/><path d="M1161.412-442.44l168.117 1460.793L93.647 568.529z"/><path d="M1265.3-393.997l-88.102 1467.794-1138.995-657.6z"/><path d="M1359.196-328.25l-341.642 1430.196-1007.5-845.392z"/><path d="M1440.25-247.196L855.446 1101.946 10.054 94.446z"/><path d="M1505.997-153.3L695.802 1073.798 38.203-65.198z"/><path d="M1554.44-49.412L543.472 1018.353 93.647-217.53z"/><path d="M1584.109 61.31L403.082 937.3 174.701-357.919z"/><path d="M1594.099 175.5L278.9 833.099V-482.1z"/><path d="M1584.109 289.69L174.7 708.919 403.082-586.3z"/><path d="M1554.44 400.412L93.648 568.53 543.471-667.353z"/><path d="M1505.997 504.3L38.203 416.197l657.6-1138.995z"/><path d="M1440.25 598.196L10.054 256.554l845.392-1007.5z"/><path d="M1359.196 679.25L10.054 94.446l1007.5-845.392z"/><path d="M1265.3 744.997L38.202-65.198l1138.995-657.599z"/><path d="M1161.412 793.44L93.647-217.528 1329.53-667.353z"/><path d="M1050.69 823.109L174.7-357.918l1295.218-228.381z"/><path d="M936.5 833.099L278.901-482.1H1594.1z"/><path d="M822.31 823.109L403.081-586.3 1698.3-357.918z"/><path d="M711.588 793.44L543.47-667.352l1235.882 449.824z"/><path d="M607.7 744.997l88.102-1467.794 1138.995 657.6z"/><path d="M513.804 679.25L855.446-750.946l1007.5 845.392z"/><path d="M432.75 598.196l584.804-1349.142 845.392 1007.5z"/><path d="M367.003 504.3l810.195-1227.097 657.599 1138.995z"/><path d="M318.56 400.412L1329.528-667.353 1779.353 568.53z"/><path d="M288.891 289.69L1469.918-586.3l228.381 1295.218z"/><path d="M278.901 175.5L1594.1-482.099V833.1z"/><path d="M288.891 61.31L1698.3-357.919 1469.918 937.3z"/><path d="M318.56-49.412L1779.352-217.53l-449.824 1235.882z"/><path d="M367.003-153.3l1467.794 88.102-657.6 1138.995z"/><path d="M432.75-247.196L1862.946 94.446l-845.392 1007.5z"/><path d="M513.804-328.25l1349.142 584.804-1007.5 845.392z"/><path d="M607.7-393.997l1227.097 810.195-1138.995 657.599z"/><path d="M711.588-442.44L1779.353 568.528 543.47 1018.353z"/><path d="M822.31-472.109L1698.3 708.918 403.081 937.299z"/><path d="M936.5-482.099L1594.099 833.1H278.9z"/></g></svg>