<?xml version="1.0" encoding="UTF-8"?>
<svg width="28px" height="19px" viewBox="0 0 28 19" version="1.1" xmlns="http://www.w3.org/2000/svg" xmlns:xlink="http://www.w3.org/1999/xlink">
    <!-- Generator: Sketch 42 (36781) - http://www.bohemiancoding.com/sketch -->
    <title>emailicon-</title>
    <desc>Created with Sketch.</desc>
    <defs></defs>
    <g id="Page-1" stroke="none" stroke-width="1" fill="none" fill-rule="evenodd">
        <g id="blog---share-buttons" transform="translate(-112.000000, -612.000000)" fill-rule="nonzero" fill="#4B4B4B">
            <g id="email" transform="translate(112.000000, 612.000000)">
                <path d="M0.892888889,2.03616667 C1.652,2.451 12.1675556,8.20166667 12.5595556,8.41541667 C12.9515556,8.62916667 13.4586667,8.7305 13.9688889,8.7305 C14.4791111,8.7305 14.9862222,8.62916667 15.3782222,8.41541667 C15.7702222,8.20166667 26.2857778,2.451 27.0448889,2.03616667 C27.8055556,1.61975 28.5242222,0 27.1288889,0 L0.810444444,0 C-0.584888889,0 0.133777778,1.61975 0.892888889,2.03616667 L0.892888889,2.03616667 Z M27.398,5.52425 C26.5346667,5.98183333 15.9071111,11.6185 15.3782222,11.9003333 C14.8493333,12.1821667 14.4791111,12.2154167 13.9688889,12.2154167 C13.4586667,12.2154167 13.0884444,12.1821667 12.5595556,11.9003333 C12.0306667,11.6185 1.46377778,5.98025 0.600444444,5.52266667 C-0.00622222222,5.19966667 -5.26739148e-15,5.57808333 -5.26739148e-15,5.86941667 L-5.26739148e-15,17.4166667 C-5.26739148e-15,18.0816667 0.880444444,19 1.55555556,19 L26.4444444,19 C27.1195556,19 28,18.0816667 28,17.4166667 L28,5.871 C28,5.57966667 28.0062222,5.20125 27.398,5.52425 Z" id="Shape"></path>
            </g>
        </g>
    </g>
</svg>