<?xml version="1.0" encoding="UTF-8"?>
<svg width="28px" height="28px" viewBox="0 0 28 28" version="1.1" xmlns="http://www.w3.org/2000/svg" xmlns:xlink="http://www.w3.org/1999/xlink">
    <!-- Generator: Sketch 42 (36781) - http://www.bohemiancoding.com/sketch -->
    <title>linkedinicon-</title>
    <desc>Created with Sketch.</desc>
    <defs></defs>
    <g id="Page-1" stroke="none" stroke-width="1" fill="none" fill-rule="evenodd">
        <g id="blog---share-buttons" transform="translate(-112.000000, -511.000000)" fill-rule="nonzero" fill="#0077B5">
            <g id="linkedin" transform="translate(112.000000, 511.000000)">
                <path d="M0,5.2665865 C0,2.35793075 2.33910442,0 5.2665858,0 L22.7334142,0 C25.6420692,0 28,2.33910425 28,5.2665865 L28,22.7334135 C28,25.6420692 25.6608956,28 22.7334142,28 L5.2665858,28 C2.35793075,28 0,25.6608958 0,22.7334135 L0,5.2665865 Z M24.1138373,16.8424219 C24.1138373,12.9195806 22.019187,11.0941989 19.2250459,11.0942452 C16.9697645,11.0942452 15.9621826,12.3355892 15.3979939,13.2045539 L15.3979939,13.2458171 L15.370086,13.2458171 C15.3781913,13.2326921 15.389382,13.2180936 15.3979939,13.2045539 L15.3979939,11.394278 L11.1514959,11.394278 C11.2086931,12.5932536 11.1514959,24.1655467 11.1514959,24.1655467 L15.3984084,24.1655467 L15.3984084,17.0332636 C15.3984084,16.6511212 15.4272371,16.2711407 15.5392367,15.998143 C15.8463606,15.2345002 16.54447,14.4450685 17.7175645,14.4450685 C19.2542891,14.4450685 19.8683527,15.6164595 19.8683527,17.3328817 L19.8683527,24.1655467 L24.1138373,24.1655467 L24.1138373,16.8424219 Z M6.7090449,5.23789203 C5.2561817,5.23789203 4.30588914,6.19085668 4.30588914,7.44403529 C4.30588914,8.66990506 5.22868847,9.65179099 6.65267671,9.65179099 L6.681045,9.65179099 C8.1620462,9.65179099 9.0830956,8.67009026 9.0830956,7.44403529 C9.05518789,6.19085668 8.1620462,5.23789203 6.7090449,5.23789203 Z M4.55811858,24.1655467 L8.80341903,24.1655467 L8.80341903,11.394278 L4.55811858,11.394278 L4.55811858,24.1655467 Z" id="icon-linkedin"></path>
            </g>
        </g>
    </g>
</svg>