<?xml version="1.0" encoding="UTF-8"?>
<svg width="44px" height="52px" viewBox="0 0 44 52" version="1.1" xmlns="http://www.w3.org/2000/svg" xmlns:xlink="http://www.w3.org/1999/xlink">
    <!-- Generator: Sketch 42 (36781) - http://www.bohemiancoding.com/sketch -->
    <title>shareicon-</title>
    <desc>Created with Sketch.</desc>
    <defs></defs>
    <g id="Page-1" stroke="none" stroke-width="1" fill="none" fill-rule="evenodd" opacity="0.829427083">
        <g id="blog---share-buttons" transform="translate(-104.000000, -387.000000)">
            <g id="share" transform="translate(104.000000, 387.000000)">
                <path d="M17,14 L11,14 L11,35 L32,35 L32,14 L26,14 L26,17 L29,17 L29,32 L14,32 L14,17 L17,17 L17,14 Z" id="Combined-Shape" fill="#626262" fill-rule="nonzero"></path>
                <polygon id="Line" fill="#626262" fill-rule="nonzero" points="23 25 23 3.68036235 20 3.68036235 20 25"></polygon>
                <path d="M23.6596952,2.47326212 L19.4170545,2.47326212 L21.5383749,4.59458247 L23.6596952,2.47326212 Z M25.876367,8.93257459 L30.0932165,8.90678346 L21.5383749,0.351941779 L12.8782428,9.01207382 L17.1469921,8.98596526 L21.5383749,4.59458247 L25.876367,8.93257459 Z M23.6596952,2.47326212 L19.4170545,2.47326212 L21.5383749,4.59458247 L23.6596952,2.47326212 Z M25.876367,8.93257459 L30.0932165,8.90678346 L21.5383749,0.351941779 L12.8782428,9.01207382 L17.1469921,8.98596526 L21.5383749,4.59458247 L25.876367,8.93257459 Z" id="Rectangle-2" fill="#626262" fill-rule="nonzero"></path>
                <path d="M1.678,50.556 C1.06599694,50.1239978 0.66800092,49.5440036 0.484,48.816 L1.804,48.24 C1.9640008,48.7600026 2.23199812,49.1779984 2.608,49.494 C2.98400188,49.8100016 3.48399688,49.968 4.108,49.968 C4.5880024,49.968 4.98999838,49.866001 5.314,49.662 C5.63800162,49.457999 5.8,49.1480021 5.8,48.732 C5.8,48.339998 5.68600114,48.0500009 5.458,47.862 C5.22999886,47.6739991 4.86400252,47.5280005 4.36,47.424 L3.172,47.172 C1.68399256,46.8679985 0.94,46.0520066 0.94,44.724 C0.94,44.2359976 1.06599874,43.8080018 1.318,43.44 C1.57000126,43.0719982 1.93199764,42.786001 2.404,42.582 C2.87600236,42.377999 3.42799684,42.276 4.06,42.276 C4.9000042,42.276 5.6099971,42.4499983 6.19,42.798 C6.7700029,43.1460017 7.15199908,43.6639966 7.336,44.352 L6.1,45 C5.96399932,44.5039975 5.71800178,44.1220013 5.362,43.854 C5.00599822,43.5859987 4.5480028,43.452 3.988,43.452 C3.52399768,43.452 3.15000142,43.553999 2.866,43.758 C2.58199858,43.962001 2.44,44.2439982 2.44,44.604 C2.44,44.9480017 2.54199898,45.217999 2.746,45.414 C2.95000102,45.610001 3.28799764,45.7599995 3.76,45.864 L4.996,46.128 C5.7560038,46.2880008 6.335998,46.5579981 6.736,46.938 C7.136002,47.3180019 7.336,47.8679964 7.336,48.588 C7.336,49.0840025 7.21200124,49.529998 6.964,49.926 C6.71599876,50.322002 6.34600246,50.6339989 5.854,50.862 C5.36199754,51.0900011 4.76400352,51.204 4.06,51.204 C3.08399512,51.204 2.29000306,50.9880022 1.678,50.556 Z M16.712,51 L15.164,51 L15.164,47.28 L11.336,47.28 L11.336,51 L9.788,51 L9.788,42.48 L11.336,42.48 L11.336,46.044 L15.164,46.044 L15.164,42.48 L16.712,42.48 L16.712,51 Z M24.648,48.756 L21.312,48.756 L20.544,51 L18.972,51 L22.14,42.48 L23.82,42.48 L26.988,51 L25.416,51 L24.648,48.756 Z M24.24,47.58 L23.244,44.7 C23.1319994,44.3719984 23.0480003,44.0680014 22.992,43.788 L22.968,43.788 C22.9119997,44.0680014 22.8280006,44.3719984 22.716,44.7 L21.72,47.58 L24.24,47.58 Z M32.296,47.58 L30.796,47.58 L30.796,51 L29.248,51 L29.248,42.48 L32.68,42.48 C33.7120052,42.48 34.4619977,42.7139977 34.93,43.182 C35.3980023,43.6500023 35.632,44.2679962 35.632,45.036 C35.632,45.5800027 35.4840015,46.0639979 35.188,46.488 C34.8919985,46.9120021 34.444003,47.2079992 33.844,47.376 L35.872,51 L34.168,51 L32.296,47.58 Z M30.796,46.428 L32.416,46.428 C32.9680028,46.428 33.3719987,46.3040012 33.628,46.056 C33.8840013,45.8079988 34.012,45.4680022 34.012,45.036 C34.012,44.1159954 33.4800053,43.656 32.416,43.656 L30.796,43.656 L30.796,46.428 Z M44,49.788 L44,51 L38.384,51 L38.384,42.48 L43.916,42.48 L43.916,43.692 L39.932,43.692 L39.932,46.032 L43.712,46.032 L43.712,47.232 L39.932,47.232 L39.932,49.788 L44,49.788 Z" id="SHARE" fill="#606060"></path>
            </g>
        </g>
    </g>
</svg>