<?xml version="1.0" encoding="UTF-8"?>
<svg width="28px" height="22px" viewBox="0 0 28 22" version="1.1" xmlns="http://www.w3.org/2000/svg" xmlns:xlink="http://www.w3.org/1999/xlink">
    <!-- Generator: Sketch 42 (36781) - http://www.bohemiancoding.com/sketch -->
    <title>twittericon-</title>
    <desc>Created with Sketch.</desc>
    <defs></defs>
    <g id="Page-1" stroke="none" stroke-width="1" fill="none" fill-rule="evenodd">
        <g id="blog---share-buttons" transform="translate(-113.000000, -466.000000)" fill="#1DA1F2">
            <g id="twitter" transform="translate(113.000000, 466.000000)">
                <path d="M0.582092197,19.1393125 C0.582092197,19.28025 0.651138351,19.4074375 0.789907582,19.5195 C1.02141527,19.679 1.4329845,19.914125 2.0252922,20.2241875 C4.28283066,21.4080625 6.65070758,22 9.13027681,22 C12.2197537,22 15.0276307,21.1921875 17.5532307,19.575875 C18.7493963,18.8111561 19.8293911,17.8733974 20.7591384,16.7921875 C21.6932922,15.7073125 22.4358768,14.575 22.9862153,13.3959375 C23.5207172,12.2623047 23.9346281,11.0739987 24.220923,9.8511875 C24.493723,8.6673125 24.6209845,7.5164375 24.6027076,6.3985625 L24.6027076,5.9049375 C25.6851076,5.1156875 26.5319384,4.2136875 27.141846,3.1989375 C27.1973537,3.0861875 27.2251076,3.001625 27.2251076,2.94525 C27.2247487,2.82250585 27.1745419,2.70535038 27.0863384,2.6214375 C27.0037164,2.53185576 26.8883634,2.48086453 26.7675076,2.4805 C26.702523,2.4805 26.5915076,2.5183125 26.4344614,2.59325 C26.1583872,2.68714694 25.8830954,2.78340035 25.6086153,2.882 C25.4935384,2.924625 25.417046,2.95075 25.3798153,2.9596875 C25.620123,2.6874375 25.8699076,2.31825 26.1291691,1.8528125 C26.3884307,1.3880625 26.517723,1.04775 26.517723,0.8311875 C26.518033,0.710486291 26.4675357,0.595404836 26.3789537,0.5149375 C26.290006,0.42681623 26.1701516,0.378323302 26.0459076,0.3801875 C25.9667741,0.381875012 25.8897541,0.406439074 25.8238768,0.451 C24.7692307,1.024375 23.7836307,1.4135 22.8677537,1.6204375 C21.7494768,0.540375 20.4118768,0 18.8576614,0 C17.2668922,0 15.9110153,0.56375 14.7920614,1.69125 C13.6724307,2.81875 13.1132922,4.181375 13.1132922,5.7784375 C13.1132922,6.0603125 13.1315691,6.290625 13.168123,6.4686875 C11.6094445,6.33846353 10.0817621,5.95307118 8.64424604,5.3274375 C7.20983549,4.70939954 5.88736798,3.85193351 4.73163066,2.7905625 C4.4628922,2.52725 3.94504604,1.9779375 3.17673835,1.14125 C3.07572844,1.0328642 2.9351253,0.971664169 2.7881845,0.972125 C2.67716912,0.972125 2.5620922,1.04775 2.44159989,1.197625 C2.2012922,1.5640625 2.01107681,2.013 1.8729845,2.54375 C1.73717587,3.05140967 1.66708823,3.57488023 1.6644922,4.1009375 C1.6644922,5.501375 2.09433835,6.722375 2.95470758,7.7653125 L2.55261527,7.568 C2.32110758,7.464875 2.14984604,7.4133125 2.03883066,7.4133125 C1.89439081,7.40876899 1.75346039,7.45901241 1.64350758,7.55425 C1.53823311,7.64542223 1.47945667,7.78024148 1.48375374,7.9206875 C1.48375374,8.90725 1.73421527,9.84225 2.23310758,10.7256875 C2.71928547,11.594601 3.41687721,12.3222666 4.25913835,12.8390625 L4.09261527,12.8115625 C4.06683413,12.810108 4.04134867,12.8052548 4.01679989,12.797125 C3.99141427,12.7896132 3.96591367,12.7825081 3.94030758,12.7758125 C3.92661595,12.7719296 3.91253768,12.7696235 3.89833835,12.7689375 C3.77949408,12.7686227 3.66618311,12.819909 3.58695374,12.909875 C3.50412678,12.9910814 3.45640969,13.1023477 3.45427681,13.21925 C3.45427681,13.228875 3.46375374,13.281125 3.48203066,13.374625 C3.78207228,14.328594 4.32281218,15.1861536 5.05046143,15.862 C5.77365019,16.5394601 6.65845821,17.0134227 7.61735374,17.237 C6.00763066,18.2414375 4.2313845,18.7446875 2.28861527,18.7446875 C2.15999989,18.7446875 1.95150758,18.7309375 1.6644922,18.7020625 C1.45179925,18.6909294 1.23901095,18.6817623 1.02615374,18.6745625 C0.907179546,18.6738761 0.79360114,18.7249217 0.714092197,18.8148125 C0.629321003,18.9008249 0.58181357,19.017614 0.582092197,19.1393125 L0.582092197,19.1393125 Z" id="icon-twitter"></path>
            </g>
        </g>
    </g>
</svg>