<?xml version="1.0" encoding="UTF-8"?>
<svg width="50px" height="32px" viewBox="0 0 50 32" version="1.1" xmlns="http://www.w3.org/2000/svg" xmlns:xlink="http://www.w3.org/1999/xlink">
    <!-- Generator: Sketch 41.2 (35397) - http://www.bohemiancoding.com/sketch -->
    <title>EHR</title>
    <desc>Created with Sketch.</desc>
    <defs></defs>
    <g id="Page-1" stroke="none" stroke-width="1" fill="none" fill-rule="evenodd">
        <g id="Artboard" transform="translate(-800.000000, -1200.000000)" fill="#000000">
            <g id="Row-6:-Journey" transform="translate(20.000000, 1200.000000)">
                <path d="M780,3.73844029 C780,1.67375672 781.677887,0 783.758127,0 L826.241873,0 C828.31743,0 830,1.68013573 830,3.73844029 L830,27.5115598 C830,29.5762433 829.32251,31.963501 826.241873,32 L783.607178,32.0021973 C781.646606,31.9632568 780,29.5698643 780,27.5115598 L780,3.73844029 L780,3.73844029 Z M783.753574,1.5 L826.246426,1.5 C827.721924,1.49462891 828.5,2.51586914 828.5,3.75108027 L828.5,27.4989197 C828.5,28.5853271 828.188477,30.4281006 826.5,30.5 L783.5,30.5 C782.695618,30.5 781.5,29.0224609 781.5,27.4989197 L781.5,3.75108027 C781.612958,2.4479136 782.770264,1.55462646 783.753574,1.5 Z M794.731605,13.1515625 C793.374161,13.1515625 792.055135,14.7907406 792.055135,14.7907406 C792.055135,14.7907406 790.736109,13.1515625 789.365858,13.1515625 C788.008414,13.1515625 786.715,13.8302846 786.715,15.840839 C786.715,17.2623138 788.046832,18.5045034 788.046832,18.5045034 L792.055135,22.5 L796.063438,18.5045034 C796.063438,18.5045034 797.39527,17.2623138 797.39527,15.840839 C797.39527,13.8302846 796.08905,13.1515625 794.731605,13.1515625 L794.731605,13.1515625 Z M827,6 L827,7.5 L783,7.5 L783,6 L827,6 Z M803,13 L811,13 L811,14.5 L803,14.5 L803,13 L803,13 Z M815,13 L820,13 L820,14.5 L815,14.5 L815,13 L815,13 Z M803,17 L810,17 L810,18.5 L803,18.5 L803,17 L803,17 Z M813,17 L822,17 L822,18.5 L813,18.5 L813,17 L813,17 Z M803,21 L812,21 L812,22.5 L803,22.5 L803,21 L803,21 Z M815,21 L818,21 L818,22.5 L815,22.5 L815,21 L815,21 Z M820,21 L823,21 L823,22.5 L820,22.5 L820,21 L820,21 Z M786.5,3 L786.5,6 L785,6 L785,3 L786.5,3 Z M812.5,3 L812.5,6 L811,6 L811,3 L812.5,3 Z M821.5,3 L821.5,6 L820,6 L820,3 L821.5,3 Z" id="EHR"></path>
            </g>
        </g>
    </g>
</svg>