<?xml version="1.0" encoding="UTF-8"?>
<svg width="50px" height="50px" viewBox="0 0 50 50" version="1.1" xmlns="http://www.w3.org/2000/svg" xmlns:xlink="http://www.w3.org/1999/xlink">
    <!-- Generator: Sketch 41.2 (35397) - http://www.bohemiancoding.com/sketch -->
    <title>Compliant Infrastructure</title>
    <desc>Created with Sketch.</desc>
    <defs></defs>
    <g id="Page-1" stroke="none" stroke-width="1" fill="none" fill-rule="evenodd">
        <g id="Artboard" transform="translate(-500.000000, -1200.000000)" fill="#242F36">
            <g id="Row-6:-Journey" transform="translate(20.000000, 1200.000000)">
                <path d="M482.043701,0 L521.001953,0 C522.000977,0 523,1.40104167 523,2.1015625 L523,12.0925293 C523,13.0462646 522.002502,14 521.005005,14 C504.342646,14 487.680286,14 482.023071,14 C480.719263,14 480,12.6970215 480,12.0455322 L480,2.01965332 C480,1.00982666 481.362467,0 482.043701,0 Z M483.401117,1.5 L519.641352,1.5 C520.570676,1.5 521.5,2.60081845 521.5,3.15122768 L521.5,11.001273 C521.5,11.7506365 520.572095,12.5 519.644191,12.5 C504.144321,12.5 488.644452,12.5 483.381927,12.5 C482.169082,12.5 481.5,11.4762312 481.5,10.9643467 L481.5,3.08687047 C481.5,2.29343523 482.767412,1.5 483.401117,1.5 Z M484,14 L485.5,14 L485.5,16 L484,16 L484,14 Z M484,30 L485.5,30 L485.5,32 L484,32 L484,30 Z M518.5,14 L520,14 L520,16 L518.5,16 L518.5,14 Z M482,16 L521.48822,16 C521.992147,16 523,16.6878662 523,17.4006348 L523,19.506958 C523,19.753479 522.551849,20 522.201233,20 C521.850616,20 521.5,19.734375 521.5,19.46875 C521.5,19.2664053 521.48822,17.5 521.5,18.5 C521.5,18.5 521.531433,17.5 520.851196,17.5 L482.537354,17.5 C482.018677,17.5 481.5,18.1854655 481.5,18.5281982 L481.5,27.5426025 C481.5,28.0213013 482.014648,28.5 482.529297,28.5 C492.270264,28.5 503.01123,28.5 503.01123,28.5 C503.01123,28.5 504,28.5439453 504,29.2719727 C504,30 502.990723,30 502.990723,30 L482.036255,30 C481.018127,30 480,29.0089111 480,28.0178223 L480,18.0693359 C480,17.3795573 481,16 482,16 Z M487.5,24.5 C488.328427,24.5 489,23.8284271 489,23 C489,22.1715729 488.328427,21.5 487.5,21.5 C486.671573,21.5 486,22.1715729 486,23 C486,23.8284271 486.671573,24.5 487.5,24.5 Z M481.993042,32 C492.024658,32 503.056274,32 503.056274,32 C503.056274,32 504.030029,32.1271973 504,32.8135986 C503.969971,33.5 503.046021,33.5 503.046021,33.5 C503.046021,33.5 492.241089,33.5 482.436157,33.5 C481.968079,33.5 481.5,34.1439616 481.5,34.4659424 L481.5,43.6315918 C481.5,44.0657959 481.951965,44.5 482.403931,44.5 C494.031494,44.5 505.99292,44.5 505.99292,44.5 C505.99292,44.5 506.989502,44.4428711 507,45.2856445 C507.010498,46.128418 506.021118,46 506.021118,46 C506.021118,46 493.851196,46 482.033203,46 C481.016602,46 480,45.0227661 480,44.0455322 L480,34.1196289 C480,33.4130859 480.996521,32 481.993042,32 Z M487.5,40.5 C488.328427,40.5 489,39.8284271 489,39 C489,38.1715729 488.328427,37.5 487.5,37.5 C486.671573,37.5 486,38.1715729 486,39 C486,39.8284271 486.671573,40.5 487.5,40.5 Z M507.207057,40.3000745 C507.382683,40.7602725 507.625464,41.2703579 507.946133,41.8175621 C508.855312,43.3690266 510.20424,44.9156942 512.076553,46.3544342 C513.792836,47.6732758 515.873003,48.8374947 518.349973,49.8066148 L518.52253,49.8741281 L518.687498,49.7897526 C518.710307,49.7780868 518.753432,49.7557769 518.815523,49.7232669 C518.918333,49.6694361 519.037402,49.6062962 519.171378,49.5342906 C519.553471,49.3289347 519.978944,49.0934601 520.437008,48.8314011 C521.746023,48.0825132 523.05522,47.2700124 524.278742,46.4216526 C526.045373,45.1967143 527.482737,44.0007269 528.47814,42.8643155 C529.463474,41.739401 530,40.6911547 530,39.7177651 L530,23.6395501 L530,23.289139 L529.6541,23.2330921 C529.638979,23.2306419 529.609765,23.2259434 529.567168,23.2191463 C529.496367,23.2078488 529.413605,23.1947525 529.319591,23.1800072 C529.051197,23.1379118 528.746325,23.0910197 528.410654,23.0405291 C527.451736,22.8962915 526.437861,22.752059 525.414373,22.617413 C524.655516,22.5175809 523.919675,22.4268364 523.216741,22.3472796 C521.249333,22.1246117 519.638185,22 518.5,22 C517.355482,22 515.740123,22.1665832 513.768125,22.4641663 C513.064375,22.5703652 512.327777,22.6914824 511.568194,22.8247193 C510.543878,23.0043924 509.529257,23.1968441 508.569624,23.3893041 C508.233691,23.4566775 507.928566,23.5192522 507.659925,23.575431 C507.565803,23.595114 507.482934,23.6125983 507.412028,23.6276841 C507.369334,23.6367676 507.340024,23.6430528 507.324808,23.6463401 L507,23.7165125 L507,24.0488138 L507,39.6009426 L507.010332,39.6926054 C507.037452,39.8113711 507.099436,40.0180698 507.207057,40.3000745 Z M508.253951,39.4534954 L508.253951,24.5277475 L507.942226,24.914011 C507.95603,24.9110287 507.983351,24.90517 508.023505,24.8966268 C508.090671,24.882337 508.169305,24.8657461 508.258727,24.847046 C508.514485,24.7935614 508.805205,24.7339406 509.125421,24.6697195 C510.040491,24.4861967 511.008081,24.3026659 511.984355,24.1314198 C512.70744,24.004585 513.408236,23.8893546 514.077063,23.7884256 C515.933581,23.5082692 517.450841,23.3518023 518.500425,23.3518023 C519.556086,23.3518023 521.077389,23.4694651 522.938311,23.6800809 C523.607921,23.7558663 524.309443,23.8423786 525.033226,23.9375965 C526.010293,24.0661355 526.9786,24.2038856 527.894356,24.3416308 C528.214823,24.3898345 528.505786,24.4345874 528.761781,24.474738 C528.851307,24.4887794 528.930044,24.5012388 528.99731,24.5119723 C529.037559,24.5183946 529.064971,24.5228034 529.078867,24.5250549 L528.746898,24.1349674 L528.746898,39.5656127 C528.746898,40.2688113 528.31351,41.1155499 527.482155,42.0646735 C526.576901,43.0981652 525.243013,44.2080536 523.596077,45.349998 C522.44246,46.1498875 521.204791,46.9179977 519.966947,47.6261685 C519.533615,47.874078 519.131357,48.0967049 518.770604,48.2905917 C518.644574,48.3583263 518.532816,48.4175896 518.436632,48.4679508 C518.379309,48.4979645 518.340157,48.518219 518.320478,48.528284 L518.64441,48.5121009 C516.335644,47.6087908 514.40453,46.5279931 512.81726,45.3082887 C511.102373,43.9905205 509.875308,42.5835786 509.053518,41.1812404 C508.768249,40.6944448 508.554002,40.2443083 508.400725,39.8426709 C508.347883,39.7042077 508.306524,39.5823289 508.275397,39.4785277 C508.257635,39.4192992 508.247599,39.3811313 508.244035,39.3655244 L508.253951,39.4534954 Z M519.372279,29.9364879 C519.372279,29.4191221 518.953124,28.9999058 518.436069,28.9999058 C517.920066,28.9999058 517.499859,29.4192279 517.499859,29.9364879 L517.499859,30.5150444 L519.372279,30.1405603 L519.372279,29.9364879 Z M519.372279,45.3693295 C519.372279,45.8865896 518.952072,46.3059116 518.436069,46.3059116 C517.919014,46.3059116 517.499859,45.8866953 517.499859,45.3693295 L517.499859,41.423467 L519.372279,41.1783266 L519.372279,45.3693295 Z M519.372279,32.3797716 L517.499859,32.8010663 L517.499859,39.1903916 L519.372279,38.8839662 L519.372279,32.3797716 Z M523.036259,30.7671164 C522.975975,30.7648606 522.905963,30.7626136 522.826883,30.7605218 C521.574556,30.7273967 520.135134,30.7675164 518.760382,30.9391143 C516.33969,31.2412674 514.713444,31.8716656 514.208739,33.0582546 C513.61476,34.4547322 514.334997,35.5203133 515.771865,36.2300073 C515.802338,36.2450582 516.775468,36.7391146 516.80658,36.7538452 L516.80658,35.5465698 C516.655334,35.5465698 516.703674,35.5245972 516.287137,35.3815144 C515.206331,34.8697785 514.772953,34.2565541 515.118119,33.445051 C515.429643,32.7126393 516.806591,32.1788789 518.882783,31.9197267 C520.199893,31.7553238 521.593787,31.716473 522.800753,31.7483983 C522.87617,31.7503932 522.942578,31.7525246 522.999307,31.7546473 C523.032779,31.7558998 523.055241,31.7568532 523.066022,31.7573622 L523.112621,30.7702395 C523.098668,30.7695808 523.072994,30.768491 523.036259,30.7671164 Z M520.020447,37.3766479 C520.646136,37.5787469 520.964207,38.3375846 520.753126,38.6401962 C520.324468,39.2547351 519.620373,39.5641129 518.44623,39.7495224 C518.21686,39.7857422 518.118155,39.7987154 517.589502,39.8650012 C516.145465,40.0460635 515.574636,40.2090512 515.146291,40.7783631 C514.532907,41.5936098 514.479816,42.3791573 514.789183,43.0201431 C514.859786,43.166427 514.934704,43.2744242 514.996089,43.3435645 L514.942965,43.2715165 C515.004028,43.3723209 515.118556,43.5288967 515.292283,43.7221286 C515.572362,44.0336518 515.922732,44.3426978 516.348769,44.6294586 C516.489255,44.7240178 516.809594,44.9133077 516.900575,44.9559937 C516.900575,44.5326538 516.900575,44.3290655 516.900575,43.809646 C516.544001,43.5696401 516.254511,43.3142933 516.027165,43.0614237 C515.949673,42.9752311 515.885926,42.896416 515.835352,42.8272745 C515.807846,42.7896692 515.792322,42.7663051 515.788208,42.7595122 L515.764923,42.7210722 L515.735085,42.6874642 C515.730764,42.6825975 515.707124,42.6485195 515.679169,42.5905983 C515.525836,42.2729038 515.552218,41.8825352 515.935961,41.3725038 C516.129729,41.1149671 516.572904,40.9884286 517.712449,40.8455453 C518.25374,40.7776748 518.356123,40.7642183 518.60037,40.7256491 C520.015381,40.5022042 520.943736,40.0942868 521.563649,39.2055594 C522.054442,38.5019425 521.975438,37.7924311 521.419978,37.2389824 C521.032518,36.8529249 520.781879,36.5289644 520.020447,36.28302 L520.020447,37.3766479 Z M519.788941,45.8441462 C520.035388,45.873517 520.289327,45.8943548 520.550838,45.9062321 L520.595675,44.9190278 C520.328772,44.9069056 520.071516,44.8846176 519.823691,44.8527561 C519.788941,45.2363281 519.823691,45.6420288 519.788941,45.8441462 Z M518.265947,30.0905551 C519.655532,30.0905551 520.782013,28.9649774 520.782013,27.5765069 C520.782013,26.1880365 519.655532,25.0624588 518.265947,25.0624588 C516.876363,25.0624588 515.749882,26.1880365 515.749882,27.5765069 C515.749882,28.9649774 516.876363,30.0905551 518.265947,30.0905551 Z" id="Compliant-Infrastructure"></path>
            </g>
        </g>
    </g>
</svg>