<?xml version="1.0" encoding="UTF-8"?>
<svg width="40px" height="50px" viewBox="0 0 40 50" version="1.1" xmlns="http://www.w3.org/2000/svg" xmlns:xlink="http://www.w3.org/1999/xlink">
    <!-- Generator: Sketch 41.2 (35397) - http://www.bohemiancoding.com/sketch -->
    <title>Decrease Costs</title>
    <desc>Created with Sketch.</desc>
    <defs></defs>
    <g id="Page-1" stroke="none" stroke-width="1" fill="none" fill-rule="evenodd">
        <g id="Artboard" transform="translate(-600.000000, -1200.000000)" fill="#000000">
            <g id="Row-6:-Journey" transform="translate(20.000000, 1200.000000)">
                <path d="M580.483394,25.8542141 C588.225922,34.2028704 597.805176,45.2027588 598.5,45.978247 C599.476929,46.9892578 600.678833,46.9647217 601.5,45.9782238 C603.446046,43.8338157 603.607056,43.6253662 605.330322,41.5732422 C606.588989,39.9387207 606.201294,40.2077637 605.826904,39.4238281 C604.452271,36.5777588 606.130877,34.6008724 606.588989,34.0426025 C607.321533,33.1499023 608.121338,32.6239014 609.175537,32.4755859 C609.460579,32.4354833 610.26825,32.0995732 610.26825,31.5011597 C610.26825,30.9027461 610.838159,30.0030518 611.99292,30.0030518 C612.916997,30.0030518 613.434178,30.0030518 614.010254,30.0030518 C614.746216,30.0030518 614.910278,30.7189989 614.910278,30.9567871 C614.910278,31.2666626 616.663393,29.2920205 616.99939,28.9083252 C617.8265,27.9637971 618.998485,26.2948548 619.684802,25.497883 C620.448434,24.6111299 619.714772,23.9970703 618.948608,23.9970703 C614.992551,23.9970703 609.432617,24.0579834 608,24 C606.422974,23.9938965 606.019531,23.3636647 606,22.1591626 C606,22.1591626 606.019897,4.74743652 606,3.19163146 C606.002227,3.13412309 606.002059,3.07734847 606.002007,3.02128415 C606,0.867919922 604.090309,0 602.499512,0 L597.51887,0 C595.915718,0 593.963379,1.02966309 594,3.21422059 L594,22 C594.066528,23.3636647 593.200762,24 591.966431,24 C591.966431,24 585.161727,23.9974365 581.300659,23.9974365 C580.457525,23.9974365 579.495791,24.7892955 580.483394,25.8542141 Z M582.811279,26.3112793 C582.811279,26.3112793 597.996158,43.3332666 598.631503,44.0423707 C599.524803,44.966836 600.623821,44.9444002 601.374694,44.0423495 C603.154152,42.0815092 601.988119,43.3187505 603.767578,41.3579102 C604.520178,40.5581882 604.733643,39.8331299 604.360352,38.8868408 C603.467651,35.9686279 604.922788,33.8667741 605.298828,33.314209 C606.077515,32.1699829 608.031677,31.4353027 608.476807,31.2393799 C608.715984,31.1341063 609.702454,29.6168823 609.834778,29.25177 C609.967102,28.8866577 610.885374,28.3825684 611.941284,28.3825684 C612.786258,28.3825684 612.86191,28.3825684 613.388672,28.3825684 C615.063843,28.3825684 615.193665,28.5581725 615.324951,28.7816162 C615.456238,29.0050599 616.662109,27.4200439 617.159668,26.6410156 C617.657227,25.8619872 617.39563,25.5 616.36853,25.5 C612.751123,25.5 608.761153,25.5530198 607.451172,25.5 C606.009144,25.494419 604.5,24.7182617 604.5,23 L604.5,4.9184182 C604.5,3.01037598 604.493319,1.5 602.996948,1.5 L597,1.5 C595.5,1.5 595.5,3.04711914 595.5,4.93907364 L595.5,23.1167338 C595.5,24.2329102 594.516716,25.5 592.657227,25.5 L585.904477,25.5 C583.5,25.5 582.321045,25.5 582.811279,26.3112793 Z M617.413877,46.7885105 C616.408363,47.6037914 615.056376,48.0657771 613.357874,48.1744812 L613.357874,50 L612,50 L612,48.1744812 C610.69555,48.1201291 609.502299,47.8619607 608.476404,47.3999681 C607.450508,46.9379756 606.625049,46.3333179 606,45.585977 L608.476404,43 C609.332449,44.1821574 610.69463,45.0356641 611.971903,45.2394843 L611.971903,41.9376129 L610.952807,41.7134117 C609.621182,41.4008874 608.602096,40.8845505 607.895519,40.1643856 C607.188942,39.4442208 606.835659,38.5678069 606.835659,37.5351176 C606.835659,36.3257842 607.290851,35.3610495 608.201248,34.6408846 C609.111645,33.9207197 610.368517,33.5198793 611.971903,33.4383512 L611.971903,31.5835962 L613.357874,31.5835962 L613.357874,33.4383512 C615.382488,33.5742313 617.128522,34.2672098 618.596028,35.5173073 L616.190961,38.0039018 C615.402856,37.0391527 614.458503,36.4548767 613.357874,36.2510565 L613.357874,38.9822341 L614.641935,39.287963 C616.136617,39.6276634 617.223642,40.1440002 617.903043,40.8369891 C618.582444,41.5299779 618.922139,42.4607431 618.922139,43.6293125 C618.922139,44.920174 618.41939,45.9732295 617.413877,46.7885105 Z M610.677651,38.1160024 C610.915442,38.3130286 611.346855,38.4930672 611.971903,38.6561234 L611.971903,36.1695288 C611.441971,36.1967048 611.034336,36.3122012 610.748988,36.5160215 C610.46364,36.7198417 610.320968,36.991598 610.320968,37.3312984 C610.320968,37.6574108 610.439861,37.9189762 610.677651,38.1160024 Z M614.774418,44.8420369 C615.120912,44.5906586 615.294157,44.267948 615.294157,43.8738955 C615.294157,43.452667 615.148088,43.1231626 614.855945,42.8853723 C614.563803,42.647582 614.064451,42.4403679 613.357874,42.2637236 L613.357874,45.3006301 C613.955747,45.246278 614.427923,45.0934152 614.774418,44.8420369 Z" id="Decrease-Costs"></path>
            </g>
        </g>
    </g>
</svg>