<?xml version="1.0" encoding="UTF-8"?>
<svg width="38px" height="50px" viewBox="0 0 38 50" version="1.1" xmlns="http://www.w3.org/2000/svg" xmlns:xlink="http://www.w3.org/1999/xlink">
    <!-- Generator: Sketch 41.2 (35397) - http://www.bohemiancoding.com/sketch -->
    <title>FHIR</title>
    <desc>Created with Sketch.</desc>
    <defs></defs>
    <g id="Page-1" stroke="none" stroke-width="1" fill="none" fill-rule="evenodd">
        <g id="Artboard" transform="translate(-900.000000, -1200.000000)" fill="#000000">
            <g id="Row-6:-Journey" transform="translate(20.000000, 1200.000000)">
                <path d="M916.79214,29.1093368 C916.255354,27.4601023 915.492901,25.8895763 915.156422,24.1774843 C914.855961,22.6481345 914.896574,21.0041836 915.538659,19.5615589 C915.915935,18.7105233 916.477713,17.9201588 917.153979,17.1957491 C917.391407,16.9390355 917.512694,16.6001517 917.468957,16.2434127 C917.313306,14.9773356 915.860253,15.1660902 914.949867,15.4073172 C914.441013,15.5419597 910.962286,16.7468192 911.026605,16.9904147 C910.96688,16.7641278 910.908442,16.5372942 910.843388,16.3121005 C908.416365,7.89466405 901.208986,0.782659006 892.152351,0.0307377858 L891.916577,0.0130648157 C891.832411,0.00778114299 891.765703,0.00359064027 891.653421,0.000311119068 C891.268611,-0.00843426895 890.239685,0.259216309 890.162048,0.542053223 C890.084412,0.824890137 890.552307,1.27178955 891.076904,1.9005127 C893.177592,3.77154541 893.802403,6.27858912 893.177592,8.88781221 C892.187818,13.0218303 889.39914,16.5598865 886.824918,19.8561692 C886.783754,19.9088237 886.741855,19.9607495 886.700691,20.0135862 L886.445438,20.3575715 C886.153063,18.426116 885.588895,16.6608229 884.830117,14.9642175 C884.695967,14.6641413 884.550606,14.3609679 884.318324,14.1266643 C883.715381,13.5186776 882.665147,13.7681034 882.384717,14.5745011 C882.384717,14.5746833 881.760825,16.3682167 881.760641,16.3687633 C878.431685,25.9382225 879.563144,37.9591234 887.399377,45.112669 C895.717449,52.706217 910.375883,51.5104673 915.873484,41.1094675 C917.433306,38.1582632 917.950246,34.7655991 917.381668,31.4846208 C917.242923,30.682778 917.045556,29.8884052 916.79214,29.1093368 Z M881.458984,26.2702637 C881.489857,23.0920437 881.760641,19.5615589 883.612815,15.8532715 C884.225497,16.9346024 884.725096,18.8296792 885.098145,20.0135862 C885.161544,20.2145479 885.840465,21.4804056 885.803711,21.6877441 C885.777432,21.8362336 885.440481,22.5318398 885.367822,22.6665039 C883.612815,25.9191895 882.824463,29.9396022 882.824463,34.6105957 C882.046631,33.4365234 882.059998,31.088623 881.760641,29.6171875 C882.059998,31.088623 881.458984,26.2702637 881.458984,26.2702637 Z M916.203613,34.8851194 C916.095925,38.2100068 914.228026,41.6037966 911.677511,43.9577637 C911.177295,44.4192651 910.471916,45.1703713 909.915283,45.565918 C906.173952,48.2083007 900.349772,49.216032 895.967529,47.652832 C882.380091,42.8060257 882.384717,32.949707 886.383692,24.1774843 C888.845283,18.7776924 893.790077,15.5817405 894.957569,9.58251953 C895.440369,7.10162354 895.133594,3.5178833 891.710754,0.932495117 C893.69928,0.805053711 898.420598,3.26134991 899.226562,3.68017578 C905.169189,6.76831055 907.795898,11.7006836 909.915283,17.6513672 C909.985314,17.8479941 906.679023,20.2030696 906.359634,20.5643634 C905.572924,21.4542067 904.896658,22.4438932 904.3369,23.4882384 C903.186329,25.6346847 902.530645,28.0451323 902.473677,30.4770791 C902.43968,31.9260807 903.388658,30.6594569 903.484033,29.9396022 C904.124281,25.1108723 907.22316,20.2564438 911.677511,18.2224121 C912.279351,17.9472968 914.229004,16.6938477 915.538659,16.6938477 C913.470703,18.9142179 913.488345,21.2783557 913.470703,22.6665039 C913.42715,26.0908701 915.634116,29.0811218 916.203613,32.4555664 C916.3532,33.3424946 916.203613,34.8851194 916.203613,34.8851194 Z" id="FHIR"></path>
            </g>
        </g>
    </g>
</svg>