<?xml version="1.0" encoding="UTF-8"?>
<svg width="40px" height="48px" viewBox="0 0 40 48" version="1.1" xmlns="http://www.w3.org/2000/svg" xmlns:xlink="http://www.w3.org/1999/xlink">
    <!-- Generator: Sketch 41.2 (35397) - http://www.bohemiancoding.com/sketch -->
    <title>Decrease Costs</title>
    <desc>Created with Sketch.</desc>
    <defs></defs>
    <g id="Page-1" stroke="none" stroke-width="1" fill="none" fill-rule="evenodd">
        <g id="Artboard" transform="translate(-640.000000, -1240.000000)" fill="#000000">
            <g id="Row-6:-Journey" transform="translate(20.000000, 1200.000000)">
                <path d="M620.483394,65.8542141 C628.225922,74.2028704 637.805176,85.2027588 638.5,85.978247 C639.476929,86.9892578 640.678833,86.9647217 641.5,85.9782238 C643.446046,83.8338157 645.392092,81.6894077 647.338138,79.5449996 C648.161194,78.6704102 647.536865,78.3776855 646.961548,77.6832275 C645.240112,75.7105713 645.468925,73.1413318 645.867065,72.5233154 C646.983612,70.7901488 648.2948,69.8408203 650.533081,69.4715576 C650.817364,69.4246577 650.851271,69.2133676 650.851271,68.6149541 C650.851271,68.0165405 650.92334,67.7934604 652.078101,67.7934604 C653.002178,67.7934604 653.261369,67.8033036 653.837445,67.8033036 C654.336182,67.8033036 654.545813,68.0752939 654.574262,68.3107416 C654.615008,68.6479672 654.605874,69.0509344 654.760132,69.2143555 C654.91413,69.3775017 655.344853,69.4903297 655.673723,69.5556186 C655.904277,69.6013895 656.304659,69.3730107 656.640656,68.9893153 C657.467766,68.0447872 658.998485,66.2948548 659.684802,65.497883 C660.448434,64.6111299 659.714772,63.9970703 658.948608,63.9970703 C654.992551,63.9970703 649.432617,64.0579834 648,64 C646.422974,63.9938965 646.019531,63.3636647 646,62.1591626 C646,62.1591626 646.019897,44.7474365 646,43.1916315 C646.079834,41.1304932 643.860623,40 642.224166,40 L637.51887,40 C635.915718,40 633.963379,41.0296631 634,43.2142206 L634,62 C634.066528,63.3636647 633.200762,64 631.966431,64 C631.966431,64 625.161727,63.9974365 621.300659,63.9974365 C620.457525,63.9974365 619.495791,64.7892955 620.483394,65.8542141 Z M657.413877,83.7885105 C656.408363,84.6037914 655.056376,85.0657771 653.357874,85.1744812 L653.357874,87.07 L651.971903,87.07 L651.971903,85.1744812 C650.667454,85.1201291 649.502299,84.8619607 648.476404,84.3999681 C647.450508,83.9379756 646.625049,83.3333179 646,82.585977 L648.476404,80 C649.332449,81.1821574 650.69463,82.0356641 651.971903,82.2394843 L651.971903,78.9376129 L650.952807,78.7134117 C649.621182,78.4008874 648.602096,77.8845505 647.895519,77.1643856 C647.188942,76.4442208 646.835659,75.5678069 646.835659,74.5351176 C646.835659,73.3257842 647.290851,72.3610495 648.201248,71.6408846 C649.111645,70.9207197 650.368517,70.5198793 651.971903,70.4383512 L651.971903,68.5835962 L653.357874,68.5835962 L653.357874,70.4383512 C655.382488,70.5742313 657.128522,71.2672098 658.596028,72.5173073 L656.190961,75.0039018 C655.402856,74.0391527 654.458503,73.4548767 653.357874,73.2510565 L653.357874,75.9822341 L654.641935,76.287963 C656.136617,76.6276634 657.223642,77.1440002 657.903043,77.8369891 C658.582444,78.5299779 658.922139,79.4607431 658.922139,80.6293125 C658.922139,81.920174 658.41939,82.9732295 657.413877,83.7885105 Z M650.677651,75.1160024 C650.915442,75.3130286 651.346855,75.4930672 651.971903,75.6561234 L651.971903,73.1695288 C651.441971,73.1967048 651.034336,73.3122012 650.748988,73.5160215 C650.46364,73.7198417 650.320968,73.991598 650.320968,74.3312984 C650.320968,74.6574108 650.439861,74.9189762 650.677651,75.1160024 Z M654.774418,81.8420369 C655.120912,81.5906586 655.294157,81.267948 655.294157,80.8738955 C655.294157,80.452667 655.148088,80.1231626 654.855945,79.8853723 C654.563803,79.647582 654.064451,79.4403679 653.357874,79.2637236 L653.357874,82.3006301 C653.955747,82.246278 654.427923,82.0934152 654.774418,81.8420369 Z" id="Decrease-Costs"></path>
            </g>
        </g>
    </g>
</svg>