<?xml version="1.0" encoding="UTF-8"?>
<svg width="40px" height="50px" viewBox="0 0 40 50" version="1.1" xmlns="http://www.w3.org/2000/svg" xmlns:xlink="http://www.w3.org/1999/xlink">
    <!-- Generator: Sketch 41.2 (35397) - http://www.bohemiancoding.com/sketch -->
    <title>Podium</title>
    <desc>Created with Sketch.</desc>
    <defs></defs>
    <g id="Page-1" stroke="none" stroke-width="1" fill="none" fill-rule="evenodd">
        <g id="Artboard" transform="translate(-400.000000, -1600.000000)" fill="#000000">
            <g id="Row-8:-Events" transform="translate(20.000000, 1600.000000)">
                <path d="M394.549869,0 C392.951276,0 391.642892,1.30838372 391.642892,2.90697674 C391.642892,3.17274302 391.684257,3.42501279 391.751903,3.67005814 L386.62854,6.94848633 C386.269409,7.23352051 386,7.72460937 386,8.41320801 L386,11.5 L380.62793,11.5 C380.3439,11.5156674 380.113647,11.7930961 380.035026,12.0093029 C379.956406,12.2255096 380.012654,12.4677412 380.178502,12.6271802 L386,18 L386,41.4351807 C386,42.4675903 385.105729,43.9471354 384.658594,44.1707031 C384.105729,44.4471354 383.118356,45.2825608 383,46.0639648 C382.86499,46.9553223 382.872925,48.5 383.620605,49.0733643 C384.461333,49.7180821 385.536214,50 386.054321,50 L413.5,50 C416.414062,50 417,48.5 417,48.5 C417,48.5 417.527634,46.9226351 417,45.550293 C416.590378,44.484891 416.120004,44.8023426 415.125488,43.6245117 C414.620004,43.0258533 414,42.4735107 414,41.4470215 L414,18 C414,18 417.63361,14.9417015 419.450415,13.164719 C420.714844,11.8626709 419.450415,11.5 419,11.5 L387.5,11.5 L387.5,9.02563477 C387.5,7.980896 388.223267,7.63916016 388.653748,7.35522461 C390.133545,6.29882812 392.391907,4.91833496 392.391907,4.91833496 C392.736389,5.28613281 393.641652,5.81395349 394.549869,5.81395349 C396.148462,5.81395349 397.456845,4.50556977 397.456845,2.90697674 C397.456845,1.30838372 396.148462,0 394.549869,0 Z M394.549869,1.1627907 C395.520042,1.1627907 396.294055,1.93680233 396.294055,2.90697674 C396.294055,3.87715116 395.520042,4.65116279 394.549869,4.65116279 C393.579695,4.65116279 392.805683,3.87715116 392.805683,2.90697674 C392.805683,1.93680233 393.579695,1.1627907 394.549869,1.1627907 Z M384.611233,12.8042217 C397.105191,12.869267 409.594477,12.9628662 415.083814,12.9628662 C418.102356,12.9628662 416.856506,13.8002319 415.265182,14.9677016 C414.795465,15.3123077 414.327345,15.6569744 413.858426,16.0016107 C413.179213,16.5008054 411.49707,17 410.995605,17 L388.843567,17 C388.171783,17 387.164944,16.7429401 386.641419,16.3412835 C385.968311,15.8248647 384.983647,15.0694159 383.998984,14.3139671 C382.562805,13.2080688 382.43396,12.8042217 384.611233,12.8042217 Z M389.021362,18.5 L411.021362,18.5 C411.514242,18.5 412.5,19.2860107 412.5,20.0720215 C412.5,27.3793132 412.5,34.686711 412.5,41.9938965 C412.5,43.5 412.5,43.5 411.016113,43.5 C401.781246,43.5 392.546378,43.5 389.008179,43.5 C387.5,43.5 387.5,43.5 387.5,42.0413818 L387.5,20.0418701 C387.5,19.2709351 388.260681,18.5 389.021362,18.5 Z M386.991333,45 L412.966187,45 C413.810791,45 415.056763,45.4158936 415.056763,46.8991699 C415.056763,48.0699463 413.776286,48.5 412.914429,48.5 L387.003296,48.5 C385.751648,48.5 384.898926,47.7075195 384.898926,46.75 C384.898926,45.9575195 385.745667,45 386.991333,45 Z" id="Podium"></path>
            </g>
        </g>
    </g>
</svg>