<?xml version="1.0" encoding="UTF-8"?>
<svg width="347px" height="481px" viewBox="0 0 347 481" version="1.1" xmlns="http://www.w3.org/2000/svg" xmlns:xlink="http://www.w3.org/1999/xlink">
    <!-- Generator: Sketch 41.2 (35397) - http://www.bohemiancoding.com/sketch -->
    <title>Combined Shape</title>
    <desc>Created with Sketch.</desc>
    <defs>
        <linearGradient x1="79.2052555%" y1="0%" x2="-3.85008318%" y2="104.544569%" id="linearGradient-1">
            <stop stop-color="#D7F4FF" offset="0%"></stop>
            <stop stop-color="#CBFFF1" offset="41.1692508%"></stop>
            <stop stop-color="#FFF9D2" offset="100%"></stop>
        </linearGradient>
    </defs>
    <g id="Page-1" stroke="none" stroke-width="1" fill="none" fill-rule="evenodd">
        <path d="M207.828302,313.793785 L207.828302,419.360451 C207.828302,423.780308 204.249596,427.363309 199.830717,427.363309 L146.549786,427.363309 C142.132842,427.363309 138.552201,423.777602 138.552201,419.360451 L138.552201,313.793785 C127.922661,304.289354 121.233176,290.477281 121.233176,275.104317 C121.233176,246.437162 144.495151,223.197842 173.190252,223.197842 C201.885352,223.197842 225.147327,246.437162 225.147327,275.104317 C225.147327,290.477281 218.457842,304.289354 207.828302,313.793785 Z M294.297921,101.744336 C294.380386,102.204759 294.423428,102.678765 294.423428,103.162721 L294.423428,169.561151 L338.380572,169.561151 C342.798812,169.561151 346.380503,173.139387 346.380503,177.552923 L346.380503,473.008228 C346.380503,477.421962 342.796667,481 338.380572,481 L7.99993161,481 C3.58169138,481 0,477.421764 0,473.008228 L0,177.552923 C0,173.139189 3.58383633,169.561151 7.99993161,169.561151 L51.9570755,169.561151 L51.9570755,103.162721 C51.9570755,102.678064 52.0001441,102.203473 52.0826633,101.742569 C54.9924885,38.1636716 108.101129,0 173.190252,0 C238.279977,0 291.388999,38.1643791 294.297921,101.744336 Z" id="Combined-Shape" fill="url(#linearGradient-1)"></path>
    </g>
</svg>