<?xml version="1.0" encoding="UTF-8"?>
<svg width="356px" height="354px" viewBox="0 0 356 354" version="1.1" xmlns="http://www.w3.org/2000/svg" xmlns:xlink="http://www.w3.org/1999/xlink">
    <!-- Generator: Sketch 41.2 (35397) - http://www.bohemiancoding.com/sketch -->
    <title>Fill 1</title>
    <desc>Created with Sketch.</desc>
    <defs>
        <linearGradient x1="50%" y1="0%" x2="50%" y2="100%" id="linearGradient-1">
            <stop stop-color="#FFFDEF" offset="0%"></stop>
            <stop stop-color="#FFEDE2" offset="100%"></stop>
        </linearGradient>
    </defs>
    <g id="Page-1" stroke="none" stroke-width="1" fill="none" fill-rule="evenodd">
        <g id="Homepage-@2x" transform="translate(-964.000000, -4298.000000)" fill="url(#linearGradient-1)">
            <g id="_hero-5" transform="translate(0.000000, 3764.000000)">
                <g id="_block" transform="translate(745.000000, 534.000000)">
                    <g id="Fill-1">
                        <path d="M344.422466,444.749465 C310.224539,373.57045 328.439129,332.787713 354.724315,294.35944 C383.508854,252.279805 390.927989,210.626204 390.927989,210.626204 C390.927989,210.626204 413.552466,240.047616 404.503427,286.063054 C444.476803,241.555024 452.022472,170.641655 445.988944,143.485742 C536.347792,206.641533 574.964376,343.394708 522.918933,444.749465 C799.725826,288.099246 591.774567,53.7115937 555.56964,27.3100122 C567.637949,53.7115937 569.928084,98.405073 545.547169,120.098978 C504.278388,-36.4184185 402.238348,-68.4987835 402.238348,-68.4987835 C414.306657,12.219635 358.492764,100.485122 304.675848,166.436448 C302.781601,134.249574 300.774601,112.041922 283.85291,81.2396594 C280.054393,139.711582 235.379225,187.37101 223.27709,245.955706 C206.892854,325.289513 235.555871,383.379258 344.422466,444.749465 Z"></path>
                    </g>
                </g>
            </g>
        </g>
    </g>
</svg>