<?xml version="1.0" encoding="UTF-8"?>
<svg width="1873px" height="1069px" viewBox="0 0 1873 1069" version="1.1" xmlns="http://www.w3.org/2000/svg" xmlns:xlink="http://www.w3.org/1999/xlink">
    <!-- Generator: Sketch 41.2 (35397) - http://www.bohemiancoding.com/sketch -->
    <title>bg-curvy-lines-gray</title>
    <desc>Created with Sketch.</desc>
    <defs>
        <linearGradient x1="17.1809584%" y1="50%" x2="100%" y2="50%" id="linearGradient-1">
            <stop stop-color="#B3C8D6" stop-opacity="0" offset="0%"></stop>
            <stop stop-color="#B3C8D6" offset="100%"></stop>
        </linearGradient>
    </defs>
    <g id="strategic-services" stroke="none" stroke-width="1" fill="none" fill-rule="evenodd">
        <g id="bg-curvy-lines-gray" stroke="url(#linearGradient-1)">
            <g id="_pattern" transform="translate(-68.000000, 0.000000)">
                <g id="_lines">
                    <path d="M2922.86052,219.77301 C2922.86052,219.77301 2203.91845,-23.5471082 1660.78755,502.338307 C1117.65665,1028.22372 419.121245,673.447293 298.251073,616.934234" id="Path-2"></path>
                    <path d="M2922.86052,615.364427 C2922.86052,615.364427 2475.48391,-78.4903605 1778.51824,156.980721 C1081.55258,392.451803 1437.88412,875.952424 244.879828,1059.61987" id="Path-3"></path>
                    <path d="M2922.86052,309.252021 C2922.86052,309.252021 1871.13305,788.04322 1225.96888,549.432524 C580.804721,310.821828 310.809013,497.628886 117.730687,686.005751" id="Path-4"></path>
                    <path d="M2922.86052,442.685633 C2922.86052,442.685633 2825.53648,696.994402 2178.80258,670.307679 C1532.06867,643.620956 1607.41631,175.818408 1017.19313,175.818408 C426.969957,175.818408 0,689.145366 0,689.145366" id="Path-5"></path>
                    <path d="M2924.43026,740.949004 C2924.43026,740.949004 2423.6824,971.710664 2145.83798,394.02161 C1867.99356,-183.667444 1128.64485,-45.5244091 579.234979,301.402984" id="Path-6"></path>
                </g>
                <g id="_lines" opacity="0.8" transform="translate(94.184549, 0.000000)">
                    <path d="M2828.77702,219.77301 C2828.77702,219.77301 2132.97687,-23.5471082 1607.32873,502.338307 C1081.68058,1028.22372 405.630217,673.447293 288.650717,616.934234" id="Path-2"></path>
                    <path d="M2828.77702,615.364427 C2828.77702,615.364427 2395.80095,-78.4903605 1721.2698,156.980721 C1046.73865,392.451803 1391.6003,875.952424 236.99743,1059.61987" id="Path-3"></path>
                    <path d="M2828.77702,309.252021 C2828.77702,309.252021 1810.90344,788.04322 1186.50637,549.432524 C562.10929,310.821828 300.804431,497.628886 113.941072,686.005751" id="Path-4"></path>
                    <path d="M2828.77702,442.685633 C2828.77702,442.685633 2734.58574,696.994402 2108.66945,670.307679 C1482.75315,643.620956 1555.67544,175.818408 984.450865,175.818408 C413.226289,175.818408 0,689.145366 0,689.145366" id="Path-5"></path>
                    <path d="M2830.29624,740.949004 C2830.29624,740.949004 2345.66688,971.710664 2076.76594,394.02161 C1807.86501,-183.667444 1092.31508,-45.5244091 560.590076,301.402984" id="Path-6"></path>
                </g>
                <g id="_lines" opacity="0.6" transform="translate(282.553648, 0.000000)">
                    <path d="M2640.61004,219.77301 C2640.61004,219.77301 1991.09371,-23.5471082 1500.41107,502.338307 C1009.72843,1028.22372 378.648163,673.447293 269.450004,616.934234" id="Path-2"></path>
                    <path d="M2640.61004,615.364427 C2640.61004,615.364427 2236.43503,-78.4903605 1606.77292,156.980721 C977.110803,392.451803 1299.03265,875.952424 221.232635,1059.61987" id="Path-3"></path>
                    <path d="M2640.61004,309.252021 C2640.61004,309.252021 1690.44423,788.04322 1107.58133,549.432524 C524.718428,310.821828 280.795267,497.628886 106.361844,686.005751" id="Path-4"></path>
                    <path d="M2640.61004,442.685633 C2640.61004,442.685633 2552.68425,696.994402 1968.40318,670.307679 C1384.12212,643.620956 1452.1937,175.818408 918.966328,175.818408 C385.738953,175.818408 0,689.145366 0,689.145366" id="Path-5"></path>
                    <path d="M2642.02819,740.949004 C2642.02819,740.949004 2189.63582,971.710664 1938.62187,394.02161 C1687.60792,-183.667444 1019.65554,-45.5244091 523.30027,301.402984" id="Path-6"></path>
                </g>
                <g id="_lines" opacity="0.4" transform="translate(439.527897, 0.000000)">
                    <path d="M2483.80421,219.77301 C2483.80421,219.77301 1872.85774,-23.5471082 1411.31303,502.338307 C949.768314,1028.22372 356.163118,673.447293 253.44941,616.934234" id="Path-2"></path>
                    <path d="M2483.80421,615.364427 C2483.80421,615.364427 2103.6301,-78.4903605 1511.35885,156.980721 C919.087596,392.451803 1221.89294,875.952424 208.095305,1059.61987" id="Path-3"></path>
                    <path d="M2483.80421,309.252021 C2483.80421,309.252021 1590.06156,788.04322 1041.81047,549.432524 C493.559377,310.821828 264.120964,497.628886 100.04582,686.005751" id="Path-4"></path>
                    <path d="M2483.80421,442.685633 C2483.80421,442.685633 2401.09967,696.994402 1851.51463,670.307679 C1301.9296,643.620956 1365.95892,175.818408 864.395881,175.818408 C362.832839,175.818408 0,689.145366 0,689.145366" id="Path-5"></path>
                    <path d="M2485.13816,740.949004 C2485.13816,740.949004 2059.60994,971.710664 1823.50181,394.02161 C1587.39367,-183.667444 959.105924,-45.5244091 492.225432,301.402984" id="Path-6"></path>
                </g>
                <g id="_lines" opacity="0.2" transform="translate(973.240343, 0.000000)">
                    <path d="M1950.66442,219.77301 C1950.66442,219.77301 1470.85545,-23.5471082 1108.37968,502.338307 C745.903903,1028.22372 279.713964,673.447293 199.04739,616.934234" id="Path-2"></path>
                    <path d="M1950.66442,615.364427 C1950.66442,615.364427 1652.09334,-78.4903605 1186.95101,156.980721 C721.808693,392.451803 959.617943,875.952424 163.428383,1059.61987" id="Path-3"></path>
                    <path d="M1950.66442,309.252021 C1950.66442,309.252021 1248.76047,788.04322 818.189534,549.432524 C387.618601,310.821828 207.428333,497.628886 78.5713381,686.005751" id="Path-4"></path>
                    <path d="M1950.66442,442.685633 C1950.66442,442.685633 1885.71211,696.994402 1454.09356,670.307679 C1022.47501,643.620956 1072.76067,175.818408 678.856361,175.818408 C284.952053,175.818408 0,689.145366 0,689.145366" id="Path-5"></path>
                    <path d="M1951.71204,740.949004 C1951.71204,740.949004 1617.52195,971.710664 1432.09359,394.02161 C1246.66523,-183.667444 753.237228,-45.5244091 386.570984,301.402984" id="Path-6"></path>
                </g>
            </g>
        </g>
    </g>
</svg>