<?xml version="1.0" encoding="UTF-8"?>
<svg width="1178px" height="207px" viewBox="0 0 1178 207" version="1.1" xmlns="http://www.w3.org/2000/svg" xmlns:xlink="http://www.w3.org/1999/xlink">
    <!-- Generator: Sketch 40.3 (33839) - http://www.bohemiancoding.com/sketch -->
    <title>logo-seldon-w</title>
    <desc>Created with Sketch.</desc>
    <defs></defs>
    <g id="Page-1" stroke="none" stroke-width="1" fill="none" fill-rule="evenodd">
        <g id="logo-seldon-w" fill="#FFFFFF">
            <path d="M307.6,171.72 C337.36,171.72 354,156.84 354,135.24 C354,115.72 343.12,106.12 322.96,101.64 L306.48,98.12 C294.48,95.4 290,91.72 290,84.36 C290,77.16 296.88,72.68 307.6,72.68 C320.56,72.68 331.12,79.08 336.88,90.12 L354.48,75.24 C346.48,60.04 329.52,52.68 309.36,52.68 C282,52.68 265.04,65.64 265.04,86.44 C265.04,105.48 276.56,116.2 296.4,120.52 L311.6,123.72 C323.12,126.12 328.08,129.32 328.08,137.8 C328.08,146.76 319.44,150.76 308.56,150.76 C293.52,150.76 283.6,142.92 277.68,131.24 L257.68,145.32 C265.52,161.32 283.12,171.72 307.6,171.72 L307.6,171.72 Z M440.367607,127.08 C440.367607,101.64 426.287607,87.08 401.167607,87.08 C376.207607,87.08 360.527607,103.56 360.527607,129.8 C360.527607,155.72 376.527607,170.92 402.927607,170.92 C419.567607,170.92 433.167607,163.08 439.567607,149.96 L420.687607,141.32 C417.007607,148.68 411.087607,152.52 403.247607,152.52 C392.527607,152.52 385.007607,145.64 384.847607,134.76 L440.367607,134.76 L440.367607,127.08 Z M411.567607,120.36 L380.847607,120.36 C381.167607,109 386.767607,102.28 396.687607,102.28 C406.287607,102.28 411.567607,108.36 411.567607,119.72 L411.567607,120.36 Z M472.815214,53 L447.055214,53 L447.055214,169 L472.815214,169 L472.815214,53 Z M515.18282,170.92 C526.86282,170.92 536.46282,164.84 540.46282,155.24 L540.46282,169 L564.78282,169 L564.78282,53 L539.18282,53 L539.18282,99.72 C535.18282,91.4 527.18282,87.08 516.62282,87.08 C496.62282,87.08 483.18282,103.88 483.18282,129.32 C483.18282,154.28 495.98282,170.92 515.18282,170.92 L515.18282,170.92 Z M525.26282,153.16 C515.50282,153.16 509.58282,143.88 509.58282,128.84 C509.58282,113.48 515.18282,104.84 524.94282,104.84 C534.06282,104.84 539.50282,112.36 539.50282,125.96 L539.50282,132.84 C539.50282,145.32 534.06282,153.16 525.26282,153.16 L525.26282,153.16 Z M616.270427,170.92 C639.950427,170.92 657.870427,156.36 657.870427,128.84 C657.870427,101.32 639.950427,87.08 616.270427,87.08 C592.750427,87.08 574.830427,101.32 574.830427,128.84 C574.830427,156.36 592.750427,170.92 616.270427,170.92 L616.270427,170.92 Z M616.270427,153.16 C606.350427,153.16 600.430427,145.16 600.430427,128.84 C600.430427,112.36 606.350427,104.84 616.270427,104.84 C626.350427,104.84 632.270427,112.36 632.270427,128.84 C632.270427,145.16 626.350427,153.16 616.270427,153.16 L616.270427,153.16 Z M666.958034,169 L692.718034,169 L692.718034,125.8 C692.718034,113.48 697.678034,106.6 706.638034,106.6 C714.798034,106.6 718.638034,111.88 718.638034,122.92 L718.638034,169 L744.238034,169 L744.238034,119.4 C744.238034,97.96 735.438034,86.92 718.158034,86.92 C705.998034,86.92 697.198034,92.68 691.598034,104.36 L691.598034,89 L666.958034,89 L666.958034,169 Z" id="Seldon"></path>
            <g id="Group" transform="translate(24.000000, 32.000000)">
                <polygon id="path1_fill" transform="translate(50.644150, 78.238703) rotate(180.000000) translate(-50.644150, -78.238703) " points="0 0 101.288299 134.66405 57.706346 156.477407"></polygon>
                <polygon id="path2_fill" fill-opacity="0.246914629" transform="translate(152.638220, 78.577399) rotate(180.000000) translate(-152.638220, -78.577399) " points="203.951937 0 151.284188 157.154798 101.324503 139.405789"></polygon>
                <polygon id="path3_fill" fill-opacity="0.569180254" transform="translate(98.083798, 78.916095) rotate(180.000000) translate(-98.083798, -78.916095) " points="94.3579244 0 152.935808 157.832189 43.2317881 157.832189"></polygon>
            </g>
            <path d="M807.96,173.72 C826.04,173.72 839.64,164.28 844.6,150.36 L846.36,171 L855.48,171 L855.48,112.12 L809.08,112.12 L809.08,122.68 L844.28,122.68 L844.28,126.68 C844.28,137.88 839.32,163 809.88,163 C783.96,163 771.64,141.4 771.64,114.36 C771.64,85.4 785.4,65.24 809.72,65.24 C832.12,65.24 839.32,80.44 841.08,90.84 L853.4,89.24 C851.48,76.6 841.56,54.68 810.2,54.68 C777.24,54.68 759,79.48 759,114.2 C759,148.28 777.08,173.72 807.96,173.72 L807.96,173.72 Z M900.567607,172.92 C912.727607,172.92 922.807607,165.08 926.487607,154.52 L926.487607,171 L937.047607,171 L937.047607,91 L925.847607,91 L925.847607,134.68 C925.847607,150.84 917.047607,163.32 902.487607,163.32 C891.607607,163.32 884.247607,156.28 884.247607,140.6 L884.247607,91 L873.207607,91 L873.207607,141.72 C873.207607,160.76 880.567607,172.92 900.567607,172.92 L900.567607,172.92 Z M960.375214,76.6 L973.015214,76.6 L973.015214,59 L960.375214,59 L960.375214,76.6 Z M961.175214,171 L972.215214,171 L972.215214,91 L961.175214,91 L961.175214,171 Z M1021.78282,172.92 C1034.58282,172.92 1044.18282,165.88 1048.82282,154.04 L1048.82282,171 L1059.38282,171 L1059.38282,55 L1048.18282,55 L1048.18282,105.56 C1043.38282,94.36 1034.58282,89.08 1023.06282,89.08 C1002.74282,89.08 988.82282,106.36 988.82282,131 C988.82282,155.96 1001.94282,172.92 1021.78282,172.92 L1021.78282,172.92 Z M1024.50282,163 C1009.62282,163 1000.66282,150.84 1000.66282,131 C1000.66282,111 1009.62282,99 1024.66282,99 C1039.54282,99 1048.34282,111.16 1048.34282,129.4 L1048.34282,132.76 C1048.34282,150.52 1039.22282,163 1024.50282,163 L1024.50282,163 Z M1145.91043,126.2 C1145.91043,101.88 1133.59043,89.08 1112.15043,89.08 C1090.07043,89.08 1076.63043,105.24 1076.63043,131.48 C1076.63043,158.36 1089.91043,172.92 1112.63043,172.92 C1128.79043,172.92 1140.47043,164.6 1145.43043,149.72 L1135.99043,145.88 C1132.63043,156.76 1124.63043,163 1113.43043,163 C1097.91043,163 1087.99043,151.96 1087.83043,133.88 L1145.91043,133.88 L1145.91043,126.2 Z M1134.55043,124.76 L1087.83043,124.76 C1088.15043,108.28 1097.11043,98.04 1111.99043,98.04 C1126.23043,98.04 1134.55043,106.84 1134.55043,123.32 L1134.55043,124.76 Z" id="Guide"></path>
        </g>
    </g>
</svg>