<svg width="386" height="80" viewBox="0 0 386 80" xmlns="http://www.w3.org/2000/svg"><title>white/logo-catalyze-white</title><path d="M128.284 60.929c-3.443 2.302-7.42 3.453-11.929 3.453-4.51 0-8.438-1.006-11.784-3.017-3.346-2.012-5.928-4.871-7.747-8.579-1.818-3.707-2.727-8.082-2.727-13.122 0-4.992.909-9.354 2.727-13.086 1.819-3.732 4.401-6.603 7.747-8.615 3.346-2.011 7.226-3.017 11.639-3.017 4.606 0 8.474.945 11.601 2.836 3.128 1.89 5.468 4.676 7.02 8.36l-5.747 2.69c-1.066-2.811-2.618-4.92-4.655-6.325-2.037-1.406-4.631-2.108-7.783-2.108-3.298 0-6.183.763-8.656 2.29-2.473 1.526-4.389 3.744-5.746 6.652-1.358 2.908-2.037 6.349-2.037 10.323 0 6.01 1.443 10.723 4.328 14.14 2.885 3.417 6.825 5.125 11.82 5.125 3.25 0 6.062-.824 8.438-2.471 2.376-1.648 4.073-4.072 5.092-7.27l5.819 2.18c-1.504 4.072-3.977 7.258-7.42 9.56zm50.263-1.854l-.363 4.58c-1.358.484-2.813.727-4.365.727-1.891 0-3.382-.412-4.473-1.236-1.091-.824-1.782-2.205-2.073-4.144-1.116 1.696-2.752 3.017-4.91 3.962a16.772 16.772 0 0 1-6.801 1.418c-3.589 0-6.547-.836-8.875-2.508-2.327-1.672-3.491-4.084-3.491-7.234 0-2.763 1.212-5.15 3.637-7.16 2.424-2.012 5.94-3.406 10.547-4.181l9.674-1.6v-2.035c0-2.423-.751-4.362-2.255-5.816-1.503-1.454-3.588-2.18-6.255-2.18-2.425 0-4.522.58-6.292 1.744-1.77 1.163-3.14 2.884-4.11 5.162l-4.291-3.127c.97-2.714 2.776-4.87 5.419-6.47 2.642-1.6 5.734-2.399 9.274-2.399 4.316 0 7.783 1.042 10.402 3.126 2.618 2.084 3.928 5.162 3.928 9.233v17.884c0 .872.218 1.527.654 1.963.437.436 1.14.654 2.11.654s1.94-.121 2.91-.363zm-14.802-1.963c2.206-1.454 3.31-3.344 3.31-5.67v-5.017l-8.147 1.527c-3.25.581-5.674 1.417-7.274 2.508-1.6 1.09-2.4 2.484-2.4 4.18 0 1.502.581 2.654 1.745 3.453 1.164.8 2.788 1.2 4.874 1.2 3.055 0 5.685-.727 7.892-2.181zm44.043 3.998c-2.424 2.181-5.552 3.272-9.383 3.272-2.958 0-5.37-.8-7.237-2.4-1.867-1.599-2.825-4.046-2.874-7.342V32.321h-7.274v-5.016h7.274v-8.724l5.82-1.6v10.324h13.456v5.016h-13.457v21.301c0 1.745.497 3.066 1.492 3.962.994.897 2.315 1.345 3.964 1.345 2.328 0 4.389-.896 6.183-2.69l2.036 4.871zm40.953-2.035l-.364 4.58c-1.358.484-2.813.727-4.364.727-1.892 0-3.383-.412-4.474-1.236-1.09-.824-1.782-2.205-2.073-4.144-1.115 1.696-2.752 3.017-4.91 3.962a16.772 16.772 0 0 1-6.8 1.418c-3.59 0-6.547-.836-8.875-2.508-2.328-1.672-3.492-4.084-3.492-7.234 0-2.763 1.213-5.15 3.637-7.16 2.425-2.012 5.94-3.406 10.548-4.181l9.674-1.6v-2.035c0-2.423-.752-4.362-2.255-5.816-1.503-1.454-3.588-2.18-6.256-2.18-2.424 0-4.522.58-6.292 1.744-1.77 1.163-3.14 2.884-4.11 5.162l-4.291-3.127c.97-2.714 2.776-4.87 5.42-6.47 2.642-1.6 5.733-2.399 9.273-2.399 4.316 0 7.784 1.042 10.402 3.126 2.619 2.084 3.928 5.162 3.928 9.233v17.884c0 .872.218 1.527.655 1.963.436.436 1.14.654 2.11.654.969 0 1.939-.121 2.909-.363zm-14.803-1.963c2.207-1.454 3.31-3.344 3.31-5.67v-5.017l-8.147 1.527c-3.249.581-5.674 1.417-7.274 2.508-1.6 1.09-2.4 2.484-2.4 4.18 0 1.502.582 2.654 1.746 3.453 1.163.8 2.788 1.2 4.873 1.2 3.055 0 5.686-.727 7.892-2.181zm28.769-3.199c0 1.842.279 3.114.836 3.817.558.703 1.588 1.054 3.092 1.054 1.018 0 1.903-.073 2.655-.218.751-.146 1.636-.412 2.655-.8l-.946 5.598c-1.6.678-3.394 1.018-5.383 1.018-2.958 0-5.152-.8-6.583-2.4-1.43-1.599-2.145-4.046-2.145-7.342V10.584h5.819v43.329zm28.732 15.848c-1.407 3.49-2.983 5.95-4.728 7.38-1.746 1.43-4 2.144-6.765 2.144-1.843 0-3.382-.242-4.619-.727-1.237-.485-2.364-1.26-3.382-2.326l2.036-4.944c1.407 1.939 3.37 2.908 5.892 2.908 1.407 0 2.655-.424 3.746-1.272 1.091-.848 2.05-2.387 2.873-4.617l1.892-4.725-15.203-36.277h6.62l9.092 23.7 2.255 6.47 2.618-7.197 8.51-22.973h6.257l-17.094 42.456zm22.476-10.54l19.058-22.32 4.583-4.725-6.474.145h-16.949v-5.016h29.896v4.435l-19.057 22.318-4.51 4.726 7.056-.146h17.093v5.017h-30.696V59.22zm71.794-11.56h-27.423c.34 3.683 1.564 6.543 3.674 8.578 2.11 2.036 4.837 3.054 8.183 3.054 2.667 0 4.885-.46 6.655-1.382 1.77-.92 2.97-2.253 3.601-3.998l4.874 2.545c-1.455 2.568-3.395 4.531-5.82 5.888-2.424 1.357-5.528 2.036-9.31 2.036-5.48 0-9.784-1.672-12.911-5.017-3.128-3.344-4.692-7.972-4.692-13.885 0-5.913 1.491-10.541 4.473-13.886 2.983-3.344 7.214-5.016 12.693-5.016 3.395 0 6.329.751 8.802 2.254 2.473 1.502 4.34 3.538 5.6 6.107 1.262 2.568 1.892 5.452 1.892 8.65 0 1.358-.097 2.715-.291 4.072zm-23.75-13.159c-1.963 1.89-3.164 4.556-3.6 7.997h22.04c-.388-3.392-1.503-6.046-3.346-7.96-1.843-1.915-4.292-2.872-7.347-2.872-3.2 0-5.782.945-7.746 2.835zM26.4 39.33l6.914-11.397h13.83l6.915 11.397-6.915 11.398h-13.83L26.398 39.33zm0 27.66l6.914-11.397h13.83l6.915 11.397-6.915 11.398h-13.83L26.398 66.99zm26.32-13.83l6.916-11.397h13.83L80.38 53.16l-6.915 11.398h-13.83L52.72 53.16zm0-27.66l6.916-11.397h13.83L80.38 25.5l-6.915 11.398h-13.83L52.72 25.5zM26.33 11.67L33.244.273h13.83L53.99 11.67l-6.915 11.398h-13.83L26.33 11.67zM.008 25.5l6.915-11.397h13.83L27.668 25.5l-6.915 11.398H6.923L.008 25.5zm.069 27.66l6.915-11.397h13.83l6.915 11.397-6.915 11.398H6.992L.077 53.16z" fill="#FFF" fill-rule="evenodd"/></svg>