<?xml version="1.0" encoding="UTF-8"?>
<svg width="1200px" height="1200px" viewBox="0 0 1200 1200" version="1.1" xmlns="http://www.w3.org/2000/svg" xmlns:xlink="http://www.w3.org/1999/xlink">
    <!-- Generator: Sketch 42 (36781) - http://www.bohemiancoding.com/sketch -->
    <title>_datica-mark-deep</title>
    <desc>Created with Sketch.</desc>
    <defs></defs>
    <g id="Page-1" stroke="none" stroke-width="1" fill="none" fill-rule="evenodd">
        <g id="Artboard" transform="translate(-251.000000, -399.000000)" fill="#EFF2F4">
            <path d="M256.651491,882.149606 L333.88854,795.850394 L603.276295,1117.11024 L256.651491,882.149606 Z M333.88854,1309.23622 L333.88854,1192.70079 L748.33124,1250.65354 L333.88854,1309.23622 Z M676.745683,1573.80315 L598.880691,1487.50394 L945.505495,1252.54331 L676.745683,1573.80315 Z M1107.51491,1541.04724 L991.973312,1529.07874 L1093.07221,1121.51969 L1107.51491,1541.04724 Z M1406.41601,1227.34646 L1312.22449,1295.37795 L1115.67818,924.984252 L1406.41601,1227.34646 Z M1418.97488,793.330709 L1394.48509,907.346457 L1001.39246,763.724409 L1418.97488,793.330709 Z M1138.91209,462.622047 L1196.68289,564.03937 L808.613815,720.889764 L1138.91209,462.622047 Z M710.026688,405.299213 L820.544741,441.204724 L637.185243,818.527559 L710.026688,405.299213 Z M352.726845,649.708661 L458.849294,602.464567 L574.390895,1006.24409 L352.726845,649.708661 Z M251,1071.75591 L298.095761,965.299213 L653.511774,1187.66142 L251,1071.75591 Z M456.33752,1453.48819 L420.544741,1342.62205 L832.475667,1269.55118 L456.33752,1453.48819 Z M863.872841,1599 L762.77394,1541.04724 L1020.85871,1209.70866 L863.872841,1599 Z M1263.87284,1433.96063 L1150.21507,1458.52756 L1120.70173,1039.62992 L1263.87284,1433.96063 Z M1451,1042.77953 L1382.55416,1137.26772 L1081.14129,845.614173 L1451,1042.77953 Z M1329.17896,627.031496 L1341.10989,742.937008 L922.899529,728.448819 L1329.17896,627.031496 Z M961.204082,399 L1047.23234,477.110236 L726.981162,747.346457 L961.204082,399 Z M535.458399,477.110236 L651.627943,477.110236 L593.229199,892.858268 L535.458399,477.110236 Z" id="_datica-mark-deep"></path>
        </g>
    </g>
</svg>