<svg width="1413" height="711" viewBox="0 0 1413 711" xmlns="http://www.w3.org/2000/svg" xmlns:xlink="http://www.w3.org/1999/xlink"><title>platform-one-api-diagram</title><defs><filter x="-2.4%" y="-5.4%" width="105.1%" height="112.2%" filterUnits="objectBoundingBox" id="a"><feOffset dx="1" dy="2" in="SourceAlpha" result="shadowOffsetOuter1"/><feGaussianBlur stdDeviation="6" in="shadowOffsetOuter1" result="shadowBlurOuter1"/><feColorMatrix values="0 0 0 0 0 0 0 0 0 0 0 0 0 0 0 0 0 0 0.382897418 0" in="shadowBlurOuter1" result="shadowMatrixOuter1"/><feMerge><feMergeNode in="shadowMatrixOuter1"/><feMergeNode in="SourceGraphic"/></feMerge></filter><rect id="c" width="377.799" height="273" rx="10"/><filter x="-8.2%" y="-10.6%" width="116.4%" height="122.7%" filterUnits="objectBoundingBox" id="b"><feOffset dy="2" in="SourceAlpha" result="shadowOffsetOuter1"/><feGaussianBlur stdDeviation="10" in="shadowOffsetOuter1" result="shadowBlurOuter1"/><feColorMatrix values="0 0 0 0 0 0 0 0 0 0 0 0 0 0 0 0 0 0 0.4 0" in="shadowBlurOuter1"/></filter><rect id="e" x="37" y="38" width="747" height="273" rx="10"/><filter x="-4.1%" y="-10.6%" width="108.3%" height="122.7%" filterUnits="objectBoundingBox" id="d"><feOffset dy="2" in="SourceAlpha" result="shadowOffsetOuter1"/><feGaussianBlur stdDeviation="10" in="shadowOffsetOuter1" result="shadowBlurOuter1"/><feColorMatrix values="0 0 0 0 0 0 0 0 0 0 0 0 0 0 0 0 0 0 0.4 0" in="shadowBlurOuter1"/></filter></defs><g fill="none" fill-rule="evenodd"><path d="M875 84.318V73.494c0-5.523-4.477-10-10-10H694.466" stroke="#96CBE8" stroke-width="3" stroke-linecap="round"/><g stroke="#96CBE8" stroke-width="3" stroke-linecap="round"><path d="M153 310v330.278M603.512 640.278H173M603.512 559.278H173M603.512 476.278H173M411.522 396.278H173M411 310v330.278"/></g><path d="M875 268.676V279.5c0 5.523-4.477 10-10 10H694.466M895 84.318V73.494c0-5.523 4.477-10 10-10h170.534M895 268.676V279.5c0 5.523 4.477 10 10 10h170.534" stroke="#96CBE8" stroke-width="3" stroke-linecap="round"/><g filter="url(#a)" transform="translate(37 361)"><rect fill="#FFF" x="512" y="249" width="236" height="63" rx="7"/><text font-family="GTAmerica-Bold, GT America" font-size="30" font-weight="bold" fill="#426788"><tspan x="596.435" y="291">CCD</tspan></text><rect fill="#FFF" x="256" y="249" width="236" height="63" rx="7"/><text font-family="GTAmerica-Bold, GT America" font-size="30" font-weight="bold" fill="#426788"><tspan x="320.05" y="291">NCPDP</tspan></text><rect fill="#FFF" y="249" width="236" height="63" rx="7"/><text font-family="GTAmerica-Bold, GT America" font-size="30" font-weight="bold" fill="#426788"><tspan x="91.95" y="291">EDI</tspan></text><rect fill="#FFF" x="512" y="83" width="236" height="63" rx="7"/><text font-family="GTAmerica-Bold, GT America" font-size="30" font-weight="bold" fill="#426788"><tspan x="577.445" y="125">DICOM</tspan></text><rect fill="#FFF" x="512" y="166" width="236" height="63" rx="7"/><text font-family="GTAmerica-Bold, GT America" font-size="30" font-weight="bold" fill="#426788"><tspan x="537.005" y="208">SNOMED-CT</tspan></text><rect fill="#FFF" x="256" y="166" width="236" height="63" rx="7"/><text font-family="GTAmerica-Bold, GT America" font-size="30" font-weight="bold" fill="#426788"><tspan x="347.275" y="208">X12</tspan></text><rect fill="#FFF" y="166" width="236" height="63" rx="7"/><text font-family="GTAmerica-Bold, GT America" font-size="30" font-weight="bold" fill="#426788"><tspan x="70.47" y="208">LOINC</tspan></text><rect fill="#FFF" y="83" width="236" height="63" rx="7"/><text font-family="GTAmerica-Bold, GT America" font-size="30" font-weight="bold" fill="#426788"><tspan x="67.17" y="125">C-CDA</tspan></text><rect fill="#FFF" x="256" y="83" width="236" height="63" rx="7"/><text font-family="GTAmerica-Bold, GT America" font-size="30" font-weight="bold" fill="#426788"><tspan x="337.66" y="125">FHIR</tspan></text><rect fill="#FFF" width="236" height="63" rx="7"/><text font-family="GTAmerica-Bold, GT America" font-size="30" font-weight="bold" fill="#426788"><tspan x="89.49" y="42">HL7</tspan></text><rect fill="#FFF" x="256" width="236" height="63" rx="7"/><text font-family="GTAmerica-Bold, GT America" font-size="30" font-weight="bold" fill="#426788"><tspan x="340.15" y="42">CDA</tspan></text></g><path d="M841.412 133.195l5.626-6.286 19.624 23.402-25.25-17.116zm5.626 31.111v-8.489l30.19 4.222-30.19 4.267zm24.975 19.273l-5.672-6.287 25.25-17.116-19.578 23.403zm31.38-2.387l-8.417-.871 7.365-29.689 1.052 30.56zm21.773-22.851l-6.861 4.956-14.317-26.982 21.178 22.026zm.915-31.616l-1.784 8.306-28.635-10.463 30.42 2.157zm-20.401-24.09l4.208 7.387-28.269 11.426 24.061-18.813zm-31.242-4.176l8.05 2.615-13.356 27.487 5.306-30.102zm-26.028 17.804l7.73-3.442 8.417 29.414-16.147-25.972zM841 147.007l3.43-7.755 25.891 16.198L841 147.007zm14.958 27.807l-2.608-8.076 30.008-5.323-27.4 13.4zm29.687 10.6l-7.365-4.222 18.8-24.136-11.435 28.358zm29.138-12.022l-8.28 1.79-2.15-30.515 10.43 28.725zm13.631-28.496l-4.986 6.883-21.956-21.245 26.942 14.362zm-8.874-30.285l.87 8.443L889.944 122l29.595-7.388zM892.735 98l6.267 5.69-23.33 19.685L892.736 98zm-31.014 5.69h8.463l-4.254 30.285-4.209-30.285z" fill="#FFF"/><g transform="translate(995 45)"><use fill="#000" filter="url(#b)" xlink:href="#c"/><use fill="#FFF" xlink:href="#c"/></g><text font-family="GTAmerica-Bold, GT America" font-size="30" font-weight="bold" fill="#1E2127" transform="translate(995 45)"><tspan x="67.116" y="197">Your Application</tspan></text><path d="M1129.799 106h68.484a3.795 3.795 0 0 1 3.8 3.804v60.867c0 2.1-1.696 3.803-3.8 3.803H1129.8a3.795 3.795 0 0 1-3.799-3.803v-60.867c0-2.101 1.696-3.804 3.799-3.804zm-1.517 9.503c0-1.072.482-1.895 1.516-1.895h68.486c1.047 0 1.516.634 1.516 1.895v55.174c0 .698-.66 1.515-1.516 1.515h-68.486c-.687 0-1.516-.587-1.516-1.515v-55.174zm3.805-4.177a1.522 1.522 0 1 1 0-3.044 1.522 1.522 0 0 1 0 3.044zm4.565 0a1.522 1.522 0 1 1 0-3.044 1.522 1.522 0 0 1 0 3.044zm4.564 0a1.522 1.522 0 1 1 0-3.044 1.522 1.522 0 0 1 0 3.044zm-7.608 8.369h27.39v19.781h-27.39v-19.781zm0 42.606h27.39v4.565h-27.39V162.3zm0-19.781h10.652v16.738h-10.652V142.52zm13.695 0h13.695v10.651h-13.695V142.52z" fill="#1E2127"/><path fill="#FFF" d="M1168.606 127.303h34.998v51.736h-34.998z"/><path d="M1212.734 127.7c0-2.116-1.15-3.44-3.425-3.44h-38.8c-1.522 0-3.425 1.609-3.425 3.44v69.202c0 2.033 1.846 3.44 3.426 3.44h38.799c1.875 0 3.425-1.003 3.425-3.44V180.56h-2.283v4.565c.023 1.08-.388 1.521-2.282 1.521h-36.52c-1.338 0-2.196 0-2.282-1.521V132.43c-.04-1.41.572-2.443 2.094-2.464h36.897c1.757.074 2.197.541 2.093 1.902v3.804h2.283V127.7zm-22.825 68.838a2.853 2.853 0 1 0 0-5.706 2.853 2.853 0 0 0 0 5.706zm-9.51-70.376h19.02v1.902h-19.02v-1.902zm54.557 41.806c1.644-2.818 2.505-6.027 2.505-9.471s-.94-6.653-2.505-9.471c0-.079-.078-.079-.078-.079-3.288-5.635-9.393-9.47-16.438-9.47-6.966 0-13.15 3.835-16.437 9.47l-.079.079c-1.643 2.818-2.505 6.027-2.505 9.47 0 3.445.94 6.654 2.505 9.472 0 .078.079.078.079.078 3.287 5.636 9.392 9.471 16.437 9.471 6.966 0 13.15-3.835 16.438-9.47 0 0 0-.079.078-.079zm-34.206-8.845h6.497c.078 2.818.47 5.48 1.174 7.906h-5.48a16.827 16.827 0 0 1-2.19-7.906zm2.192-9.158h5.479c-.704 2.426-1.096 5.088-1.174 7.906h-6.497a16.827 16.827 0 0 1 2.192-7.906zm33.188 7.906h-6.497c-.078-2.818-.47-5.48-1.174-7.906h5.48a16.827 16.827 0 0 1 2.191 7.906zm-7.827 0h-9.237v-7.906h7.984c.783 2.348 1.174 5.088 1.253 7.906zm-9.237-9.237v-7.749c2.348.313 4.54 2.035 6.184 5.01.47.86.94 1.8 1.33 2.74h-7.514zm-1.252-7.749v7.75h-7.514c.391-1.018.782-1.88 1.33-2.74 1.644-3.053 3.836-4.775 6.184-5.01zm0 9.08v7.906h-9.236c.078-2.818.47-5.48 1.252-7.906h7.984zm-9.236 9.158h9.236v7.906h-7.984c-.783-2.349-1.174-5.088-1.252-7.906zm9.236 9.236v7.75c-2.348-.314-4.54-2.036-6.184-5.01-.47-.861-.939-1.8-1.33-2.74h7.514zm1.252 7.75v-7.75h7.515c-.392 1.018-.783 1.879-1.331 2.74-1.644 3.053-3.836 4.775-6.184 5.01zm0-9.08v-7.906h9.237c-.079 2.818-.47 5.48-1.253 7.906h-7.984zm10.567-7.906h6.497a16.827 16.827 0 0 1-2.192 7.906h-5.479c.705-2.427 1.096-5.088 1.174-7.906zm3.523-10.489h-5.088c-.47-1.252-.94-2.348-1.566-3.444-.86-1.487-1.8-2.74-2.896-3.6a17.648 17.648 0 0 1 9.55 7.044zm-19.804-7.123c-1.096.94-2.035 2.114-2.896 3.601-.626 1.018-1.096 2.192-1.565 3.444h-5.088c2.192-3.287 5.557-5.792 9.55-7.045zm-9.627 26.848h5.087c.47 1.253.94 2.349 1.566 3.444.86 1.488 1.8 2.74 2.896 3.601a17.648 17.648 0 0 1-9.55-7.045zm19.803 7.123c1.096-.939 2.035-2.113 2.896-3.6.626-1.018 1.096-2.192 1.566-3.444h5.087c-2.191 3.287-5.557 5.792-9.55 7.044z" fill="#1E2127"/><text font-family="GTAmerica-Bold, GT America" font-size="30" font-weight="bold" fill="#FFF"><tspan x="825.265" y="218.63">Datica </tspan> <tspan x="809.215" y="250.63">Platform</tspan></text><g><use fill="#000" filter="url(#d)" xlink:href="#e"/><use fill="#FFF" xlink:href="#e"/></g><rect fill="#426788" x="91.348" y="171.174" width="638.773" height="80.785" rx="6"/><text font-family="GTAmerica-Bold, GT America" font-size="30" font-weight="bold" letter-spacing="6.3" fill="#FFF"><tspan x="242.545" y="223">DATICA REST AP</tspan> <tspan x="568.945" y="223">I</tspan></text><text font-family="GTAmerica-Bold, GT America" font-size="30" font-weight="bold" fill="#1E2127"><tspan x="157.588" y="132">Datica Data Integration Application</tspan></text></g></svg>