<svg width="1750" height="566" viewBox="0 0 1750 566" xmlns="http://www.w3.org/2000/svg" xmlns:xlink="http://www.w3.org/1999/xlink"><title>platform-hitrust-inheritance</title><defs><rect id="b" width="594.321" height="223.357" rx="10"/><filter x="-2.7%" y="-6.3%" width="105.4%" height="114.3%" filterUnits="objectBoundingBox" id="a"><feOffset dy="2" in="SourceAlpha" result="shadowOffsetOuter1"/><feGaussianBlur stdDeviation="5" in="shadowOffsetOuter1" result="shadowBlurOuter1"/><feColorMatrix values="0 0 0 0 0 0 0 0 0 0 0 0 0 0 0 0 0 0 0.0964956975 0" in="shadowBlurOuter1"/></filter><rect id="d" width="483.335" height="228" rx="10"/><filter x="-3.3%" y="-6.1%" width="106.6%" height="114%" filterUnits="objectBoundingBox" id="c"><feOffset dy="2" in="SourceAlpha" result="shadowOffsetOuter1"/><feGaussianBlur stdDeviation="5" in="shadowOffsetOuter1" result="shadowBlurOuter1"/><feColorMatrix values="0 0 0 0 0 0 0 0 0 0 0 0 0 0 0 0 0 0 0.0964956975 0" in="shadowBlurOuter1"/></filter><linearGradient x1="0%" y1="0%" y2="100%" id="e"><stop stop-color="#7A99C5" offset="0%"/><stop stop-color="#526B8D" offset="100%"/></linearGradient><linearGradient x1="0%" y1="0%" y2="100%" id="f"><stop stop-color="#6383A6" offset="0%"/><stop stop-color="#3C4C62" offset="100%"/></linearGradient><linearGradient x1="0%" y1="0%" y2="100%" id="g"><stop stop-color="#4F6485" offset="0%"/><stop stop-color="#2A3239" offset="100%"/></linearGradient><linearGradient x1="0%" y1="0%" y2="100%" id="h"><stop stop-color="#405770" offset="0%"/><stop stop-color="#1D1F21" offset="100%"/></linearGradient></defs><g fill="none" fill-rule="evenodd"><g stroke="#B3C8D6" stroke-width="3" stroke-linecap="round"><path d="M1138 323.494v-32c0-5.523-4.477-10-10-10h-56.351M1138 451.32v20.18c0 5.523-4.477 10-10 10h-56.351"/></g><g transform="translate(28.207 165)"><use fill="#000" filter="url(#a)" xlink:href="#b"/><use fill="#FFF" xlink:href="#b"/></g><text opacity=".763" font-family="GTAmerica-Regular, GT America" font-size="30" fill="#000" transform="translate(28.207 165)"><tspan x="29.026" y="55.267">A HITRUST assessment can have a </tspan> <tspan x="29.026" y="97.267">variable number of controls based on </tspan> <tspan x="29.026" y="139.267">the scope of the audit. A typical one </tspan> <tspan x="29.026" y="181.267">can have several hundred requirements.</tspan></text><g transform="translate(1215 268)"><use fill="#000" filter="url(#c)" xlink:href="#d"/><use fill="#FFF" xlink:href="#d"/></g><text opacity=".763" font-family="GTAmerica-Regular, GT America" font-size="30" fill="#000" transform="translate(1215 268)"><tspan x="35.105" y="59">Technical and procedural </tspan> <tspan x="35.105" y="101">requirements inherited from </tspan> <tspan x="35.105" y="143" font-family="GTAmerica-Bold, GT America" font-weight="bold">Datica</tspan> <tspan x="138" y="143"> can be as high as 40%</tspan> <tspan x="35.105" y="185">of a certification scoping.</tspan></text><g stroke="#B3C8D6" stroke-width="3" stroke-linecap="round"><path d="M590 131.494v-47c0-5.523 4.477-10 10-10h58.288M590 431.32v40.18c0 5.523 4.477 10 10 10h58.288"/></g><path d="M1094.412 378.195l5.626-6.286 19.624 23.402-25.25-17.116zm5.626 31.111v-8.489l30.19 4.222-30.19 4.267zm24.975 19.273l-5.672-6.287 25.25-17.116-19.578 23.403zm31.38-2.387l-8.417-.871 7.365-29.689 1.052 30.56zm21.773-22.851l-6.861 4.956-14.317-26.982 21.178 22.026zm.915-31.616l-1.784 8.306-28.635-10.463 30.42 2.157zm-20.401-24.09l4.208 7.387-28.269 11.426 24.061-18.813zm-31.242-4.176l8.05 2.615-13.356 27.487 5.306-30.102zm-26.028 17.804l7.73-3.442 8.417 29.414-16.147-25.972zm-7.41 30.744l3.43-7.755 25.891 16.198-29.321-8.443zm14.958 27.807l-2.608-8.076 30.008-5.323-27.4 13.4zm29.687 10.6l-7.365-4.222 18.8-24.136-11.435 28.358zm29.138-12.022l-8.28 1.79-2.15-30.515 10.43 28.725zm13.631-28.496l-4.986 6.883-21.956-21.245 26.942 14.362zm-8.874-30.285l.87 8.443-30.465-1.055 29.595-7.388zM1145.735 343l6.267 5.69-23.33 19.685L1145.736 343zm-31.014 5.69h8.463l-4.254 30.285-4.209-30.285z" fill="#7A848D"/><g><g transform="translate(680 418)"><path d="M0 0h368v118c0 11.046-8.954 20-20 20H20c-11.046 0-20-8.954-20-20V0z" fill="url(#e)"/><text font-family="GTAmerica-Bold, GT America" font-size="30" font-weight="bold" fill="#FFF"><tspan x="102.825" y="60">Technology</tspan>  <tspan x="126.885" y="96" font-family="GTAmerica-Regular, GT America" font-weight="normal">Controls</tspan></text><circle fill="#99EF78" cx="27.5" cy="27.5" r="7.5"/></g><g transform="translate(680 281)"><path fill="url(#f)" d="M0 0h368v138H0z"/><text font-family="GTAmerica-Bold, GT America" font-size="30" font-weight="bold" fill="#FFF"><tspan x="90.82" y="60">Management</tspan>  <tspan x="126.385" y="96" font-family="GTAmerica-Regular, GT America" font-weight="normal">Controls</tspan></text><circle fill="#99EF78" cx="27.5" cy="27.5" r="7.5"/></g><g transform="translate(680 144)"><path fill="url(#g)" d="M0 0h368v138H0z"/><text font-family="GTAmerica-Bold, GT America" font-size="30" font-weight="bold" fill="#FFF"><tspan x="145.945" y="60">Legal</tspan>  <tspan x="126.385" y="96" font-family="GTAmerica-Regular, GT America" font-weight="normal">Controls</tspan></text><circle fill="#FFF871" cx="27.5" cy="27.5" r="7.5"/></g><g transform="translate(680 7)"><path d="M20 0h328c11.046 0 20 8.954 20 20v118H0V20C0 8.954 8.954 0 20 0z" fill="url(#h)"/><text font-family="GTAmerica-Bold, GT America" font-size="30" font-weight="bold" fill="#FFF"><tspan x="78.01" y="60">Administrative</tspan>  <tspan x="126.385" y="96" font-family="GTAmerica-Regular, GT America" font-weight="normal">Controls</tspan></text><circle fill="#FFF871" cx="27.5" cy="27.5" r="7.5"/></g></g></g></svg>