<?xml version="1.0" encoding="UTF-8"?>
<svg width="987px" height="374px" viewBox="0 0 987 374" version="1.1" xmlns="http://www.w3.org/2000/svg" xmlns:xlink="http://www.w3.org/1999/xlink">
    <!-- Generator: Sketch 45.1 (43504) - http://www.bohemiancoding.com/sketch -->
    <title>platform-controls-diagram</title>
    <desc>Created with Sketch.</desc>
    <defs>
        <rect id="path-1" x="0" y="0" width="320" height="197" rx="10"></rect>
        <filter x="-5.0%" y="-7.1%" width="110.0%" height="116.2%" filterUnits="objectBoundingBox" id="filter-2">
            <feOffset dx="0" dy="2" in="SourceAlpha" result="shadowOffsetOuter1"></feOffset>
            <feGaussianBlur stdDeviation="5" in="shadowOffsetOuter1" result="shadowBlurOuter1"></feGaussianBlur>
            <feColorMatrix values="0 0 0 0 0   0 0 0 0 0   0 0 0 0 0  0 0 0 0.0964956975 0" type="matrix" in="shadowBlurOuter1"></feColorMatrix>
        </filter>
        <rect id="path-3" x="0" y="0" width="300" height="174" rx="10"></rect>
        <filter x="-5.3%" y="-8.0%" width="110.7%" height="118.4%" filterUnits="objectBoundingBox" id="filter-4">
            <feOffset dx="0" dy="2" in="SourceAlpha" result="shadowOffsetOuter1"></feOffset>
            <feGaussianBlur stdDeviation="5" in="shadowOffsetOuter1" result="shadowBlurOuter1"></feGaussianBlur>
            <feColorMatrix values="0 0 0 0 0   0 0 0 0 0   0 0 0 0 0  0 0 0 0.0964956975 0" type="matrix" in="shadowBlurOuter1"></feColorMatrix>
        </filter>
    </defs>
    <g id="Page-1" stroke="none" stroke-width="1" fill="none" fill-rule="evenodd">
        <g id="platform-controls-diagram" transform="translate(10.000000, 0.000000)">
            <g id="Group-3" transform="translate(647.000000, 159.000000)">
                <g id="Rectangle-2">
                    <use fill="black" fill-opacity="1" filter="url(#filter-2)" xlink:href="#path-1"></use>
                    <use fill="#FFFFFF" fill-rule="evenodd" xlink:href="#path-1"></use>
                </g>
                <path d="M136.7008,95.464 L142.2304,95.464 C143.713607,95.464 145.016794,95.7807968 146.14,96.4144 C147.263206,97.0480032 148.130797,97.9407942 148.7428,99.0928 C149.354803,100.244806 149.6608,101.569593 149.6608,103.0672 C149.6608,104.579208 149.354803,105.918394 148.7428,107.0848 C148.130797,108.251206 147.259606,109.161997 146.1292,109.8172 C144.998794,110.472403 143.684807,110.8 142.1872,110.8 L136.7008,110.8 L136.7008,95.464 Z M142.1008,108.6184 C143.065605,108.6184 143.897197,108.373602 144.5956,107.884 C145.294003,107.394398 145.826798,106.728404 146.194,105.886 C146.561202,105.043596 146.7448,104.104005 146.7448,103.0672 C146.7448,101.454392 146.341604,100.147605 145.5352,99.1468 C144.728796,98.145995 143.598407,97.6456 142.144,97.6456 L139.4872,97.6456 L139.4872,108.6184 L142.1008,108.6184 Z M152.3068,110.1844 C151.637197,109.601197 151.3024,108.827205 151.3024,107.8624 C151.3024,107.343997 151.413999,106.876002 151.6372,106.4584 C151.860401,106.040798 152.187998,105.695201 152.62,105.4216 C153.008802,105.191199 153.476797,105.000401 154.024,104.8492 C154.571203,104.697999 155.276796,104.564801 156.1408,104.4496 L158.4304,104.1688 L158.4304,103.888 C158.4304,103.081596 158.268402,102.494802 157.9444,102.1276 C157.620398,101.760398 157.112803,101.5768 156.4216,101.5768 C155.787997,101.5768 155.287602,101.738798 154.9204,102.0628 C154.553198,102.386802 154.348,102.858397 154.3048,103.4776 L151.648,103.4776 C151.7344,102.325594 152.202396,101.414803 153.052,100.7452 C153.901604,100.075597 155.024793,99.7408 156.4216,99.7408 C158.020008,99.7408 159.189996,100.097196 159.9316,100.81 C160.673204,101.522804 161.044,102.663992 161.044,104.2336 L161.044,107.452 C161.044,108.920807 161.151999,110.036796 161.368,110.8 L158.776,110.8 C158.675199,110.209597 158.6176,109.590403 158.6032,108.9424 C158.343999,109.604803 157.894003,110.123198 157.2532,110.4976 C156.612397,110.872002 155.852804,111.0592 154.9744,111.0592 C153.865594,111.0592 152.976403,110.767603 152.3068,110.1844 Z M157.7608,108.4456 C158.250402,107.927197 158.4952,107.236004 158.4952,106.372 L158.4952,105.6808 L156.0544,106.048 C155.334396,106.163201 154.808802,106.357599 154.4776,106.6312 C154.146398,106.904801 153.9808,107.271998 153.9808,107.7328 C153.9808,108.193602 154.142798,108.557199 154.4668,108.8236 C154.790802,109.090001 155.240797,109.2232 155.8168,109.2232 C156.623204,109.2232 157.271198,108.964003 157.7608,108.4456 Z M162.34,100 L164.284,100 L164.284,97.2784 L166.876,96.2416 L166.876,100 L169.5112,100 L169.5112,101.8792 L166.876,101.8792 L166.876,107.0416 C166.876,107.632003 167.005599,108.063999 167.2648,108.3376 C167.524001,108.611201 167.919997,108.748 168.4528,108.748 C168.812802,108.748 169.165598,108.7048 169.5112,108.6184 L169.5112,110.8 C168.877597,110.929601 168.287203,110.9944 167.74,110.9944 C166.501594,110.9944 165.616003,110.692003 165.0832,110.0872 C164.550397,109.482397 164.284,108.604006 164.284,107.452 L164.284,101.8792 L162.34,101.8792 L162.34,100 Z M171.8872,100 L174.4792,100 L174.4792,110.8 L171.8872,110.8 L171.8872,100 Z M171.7576,95.5072 L174.5656,95.5072 L174.5656,98.2072 L171.7576,98.2072 L171.7576,95.5072 Z M179.5012,110.3572 C178.701996,109.889198 178.086402,109.230404 177.6544,108.3808 C177.222398,107.531196 177.0064,106.537606 177.0064,105.4 C177.0064,103.643191 177.481595,102.260805 178.432,101.2528 C179.382405,100.244795 180.678392,99.7408 182.32,99.7408 C183.659207,99.7408 184.746396,100.082797 185.5816,100.7668 C186.416804,101.450803 186.913599,102.404794 187.072,103.6288 L184.5448,104.0392 C184.4584,103.304796 184.217202,102.743202 183.8212,102.3544 C183.425198,101.965598 182.903203,101.7712 182.2552,101.7712 C181.448796,101.7712 180.815202,102.087997 180.3544,102.7216 C179.893598,103.355203 179.6632,104.226394 179.6632,105.3352 C179.6632,106.501606 179.893598,107.405197 180.3544,108.046 C180.815202,108.686803 181.463196,109.0072 182.2984,109.0072 C182.946403,109.0072 183.468398,108.812802 183.8644,108.424 C184.260402,108.035198 184.515999,107.459204 184.6312,106.696 L187.072,107.1928 C186.884799,108.388006 186.362804,109.331197 185.506,110.0224 C184.649196,110.713603 183.580006,111.0592 182.2984,111.0592 C181.232795,111.0592 180.300404,110.825202 179.5012,110.3572 Z M189.5884,110.1844 C188.918797,109.601197 188.584,108.827205 188.584,107.8624 C188.584,107.343997 188.695599,106.876002 188.9188,106.4584 C189.142001,106.040798 189.469598,105.695201 189.9016,105.4216 C190.290402,105.191199 190.758397,105.000401 191.3056,104.8492 C191.852803,104.697999 192.558396,104.564801 193.4224,104.4496 L195.712,104.1688 L195.712,103.888 C195.712,103.081596 195.550002,102.494802 195.226,102.1276 C194.901998,101.760398 194.394403,101.5768 193.7032,101.5768 C193.069597,101.5768 192.569202,101.738798 192.202,102.0628 C191.834798,102.386802 191.6296,102.858397 191.5864,103.4776 L188.9296,103.4776 C189.016,102.325594 189.483996,101.414803 190.3336,100.7452 C191.183204,100.075597 192.306393,99.7408 193.7032,99.7408 C195.301608,99.7408 196.471596,100.097196 197.2132,100.81 C197.954804,101.522804 198.3256,102.663992 198.3256,104.2336 L198.3256,107.452 C198.3256,108.920807 198.433599,110.036796 198.6496,110.8 L196.0576,110.8 C195.956799,110.209597 195.8992,109.590403 195.8848,108.9424 C195.625599,109.604803 195.175603,110.123198 194.5348,110.4976 C193.893997,110.872002 193.134404,111.0592 192.256,111.0592 C191.147194,111.0592 190.258003,110.767603 189.5884,110.1844 Z M195.0424,108.4456 C194.552798,108.964003 193.904804,109.2232 193.0984,109.2232 C192.522397,109.2232 192.072402,109.090001 191.7484,108.8236 C191.424398,108.557199 191.2624,108.193602 191.2624,107.7328 C191.2624,107.271998 191.427998,106.904801 191.7592,106.6312 C192.090402,106.357599 192.615996,106.163201 193.336,106.048 L195.7768,105.6808 L195.7768,106.372 C195.7768,107.236004 195.532002,107.927197 195.0424,108.4456 Z M100.141287,100.07874 L102.072214,97.9212598 L108.806907,105.952756 L100.141287,100.07874 Z M102.072214,110.755906 L102.072214,107.84252 L112.433281,109.291339 L102.072214,110.755906 Z M110.643642,117.370079 L108.697017,115.212598 L117.362637,109.338583 L110.643642,117.370079 Z M121.412873,116.551181 L118.524333,116.251969 L121.051805,106.062992 L121.412873,116.551181 Z M128.8854,108.708661 L126.530612,110.409449 L121.616954,101.149606 L128.8854,108.708661 Z M129.199372,97.8582677 L128.587127,100.708661 L118.759812,97.1181102 L129.199372,97.8582677 Z M122.197802,89.5905512 L123.642072,92.1259843 L113.940345,96.0472441 L122.197802,89.5905512 Z M111.475667,88.1574803 L114.238619,89.0551181 L109.654631,98.488189 L111.475667,88.1574803 Z M102.543171,94.2677165 L105.196232,93.0866142 L108.084772,103.181102 L102.543171,94.2677165 Z M100,104.818898 L101.177394,102.15748 L110.062794,107.716535 L100,104.818898 Z M105.133438,114.362205 L104.238619,111.590551 L114.536892,109.76378 L105.133438,114.362205 Z M115.321821,118 L112.794349,116.551181 L119.246468,108.267717 L115.321821,118 Z M125.321821,113.874016 L122.480377,114.488189 L121.742543,104.015748 L125.321821,113.874016 Z M130,104.094488 L128.288854,106.456693 L120.753532,99.1653543 L130,104.094488 Z M126.954474,93.7007874 L127.252747,96.5984252 L116.797488,96.2362205 L126.954474,93.7007874 Z M117.755102,88 L119.905808,89.9527559 L111.899529,96.7086614 L117.755102,88 Z M107.11146,89.9527559 L110.015699,89.9527559 L108.55573,100.346457 L107.11146,89.9527559 Z" id="Logo" fill="#010101"></path>
                <text id="Technical-and-proced" font-family="GTAmerica-RegularItalic, GT America" font-size="18" font-style="italic" font-weight="normal" fill="#000000">
                    <tspan x="56.707" y="42">Technical and procedural </tspan>
                    <tspan x="45.988" y="64">requirements inherited from</tspan>
                </text>
                <text id="can-be-as-high-as-40" font-family="GTAmerica-RegularItalic, GT America" font-size="18" font-style="italic" font-weight="normal" fill="#000000">
                    <tspan x="67.848" y="150">can be as high as 40%</tspan>
                    <tspan x="57.336" y="172">of a certification scoping</tspan>
                </text>
            </g>
            <g id="Group" transform="translate(0.000000, 71.000000)">
                <g id="Rectangle-2">
                    <use fill="black" fill-opacity="1" filter="url(#filter-4)" xlink:href="#path-3"></use>
                    <use fill="#FFFFFF" fill-rule="evenodd" xlink:href="#path-3"></use>
                </g>
                <text id="A-HITRUST-assessment" font-family="GTAmerica-RegularItalic, GT America" font-size="18" font-style="italic" font-weight="normal" fill="#000000">
                    <tspan x="36.8197697" y="40">A HITRUST assessment can </tspan>
                    <tspan x="44.8747697" y="62">have a variable number of </tspan>
                    <tspan x="23.1757697" y="84">controls based on the scope of </tspan>
                    <tspan x="38.0617697" y="106">the audit. A typical one can </tspan>
                    <tspan x="62.5057697" y="128">have several hundred </tspan>
                    <tspan x="98.2987697" y="150">requiremets.</tspan>
                </text>
            </g>
            <g id="Group-2" transform="translate(353.000000, 0.000000)">
                <rect id="Rectangle-2" fill="#2354CD" x="0" y="0" width="243" height="374" rx="3"></rect>
                <rect id="Rectangle-2" fill="#1260FF" x="0" y="11" width="243" height="259"></rect>
                <rect id="Rectangle-2" fill="#5183FF" x="0" y="4" width="243" height="174"></rect>
                <path d="M3,0 L240,0 L240,0 C241.656854,1.58830449e-14 243,1.34314575 243,3 L243,87 L0,87 L0,3 L-4.4408921e-16,3 C-6.46995335e-16,1.34314575 1.34314575,3.04359188e-16 3,0 Z" id="Rectangle-2" fill="#6893FF"></path>
                <text id="Administrative-Contr" font-family="GTAmerica-Regular, GT America" font-size="24" font-weight="normal" fill="#FFFFFF">
                    <tspan x="43.308" y="38">Administrative</tspan>
                    <tspan x="75.408" y="67">Controls</tspan>
                </text>
                <text id="Legal-Controls" font-family="GTAmerica-Regular, GT America" font-size="24" font-weight="normal" fill="#FFFFFF">
                    <tspan x="92.976" y="127">Legal</tspan>
                    <tspan x="75.408" y="156">Controls</tspan>
                </text>
                <text id="Technology-Controls" font-family="GTAmerica-Regular, GT America" font-size="24" font-weight="normal" fill="#FFFFFF">
                    <tspan x="60.572" y="317">Technology</tspan>
                    <tspan x="75.908" y="346">Controls</tspan>
                </text>
                <text id="Management-Controls" font-family="GTAmerica-Regular, GT America" font-size="24" font-weight="normal" fill="#FFFFFF">
                    <tspan x="51.596" y="220">Management</tspan>
                    <tspan x="75.908" y="249">Controls</tspan>
                </text>
            </g>
            <path d="M333.226562,1.1953125 C333.019531,9.64713542 333.019531,55.0880191 333.226562,137.517963 C333.266005,153.221973 319.363281,156.730469 319.363281,160.609375 C319.363281,164.488281 334.070312,167.871094 334.070312,183.335937 C334.070312,193.278646 334.070312,256.545727 334.070312,373.137182" id="Path-2" stroke="#242F36"></path>
            <path d="M613.226562,164.195312 C613.185653,172.122205 613.185653,222.229756 613.226562,238.517963 C613.266005,254.221973 627.363281,257.730469 627.363281,261.609375 C627.363281,265.488281 614.070312,268.871094 614.070312,284.335937 C614.070312,294.278646 614.070312,338.545727 614.070312,355.137182" id="Path-2" stroke="#242F36"></path>
        </g>
    </g>
</svg>