<svg width="132" height="132" viewBox="0 0 132 132" xmlns="http://www.w3.org/2000/svg"><title>podcast-subscribe</title><g fill="none" fill-rule="evenodd"><circle fill="#1055FF" cx="66" cy="66" r="66"/><path d="M13.13 78.595c-.81-.44-1.405-1.045-1.785-1.815l1.875-1.32c.29.58.675 1.03 1.155 1.35.48.32 1.06.48 1.74.48.54 0 .98-.102 1.32-.308.34-.205.51-.507.51-.907 0-.39-.117-.677-.352-.862-.236-.186-.633-.338-1.193-.458l-1.425-.3c-1.96-.43-2.94-1.495-2.94-3.195 0-.65.167-1.212.503-1.688.335-.475.814-.84 1.44-1.094.625-.256 1.362-.383 2.212-.383.97 0 1.825.177 2.565.532.74.356 1.295.883 1.665 1.583l-1.65 1.395c-.27-.52-.642-.922-1.117-1.208-.476-.285-1.018-.427-1.628-.427-.5 0-.9.097-1.2.293-.3.195-.45.462-.45.802s.117.607.353.803c.235.195.632.357 1.192.487l1.545.33c.98.22 1.71.577 2.19 1.072.48.496.72 1.188.72 2.078 0 .68-.17 1.277-.51 1.793-.34.515-.837.914-1.492 1.2-.656.285-1.438.427-2.348.427-1.12 0-2.085-.22-2.895-.66zM27.005 68.35v6.825c0 .63.175 1.125.525 1.485.35.36.835.54 1.455.54.62 0 1.105-.18 1.455-.54.35-.36.525-.855.525-1.485V68.35H33.5v6.93c0 .81-.18 1.512-.54 2.108-.36.595-.88 1.054-1.56 1.38-.68.325-1.485.487-2.415.487-.93 0-1.735-.162-2.415-.487-.68-.326-1.2-.785-1.56-1.38-.36-.596-.54-1.298-.54-2.108v-6.93h2.535zm19.343 5.933c.385.445.577 1.017.577 1.717 0 .57-.135 1.082-.405 1.537-.27.456-.677.813-1.222 1.073-.546.26-1.208.39-1.988.39h-4.995V68.35h4.8c1.17 0 2.052.252 2.648.758.595.505.892 1.167.892 1.987 0 .57-.167 1.065-.502 1.485-.336.42-.808.71-1.418.87.69.11 1.227.387 1.613.832zm-5.498-4.148v2.595h1.59c.54 0 .937-.12 1.193-.36.255-.24.382-.555.382-.945 0-.39-.13-.702-.39-.938-.26-.235-.655-.352-1.185-.352h-1.59zm3.008 6.69c.285-.26.427-.605.427-1.035 0-.42-.14-.755-.42-1.005-.28-.25-.68-.375-1.2-.375H40.85v2.805h1.755c.55 0 .967-.13 1.253-.39zm8.122 1.77c-.81-.44-1.405-1.045-1.785-1.815l1.875-1.32c.29.58.675 1.03 1.155 1.35.48.32 1.06.48 1.74.48.54 0 .98-.102 1.32-.308.34-.205.51-.507.51-.907 0-.39-.117-.677-.352-.862-.236-.186-.633-.338-1.193-.458l-1.425-.3c-1.96-.43-2.94-1.495-2.94-3.195 0-.65.167-1.212.503-1.688.335-.475.814-.84 1.44-1.094.625-.256 1.362-.383 2.212-.383.97 0 1.825.177 2.565.532.74.356 1.295.883 1.665 1.583l-1.65 1.395c-.27-.52-.642-.922-1.117-1.208-.476-.285-1.018-.427-1.628-.427-.5 0-.9.097-1.2.293-.3.195-.45.462-.45.802s.117.607.353.803c.235.195.632.357 1.192.487l1.545.33c.98.22 1.71.577 2.19 1.072.48.496.72 1.188.72 2.078 0 .68-.17 1.277-.51 1.793-.34.515-.837.914-1.492 1.2-.656.285-1.438.427-2.348.427-1.12 0-2.085-.22-2.895-.66zm13.208-.022c-.776-.456-1.363-1.1-1.763-1.935-.4-.836-.6-1.818-.6-2.948 0-1.12.21-2.1.63-2.94.42-.84 1.022-1.492 1.808-1.957.785-.466 1.712-.698 2.782-.698 1.34 0 2.425.342 3.255 1.028.83.685 1.315 1.617 1.455 2.797l-2.565.45c-.08-.71-.31-1.26-.69-1.65-.38-.39-.885-.585-1.515-.585-.8 0-1.427.317-1.882.953-.456.635-.683 1.497-.683 2.587 0 1.07.232 1.925.698 2.565.465.64 1.112.96 1.942.96.59 0 1.075-.192 1.455-.578.38-.385.625-.922.735-1.612l2.565.555c-.26 1.15-.802 2.052-1.627 2.707-.826.656-1.883.983-3.173.983-1.11 0-2.052-.227-2.827-.682zm15.907-3.653h-1.53V79H77.03V68.35h4.68c1.31 0 2.287.29 2.932.87.646.58.968 1.38.968 2.4 0 .68-.18 1.28-.54 1.8-.36.52-.875.895-1.545 1.125L85.88 79h-2.745l-2.04-4.08zm-1.53-1.74H81.2c.6 0 1.045-.135 1.335-.405.29-.27.435-.655.435-1.155 0-.99-.59-1.485-1.77-1.485h-1.635v3.045zM90.2 79V68.35h2.535V79H90.2zm15.563-4.718c.385.446.577 1.018.577 1.718 0 .57-.135 1.082-.405 1.537-.27.456-.677.813-1.222 1.073-.546.26-1.208.39-1.988.39H97.73V68.35h4.8c1.17 0 2.052.252 2.647.758.596.505.893 1.167.893 1.987 0 .57-.167 1.065-.502 1.485-.336.42-.808.71-1.418.87.69.11 1.227.387 1.612.832zm-5.498-4.147v2.595h1.59c.54 0 .937-.12 1.192-.36.256-.24.383-.555.383-.945 0-.39-.13-.702-.39-.938-.26-.235-.655-.352-1.185-.352h-1.59zm3.007 6.69c.286-.26.428-.605.428-1.035 0-.42-.14-.755-.42-1.005-.28-.25-.68-.375-1.2-.375h-1.815v2.805h1.755c.55 0 .967-.13 1.252-.39zm14.843.3V79h-7.395V68.35h7.29v1.875h-4.755v2.4h4.5v1.86h-4.5v2.64h4.86zM34.28 91.988h-4.333V104H25.35V91.988h-4.335V88.38H34.28v3.608zm6.92 11.385c-1.21-.667-2.14-1.617-2.794-2.85-.653-1.23-.98-2.676-.98-4.333s.327-3.102.98-4.334c.653-1.232 1.584-2.182 2.794-2.85 1.21-.666 2.622-1 4.235-1 1.613 0 3.025.334 4.235 1 1.21.668 2.14 1.618 2.794 2.85.653 1.232.98 2.677.98 4.334 0 1.657-.327 3.102-.98 4.334-.653 1.232-1.584 2.182-2.794 2.85-1.21.666-2.622 1-4.235 1-1.613 0-3.025-.334-4.235-1zm6.666-3.762c.58-.81.87-1.95.87-3.42 0-1.46-.29-2.6-.87-3.42-.58-.81-1.39-1.22-2.43-1.22-1.042 0-1.853.41-2.432 1.22-.58.82-.87 1.96-.87 3.42s.29 2.61.87 3.42c.58.82 1.39 1.23 2.43 1.23 1.042 0 1.853-.4 2.432-1.22zM58.46 88.38h6.82c1.583 0 2.97.32 4.157.957 1.188.638 2.108 1.54 2.76 2.706.654 1.166.98 2.504.98 4.015 0 1.584-.326 2.974-.98 4.17-.652 1.194-1.576 2.122-2.77 2.782-1.196.66-2.593.99-4.192.99H58.46V88.38zm6.555 12.342c1.085 0 1.93-.447 2.53-1.342.6-.895.902-2.002.902-3.322 0-1.305-.286-2.365-.858-3.18-.58-.813-1.42-1.22-2.53-1.22h-2.01v9.064H65zm22.154.088H81.8l-.99 3.19h-4.597l5.544-15.62h5.456L92.757 104H88.16l-.99-3.19zm-.95-3.08l-1.04-3.388c-.19-.616-.34-1.1-.43-1.452-.1-.352-.18-.792-.26-1.32h-.05c-.073.528-.158.968-.253 1.32-.095.352-.238.836-.43 1.452l-1.03 3.388h3.476zm12.96.946L94.03 88.38h4.818l2.268 5.302c.174.425.29.85.35 1.276h.043c.06-.425.17-.85.35-1.276l2.26-5.302h4.82l-5.15 10.296V104h-4.62v-5.324zM84.9 44.736l-1.35 5.426c-.4 1.08-1.205 1.92-2.267 2.367-.774.32-1.602.4-2.403.23 1.79-2.95 3.092-7.77 3.622-13.42 1.004.37 1.812 1.09 2.278 2.06.49 1.015.54 2.16.12 3.313m-8.12 5.14l2.34-9.524c.23-.76.883-1.28 1.61-1.393-.41 4.51-1.51 9.87-3.493 13-.496-.538-.69-1.316-.458-2.086m-22.67 2.9c-.8.16-1.63.087-2.41-.24-1.07-.447-1.87-1.286-2.27-2.366l-1.38-3.713c-.49-1.31-.28-3.37.51-5.01.51-1.056 1.18-1.78 1.91-2.08.52 5.62 1.83 10.45 3.62 13.41m-.25-12.46l2.364 9.617c.223.74.024 1.517-.468 2.05-2-3.144-3.1-8.536-3.5-13.006.73.11 1.38.62 1.6 1.34m32.55.33c-.71-1.464-1.94-2.554-3.49-3.064l-.343-.11c-.34-8.58-7.41-15.46-16.08-15.46-8.642 0-15.7 6.842-16.08 15.456l-.34.114c-1.255.42-2.365 1.514-3.12 3.09-1 2.077-1.23 4.655-.58 6.417l1.38 3.713c.577 1.56 1.736 2.77 3.26 3.41.74.31 1.527.47 2.3.47.82 0 1.64-.17 2.41-.52l.167-.07.058-.025c1.726-.852 2.576-2.81 2.03-4.604l-2.37-9.62c-.46-1.523-1.81-2.54-3.374-2.65.492-7.45 6.694-13.37 14.27-13.37 7.586 0 13.795 5.94 14.27 13.35-1.536.104-2.912 1.136-3.39 2.72l-2.34 9.52c-.56 1.843.29 3.8 2.04 4.66l.023.01.17.076c.774.346 1.59.52 2.41.52.78 0 1.56-.16 2.3-.47 1.53-.644 2.685-1.854 3.29-3.5l1.35-5.428c.57-1.524.49-3.17-.214-4.636" fill="#FFF"/></g></svg>