<svg width="747" height="461" viewBox="0 0 747 461" xmlns="http://www.w3.org/2000/svg" xmlns:xlink="http://www.w3.org/1999/xlink"><title>spiral-bg-alt</title><defs><path id="a" d="M30 67h327v327H30z"/><mask id="O" x="0" y="0" width="327" height="327" fill="#fff"><use xlink:href="#a"/></mask><path id="b" d="M40 67h327v327H40z"/><mask id="P" x="0" y="0" width="327" height="327" fill="#fff"><use xlink:href="#b"/></mask><path id="c" d="M50 67h327v327H50z"/><mask id="Q" x="0" y="0" width="327" height="327" fill="#fff"><use xlink:href="#c"/></mask><path id="d" d="M60 67h327v327H60z"/><mask id="R" x="0" y="0" width="327" height="327" fill="#fff"><use xlink:href="#d"/></mask><path id="e" d="M70 67h327v327H70z"/><mask id="S" x="0" y="0" width="327" height="327" fill="#fff"><use xlink:href="#e"/></mask><path id="f" d="M80 67h327v327H80z"/><mask id="T" x="0" y="0" width="327" height="327" fill="#fff"><use xlink:href="#f"/></mask><path id="g" d="M90 67h327v327H90z"/><mask id="U" x="0" y="0" width="327" height="327" fill="#fff"><use xlink:href="#g"/></mask><path id="h" d="M100 67h327v327H100z"/><mask id="V" x="0" y="0" width="327" height="327" fill="#fff"><use xlink:href="#h"/></mask><path id="i" d="M110 67h327v327H110z"/><mask id="W" x="0" y="0" width="327" height="327" fill="#fff"><use xlink:href="#i"/></mask><path id="j" d="M120 67h327v327H120z"/><mask id="X" x="0" y="0" width="327" height="327" fill="#fff"><use xlink:href="#j"/></mask><path id="k" d="M120 67h327v327H120z"/><mask id="Y" x="0" y="0" width="327" height="327" fill="#fff"><use xlink:href="#k"/></mask><path id="l" d="M130 67h327v327H130z"/><mask id="Z" x="0" y="0" width="327" height="327" fill="#fff"><use xlink:href="#l"/></mask><path id="m" d="M140 67h327v327H140z"/><mask id="aa" x="0" y="0" width="327" height="327" fill="#fff"><use xlink:href="#m"/></mask><path id="n" d="M150 67h327v327H150z"/><mask id="ab" x="0" y="0" width="327" height="327" fill="#fff"><use xlink:href="#n"/></mask><path id="o" d="M160 67h327v327H160z"/><mask id="ac" x="0" y="0" width="327" height="327" fill="#fff"><use xlink:href="#o"/></mask><path id="p" d="M170 67h327v327H170z"/><mask id="ad" x="0" y="0" width="327" height="327" fill="#fff"><use xlink:href="#p"/></mask><path id="q" d="M180 67h327v327H180z"/><mask id="ae" x="0" y="0" width="327" height="327" fill="#fff"><use xlink:href="#q"/></mask><path id="r" d="M190 67h327v327H190z"/><mask id="af" x="0" y="0" width="327" height="327" fill="#fff"><use xlink:href="#r"/></mask><path id="s" d="M200 67h327v327H200z"/><mask id="ag" x="0" y="0" width="327" height="327" fill="#fff"><use xlink:href="#s"/></mask><path id="t" d="M210 67h327v327H210z"/><mask id="ah" x="0" y="0" width="327" height="327" fill="#fff"><use xlink:href="#t"/></mask><path id="u" d="M210 67h327v327H210z"/><mask id="ai" x="0" y="0" width="327" height="327" fill="#fff"><use xlink:href="#u"/></mask><path id="v" d="M220 67h327v327H220z"/><mask id="aj" x="0" y="0" width="327" height="327" fill="#fff"><use xlink:href="#v"/></mask><path id="w" d="M230 67h327v327H230z"/><mask id="ak" x="0" y="0" width="327" height="327" fill="#fff"><use xlink:href="#w"/></mask><path id="x" d="M240 67h327v327H240z"/><mask id="al" x="0" y="0" width="327" height="327" fill="#fff"><use xlink:href="#x"/></mask><path id="y" d="M250 67h327v327H250z"/><mask id="am" x="0" y="0" width="327" height="327" fill="#fff"><use xlink:href="#y"/></mask><path id="z" d="M260 67h327v327H260z"/><mask id="an" x="0" y="0" width="327" height="327" fill="#fff"><use xlink:href="#z"/></mask><path id="A" d="M270 67h327v327H270z"/><mask id="ao" x="0" y="0" width="327" height="327" fill="#fff"><use xlink:href="#A"/></mask><path id="B" d="M280 67h327v327H280z"/><mask id="ap" x="0" y="0" width="327" height="327" fill="#fff"><use xlink:href="#B"/></mask><path id="C" d="M290 67h327v327H290z"/><mask id="aq" x="0" y="0" width="327" height="327" fill="#fff"><use xlink:href="#C"/></mask><path id="D" d="M300 67h327v327H300z"/><mask id="ar" x="0" y="0" width="327" height="327" fill="#fff"><use xlink:href="#D"/></mask><path id="E" d="M300 67h327v327H300z"/><mask id="as" x="0" y="0" width="327" height="327" fill="#fff"><use xlink:href="#E"/></mask><path id="F" d="M310 67h327v327H310z"/><mask id="at" x="0" y="0" width="327" height="327" fill="#fff"><use xlink:href="#F"/></mask><path id="G" d="M320 67h327v327H320z"/><mask id="au" x="0" y="0" width="327" height="327" fill="#fff"><use xlink:href="#G"/></mask><path id="H" d="M330 67h327v327H330z"/><mask id="av" x="0" y="0" width="327" height="327" fill="#fff"><use xlink:href="#H"/></mask><path id="I" d="M340 67h327v327H340z"/><mask id="aw" x="0" y="0" width="327" height="327" fill="#fff"><use xlink:href="#I"/></mask><path id="J" d="M350 67h327v327H350z"/><mask id="ax" x="0" y="0" width="327" height="327" fill="#fff"><use xlink:href="#J"/></mask><path id="K" d="M360 67h327v327H360z"/><mask id="ay" x="0" y="0" width="327" height="327" fill="#fff"><use xlink:href="#K"/></mask><path id="L" d="M370 67h327v327H370z"/><mask id="az" x="0" y="0" width="327" height="327" fill="#fff"><use xlink:href="#L"/></mask><path id="M" d="M380 67h327v327H380z"/><mask id="aA" x="0" y="0" width="327" height="327" fill="#fff"><use xlink:href="#M"/></mask><path id="N" d="M390 67h327v327H390z"/><mask id="aB" x="0" y="0" width="327" height="327" fill="#fff"><use xlink:href="#N"/></mask></defs><g stroke="#fff" stroke-width="2" fill="none" fill-rule="evenodd" opacity=".8"><use mask="url(#O)" xlink:href="#a"/><use mask="url(#P)" transform="rotate(10 203.5 230.5)" xlink:href="#b"/><use mask="url(#Q)" transform="rotate(20 213.5 230.5)" xlink:href="#c"/><use mask="url(#R)" transform="rotate(30 223.5 230.5)" xlink:href="#d"/><use mask="url(#S)" transform="rotate(40 233.5 230.5)" xlink:href="#e"/><use mask="url(#T)" transform="rotate(50 243.5 230.5)" xlink:href="#f"/><use mask="url(#U)" transform="rotate(60 253.5 230.5)" xlink:href="#g"/><use mask="url(#V)" transform="rotate(70 263.5 230.5)" xlink:href="#h"/><use mask="url(#W)" transform="rotate(80 273.5 230.5)" xlink:href="#i"/><use mask="url(#X)" transform="rotate(90 283.5 230.5)" xlink:href="#j"/><use mask="url(#Y)" xlink:href="#k"/><use mask="url(#Z)" transform="rotate(10 293.5 230.5)" xlink:href="#l"/><use mask="url(#aa)" transform="rotate(20 303.5 230.5)" xlink:href="#m"/><use mask="url(#ab)" transform="rotate(30 313.5 230.5)" xlink:href="#n"/><use mask="url(#ac)" transform="rotate(40 323.5 230.5)" xlink:href="#o"/><use mask="url(#ad)" transform="rotate(50 333.5 230.5)" xlink:href="#p"/><use mask="url(#ae)" transform="rotate(60 343.5 230.5)" xlink:href="#q"/><use mask="url(#af)" transform="rotate(70 353.5 230.5)" xlink:href="#r"/><use mask="url(#ag)" transform="rotate(80 363.5 230.5)" xlink:href="#s"/><use mask="url(#ah)" transform="rotate(90 373.5 230.5)" xlink:href="#t"/><use mask="url(#ai)" xlink:href="#u"/><use mask="url(#aj)" transform="rotate(10 383.5 230.5)" xlink:href="#v"/><use mask="url(#ak)" transform="rotate(20 393.5 230.5)" xlink:href="#w"/><use mask="url(#al)" transform="rotate(30 403.5 230.5)" xlink:href="#x"/><use mask="url(#am)" transform="rotate(40 413.5 230.5)" xlink:href="#y"/><use mask="url(#an)" transform="rotate(50 423.5 230.5)" xlink:href="#z"/><use mask="url(#ao)" transform="rotate(60 433.5 230.5)" xlink:href="#A"/><use mask="url(#ap)" transform="rotate(70 443.5 230.5)" xlink:href="#B"/><use mask="url(#aq)" transform="rotate(80 453.5 230.5)" xlink:href="#C"/><use mask="url(#ar)" transform="rotate(90 463.5 230.5)" xlink:href="#D"/><use mask="url(#as)" xlink:href="#E"/><use mask="url(#at)" transform="rotate(10 473.5 230.5)" xlink:href="#F"/><use mask="url(#au)" transform="rotate(20 483.5 230.5)" xlink:href="#G"/><use mask="url(#av)" transform="rotate(30 493.5 230.5)" xlink:href="#H"/><use mask="url(#aw)" transform="rotate(40 503.5 230.5)" xlink:href="#I"/><use mask="url(#ax)" transform="rotate(50 513.5 230.5)" xlink:href="#J"/><use mask="url(#ay)" transform="rotate(60 523.5 230.5)" xlink:href="#K"/><use mask="url(#az)" transform="rotate(70 533.5 230.5)" xlink:href="#L"/><use mask="url(#aA)" transform="rotate(80 543.5 230.5)" xlink:href="#M"/><use mask="url(#aB)" transform="rotate(90 553.5 230.5)" xlink:href="#N"/></g></svg>