<svg width="1855" height="1855" viewBox="0 0 1855 1855" xmlns="http://www.w3.org/2000/svg"><title>_spiral</title><g stroke="#B3C8D6" fill="none" fill-rule="evenodd" opacity=".4"><path d="M927.5 269.901L1585.099 1585.1H269.9z"/><path d="M1041.69 279.891L1460.919 1689.3 165.7 1460.918z"/><path d="M1152.412 309.56l168.117 1460.793L84.647 1320.529z"/><path d="M1256.3 358.003l-88.102 1467.794-1138.995-657.6z"/><path d="M1350.196 423.75l-341.642 1430.196-1007.5-845.392z"/><path d="M1431.25 504.804L846.446 1853.946 1.054 846.446z"/><path d="M1496.997 598.7L686.802 1825.798 29.203 686.802z"/><path d="M1545.44 702.588L534.472 1770.353 84.647 534.47z"/><path d="M1575.109 813.31L394.082 1689.3 165.701 394.081z"/><path d="M1585.099 927.5L269.9 1585.099V269.9z"/><path d="M1575.109 1041.69L165.7 1460.919 394.082 165.7z"/><path d="M1545.44 1152.412L84.648 1320.53 534.471 84.647z"/><path d="M1496.997 1256.3L29.203 1168.197l657.6-1138.995z"/><path d="M1431.25 1350.196L1.054 1008.554 846.446 1.054z"/><path d="M1350.196 1431.25L1.054 846.446l1007.5-845.392z"/><path d="M1256.3 1496.997L29.202 686.802 1168.198 29.203z"/><path d="M1152.412 1545.44L84.647 534.472 1320.53 84.647z"/><path d="M1041.69 1575.109L165.7 394.082l1295.218-228.381z"/><path d="M927.5 1585.099L269.901 269.9H1585.1z"/><path d="M813.31 1575.109L394.081 165.7 1689.3 394.082z"/><path d="M702.588 1545.44L534.47 84.648l1235.882 449.824z"/><path d="M598.7 1496.997L686.803 29.203l1138.995 657.6z"/><path d="M504.804 1431.25L846.446 1.054l1007.5 845.392z"/><path d="M423.75 1350.196L1008.554 1.054l845.392 1007.5z"/><path d="M358.003 1256.3L1168.198 29.202l657.599 1138.995z"/><path d="M309.56 1152.412L1320.528 84.647l449.824 1235.882z"/><path d="M279.891 1041.69L1460.918 165.7l228.381 1295.218z"/><path d="M269.901 927.5L1585.1 269.901V1585.1z"/><path d="M279.891 813.31L1689.3 394.081 1460.918 1689.3z"/><path d="M309.56 702.588L1770.352 534.47l-449.824 1235.882z"/><path d="M358.003 598.7l1467.794 88.102-657.6 1138.995z"/><path d="M423.75 504.804l1430.196 341.642-845.392 1007.5z"/><path d="M504.804 423.75l1349.142 584.804-1007.5 845.392z"/><path d="M598.7 358.003l1227.097 810.195-1138.995 657.599z"/><path d="M702.588 309.56l1067.765 1010.969L534.47 1770.353z"/><path d="M813.31 279.891l875.99 1181.027-1295.218 228.381z"/><path d="M927.5 269.901L1585.099 1585.1H269.9z"/></g></svg>