<?xml version="1.0" encoding="UTF-8"?>
<svg width="1855px" height="1855px" viewBox="0 0 1855 1855" version="1.1" xmlns="http://www.w3.org/2000/svg" xmlns:xlink="http://www.w3.org/1999/xlink">
    <!-- Generator: Sketch 41.2 (35397) - http://www.bohemiancoding.com/sketch -->
    <title>_spiral</title>
    <desc>Created with Sketch.</desc>
    <defs></defs>
    <g id="Page-1" stroke="none" stroke-width="1" fill="none" fill-rule="evenodd" opacity="0.4">
        <g id="_spiral" transform="translate(1.000000, 1.000000)" stroke="#d8dde0">
            <polygon id="Triangle-3" points="926.5 268.901084 1584.09892 1584.09892 268.901084 1584.09892"></polygon>
            <polygon id="Triangle-3" transform="translate(926.500000, 926.500000) rotate(10.000000) translate(-926.500000, -926.500000) " points="926.5 268.901084 1584.09892 1584.09892 268.901084 1584.09892"></polygon>
            <polygon id="Triangle-3" transform="translate(926.500000, 926.500000) rotate(20.000000) translate(-926.500000, -926.500000) " points="926.5 268.901084 1584.09892 1584.09892 268.901084 1584.09892"></polygon>
            <polygon id="Triangle-3" transform="translate(926.500000, 926.500000) rotate(30.000000) translate(-926.500000, -926.500000) " points="926.5 268.901084 1584.09892 1584.09892 268.901084 1584.09892"></polygon>
            <polygon id="Triangle-3" transform="translate(926.500000, 926.500000) rotate(40.000000) translate(-926.500000, -926.500000) " points="926.5 268.901084 1584.09892 1584.09892 268.901084 1584.09892"></polygon>
            <polygon id="Triangle-3" transform="translate(926.500000, 926.500000) rotate(50.000000) translate(-926.500000, -926.500000) " points="926.5 268.901084 1584.09892 1584.09892 268.901084 1584.09892"></polygon>
            <polygon id="Triangle-3" transform="translate(926.500000, 926.500000) rotate(60.000000) translate(-926.500000, -926.500000) " points="926.5 268.901084 1584.09892 1584.09892 268.901084 1584.09892"></polygon>
            <polygon id="Triangle-3" transform="translate(926.500000, 926.500000) rotate(70.000000) translate(-926.500000, -926.500000) " points="926.5 268.901084 1584.09892 1584.09892 268.901084 1584.09892"></polygon>
            <polygon id="Triangle-3" transform="translate(926.500000, 926.500000) rotate(80.000000) translate(-926.500000, -926.500000) " points="926.5 268.901084 1584.09892 1584.09892 268.901084 1584.09892"></polygon>
            <polygon id="Triangle-3" transform="translate(926.500000, 926.500000) rotate(90.000000) translate(-926.500000, -926.500000) " points="926.5 268.901084 1584.09892 1584.09892 268.901084 1584.09892"></polygon>
            <polygon id="Triangle-3" transform="translate(926.500000, 926.500000) rotate(100.000000) translate(-926.500000, -926.500000) " points="926.5 268.901084 1584.09892 1584.09892 268.901084 1584.09892"></polygon>
            <polygon id="Triangle-3" transform="translate(926.500000, 926.500000) rotate(110.000000) translate(-926.500000, -926.500000) " points="926.5 268.901084 1584.09892 1584.09892 268.901084 1584.09892"></polygon>
            <polygon id="Triangle-3" transform="translate(926.500000, 926.500000) rotate(120.000000) translate(-926.500000, -926.500000) " points="926.5 268.901084 1584.09892 1584.09892 268.901084 1584.09892"></polygon>
            <polygon id="Triangle-3" transform="translate(926.500000, 926.500000) rotate(130.000000) translate(-926.500000, -926.500000) " points="926.5 268.901084 1584.09892 1584.09892 268.901084 1584.09892"></polygon>
            <polygon id="Triangle-3" transform="translate(926.500000, 926.500000) rotate(140.000000) translate(-926.500000, -926.500000) " points="926.5 268.901084 1584.09892 1584.09892 268.901084 1584.09892"></polygon>
            <polygon id="Triangle-3" transform="translate(926.500000, 926.500000) rotate(150.000000) translate(-926.500000, -926.500000) " points="926.5 268.901084 1584.09892 1584.09892 268.901084 1584.09892"></polygon>
            <polygon id="Triangle-3" transform="translate(926.500000, 926.500000) rotate(160.000000) translate(-926.500000, -926.500000) " points="926.5 268.901084 1584.09892 1584.09892 268.901084 1584.09892"></polygon>
            <polygon id="Triangle-3" transform="translate(926.500000, 926.500000) rotate(170.000000) translate(-926.500000, -926.500000) " points="926.5 268.901084 1584.09892 1584.09892 268.901084 1584.09892"></polygon>
            <polygon id="Triangle-3" transform="translate(926.500000, 926.500000) rotate(180.000000) translate(-926.500000, -926.500000) " points="926.5 268.901084 1584.09892 1584.09892 268.901084 1584.09892"></polygon>
            <polygon id="Triangle-3" transform="translate(926.500000, 926.500000) rotate(190.000000) translate(-926.500000, -926.500000) " points="926.5 268.901084 1584.09892 1584.09892 268.901084 1584.09892"></polygon>
            <polygon id="Triangle-3" transform="translate(926.500000, 926.500000) rotate(200.000000) translate(-926.500000, -926.500000) " points="926.5 268.901084 1584.09892 1584.09892 268.901084 1584.09892"></polygon>
            <polygon id="Triangle-3" transform="translate(926.500000, 926.500000) rotate(210.000000) translate(-926.500000, -926.500000) " points="926.5 268.901084 1584.09892 1584.09892 268.901084 1584.09892"></polygon>
            <polygon id="Triangle-3" transform="translate(926.500000, 926.500000) rotate(220.000000) translate(-926.500000, -926.500000) " points="926.5 268.901084 1584.09892 1584.09892 268.901084 1584.09892"></polygon>
            <polygon id="Triangle-3" transform="translate(926.500000, 926.500000) rotate(230.000000) translate(-926.500000, -926.500000) " points="926.5 268.901084 1584.09892 1584.09892 268.901084 1584.09892"></polygon>
            <polygon id="Triangle-3" transform="translate(926.500000, 926.500000) rotate(240.000000) translate(-926.500000, -926.500000) " points="926.5 268.901084 1584.09892 1584.09892 268.901084 1584.09892"></polygon>
            <polygon id="Triangle-3" transform="translate(926.500000, 926.500000) rotate(250.000000) translate(-926.500000, -926.500000) " points="926.5 268.901084 1584.09892 1584.09892 268.901084 1584.09892"></polygon>
            <polygon id="Triangle-3" transform="translate(926.500000, 926.500000) rotate(260.000000) translate(-926.500000, -926.500000) " points="926.5 268.901084 1584.09892 1584.09892 268.901084 1584.09892"></polygon>
            <polygon id="Triangle-3" transform="translate(926.500000, 926.500000) rotate(270.000000) translate(-926.500000, -926.500000) " points="926.5 268.901084 1584.09892 1584.09892 268.901084 1584.09892"></polygon>
            <polygon id="Triangle-3" transform="translate(926.500000, 926.500000) rotate(280.000000) translate(-926.500000, -926.500000) " points="926.5 268.901084 1584.09892 1584.09892 268.901084 1584.09892"></polygon>
            <polygon id="Triangle-3" transform="translate(926.500000, 926.500000) rotate(290.000000) translate(-926.500000, -926.500000) " points="926.5 268.901084 1584.09892 1584.09892 268.901084 1584.09892"></polygon>
            <polygon id="Triangle-3" transform="translate(926.500000, 926.500000) rotate(300.000000) translate(-926.500000, -926.500000) " points="926.5 268.901084 1584.09892 1584.09892 268.901084 1584.09892"></polygon>
            <polygon id="Triangle-3" transform="translate(926.500000, 926.500000) rotate(310.000000) translate(-926.500000, -926.500000) " points="926.5 268.901084 1584.09892 1584.09892 268.901084 1584.09892"></polygon>
            <polygon id="Triangle-3" transform="translate(926.500000, 926.500000) rotate(320.000000) translate(-926.500000, -926.500000) " points="926.5 268.901084 1584.09892 1584.09892 268.901084 1584.09892"></polygon>
            <polygon id="Triangle-3" transform="translate(926.500000, 926.500000) rotate(330.000000) translate(-926.500000, -926.500000) " points="926.5 268.901084 1584.09892 1584.09892 268.901084 1584.09892"></polygon>
            <polygon id="Triangle-3" transform="translate(926.500000, 926.500000) rotate(340.000000) translate(-926.500000, -926.500000) " points="926.5 268.901084 1584.09892 1584.09892 268.901084 1584.09892"></polygon>
            <polygon id="Triangle-3" transform="translate(926.500000, 926.500000) rotate(350.000000) translate(-926.500000, -926.500000) " points="926.5 268.901084 1584.09892 1584.09892 268.901084 1584.09892"></polygon>
            <polygon id="Triangle-3" transform="translate(926.500000, 926.500000) rotate(360.000000) translate(-926.500000, -926.500000) " points="926.5 268.901084 1584.09892 1584.09892 268.901084 1584.09892"></polygon>
        </g>
    </g>
</svg>
