<?xml version="1.0" encoding="UTF-8"?>
<svg width="38px" height="50px" viewBox="0 0 38 50" version="1.1" xmlns="http://www.w3.org/2000/svg" xmlns:xlink="http://www.w3.org/1999/xlink">
    <!-- Generator: Sketch 41.2 (35397) - http://www.bohemiancoding.com/sketch -->
    <title>Global</title>
    <desc>Created with Sketch.</desc>
    <defs></defs>
    <g id="Page-1" stroke="none" stroke-width="1" fill="none" fill-rule="evenodd">
        <g id="Artboard" transform="translate(-400.000000, -1400.000000)" fill="#000000">
            <g id="Row-7:-Managed-Integration-Benefits" transform="translate(20.000000, 1400.000000)">
                <path d="M384.569458,31.6387939 C382.340483,33.9305719 380.202393,38.0500488 382.288452,39.5 C384.252441,40.7648926 388.516113,38.1846924 389.801025,36.4825439 C389.801025,36.4825439 385.914551,33.9305719 384.569458,31.6387939 Z M391.202148,47.4112549 C391.202148,48.2563477 396.776489,48.545166 399.031494,48.545166 C401.286499,48.545166 407.174072,48.2514648 407.174072,47.4112549 C407.174072,46.8665543 402.94043,46.8297119 399.093201,45.1142578 C394.995605,46.8297119 391.202148,46.8705642 391.202148,47.4112549 Z M392.246094,36.2800293 C398.241211,38.3979492 404.23291,38.2075195 409.789795,33.7451172 C414.239805,29.794114 418.157715,20.6965332 413.216187,12.3937988 C403.857673,26.2484741 401.894165,27.3039551 392.246094,36.2800293 Z M412.078979,11.1077881 C406.819283,3.06115723 393.773682,2.76098633 387.369629,9.19213867 C380.37915,16.1679687 381.308838,30.0571289 390.984375,35.2260742 C402.7854,24.3378906 405.20105,21.1130371 412.078979,11.1077881 Z M413.090088,9.77246094 C414.972412,6.99316406 416.304932,3.4140625 414.972412,2.06347656 C413.233643,0.348510742 410.381104,2.07361265 407.85498,5.31567383 C409.98999,6.29443359 412.074707,8.3269043 413.090088,9.77246094 Z M414.006836,11.0341797 C419.237061,18.1911621 416.984131,27.282959 413.154785,32.2453613 C410.134455,36.1593699 405.991108,38.571167 399.996948,39.0037842 L399.996948,43.9974365 C406.006592,46.0911865 410.891602,46.0092773 410.891602,47.3664551 C410.891602,48.7236328 405.65987,50 399.0014,50 C392.341061,50 386.996094,48.7487793 386.996094,47.3664551 C386.996094,45.9841309 392.037964,46.0452881 397.998535,43.9974365 C397.982413,42.1093613 397.998535,41.5527272 397.998535,39.0037842 C396.881344,38.9477026 393.406433,38.3640137 391.224731,37.1834717 C388.602094,39.8753809 384.008196,42.9015776 380.889522,39.9857476 C378.765633,38 381.518618,32.5417538 383.657104,30.2611084 C379.30957,22.4328613 380.79578,13.9936827 386.363037,8.26025391 C391.930294,2.52682512 400.742432,1.8638916 406.31027,4.51795048 C408.712329,2.59248764 411.869588,-1.37060093 415.284811,0.480086661 C418.694426,2.33077424 416.94751,7.80078125 414.006836,11.0341797 Z" id="Global"></path>
            </g>
        </g>
    </g>
</svg>