<?xml version="1.0" encoding="UTF-8"?>
<svg width="50px" height="38px" viewBox="0 0 50 38" version="1.1" xmlns="http://www.w3.org/2000/svg" xmlns:xlink="http://www.w3.org/1999/xlink">
    <!-- Generator: Sketch 41.2 (35397) - http://www.bohemiancoding.com/sketch -->
    <title>EHRs</title>
    <desc>Created with Sketch.</desc>
    <defs></defs>
    <g id="Page-1" stroke="none" stroke-width="1" fill="none" fill-rule="evenodd">
        <g id="Artboard" transform="translate(-500.000000, -1400.000000)" fill="#242F36">
            <g id="Row-7:-Managed-Integration-Benefits" transform="translate(20.000000, 1400.000000)">
                <path d="M480,14.2300124 C480,12.4461258 481.442983,11 483.231989,11 L519.768011,11 C521.552989,11 523,12.4516373 523,14.2300124 L523,34.7699876 C523,36.5538742 521.557017,38 519.768011,38 L483.231989,38 C481.447011,38 480,36.5483627 480,34.7699876 L480,14.2300124 Z M481.5,14.5878583 C481.5,13.434766 482.449317,12.5 483.608273,12.5 L519.391727,12.5 C520.556094,12.5 521.5,13.4408284 521.5,14.5878583 L521.5,34.4121417 C521.5,35.565234 520.550683,36.5 519.391727,36.5 L483.608273,36.5 C482.443906,36.5 481.5,35.5591715 481.5,34.4121417 L481.5,14.5878583 Z M492.374548,23.0473125 C491.234295,23.0473125 490.126313,24.4242221 490.126313,24.4242221 C490.126313,24.4242221 489.018331,23.0473125 487.867321,23.0473125 C486.727068,23.0473125 485.6406,23.6174391 485.6406,25.3063048 C485.6406,26.5003436 486.759339,27.5437828 486.759339,27.5437828 L490.126313,30.9 L493.493288,27.5437828 C493.493288,27.5437828 494.612027,26.5003436 494.612027,25.3063048 C494.612027,23.6174391 493.514802,23.0473125 492.374548,23.0473125 L492.374548,23.0473125 Z M499,23 L507,23 L507,24.5 L499,24.5 L499,23 L499,23 Z M509,23 L515,23 L515,24.5 L509,24.5 L509,23 L509,23 Z M499,27 L504,27 L504,28.5 L499,28.5 L499,27 L499,27 Z M506,27 L515,27 L515,28.5 L506,28.5 L506,27 L506,27 Z M499,31 L506,31 L506,32.5 L499,32.5 L499,31 L499,31 Z M509,31 L511,31 L511,32.5 L509,32.5 L509,31 L509,31 Z M513,31 L515,31 L515,32.5 L513,32.5 L513,31 L513,31 Z M483,16 L520,16 L520,17.5 L483,17.5 L483,16 L483,16 Z M486,14 L487.5,14 L487.5,16 L486,16 L486,14 L486,14 Z M510,14 L511.5,14 L511.5,16 L510,16 L510,14 L510,14 Z M515,14 L516.5,14 L516.5,16 L515,16 L515,14 L515,14 Z M490.156826,0 L526.843174,0 C528.586641,0 530,1.39787292 530,3.11038232 C530,3.11038232 530,16.5863647 530,23.6165771 C530,24.9359741 528.725586,26.9990845 526.5,26.9990845 C525.842285,26.9990845 524.5,27 524.5,27 L524.5,25.5 C524.5,25.5 525.802368,25.4968262 526.5,25.4968262 C527.624878,25.4968262 528.5,24.4956665 528.5,23.6165771 L528.5,3.50012207 C528.5,2.34606934 527.518677,1.5 526.5,1.5 L490.530396,1.5 C489.526367,1.5 488.5,2.30645752 488.5,3.50012207 L488.5,9.5 L487,9.5 L487,3.11038232 C487,1.3925656 488.409425,0 490.156826,0 Z M522,3 L523.5,3 L523.5,5 L522,5 L522,3 L522,3 Z M516,3 L517.5,3 L517.5,5 L516,5 L516,3 L516,3 Z M494,3 L495.5,3 L495.5,5 L494,5 L494,3 L494,3 Z M490,5 L527,5 L527,6.5 L490,6.5 L490,5 L490,5 Z" id="EHRs"></path>
            </g>
        </g>
    </g>
</svg>