<?xml version="1.0" encoding="UTF-8"?>
<svg width="44px" height="50px" viewBox="0 0 44 50" version="1.1" xmlns="http://www.w3.org/2000/svg" xmlns:xlink="http://www.w3.org/1999/xlink">
    <!-- Generator: Sketch 41.2 (35397) - http://www.bohemiancoding.com/sketch -->
    <title>Network</title>
    <desc>Created with Sketch.</desc>
    <defs></defs>
    <g id="Page-1" stroke="none" stroke-width="1" fill="none" fill-rule="evenodd">
        <g id="Artboard" transform="translate(-400.000000, -200.000000)" fill="#000000">
            <g id="Row-1:-Technology" transform="translate(20.000000, 200.000000)">
                <path d="M409.02381,29.7855072 C409.309524,29.5942029 409.5,29.3072464 409.5,28.9246377 L409.5,20.7463768 C409.5,20.4115942 409.309524,20.0768116 409.02381,19.8855072 L401.97619,15.8681159 C401.97619,15.8681159 401.642857,15.7246377 401.5,15.7246377 C401.309524,15.7246377 401.02381,15.8681159 401.02381,15.8681159 L393.97619,19.9333333 C393.690476,20.1246377 393.5,20.4115942 393.5,20.7942029 L393.5,28.9724638 C393.5,29.3072464 393.690476,29.642029 393.97619,29.8333333 L400.97619,33.9463768 C400.97619,33.9463768 401.309524,34.0898551 401.452381,34.0898551 C401.642857,34.0898551 401.928571,33.9463768 401.928571,33.9463768 L409.02381,29.7855072 Z M408,27.7335315 L408,28.6587968 L407.181102,29.1214295 L402.318898,31.9486291 L401.5,32.4626654 L400.681102,32.0000327 L395.818898,29.1728331 L395,28.7102005 L395,27.7335315 L395,22.0791323 L395,21.1024634 L395.818898,20.6398307 L400.681102,17.8126311 L401.5,17.3499985 L402.318898,17.8126311 L407.181102,20.6398307 L408,21.1024634 L408,22.0791323 L408,27.7335315 Z M388.732143,17.5469203 C388.892857,17.4393116 389,17.2778986 389,17.0626812 L389,12.4624094 C389,12.2740942 388.892857,12.085779 388.732143,11.9781703 L384.767857,9.71838768 C384.767857,9.71838768 384.580357,9.63768116 384.5,9.63768116 C384.392857,9.63768116 384.232143,9.71838768 384.232143,9.71838768 L380.267857,12.0050725 C380.107143,12.1126812 380,12.2740942 380,12.4893116 L380,17.0895833 C380,17.2778986 380.107143,17.4662138 380.267857,17.5738225 L384.205357,19.8874094 C384.205357,19.8874094 384.392857,19.9681159 384.473214,19.9681159 C384.580357,19.9681159 384.741071,19.8874094 384.741071,19.8874094 L388.732143,17.5469203 Z M387.75,16.7467343 L384.5,18.7099995 L381.25,16.7732649 L381.25,12.8467345 L384.5,10.9099998 L387.75,12.8467345 L387.75,16.7467343 Z M388.732143,37.329529 C388.892857,37.2219203 389,37.0605072 389,36.8452899 L389,32.2450181 C389,32.0567029 388.892857,31.8683877 388.732143,31.760779 L384.767857,29.5009964 C384.767857,29.5009964 384.580357,29.4202899 384.5,29.4202899 C384.392857,29.4202899 384.232143,29.5009964 384.232143,29.5009964 L380.267857,31.7876812 C380.107143,31.8952899 380,32.0567029 380,32.2719203 L380,36.872192 C380,37.0605072 380.107143,37.2488225 380.267857,37.3564312 L384.205357,39.6700181 C384.205357,39.6700181 384.392857,39.7507246 384.473214,39.7507246 C384.580357,39.7507246 384.741071,39.6700181 384.741071,39.6700181 L388.732143,37.329529 Z M387.75,36.5367352 L384.5,38.5000004 L381.25,36.5632658 L381.25,32.6367354 L384.5,30.7000008 L387.75,32.6367354 L387.75,36.5367352 Z M405.732143,47.4744565 C405.892857,47.3668478 406,47.2054348 406,46.9902174 L406,42.3899457 C406,42.2016304 405.892857,42.0133152 405.732143,41.9057065 L401.767857,39.6459239 C401.767857,39.6459239 401.580357,39.5652174 401.5,39.5652174 C401.392857,39.5652174 401.232143,39.6459239 401.232143,39.6459239 L397.267857,41.9326087 C397.107143,42.0402174 397,42.2016304 397,42.4168478 L397,47.0171196 C397,47.2054348 397.107143,47.39375 397.267857,47.5013587 L401.205357,49.8149457 C401.205357,49.8149457 401.392857,49.8956522 401.473214,49.8956522 C401.580357,49.8956522 401.741071,49.8149457 401.741071,49.8149457 L405.732143,47.4744565 Z M404.75,46.6767308 L401.5,48.639996 L398.25,46.7032614 L398.25,42.7767309 L401.5,40.8399963 L404.75,42.7767309 L404.75,46.6767308 Z M423.032146,37.329529 C423.19286,37.2219203 423.300003,37.0605072 423.300003,36.8452899 L423.300003,32.2450181 C423.300003,32.0567029 423.19286,31.8683877 423.032146,31.760779 L419.06786,29.5009964 C419.06786,29.5009964 418.88036,29.4202899 418.800003,29.4202899 C418.69286,29.4202899 418.532146,29.5009964 418.532146,29.5009964 L414.56786,31.7876812 C414.407146,31.8952899 414.300003,32.0567029 414.300003,32.2719203 L414.300003,36.872192 C414.300003,37.0605072 414.407146,37.2488225 414.56786,37.3564312 L418.50536,39.6700181 C418.50536,39.6700181 418.69286,39.7507246 418.773217,39.7507246 C418.88036,39.7507246 419.041074,39.6700181 419.041074,39.6700181 L423.032146,37.329529 Z M422.050003,36.5167347 L418.800003,38.48 L415.550003,36.5432653 L415.550003,32.6167349 L418.800003,30.6800003 L422.050003,32.6167349 L422.050003,36.5167347 Z M423.032146,17.5469203 C423.19286,17.4393116 423.300003,17.2778986 423.300003,17.0626812 L423.300003,12.4624094 C423.300003,12.2740942 423.19286,12.085779 423.032146,11.9781703 L419.06786,9.71838768 C419.06786,9.71838768 418.88036,9.63768116 418.800003,9.63768116 C418.69286,9.63768116 418.532146,9.71838768 418.532146,9.71838768 L414.56786,12.0050725 C414.407146,12.1126812 414.300003,12.2740942 414.300003,12.4893116 L414.300003,17.0895833 C414.300003,17.2778986 414.407146,17.4662138 414.56786,17.5738225 L418.50536,19.8874094 C418.50536,19.8874094 418.69286,19.9681159 418.773217,19.9681159 C418.88036,19.9681159 419.041074,19.8874094 419.041074,19.8874094 L423.032146,17.5469203 Z M422.099998,16.7167355 L418.849998,18.6800007 L415.599998,16.7432661 L415.599998,12.8167357 L418.849998,10.8800011 L422.099998,12.8167357 L422.099998,16.7167355 Z M405.931776,7.90890619 C406.092484,7.80130203 406.199622,7.63989578 406.199622,7.42468745 L406.199622,2.82460935 C406.199622,2.63630206 406.092484,2.44799477 405.931776,2.34039061 L401.967657,0.0807031244 C401.967657,0.0807031244 401.780165,0 401.699811,0 C401.592673,0 401.431965,0.0807031244 401.431965,0.0807031244 L397.467847,2.36729165 C397.307139,2.47489582 397.200001,2.63630206 397.200001,2.8515104 L397.200001,7.45158849 C397.200001,7.63989578 397.307139,7.82820307 397.467847,7.93580723 L401.405181,10.2492968 C401.405181,10.2492968 401.592673,10.3299999 401.673027,10.3299999 C401.780165,10.3299999 401.940873,10.2492968 401.940873,10.2492968 L405.931776,7.90890619 Z M404.950001,7.09862318 L401.700001,9.06252363 L398.450001,7.12516238 L398.450001,3.19736148 L401.700001,1.26000023 L404.950001,3.19736148 L404.950001,7.09862318 Z M400.75,35.3499985 L402.25,35.3499985 L402.25,38.3499985 L400.75,38.3499985 L400.75,35.3499985 Z M383.700001,21.7000008 L385.200001,21.7000008 L385.200001,27.7000008 L383.700001,27.7000008 L383.700001,21.7000008 Z M418,21.7000008 L419.5,21.7000008 L419.5,27.7000008 L418,27.7000008 L418,21.7000008 Z M407.500732,9.04003906 L408.192627,7.734375 L413.27124,10.7189941 L412.553589,11.9129639 L407.500732,9.04003906 Z M390.29248,38.8596191 L390.991821,37.5695801 L396.01062,40.5081787 L395.44043,41.7575684 L390.29248,38.8596191 Z M407.965149,41.8422852 L407.263733,40.651123 L412.328308,37.7046509 L413.065063,38.9163208 L407.965149,41.8422852 Z M390.938171,11.930603 L390.203186,10.649231 L395.126831,7.7868042 L395.879822,9.06536865 L390.938171,11.930603 Z M390.564575,17.2904663 L389.792847,18.5227661 L392.144775,19.9674683 L392.93689,18.7643433 L390.564575,17.2904663 Z M413.648254,18.7300415 L412.838379,17.5001831 L410.328003,19.0308228 L411.155823,20.260437 L413.648254,18.7300415 Z" id="Network"></path>
            </g>
        </g>
    </g>
</svg>