<?xml version="1.0" encoding="UTF-8"?>
<svg width="100px" height="101px" viewBox="0 0 100 101" version="1.1" xmlns="http://www.w3.org/2000/svg" xmlns:xlink="http://www.w3.org/1999/xlink">
    <!-- Generator: Sketch 42 (36781) - http://www.bohemiancoding.com/sketch -->
    <title>Fill 1</title>
    <desc>Created with Sketch.</desc>
    <defs></defs>
    <g id="Page-1" stroke="none" stroke-width="1" fill="none" fill-rule="evenodd">
        <path d="M98.1124303,45.660306 L54.451907,2.00003937 C51.9390789,-0.515013124 47.8613108,-0.515013124 45.3441296,2.00003937 L36.278795,11.0677232 L47.7786018,22.5688374 C50.4514064,21.6655515 53.5170784,22.2717325 55.6468335,24.4015282 C57.7896478,26.5454717 58.3892876,29.6362328 57.4642535,32.3188829 L68.5483391,43.4031797 C71.2309381,42.4781279 74.323817,43.0756025 76.4666314,45.2217226 C79.4593889,48.2134488 79.4593889,53.0639849 76.4666314,56.0578878 C73.4716973,59.0528789 68.6223418,59.0528789 65.6263195,56.0578878 C63.3746775,53.8051146 62.8185688,50.4966942 63.9590814,47.7237155 L53.6204645,37.38599 L53.6204645,64.5890416 C54.3496091,64.9503559 55.0384875,65.4324711 55.6468335,66.0386521 C58.639591,69.0314666 58.639591,73.8809145 55.6468335,76.8780822 C52.6540759,79.8698084 47.8014556,79.8698084 44.8108747,76.8780822 C41.8181171,73.8809145 41.8181171,69.0314666 44.8108747,66.0386521 C45.5498137,65.299699 46.4073748,64.7403148 47.3204379,64.3659409 L47.3204379,36.9104046 C46.4073748,36.537119 45.5519902,35.9820879 44.8108747,35.2387816 C42.5439969,32.972949 41.9987709,29.6449392 43.1610491,26.8610776 L31.8233953,15.5210312 L1.88493724,45.4578829 C-0.628979081,47.9751119 -0.628979081,52.0529578 1.88493724,54.5680103 L45.5476371,98.2282768 C48.0615535,100.742241 52.1382334,100.742241 54.6565028,98.2282768 L98.1124303,54.7704334 C100.628523,52.2553809 100.628523,48.1742702 98.1124303,45.660306" id="Fill-1" fill="#010101"></path>
    </g>
</svg>