<?xml version="1.0" encoding="UTF-8"?>
<svg width="50px" height="36px" viewBox="0 0 50 36" version="1.1" xmlns="http://www.w3.org/2000/svg" xmlns:xlink="http://www.w3.org/1999/xlink">
    <!-- Generator: Sketch 41.2 (35397) - http://www.bohemiancoding.com/sketch -->
    <title>Folder</title>
    <desc>Created with Sketch.</desc>
    <defs></defs>
    <g id="Page-1" stroke="none" stroke-width="1" fill="none" fill-rule="evenodd">
        <g id="Artboard" transform="translate(-600.000000, -1401.000000)" fill="#242F36">
            <g id="Row-7:-Managed-Integration-Benefits" transform="translate(20.000000, 1400.000000)">
                <path d="M582.459088,9 C581.274333,9 579.936822,10.5525062 580.019155,11.9806338 L581.274333,34.1756421 C581.356665,35.6037697 582.459088,37 584.128906,37 L625.437548,37 C626.990986,37 628.093409,35.5996272 628.529412,34.1714996 L630,11.9842585 C630,10.1220703 628.529412,9 626.990986,9 C626.990986,9 626.990986,6.1932373 626.292847,5.32061768 C626.087219,5 625.735847,4.99998805 625.605585,4.99996465 C616.154653,4.99826654 612.888062,5 601.5,5 C600.7948,5 600.5,4.65710449 600.5,3.5 C600.5,2.95568848 600.401917,1 598.000305,1 C592.81012,1 591.813354,1 586,1 C584.128906,1 583,1.72045898 583,3.98278809 L583,9 L582.459088,9 Z M583.929677,10.5 C582.238037,10.5 581.485377,11.0294118 581.489743,11.9806338 L582.744921,32.7050538 C582.955966,35.2941176 583.929677,35.5 585.483115,35.5 L623.966959,35.5 C626.539551,35.5 626.79541,34.842041 627.058824,32.7009113 L628.529412,11.9842585 C628.529412,10.5 627.058824,10.5 625.520398,10.5 L583.929677,10.5 Z M586.596436,2.5 C585.36908,2.5 584.5,2.5 584.5,4.02685547 L584.5,7.49401855 C584.5,8.24700928 584.99646,9 585.49292,9 L624.383606,9 C624.755737,9 625.526344,8.56207424 625.486481,8.05235347 C625.447957,7.55975366 625.347597,7.00010086 625.101868,6.70385742 C624.953125,6.5 624.839681,6.5 624.759521,6.5 L601.5,6.5 C600.486145,6.5 599,5.95635986 599,4.43188477 L599,3.5 C599,3.03613281 598.62793,2.5 598.01239,2.5 C594.338236,2.5 590.270589,2.5 586.596436,2.5 Z" id="Folder"></path>
            </g>
        </g>
    </g>
</svg>