<?xml version="1.0" encoding="UTF-8"?>
<svg width="50px" height="42px" viewBox="0 0 50 42" version="1.1" xmlns="http://www.w3.org/2000/svg" xmlns:xlink="http://www.w3.org/1999/xlink">
    <!-- Generator: Sketch 41.2 (35397) - http://www.bohemiancoding.com/sketch -->
    <title>BAA</title>
    <desc>Created with Sketch.</desc>
    <defs></defs>
    <g id="Page-1" stroke="none" stroke-width="1" fill="none" fill-rule="evenodd">
        <g id="Artboard" transform="translate(-500.000000, -600.000000)" fill="#000000">
            <g id="Row-3:-Benefits" transform="translate(20.000000, 599.000000)">
                <path d="M525.030823,9 C525.030823,9 525,10.909139 525,12.1452637 C525,12.4301758 525,12.9901123 524.234497,13 C523.468994,13.0098877 523.5,12.4488932 523.5,12.1733398 C523.5,11.3854167 523.5,10.5974935 523.5,9.80957031 C523.5,9.15478516 522.837158,8.5 522.174316,8.5 L482.999146,8.5 C482.093872,8.5177002 481.500122,9 481.5,10.0987549 C481.49889,20.0922037 481.5,30.0856527 481.5,40.0791016 C481.5,40.5527344 482.247009,41.5 482.994019,41.5 L522.072388,41.5 C522.548258,41.5 523.5,40.8358154 523.5,40.1716309 L523.5,38.0737305 C523.5,37.7158203 523.446533,36.9968262 524.223267,37 C525,37.0031738 525,37.6874186 525,38.0311279 L525,41.0927734 C525,42.0463867 523.665039,43 522.997559,43 C509.350382,43 495.703206,43 482.05603,43 C481.028015,43 480,41.7176107 480,41.076416 L480,9.22229004 C479.997681,7.97802734 480.903564,7.01538086 482.093872,7 C495.892822,7 521.264709,7.00183105 523.067505,7 C523.862976,7.00604248 525.05957,7.51586914 525.030823,9 Z M484.008667,4 L521.052612,4 C521.052612,4 521.992432,3.98754883 522,4.74377441 C522.007568,5.5 521.045898,5.5 521.045898,5.5 L484.008667,5.5 C484.008667,5.5 483.00769,5.5 483,4.72937012 C482.99231,3.95874023 484.008667,4 484.008667,4 Z M519,1.72717285 C519.013428,2.5 518.033447,2.5 518.033447,2.5 L487.065918,2.5 C487.065918,2.5 485.996094,2.5 486,1.71166992 C486.003906,0.923339844 487.005127,1 487.005127,1 L518.021118,1 C518.021118,1 518.986572,0.954345703 519,1.72717285 Z M496.287682,26.3304027 C496.287682,25.2678017 495.444531,24.4188758 494.353055,24.3611257 L494.353055,24.2514006 C495.236631,24.1301255 495.906532,23.3735998 495.906532,22.478474 C495.906532,21.1848725 494.924781,20.3994718 493.261579,20.3994718 L489.375,20.3994718 L489.375,28.7328051 L493.377079,28.7328051 C495.161556,28.7328051 496.287682,27.7914793 496.287682,26.3304027 Z M492.695628,21.8951983 C493.417504,21.8951983 493.839079,22.2532486 493.839079,22.8480743 C493.839079,23.4371249 493.388629,23.7951752 492.614778,23.7951752 L491.494427,23.7951752 L491.494427,21.8951983 L492.695628,21.8951983 Z M491.494427,25.0830015 L492.764928,25.0830015 C493.642729,25.0830015 494.133605,25.4641519 494.133605,26.1456026 C494.133605,26.8501532 493.654279,27.2370786 492.776478,27.2370786 L491.494427,27.2370786 L491.494427,25.0830015 Z M505.429516,28.7328051 L502.628638,20.3994718 L500.035661,20.3994718 L497.240558,28.7328051 L499.34266,28.7328051 L499.879736,26.9021283 L502.599763,26.9021283 L503.119514,28.7328051 L505.429516,28.7328051 Z M501.306162,22.2763486 L502.201288,25.3775268 L500.283986,25.3775268 L501.196437,22.2763486 L501.306162,22.2763486 Z M514.45585,28.7328051 L511.654972,20.3994718 L509.061995,20.3994718 L506.266892,28.7328051 L508.368994,28.7328051 L508.906069,26.9021283 L511.626097,26.9021283 L512.145848,28.7328051 L514.45585,28.7328051 Z M510.332496,22.2763486 L511.227622,25.3775268 L509.31032,25.3775268 L510.222771,22.2763486 L510.332496,22.2763486 Z M527.916667,20.9425151 C527.916667,18.7879333 526.875,17.6666667 524.270833,17.6666667 C521.666667,17.6666667 520.625,18.857488 520.625,20.9425151 L520.625,22.875 L519.583333,22.875 C519.008037,22.875 518.541667,23.3399077 518.541667,23.914109 L518.541667,31.210891 C518.541667,31.784775 519.005039,32.25 519.578727,32.25 L528.96294,32.25 C529.535692,32.25 530,31.7850923 530,31.210891 L530,23.914109 C530,23.340225 529.537641,22.875 528.958333,22.875 L527.916667,22.875 L527.916667,20.9425151 Z M521.666667,22.875 L521.666667,20.9425151 C521.666667,19.8261668 521.824341,18.7083333 524.270833,18.7083333 C526.717326,18.7083333 526.875,19.8148498 526.875,20.9425151 L526.875,22.875 L521.666667,22.875 Z M528.958333,23.9166667 L528.958333,31.2083333 L519.583333,31.2083333 L519.583333,23.9166667 L528.958333,23.9166667 Z M525.833333,27.5625 C525.833333,26.6995551 525.133778,26 524.270833,26 C523.407888,26 522.708333,26.6995551 522.708333,27.5625 C522.708333,28.4254449 523.407888,29.125 524.270833,29.125 C525.133778,29.125 525.833333,28.4254449 525.833333,27.5625 Z" id="BAA"></path>
            </g>
        </g>
    </g>
</svg>