<?xml version="1.0" encoding="UTF-8"?>
<svg width="50px" height="47px" viewBox="0 0 50 47" version="1.1" xmlns="http://www.w3.org/2000/svg" xmlns:xlink="http://www.w3.org/1999/xlink">
    <!-- Generator: Sketch 41.2 (35397) - http://www.bohemiancoding.com/sketch -->
    <title>Shape</title>
    <desc>Created with Sketch.</desc>
    <defs></defs>
    <g id="Page-1" stroke="none" stroke-width="1" fill="none" fill-rule="evenodd">
        <g id="Artboard" transform="translate(-600.000000, -600.000000)" fill="#000000">
            <g id="Row-3:-Benefits" transform="translate(20.000000, 599.000000)">
                <path d="M594.083834,17.3008704 C595.174382,18.3914186 597.577244,20.7942799 599.980105,23.1971411 C600.520974,23.7380105 600.635036,24.7006064 599.971885,25.3558623 C599.148997,26.1689541 597.962194,27.3416287 596.775391,28.5143032 C596.468209,28.8178284 595.702218,29.0776575 595.243409,29.0339614 C593.237407,28.8429136 591.231406,28.6518659 590.005494,28.5351124 C589.265547,28.4646412 588.389289,28.8476718 587.968777,29.2741068 C587.039192,30.2167847 586.109607,31.1594625 585.474836,31.8031735 C584.982443,32.3025015 584.571167,33.2530887 584.47489,33.8842405 C584.265036,35.2599502 584.055182,36.63566 583.845328,38.0113698 C583.769308,38.5097191 584.055113,39.9442612 584.492956,40.3821046 C584.892779,40.7819272 585.292602,41.1817498 585.627417,41.5165651 C586.122945,42.0120927 586.77873,42.0625765 587.27365,41.5676566 C588.135726,40.7055808 589.581153,39.2601539 591.02658,37.8147269 C591.405939,37.4353681 592.157003,37.4277148 592.674916,37.9456281 C593.01072,38.2814317 593.407988,38.6787002 593.805257,39.0759687 C594.195511,39.4662224 594.149607,40.2878408 593.713449,40.7192054 C592.481283,41.9378308 591.249118,43.1564562 590.39706,43.9991502 C589.715032,44.6736838 589.775924,45.6067291 590.275302,46.1061069 C590.613875,46.4446801 590.952448,46.7832534 591.243197,47.0740024 C591.726056,47.5568612 592.664415,47.8294977 593.251817,47.7511774 C594.728717,47.5542574 596.205618,47.3573373 597.682518,47.1604173 C598.147738,47.0983879 599.559633,46.4928759 600.041086,46.0114228 C600.764131,45.2883781 601.487175,44.5653335 602.060648,43.9918611 C602.748043,43.3044658 603.13878,41.8657511 603.057022,40.8995301 C602.937065,39.4818561 602.817108,38.0641822 602.727338,37.0032557 C602.638154,35.9492665 603.223374,34.6107215 603.867986,33.9740685 C604.794582,33.0589118 605.721178,32.143755 606.378322,31.4947243 C606.939787,30.9401906 607.816888,31.0942224 608.329225,31.6085147 C613.206818,36.5047249 618.084411,41.400935 620.67975,44.0061791 C621.878563,45.209568 623.550861,44.9637246 624.511291,44.0032951 C625.611923,42.9026625 626.712556,41.8020299 627.535216,40.9793693 C628.349529,40.1650572 628.173221,38.9020907 627.45496,38.1810776 L613.663944,24.3372229 C613.663944,24.3372229 615.241064,22.7843667 616.818183,21.2315105 C617.137213,20.9173888 617.90539,20.6460432 618.354538,20.6888191 C620.054511,20.8507213 621.754483,21.0126235 622.982532,21.1295805 C624.08526,21.2346022 625.38683,20.7240216 625.966193,20.1446593 C626.703086,19.4077655 627.43998,18.6708717 627.997076,18.1137755 C628.567802,17.5430497 629.065853,16.4004014 629.18188,15.639776 C629.392243,14.2607338 629.602605,12.8816915 629.812967,11.5026492 C629.875312,11.0939482 629.670167,9.94671316 629.340334,9.61688022 C628.892021,9.16856668 628.443707,8.72025314 628.069918,8.34646396 C627.52692,7.80346597 626.603698,7.95522818 626.066206,8.49272008 C624.712553,9.84637339 623.3589,11.2000267 622.558638,12.0002884 C622.107288,12.4516381 621.46255,12.3575323 621.093128,11.9881101 C620.627728,11.5227106 620.162329,11.0573111 619.791797,10.6867796 C619.34164,10.2366225 619.416597,9.54139569 619.801689,9.15630363 C621.158812,7.79918102 622.515935,6.44205842 623.387779,5.57021354 C623.973921,4.98407164 623.900984,4.17753021 623.461245,3.73779087 C623.204039,3.48058495 622.946833,3.22337903 622.708071,2.98461704 C622.055215,2.33176089 620.574286,1.94559884 619.608316,2.07439488 C618.419196,2.23294418 617.230077,2.39149349 616.302687,2.51514547 C615.253342,2.65505812 613.98514,3.30424174 613.43119,3.85819176 C612.747224,4.54215801 612.063257,5.22612425 611.518287,5.77109459 C610.854361,6.43502094 610.467805,7.73259857 610.538878,8.57254837 C610.670922,10.1330657 610.802966,11.693583 610.898119,12.8181164 C610.982986,13.8210923 610.58003,14.9357223 610.121554,15.3941983 C608.771396,16.744357 607.421237,18.0945158 607.421237,18.0945158 L600.999981,11.6238654 C600.41831,11.0377203 600.436422,9.85884897 601.036205,9.26612267 C601.70688,8.60333776 602.377555,7.94055285 602.962858,7.36213541 C604.018068,6.31933953 603.922432,4.67739111 603.049065,3.80402377 C602.528204,3.28316351 602.007344,2.76230325 601.558372,2.31333163 C600.798837,1.55379572 599.347801,1 598.450562,1 L594.575134,1 C593.80077,1 591.450166,1.79042022 590.648291,2.58084044 L581.555361,11.5438718 C580.645569,12.3901978 580.646427,13.7234396 581.292853,14.3698663 C583.445538,16.5225511 585.598223,18.675236 586.986549,20.0635613 C587.928098,21.0051112 589.29249,20.8298062 590.066894,20.0645132 C591.181712,18.9628103 592.29653,17.8611074 592.934837,17.2303105 C593.272855,16.8962686 593.698708,16.9157443 594.083834,17.3008704 Z M600.559717,43.0423832 C600.140522,43.4615779 599.612708,43.9893921 599.084894,44.5172062 C598.673136,44.9289648 597.280511,45.4646223 596.790078,45.5265717 C595.650393,45.6705319 594.510708,45.8144922 593.371023,45.9584524 C593.044905,45.9996463 592.541213,45.873712 592.337331,45.6818232 C592.301872,45.6484499 592.265617,45.6143275 592.229362,45.5802052 C591.978158,45.3437782 592.128574,44.7057314 592.329384,44.5049214 C593.571897,43.2624084 594.431313,42.3246108 595.680176,41.088501 C596.469116,40.3076172 596.411499,39.2669678 595.680176,38.5084229 C594.94444,37.7453011 594.240141,36.9386287 593.07129,35.8332507 C592.504761,35.2974854 591.02658,35.3637695 590.495501,35.8370541 C589.246497,36.9501369 588.12929,38.203265 586.946185,39.3863705 C586.711132,39.6214233 586.338347,39.7187437 586.174426,39.5548224 C586.135939,39.5163358 586.096009,39.4764055 586.056078,39.4364752 C585.770163,39.1505597 585.569489,38.2983948 585.61211,38.0152702 L586.2079,34.0575222 C586.254475,33.748131 586.543816,33.1959739 586.786582,32.953208 C587.510116,32.2296741 588.23365,31.5061402 588.743857,30.9959326 C589.173274,30.5665161 590.155725,30.3552766 590.859874,30.4223384 C592.887337,30.6154301 594.9148,30.8085219 595.99838,30.91172 C596.502902,30.9597697 597.074313,30.7197076 597.345825,30.4510837 C598.760448,29.0515097 600.175071,27.6519357 601.125913,26.7112093 C601.835698,26.0089757 602.800981,26.0763606 603.214392,26.4897709 C603.717419,26.9927979 604.368127,27.6435061 605.018835,28.2942143 C605.549091,28.82447 605.387995,30.0384799 605.04232,30.3803569 C604.037626,31.3740096 603.032933,32.3676623 602.02824,33.361315 C601.399184,33.983458 600.854587,35.6037535 600.896817,36.1028297 C601.028716,37.6616413 601.160616,39.2204528 601.292515,40.7792644 C601.352209,41.4847314 601.064588,42.5375126 600.559717,43.0423832 Z M612.934165,6.80562496 C613.413743,6.32604727 614.072605,5.66718499 614.731467,5.00832272 C615.04368,4.69611002 615.777538,4.33063686 616.443651,4.24649632 C617.362742,4.13040052 618.747252,3.95551506 620.131762,3.7806296 C620.515123,3.73220512 621.006409,3.79170656 621.150228,3.93552597 C621.221893,4.00719063 621.30247,4.0877676 621.383047,4.16834458 C621.636681,4.42197859 621.418153,5.14777416 621.182073,5.38385494 C620.134394,6.43153357 619.086715,7.4792122 618.039037,8.52689083 C617.310067,9.25586082 617.13875,10.5135082 617.982295,11.3315448 C618.645561,11.9747539 619.485578,12.7968571 620.370239,13.6815186 C620.985898,14.2971777 622.657306,14.4255188 623.401306,13.6815186 C624.346852,12.7359732 625.375295,11.6923834 626.75204,10.3156383 C626.946615,10.121063 627.297603,10.0829004 627.492544,10.2778416 C627.556257,10.341555 627.624086,10.409384 627.691915,10.477213 C627.912469,10.6977664 628.086447,11.2277112 628.011538,11.7253205 C627.895183,12.4982535 627.710465,13.7253034 627.525748,14.9523532 C627.420984,15.6482886 626.9812,16.679243 626.488455,17.1719881 C626.050091,17.6103522 625.486894,18.1735493 624.923697,18.7367464 C624.544696,19.1157477 623.739769,19.4541848 623.050417,19.3885322 L618.313389,18.9373867 C617.563929,18.8660096 616.276362,19.3255651 615.738254,19.8564978 C614.088497,21.4842583 612.43874,23.1120187 612.43874,23.1120187 L608.588098,19.31972 L611.707235,16.2005826 C612.248017,15.6598012 612.734929,14.4187252 612.652262,13.3440521 C612.557303,12.1095787 612.424344,10.3811114 612.291385,8.65264402 C612.248376,8.09353321 612.494384,7.24540561 612.934165,6.80562496 Z M594.69928,2.80863477 L598.134949,2.80863477 C598.839936,2.80863477 599.936288,3.19999876 600.433544,3.69725448 C600.617994,3.88170418 600.817013,4.08072383 601.016033,4.27974349 C601.680712,4.9444225 601.52297,6.4218468 601.11176,6.82821944 C600.390831,7.54066668 599.669902,8.25311392 598.948973,8.96556115 C598.167602,9.73773974 598.172268,11.3008376 598.958305,12.0917568 C602.868884,16.0266252 606.779463,19.9614936 606.779463,19.9614936 L611.796966,24.9789965 C611.796966,24.9789965 618.460086,31.6686624 625.123205,38.3583283 C626.264099,39.3863705 626.367859,39.9134521 625.13661,40.9463811 C624.809797,41.2632903 624.449064,41.6130928 624.08833,41.9628953 C622.991455,43.0423832 622.201233,43.0423832 621.012244,41.8311681 C614.187569,34.9803449 607.362894,28.1295216 607.362894,28.1295216 L603.570595,24.3372229 L594.574079,15.2884015 C594.054834,14.7661378 593.108788,14.6657125 592.456854,15.3100662 C591.729064,16.029393 590.720704,17.0260284 589.712343,18.0226638 C589.115215,18.6128488 587.725813,18.4107602 587.329676,18.0146234 L583.457606,14.1425531 C582.954007,13.6389545 582.918679,12.6748896 583.707346,11.8993676 C585.416121,10.2190719 588.628972,7.05976811 591.841824,3.90046432 C592.396991,3.35454954 594.116906,2.80863477 594.69928,2.80863477 Z" id="Shape"></path>
            </g>
        </g>
    </g>
</svg>