<?xml version="1.0" encoding="UTF-8"?>
<svg width="107px" height="107px" viewBox="0 0 107 107" version="1.1" xmlns="http://www.w3.org/2000/svg" xmlns:xlink="http://www.w3.org/1999/xlink">
    <!-- Generator: Sketch 41.2 (35397) - http://www.bohemiancoding.com/sketch -->
    <title>Oval 53</title>
    <desc>Created with Sketch.</desc>
    <defs></defs>
    <g id="Page-1" stroke="none" stroke-width="1" fill="none" fill-rule="evenodd">
        <g id="_logos" transform="translate(-2568.000000, -140.000000)" fill="#253044">
            <g id="Group" transform="translate(2568.000000, 140.000000)">
                <path d="M101.644062,41.9448916 C102.530566,45.6520427 103,49.5212002 103,53.5 C103,80.8380951 80.8380951,103 53.5,103 C45.1938391,103 37.3655092,100.954162 30.4914197,97.3388948 L101.644062,41.9448916 Z M101.461715,41.2075913 C99.1137831,32.0192158 94.19497,23.859522 87.5168083,17.540043 L8.09059796,73.2352514 C8.13929268,73.3471392 8.18838882,73.458812 8.23788455,73.5702681 L101.461715,41.2075913 Z M86.9530768,17.0147951 C78.1432935,8.93282471 66.3977082,4 53.5,4 C31.8782364,4 13.4943171,17.8628593 6.75159139,37.1852285 L86.9530768,17.0147951 Z M53.5,107 C83.0472341,107 107,83.0472341 107,53.5 C107,23.9527659 83.0472341,0 53.5,0 C23.9527659,0 0,23.9527659 0,53.5 C0,83.0472341 23.9527659,107 53.5,107 Z" id="Oval-53"></path>
            </g>
        </g>
    </g>
</svg>