<svg width="149" height="171" viewBox="0 0 149 171" xmlns="http://www.w3.org/2000/svg"><title>datica logo, vertical, black</title><path d="M30.928 52.73l5.712-6.382 19.922 23.757L30.928 52.73zm5.712 31.583v-8.618l30.649 4.286-30.649 4.332zm25.355 19.565l-5.758-6.382L81.87 80.121l-19.875 23.757zm31.856-2.422l-8.545-.885 7.477-30.14 1.068 31.025zm22.104-23.199l-6.966 5.031-14.535-27.39 21.5 22.36zm.928-32.096l-1.81 8.432-29.07-10.621 30.88 2.19zm-20.71-24.456l4.272 7.5-28.698 11.6 24.425-19.1zm-31.717-4.24l8.173 2.656-13.56 27.904 5.387-30.56zM38.033 35.54l7.848-3.494 8.544 29.86L38.033 35.54zM30.51 66.751l3.483-7.873 26.284 16.444-29.767-8.57zm15.185 28.23l-2.647-8.2 30.463-5.403-27.816 13.603zm30.138 10.76l-7.476-4.285 19.085-24.503-11.609 28.788zm29.58-12.204l-8.405 1.816-2.182-30.978 10.587 29.162zm13.839-28.929l-5.062 6.988L91.9 50.028l27.352 14.58zm-9.01-30.745l.883 8.572-30.927-1.072 30.045-7.5zM83.032 17l6.362 5.776L65.71 42.761 83.03 17zm-31.485 5.776h8.591L55.82 53.521l-4.273-30.745zM18 154.097v-27.925h10.069c8.18 0 13.53 5.585 13.53 13.845 0 8.26-5.31 14.08-13.609 14.08H18zm33.156.472c-4.011 0-6.686-2.32-6.686-5.82 0-1.889.826-3.462 2.4-4.445 1.415-.826 3.303-1.337 6.41-1.77l4.17-.511v-.512c0-2.95-1.141-4.208-3.658-4.208-2.321 0-3.698 1.22-3.855 3.461H45.1c.315-4.208 3.619-6.804 8.693-6.804 5.82 0 8.416 2.478 8.416 8.18v5.861c0 2.675.197 4.72.59 6.096h-4.72a27.565 27.565 0 0 1-.314-3.382c-.944 2.4-3.422 3.854-6.608 3.854zm14.16-16.716v-3.421h3.54v-4.956l4.72-1.888v6.844h4.798v3.421h-4.799v9.4c0 2.125.905 3.108 2.871 3.108.787 0 1.298-.079 1.928-.236v3.972c-1.141.236-2.006.354-3.226.354-4.72 0-6.293-2.478-6.293-6.45v-10.148h-3.54zm17.148-6.686v-4.916h5.113v4.916h-5.113zm.236 22.93v-19.665h4.72v19.665H82.7zm18.958.472c-5.86 0-9.636-4.05-9.636-10.304 0-6.412 3.697-10.305 9.675-10.305 4.877 0 8.063 2.596 8.653 7.08l-4.602.747c-.314-2.675-1.848-4.13-4.169-4.13-2.91 0-4.72 2.438-4.72 6.49 0 4.247 1.77 6.686 4.799 6.686 2.36 0 3.815-1.455 4.248-4.209l4.444.905c-.708 4.366-4.012 7.04-8.692 7.04zm18.21 0c-4.012 0-6.686-2.32-6.686-5.82 0-1.889.826-3.462 2.4-4.445 1.415-.826 3.303-1.337 6.41-1.77l4.17-.511v-.512c0-2.95-1.141-4.208-3.659-4.208-2.32 0-3.697 1.22-3.854 3.461h-4.838c.315-4.208 3.619-6.804 8.692-6.804 5.821 0 8.417 2.478 8.417 8.18v5.861c0 2.675.197 4.72.59 6.096h-4.72a27.565 27.565 0 0 1-.314-3.382c-.944 2.4-3.422 3.854-6.608 3.854zm1.534-3.343c2.91 0 4.877-2.045 4.877-5.192v-1.258l-4.444.668c-2.596.433-3.776 1.377-3.776 3.068 0 1.652 1.259 2.714 3.343 2.714zm-68.712 0c2.91 0 4.877-2.045 4.877-5.192v-1.258l-4.444.668c-2.596.433-3.776 1.377-3.776 3.068 0 1.652 1.259 2.714 3.343 2.714zm-29.616-1.101h4.759c5.428 0 8.456-4.563 8.456-10.108 0-5.664-2.91-9.872-8.377-9.872h-4.838v19.98z" fill="#010101" fill-rule="evenodd"/></svg>