<?xml version="1.0" encoding="UTF-8"?>
<svg width="149px" height="171px" viewBox="0 0 149 171" version="1.1" xmlns="http://www.w3.org/2000/svg" xmlns:xlink="http://www.w3.org/1999/xlink">
    <!-- Generator: Sketch 43.2 (39069) - http://www.bohemiancoding.com/sketch -->
    <title>datica logo, vertical, white</title>
    <desc>Created with Sketch.</desc>
    <defs></defs>
    <g id="Page-1" stroke="none" stroke-width="1" fill="none" fill-rule="evenodd">
        <g id="datica-logo,-vertical,-white" fill="#FFFFFF">
            <path d="M30.9282588,52.7294756 L36.6400285,46.3475484 L56.5615664,70.1050875 L30.9282588,52.7294756 Z M36.6400285,84.3130276 L36.6400285,75.6950967 L67.2885484,79.9807705 L36.6400285,84.3130276 Z M61.9947131,103.87806 L56.2365063,97.4961327 L81.8698139,80.1205207 L61.9947131,103.87806 Z M93.8505989,101.455723 L85.3061631,100.570638 L92.7825445,70.4311714 L93.8505989,101.455723 Z M115.954683,78.2571843 L108.98911,83.2881926 L94.4542819,55.8971474 L115.954683,78.2571843 Z M116.883426,46.1612147 L115.072377,54.592812 L86.0027204,43.9717945 L116.883426,46.1612147 Z M96.1724565,21.7049244 L100.444674,29.2048534 L71.7465149,40.8041226 L96.1724565,21.7049244 Z M64.4558821,17.4658341 L72.6288208,20.1210885 L59.0691726,48.0245511 L64.4558821,17.4658341 Z M38.033143,35.5401972 L45.8810216,32.0464415 L54.4254574,61.9064073 L38.033143,35.5401972 Z M30.5103245,66.751082 L33.9931108,58.8784857 L60.2765385,75.3224295 L30.5103245,66.751082 Z M45.695273,94.9806285 L43.0483554,86.7819483 L73.5111267,81.3782728 L45.695273,94.9806285 Z M75.8329842,105.741396 L68.3566028,101.455723 L87.4422721,76.9528488 L75.8329842,105.741396 Z M105.41345,93.5365428 L97.0083252,95.3532958 L94.8257791,64.3753281 L105.41345,93.5365428 Z M119.251721,64.6082451 L114.190071,71.5957567 L91.9002386,50.0276378 L119.251721,64.6082451 Z M110.242913,33.8631945 L111.125219,42.4345419 L80.1980764,41.3631235 L110.242913,33.8631945 Z M83.0307427,17 L89.3926324,22.7763429 L65.7096852,42.7606258 L83.0307427,17 Z M51.5463541,22.7763429 L60.1372271,22.7763429 L55.818572,53.5213935 L51.5463541,22.7763429 Z M18,154.097345 L18,126.172075 L28.0688299,126.172075 C36.2497542,126.172075 41.5988201,131.757129 41.5988201,140.016716 C41.5988201,148.276303 36.2890855,154.097345 27.9901672,154.097345 L18,154.097345 Z M51.1563422,154.569322 C47.1445428,154.569322 44.4700098,152.248771 44.4700098,148.748279 C44.4700098,146.860374 45.2959685,145.287119 46.8692232,144.303835 C48.2851524,143.477876 50.173058,142.966568 53.280236,142.533923 L57.4493609,142.022616 L57.4493609,141.511308 C57.4493609,138.561455 56.3087512,137.302852 53.7915438,137.302852 C51.4709931,137.302852 50.0943953,138.522124 49.9370698,140.764012 L45.0993117,140.764012 C45.4139626,136.555556 48.7177974,133.959685 53.7915438,133.959685 C59.612586,133.959685 62.2084562,136.437561 62.2084562,142.14061 L62.2084562,148.000983 C62.2084562,150.675516 62.4051131,152.720747 62.7984267,154.097345 L58.0786627,154.097345 C57.9213373,153.114061 57.8033432,151.93412 57.7640118,150.714848 C56.820059,153.114061 54.3421829,154.569322 51.1563422,154.569322 Z M65.3156342,137.853491 L65.3156342,134.431662 L68.8554572,134.431662 L68.8554572,129.47591 L73.5752212,127.588004 L73.5752212,134.431662 L78.373648,134.431662 L78.373648,137.853491 L73.5752212,137.853491 L73.5752212,147.253687 C73.5752212,149.377581 74.4798427,150.360865 76.446411,150.360865 C77.2330383,150.360865 77.7443461,150.282203 78.373648,150.124877 L78.373648,154.097345 C77.2330383,154.333333 76.3677483,154.451327 75.1484759,154.451327 C70.4287119,154.451327 68.8554572,151.973451 68.8554572,148.000983 L68.8554572,137.853491 L65.3156342,137.853491 Z M82.4641101,131.167158 L82.4641101,126.250737 L87.5771878,126.250737 L87.5771878,131.167158 L82.4641101,131.167158 Z M82.7000983,154.097345 L82.7000983,134.431662 L87.4198623,134.431662 L87.4198623,154.097345 L82.7000983,154.097345 Z M101.657817,154.569322 C95.7974435,154.569322 92.0216323,150.518191 92.0216323,144.264503 C92.0216323,137.853491 95.7187807,133.959685 101.697148,133.959685 C106.574238,133.959685 109.760079,136.555556 110.350049,141.039331 L105.748279,141.786627 C105.433628,139.112094 103.899705,137.656834 101.579154,137.656834 C98.6686332,137.656834 96.8593904,140.095379 96.8593904,144.146509 C96.8593904,148.394297 98.6293019,150.832842 101.657817,150.832842 C104.017699,150.832842 105.47296,149.377581 105.905605,146.624385 L110.350049,147.529007 C109.642085,151.894789 106.33825,154.569322 101.657817,154.569322 Z M119.86824,154.569322 C115.856441,154.569322 113.181908,152.248771 113.181908,148.748279 C113.181908,146.860374 114.007866,145.287119 115.581121,144.303835 C116.99705,143.477876 118.884956,142.966568 121.992134,142.533923 L126.161259,142.022616 L126.161259,141.511308 C126.161259,138.561455 125.020649,137.302852 122.503441,137.302852 C120.182891,137.302852 118.806293,138.522124 118.648968,140.764012 L113.811209,140.764012 C114.12586,136.555556 117.429695,133.959685 122.503441,133.959685 C128.324484,133.959685 130.920354,136.437561 130.920354,142.14061 L130.920354,148.000983 C130.920354,150.675516 131.117011,152.720747 131.510324,154.097345 L126.79056,154.097345 C126.633235,153.114061 126.515241,151.93412 126.47591,150.714848 C125.531957,153.114061 123.054081,154.569322 119.86824,154.569322 Z M121.402163,151.226155 C124.312684,151.226155 126.279253,149.180924 126.279253,146.034415 L126.279253,144.775811 L121.834808,145.444444 C119.238938,145.877089 118.058997,146.821042 118.058997,148.512291 C118.058997,150.164208 119.317601,151.226155 121.402163,151.226155 Z M52.6902655,151.226155 C55.6007866,151.226155 57.567355,149.180924 57.567355,146.034415 L57.567355,144.775811 L53.1229105,145.444444 C50.5270403,145.877089 49.3470993,146.821042 49.3470993,148.512291 C49.3470993,150.164208 50.605703,151.226155 52.6902655,151.226155 Z M23.0737463,150.124877 L27.8328417,150.124877 C33.2605703,150.124877 36.2890855,145.562439 36.2890855,140.016716 C36.2890855,134.352999 33.3785644,130.144543 27.9115044,130.144543 L23.0737463,130.144543 L23.0737463,150.124877 Z" id="_datica-logo-vert-deep"></path>
        </g>
    </g>
</svg>