<?xml version="1.0" encoding="UTF-8"?>
<svg width="247px" height="113px" viewBox="0 0 247 113" version="1.1" xmlns="http://www.w3.org/2000/svg" xmlns:xlink="http://www.w3.org/1999/xlink">
    <!-- Generator: Sketch 43.2 (39069) - http://www.bohemiancoding.com/sketch -->
    <title>datica logo, white</title>
    <desc>Created with Sketch.</desc>
    <defs></defs>
    <g id="Page-1" stroke="none" stroke-width="1" fill="none" fill-rule="evenodd">
        <g id="datica-logo,-white" fill="#FFFFFF">
            <path d="M14.4179344,46.7294756 L20.129704,40.3475484 L40.0512419,64.1050875 L14.4179344,46.7294756 Z M20.129704,78.3130276 L20.129704,69.6950967 L50.7782239,73.9807705 L20.129704,78.3130276 Z M45.4843886,97.8780599 L39.7261819,91.4961327 L65.3594894,74.1205207 L45.4843886,97.8780599 Z M77.3402745,95.4557225 L68.7958386,94.5706377 L76.27222,64.4311714 L77.3402745,95.4557225 Z M99.4443585,72.2571843 L92.4787858,77.2881926 L77.9439574,49.8971474 L99.4443585,72.2571843 Z M100.373102,40.1612147 L98.5620526,48.592812 L69.4923959,37.9717945 L100.373102,40.1612147 Z M79.662132,15.7049244 L83.93435,23.2048534 L55.2361904,34.8041226 L79.662132,15.7049244 Z M47.9455576,11.4658341 L56.1184963,14.1210885 L42.5588481,42.0245511 L47.9455576,11.4658341 Z M21.5228185,29.5401972 L29.3706971,26.0464415 L37.915133,55.9064073 L21.5228185,29.5401972 Z M14,60.751082 L17.4827864,52.8784857 L43.766214,69.3224295 L14,60.751082 Z M29.1849485,88.9806285 L26.5380309,80.7819483 L57.0008022,75.3782728 L29.1849485,88.9806285 Z M59.3226597,99.7413963 L51.8462784,95.4557225 L70.9319476,70.9528488 L59.3226597,99.7413963 Z M88.9031252,87.5365428 L80.4980008,89.3532958 L78.3154546,58.3753281 L88.9031252,87.5365428 Z M102.741396,58.6082451 L97.6797468,65.5957567 L75.3899141,44.0276378 L102.741396,58.6082451 Z M93.7325889,27.8631945 L94.6148948,36.4345419 L63.687752,35.3631235 L93.7325889,27.8631945 Z M66.5204182,11 L72.8823079,16.7763429 L49.1993607,36.7606258 L66.5204182,11 Z M35.0360296,16.7763429 L43.6269026,16.7763429 L39.3082475,47.5213935 L35.0360296,16.7763429 Z M120.489676,69.0973451 L120.489676,41.1720747 L130.558505,41.1720747 C138.73943,41.1720747 144.088496,46.7571288 144.088496,55.0167158 C144.088496,63.2763029 138.778761,69.0973451 130.479843,69.0973451 L120.489676,69.0973451 Z M153.646018,69.5693215 C149.634218,69.5693215 146.959685,67.2487709 146.959685,63.7482793 C146.959685,61.8603736 147.785644,60.287119 149.358899,59.3038348 C150.774828,58.4778761 152.662734,57.9665683 155.769912,57.5339233 L159.939036,57.0226155 L159.939036,56.5113078 C159.939036,53.5614553 158.798427,52.3028515 156.281219,52.3028515 C153.960669,52.3028515 152.584071,53.5221239 152.426745,55.7640118 L147.588987,55.7640118 C147.903638,51.5555556 151.207473,48.9596853 156.281219,48.9596853 C162.102262,48.9596853 164.698132,51.4375615 164.698132,57.1406096 L164.698132,63.0009833 C164.698132,65.6755162 164.894789,67.7207473 165.288102,69.0973451 L160.568338,69.0973451 C160.411013,68.114061 160.293019,66.93412 160.253687,65.7148476 C159.309735,68.114061 156.831858,69.5693215 153.646018,69.5693215 Z M167.80531,52.8534907 L167.80531,49.4316618 L171.345133,49.4316618 L171.345133,44.4759095 L176.064897,42.5880039 L176.064897,49.4316618 L180.863324,49.4316618 L180.863324,52.8534907 L176.064897,52.8534907 L176.064897,62.2536873 C176.064897,64.3775811 176.969518,65.3608653 178.936087,65.3608653 C179.722714,65.3608653 180.234022,65.2822026 180.863324,65.1248771 L180.863324,69.0973451 C179.722714,69.3333333 178.857424,69.4513274 177.638151,69.4513274 C172.918387,69.4513274 171.345133,66.9734513 171.345133,63.0009833 L171.345133,52.8534907 L167.80531,52.8534907 Z M184.953786,46.1671583 L184.953786,41.2507375 L190.066863,41.2507375 L190.066863,46.1671583 L184.953786,46.1671583 Z M185.189774,69.0973451 L185.189774,49.4316618 L189.909538,49.4316618 L189.909538,69.0973451 L185.189774,69.0973451 Z M204.147493,69.5693215 C198.287119,69.5693215 194.511308,65.5181908 194.511308,59.2645034 C194.511308,52.8534907 198.208456,48.9596853 204.186824,48.9596853 C209.063913,48.9596853 212.249754,51.5555556 212.839725,56.0393314 L208.237955,56.7866273 C207.923304,54.1120944 206.389381,52.6568338 204.06883,52.6568338 C201.158309,52.6568338 199.349066,55.0953786 199.349066,59.1465093 C199.349066,63.394297 201.118977,65.8328417 204.147493,65.8328417 C206.507375,65.8328417 207.962635,64.3775811 208.39528,61.6243854 L212.839725,62.5290069 C212.13176,66.8947886 208.827925,69.5693215 204.147493,69.5693215 Z M222.357915,69.5693215 C218.346116,69.5693215 215.671583,67.2487709 215.671583,63.7482793 C215.671583,61.8603736 216.497542,60.287119 218.070796,59.3038348 C219.486726,58.4778761 221.374631,57.9665683 224.481809,57.5339233 L228.650934,57.0226155 L228.650934,56.5113078 C228.650934,53.5614553 227.510324,52.3028515 224.993117,52.3028515 C222.672566,52.3028515 221.295969,53.5221239 221.138643,55.7640118 L216.300885,55.7640118 C216.615536,51.5555556 219.919371,48.9596853 224.993117,48.9596853 C230.814159,48.9596853 233.410029,51.4375615 233.410029,57.1406096 L233.410029,63.0009833 C233.410029,65.6755162 233.606686,67.7207473 234,69.0973451 L229.280236,69.0973451 C229.122911,68.114061 229.004916,66.93412 228.965585,65.7148476 C228.021632,68.114061 225.543756,69.5693215 222.357915,69.5693215 Z M223.891839,66.2261554 C226.80236,66.2261554 228.768928,64.1809243 228.768928,61.0344149 L228.768928,59.7758112 L224.324484,60.4444444 C221.728614,60.8770895 220.548673,61.8210423 220.548673,63.5122911 C220.548673,65.1642085 221.807276,66.2261554 223.891839,66.2261554 Z M155.179941,66.2261554 C158.090462,66.2261554 160.05703,64.1809243 160.05703,61.0344149 L160.05703,59.7758112 L155.612586,60.4444444 C153.016716,60.8770895 151.836775,61.8210423 151.836775,63.5122911 C151.836775,65.1642085 153.095379,66.2261554 155.179941,66.2261554 Z M125.563422,65.1248771 L130.322517,65.1248771 C135.750246,65.1248771 138.778761,60.5624385 138.778761,55.0167158 C138.778761,49.352999 135.86824,45.1445428 130.40118,45.1445428 L125.563422,45.1445428 L125.563422,65.1248771 Z" id="_datica-logo-deep-copy"></path>
        </g>
    </g>
</svg>