<?xml version="1.0" encoding="UTF-8"?>
<svg width="40px" height="32px" viewBox="0 0 40 32" version="1.1" xmlns="http://www.w3.org/2000/svg" xmlns:xlink="http://www.w3.org/1999/xlink">
    <!-- Generator: Sketch 41.2 (35397) - http://www.bohemiancoding.com/sketch -->
    <title>Database hotswap</title>
    <desc>Created with Sketch.</desc>
    <defs></defs>
    <g id="Page-1" stroke="none" stroke-width="1" fill="none" fill-rule="evenodd">
        <g id="Artboard" transform="translate(-400.000000, -800.000000)" fill="#000000">
            <g id="Row-4:-Innovation" transform="translate(20.000000, 800.000000)">
                <path d="M390,7.34617296 C384.29086,8.18767251 380.244604,10.4699045 380,13.1558652 L380,18.6012584 C380,22.086382 386.525381,24.9146067 394.857143,24.9509213 C403.188905,24.9146067 409.714286,22.086382 409.714286,18.6012584 L409.714286,18.5947692 C408.198332,18.8186198 406.565719,18.9434744 404.857143,18.9509213 C402.11951,18.9389892 399.576901,18.6256329 397.396718,18.0865906 C396.696845,18.1380405 395.983687,18.1651236 395.26169,18.1651236 L395.250857,18.1651236 L395.240024,18.1651236 C391.423595,18.1651236 387.853857,17.4082697 385.187929,16.2958202 C382.591333,15.2121348 381.669881,13.8979775 381.669881,13.1839101 C381.669881,12.4698427 382.591333,11.280809 385.187929,10.1971236 C386.577438,9.61730361 388.212476,9.16924792 390,8.87311667 L390,7.34617296 Z M394.542667,26.2252585 C388.658929,26.1997303 382.785714,24.7363595 380,21.9473259 L380,25.5086741 C380,28.9937977 386.525381,31.8220224 394.857143,31.8583371 C403.188905,31.8220224 409.714286,28.9937977 409.714286,25.5086741 L409.714286,21.2134832 C407.547619,24.48 400.930929,26.197573 394.542667,26.2252585 Z M404.857143,0 C396.706452,0.0046741573 390.309524,2.75703371 390,6.15586517 L390,11.6012584 C390,15.086382 396.525381,17.9146067 404.857143,17.9509213 C413.188905,17.9146067 419.714286,15.086382 419.714286,11.6012584 L419.714286,6.15586517 C419.714286,2.75703371 413.007833,0.0046741573 404.857143,0 Z M415.314095,9.29582023 C412.648167,10.4082697 409.078429,11.1651236 405.26169,11.1651236 L405.250857,11.1651236 L405.240024,11.1651236 C401.423595,11.1651236 397.853857,10.4082697 395.187929,9.29582023 C392.591333,8.21213483 391.669881,6.89797753 391.669881,6.1839101 C391.669881,5.4698427 392.591333,4.28080898 395.187929,3.19712359 C397.853857,2.08467416 401.423595,1.45725843 405.240024,1.45725843 L405.250857,1.45725843 L405.26169,1.45725843 C409.078429,1.45725843 412.648167,2.06058427 415.314095,3.17303371 C417.910691,4.25635954 418.831833,5.51838201 418.831833,6.23244944 C418.831833,6.9461573 417.910691,8.21213483 415.314095,9.29582023 Z" id="Database-hotswap"></path>
            </g>
        </g>
    </g>
</svg>