<?xml version="1.0" encoding="UTF-8"?>
<svg width="50px" height="38px" viewBox="0 0 50 38" version="1.1" xmlns="http://www.w3.org/2000/svg" xmlns:xlink="http://www.w3.org/1999/xlink">
    <!-- Generator: Sketch 41.2 (35397) - http://www.bohemiancoding.com/sketch -->
    <title>BYOD</title>
    <desc>Created with Sketch.</desc>
    <defs></defs>
    <g id="Page-1" stroke="none" stroke-width="1" fill="none" fill-rule="evenodd">
        <g id="Artboard" transform="translate(-500.000000, -800.000000)" fill="#000000">
            <g id="Row-4:-Innovation" transform="translate(20.000000, 800.000000)">
                <path d="M490.031424,29.9739837 C488.608595,29.9739837 487.315113,28.8098504 487.315113,27.3870209 C487.315113,25.9641913 488.479247,24.800058 490.031424,24.800058 C491.583602,24.800058 492.747735,25.9641913 492.747735,27.3870209 C492.747735,28.8098504 491.454254,29.9739837 490.031424,29.9739837 Z M520.169541,11.8304587 L519.522801,11.3130662 L519.005408,11.9598069 C517.970623,13.1239402 517.582578,15.1935104 517.711927,16.7456881 C517.841275,17.9098214 518.229319,19.0739547 518.87606,19.9793917 C518.358667,20.2380879 517.711927,20.4967842 517.194534,20.7554805 C516.030401,21.1435249 513.702134,21 513.702134,21 C513.702134,21 485.718384,21 482.679738,21 C480.973999,21 480,21.5209272 480,23.1207464 C480,25.248702 480.350419,27.4298107 481.235751,29.421806 L481.753143,30.327243 L481.753143,30.4565911 C484.857499,35.6305168 489.715469,38.044603 496.549805,38 C504.66748,37.9470215 517.711927,32.9142058 522.239112,22.0489619 C525.214119,22.1783101 528.189126,21.4022212 529.611956,18.5565621 L530,17.9098214 L529.353259,17.521777 C527.671733,16.4869918 525.343467,16.3576437 523.403245,16.8750363 C523.144549,14.805466 521.851067,13.1239402 520.169541,11.8304587 Z M508,14 L503,14 L503,19 L508,19 L508,14 Z M508,7 L503,7 L503,12 L508,12 L508,7 Z M508,0 L503,0 L503,5 L508,5 L508,5.69345141e-16 L508,0 Z M515,14 L510,14 L510,19 L515,19 L515,14 Z M494,14 L489,14 L489,19 L494,19 L494,14 L494,14 Z M501,14 L496,14 L496,19 L501,19 L501,14 Z M487,14 L482,14 L482,19 L487,19 L487,14 L487,14 Z M501,7 L496,7 L496,12 L501,12 L501,7 Z M494,7 L489,7 L489,12 L494,12 L494,7 L494,7 Z" id="BYOD"></path>
            </g>
        </g>
    </g>
</svg>