<svg width="60" height="63" viewBox="0 0 60 63" xmlns="http://www.w3.org/2000/svg"><title>blue/icon-large-harddrive-flag-blue</title><path d="M54.904 36.749c-1.175-4.225-2.29-6.982-8.249-6.982H12.737c-5.957 0-7.075 2.757-8.246 6.982L.48 51.427c-1.36 8.381 3.75 11.386 8.305 11.085h41.822c4.555.3 9.667-2.704 8.306-11.085l-4.01-14.678zM8.607 61.023c-2.545 0-6.523-1.784-6.672-5.953.149-3.586 3.585-6.08 6.672-6.08h1.2v3.99a.796.796 0 1 0 1.593 0v-3.99h1.486v3.99a.796.796 0 0 0 1.593 0v-3.99h1.489v3.99a.795.795 0 1 0 1.592 0v-3.99h1.487v3.99a.798.798 0 0 0 1.595 0v-3.99h30.455c3.086 0 6.354 2.566 6.354 6.08 0 4.488-4.147 5.953-6.354 5.953H8.607zm19.672-31.256h-2.977v1.489h-14.44c-1.636 0-3.349 1.28-3.811 2.857L2.5 49.628c-.23.787.074.98.68.433l.49-.442c1.21-1.092 3.547-1.991 5.2-1.991H51.29c1.646 0 3.898.98 5.017 2.187l.141.153c.549.593.811.446.575-.34l-4.666-15.515c-.478-1.589-2.19-2.857-3.83-2.857H32.743v-1.489h-2.977v-7.441l6.867-1.733-.212 2.573 20.136-3.633-8.94-6.79L55.878 0 41.173 5.392l.171-2.27-11.577 4.21V5.009a2.648 2.648 0 0 0 1.014-.886 2.158 2.158 0 0 0 .318-1.635A2.182 2.182 0 0 0 28.532.79a2.179 2.179 0 0 0-1.697 2.566c.154.754.693 1.354 1.444 1.609v24.801zm14.832 23.437a1.904 1.904 0 1 0 0 3.808c1.052 0 1.9-.856 1.9-1.907a1.9 1.9 0 0 0-1.9-1.901zm6.394 0a1.903 1.903 0 1 0 .001 3.806 1.903 1.903 0 0 0-.001-3.806zM28.279 29.767h1.488V41.94l-1.488.001V29.767zM41.061 6.881l11.46-4.202-6.731 10.384 7.481 5.681-14.463 2.61 1.285-1.64.968-12.833zM28.804 2.123a.815.815 0 1 1 .326 1.597.815.815 0 0 1-.326-1.597zm.78 6.653L39.83 5.108l-1.02 13.529-9.214 2.342-.013-12.203z" fill="#1055FF" fill-rule="evenodd"/></svg>