<svg viewBox="0 0 47 47" xmlns="http://www.w3.org/2000/svg"><title>icon-bridge</title><g fill="#757575" fill-rule="evenodd"><path d="M9 31.06122h29V33H9z"/><path d="M14.8 14h1.93333v18.2245H14.8zm7.73333 6.59184h1.93333v10.4694h-1.93333zM30.26667 14H32.2v18.2245h-1.93333z"/><path d="M9 32.5c1.02113 0 2.48125-.62577 3.89468-2.44303C15.16028 27.14405 16.5 21.97657 16.5 14h-1c0 7.77344-1.28528 12.73095-3.39468 15.44303-.71366.91757-1.46593 1.4979-2.20853 1.81615C9.4704 31.44192 9.15417 31.5 9 31.5v1z"/><path d="M15.50386 13.93798c-.00565.04522-.01336.1235-.0208.23143-.0843 1.2203.05838 2.64568.6162 4.0188C17.1911 20.87573 19.57673 22.5 23.5 22.5v-1c-3.51422 0-5.53483-1.37574-6.47427-3.6882-.49142-1.20964-.61978-2.49186-.54506-3.57348.00615-.089.01205-.14895.01547-.1763l-.99228-.12404z"/><path d="M23.4688 22.49903c.0194.00118.0194.00118.086.00378.39864.0132.91907-.0063 1.51848-.08412.90003-.11683 1.79013-.3444 2.62713-.7106C30.3775 20.53685 32 18.2045 32 14.5h-1c0 3.2955-1.3775 5.27565-3.7004 6.29192-.74325.32517-1.54315.5297-2.35505.63508-.54188.07034-1.0091.08786-1.35668.07636-.05137-.00202-.05137-.00202-.05668-.0024l-.0624.99807z"/><path d="M31.0002 14.51428c.00402.14067.01444.40107.0337.76417.03202.60336.0778 1.27524.1398 1.99863.17726 2.068.44913 4.13658.836 6.07098C33.14968 29.04786 35.0237 32.5 38 32.5v-1c-2.2737 0-3.96217-3.11036-5.0097-8.34806-.37875-1.89372-.64595-3.9267-.82025-5.96027-.06104-.71215-.1061-1.3733-.13755-1.9662-.01882-.35468-.0289-.60698-.0327-.73975l-.9996.02856z"/><path d="M23.5 47C36.4787 47 47 36.4787 47 23.5S36.4787 0 23.5 0 0 10.5213 0 23.5 10.5213 47 23.5 47zm0-2C11.62588 45 2 35.37412 2 23.5S11.62588 2 23.5 2 45 11.62588 45 23.5 35.37412 45 23.5 45z"/></g></svg>