<svg width="57" height="64" viewBox="0 0 57 64" xmlns="http://www.w3.org/2000/svg"><title>blue/icon-large-resource-run-blue</title><g fill="#1055FF" fill-rule="evenodd"><path d="M40.193 4.234c-.455.046-1.108.247-1.762.723-1.084.788-1.733 2.074-1.733 3.925h.748c0-1.613.536-2.673 1.425-3.32.31-.225.644-.384.977-.487.196-.06.345-.089.42-.096l-.075-.745zM24.05 42.45c-.955-.478-2.195-.194-2.85.654L6.94 61.59c-.153.198-.558.337-.773.275l-.048-.014-.05-.009a7.343 7.343 0 0 1-.646-.166 7.454 7.454 0 0 1-1.48-.627c-1.486-.843-2.195-2-1.874-3.68l-.167.382 26.02-35.042a2.197 2.197 0 0 0-.289-2.907l-1.49-1.345a2.059 2.059 0 0 0-2.91.15l-6.072 6.721c-.162.18-.557.278-.75.197l-.064-.027-.068-.017a3.614 3.614 0 0 1-.517-.193 5.37 5.37 0 0 1-1.254-.779c-.863-.718-1.463-1.682-1.698-2.955l-.218.788 8.732-9.923c.47-.533 1.086-1.13 1.453-1.383l.118-.081.088-.114c.017-.021.096-.097.227-.183.805-.523 1.942-.36 3.668 1.291L41.7 25.46a2.068 2.068 0 0 0 2.907-.12l4.793-5.166c.272-.293.88-.587 1.21-.592l.11-.001.108-.028.069-.01a2.41 2.41 0 0 1 1.647.363c.754.481 1.354 1.417 1.705 2.974l.188-.797-7.82 9.583c-.353.433-.978.952-1.337 1.102l-.297.124-.158.28a.604.604 0 0 1 .173-.211c-.132.056-.384.103-.779.113-.574.014-1.34-.058-2.313-.235l.432.202-4.822-4.029a2.01 2.01 0 0 0-2.891.315l-5.101 6.612c-.7.907-.522 2.2.4 2.885l2.455 1.823c.6.445 1.228.991 1.502 1.328l.107.132.147.086a.895.895 0 0 1 .157.17c.52.693.393 1.902-1.193 3.97l-8.317 10.826c-.184.239-.665.447-.916.409l-.083-.013-.084.003h.007a3.896 3.896 0 0 1-.663-.079 4.133 4.133 0 0 1-1.407-.575c-1.016-.658-1.737-1.77-2.033-3.509l-.166.707 6.13-8.434c.705-.968.39-2.261-.679-2.797l-.838-.42zm-.838 1.674l.838.42c.036.018.029-.01.004.024l-6.13 8.434-.232.319.066.388c.383 2.25 1.4 3.82 2.86 4.766a5.989 5.989 0 0 0 2.752.94c.15.011.273.015.364.014h.021l-.028-.936-.14.925c.943.142 2.091-.354 2.679-1.12l8.318-10.826c2.057-2.683 2.279-4.798 1.206-6.23a2.502 2.502 0 0 0-.71-.665l-.473.808.727-.59c-.397-.488-1.123-1.119-1.839-1.65l-2.455-1.824a.163.163 0 0 1-.035-.239l5.102-6.612c.054-.07.14-.08.21-.022l4.821 4.03.19.157.242.045c2.048.373 3.369.34 4.163.002.35-.15.592-.36.723-.592l-.816-.458.36.863c.68-.283 1.535-.994 2.068-1.646l7.819-9.583.288-.352-.1-.445c-.454-2.015-1.328-3.377-2.524-4.14a4.235 4.235 0 0 0-2.92-.64 2.62 2.62 0 0 0-.265.05l.23.908-.013-.936c-.866.013-1.949.538-2.554 1.19l-4.794 5.166a.196.196 0 0 1-.275.01L28.155 10.583c-2.31-2.212-4.398-2.51-5.964-1.493-.323.21-.548.428-.685.603l.739.575-.532-.77c-.52.359-1.232 1.047-1.794 1.686l-8.732 9.923-.3.341.083.447c.318 1.723 1.155 3.065 2.34 4.053.539.45 1.115.795 1.692 1.051.354.158.639.253.823.299l.227-.908-.36.864c.94.391 2.174.087 2.858-.67l6.072-6.722a.187.187 0 0 1 .267-.015l1.49 1.345a.33.33 0 0 1 .04.402L.4 56.636l-.127.172-.04.21c-.492 2.567.665 4.457 2.79 5.66a9.296 9.296 0 0 0 1.853.788c.38.117.682.187.869.22l.163-.921-.26.899c.965.279 2.16-.133 2.775-.93l14.26-18.487c.108-.14.375-.2.53-.123z"/><path d="M42.126 17.893c4.878 0 8.832-3.964 8.832-8.853 0-4.889-3.954-8.853-8.832-8.853-4.879 0-8.832 3.964-8.832 8.853 0 4.889 3.953 8.853 8.832 8.853zm0-1.871c-3.844 0-6.96-3.126-6.96-6.982 0-3.856 3.116-6.982 6.96-6.982s6.96 3.126 6.96 6.982c0 3.856-3.116 6.982-6.96 6.982zM4.583 58.722l14.372-19.635-.604-.442L3.979 58.28zM28.209 34.92l5.843-7.6-.593-.457-5.843 7.6z"/></g></svg>