<svg width="54" height="57" viewBox="0 0 54 57" xmlns="http://www.w3.org/2000/svg"><title>dark gray/icon-branding-catalyze-dark-gray</title><g fill="#242F36" fill-rule="evenodd"><path d="M31.395.993c.235 0 .52.165.639.369l4.274 7.421a.816.816 0 0 1 0 .739l-4.29 7.43a.816.816 0 0 1-.64.37l-8.564.008a.813.813 0 0 1-.638-.369L17.9 9.54a.816.816 0 0 1 0-.739l4.29-7.43a.816.816 0 0 1 .64-.37l8.564-.008zM14.055 11.218c.235 0 .52.164.639.369l4.275 7.42a.816.816 0 0 1-.001.74l-4.29 7.43a.816.816 0 0 1-.639.37l-8.564.007a.813.813 0 0 1-.64-.368L.562 19.765a.816.816 0 0 1 0-.74l4.29-7.429a.816.816 0 0 1 .64-.37l8.564-.008zM14.055 30.965c.235 0 .52.164.639.369l4.275 7.42a.816.816 0 0 1-.001.74l-4.29 7.43a.816.816 0 0 1-.639.369l-8.564.008a.813.813 0 0 1-.64-.368L.562 39.51a.816.816 0 0 1 0-.738l4.29-7.43a.816.816 0 0 1 .64-.37l8.564-.008zM48.62 11.295c.235 0 .52.165.638.37l4.275 7.42a.816.816 0 0 1 0 .74l-4.29 7.429a.816.816 0 0 1-.64.37l-8.564.008a.813.813 0 0 1-.638-.369l-4.275-7.42a.816.816 0 0 1 0-.74l4.29-7.43a.816.816 0 0 1 .64-.37l8.564-.008zM48.64 30.965c.236 0 .521.164.639.369l4.275 7.42a.816.816 0 0 1 0 .74l-4.29 7.43a.816.816 0 0 1-.64.369l-8.564.008a.813.813 0 0 1-.639-.368l-4.275-7.422a.816.816 0 0 1 .001-.738l4.29-7.43a.816.816 0 0 1 .639-.37l8.564-.008zM31.395 40.63c.235-.001.52.164.639.368l4.274 7.421a.816.816 0 0 1 0 .739l-4.29 7.43a.816.816 0 0 1-.64.37l-8.564.008a.813.813 0 0 1-.638-.369L17.9 49.176a.816.816 0 0 1 0-.739l4.29-7.43a.816.816 0 0 1 .64-.37l8.564-.008zM31.324 20.776c.235 0 .521.164.639.368l4.275 7.422a.816.816 0 0 1-.001.738l-4.29 7.43a.816.816 0 0 1-.639.37l-8.564.008a.813.813 0 0 1-.639-.369l-4.275-7.42a.816.816 0 0 1 0-.74l4.29-7.429a.816.816 0 0 1 .64-.37l8.564-.008z"/></g></svg>