<svg width="85" height="32" viewBox="0 0 85 32" xmlns="http://www.w3.org/2000/svg"><title>blue/icon-ui-disaster-recovery-blue</title><g fill="#1055FF" fill-rule="evenodd"><path d="M14.543 26.225C8.659 26.2 2.786 24.736 0 21.947v3.562c0 3.485 6.525 6.313 14.857 6.35 8.332-.037 14.857-2.865 14.857-6.35v-4.296c-2.166 3.267-8.783 4.985-15.171 5.012M25.314 9.296c-2.666 1.112-6.236 1.87-10.052 1.87h-.022c-3.816 0-7.386-.758-10.052-1.87C2.59 8.212 1.67 6.898 1.67 6.184S2.59 4.28 5.188 3.197c2.666-1.112 6.236-1.74 10.052-1.74h.022c3.816 0 7.386.604 10.052 1.716 2.597 1.083 3.518 2.345 3.518 3.06 0 .713-.921 1.98-3.518 3.063M14.857 0C6.707.005.31 2.757 0 6.156V11.6c0 3.485 6.525 6.314 14.857 6.35 8.332-.036 14.857-2.865 14.857-6.35V6.156c0-3.399-6.706-6.151-14.857-6.156"/><path d="M0 14.742v3.66c0 3.485 6.525 6.314 14.857 6.35 8.332-.036 14.857-2.865 14.857-6.35v-3.66c-2.476 3.009-8.737 4.59-14.862 4.617C8.735 19.332 2.786 17.75 0 14.742"/><g><path d="M69.4 26.225c-5.884-.025-11.757-1.489-14.543-4.278v3.562c0 3.485 6.526 6.313 14.857 6.35 8.332-.037 14.857-2.865 14.857-6.35v-4.296c-2.166 3.267-8.783 4.985-15.171 5.012M80.171 9.296c-2.666 1.112-6.235 1.87-10.052 1.87H70.098c-3.817 0-7.387-.758-10.053-1.87-2.597-1.084-3.518-2.398-3.518-3.112s.921-1.903 3.518-2.987c2.666-1.112 6.236-1.74 10.052-1.74H70.118c3.818 0 7.387.604 10.053 1.716 2.597 1.083 3.518 2.345 3.518 3.06 0 .713-.921 1.98-3.518 3.063M69.714 0c-8.15.005-14.547 2.757-14.857 6.156V11.6c0 3.485 6.526 6.314 14.857 6.35 8.332-.036 14.857-2.865 14.857-6.35V6.156c0-3.399-6.706-6.151-14.857-6.156"/><path d="M54.857 14.742v3.66c0 3.485 6.526 6.314 14.857 6.35 8.332-.036 14.857-2.865 14.857-6.35v-3.66c-2.476 3.009-8.736 4.59-14.862 4.617-6.117-.027-12.066-1.608-14.852-4.617"/></g><path d="M35.605 13.602c-.787 0-1.32.56-1.32 1.362v1.866c0 .8.533 1.59 1.32 1.59h7.453v3.67c0 .802.404 1.008.98.462l5.824-5.562c.575-.547.56-1.433-.016-1.98l-5.8-5.561c-.576-.547-.988-.34-.988.46v3.693h-7.453z"/></g></svg>