<svg width="64" height="64" viewBox="0 0 64 64" xmlns="http://www.w3.org/2000/svg"><title>blue/icon-redpoint</title><path d="M54.495 51.145a29.438 29.438 0 0 0 6.406-13.013l-18.44-18.44-17.846 12.923-12-5.538-9.117 12.709a29.48 29.48 0 0 0 6.52 11.946l2.597-4.04 10.462-1.23 10.77-9.539 8.307 7.385 7.384-3.077 4.957 9.914zM32 64c17.673 0 32-14.327 32-32C64 14.327 49.673 0 32 0 14.327 0 0 14.327 0 32c0 17.673 14.327 32 32 32zm-13.23-5.538c6.46 3.692 16 3.692 22.46 1.846 6.462-1.846 11.385-7.077 11.385-7.077l-4-8-7.384 2.461-7.385-7.077-9.538 8.616-9.846.923-2.154 3.384s0 1.231 6.461 4.924z" fill="#D93939" fill-rule="evenodd"/></svg>