<svg width="66" height="64" viewBox="0 0 66 64" xmlns="http://www.w3.org/2000/svg"><title>blue/icon-large-data-blue</title><g fill="#1055FF" fill-rule="evenodd"><path d="M12.07 1.576v17.15l.629.412 7.045 4.613-.63-1.164v41.097h2.783V21.835l-.629-.412-7.045-4.613.63 1.164V1.576z"/><path d="M19.583 1.576v17.15l.629.412 7.045 4.613-.63-1.164v41.097h2.783V21.835l-.629-.412-7.045-4.613.63 1.164V1.576zM40.402 1.576v16.398l.629-1.164-7.045 4.613-.63.412V63.684h2.783V22.587l-.629 1.164 7.045-4.613.63-.412V1.576z"/><path d="M47.915 1.576v16.398l.629-1.164-7.045 4.613-.63.412V63.684h2.783V22.587l-.629 1.164 7.045-4.613.63-.412V1.576z"/><ellipse cx="13.304" cy="2.364" rx="2.348" ry="2.364"/><ellipse cx="20.817" cy="2.364" rx="2.348" ry="2.364"/><ellipse cx="41.791" cy="2.364" rx="2.348" ry="2.364"/><ellipse cx="49.304" cy="2.364" rx="2.348" ry="2.364"/><ellipse cx="59.983" cy="18.317" rx="2.661" ry="2.679"/><ellipse cx="48.087" cy="30.609" rx="1.409" ry="1.418"/><ellipse cx="62.487" cy="41.325" rx="2.661" ry="2.679"/><ellipse cx="59.983" cy="35.021" rx="1.409" ry="1.418"/><ellipse cx="54.661" cy="27.772" rx="1.409" ry="1.418"/><ellipse cx="48.087" cy="52.987" rx="1.409" ry="1.418"/><ellipse cx="60.139" cy="57.242" rx="2.817" ry="2.837"/><ellipse cx="5.165" cy="18.317" rx="2.661" ry="2.679"/><ellipse cx="14.557" cy="30.609" rx="1.409" ry="1.418"/><ellipse cx="2.661" cy="41.325" rx="2.661" ry="2.679"/><ellipse cx="2.661" cy="35.021" rx="1.409" ry="1.418"/><ellipse cx="7.983" cy="27.772" rx="1.409" ry="1.418"/><ellipse cx="14.557" cy="52.987" rx="1.409" ry="1.418"/><ellipse cx="5.322" cy="57.242" rx="2.817" ry="2.837"/></g></svg>