<?xml version="1.0" encoding="UTF-8"?>
<svg width="49px" height="30px" viewBox="0 0 49 30" version="1.1" xmlns="http://www.w3.org/2000/svg" xmlns:xlink="http://www.w3.org/1999/xlink">
    <g id="Page-1" stroke="none" stroke-width="1" fill="none" fill-rule="evenodd">
        <g id="_row" transform="translate(-135.000000, -6.000000)" fill="#1260FF">
            <g id="icon-cloud" transform="translate(135.000000, 6.000000)">
                <path d="M7.87940464,30 L9.68671928,30 L39.5843018,30 L41.3616722,30 C45.6685725,29.5094512 49,25.9652364 49,21.6567467 C49,17.7828831 46.3090755,14.5540912 42.6345576,13.5469946 C42.6462308,13.3228138 42.6523212,13.1035385 42.6523212,12.8773955 C42.6523212,5.76345737 36.6857974,-1.75999996e-08 29.3266111,-1.75999996e-08 C23.5762952,-1.75999996e-08 18.6771073,3.52066844 16.8099041,8.45264568 C15.7430758,7.45928444 14.2940774,6.84806068 12.6958652,6.84806068 C9.42178858,6.84806068 6.76740621,9.41314015 6.76740621,12.5776702 C6.76740621,12.7204199 6.77501916,12.8612074 6.78516976,13.0019949 C2.8842935,13.963961 0,17.3595395 0,21.4296226 C0,25.8715416 3.43750129,29.5094512 7.87940464,30" id="bg"></path>
            </g>
        </g>
    </g>
</svg>
