<svg width="70" height="64" viewBox="0 0 70 64" xmlns="http://www.w3.org/2000/svg"><title>blue/icon-branding-paas-large-blue</title><defs><linearGradient x1="26.172%" y1="0%" x2="72.207%" y2="100%" id="a"><stop stop-color="#1055FF" offset="0%"/><stop stop-color="#1055FF" offset="60.118%"/><stop stop-color="#1055FF" offset="81.234%"/><stop stop-color="#1055FF" offset="100%"/></linearGradient></defs><path d="M.748 33.458c-.413-.805-.413-2.112 0-2.916L15.662 1.458C16.075.653 17.148 0 18.044 0H51.7c.903 0 1.97.654 2.382 1.458l14.915 29.084c.413.805.412 2.112 0 2.916L54.08 62.542C53.668 63.347 52.596 64 51.7 64H18.044c-.902 0-1.969-.654-2.382-1.458L.748 33.458zm47.249 11.79H20.888c-3.487-.438-6.184-3.6-6.184-7.445 0-3.457 2.179-6.339 5.154-7.237-.01-.2-.015-.396-.015-.598 0-6.348 4.831-11.491 10.79-11.491 4.655 0 8.622 3.141 10.133 7.543.864-.887 2.037-1.432 3.331-1.432 2.651 0 4.8 2.289 4.8 5.113 0 .127-.006.253-.014.378 3.158.859 5.493 3.889 5.493 7.52 0 3.965-2.783 7.211-6.38 7.649z" fill="url(#a)" fill-rule="evenodd"/></svg>