<svg width="64" height="64" viewBox="0 0 64 64" xmlns="http://www.w3.org/2000/svg"><title>blue/icon-large-redpoint-growth-blue</title><path d="M34.637 52.955c5.29 1.033 10.312 2.646 14.19 4.153A30.082 30.082 0 0 1 32 62.222a30.109 30.109 0 0 1-20.088-7.642c4.63-2.556 10.587-3.067 16.625-2.514.708-10.254-.084-13.979-1.07-22.484-2.712.534-4.8-1.474-6.225-4.393-1.66-3.404-1.765-15.351-1.765-15.351s9.35 7.438 11.01 10.842c1.554 3.186 1.765 6.328-1.005 8.078C31.122 32.088 31.21 36.044 32 40c1.265-1.265 2.327-2.527 3.285-3.695a6.323 6.323 0 0 1-.053-.048c-2.579-2.322-1.62-5.243.702-7.822 2.322-2.579 12.436-6.769 12.436-6.769s-3.11 10.496-5.432 13.075c-2.034 2.259-4.439 3.505-6.737 2.22-1.299 2.024-2.83 4.258-3.312 5.706-.587 5.28.763 8.624 1.748 10.288zM32 64c17.673 0 32-14.327 32-32C64 14.327 49.673 0 32 0 14.327 0 0 14.327 0 32c0 17.673 14.327 32 32 32zm0-1.778c16.691 0 30.222-13.53 30.222-30.222 0-16.691-13.53-30.222-30.222-30.222C15.309 1.778 1.778 15.308 1.778 32c0 16.691 13.53 30.222 30.222 30.222zm-5.333-35.555C24.889 24 23.11 18.47 23.11 17.777c0-.888 2.791 2.667 4.267 7.29.701 2.198.382 3.24-.711 1.6zm10.666 7.11c.89-1.777 5.334-5.333 5.334-5.333S41.864 31.025 40 32.89c-1.778 1.778-3.252 2.059-2.667.889z" fill="#1055FF" fill-rule="evenodd"/></svg>