<svg width="44" height="32" viewBox="0 0 44 32" xmlns="http://www.w3.org/2000/svg"><title>blue/icon-ui-redpoint-folder-blue</title><path d="M2.14 7.68C.013 7.68-.055 9.185.017 10.428l1.092 19.318C1.181 30.99 2.248 32 3.493 32h36.056c1.245 0 2.312-1.014 2.691-2.257l1.28-19.312c-.424-1.242-.627-2.751-2.619-2.751H2.141zm1.28 1.28c-2.127 0-2.127.64-2.123 1.468l1.092 18.038c.184 2.254.184 2.254 2.384 2.254h33.496c2.064 0 2.064-.64 2.691-2.257l1.28-18.032c-.627-.831-.627-1.471-2.619-1.471h-36.2zM40.973 6.4c-.325-1.574-.64-2.56-1.089-2.56H18.548c-.747-.234-.615-1.6-.615-1.6C17.293 0 17.293 0 14.942 0H4.882c-2.31 0-2.31 0-2.31 2.24V6.4c.524.006 38.4 0 38.4 0z" fill="#1055FF" fill-rule="evenodd"/></svg>