<svg width="29" height="30" viewBox="0 0 29 30" xmlns="http://www.w3.org/2000/svg"><title>blue/icon-ui-lockout-blue</title><path d="M15.02 20.405h-1.49c-.641 0-1.159-.379-1.159-1.016V6.834H9.324c-.64 0-.806-.449-.369-.915l4.447-4.782c.436-.467 1.145-.485 1.582-.018l4.446 4.808c.437.467.272.907-.37.907h-2.837V19.39c0 .637-.561 1.016-1.202 1.016zM.898 20.333a.882.882 0 0 0-.897.885v7.12c0 .488.402.884.883.884h26.694a.875.875 0 0 0 .883-.885v-7.119a.88.88 0 0 0-.9-.885h-1.77a.884.884 0 0 0-.901.881v3.572a.89.89 0 0 1-.89.88H4.445a.878.878 0 0 1-.89-.88v-3.572c0-.486-.38-.88-.897-.88H.898z" fill="#1055FF" fill-rule="evenodd"/></svg>