<svg width="76" height="30" viewBox="0 0 76 30" xmlns="http://www.w3.org/2000/svg"><title>blue/icon-ui-integration-blue</title><g fill="#1055FF" fill-rule="evenodd"><path d="M25.994 20.249h-11.18v7.956c0 1.738-.934 2.185-2.253 1L1.217 17.145c-1.317-1.185-1.283-3.106.035-4.29L12.545.794c1.318-1.186 2.268-.737 2.268 1v8.006h11.125c-.171.158-.378.265-.586.282l-1.837.138c-.265 0-.644.24-.644.534v8.417c0 .295.379.535.644.535l1.754.136c.258.021.527.181.725.406zm24.486 0H61.2v7.956c0 1.738.891 2.185 2.16 1l10.856-12.06c1.27-1.185 1.236-3.106-.034-4.29L63.379.794c-1.27-1.186-2.18-.737-2.18 1v8.006H50.868a.848.848 0 0 0 .296.082l1.643.138c.265 0 .234.24.234.534l-.2 8.817c0 .295.03.535-.234.535l-1.632.137a.947.947 0 0 0-.494.205z"/><path d="M38.157 20.89c-2.971 0-5.389-2.691-5.389-5.998 0-3.308 2.418-5.998 5.39-5.998 2.97 0 5.388 2.69 5.388 5.998 0 3.307-2.418 5.998-5.389 5.998zm8.976-9.2a11.06 11.06 0 0 0-.572-1.55c-.19-.415-.147-1.02.127-1.372l1.192-1.53c.188-.21.156-.512-.032-.72L45.777 4.21c-.188-.208-.46-.244-.647-.035l-1.353 1.306c-.316.305-.856.346-1.226.129a8.902 8.902 0 0 0-1.435-.681c-.397-.146-.752-.608-.782-1.072l-.124-1.873c0-.295-.215-.376-.48-.376H36.8c-.265 0-.48.08-.48.376l-.121 1.843c-.03.464-.387.904-.787 1.04a8.817 8.817 0 0 0-1.529.678c-.373.211-.916.162-1.232-.142l-1.282-1.24c-.187-.208-.471-.186-.659.022l-2.07 2.306c-.189.209-.21.524-.022.733l1.092 1.4c.273.351.31.953.114 1.364-.256.54-.472 1.108-.642 1.699-.128.443-.54.84-.957.873l-1.837.138c-.265 0-.644.24-.644.534v3.261c0 .295.38.535.644.535l1.754.137c.417.033.863.43.989.874.172.61.41 1.196.675 1.753.196.412.167 1.013-.107 1.364l-1.074 1.385c-.187.208-.153.511.035.72l2.073 2.305c.187.21.46.245.647.037l1.267-1.223c.316-.305.859-.351 1.232-.14.488.277 1 .508 1.532.688.4.135.757.588.786 1.053l.122 1.987c0 .295.216.602.481.602h2.93c.265 0 .48-.307.48-.602l.126-2.017c.03-.465.384-.94.78-1.086.5-.184.981-.419 1.44-.689.369-.217.91-.18 1.225.125l1.337 1.29c.188.21.448.16.635-.05l2.072-2.306c.188-.208.231-.498.044-.707l-1.18-1.515c-.275-.352-.316-.956-.127-1.371.233-.512.43-1.049.587-1.605.125-.444.535-.84.952-.872l1.631-.137c.265 0 .234-.24.234-.535v-3.261c0-.295.031-.534-.234-.534l-1.643-.139c-.417-.032-.829-.427-.956-.87z"/></g></svg>