<?xml version="1.0" encoding="UTF-8" standalone="no"?>
<svg width="24px" height="24px" viewBox="0 0 24 24" version="1.1" xmlns="http://www.w3.org/2000/svg" xmlns:xlink="http://www.w3.org/1999/xlink" xmlns:sketch="http://www.bohemiancoding.com/sketch/ns">
    <!-- Generator: Sketch 3.3.2 (12043) - http://www.bohemiancoding.com/sketch -->
    <title>icon-faq-q</title>
    <desc>Created with Sketch.</desc>
    <defs></defs>
    <g id="Page-1" stroke="none" stroke-width="1" fill="none" fill-rule="evenodd" sketch:type="MSPage">
        <path d="M12,24 C18.627417,24 24,18.627417 24,12 C24,5.372583 18.627417,0 12,0 C5.372583,0 0,5.372583 0,12 C0,18.627417 5.372583,24 12,24 Z M16.9557292,16.8307292 L15.2389323,16.8307292 L14.5299479,16.1041667 C13.7760379,16.5885441 12.9362025,16.8307292 12.0104167,16.8307292 C10.8111919,16.8307292 9.74674944,16.4244832 8.81705729,15.6119792 C7.80533348,14.7174434 7.29947917,13.5748767 7.29947917,12.1842448 C7.29947917,10.8209567 7.77799001,9.68424934 8.73502604,8.77408854 C9.66471819,7.89127163 10.7623635,7.44986979 12.0279948,7.44986979 C13.176438,7.44986979 14.2057246,7.83658467 15.1158854,8.61002604 C16.2096409,9.53971819 16.7565104,10.7525967 16.7565104,12.2486979 C16.7565104,13.4205788 16.3248741,14.461584 15.4615885,15.3717448 L16.9557292,16.8307292 Z M13.1998698,13.0865885 L14.5123698,14.3932292 C15.0904977,13.7916637 15.3795573,13.0475305 15.3795573,12.1608073 C15.3795573,11.1881462 15.0572949,10.3737012 14.4127604,9.71744792 C13.7682259,9.06119464 12.9674527,8.73307292 12.0104167,8.73307292 C11.0416618,8.73307292 10.2447948,9.06119464 9.61979167,9.71744792 C8.99088227,10.3697949 8.67643229,11.1959585 8.67643229,12.1959635 C8.67643229,13.1725309 9.0006478,13.9713511 9.64908854,14.5924479 C10.3248732,15.2330761 11.0963498,15.5533854 11.9635417,15.5533854 C12.5533884,15.5533854 13.0865862,15.4186211 13.563151,15.1490885 L11.4361979,13.0865885 L13.1998698,13.0865885 Z" id="icon-faq-q" fill="#1055ff" sketch:type="MSShapeGroup"></path>
    </g>
</svg>
