<svg width="53" height="64" viewBox="0 0 53 64" xmlns="http://www.w3.org/2000/svg"><title>blue/icon-large-resource-compliance-blue</title><g fill="#1055FF" fill-rule="evenodd"><path d="M.346 40.629c.062.271.203.744.45 1.389a23.464 23.464 0 0 0 1.689 3.468c2.078 3.546 5.161 7.082 9.44 10.37 3.924 3.015 8.678 5.676 14.34 7.891l.395.154.377-.192.292-.152a125.588 125.588 0 0 0 3.706-2.039c2.993-1.712 5.985-3.569 8.782-5.508 4.038-2.8 7.323-5.534 9.599-8.131 2.252-2.572 3.478-4.968 3.478-7.192V3.135l-.79-.128a93.01 93.01 0 0 0-.765-.122A376.504 376.504 0 0 0 42.413 1.6a280.726 280.726 0 0 0-5.024-.617C32.892.473 29.21.188 26.608.188 23.992.188 20.3.57 15.792 1.25c-1.608.243-3.292.52-5.028.824a289.069 289.069 0 0 0-9.7 1.878l-.742.16v36.415l.024.103zm1.835-.419l.023.21V4.87l-.742.92a70.39 70.39 0 0 1 .754-.16 287.208 287.208 0 0 1 8.873-1.704c1.722-.302 3.391-.576 4.984-.817 4.422-.667 8.035-1.04 10.535-1.04 2.514 0 6.138.28 10.57.782 1.594.18 3.265.387 4.989.614a374.643 374.643 0 0 1 9.635 1.399l-.79-.93v36.752c0 1.674-1.032 3.691-3.012 5.951-2.156 2.462-5.333 5.105-9.256 7.825-2.747 1.905-5.695 3.734-8.643 5.421a123.714 123.714 0 0 1-3.645 2.005l-.277.144.772-.039c-5.499-2.151-10.098-4.725-13.878-7.63-4.085-3.139-7.007-6.49-8.964-9.83a21.593 21.593 0 0 1-1.555-3.188c-.126-.33-.224-.62-.299-.867a4.954 4.954 0 0 1-.074-.269z"/><ellipse cx="26.407" cy="12.489" rx="5.751" ry="5.746"/><path d="M23.153 51.39a15.186 15.186 0 0 1-.517-.332 12.99 12.99 0 0 1-2.415-2.074 7.389 7.389 0 0 1-.798-1.03l.121.164a3.275 3.275 0 0 1-.473-.739c-.707-1.465-.585-3.26.817-5.124.979-1.301 2.283-1.674 5.584-2.088a52.12 52.12 0 0 0 1.958-.264c2.684-.424 4.294-1.13 5.273-2.535.483-.692.438-1.098-.07-1.603-.517-.515-1.446-1.008-2.666-1.437V31.95c.09.027.178.055.267.084 1.74.562 3.108 1.248 3.994 2.13 1.27 1.266 1.45 2.888.328 4.496-1.417 2.031-3.539 2.964-6.773 3.474-.559.089-.793.12-2.03.274-2.605.327-3.618.616-4.06 1.205-.878 1.166-.938 2.058-.587 2.784.064.133.118.21.127.222l.069.076.053.088c.01.016.045.07.108.155.115.158.26.338.438.535.351.391.767.784 1.252 1.168v2.75zm6.776 2.369c.74.107 1.51.18 2.312.217l.103-2.257a20.9 20.9 0 0 1-2.415-.246v2.286zM23.153 32.62a16.217 16.217 0 0 1-1.624-.66c-3.425-1.622-5.17-4.093-3.784-7.352 1.153-2.713 4.87-4.153 10.403-4.844 3.143-.392 6.433-.484 9.295-.408a44.043 44.043 0 0 1 .654.022l-.107 2.256a41.802 41.802 0 0 0-.606-.02c-2.76-.073-5.945.016-8.956.391-4.745.593-7.893 1.813-8.605 3.487-.789 1.855.202 3.256 2.672 4.426.215.102.434.198.658.289v2.413z"/><path d="M28.681 38.155V23.288l-4.28.963v14.604l4.28-.7zm0 5.244v9.58a2.14 2.14 0 0 1-4.28 0v-9.02l4.28-.56zm0-25.23v-.466a2.14 2.14 0 1 0-4.28 0v1.323l4.28-.856z"/></g></svg>