<svg width="58" height="64" viewBox="0 0 58 64" xmlns="http://www.w3.org/2000/svg" xmlns:xlink="http://www.w3.org/1999/xlink"><title>blue/icon-large-resource-database-blue</title><defs><rect id="a" width="57.519" height="19.226" rx="3"/><rect id="c" width="57.519" height="19.226" rx="3"/><rect id="e" width="57.519" height="19.226" rx="3"/></defs><g fill="none" fill-rule="evenodd"><g transform="translate(.126)"><mask id="b" fill="#fff"><use xlink:href="#a"/></mask><path d="M4.05 5.265c0-.67.544-1.214 1.212-1.214h51.046c.667 0 1.211.544 1.211 1.214v12.747c0 .67-.544 1.214-1.211 1.214H5.262a1.214 1.214 0 0 1-1.211-1.214V5.265zm-4.05 0v12.747a5.265 5.265 0 0 0 5.262 5.265h51.046a5.264 5.264 0 0 0 5.262-5.265V5.265A5.265 5.265 0 0 0 56.308 0H5.262A5.264 5.264 0 0 0 0 5.265z" transform="translate(-2.025 -2.025)" mask="url(#b)" fill="#1055FF"/></g><ellipse fill="#1055FF" cx="8.975" cy="9.613" rx="2.581" ry="2.588"/><g transform="translate(.126 22.184)"><mask id="d" fill="#fff"><use xlink:href="#c"/></mask><path d="M2.025 3.24c0-.67.544-1.215 1.211-1.215h51.047c.667 0 1.21.545 1.21 1.215v12.747c0 .67-.543 1.214-1.21 1.214H3.236a1.214 1.214 0 0 1-1.21-1.214V3.24zm-4.05 0v12.747a5.265 5.265 0 0 0 5.261 5.265h51.047a5.264 5.264 0 0 0 5.261-5.265V3.24a5.265 5.265 0 0 0-5.261-5.265H3.236A5.264 5.264 0 0 0-2.025 3.24z" fill="#1055FF" mask="url(#d)"/></g><ellipse fill="#1055FF" cx="8.975" cy="31.392" rx="2.581" ry="2.588"/><g transform="translate(.126 44.369)"><mask id="f" fill="#fff"><use xlink:href="#e"/></mask><path d="M4.05 5.265c0-.67.544-1.214 1.212-1.214h51.046c.667 0 1.211.544 1.211 1.214v12.747c0 .67-.544 1.214-1.211 1.214H5.262a1.214 1.214 0 0 1-1.211-1.214V5.265zM0 18.012a5.265 5.265 0 0 0 5.262 5.265h51.046a5.264 5.264 0 0 0 5.262-5.265V5.265A5.265 5.265 0 0 0 56.308 0H5.262A5.264 5.264 0 0 0 0 5.265v12.747z" transform="translate(-2.025 -2.025)" mask="url(#f)" fill="#1055FF"/></g><ellipse fill="#1055FF" cx="8.975" cy="53.982" rx="2.581" ry="2.588"/><path fill="#1055FF" d="M6.672 19.042v4.067h2.025v-4.067zM48.336 19.042v4.067h2.026v-4.067zM48.336 41.226v4.067h2.026v-4.067zM6.672 41.226v4.067h2.025v-4.067zM15.595 13.367h17.017v-.81H15.595zM15.595 35.646h17.017v-.81H15.595zM15.595 57.519h17.017v-.81H15.595zM35.848 57.519h7.291v-.81h-7.29zM35.848 35.646h7.291v-.81h-7.29zM35.848 13.367h7.291v-.81h-7.29z"/></g></svg>