<svg width="66" height="64" viewBox="0 0 66 64" xmlns="http://www.w3.org/2000/svg"><title>blue/icon-large-bearings-blue</title><path d="M5.172 28.6C6.71 16.27 16.806 6.505 29.518 5.082L32.938 0l3.456 5.137C48.89 6.74 58.764 16.42 60.282 28.6l5.173 3.48-5.233 3.521c-1.701 11.97-11.486 21.431-23.828 23.014l-3.456 5.137-3.42-5.082C16.96 57.265 6.955 47.718 5.232 35.601L0 32.081l5.172-3.48zm27.713 27.044c13.64 0 24.699-10.745 24.699-24s-11.058-24-24.7-24c-13.64 0-24.698 10.745-24.698 24s11.058 24 24.699 24zm16.103-35.837L26.923 40.065l.55-6.681-6.506-2.23 28.021-11.347zM32.41 30.267a.856.856 0 0 0 1.164.241c.39-.246.5-.752.247-1.13a.856.856 0 0 0-1.163-.24.804.804 0 0 0-.248 1.13z" fill="#1055FF" fill-rule="evenodd"/></svg>