<svg width="32" height="32" viewBox="0 0 32 32" xmlns="http://www.w3.org/2000/svg"><title>blue/icon-ui-pencil-blue</title><path d="M29.744 5.095l-1.743 1.743-2.839-2.839 1.744-1.743a.82.82 0 0 1 1.165 0l1.673 1.673a.822.822 0 0 1 0 1.166zM6.601 27.773l-1.268.444-1.55-1.55.443-1.267c.122-.348.526-.99.785-1.25L22.73 6.43l.918.918c-.028.02-.06.032-.084.057L7.645 23.324a.503.503 0 1 0 .712.712L24.275 8.118c.025-.025.037-.056.056-.085L25.57 9.27 7.85 26.99c-.26.26-.901.663-1.249.784zM23.442 5.72l1.008-1.008 2.84 2.839-1.01 1.008-2.838-2.839zM29.495.831A2.83 2.83 0 0 0 27.488 0c-.726 0-1.453.277-2.007.831L3.587 22.725c-.474.476-1.04 1.375-1.262 2.01l-2.256 6.45c-.176.501-.004.815.39.815.104 0 .223-.021.356-.068l6.45-2.257c.635-.222 1.534-.787 2.01-1.262L31.168 6.519a2.838 2.838 0 0 0 0-4.014L29.495.83z" fill="#1055FF" fill-rule="evenodd"/></svg>