<svg width="64" height="64" viewBox="0 0 64 64" xmlns="http://www.w3.org/2000/svg"><title>dark gray/icon-branding-stratum-dark-gray</title><path d="M59.225 21.597a29.033 29.033 0 0 1 1.37 5l-21.306 11.81L18.16 28.1l41.065-6.504zM12.14 53.455C6.256 48.105 2.562 40.39 2.562 31.81c0-2.48.309-4.888.89-7.188l32.291 15.75L12.14 53.455zm2.796 2.247a29.114 29.114 0 0 0 16.874 5.356c16.153 0 29.248-13.095 29.248-29.248 0-.553-.016-1.103-.046-1.648l-46.076 25.54zM31.81 63.62c17.568 0 31.81-14.241 31.81-31.81C63.62 14.243 49.377 0 31.81 0 14.242 0 0 14.242 0 31.81c0 17.568 14.242 31.81 31.81 31.81z" fill="#242F36" fill-rule="evenodd"/></svg>