<?xml version="1.0" encoding="UTF-8" standalone="no"?>
<svg width="40px" height="36px" viewBox="0 0 40 36" version="1.1" xmlns="http://www.w3.org/2000/svg" xmlns:xlink="http://www.w3.org/1999/xlink" xmlns:sketch="http://www.bohemiancoding.com/sketch/ns">
    <!-- Generator: Sketch 3.5.2 (25235) - http://www.bohemiancoding.com/sketch -->
    <title>&gt;_</title>
    <desc>Created with Sketch.</desc>
    <defs></defs>
    <g id="Page-1" stroke="none" stroke-width="1" fill="none" fill-rule="evenodd" sketch:type="MSPage">
        <g id="Stratum-2016_02_16-kg-v1.2" sketch:type="MSArtboardGroup" transform="translate(-620.000000, -4356.000000)" fill="#1055ff">
            <g id="dashboard" sketch:type="MSLayerGroup" transform="translate(88.000000, 3546.000000)">
                <g id="cli" transform="translate(532.000000, 801.000000)" sketch:type="MSShapeGroup">
                    <path d="M0,10.9997073 C0,9.89529944 0.891539827,9 1.99729162,9 L38.0027084,9 C39.1057821,9 40,9.88989258 40,10.9997073 L40,43.0002927 C40,44.1047006 39.1084602,45 38.0027084,45 L1.99729162,45 C0.894217919,45 0,44.1101074 0,43.0002927 L0,10.9997073 Z M1,13.9963151 C1,13.4460655 1.45323029,13 1.9968754,13 L38.0031246,13 C38.5536837,13 39,13.4382257 39,13.9963151 L39,43.0036849 C39,43.5539345 38.5467697,44 38.0031246,44 L1.9968754,44 C1.44631632,44 1,43.5617743 1,43.0036849 L1,13.9963151 Z M18.2336316,27.4806339 C18.2336317,26.1156131 6.85053241,19.201186 6.85053241,19.201186 C6.38079633,18.912465 6,19.1301911 6,19.6776477 L6,22.3909059 C6,22.9427695 6.38306378,23.6337722 6.84081681,23.9249035 L11.5907635,26.9458737 C12.0551338,27.2412136 12.0579918,27.7270754 11.5907635,28.0352872 L6.84081681,31.1686375 C6.37644651,31.474964 6,32.1750715 6,32.7225281 L6,35.4357863 C6,35.9876499 6.37954322,36.1979653 6.84086704,35.9077681 C6.84086704,35.9077681 18.2336315,28.8456548 18.2336316,27.4806339 Z M19.1503275,37.7550049 C18.5992574,37.7550049 18.1525269,38.2062076 18.1525269,38.7462427 L18.1525269,40.0087622 C18.1525269,40.5562077 18.5937028,41 19.1503275,41 L35.0021994,41 C35.5532694,41 36,40.5487973 36,40.0087622 L36,38.7462427 C36,38.1987972 35.5588241,37.7550049 35.0021994,37.7550049 L19.1503275,37.7550049 Z" id="&gt;_"></path>
                </g>
            </g>
        </g>
    </g>
</svg>