<svg width="33" height="32" viewBox="0 0 33 32" xmlns="http://www.w3.org/2000/svg"><title>blue/icon-ui-lockin-blue</title><path d="M16.899 0H15.22c-.721 0-1.448.8-1.448 1.578V15.05H10.49c-.721 0-.907.537-.415 1.105l5.002 5.823c.491.568 1.288.587 1.78.018l5.001-5.85c.492-.569.306-1.096-.414-1.096h-3.338V1.578C18.106.8 17.62 0 16.899 0zM1.009 23.333c-.557 0-1.009.466-1.009.995v6.678c0 .549.453.994.993.994h30.032c.548 0 .993-.466.993-.994v-6.679a.99.99 0 0 0-1.014-.994h-1.99c-.56 0-1.014.464-1.014 1.005v2.324a1.01 1.01 0 0 1-1 1.005H5c-.552 0-1-.464-1-1.005v-2.324a.992.992 0 0 0-1.01-1.005H1.01z" fill="#1055FF" fill-rule="evenodd"/></svg>