<?xml version="1.0" encoding="UTF-8"?>
<svg width="47px" height="47px" viewBox="0 0 47 47" version="1.1" xmlns="http://www.w3.org/2000/svg" xmlns:xlink="http://www.w3.org/1999/xlink">
    <!-- Generator: Sketch 41.2 (35397) - http://www.bohemiancoding.com/sketch -->
    <title>icon-ehr</title>
    <desc>Created with Sketch.</desc>
    <defs></defs>
    <g id="gray" stroke="none" stroke-width="1" fill="none" fill-rule="evenodd">
        <g id="icons,-Large-Datica" transform="translate(-671.000000, -264.000000)" fill="#757575">
            <g id="icon-ehr" transform="translate(671.000000, 264.000000)">
                <path d="M9,16.9942021 C9,15.3405499 10.3405687,14 11.9942819,14 L35.0057181,14 C36.6594143,14 38,15.343312 38,16.9942021 L38,31.0057979 C38,32.6594501 36.6594313,34 35.0057181,34 L11.9942819,34 C10.3405857,34 9,32.656688 9,31.0057979 L9,16.9942021 Z M15.8235294,17.8888889 L35.1568627,17.8888889 L35.1568627,19 L15.8235294,19 L15.8235294,17.8888889 Z M12.9803922,19.5555556 C13.6084807,19.5555556 14.1176471,19.0580942 14.1176471,18.4444444 C14.1176471,17.8307947 13.6084807,17.3333333 12.9803922,17.3333333 C12.3523036,17.3333333 11.8431373,17.8307947 11.8431373,18.4444444 C11.8431373,19.0580942 12.3523036,19.5555556 12.9803922,19.5555556 Z M15.8235294,23.4444444 L35.1568627,23.4444444 L35.1568627,24.5555556 L15.8235294,24.5555556 L15.8235294,23.4444444 Z M12.9803922,25.1111111 C13.6084807,25.1111111 14.1176471,24.6136497 14.1176471,24 C14.1176471,23.3863503 13.6084807,22.8888889 12.9803922,22.8888889 C12.3523036,22.8888889 11.8431373,23.3863503 11.8431373,24 C11.8431373,24.6136497 12.3523036,25.1111111 12.9803922,25.1111111 Z M15.8235294,29 L35.1568627,29 L35.1568627,30.1111111 L15.8235294,30.1111111 L15.8235294,29 Z M12.9803922,30.6666667 C13.6084807,30.6666667 14.1176471,30.1692053 14.1176471,29.5555556 C14.1176471,28.9419058 13.6084807,28.4444444 12.9803922,28.4444444 C12.3523036,28.4444444 11.8431373,28.9419058 11.8431373,29.5555556 C11.8431373,30.1692053 12.3523036,30.6666667 12.9803922,30.6666667 Z" id="Combined-Shape"></path>
                <path d="M23.5,47 C36.4786916,47 47,36.4786916 47,23.5 C47,10.5213084 36.4786916,0 23.5,0 C10.5213084,0 0,10.5213084 0,23.5 C0,36.4786916 10.5213084,47 23.5,47 Z M23.5,45 C11.6258779,45 2,35.3741221 2,23.5 C2,11.6258779 11.6258779,2 23.5,2 C35.3741221,2 45,11.6258779 45,23.5 C45,35.3741221 35.3741221,45 23.5,45 Z" id="Oval-15"></path>
            </g>
        </g>
    </g>
</svg>