<svg width="43" height="63" viewBox="0 0 43 63" xmlns="http://www.w3.org/2000/svg"><title>blue/icon-large-content-innovation-series-blue</title><path d="M18.951 32.252l-6.144-3.685.598 1.055V18.538l-.605 1.06 8.98-5.308-1.248.003L29.59 19.6l-.608-1.062v11l.601-1.058-9.058 5.385-.602.358v11.622c0-.092-.01-.076.443-.076h-6.597c.206-.031.266.08.266.053-.038-5.43-2.004-8.679-5.738-12.212-3.56-3.37-5.605-7.985-5.605-12.918 0-9.934 8.26-18 18.462-18s18.461 8.066 18.461 18c0 4.94-2.049 9.56-5.619 12.931-3.839 3.626-5.48 6.575-5.635 12.177 0 .063.048-.03.575-.03h-.786c-1.26 0-2.017 1.144-2.017 2.46 0 1.286-.258 2.462-.103 2.462h-8.574a3.678 3.678 0 0 0-3.677 3.693 3.688 3.688 0 0 0 3.71 3.692h4.868c.696 0 1.252.549 1.253 1.233a1.216 1.216 0 0 1-1.223 1.228h-4.925V63h4.925a3.678 3.678 0 0 0 3.685-3.695 3.701 3.701 0 0 0-3.715-3.69h-4.868a1.227 1.227 0 0 1-1.248-1.23c0-.687.541-1.231 1.215-1.231h8.574c1.343 0 2.029-.998 2.345-2.44.166-.76.22-1.566.22-2.483 0-.12-.08 0-.445 0h.786c1.286 0 1.9-1.207 1.886-2.412.134-4.809 1.46-7.19 4.864-10.406 4.056-3.83 6.39-9.094 6.39-14.72C42.077 9.384 32.704.23 21.155.23 9.604.23.23 9.385.23 20.692c0 5.62 2.329 10.877 6.374 14.706 3.294 3.117 4.936 5.83 4.968 10.444.013 1.295.695 2.568 2.336 2.38l6.457.009c1.235 0 2.019-1.295 2.019-2.386V34.923l-.602 1.058 9.058-5.385.602-.357V17.833l-.608-.356-9.059-5.308-.625-.366-.623.368-8.98 5.308-.605.357V30.32l.598.358 6.144 3.686 1.266-2.11z" fill="#1055FF" fill-rule="evenodd"/></svg>