<svg width="64" height="64" viewBox="0 0 64 64" xmlns="http://www.w3.org/2000/svg"><title>blue/icon-large-hands-circle-blue</title><g fill="#1055FF" fill-rule="evenodd"><path d="M32 64c17.673 0 32-14.327 32-32C64 14.327 49.673 0 32 0 14.327 0 0 14.327 0 32c0 17.673 14.327 32 32 32zm0-1.6c16.79 0 30.4-13.61 30.4-30.4S48.79 1.6 32 1.6 1.6 15.21 1.6 32 15.21 62.4 32 62.4z"/><path d="M3.512 19.504c.153.068.42.149.821.221 1.447.263 3.69.263 6.904-.158.238-.063.412-.12.653-.202a134.22 134.22 0 0 0 5.379-1.941c.728-.284 1.407-.56 2.029-.825.657-.28 1.245-.548 1.757-.8 2.823-1.39 5.998-1.775 8.846-1.348 1.106.166 2.875.31 5.45.466.509.03 4.678.262 5.43.317 1.724.125 2.522 1.308 1.629 2.382l1.23 1.023c1.857-2.232.13-4.793-2.743-5.001-.768-.056-4.953-.289-5.45-.319-2.526-.152-4.266-.294-5.309-.45-3.154-.473-6.656-.049-9.79 1.495-.484.238-1.046.494-1.679.764-.605.258-1.268.527-1.98.805a132.626 132.626 0 0 1-5.804 2.081c-2.917.367-4.997.367-6.267.137a2.817 2.817 0 0 1-.45-.107l-.656 1.46z"/><path d="M60.715 20.656c-.166.018-.49.045-.948.073-3.647.221-7.796.019-11.707-.929a27.23 27.23 0 0 1-1.787-.496c-1.051-.332-5.318-1.718-6.276-2.01-1.87-.57-3.191-.887-4.498-1.053a17.096 17.096 0 0 0-2.99-.111c-.67.03-1.118.042-2.291.066-3.861.078-5.315.337-7.157 1.65-.679.484-1.252.918-1.819 1.37-.325.26-1.274 1.042-1.272 1.04a18.942 18.942 0 0 1-1.714 1.265c-.452.298-.962.574-1.924 1.06-2.834 1.43-3.436 1.814-3.612 2.835-.01.06-.01.06-.016.123-.014.172-.04.305-.087.465.137-.47-.106.34-.132.482-.108.587.075 1.091.636 1.887.986 1.397 2.157 1.6 4.892 1.446 2.607-.148 5.179-.8 6.286-2.014 1.04-1.14 2.82-2.201 3.533-2.14 1.25.104 3.903.685 4.942 1.136.102.044 3.67 1.294 5.042 1.88 1.7.727 3.01 1.467 3.854 2.226.842.758 1.457 1.318 1.949 1.773.29.268.998.932.915.854l.022.02c.165.154.313.29.486.446.386.345.7.628 1.068.969.582.541 1.137 1.08 1.657 1.62.46.478.876.939 1.237 1.375.876 1.06 1.382 1.928 1.425 2.432.022.265.05.518.09.837.228 1.813.197 1.985-.586 2.503a4.213 4.213 0 0 1-.165.104c-1.466.875-1.327.86-1.69.466-.219-.235-1.379-1.868-1.665-2.233a11.102 11.102 0 0 0-1.402-1.516c-.502-.44-1.439-1.24-2.69-2.296l-.04-.034a994.67 994.67 0 0 0-3.116-2.62l-1.027 1.226a949.697 949.697 0 0 1 3.11 2.616l.041.035a225.462 225.462 0 0 1 2.667 2.276c.398.349.787.776 1.198 1.3.23.294 1.447 2.007 1.75 2.333 1.023 1.106 1.646 1.037 3.684-.18a5.81 5.81 0 0 0 .227-.142c1.463-.968 1.59-1.667 1.292-4.037-.038-.3-.063-.534-.084-.775-.08-.929-.712-2.016-1.786-3.314-.389-.47-.83-.96-1.318-1.466a43.33 43.33 0 0 0-1.72-1.683c-.378-.35-.702-.642-1.087-.985-.166-.15-.307-.28-.466-.427l-.021-.02c.087.081-.626-.587-.92-.859-.498-.46-1.118-1.025-1.965-1.787-1-.901-2.447-1.718-4.295-2.507-1.44-.616-5.001-1.864-5.034-1.878-1.217-.528-4.035-1.144-5.445-1.263-1.33-.113-3.508 1.185-4.85 2.658-.723.793-2.997 1.37-5.194 1.494-2.179.123-2.958-.013-3.493-.771-.337-.478-.383-.605-.37-.675.007-.041.166-.57.094-.324.075-.257.123-.494.146-.782l-.002.018c.035-.206.79-.686 2.756-1.679 1.017-.513 1.563-.809 2.083-1.151a20.534 20.534 0 0 0 1.843-1.36c.007-.005.948-.78 1.262-1.03a39.01 39.01 0 0 1 1.749-1.319c1.494-1.065 2.71-1.282 6.26-1.353a79.792 79.792 0 0 0 2.333-.068 15.499 15.499 0 0 1 2.714.1c1.202.153 2.443.45 4.233.997.941.287 5.198 1.669 6.262 2.005.613.193 1.244.368 1.891.525 4.091.991 8.388 1.201 12.181.971.484-.03.831-.059 1.021-.08l-.17-1.59zM34.806 41.94c.239.176.66.495 1.205.922a61.416 61.416 0 0 1 2.659 2.202c.497.437.958.861 1.375 1.267 1.435 1.398 2.272 2.531 2.272 2.995 0 1.006-.236 1.407-.67 1.61-.08.036-.17.068-.28.1-.07.022-.322.088-.334.092l-.053.014c-.707.205-1.761.017-2.853-.796a1128.83 1128.83 0 0 1-3.026-2.268l-.01-.008-2.39-1.797-1.085-.817-.962 1.279a4903.976 4903.976 0 0 0 3.476 2.614l.01.008c1.406 1.056 2.463 1.85 3.032 2.273 1.494 1.113 3.066 1.392 4.254 1.05.016-.006.016-.006.034-.01-.008.002.263-.07.359-.098a3.54 3.54 0 0 0 .501-.186c1.023-.475 1.597-1.453 1.597-3.06 0-1.084-.981-2.413-2.756-4.141a39.195 39.195 0 0 0-1.434-1.322 62.98 62.98 0 0 0-2.729-2.26 66.166 66.166 0 0 0-1.244-.951l-.948 1.288z"/><path d="M42.427 49.734c.593 1.002 4.005.486 4.84-.922.46-.776.527-.893.68-1.214.34-.717.495-1.407.525-2.401l-1.6-.048c-.023.78-.13 1.254-.371 1.762-.122.257-.184.366-.61 1.085-.15.254-.67.492-1.368.598a4.479 4.479 0 0 1-.863.05 1.389 1.389 0 0 1-.205-.023c.12.027.215.072.35.298l-1.378.815zM37.764 51.313a3.805 3.805 0 0 1-.572.978c-.477.601-1.034.925-1.695.897-1.632-.07-4.047-1.199-5.206-2.204l.26.766c.02-.102.05-.27.078-.489a7.91 7.91 0 0 0 .058-1.61c-.066-.86-.302-1.565-.807-2.052-.674-.65-1.419-1.185-2.116-1.437-1.138-.412-2.159-.028-2.567 1.212-.528 1.601-.642 1.978-.769 2.638a8.82 8.82 0 0 0-.154 1.714c0 1.257.467 1.87 1.513 2.34.089.04.397.172.439.19.169.075.303.139.436.208 1.631.862 3.24.66 4.804-.875l-1.12-1.142c-1.058 1.037-1.91 1.145-2.939.602a8.36 8.36 0 0 0-.536-.257c-.053-.023-.353-.152-.428-.186-.51-.23-.569-.306-.569-.88 0-.53.04-.967.125-1.412.109-.563.215-.916.718-2.44.103-.313.156-.333.503-.208.443.16 1.024.578 1.55 1.085.163.157.283.516.321 1.022.031.402.009.846-.048 1.28a5.669 5.669 0 0 1-.06.374l-.094.458.354.307c1.412 1.226 4.154 2.508 6.185 2.594 1.241.054 2.248-.532 3.017-1.5.419-.527.684-1.05.821-1.423l-1.502-.55z"/><path d="M22.311 45.347c.054-.331.172-.853.354-1.362.181-.508.39-.864.543-.97.716-.497 1.414-.33 1.58.673.06.365.127.717.204 1.074.093.435.367 1.556.374 1.587.087.386.113.599.097.712l.793.111-.724-.34a18.789 18.789 0 0 0-.616 1.531c-.1.284-.19.566-.27.845a7.391 7.391 0 0 0-.218 1.118 15.185 15.185 0 0 0-.107 2.007l.001.057.703-.812c-.02.002-.067.007-.138.012-.55.038-1.18.007-1.754-.14-.893-.23-1.417-.676-1.551-1.433-.252-1.415-.137-2.149.384-3.603l.023-.065c.148-.412.223-.637.301-.909l.021-.093zM20.752 45c-.065.23-.133.43-.27.81-.01.033-.01.033-.022.065-.607 1.694-.763 2.686-.454 4.423.258 1.46 1.284 2.33 2.729 2.702a7.179 7.179 0 0 0 2.484.167l.72-.088-.017-.724v-.04c-.007-.518.016-1.171.094-1.79.042-.34.098-.636.167-.874a15.452 15.452 0 0 1 .797-2.138l.068-.23c.05-.36.006-.722-.122-1.287-.012-.052-.282-1.161-.37-1.57-.071-.332-.134-.659-.19-.998-.383-2.323-2.489-2.824-4.07-1.727-.502.348-.853.948-1.138 1.747-.13.362-.236.745-.323 1.126-.051.23-.086.41-.103.52l.02-.094z"/><path d="M14.817 44.883c-.733.997-.505 3.79 1.429 4.745 1.786.883 3.354.693 4.674-.071l.298-.173.08-.336a74.412 74.412 0 0 1 .93-3.524 37.4 37.4 0 0 1 .481-1.546c.132-.386.255-.718.368-.986l.063-.33a3.98 3.98 0 0 0-.436-1.669c-.393-.776-1.025-1.357-1.915-1.618-1.682-.493-2.555-.202-3.331.846l-.14.191c-.242.336-.47.755-1.31 2.345l-.022.044c-.65 1.233-.979 1.825-1.168 2.08l-.001.002zm1.287.95c.262-.353.588-.941 1.297-2.286l.023-.044c.766-1.452 1.018-1.913 1.19-2.153l.13-.177c.376-.508.556-.568 1.595-.263.435.128.733.401.937.806.188.372.26.76.265.983l.063-.33c-.13.308-.267.674-.41 1.095-.161.476-.33 1.017-.503 1.612a75.964 75.964 0 0 0-.95 3.604l.778.184-.4-.692c-.894.517-1.912.64-3.165.022-.54-.266-.803-.75-.859-1.427-.022-.27-.007-.55.035-.807.016-.098.053-.233-.024-.129l-.002.002z"/><path d="M13.052 40.138c.121-.279.347-.72.637-1.151.365-.542.722-.88.93-.922 1.453-.295 1.94-.146 2.255 1.077.318 1.235.355 1.533.279 1.74a2.02 2.02 0 0 1-.148.293c-.02.034-.242.41-.325.556-.028.05-.302.54-.398.707-.18.314-.347.586-.518.843-.995 1.489-1.758 1.926-2.477 1.324-.068-.057-.068-.057-.133-.115-1.067-.95-1.348-1.87-1.249-2.599.004-.026.006-.037.004-.03l-.08.201.127-.22.19-.312a27.985 27.985 0 0 1 .826-1.25l.08-.142zm-1.468-.638l.08-.142a29.551 29.551 0 0 0-1.083 1.667l-.142.243-.08.201a1.93 1.93 0 0 0-.039.205c-.168 1.226.277 2.681 1.77 4.011.083.074.083.074.17.147 1.74 1.455 3.38.517 4.834-1.663.194-.29.378-.591.575-.933.103-.179.378-.671.401-.712.075-.132.295-.505.322-.551a3.4 3.4 0 0 0 .263-.538c.234-.637.174-1.118-.232-2.692-.586-2.274-1.943-2.688-4.122-2.246-.743.151-1.358.731-1.94 1.598a9.572 9.572 0 0 0-.777 1.405z"/><path d="M1.616 38.206h.036a26.27 26.27 0 0 1 2.487.113c1.624.143 3.233.41 4.728.828 1.105.31 2.109.691 2.989 1.151l.74-1.418c-.985-.515-2.092-.936-3.298-1.274-1.6-.447-3.303-.73-5.018-.88a27.819 27.819 0 0 0-2.645-.12h-.051l.032 1.6zM51.06 39.65c.152-.053.452-.151.883-.278a36.814 36.814 0 0 1 2.453-.63c2.585-.572 5.298-.916 8.004-.916v-1.6c-2.833 0-5.659.358-8.35.954-.942.209-1.8.433-2.56.657-.46.136-.786.242-.964.306l.534 1.508z"/></g></svg>