<svg width="61" height="30" viewBox="0 0 61 30" xmlns="http://www.w3.org/2000/svg"><title>blue/icon-ui-scripts-blue</title><g fill="#1055FF" fill-rule="evenodd"><path d="M19.266 20.24c-.27.168-.64.443-1.017.812-1.06 1.038-1.552 2.245-.852 3.5.376.674 1.07 1.216 2.077 1.656 2.542 1.109 5.09-.807 5.773-3.696.722-3.056-.844-5.998-4.442-7.203-3.927-1.316-6.39.463-7.379 3.943-.22.774-.355 1.59-.423 2.413-.046.55-.057 1.032-.048 1.408l.003.096.013.124c.144.908.595 2.19 1.543 3.478a8.095 8.095 0 0 0 3.504 2.73c1.377.562 3.07.504 5.019-.02 1.175-.315 2.409-.792 3.669-1.388a32.183 32.183 0 0 0 2.978-1.61c.12-.074.206-.128.254-.16a56.057 56.057 0 0 1 1.703-1.056 63.841 63.841 0 0 1 4.278-2.33c1.936-.96 3.814-1.754 5.575-2.33 2-.656 3.782-1.005 5.276-1.005 3.051 0 5.704.037 7.944.1a153.223 153.223 0 0 1 2.697.1l2.888.156-2.05-2.04L41.12.87l-.207-.207-.283-.076c-.25-.068-.7-.16-1.345-.25-3.392-.474-7.86-.307-13.29.943-2.903.669-5.435 1.602-7.616 2.735-2.841 1.476-4.601 2.978-5.437 4.029l1.694-.04-5.94-6.781-.17-.193L8.29.931A2.915 2.915 0 0 0 7.816.79C6.246.44 4.284.824 2.16 2.41c-.988.738-1.61 1.674-1.89 2.74C-.04 6.347.096 7.575.5 8.75c.148.432.3.763.412.968l.107.16L15.016 27.36l1.723-1.38L2.74 8.498l.107.16a4.409 4.409 0 0 1-.26-.624c-.276-.802-.366-1.615-.18-2.327.153-.586.49-1.094 1.074-1.53 1.596-1.19 2.9-1.446 3.856-1.234.076.017.112.029.104.026l-.406-.292 5.941 6.78.871.995.823-1.035c.142-.18.484-.537 1.044-1.015.964-.822 2.184-1.65 3.682-2.428 2.017-1.048 4.373-1.917 7.094-2.543 5.164-1.189 9.36-1.346 12.49-.909.552.077.912.151 1.074.195l-.49-.283 17.128 17.047.838-1.884-.702-.032c-.575-.023-1.26-.047-2.052-.07-2.261-.062-4.934-.1-8.006-.1-1.758 0-3.758.392-5.963 1.114-1.87.612-3.843 1.448-5.868 2.45a66.025 66.025 0 0 0-5.728 3.209c-.23.146-.394.251-.481.31a29.996 29.996 0 0 1-2.968 1.62c-1.149.543-2.264.975-3.298 1.252-1.525.41-2.766.453-3.611.107a5.896 5.896 0 0 1-2.563-1.996 6.772 6.772 0 0 1-.932-1.77 4.802 4.802 0 0 1-.208-.744l.013.124-.002-.05c-.007-.302.002-.707.041-1.173.058-.69.17-1.37.347-1.993.677-2.382 1.974-3.318 4.555-2.454 2.499.837 3.459 2.64 2.995 4.603-.402 1.7-1.667 2.65-2.742 2.181-.603-.263-.925-.515-1.033-.709-.078-.14.038-.426.469-.847.244-.24.494-.425.638-.514l-1.165-1.874z"/><path d="M12.937 9.41l5.88 7.523 1.738-1.359-5.88-7.523zM21.047 11.375c.068-.036.204-.108.402-.209a61.65 61.65 0 0 1 5.08-2.287c1.96-.775 3.865-1.405 5.647-1.837 2.283-.554 4.268-.757 5.852-.56l.272-2.19c-1.889-.235-4.124-.006-6.643.605-1.892.459-3.892 1.12-5.94 1.93A63.838 63.838 0 0 0 20.446 9.2c-.212.108-.361.186-.442.23l1.043 1.945zM25.246 15.555c.068-.037.204-.108.402-.21a61.65 61.65 0 0 1 5.08-2.287c1.96-.775 3.866-1.404 5.648-1.837 2.283-.553 4.267-.757 5.852-.56l.272-2.19c-1.89-.235-4.124-.005-6.644.606-1.892.458-3.89 1.12-5.94 1.93a63.838 63.838 0 0 0-5.27 2.373c-.212.108-.361.186-.442.23l1.042 1.945zM29.446 19.734a52.038 52.038 0 0 1 1.547-.774 61.65 61.65 0 0 1 3.935-1.721c1.96-.776 3.865-1.406 5.648-1.838 2.282-.553 4.267-.757 5.851-.56l.273-2.19c-1.89-.235-4.124-.006-6.644.605-1.892.459-3.891 1.12-5.94 1.931a63.838 63.838 0 0 0-5.27 2.373c-.212.108-.362.186-.442.23l1.042 1.944z"/></g></svg>