<svg width="22" height="32" viewBox="0 0 22 32" xmlns="http://www.w3.org/2000/svg"><title>blue/icon-ui-redpoint-ribbon-blue</title><path d="M.762 11.295l.542.205c1.016.383 1.214 1.309.442 2.067l-.462.453c-.772.758-.518 1.327.568 1.27l.221-.012c1.086-.057 1.606.694 1.161 1.677l-.115.255c-.445.983-.001 1.423.99.983l.523-.232c.06-.028.12-.05.18-.07.024-.008.047-.014.07-.02.036-.011.071-.022.106-.03.026-.006.05-.009.075-.013.032-.006.064-.012.095-.016.025-.003.05-.003.073-.004.03-.002.06-.004.088-.004a1.213 1.213 0 0 1 .427.084l.021.008a.99.99 0 0 1 .167.096l.038.028a.998.998 0 0 1 .134.123l.012.012a1.133 1.133 0 0 1 .14.21c.032.06.061.123.084.192l.003.009c.024.071.04.148.054.228l.009.06c.01.083.018.168.018.26l-.003.64c0 .074.003.144.009.21 0 .021.004.041.006.061.005.044.01.086.018.126.003.021.008.041.012.062a1.311 1.311 0 0 0 .045.154c.012.031.025.06.038.087l.02.04c.02.032.04.062.062.088l.009.012a.441.441 0 0 0 .084.073c.009.006.018.01.027.014a.386.386 0 0 0 .068.032c.012.004.025.006.037.009a.43.43 0 0 0 .07.01l.02.002c.006 0 .012-.002.017-.003a.552.552 0 0 0 .15-.025l.024-.01c.049-.016.1-.04.152-.07.01-.007.02-.012.032-.018a1.523 1.523 0 0 0 .216-.165 2.39 2.39 0 0 0 .193-.189l.148-.164c.07-.077.142-.142.215-.202l.038-.03a1.527 1.527 0 0 1 .253-.158 1.19 1.19 0 0 1 .216-.083l.023-.004a.975.975 0 0 1 .205-.027l.034-.001c.04 0 .079.004.118.01l.032.004a.916.916 0 0 1 .144.039c.015.005.03.013.043.019a.981.981 0 0 1 .097.045l.051.032a.947.947 0 0 1 .081.057c.018.013.034.028.051.043a1.246 1.246 0 0 1 .191.21l.041.058c.023.036.046.074.068.113l.03.056c.032.06.06.124.087.192l.1.262c.094.244.203.428.32.554a.78.78 0 0 0 .078.074c.007.006.015.015.023.02.02.016.04.027.06.039.011.007.022.016.034.021.017.009.034.014.051.02.015.005.03.013.044.016.016.004.033-.056.05-.054.015.002.03-.054.046-.054.02 0 .038.056.056.053.014-.002.027.029.04.025.02-.005.041.001.062-.007.011-.005.022 0 .034-.005a.567.567 0 0 0 .073-.042c.007-.004.014-.138.02-.143.031-.023.062-.212.092-.212.121 0 .235-.18.334-.432l.19-.417c.028-.07.058-.1.09-.162.01-.02.022-.02.033-.04.023-.04.047-.071.072-.108.013-.02.028-.035.042-.053a1.577 1.577 0 0 1 .123-.14c.027-.028.056-.053.085-.077.015-.013.03-.027.047-.04.034-.025.07-.048.105-.069.012-.007.024-.016.036-.022a1.06 1.06 0 0 1 .148-.067l.038-.01c.039-.013.078-.024.118-.031.02-.004.04-.006.059-.008a1.052 1.052 0 0 1 .373.016l.02.006c.07.017.14.041.209.072.013.006.027.01.04.017.073.034.144.076.216.125l.043.032c.073.053.146.113.217.182l.42.414c.067.066.133.122.196.172.014.011.028.023.043.033.062.047.122.088.18.12l.02.01c.053.028.104.05.153.065l.036.012a.587.587 0 0 0 .149.023l.009.001c.009 0 .017-.003.026-.003a.398.398 0 0 0 .179-.051l.034-.02a.455.455 0 0 0 .062-.056l.021-.02a.599.599 0 0 0 .069-.103l.013-.03a.762.762 0 0 0 .055-.153 1.423 1.423 0 0 0 .046-.298l.004-.061a2.325 2.325 0 0 0-.002-.214l-.012-.22a1.887 1.887 0 0 1 .005-.259l.005-.06a1.62 1.62 0 0 1 .04-.227l.004-.01a1.21 1.21 0 0 1 .072-.19l.021-.045c.031-.06.065-.116.105-.166l.01-.01a.889.889 0 0 1 .16-.152.865.865 0 0 1 .16-.097l.015-.006a.959.959 0 0 1 .213-.065c.065-.012.133-.02.204-.02l.071.003c.029.002.058.002.087.006.026.003.053.008.08.013l.087.015.094.027c.026.007.052.013.08.023.059.02.118.043.18.07l.258.115c.066.029.129.054.19.075l.002.001c.855.302 1.213-.142.799-1.059l-.204-.45c-.445-.983.076-1.79 1.163-1.803l.616-.007c1.088-.013 1.313-.608.505-1.328l-.165-.147c-.809-.72-.64-1.616.376-1.999l.264-.1c1.016-.383 1.017-1.006.001-1.391l-.532-.202c-1.015-.385-1.213-1.313-.442-2.073l.453-.445c.771-.76.516-1.33-.57-1.272l-.222.011c-1.085.057-1.605-.694-1.16-1.677l.115-.255c.445-.983.001-1.423-.99-.982l-.53.235c-.993.44-1.793-.075-1.788-1.153l.003-.643c.005-1.078-.58-1.301-1.308-.5l-.148.163c-.727.8-1.63.634-2.017-.372l-.1-.262c-.388-1.007-1.016-1.007-1.403 0l-.206.538c-.387 1.006-1.321 1.202-2.087.437l-.457-.458c-.765-.765-1.34-.513-1.282.563l.012.22c.057 1.075-.7 1.59-1.693 1.15L4.31 3.09c-.992-.44-1.436-.001-.992.982l.238.525C4 5.58 3.479 6.373 2.39 6.367l-.649-.002C.654 6.36.428 6.94 1.237 7.66l.165.146c.808.72.64 1.616-.376 2l-.264.099c-1.016.383-1.016 1.005 0 1.389zm10.059 7.12a7.68 7.68 0 1 0 0-15.36 7.68 7.68 0 0 0 0 15.36zM7.585 11.06h.308l.171-.992h-.24c-.239 0-.438-.259-.438-.496 0-.238.199-.496.439-.496h.39l.116-.518c.034-.217.22-.257.438-.257.267 0 .48.14.438.398l-.089.377h.924l.117-.518c.034-.217.219-.257.438-.257.267 0 .478.14.437.398l-.088.377h.157c.24 0 .438.258.438.496 0 .237-.198.496-.438.496h-.308l-.171.992h.24c.24 0 .438.093.438.33 0 .238-.199.331-.438.331h-.39l-.124.905c-.034.21-.219.48-.438.48-.267 0-.486-.403-.438-.66l.096-.725h-.924l-.123.905c-.034.184-.192.48-.438.48-.267 0-.486-.376-.438-.66l.096-.725h-.158c-.24 0-.438-.093-.438-.33 0-.238.198-.331.438-.331zm2.521-1.14h-.924l-.171.992h.924l.171-.992zm2.193-1.255l.675-.355c.199-.055.348-.226.491-.226h.014c.287 0 .453.506.453.79V12.7a.501.501 0 0 1-.5.516c-.288 0-.501-.23-.501-.516V9.417l-.355.098c-.055.014-.11.03-.165.03a.458.458 0 0 1-.462-.442c0-.21.138-.377.35-.438zM8.977 21.258l-.1-.2c-.016-.043-.032-.047-.048-.075-.024.02-.051.062-.082.095l-.148.172c-.512.563-1.057.853-1.62.853-.409 0-.794-.157-1.084-.446-.378-.376-.569-.93-.566-1.65l.001-.32.001-.32c0-.09-.01-.15-.021-.189a.677.677 0 0 0-.188.058l-.522.231c-.3.134-.59.219-.86.252L.083 28.658c-.244.596.067.95.697.789l2.688-.688c.63-.16.89-.05 1.227.5l1.44 2.352c.338.55.81.392 1.055-.205l3.548-8.795h-.002c-.359 0-1.247-.023-1.759-1.353zm12.7 7.4l-3.57-8.727-.023.001c-.344 0-.723-.09-1.125-.269l-.257-.114a.835.835 0 0 0-.108-.04.924.924 0 0 0 0 .114l.011.22c.04.737-.133 1.312-.512 1.707-.293.307-.69.476-1.119.476-.534 0-1.065-.256-1.578-.76l-.206-.203-.214-.21a.646.646 0 0 0-.169-.128.618.618 0 0 0-.104.184l-.19.484c-.414 1.051-1.044 1.362-1.5 1.437l3.558 8.697c.244.596.716.634 1.054.084l1.44-2.353c.337-.55.598-.66 1.227-.5l2.689.688c.629.16.94-.193.695-.789z" fill="#1055FF" fill-rule="evenodd"/></svg>