<svg width="34" height="32" viewBox="0 0 34 32" xmlns="http://www.w3.org/2000/svg"><title>blue/icon-ui-heartrate-blue</title><path d="M16.207 9.791c.282-.757.68-.746.895.04l5.842 21.49c.212.78.593.788.848.024l4.734-14.181c.256-.766.665-.766.912-.004l1.374 4.236a1.583 1.583 0 0 0 1.857 1.032l-.295.073a1.334 1.334 0 0 0 .957-1.724L29.44 8.927c-.25-.758-.657-.756-.913.012l-4.49 13.478c-.254.765-.634.749-.842-.015L17.47 1.4c-.21-.773-.609-.79-.89-.033l-6.049 16.269c-.28.755-.874.833-1.33.168L6.88 14.417c-.454-.661-1.304-.77-1.913-.23L.455 18.192c-.603.535-.591 1.371.037 1.878l-.355-.286c.623.503 1.625.48 2.037.123l-.91.787c.503-.434 1.404-1.228 1.987-1.75l1.192-1.064c.595-.532 1.452-.417 1.902.24l3.557 5.187c.455.665 1.052.592 1.335-.168l4.97-13.348z" fill="#1055FF" fill-rule="evenodd"/></svg>