<svg width="64" height="64" viewBox="0 0 64 64" xmlns="http://www.w3.org/2000/svg"><title>blue/icon-large-lightbulb-circle-blue</title><path d="M32 64c17.673 0 32-14.327 32-32C64 14.327 49.673 0 32 0 14.327 0 0 14.327 0 32c0 17.673 14.327 32 32 32zm0-1.6c16.79 0 30.4-13.61 30.4-30.4S48.79 1.6 32 1.6 1.6 15.21 1.6 32 15.21 62.4 32 62.4zm-.581-49.588c-7.337.29-13.397 6.255-13.797 13.583a14.386 14.386 0 0 0 4.46 11.235c.813.773 1.419 1.843 1.8 3.18.21.733.537 1.42.935 2.07-.486.275-.818.79-.818 1.387v6.4c0 .882.718 1.6 1.6 1.6h.534v.533c0 .882.718 1.6 1.6 1.92h8.533c.883-.32 1.6-1.038 1.6-1.92v-.533h.534c.882 0 1.6-.718 1.6-1.6v-6.4c0-.589-.323-1.098-.797-1.376a8.388 8.388 0 0 0 .914-2.08c.382-1.34.983-2.406 1.786-3.167 2.9-2.748 4.497-6.457 4.497-10.444 0-3.954-1.57-7.64-4.421-10.381a14.272 14.272 0 0 0-10.56-4.007zm4.533 40.356h-7.904c-.528 0-.528 0-.528-.368v-.533h9.12v.533s.16.368-.688.368zm2.163-2.448H25.901a.5.5 0 0 1-.509-.488v-5.856a.5.5 0 0 1 .509-.488H38.115a.5.5 0 0 1 .509.488v5.856a.5.5 0 0 1-.509.488zm-8.782-21.17a.52.52 0 0 1 .348-.5.52.52 0 0 1 .59.153l.472.551c.314.366.75.578 1.254.558.483-.012.93-.238 1.226-.62l.489-.631a.515.515 0 0 1 .593-.178c.085.028.361.15.361.504v12.645h-5.333V29.55zm9.495 10.515a7.052 7.052 0 0 1-.994 2.068h-2.24V29.346c0-.67-.408-1.242-1.041-1.458a1.52 1.52 0 0 0-1.717.515l-.47.607a.513.513 0 0 1-.797.02l-.454-.53a1.528 1.528 0 0 0-1.704-.442 1.527 1.527 0 0 0-1.006 1.445v12.63h-2.28a7.621 7.621 0 0 1-.954-2.069c-.418-1.467-1.096-2.653-2.015-3.525A12.833 12.833 0 0 1 19.18 26.52c.358-6.532 5.76-11.851 12.302-12.11a12.728 12.728 0 0 1 9.416 3.573 12.731 12.731 0 0 1 3.942 9.257c0 3.554-1.424 6.86-4.009 9.311-.91.862-1.583 2.044-2.002 3.514z" fill="#1055FF" fill-rule="evenodd"/></svg>