<svg width="103" height="64" viewBox="0 0 103 64" xmlns="http://www.w3.org/2000/svg"><title>blue/icon-large-redpoint-ehr-blue</title><path d="M0 7.656C0 3.428 3.436 0 7.697 0h87.006c4.251 0 7.697 3.44 7.697 7.656v48.688c0 4.228-3.436 7.656-7.697 7.656H7.697C3.446 64 0 60.56 0 56.344V7.656zm2.56.026c0-2.829 2.309-5.122 5.127-5.122h87.026a5.134 5.134 0 0 1 5.127 5.122v48.636c0 2.829-2.309 5.122-5.127 5.122H7.687a5.134 5.134 0 0 1-5.127-5.122V7.682zm27.61 19.252c-2.78 0-5.481 3.357-5.481 3.357s-2.701-3.357-5.508-3.357c-2.78 0-5.429 1.39-5.429 5.508 0 2.911 2.728 5.455 2.728 5.455l8.209 8.183 8.209-8.183s2.728-2.544 2.728-5.455c0-4.118-2.676-5.508-5.456-5.508zM5.12 12.8h92.16v2.56H5.12V12.8zm43.52 15.36H64v2.56H48.64v-2.56zm23.04 0h10.24v2.56H71.68v-2.56zm-23.04 7.68h12.8v2.56h-12.8v-2.56zm17.92 0h17.92v2.56H66.56v-2.56zm-17.92 7.68h17.92v2.56H48.64v-2.56zm23.04 0h5.12v2.56h-5.12v-2.56zm10.24 0h5.12v2.56h-5.12v-2.56zM10.24 5.12h2.56v7.68h-2.56V5.12zm53.76 0h2.56v7.68H64V5.12zm17.92 0h2.56v7.68h-2.56V5.12z" fill="#1055FF" fill-rule="evenodd"/></svg>