<svg xmlns="http://www.w3.org/2000/svg" width="150" height="150" viewBox="0 0 150 150">
  <title>
    Datica Logomark. Copyright 2017 Datica
  </title>
  <path fill="#010101" fill-rule="evenodd" d="M.706 60.394l9.655-10.788 33.675 40.158-43.33-29.37zm9.655 53.386V99.213l51.806 7.244-51.805 7.323zm42.858 33.07l-9.733-10.787 43.328-29.37-33.595 40.157zm53.846-4.094l-14.442-1.496 12.637-50.945 1.804 52.44zm37.363-39.213l-11.774 8.504-24.568-46.3 36.342 37.796zm1.57-54.252l-3.06 14.253L93.798 45.59l52.197 3.7zM110.99 7.954l7.22 12.677-48.508 19.606L110.99 7.953zM57.377.787l13.815 4.49-22.92 47.164L57.378.788zM12.716 31.34l13.265-5.907 14.444 50.473L12.716 31.34zM0 84.093l5.887-13.307 44.427 27.796L0 84.093zm25.667 47.717l-4.474-13.857 51.49-9.134-47.016 22.99zM76.61 150l-12.638-7.244 32.26-41.417L76.61 150zm50-20.63l-14.208 3.07-3.69-52.36 17.897 49.29zM150 80.472l-8.556 11.81-37.676-36.455L150 80.472zm-15.228-51.968l1.492 14.488-52.277-1.81 50.785-12.678zM88.776 0L99.53 9.764l-40.032 33.78L88.776 0zm-53.22 9.764H50.08l-7.3 51.968-7.22-51.968z"/>
</svg>
