<svg viewBox="0 0 47 47" xmlns="http://www.w3.org/2000/svg"><title>icon-stack</title><g fill="#757575" fill-rule="evenodd"><path d="M10 16.48387C10 15.112068 11.114912 14 12.484813 14h23.030374C36.88751 14 38 15.102503 38 16.48387c0 1.371805-1.114912 2.483872-2.484813 2.483872H12.484813C11.11249 18.967742 10 17.86524 10 16.483872zm0 7.451614c0-1.371804 1.114912-2.48387 2.484813-2.48387h23.030374C36.88751 21.451613 38 22.554115 38 23.935483c0 1.371804-1.114912 2.48387-2.484813 2.48387H12.484813C11.11249 26.419355 10 25.316853 10 23.935485zm0 7.451613c0-1.371804 1.114912-2.48387 2.484813-2.48387h23.030374C36.88751 28.903226 38 30.005728 38 31.387096c0 1.371804-1.114912 2.48387-2.484813 2.48387H12.484813C11.11249 33.870968 10 32.768466 10 31.387098zm3.11111-13.66129c.68729 0 1.244446-.556034 1.244446-1.241936 0-.6859-.557157-1.241934-1.244445-1.241934-.687287 0-1.244443.556033-1.244443 1.241935 0 .685903.557156 1.241937 1.244444 1.241937zm3.733334 0c.687288 0 1.244445-.556034 1.244445-1.241936 0-.6859-.557158-1.241934-1.244446-1.241934-.687287 0-1.244444.556033-1.244444 1.241935 0 .685903.557157 1.241937 1.244444 1.241937zm3.733334 0c.687288 0 1.244444-.556034 1.244444-1.241936 0-.6859-.557157-1.241934-1.244444-1.241934-.687288 0-1.244445.556033-1.244445 1.241935 0 .685903.557157 1.241937 1.244445 1.241937zM13.11111 25.17742c.68729 0 1.244446-.556034 1.244446-1.241936 0-.685902-.557157-1.241936-1.244445-1.241936-.687287 0-1.244443.556034-1.244443 1.241936 0 .685902.557156 1.241935 1.244444 1.241935zm3.733334 0c.687288 0 1.244445-.556034 1.244445-1.241936 0-.685902-.557158-1.241936-1.244446-1.241936-.687287 0-1.244444.556034-1.244444 1.241936 0 .685902.557157 1.241935 1.244444 1.241935zm3.733334 0c.687288 0 1.244444-.556034 1.244444-1.241936 0-.685902-.557157-1.241936-1.244444-1.241936-.687288 0-1.244445.556034-1.244445 1.241936 0 .685902.557157 1.241935 1.244445 1.241935zM13.11111 32.62903c.68729 0 1.244446-.556033 1.244446-1.241935S13.7984 30.14516 13.11111 30.14516c-.687287 0-1.244443.556035-1.244443 1.241937 0 .685902.557156 1.241935 1.244444 1.241935zm3.733334 0c.687288 0 1.244445-.556033 1.244445-1.241935s-.557158-1.241936-1.244446-1.241936c-.687287 0-1.244444.556035-1.244444 1.241937 0 .685902.557157 1.241935 1.244444 1.241935zm3.733334 0c.687288 0 1.244444-.556033 1.244444-1.241935s-.557157-1.241936-1.244444-1.241936c-.687288 0-1.244445.556035-1.244445 1.241937 0 .685902.557157 1.241935 1.244445 1.241935z"/><path d="M23.5 47C36.478692 47 47 36.478692 47 23.5S36.478692 0 23.5 0 0 10.521308 0 23.5 10.521308 47 23.5 47zm0-2C11.625878 45 2 35.374122 2 23.5S11.625878 2 23.5 2 45 11.625878 45 23.5 35.374122 45 23.5 45z"/></g></svg>