<?xml version="1.0" encoding="utf-8"?>
<!-- Generator: Adobe Illustrator 21.0.2, SVG Export Plug-In . SVG Version: 6.00 Build 0)  -->
<svg version="1.1" id="Layer_1" xmlns="http://www.w3.org/2000/svg" xmlns:xlink="http://www.w3.org/1999/xlink" x="0px" y="0px"
	 viewBox="0 0 268.2 217.1" style="enable-background:new 0 0 268.2 217.1;" xml:space="preserve">
<g>
	<path d="M109,27.4H28.4C22.6,27.4,18,32,18,37.7v118.1c0,5.7,4.7,10.4,10.4,10.4H109c5.7,0,10.4-4.7,10.4-10.4V37.7
		C119.4,32,114.7,27.4,109,27.4z M116.9,155.9c0,4.3-3.5,7.8-7.8,7.8H28.4c-4.3,0-7.8-3.5-7.8-7.8V37.7c0-4.3,3.5-7.8,7.8-7.8H109
		c4.3,0,7.8,3.5,7.8,7.8V155.9z"/>
	<path d="M85.9,170.2H51.5c-2,0-3.6,1.6-3.6,3.6c0,2,1.6,3.6,3.6,3.6h34.4c2,0,3.6-1.6,3.6-3.6C89.5,171.8,87.8,170.2,85.9,170.2z
		 M85.9,174.8H51.5c-0.6,0-1.1-0.5-1.1-1.1c0-0.6,0.5-1.1,1.1-1.1h34.4c0.6,0,1.1,0.5,1.1,1.1C86.9,174.3,86.5,174.8,85.9,174.8z"/>
	<path d="M104.3,52.4h-72c-0.7,0-1.3,0.6-1.3,1.3s0.6,1.3,1.3,1.3h72c0.7,0,1.3-0.6,1.3-1.3S105,52.4,104.3,52.4z"/>
	<path d="M104.3,76.4h-72c-0.7,0-1.3,0.6-1.3,1.3c0,0.7,0.6,1.3,1.3,1.3h72c0.7,0,1.3-0.6,1.3-1.3C105.6,76.9,105,76.4,104.3,76.4z"
		/>
	<path d="M104.3,102.1h-72c-0.7,0-1.3,0.6-1.3,1.3c0,0.7,0.6,1.3,1.3,1.3h72c0.7,0,1.3-0.6,1.3-1.3
		C105.6,102.6,105,102.1,104.3,102.1z"/>
	<path d="M104.3,128.3h-72c-0.7,0-1.3,0.6-1.3,1.3s0.6,1.3,1.3,1.3h72c0.7,0,1.3-0.6,1.3-1.3S105,128.3,104.3,128.3z"/>
	<path d="M264.2,70.9c0-15-6.5-28.5-16.8-37.9c0.1-0.1,0.3-0.1,0.4-0.2v-2.2c0-0.8-0.4-1.6-1-2c-18.6-13.5-38.5-20.3-59.3-20.3
		c-28.4,0-50.1,12.6-58.1,18c-1.8-5.2-6.8-9-12.6-9H20.7c-7.4,0-13.4,6-13.4,13.4v140.7c0,7.4,6,13.4,13.4,13.4h96.1
		c1.2,0,2.3-0.1,3.4-0.4l2.6,0c0.4,0,0.8-0.1,1.2-0.3c22-12.5,43.6-18.9,64-18.9c3.1,0,6.2,0.2,9.1,0.4v31.4
		c0,7.8,6.3,14.1,14.1,14.1h3.7c7.8,0,14.1-6.3,14.1-14.1v-22.5c4.8,2.3,8.9,4.8,12.3,7.1c1.6,1.1,3.4,1.6,5.4,1.6h0
		c2.3,0,4.5-0.8,6.2-2.2c1.9-1.6,2.9-3.8,2.9-6.2V99.2C261.1,91.1,264.2,81.4,264.2,70.9z M125,171.4L125,171.4c0,0.3,0,0.5,0,0.8
		c0,0.1,0,0.2,0,0.3c0,0.1,0,0.3-0.1,0.4c0,0.1,0,0.3-0.1,0.4c0,0.1-0.1,0.2-0.1,0.3c0,0.1-0.1,0.3-0.1,0.4c0,0.1,0,0.1-0.1,0.2
		c-0.2,0.6-0.5,1.1-0.8,1.6c0,0,0,0.1-0.1,0.1c-0.1,0.1-0.2,0.3-0.3,0.4c0,0.1-0.1,0.1-0.1,0.2c-0.1,0.1-0.2,0.3-0.3,0.4
		c-0.1,0.1-0.1,0.1-0.2,0.2c-0.1,0.1-0.2,0.2-0.3,0.3c-0.1,0.1-0.2,0.2-0.2,0.2c-0.1,0.1-0.3,0.2-0.4,0.3c-0.1,0.1-0.3,0.2-0.5,0.3
		c-0.1,0.1-0.2,0.1-0.2,0.2c-0.1,0.1-0.3,0.2-0.4,0.2c-0.1,0-0.2,0.1-0.3,0.1c-0.1,0.1-0.3,0.1-0.4,0.2c-0.1,0-0.2,0.1-0.3,0.1
		c-0.1,0.1-0.3,0.1-0.4,0.2c-0.1,0-0.2,0.1-0.3,0.1c-0.8,0.2-1.5,0.3-2.4,0.3H20.7c-4.6,0-8.3-3.7-8.3-8.3V30.7
		c0-4.6,3.7-8.3,8.3-8.3h96.1c4.6,0,8.3,3.7,8.3,8.3V171.4z M259.2,70.9c0,25.5-20.7,46.2-46.2,46.2s-46.2-20.7-46.2-46.2
		c0-25.5,20.7-46.2,46.2-46.2S259.2,45.5,259.2,70.9z M211.1,129.6h-5v-6.3h13.7v6.3h-5H211.1z M187.9,160
		c-18.8,0-38.4,5.1-58.4,15.2c0.2-0.7,0.4-1.5,0.5-2.2c0,0,0,0,0,0c0.1-0.1,0.3-0.2,0.4-0.2c0.3-0.2,0.6-0.3,0.9-0.5
		c0.4-0.2,0.7-0.4,1.1-0.6c0.3-0.2,0.6-0.3,0.9-0.5c0.4-0.2,0.7-0.4,1.1-0.5c0.3-0.2,0.6-0.3,0.9-0.5c0.4-0.2,0.7-0.3,1.1-0.5
		c0.3-0.2,0.6-0.3,0.9-0.4c0.4-0.2,0.7-0.3,1.1-0.5c0.3-0.1,0.6-0.3,0.9-0.4c0.4-0.2,0.7-0.3,1.1-0.5c0.3-0.1,0.6-0.3,0.9-0.4
		c0.4-0.2,0.7-0.3,1.1-0.5c0.3-0.1,0.6-0.3,0.9-0.4c0.4-0.2,0.7-0.3,1.1-0.4c0.3-0.1,0.6-0.3,0.9-0.4c0.4-0.1,0.7-0.3,1.1-0.4
		c0.3-0.1,0.6-0.2,0.9-0.4c0.4-0.1,0.7-0.3,1.1-0.4c0.3-0.1,0.6-0.2,0.9-0.4c0.4-0.1,0.7-0.3,1.1-0.4c0.3-0.1,0.6-0.2,0.9-0.3
		c0.4-0.1,0.7-0.3,1.1-0.4c0.3-0.1,0.6-0.2,0.9-0.3c0.4-0.1,0.7-0.2,1.1-0.4c0.3-0.1,0.6-0.2,0.9-0.3c0.4-0.1,0.7-0.2,1.1-0.3
		c0.3-0.1,0.6-0.2,0.9-0.3c0.4-0.1,0.7-0.2,1.1-0.3c0.3-0.1,0.6-0.2,0.9-0.3c0.4-0.1,0.7-0.2,1.1-0.3c0.3-0.1,0.6-0.2,0.9-0.3
		c0.3-0.1,0.7-0.2,1-0.3c0.3-0.1,0.6-0.2,0.9-0.2c0.3-0.1,0.7-0.2,1-0.3c0.3-0.1,0.6-0.2,0.9-0.2c0.3-0.1,0.7-0.2,1-0.3
		c0.3-0.1,0.6-0.1,0.9-0.2c0.3-0.1,0.7-0.2,1-0.2c0.3-0.1,0.6-0.1,0.9-0.2c0.3-0.1,0.7-0.1,1-0.2c0.3-0.1,0.6-0.1,0.9-0.2
		c0.3-0.1,0.7-0.1,1-0.2c0.3-0.1,0.6-0.1,0.9-0.2c0.3-0.1,0.7-0.1,1-0.2c0.3,0,0.6-0.1,0.9-0.1c0.3-0.1,0.7-0.1,1-0.2
		c0.3,0,0.6-0.1,0.9-0.1c0.3-0.1,0.7-0.1,1-0.1c0.3,0,0.6-0.1,0.9-0.1c0.3,0,0.7-0.1,1-0.1c0.3,0,0.6-0.1,0.8-0.1
		c0.3,0,0.7-0.1,1-0.1c0.3,0,0.6-0.1,0.8-0.1c0.4,0,0.7-0.1,1.1-0.1c0.3,0,0.5,0,0.8-0.1c0.4,0,0.7,0,1.1-0.1c0.3,0,0.5,0,0.8,0
		c0.4,0,0.8,0,1.1-0.1c0.2,0,0.5,0,0.7,0c0.4,0,0.8,0,1.2,0c0.2,0,0.4,0,0.6,0c0.6,0,1.2,0,1.8,0c1.9,0,3.7,0.1,5.5,0.2v4.4
		C194,160.2,191,160,187.9,160z M201.1,133.9c-2.5,2.5-4,6-4,9.9v7.3c-1.8-0.1-3.6-0.2-5.5-0.2c-0.6,0-1.3,0-1.9,0
		c-0.2,0-0.4,0-0.6,0c-0.4,0-0.9,0-1.3,0c-0.3,0-0.5,0-0.8,0c-0.4,0-0.8,0-1.2,0.1c-0.3,0-0.5,0-0.8,0c-0.4,0-0.7,0-1.1,0.1
		c-0.3,0-0.6,0-0.8,0.1c-0.4,0-0.7,0.1-1.1,0.1c-0.3,0-0.6,0.1-0.9,0.1c-0.4,0-0.7,0.1-1.1,0.1c-0.3,0-0.6,0.1-0.9,0.1
		c-0.4,0-0.7,0.1-1.1,0.1c-0.3,0-0.6,0.1-0.9,0.1c-0.4,0-0.7,0.1-1.1,0.1c-0.3,0-0.6,0.1-0.9,0.1c-0.4,0.1-0.7,0.1-1.1,0.2
		c-0.3,0-0.6,0.1-0.9,0.1c-0.4,0.1-0.7,0.1-1.1,0.2c-0.3,0.1-0.6,0.1-0.9,0.2c-0.4,0.1-0.7,0.1-1.1,0.2c-0.3,0.1-0.6,0.1-0.9,0.2
		c-0.4,0.1-0.7,0.1-1.1,0.2c-0.3,0.1-0.6,0.1-0.9,0.2c-0.4,0.1-0.8,0.2-1.1,0.2c-0.3,0.1-0.6,0.1-0.8,0.2c-0.4,0.1-0.8,0.2-1.2,0.3
		c-0.3,0.1-0.5,0.1-0.8,0.2c-0.4,0.1-0.8,0.2-1.2,0.3c-0.3,0.1-0.5,0.1-0.8,0.2c-0.4,0.1-0.9,0.2-1.3,0.4c-0.2,0.1-0.4,0.1-0.7,0.2
		c-0.6,0.2-1.2,0.3-1.8,0.5c-0.1,0-0.1,0-0.2,0c-0.7,0.2-1.3,0.4-2,0.6c-0.2,0.1-0.4,0.1-0.6,0.2c-0.5,0.2-1,0.3-1.4,0.5
		c-0.3,0.1-0.5,0.2-0.8,0.3c-0.4,0.1-0.8,0.3-1.3,0.4c-0.3,0.1-0.6,0.2-0.8,0.3c-0.4,0.1-0.8,0.3-1.2,0.4c-0.3,0.1-0.6,0.2-0.9,0.3
		c-0.4,0.1-0.8,0.3-1.1,0.4c-0.3,0.1-0.6,0.2-0.9,0.3c-0.4,0.1-0.7,0.3-1.1,0.4c-0.3,0.1-0.6,0.2-0.9,0.4c-0.4,0.1-0.7,0.3-1.1,0.4
		c-0.3,0.1-0.6,0.3-0.9,0.4c-0.4,0.2-0.7,0.3-1.1,0.5c-0.3,0.1-0.6,0.3-1,0.4c-0.4,0.2-0.7,0.3-1.1,0.5c-0.3,0.1-0.6,0.3-1,0.4
		c-0.4,0.2-0.7,0.3-1.1,0.5c-0.3,0.1-0.6,0.3-1,0.4c-0.4,0.2-0.7,0.3-1.1,0.5c-0.3,0.2-0.6,0.3-1,0.5c-0.4,0.2-0.7,0.3-1.1,0.5
		c-0.3,0.2-0.6,0.3-1,0.5c-0.4,0.2-0.7,0.4-1.1,0.5c-0.3,0.2-0.6,0.3-1,0.5c-0.1,0-0.2,0.1-0.2,0.1V32c4.8-3.5,27.5-18.6,57.4-18.6
		c12.1,0,23.8,2.4,35.2,7.3c-3.1-0.6-6.4-0.9-9.7-0.9c-16.5,0-31.2,7.8-40.6,20c-0.9,0.2-1.7,0.3-2.6,0.5
		c-17.1,3.7-28.1,10.8-28.6,11.2c-0.6,0.4-0.7,1.2-0.4,1.7c0.4,0.6,1.2,0.7,1.7,0.4c0.1-0.1,11.1-7.2,27.6-10.8
		c-4.8,7.2-7.8,15.7-8.4,24.8c-12.5,3.8-20.2,8.8-20.6,9.1c-0.6,0.4-0.7,1.2-0.4,1.7c0.4,0.6,1.2,0.7,1.7,0.4
		c0.1-0.1,7.4-4.8,19.1-8.5c0,0.3,0,0.5,0,0.8c0,7.5,1.6,14.6,4.5,21c-15,3.8-24.6,10-25,10.3c-0.6,0.4-0.7,1.2-0.4,1.7
		c0.4,0.6,1.2,0.7,1.7,0.4c0.1-0.1,9.8-6.4,24.8-10.1c4.5,8.8,11.6,16.2,20.2,21.1c-6.6,0.1-12.6,0.9-17.7,2
		c-17.1,3.7-28.1,10.8-28.6,11.2c-0.6,0.4-0.7,1.2-0.4,1.7c0.4,0.6,1.2,0.7,1.7,0.4c0.1-0.1,11.1-7.2,27.7-10.8
		c6.3-1.4,13.9-2.3,22.4-1.9c2.7,1.1,5.4,2.1,8.3,2.8V133.9z M223.9,196.9c0,5-4.1,9-9,9h-3.7c-1.7,0-3.3-0.5-4.6-1.3V149
		c0-0.7-0.6-1.3-1.3-1.3c-0.7,0-1.3,0.6-1.3,1.3v53.4c-1.2-1.5-1.9-3.4-1.9-5.5v-53.2c0-4.1,2.8-7.6,6.5-8.7v55.1
		c0,0.7,0.6,1.3,1.3,1.3c0.7,0,1.3-0.6,1.3-1.3v-55.5h3.7c5,0,9,4.1,9,9V196.9z M224.9,126.2c2.7,1.3,5.4,2.8,8.1,4.4
		c0.2,0.1,0.4,0.2,0.7,0.2c0.4,0,0.8-0.2,1.1-0.6c0.4-0.6,0.2-1.4-0.4-1.7c-3.2-2-6.3-3.6-9.4-5.1v-2.7c6.5-1.6,12.6-4.4,17.9-8.2
		v53.6c-3-2.2-7.7-5.1-13.9-7.8v-14.6c0-3.8-1.5-7.3-4-9.9V126.2z M250.6,174.8c0,1.1-0.6,1.9-1.1,2.3c-0.8,0.7-1.8,1-2.9,1h0
		c-0.9,0-1.8-0.3-2.5-0.8c-4.8-3.3-9.9-6.1-15.1-8.5V164c9.5,4.5,14.6,9.2,14.7,9.2c0,0,0,0,0,0c0.1,0.1,0.2,0.2,0.3,0.3
		c0,0,0.1,0,0.1,0.1c0.1,0.1,0.2,0.1,0.3,0.1c0,0,0.1,0,0.1,0.1c0.1,0,0.2,0.1,0.3,0.1c0,0,0,0,0.1,0c0.1,0,0.3,0,0.4,0c0,0,0,0,0,0
		c0,0,0.1,0,0.1,0c0.1,0,0.2,0,0.3,0c0,0,0.1,0,0.1,0c0.1,0,0.3-0.1,0.4-0.1c0,0,0,0,0,0c0.9-0.4,1.5-1.3,1.5-2.3v-63
		c1-0.9,1.9-1.8,2.8-2.8V174.8z"/>
	<path d="M214.3,29.8c-0.2-0.1-0.5-0.1-0.8,0c-0.2,0-0.4,0-0.6,0c-7.6,0-14.8,2.1-21,5.7l0,0c-0.2,0.2-0.5,0.3-0.9,0.5
		c-0.2,0.1-0.3,0.2-0.5,0.4c-0.2,0.1-0.3,0.3-0.5,0.3c-0.1,0.1-0.2,0.1-0.3,0.2c0,0,0,0,0,0.1c-10.9,7.4-18.1,19.9-18.1,34.1
		c0,22.7,18.5,41.2,41.2,41.2c10.3,0,19.7-3.8,27-10.1c0.2,0,0.4-0.1,0.6-0.2c0.2-0.2,0.4-0.4,0.4-0.7c5.6-5.2,9.7-11.9,11.8-19.4
		c0.2-0.2,0.2-0.5,0.2-0.8c0.8-3.2,1.2-6.6,1.2-10C254.2,48.7,236.4,30.5,214.3,29.8z M213,109.6c-21.3,0-38.7-17.4-38.7-38.7
		c0-6.8,1.8-13.2,4.9-18.8l37,49c0.2,0.3,0.6,0.5,1,0.5c0.3,0,0.5-0.1,0.8-0.3c0.6-0.4,0.7-1.2,0.2-1.8l-37.6-49.8
		c0.8-1.2,1.6-2.3,2.5-3.4l45.3,60C223.7,108.5,218.5,109.6,213,109.6z M230.7,105.3l-45.9-60.8c2-2.1,4.2-4,6.6-5.6l46.5,61.6
		C235.7,102.3,233.3,104,230.7,105.3z M239.8,98.8l-46.2-61.3c5.7-3.3,12.3-5.3,19.4-5.3c0.1,0,0.2,0,0.3,0l37,49
		C248.4,88,244.7,94,239.8,98.8z M251,78l-34.4-45.6c19.6,1.8,35.1,18.4,35.1,38.5C251.7,73.4,251.4,75.7,251,78z"/>
</g>
</svg>
