<svg viewBox="0 0 96 96" xmlns="http://www.w3.org/2000/svg" preserveAspectRatio="xMidYMid meet"><title>icon-compliance-checklist</title><g id="Page-1" fill="none" fill-rule="evenodd"><g id="compliance-checklist" fill-rule="nonzero" fill="#000000"><path d="M77.495 19.2v66.11c0 2.69-2.206 4.813-4.852 4.813H23.54c-2.647 0-4.853-2.124-4.853-4.813V19.2c0-2.69 2.206-4.814 4.852-4.814h7.203v3.54H23.54c-.736 0-1.324.565-1.324 1.273v66.11c0 .708.588 1.274 1.323 1.274h49.103c.735 0 1.323-.566 1.323-1.274V19.2c0-.71-.588-1.275-1.323-1.275H65.44v-3.54h7.203c2.646 0 4.852 2.125 4.852 4.814zm-13.673 1.84H32.36v-8.777c0-.85.735-1.416 1.47-1.416h6.91c.882-3.256 3.822-5.663 7.35-5.663 3.53 0 6.47 2.407 7.352 5.663h6.763c.882 0 1.47.708 1.47 1.416v8.777h.147zM50.15 11.554c0-1.133-.883-1.982-2.06-1.982-1.175 0-2.057.85-2.057 1.982 0 1.132.882 1.982 2.058 1.982 1.177.14 2.06-.85 2.06-1.982zM26.97 31.947c-.596-.602-.596-1.576 0-2.178.6-.604 1.566-.604 2.164 0l1.977 1.99 5.036-5.072c.598-.603 1.564-.603 2.162 0 .598.602.598 1.576 0 2.178l-6.116 6.162c-.298.3-.69.452-1.08.452-.393 0-.784-.15-1.082-.452l-3.06-3.08zm16.373 1.992h24.465c.845 0 1.53-.69 1.53-1.54 0-.852-.685-1.542-1.53-1.542H43.343c-.846 0-1.53.69-1.53 1.54 0 .85.684 1.54 1.53 1.54zM30.03 50.433c.298.3.69.452 1.08.452.392 0 .783-.15 1.08-.452l6.118-6.162c.597-.602.597-1.576 0-2.178-.598-.603-1.564-.603-2.162 0l-5.035 5.073-1.977-1.992c-.597-.602-1.564-.602-2.162 0-.597.602-.597 1.576 0 2.178l3.06 3.08zm13.313-1.09h24.465c.845 0 1.53-.69 1.53-1.54 0-.85-.685-1.54-1.53-1.54H43.343c-.846 0-1.53.69-1.53 1.54 0 .85.684 1.54 1.53 1.54zM30.03 65.84c.298.3.69.452 1.08.452.392 0 .783-.15 1.08-.452l6.118-6.162c.597-.602.597-1.576 0-2.178-.598-.603-1.564-.603-2.162 0l-5.035 5.073-1.977-1.992c-.597-.602-1.564-.602-2.162 0-.597.603-.597 1.577 0 2.18l3.06 3.08zm13.313-1.09h24.465c.845 0 1.53-.69 1.53-1.54 0-.85-.685-1.54-1.53-1.54H43.343c-.846 0-1.53.69-1.53 1.54 0 .85.684 1.54 1.53 1.54zM30.03 81.247c.298.3.69.452 1.08.452.392 0 .783-.15 1.08-.452l6.118-6.162c.597-.602.597-1.576 0-2.178-.598-.603-1.564-.603-2.162 0L31.11 77.98l-1.977-1.993c-.597-.602-1.564-.602-2.162 0-.597.602-.597 1.576 0 2.178l3.06 3.08zm13.313-1.09h24.465c.845 0 1.53-.69 1.53-1.54 0-.85-.685-1.54-1.53-1.54H43.343c-.846 0-1.53.69-1.53 1.54 0 .85.684 1.54 1.53 1.54z" id="Shape"/></g></g></svg>