<?xml version="1.0" encoding="UTF-8"?>
<svg width="50px" height="47px" viewBox="0 0 50 47" version="1.1" xmlns="http://www.w3.org/2000/svg" xmlns:xlink="http://www.w3.org/1999/xlink">
    <!-- Generator: Sketch 42 (36781) - http://www.bohemiancoding.com/sketch -->
    <title>Anti-Black Box</title>
    <desc>Created with Sketch.</desc>
    <defs></defs>
    <g id="Page-1" stroke="none" stroke-width="1" fill="none" fill-rule="evenodd">
        <g id="Artboard" transform="translate(-1000.000000, -1200.000000)" fill="#000000">
            <g id="Row-6:-Journey" transform="translate(20.000000, 1200.000000)">
                <path d="M998.270685,0.0077241017 C998.232395,0.0139924241 998.194945,0.0246069076 998.15906,0.0393618205 L980.299057,8.2039344 C980.152812,8.27044997 980.046427,8.40194993 980.011918,8.5588612 C979.977408,8.71577246 980.018804,8.87977373 980.123647,9.00151109 L985.960041,15.8265835 L980.123647,22.6357196 C980.01893,22.7574501 979.977613,22.9213668 980.012116,23.0781897 C980.046619,23.2350125 980.152919,23.3664513 980.299057,23.4329902 L986.119505,26.0960696 L986.119505,38.2791428 C986.121035,38.4793747 986.23952,38.6602111 986.422487,38.7415638 L1004.77683,46.9061363 C1004.90881,46.9648046 1005.05946,46.9648046 1005.19144,46.9061363 L1023.57767,38.7415638 C1023.76064,38.6602111 1023.87912,38.4793747 1023.88065,38.2791428 L1023.88065,26.0960696 L1029.7011,23.4329902 C1029.84724,23.3664513 1029.95354,23.2350125 1029.98804,23.0781897 C1030.02255,22.9213668 1029.98123,22.7574501 1029.87651,22.6357196 L1024.04012,15.8265835 L1029.87651,9.00151109 C1029.98125,8.87977944 1030.02258,8.71584866 1029.98808,8.55901107 C1029.95357,8.40217348 1029.84726,8.27072452 1029.7011,8.20418955 L1011.8411,0.0396169634 C1011.75046,0.00165658641 1011.65079,-0.00932919019 1011.55406,0.00797924459 C1011.44343,0.028061676 1011.34253,0.0841193381 1011.26703,0.167443553 L1005.00008,6.91250313 L998.733132,0.16718841 C998.61616,0.0388061887 998.441926,-0.0212744646 998.270685,0.0077241017 L998.270685,0.0077241017 Z M998.254764,1.12397426 L1004.139,7.47065373 L986.757388,15.2046472 L981.335601,8.85801872 L998.254764,1.12397426 Z M1011.74544,1.12397426 L1028.66461,8.85801872 L1023.24282,15.2046472 L1005.86121,7.47065373 L1011.74544,1.12397426 L1011.74544,1.12397426 Z M1005.00008,8.22016149 L1022.1106,15.8265835 L1005.00008,23.4170692 L987.889559,15.8265835 L1005.00008,8.22016149 Z M986.757362,16.4325479 L1004.13897,24.166577 L998.254739,30.5132054 L981.335575,22.779212 L986.757362,16.4325479 L986.757362,16.4325479 Z M1023.2428,16.4325479 L1028.66458,22.779212 L1011.74542,30.5132054 L1005.86119,24.166577 L1023.2428,16.4325479 Z M1004.48979,25.2668552 L1004.48979,45.6463938 L987.140076,37.9283213 L987.140076,26.5584906 L998.15906,31.5975627 C998.358147,31.6806481 998.587972,31.6295759 998.733132,31.4699913 L1004.48979,25.2668552 L1004.48979,25.2668552 Z M1005.51036,25.2668552 L1011.26703,31.4699913 C1011.41219,31.6295759 1011.64201,31.6806481 1011.8411,31.5975627 L1022.86008,26.5584906 L1022.86008,37.9283213 L1005.51036,45.6304219 L1005.51036,25.2668552 L1005.51036,25.2668552 Z" id="Anti-Black-Box"></path>
            </g>
        </g>
    </g>
</svg>