<?xml version="1.0" encoding="UTF-8"?>
<svg width="50px" height="47px" viewBox="0 0 50 47" version="1.1" xmlns="http://www.w3.org/2000/svg" xmlns:xlink="http://www.w3.org/1999/xlink">
    <!-- Generator: Sketch 41.2 (35397) - http://www.bohemiancoding.com/sketch -->
    <title>Shape</title>
    <desc>Created with Sketch.</desc>
    <defs></defs>
    <g id="Page-1" stroke="none" stroke-width="1" fill="none" fill-rule="evenodd">
        <g id="Artboard" transform="translate(-700.000000, -1200.000000)" fill="#000000">
            <g id="Row-6:-Journey" transform="translate(20.000000, 1200.000000)">
                <path d="M729.437371,21.8637961 L725.918337,19.6229013 L729.429072,17.3903062 C729.774089,17.1730017 729.983401,16.7938009 729.983401,16.3860533 C729.983401,15.9783057 729.774089,15.599105 729.429072,15.3818005 L705.584291,0.185213963 C705.19403,-0.0617379876 704.696412,-0.0617379876 704.306151,0.185213963 L680.560966,15.3735009 C680.212158,15.5899931 680,15.9713723 680,16.3819035 C680,16.7924348 680.212158,17.173814 680.560966,17.3903062 L684.071701,19.631201 L680.560966,21.8637961 C680.215949,22.0811006 680.006637,22.4603014 680.006637,22.868049 C680.006637,23.2757966 680.215949,23.6549973 680.560966,23.8723018 L684.594577,26.4534806 L680.560966,29.0097606 C680.215949,29.2270651 680.006637,29.6062659 680.006637,30.0140135 C680.006637,30.4217611 680.215949,30.8009618 680.560966,31.0182663 L704.322751,46.2065532 C704.712416,46.455553 705.211225,46.455553 705.600891,46.2065532 L729.445671,31.0182663 C729.790688,30.8009618 730,30.4217611 730,30.0140135 C730,29.6062659 729.790688,29.2270651 729.445671,29.0097606 L725.378862,26.445181 L729.420772,23.8723018 C729.769634,23.6574121 729.982982,23.2777772 729.985146,22.868049 C729.986568,22.4615833 729.779883,22.0826611 729.437371,21.8637961 Z M704.953521,2.60040057 L726.582305,16.3777537 L723.046671,18.6269481 L723.046671,18.6269481 L704.953521,30.1468072 L683.374534,16.3694541 L704.953521,2.60040057 Z M726.582305,29.9891146 L704.953521,43.7996662 L683.374534,30.0223131 L686.769075,27.8561148 L704.306151,39.0522891 C704.695816,39.3012889 705.194626,39.3012889 705.584291,39.0522891 L723.171166,27.8561148 L726.582305,29.9891146 Z M704.953521,36.6288029 L683.374534,22.8514498 L686.246199,21.0172359 L704.306151,32.5619938 C704.695816,32.8109936 705.194626,32.8109936 705.584291,32.5619938 L723.71894,21.0338351 L726.598905,22.868049 L704.953521,36.6288029 Z" id="Shape"></path>
            </g>
        </g>
    </g>
</svg>