<?xml version="1.0" encoding="UTF-8"?>
<svg width="50px" height="45px" viewBox="0 0 50 45" version="1.1" xmlns="http://www.w3.org/2000/svg" xmlns:xlink="http://www.w3.org/1999/xlink">
    <!-- Generator: Sketch 41.2 (35397) - http://www.bohemiancoding.com/sketch -->
    <title>&gt;_</title>
    <desc>Created with Sketch.</desc>
    <defs></defs>
    <g id="Page-1" stroke="none" stroke-width="1" fill="none" fill-rule="evenodd">
        <g id="Artboard" transform="translate(-400.000000, -999.000000)" fill="#000000">
            <g id="Row-5:-Apps" transform="translate(20.000000, 999.000000)">
                <path d="M382.496615,0 L427.503386,0 C428.882228,0 430,1.11236572 430,2.49963413 L430,42.5003659 C430,43.8808758 428.885575,45 427.503386,45 L382.496615,45 C381.117772,45 380,43.8876342 380,42.5003659 L380,2.49963413 C380,1.1191243 381.114425,0 382.496615,0 Z M381.5,6.24539388 C381.5,5.54052734 381.816538,5 382.496094,5 L427.503906,5 C428.192105,5 428.5,5.41625977 428.5,6.24539387 L428.5,42.5046061 C428.5,42.963623 428.066284,43.5 427.503906,43.5 L382.496094,43.5 C382.0448,43.5 381.5,43.1142578 381.5,42.5046061 L381.5,6.24539388 Z M388.563166,12.7514825 C387.975995,12.3905812 387.5,12.6627389 387.5,13.3470596 L387.5,16.7386324 C387.5,17.4284619 387.97883,18.2922152 388.551021,18.6561294 L394.488454,22.4323421 C395.068917,22.801517 395.07249,23.4088442 394.488454,23.794109 L388.551021,27.7107969 C387.970558,28.093705 387.5,28.9688394 387.5,29.6531601 L387.5,33.0447329 C387.5,33.7345624 387.974429,33.9974566 388.551084,33.6347101 C388.551084,33.6347101 402.792039,24.8070685 402.792039,23.1007924 C402.79204,21.3945164 388.563166,12.7514825 388.563166,12.7514825 Z M402.690659,37.1828034 L402.690659,38.7609528 C402.690659,39.4452596 403.242129,40 403.937909,40 L423.752749,40 C424.441587,40 425,39.4359966 425,38.7609528 L425,37.1828034 C425,36.4984965 424.44853,35.9437561 423.752749,35.9437561 L403.937909,35.9437561 C403.249072,35.9437561 402.690659,36.5077595 402.690659,37.1828034 Z" id="&gt;_"></path>
            </g>
        </g>
    </g>
</svg>