<?xml version="1.0" encoding="UTF-8"?>
<svg width="47px" height="50px" viewBox="0 0 47 50" version="1.1" xmlns="http://www.w3.org/2000/svg" xmlns:xlink="http://www.w3.org/1999/xlink">
    <!-- Generator: Sketch 41.2 (35397) - http://www.bohemiancoding.com/sketch -->
    <title>Rectangle-25</title>
    <desc>Created with Sketch.</desc>
    <defs></defs>
    <g id="Page-1" stroke="none" stroke-width="1" fill="none" fill-rule="evenodd">
        <g id="Artboard" transform="translate(-500.000000, -1000.000000)" fill="#000000">
            <g id="Row-5:-Apps" transform="translate(20.000000, 999.000000)">
                <path d="M510,3.26096895 C510,1.87011719 509.243896,1 507.749132,1 L482.250868,1 C481.25,1 480,2.05737305 480,3.26096895 L480,48.739031 C480,50.0749512 481.213013,51 482.250868,51 L507.749132,51 C508.981689,51 510,50.3405762 510,48.739031 L510,38 L508.5,38 L508.5,41 C508.514771,41.7105713 508.244507,42 507,42 L483,42 C482.120728,42 481.556641,42 481.5,41 L481.5,6.36959525 C481.473877,5.44311523 481.876045,4.76379395 482.876045,4.75 L507.123955,4.75 C508.278809,4.79833984 508.568359,5.10583496 508.5,6 L508.5,8.5 L510,8.5 L510,3.26096895 Z M495,48.5 C496.035534,48.5 496.875,47.6605339 496.875,46.625 C496.875,45.5894661 496.035534,44.75 495,44.75 C493.964466,44.75 493.125,45.5894661 493.125,46.625 C493.125,47.6605339 493.964466,48.5 495,48.5 L495,48.5 Z M488.75,2.25 L501.25,2.25 L501.25,3.5 L488.75,3.5 L488.75,2.25 L488.75,2.25 Z M524.60391,29.7242799 C525.684156,27.872428 526.25,25.7633745 526.25,23.5 C526.25,21.2366255 525.632716,19.127572 524.60391,17.2757201 C524.60391,17.2242799 524.552469,17.2242799 524.552469,17.2242799 C522.391975,13.5205761 518.37963,11 513.75,11 C509.171811,11 505.108025,13.5205761 502.947531,17.2242799 L502.896091,17.2757201 C501.815844,19.127572 501.25,21.2366255 501.25,23.5 C501.25,25.7633745 501.867284,27.872428 502.896091,29.7242799 C502.896091,29.7757201 502.947531,29.7757201 502.947531,29.7757201 C505.108025,33.4794239 509.12037,36 513.75,36 C518.328189,36 522.391975,33.4794239 524.552469,29.7757201 C524.552469,29.7757201 524.552469,29.7242799 524.60391,29.7242799 L524.60391,29.7242799 Z M502.124486,23.9115226 L506.394033,23.9115226 C506.445473,25.7633745 506.702675,27.5123456 507.165638,29.1069959 L503.564815,29.1069959 C502.690329,27.563786 502.175926,25.8148149 502.124486,23.9115226 L502.124486,23.9115226 Z M503.564815,17.8930041 L507.165638,17.8930041 C506.702675,19.4876544 506.445473,21.2366255 506.394033,23.0884774 L502.124486,23.0884774 C502.175926,21.1851851 502.690329,19.436214 503.564815,17.8930041 L503.564815,17.8930041 Z M525.375514,23.0884774 L521.105967,23.0884774 C521.054527,21.2366255 520.797325,19.4876544 520.334362,17.8930041 L523.935185,17.8930041 C524.809671,19.436214 525.324074,21.1851851 525.375514,23.0884774 L525.375514,23.0884774 Z M520.231482,23.0884774 L514.161523,23.0884774 L514.161523,17.8930041 L519.408436,17.8930041 C519.92284,19.436214 520.180041,21.2366255 520.231482,23.0884774 L520.231482,23.0884774 Z M514.161523,17.0185185 L514.161523,11.9259259 C515.704733,12.1316872 517.145062,13.2633745 518.225309,15.218107 C518.533951,15.7839506 518.842593,16.4012346 519.099794,17.0185185 L514.161523,17.0185185 L514.161523,17.0185185 Z M513.338477,11.9259259 L513.338477,17.0185185 L508.400206,17.0185185 C508.657407,16.3497942 508.914609,15.7839506 509.274691,15.218107 C510.354938,13.2119341 511.795268,12.0802469 513.338477,11.9259259 L513.338477,11.9259259 Z M513.338477,17.8930041 L513.338477,23.0884774 L507.268519,23.0884774 C507.319959,21.2366255 507.577161,19.4876544 508.091564,17.8930041 L513.338477,17.8930041 L513.338477,17.8930041 Z M507.268519,23.9115226 L513.338477,23.9115226 L513.338477,29.1069959 L508.091564,29.1069959 C507.577161,27.563786 507.319959,25.7633745 507.268519,23.9115226 L507.268519,23.9115226 Z M513.338477,29.9814815 L513.338477,35.0740741 C511.795268,34.8683127 510.354938,33.7366255 509.274691,31.781893 C508.966049,31.2160494 508.657407,30.5987654 508.400206,29.9814815 L513.338477,29.9814815 L513.338477,29.9814815 L513.338477,29.9814815 Z M514.161523,35.0740741 L514.161523,29.9814815 L519.099794,29.9814815 C518.842593,30.6502057 518.585391,31.2160494 518.225309,31.781893 C517.145062,33.7880659 515.704733,34.9197531 514.161523,35.0740741 L514.161523,35.0740741 Z M514.161523,29.1069959 L514.161523,23.9115226 L520.231482,23.9115226 C520.180041,25.7633745 519.92284,27.5123456 519.408436,29.1069959 L514.161523,29.1069959 L514.161523,29.1069959 Z M521.105967,23.9115226 L525.375514,23.9115226 C525.324074,25.8148149 524.809671,27.563786 523.935185,29.1069959 L520.334362,29.1069959 C520.797325,27.5123456 521.054527,25.7633745 521.105967,23.9115226 L521.105967,23.9115226 Z M523.420782,17.0185185 L520.077161,17.0185185 C519.768519,16.1954733 519.459877,15.4753086 519.048354,14.755144 C518.48251,13.7777778 517.865226,12.9547325 517.145062,12.3888889 C519.717078,13.1604939 521.929012,14.8065844 523.420782,17.0185185 L523.420782,17.0185185 Z M510.406379,12.3374485 C509.686214,12.9547325 509.06893,13.7263375 508.503086,14.7037037 C508.091564,15.372428 507.782922,16.1440329 507.47428,16.9670782 L504.130658,16.9670782 C505.570988,14.8065844 507.782922,13.1604939 510.406379,12.3374485 L510.406379,12.3374485 Z M504.079218,29.9814815 L507.42284,29.9814815 C507.731482,30.8045267 508.040124,31.5246914 508.451646,32.244856 C509.01749,33.2222222 509.634774,34.0452675 510.354938,34.6111111 C507.782922,33.8395061 505.570988,32.1934156 504.079218,29.9814815 L504.079218,29.9814815 Z M517.093621,34.6625515 C517.813786,34.0452675 518.43107,33.2736625 518.996914,32.2962963 C519.408436,31.627572 519.717078,30.8559671 520.02572,30.0329218 L523.369342,30.0329218 C521.929012,32.1934156 519.717078,33.8395061 517.093621,34.6625515 L517.093621,34.6625515 Z" id="Rectangle-25"></path>
            </g>
        </g>
    </g>
</svg>